<svg width="2791" height="2220" viewBox="0 0 2791 2220" fill="none" xmlns="http://www.w3.org/2000/svg">
<g clip-path="url(#clip0_195_126)">
<rect width="2791" height="2220" fill="#F9C4C8"/>
<ellipse cx="2172" cy="1411" rx="472" ry="458" fill="#8BB578"/>
<ellipse cx="2132" cy="891.5" rx="472" ry="458.5" fill="#C358DE" fill-opacity="0.71"/>
<ellipse cx="1678.5" cy="564" rx="472.5" ry="458" fill="#B99866"/>
<ellipse cx="1102.5" cy="564" rx="472.5" ry="458" fill="#FBE77E"/>
<ellipse cx="618" cy="891.5" rx="472" ry="458.5" fill="#F39844"/>
<ellipse cx="623.5" cy="1411" rx="472.5" ry="458" fill="#E13434"/>
<ellipse cx="1102.5" cy="1700.5" rx="472.5" ry="458.5" fill="#FA0EB8" fill-opacity="0.71"/>
<ellipse cx="1719" cy="1700.5" rx="472" ry="458.5" fill="#5494DF" fill-opacity="0.71"/>
<path d="M914.406 1604.92H952.445C961.023 1604.92 967.562 1605.58 972.062 1606.89C978.109 1608.67 983.289 1611.84 987.602 1616.38C991.914 1620.93 995.195 1626.51 997.445 1633.12C999.695 1639.68 1000.82 1647.79 1000.82 1657.45C1000.82 1665.93 999.766 1673.24 997.656 1679.38C995.078 1686.88 991.398 1692.95 986.617 1697.59C983.008 1701.11 978.133 1703.85 971.992 1705.82C967.398 1707.27 961.258 1708 953.57 1708H914.406V1604.92ZM935.219 1622.36V1690.63H950.758C956.57 1690.63 960.766 1690.3 963.344 1689.65C966.719 1688.8 969.508 1687.38 971.711 1685.36C973.961 1683.34 975.789 1680.04 977.195 1675.45C978.602 1670.8 979.305 1664.5 979.305 1656.53C979.305 1648.56 978.602 1642.45 977.195 1638.18C975.789 1633.91 973.82 1630.59 971.289 1628.2C968.758 1625.8 965.547 1624.19 961.656 1623.34C958.75 1622.69 953.055 1622.36 944.57 1622.36H935.219ZM1018.4 1623.2V1604.92H1038.16V1623.2H1018.4ZM1018.4 1708V1633.33H1038.16V1708H1018.4ZM1051.52 1686.7L1071.34 1683.67C1072.19 1687.52 1073.9 1690.45 1076.48 1692.46C1079.05 1694.43 1082.66 1695.41 1087.3 1695.41C1092.41 1695.41 1096.26 1694.48 1098.84 1692.6C1100.57 1691.29 1101.44 1689.53 1101.44 1687.33C1101.44 1685.83 1100.97 1684.59 1100.03 1683.6C1099.05 1682.66 1096.84 1681.8 1093.42 1681C1077.48 1677.48 1067.38 1674.27 1063.12 1671.37C1057.21 1667.34 1054.26 1661.73 1054.26 1654.56C1054.26 1648.09 1056.81 1642.66 1061.92 1638.25C1067.03 1633.84 1074.95 1631.64 1085.69 1631.64C1095.91 1631.64 1103.5 1633.3 1108.47 1636.63C1113.44 1639.96 1116.86 1644.88 1118.73 1651.4L1100.1 1654.84C1099.3 1651.94 1097.78 1649.71 1095.53 1648.16C1093.33 1646.62 1090.16 1645.84 1086.04 1645.84C1080.84 1645.84 1077.11 1646.57 1074.86 1648.02C1073.36 1649.05 1072.61 1650.39 1072.61 1652.03C1072.61 1653.44 1073.27 1654.63 1074.58 1655.62C1076.36 1656.93 1082.5 1658.78 1093 1661.17C1103.55 1663.56 1110.91 1666.49 1115.08 1669.96C1119.2 1673.48 1121.27 1678.38 1121.27 1684.66C1121.27 1691.5 1118.41 1697.38 1112.69 1702.3C1106.97 1707.23 1098.51 1709.69 1087.3 1709.69C1077.13 1709.69 1069.07 1707.62 1063.12 1703.5C1057.21 1699.38 1053.34 1693.77 1051.52 1686.7ZM1136.8 1712.92L1159.38 1715.66C1159.75 1718.29 1160.62 1720.09 1161.98 1721.08C1163.85 1722.48 1166.8 1723.19 1170.84 1723.19C1175.99 1723.19 1179.86 1722.41 1182.44 1720.87C1184.17 1719.84 1185.48 1718.17 1186.38 1715.88C1186.98 1714.23 1187.29 1711.21 1187.29 1706.8V1695.91C1181.38 1703.97 1173.93 1708 1164.93 1708C1154.9 1708 1146.95 1703.76 1141.09 1695.27C1136.5 1688.57 1134.2 1680.23 1134.2 1670.24C1134.2 1657.73 1137.2 1648.16 1143.2 1641.55C1149.25 1634.95 1156.75 1631.64 1165.7 1631.64C1174.94 1631.64 1182.55 1635.7 1188.55 1643.8V1633.33H1207.05V1700.34C1207.05 1709.15 1206.32 1715.73 1204.87 1720.09C1203.41 1724.45 1201.38 1727.88 1198.75 1730.36C1196.12 1732.84 1192.61 1734.79 1188.2 1736.2C1183.84 1737.6 1178.31 1738.3 1171.61 1738.3C1158.95 1738.3 1149.98 1736.12 1144.68 1731.77C1139.38 1727.45 1136.73 1721.97 1136.73 1715.31C1136.73 1714.66 1136.76 1713.86 1136.8 1712.92ZM1154.45 1669.12C1154.45 1677.04 1155.98 1682.85 1159.02 1686.55C1162.12 1690.21 1165.91 1692.04 1170.41 1692.04C1175.24 1692.04 1179.32 1690.16 1182.65 1686.41C1185.98 1682.62 1187.64 1677.02 1187.64 1669.61C1187.64 1661.88 1186.05 1656.13 1182.86 1652.38C1179.67 1648.63 1175.64 1646.76 1170.77 1646.76C1166.03 1646.76 1162.12 1648.61 1159.02 1652.31C1155.98 1655.97 1154.45 1661.57 1154.45 1669.12ZM1275.81 1708V1696.82C1273.09 1700.8 1269.51 1703.95 1265.05 1706.24C1260.65 1708.54 1255.98 1709.69 1251.06 1709.69C1246.05 1709.69 1241.55 1708.59 1237.56 1706.38C1233.58 1704.18 1230.7 1701.09 1228.91 1697.1C1227.13 1693.12 1226.24 1687.61 1226.24 1680.58V1633.33H1246V1667.64C1246 1678.14 1246.35 1684.59 1247.05 1686.98C1247.8 1689.32 1249.14 1691.2 1251.06 1692.6C1252.98 1693.96 1255.42 1694.64 1258.38 1694.64C1261.75 1694.64 1264.77 1693.73 1267.45 1691.9C1270.12 1690.02 1271.95 1687.73 1272.93 1685.01C1273.91 1682.24 1274.41 1675.52 1274.41 1664.83V1633.33H1294.16V1708H1275.81ZM1307.73 1686.7L1327.56 1683.67C1328.41 1687.52 1330.12 1690.45 1332.7 1692.46C1335.27 1694.43 1338.88 1695.41 1343.52 1695.41C1348.63 1695.41 1352.48 1694.48 1355.05 1692.6C1356.79 1691.29 1357.66 1689.53 1357.66 1687.33C1357.66 1685.83 1357.19 1684.59 1356.25 1683.6C1355.27 1682.66 1353.06 1681.8 1349.64 1681C1333.7 1677.48 1323.6 1674.27 1319.34 1671.37C1313.43 1667.34 1310.48 1661.73 1310.48 1654.56C1310.48 1648.09 1313.03 1642.66 1318.14 1638.25C1323.25 1633.84 1331.17 1631.64 1341.91 1631.64C1352.12 1631.64 1359.72 1633.3 1364.69 1636.63C1369.66 1639.96 1373.08 1644.88 1374.95 1651.4L1356.32 1654.84C1355.52 1651.94 1354 1649.71 1351.75 1648.16C1349.55 1646.62 1346.38 1645.84 1342.26 1645.84C1337.05 1645.84 1333.33 1646.57 1331.08 1648.02C1329.58 1649.05 1328.83 1650.39 1328.83 1652.03C1328.83 1653.44 1329.48 1654.63 1330.8 1655.62C1332.58 1656.93 1338.72 1658.78 1349.22 1661.17C1359.77 1663.56 1367.12 1666.49 1371.3 1669.96C1375.42 1673.48 1377.48 1678.38 1377.48 1684.66C1377.48 1691.5 1374.62 1697.38 1368.91 1702.3C1363.19 1707.23 1354.73 1709.69 1343.52 1709.69C1333.35 1709.69 1325.29 1707.62 1319.34 1703.5C1313.43 1699.38 1309.56 1693.77 1307.73 1686.7ZM1429.09 1633.33V1649.08H1415.59V1679.17C1415.59 1685.27 1415.71 1688.83 1415.95 1689.86C1416.23 1690.84 1416.81 1691.66 1417.7 1692.32C1418.64 1692.98 1419.77 1693.3 1421.08 1693.3C1422.91 1693.3 1425.55 1692.67 1429.02 1691.41L1430.71 1706.73C1426.12 1708.7 1420.91 1709.69 1415.1 1709.69C1411.54 1709.69 1408.33 1709.1 1405.47 1707.93C1402.61 1706.71 1400.5 1705.16 1399.14 1703.29C1397.83 1701.37 1396.91 1698.79 1396.4 1695.55C1395.98 1693.26 1395.77 1688.62 1395.77 1681.63V1649.08H1386.7V1633.33H1395.77V1618.49L1415.59 1606.96V1633.33H1429.09Z" fill="black"/>
<path d="M1580.2 1674.46L1600.45 1672.49C1601.67 1679.29 1604.13 1684.28 1607.84 1687.47C1611.59 1690.66 1616.62 1692.25 1622.95 1692.25C1629.66 1692.25 1634.7 1690.84 1638.07 1688.03C1641.49 1685.17 1643.2 1681.84 1643.2 1678.05C1643.2 1675.61 1642.48 1673.55 1641.02 1671.86C1639.62 1670.12 1637.13 1668.62 1633.57 1667.36C1631.13 1666.52 1625.58 1665.02 1616.91 1662.86C1605.75 1660.09 1597.92 1656.7 1593.42 1652.66C1587.09 1646.99 1583.93 1640.08 1583.93 1631.92C1583.93 1626.67 1585.41 1621.77 1588.36 1617.23C1591.36 1612.63 1595.65 1609.14 1601.23 1606.75C1606.85 1604.36 1613.62 1603.16 1621.55 1603.16C1634.48 1603.16 1644.21 1606 1650.73 1611.67C1657.29 1617.34 1660.73 1624.91 1661.06 1634.38L1640.25 1635.3C1639.36 1630 1637.44 1626.2 1634.48 1623.91C1631.58 1621.56 1627.2 1620.39 1621.34 1620.39C1615.29 1620.39 1610.55 1621.63 1607.13 1624.12C1604.93 1625.71 1603.83 1627.84 1603.83 1630.52C1603.83 1632.95 1604.86 1635.04 1606.92 1636.77C1609.55 1638.98 1615.92 1641.27 1626.05 1643.66C1636.17 1646.05 1643.65 1648.54 1648.48 1651.12C1653.35 1653.65 1657.15 1657.14 1659.87 1661.59C1662.63 1666 1664.02 1671.46 1664.02 1677.98C1664.02 1683.88 1662.38 1689.41 1659.09 1694.57C1655.81 1699.73 1651.17 1703.57 1645.17 1706.1C1639.17 1708.59 1631.7 1709.83 1622.74 1709.83C1609.71 1709.83 1599.7 1706.83 1592.72 1700.83C1585.73 1694.78 1581.56 1685.99 1580.2 1674.46ZM1730.53 1708V1696.82C1727.81 1700.8 1724.23 1703.95 1719.77 1706.24C1715.37 1708.54 1710.7 1709.69 1705.78 1709.69C1700.77 1709.69 1696.27 1708.59 1692.28 1706.38C1688.3 1704.18 1685.41 1701.09 1683.63 1697.1C1681.85 1693.12 1680.96 1687.61 1680.96 1680.58V1633.33H1700.72V1667.64C1700.72 1678.14 1701.07 1684.59 1701.77 1686.98C1702.52 1689.32 1703.86 1691.2 1705.78 1692.6C1707.7 1693.96 1710.14 1694.64 1713.09 1694.64C1716.47 1694.64 1719.49 1693.73 1722.16 1691.9C1724.84 1690.02 1726.66 1687.73 1727.65 1685.01C1728.63 1682.24 1729.12 1675.52 1729.12 1664.83V1633.33H1748.88V1708H1730.53ZM1788.33 1708H1768.57V1633.33H1786.92V1643.95C1790.06 1638.93 1792.88 1635.62 1795.36 1634.03C1797.89 1632.44 1800.75 1631.64 1803.94 1631.64C1808.44 1631.64 1812.77 1632.88 1816.95 1635.37L1810.83 1652.59C1807.5 1650.44 1804.41 1649.36 1801.55 1649.36C1798.78 1649.36 1796.44 1650.13 1794.52 1651.68C1792.59 1653.18 1791.07 1655.92 1789.95 1659.91C1788.87 1663.89 1788.33 1672.23 1788.33 1684.94V1708ZM1824.96 1633.33H1843.38V1644.3C1845.77 1640.55 1849.01 1637.5 1853.09 1635.16C1857.16 1632.81 1861.69 1631.64 1866.66 1631.64C1875.33 1631.64 1882.69 1635.04 1888.73 1641.84C1894.78 1648.63 1897.8 1658.1 1897.8 1670.24C1897.8 1682.71 1894.76 1692.41 1888.66 1699.35C1882.57 1706.24 1875.19 1709.69 1866.52 1709.69C1862.39 1709.69 1858.64 1708.87 1855.27 1707.23C1851.94 1705.59 1848.42 1702.77 1844.72 1698.79V1736.41H1824.96V1633.33ZM1844.51 1669.4C1844.51 1677.79 1846.17 1684 1849.5 1688.03C1852.83 1692.02 1856.88 1694.01 1861.66 1694.01C1866.26 1694.01 1870.08 1692.18 1873.12 1688.52C1876.17 1684.82 1877.7 1678.77 1877.7 1670.38C1877.7 1662.55 1876.12 1656.74 1872.98 1652.95C1869.84 1649.15 1865.95 1647.25 1861.31 1647.25C1856.48 1647.25 1852.48 1649.12 1849.29 1652.88C1846.1 1656.58 1844.51 1662.09 1844.51 1669.4ZM1932.47 1708H1912.71V1633.33H1931.06V1643.95C1934.2 1638.93 1937.02 1635.62 1939.5 1634.03C1942.03 1632.44 1944.89 1631.64 1948.08 1631.64C1952.58 1631.64 1956.91 1632.88 1961.09 1635.37L1954.97 1652.59C1951.64 1650.44 1948.55 1649.36 1945.69 1649.36C1942.92 1649.36 1940.58 1650.13 1938.66 1651.68C1936.73 1653.18 1935.21 1655.92 1934.09 1659.91C1933.01 1663.89 1932.47 1672.23 1932.47 1684.94V1708ZM1969.66 1623.2V1604.92H1989.42V1623.2H1969.66ZM1969.66 1708V1633.33H1989.42V1708H1969.66ZM2002.78 1686.7L2022.61 1683.67C2023.45 1687.52 2025.16 1690.45 2027.74 1692.46C2030.32 1694.43 2033.93 1695.41 2038.57 1695.41C2043.68 1695.41 2047.52 1694.48 2050.1 1692.6C2051.84 1691.29 2052.7 1689.53 2052.7 1687.33C2052.7 1685.83 2052.23 1684.59 2051.3 1683.6C2050.31 1682.66 2048.11 1681.8 2044.69 1681C2028.75 1677.48 2018.65 1674.27 2014.38 1671.37C2008.48 1667.34 2005.52 1661.73 2005.52 1654.56C2005.52 1648.09 2008.08 1642.66 2013.19 1638.25C2018.3 1633.84 2026.22 1631.64 2036.95 1631.64C2047.17 1631.64 2054.77 1633.3 2059.73 1636.63C2064.7 1639.96 2068.12 1644.88 2070 1651.4L2051.37 1654.84C2050.57 1651.94 2049.05 1649.71 2046.8 1648.16C2044.59 1646.62 2041.43 1645.84 2037.3 1645.84C2032.1 1645.84 2028.38 1646.57 2026.12 1648.02C2024.62 1649.05 2023.88 1650.39 2023.88 1652.03C2023.88 1653.44 2024.53 1654.63 2025.84 1655.62C2027.62 1656.93 2033.77 1658.78 2044.27 1661.17C2054.81 1663.56 2062.17 1666.49 2066.34 1669.96C2070.47 1673.48 2072.53 1678.38 2072.53 1684.66C2072.53 1691.5 2069.67 1697.38 2063.95 1702.3C2058.23 1707.23 2049.77 1709.69 2038.57 1709.69C2028.4 1709.69 2020.34 1707.62 2014.38 1703.5C2008.48 1699.38 2004.61 1693.77 2002.78 1686.7ZM2133.14 1684.23L2152.83 1687.54C2150.3 1694.76 2146.29 1700.27 2140.8 1704.06C2135.37 1707.81 2128.55 1709.69 2120.34 1709.69C2107.36 1709.69 2097.75 1705.45 2091.52 1696.96C2086.59 1690.16 2084.13 1681.59 2084.13 1671.23C2084.13 1658.85 2087.37 1649.17 2093.84 1642.19C2100.3 1635.16 2108.48 1631.64 2118.38 1631.64C2129.48 1631.64 2138.25 1635.32 2144.67 1642.68C2151.09 1649.99 2154.16 1661.22 2153.88 1676.36H2104.38C2104.52 1682.22 2106.12 1686.79 2109.16 1690.07C2112.21 1693.3 2116.01 1694.92 2120.55 1694.92C2123.65 1694.92 2126.25 1694.08 2128.36 1692.39C2130.47 1690.7 2132.06 1687.98 2133.14 1684.23ZM2134.27 1664.27C2134.12 1658.55 2132.65 1654.21 2129.84 1651.26C2127.02 1648.26 2123.6 1646.76 2119.57 1646.76C2115.26 1646.76 2111.7 1648.33 2108.88 1651.47C2106.07 1654.61 2104.69 1658.88 2104.73 1664.27H2134.27Z" fill="black"/>
<path d="M1988.2 883.461L2008.45 881.492C2009.67 888.289 2012.13 893.281 2015.84 896.469C2019.59 899.656 2024.62 901.25 2030.95 901.25C2037.66 901.25 2042.7 899.844 2046.07 897.031C2049.49 894.172 2051.2 890.844 2051.2 887.047C2051.2 884.609 2050.48 882.547 2049.02 880.859C2047.62 879.125 2045.13 877.625 2041.57 876.359C2039.13 875.516 2033.58 874.016 2024.91 871.859C2013.75 869.094 2005.92 865.695 2001.42 861.664C1995.09 855.992 1991.93 849.078 1991.93 840.922C1991.93 835.672 1993.41 830.773 1996.36 826.227C1999.36 821.633 2003.65 818.141 2009.23 815.75C2014.85 813.359 2021.62 812.164 2029.55 812.164C2042.48 812.164 2052.21 815 2058.73 820.672C2065.29 826.344 2068.73 833.914 2069.06 843.383L2048.25 844.297C2047.36 839 2045.44 835.203 2042.48 832.906C2039.58 830.562 2035.2 829.391 2029.34 829.391C2023.29 829.391 2018.55 830.633 2015.13 833.117C2012.93 834.711 2011.83 836.844 2011.83 839.516C2011.83 841.953 2012.86 844.039 2014.92 845.773C2017.55 847.977 2023.92 850.273 2034.05 852.664C2044.17 855.055 2051.65 857.539 2056.48 860.117C2061.35 862.648 2065.15 866.141 2067.87 870.594C2070.63 875 2072.02 880.461 2072.02 886.977C2072.02 892.883 2070.38 898.414 2067.09 903.57C2063.81 908.727 2059.17 912.57 2053.17 915.102C2047.17 917.586 2039.7 918.828 2030.74 918.828C2017.71 918.828 2007.7 915.828 2000.72 909.828C1993.73 903.781 1989.56 894.992 1988.2 883.461ZM2104.15 865.109L2086.22 861.875C2088.23 854.656 2091.7 849.312 2096.62 845.844C2101.55 842.375 2108.86 840.641 2118.56 840.641C2127.38 840.641 2133.94 841.695 2138.25 843.805C2142.56 845.867 2145.59 848.516 2147.32 851.75C2149.1 854.938 2149.99 860.82 2149.99 869.398L2149.78 892.461C2149.78 899.023 2150.09 903.875 2150.7 907.016C2151.35 910.109 2152.55 913.438 2154.28 917H2134.73C2134.22 915.688 2133.59 913.742 2132.84 911.164C2132.51 909.992 2132.27 909.219 2132.13 908.844C2128.76 912.125 2125.15 914.586 2121.3 916.227C2117.46 917.867 2113.36 918.688 2109 918.688C2101.31 918.688 2095.24 916.602 2090.79 912.43C2086.38 908.258 2084.18 902.984 2084.18 896.609C2084.18 892.391 2085.19 888.641 2087.2 885.359C2089.22 882.031 2092.03 879.5 2095.64 877.766C2099.3 875.984 2104.55 874.438 2111.39 873.125C2120.62 871.391 2127.02 869.773 2130.59 868.273V866.305C2130.59 862.508 2129.65 859.812 2127.77 858.219C2125.9 856.578 2122.36 855.758 2117.16 855.758C2113.64 855.758 2110.9 856.461 2108.93 857.867C2106.96 859.227 2105.37 861.641 2104.15 865.109ZM2130.59 881.141C2128.05 881.984 2124.05 882.992 2118.56 884.164C2113.08 885.336 2109.49 886.484 2107.8 887.609C2105.23 889.438 2103.94 891.758 2103.94 894.57C2103.94 897.336 2104.97 899.727 2107.03 901.742C2109.09 903.758 2111.72 904.766 2114.91 904.766C2118.47 904.766 2121.87 903.594 2125.1 901.25C2127.49 899.469 2129.06 897.289 2129.81 894.711C2130.33 893.023 2130.59 889.812 2130.59 885.078V881.141ZM2238.02 917H2219.67V906.031C2216.62 910.297 2213.02 913.484 2208.84 915.594C2204.72 917.656 2200.55 918.688 2196.33 918.688C2187.75 918.688 2180.39 915.242 2174.25 908.352C2168.16 901.414 2165.11 891.758 2165.11 879.383C2165.11 866.727 2168.09 857.117 2174.04 850.555C2179.99 843.945 2187.52 840.641 2196.61 840.641C2204.95 840.641 2212.17 844.109 2218.27 851.047V813.922H2238.02V917ZM2185.29 878.047C2185.29 886.016 2186.39 891.781 2188.59 895.344C2191.78 900.5 2196.23 903.078 2201.95 903.078C2206.5 903.078 2210.37 901.156 2213.55 897.312C2216.74 893.422 2218.34 887.633 2218.34 879.945C2218.34 871.367 2216.79 865.203 2213.7 861.453C2210.6 857.656 2206.64 855.758 2201.81 855.758C2197.12 855.758 2193.19 857.633 2190 861.383C2186.86 865.086 2185.29 870.641 2185.29 878.047ZM2325.49 917H2305.73V878.891C2305.73 870.828 2305.31 865.625 2304.47 863.281C2303.62 860.891 2302.24 859.039 2300.32 857.727C2298.45 856.414 2296.17 855.758 2293.5 855.758C2290.08 855.758 2287.01 856.695 2284.29 858.57C2281.57 860.445 2279.7 862.93 2278.66 866.023C2277.68 869.117 2277.19 874.836 2277.19 883.18V917H2257.43V842.328H2275.78V853.297C2282.3 844.859 2290.5 840.641 2300.39 840.641C2304.75 840.641 2308.73 841.438 2312.34 843.031C2315.95 844.578 2318.67 846.57 2320.5 849.008C2322.38 851.445 2323.66 854.211 2324.37 857.305C2325.12 860.398 2325.49 864.828 2325.49 870.594V917ZM2388.84 893.234L2408.53 896.539C2406 903.758 2401.99 909.266 2396.51 913.062C2391.07 916.812 2384.25 918.688 2376.05 918.688C2363.06 918.688 2353.45 914.445 2347.22 905.961C2342.3 899.164 2339.84 890.586 2339.84 880.227C2339.84 867.852 2343.07 858.172 2349.54 851.188C2356.01 844.156 2364.19 840.641 2374.08 840.641C2385.19 840.641 2393.95 844.32 2400.38 851.68C2406.8 858.992 2409.87 870.219 2409.59 885.359H2360.09C2360.23 891.219 2361.82 895.789 2364.87 899.07C2367.91 902.305 2371.71 903.922 2376.26 903.922C2379.35 903.922 2381.95 903.078 2384.06 901.391C2386.17 899.703 2387.77 896.984 2388.84 893.234ZM2389.97 873.266C2389.83 867.547 2388.35 863.211 2385.54 860.258C2382.73 857.258 2379.3 855.758 2375.27 855.758C2370.96 855.758 2367.4 857.328 2364.59 860.469C2361.77 863.609 2360.39 867.875 2360.44 873.266H2389.97ZM2418.8 895.695L2438.62 892.672C2439.47 896.516 2441.18 899.445 2443.76 901.461C2446.34 903.43 2449.95 904.414 2454.59 904.414C2459.7 904.414 2463.54 903.477 2466.12 901.602C2467.85 900.289 2468.72 898.531 2468.72 896.328C2468.72 894.828 2468.25 893.586 2467.31 892.602C2466.33 891.664 2464.12 890.797 2460.7 890C2444.77 886.484 2434.66 883.273 2430.4 880.367C2424.49 876.336 2421.54 870.734 2421.54 863.562C2421.54 857.094 2424.09 851.656 2429.2 847.25C2434.31 842.844 2442.23 840.641 2452.97 840.641C2463.19 840.641 2470.78 842.305 2475.75 845.633C2480.72 848.961 2484.14 853.883 2486.02 860.398L2467.38 863.844C2466.59 860.938 2465.06 858.711 2462.81 857.164C2460.61 855.617 2457.45 854.844 2453.32 854.844C2448.12 854.844 2444.39 855.57 2442.14 857.023C2440.64 858.055 2439.89 859.391 2439.89 861.031C2439.89 862.438 2440.55 863.633 2441.86 864.617C2443.64 865.93 2449.78 867.781 2460.28 870.172C2470.83 872.562 2478.19 875.492 2482.36 878.961C2486.48 882.477 2488.55 887.375 2488.55 893.656C2488.55 900.5 2485.69 906.383 2479.97 911.305C2474.25 916.227 2465.79 918.688 2454.59 918.688C2444.41 918.688 2436.35 916.625 2430.4 912.5C2424.49 908.375 2420.62 902.773 2418.8 895.695ZM2498.95 895.695L2518.78 892.672C2519.62 896.516 2521.34 899.445 2523.91 901.461C2526.49 903.43 2530.1 904.414 2534.74 904.414C2539.85 904.414 2543.7 903.477 2546.27 901.602C2548.01 900.289 2548.88 898.531 2548.88 896.328C2548.88 894.828 2548.41 893.586 2547.47 892.602C2546.48 891.664 2544.28 890.797 2540.86 890C2524.92 886.484 2514.82 883.273 2510.55 880.367C2504.65 876.336 2501.7 870.734 2501.7 863.562C2501.7 857.094 2504.25 851.656 2509.36 847.25C2514.47 842.844 2522.39 840.641 2533.12 840.641C2543.34 840.641 2550.94 842.305 2555.91 845.633C2560.88 848.961 2564.3 853.883 2566.17 860.398L2547.54 863.844C2546.74 860.938 2545.22 858.711 2542.97 857.164C2540.77 855.617 2537.6 854.844 2533.48 854.844C2528.27 854.844 2524.55 855.57 2522.3 857.023C2520.8 858.055 2520.05 859.391 2520.05 861.031C2520.05 862.438 2520.7 863.633 2522.02 864.617C2523.8 865.93 2529.94 867.781 2540.44 870.172C2550.98 872.562 2558.34 875.492 2562.52 878.961C2566.64 882.477 2568.7 887.375 2568.7 893.656C2568.7 900.5 2565.84 906.383 2560.12 911.305C2554.41 916.227 2545.95 918.688 2534.74 918.688C2524.57 918.688 2516.51 916.625 2510.55 912.5C2504.65 908.375 2500.78 902.773 2498.95 895.695Z" fill="black"/>
<path d="M1086.67 401.922H1107.41V467.172C1107.41 475.703 1106.66 482.266 1105.16 486.859C1103.15 492.859 1099.49 497.688 1094.2 501.344C1088.9 504.953 1081.91 506.758 1073.24 506.758C1063.07 506.758 1055.24 503.922 1049.76 498.25C1044.27 492.531 1041.51 484.164 1041.46 473.148L1061.08 470.898C1061.31 476.805 1062.18 480.977 1063.68 483.414C1065.93 487.117 1069.35 488.969 1073.95 488.969C1078.59 488.969 1081.87 487.656 1083.79 485.031C1085.71 482.359 1086.67 476.852 1086.67 468.508V401.922ZM1124.92 466.609C1124.92 460.047 1126.54 453.695 1129.77 447.555C1133.01 441.414 1137.58 436.727 1143.48 433.492C1149.44 430.258 1156.07 428.641 1163.38 428.641C1174.68 428.641 1183.94 432.32 1191.16 439.68C1198.38 446.992 1201.98 456.25 1201.98 467.453C1201.98 478.75 1198.33 488.125 1191.02 495.578C1183.75 502.984 1174.59 506.688 1163.52 506.688C1156.68 506.688 1150.14 505.141 1143.91 502.047C1137.72 498.953 1133.01 494.43 1129.77 488.477C1126.54 482.477 1124.92 475.188 1124.92 466.609ZM1145.17 467.664C1145.17 475.07 1146.93 480.742 1150.45 484.68C1153.96 488.617 1158.3 490.586 1163.45 490.586C1168.61 490.586 1172.92 488.617 1176.39 484.68C1179.91 480.742 1181.66 475.023 1181.66 467.523C1181.66 460.211 1179.91 454.586 1176.39 450.648C1172.92 446.711 1168.61 444.742 1163.45 444.742C1158.3 444.742 1153.96 446.711 1150.45 450.648C1146.93 454.586 1145.17 460.258 1145.17 467.664ZM1208.17 430.328H1229.2L1247.05 483.344L1264.49 430.328H1284.95L1258.59 502.188L1253.88 515.195C1252.14 519.555 1250.48 522.883 1248.88 525.18C1247.34 527.477 1245.53 529.328 1243.47 530.734C1241.45 532.188 1238.95 533.312 1235.95 534.109C1232.99 534.906 1229.64 535.305 1225.89 535.305C1222.09 535.305 1218.37 534.906 1214.71 534.109L1212.95 518.641C1216.05 519.25 1218.84 519.555 1221.32 519.555C1225.91 519.555 1229.31 518.195 1231.52 515.477C1233.72 512.805 1235.41 509.383 1236.58 505.211L1208.17 430.328Z" fill="black"/>
<path d="M2142.62 1441V1337.92H2213.28V1355.36H2163.43V1379.76H2206.46V1397.2H2163.43V1441H2142.62ZM2273.61 1417.23L2293.3 1420.54C2290.77 1427.76 2286.76 1433.27 2281.27 1437.06C2275.84 1440.81 2269.02 1442.69 2260.81 1442.69C2247.83 1442.69 2238.22 1438.45 2231.98 1429.96C2227.06 1423.16 2224.6 1414.59 2224.6 1404.23C2224.6 1391.85 2227.84 1382.17 2234.3 1375.19C2240.77 1368.16 2248.95 1364.64 2258.84 1364.64C2269.95 1364.64 2278.72 1368.32 2285.14 1375.68C2291.56 1382.99 2294.63 1394.22 2294.35 1409.36H2244.85C2244.99 1415.22 2246.59 1419.79 2249.63 1423.07C2252.68 1426.3 2256.48 1427.92 2261.02 1427.92C2264.12 1427.92 2266.72 1427.08 2268.83 1425.39C2270.94 1423.7 2272.53 1420.98 2273.61 1417.23ZM2274.73 1397.27C2274.59 1391.55 2273.12 1387.21 2270.3 1384.26C2267.49 1381.26 2264.07 1379.76 2260.04 1379.76C2255.73 1379.76 2252.16 1381.33 2249.35 1384.47C2246.54 1387.61 2245.16 1391.88 2245.2 1397.27H2274.73ZM2325.29 1389.11L2307.36 1385.88C2309.38 1378.66 2312.84 1373.31 2317.77 1369.84C2322.69 1366.38 2330 1364.64 2339.7 1364.64C2348.52 1364.64 2355.08 1365.7 2359.39 1367.8C2363.7 1369.87 2366.73 1372.52 2368.46 1375.75C2370.24 1378.94 2371.13 1384.82 2371.13 1393.4L2370.92 1416.46C2370.92 1423.02 2371.23 1427.88 2371.84 1431.02C2372.49 1434.11 2373.69 1437.44 2375.42 1441H2355.88C2355.36 1439.69 2354.73 1437.74 2353.98 1435.16C2353.65 1433.99 2353.41 1433.22 2353.27 1432.84C2349.9 1436.12 2346.29 1438.59 2342.45 1440.23C2338.6 1441.87 2334.5 1442.69 2330.14 1442.69C2322.45 1442.69 2316.38 1440.6 2311.93 1436.43C2307.52 1432.26 2305.32 1426.98 2305.32 1420.61C2305.32 1416.39 2306.33 1412.64 2308.34 1409.36C2310.36 1406.03 2313.17 1403.5 2316.78 1401.77C2320.44 1399.98 2325.69 1398.44 2332.53 1397.12C2341.77 1395.39 2348.16 1393.77 2351.73 1392.27V1390.3C2351.73 1386.51 2350.79 1383.81 2348.91 1382.22C2347.04 1380.58 2343.5 1379.76 2338.3 1379.76C2334.78 1379.76 2332.04 1380.46 2330.07 1381.87C2328.1 1383.23 2326.51 1385.64 2325.29 1389.11ZM2351.73 1405.14C2349.2 1405.98 2345.19 1406.99 2339.7 1408.16C2334.22 1409.34 2330.63 1410.48 2328.95 1411.61C2326.37 1413.44 2325.08 1415.76 2325.08 1418.57C2325.08 1421.34 2326.11 1423.73 2328.17 1425.74C2330.23 1427.76 2332.86 1428.77 2336.05 1428.77C2339.61 1428.77 2343.01 1427.59 2346.24 1425.25C2348.63 1423.47 2350.2 1421.29 2350.95 1418.71C2351.47 1417.02 2351.73 1413.81 2351.73 1409.08V1405.14ZM2409.59 1441H2389.84V1366.33H2408.19V1376.95C2411.33 1371.93 2414.14 1368.62 2416.62 1367.03C2419.16 1365.44 2422.02 1364.64 2425.2 1364.64C2429.7 1364.64 2434.04 1365.88 2438.21 1368.37L2432.09 1385.59C2428.77 1383.44 2425.67 1382.36 2422.81 1382.36C2420.05 1382.36 2417.7 1383.13 2415.78 1384.68C2413.86 1386.18 2412.34 1388.92 2411.21 1392.91C2410.13 1396.89 2409.59 1405.23 2409.59 1417.94V1441Z" fill="black"/>
<path d="M1633.68 505V419.359H1603.09V401.922H1685.01V419.359H1654.49V505H1633.68ZM1709.27 505H1689.51V430.328H1707.86V440.945C1711 435.93 1713.81 432.625 1716.3 431.031C1718.83 429.438 1721.69 428.641 1724.88 428.641C1729.38 428.641 1733.71 429.883 1737.88 432.367L1731.77 449.594C1728.44 447.438 1725.34 446.359 1722.48 446.359C1719.72 446.359 1717.38 447.133 1715.45 448.68C1713.53 450.18 1712.01 452.922 1710.88 456.906C1709.8 460.891 1709.27 469.234 1709.27 481.938V505ZM1795.61 505V493.82C1792.89 497.805 1789.3 500.945 1784.85 503.242C1780.45 505.539 1775.78 506.688 1770.86 506.688C1765.84 506.688 1761.34 505.586 1757.36 503.383C1753.38 501.18 1750.49 498.086 1748.71 494.102C1746.93 490.117 1746.04 484.609 1746.04 477.578V430.328H1765.8V464.641C1765.8 475.141 1766.15 481.586 1766.85 483.977C1767.6 486.32 1768.94 488.195 1770.86 489.602C1772.78 490.961 1775.22 491.641 1778.17 491.641C1781.55 491.641 1784.57 490.727 1787.24 488.898C1789.91 487.023 1791.74 484.727 1792.73 482.008C1793.71 479.242 1794.2 472.516 1794.2 461.828V430.328H1813.96V505H1795.61ZM1827.53 483.695L1847.36 480.672C1848.2 484.516 1849.91 487.445 1852.49 489.461C1855.07 491.43 1858.68 492.414 1863.32 492.414C1868.43 492.414 1872.27 491.477 1874.85 489.602C1876.59 488.289 1877.45 486.531 1877.45 484.328C1877.45 482.828 1876.98 481.586 1876.05 480.602C1875.06 479.664 1872.86 478.797 1869.44 478C1853.5 474.484 1843.4 471.273 1839.13 468.367C1833.23 464.336 1830.27 458.734 1830.27 451.562C1830.27 445.094 1832.83 439.656 1837.94 435.25C1843.05 430.844 1850.97 428.641 1861.7 428.641C1871.92 428.641 1879.52 430.305 1884.48 433.633C1889.45 436.961 1892.88 441.883 1894.75 448.398L1876.12 451.844C1875.32 448.938 1873.8 446.711 1871.55 445.164C1869.34 443.617 1866.18 442.844 1862.05 442.844C1856.85 442.844 1853.12 443.57 1850.88 445.023C1849.38 446.055 1848.62 447.391 1848.62 449.031C1848.62 450.438 1849.28 451.633 1850.59 452.617C1852.38 453.93 1858.52 455.781 1869.02 458.172C1879.56 460.562 1886.92 463.492 1891.09 466.961C1895.22 470.477 1897.28 475.375 1897.28 481.656C1897.28 488.5 1894.42 494.383 1888.7 499.305C1882.98 504.227 1874.52 506.688 1863.32 506.688C1853.15 506.688 1845.09 504.625 1839.13 500.5C1833.23 496.375 1829.36 490.773 1827.53 483.695ZM1948.89 430.328V446.078H1935.39V476.172C1935.39 482.266 1935.51 485.828 1935.74 486.859C1936.02 487.844 1936.61 488.664 1937.5 489.32C1938.44 489.977 1939.56 490.305 1940.88 490.305C1942.7 490.305 1945.35 489.672 1948.82 488.406L1950.51 503.734C1945.91 505.703 1940.71 506.688 1934.9 506.688C1931.34 506.688 1928.12 506.102 1925.27 504.93C1922.41 503.711 1920.3 502.164 1918.94 500.289C1917.62 498.367 1916.71 495.789 1916.2 492.555C1915.77 490.258 1915.56 485.617 1915.56 478.633V446.078H1906.49V430.328H1915.56V415.492L1935.39 403.961V430.328H1948.89Z" fill="black"/>
<path d="M405.43 1441H382.789L373.789 1417.59H332.586L324.078 1441H302L342.148 1337.92H364.156L405.43 1441ZM367.109 1400.22L352.906 1361.97L338.984 1400.22H367.109ZM484.32 1441H464.562V1402.89C464.562 1394.83 464.141 1389.62 463.297 1387.28C462.453 1384.89 461.07 1383.04 459.148 1381.73C457.273 1380.41 455 1379.76 452.328 1379.76C448.906 1379.76 445.836 1380.7 443.117 1382.57C440.398 1384.45 438.523 1386.93 437.492 1390.02C436.508 1393.12 436.016 1398.84 436.016 1407.18V1441H416.258V1366.33H434.609V1377.3C441.125 1368.86 449.328 1364.64 459.219 1364.64C463.578 1364.64 467.562 1365.44 471.172 1367.03C474.781 1368.58 477.5 1370.57 479.328 1373.01C481.203 1375.45 482.492 1378.21 483.195 1381.3C483.945 1384.4 484.32 1388.83 484.32 1394.59V1441ZM502.602 1445.92L525.172 1448.66C525.547 1451.29 526.414 1453.09 527.773 1454.08C529.648 1455.48 532.602 1456.19 536.633 1456.19C541.789 1456.19 545.656 1455.41 548.234 1453.87C549.969 1452.84 551.281 1451.17 552.172 1448.88C552.781 1447.23 553.086 1444.21 553.086 1439.8V1428.91C547.18 1436.97 539.727 1441 530.727 1441C520.695 1441 512.75 1436.76 506.891 1428.27C502.297 1421.57 500 1413.23 500 1403.24C500 1390.73 503 1381.16 509 1374.55C515.047 1367.95 522.547 1364.64 531.5 1364.64C540.734 1364.64 548.352 1368.7 554.352 1376.8V1366.33H572.844V1433.34C572.844 1442.15 572.117 1448.73 570.664 1453.09C569.211 1457.45 567.172 1460.88 564.547 1463.36C561.922 1465.84 558.406 1467.79 554 1469.2C549.641 1470.6 544.109 1471.3 537.406 1471.3C524.75 1471.3 515.773 1469.12 510.477 1464.77C505.18 1460.45 502.531 1454.97 502.531 1448.31C502.531 1447.66 502.555 1446.86 502.602 1445.92ZM520.25 1402.12C520.25 1410.04 521.773 1415.85 524.82 1419.55C527.914 1423.21 531.711 1425.04 536.211 1425.04C541.039 1425.04 545.117 1423.16 548.445 1419.41C551.773 1415.62 553.438 1410.02 553.438 1402.61C553.438 1394.88 551.844 1389.13 548.656 1385.38C545.469 1381.63 541.438 1379.76 536.562 1379.76C531.828 1379.76 527.914 1381.61 524.82 1385.31C521.773 1388.97 520.25 1394.57 520.25 1402.12ZM635.703 1417.23L655.391 1420.54C652.859 1427.76 648.852 1433.27 643.367 1437.06C637.93 1440.81 631.109 1442.69 622.906 1442.69C609.922 1442.69 600.312 1438.45 594.078 1429.96C589.156 1423.16 586.695 1414.59 586.695 1404.23C586.695 1391.85 589.93 1382.17 596.398 1375.19C602.867 1368.16 611.047 1364.64 620.938 1364.64C632.047 1364.64 640.812 1368.32 647.234 1375.68C653.656 1382.99 656.727 1394.22 656.445 1409.36H606.945C607.086 1415.22 608.68 1419.79 611.727 1423.07C614.773 1426.3 618.57 1427.92 623.117 1427.92C626.211 1427.92 628.812 1427.08 630.922 1425.39C633.031 1423.7 634.625 1420.98 635.703 1417.23ZM636.828 1397.27C636.688 1391.55 635.211 1387.21 632.398 1384.26C629.586 1381.26 626.164 1379.76 622.133 1379.76C617.82 1379.76 614.258 1381.33 611.445 1384.47C608.633 1387.61 607.25 1391.88 607.297 1397.27H636.828ZM691.531 1441H671.773V1366.33H690.125V1376.95C693.266 1371.93 696.078 1368.62 698.562 1367.03C701.094 1365.44 703.953 1364.64 707.141 1364.64C711.641 1364.64 715.977 1365.88 720.148 1368.37L714.031 1385.59C710.703 1383.44 707.609 1382.36 704.75 1382.36C701.984 1382.36 699.641 1383.13 697.719 1384.68C695.797 1386.18 694.273 1388.92 693.148 1392.91C692.07 1396.89 691.531 1405.23 691.531 1417.94V1441Z" fill="black"/>
<path d="M325.43 896H302.789L293.789 872.586H252.586L244.078 896H222L262.148 792.922H284.156L325.43 896ZM287.109 855.219L272.906 816.969L258.984 855.219H287.109ZM404.32 896H384.562V857.891C384.562 849.828 384.141 844.625 383.297 842.281C382.453 839.891 381.07 838.039 379.148 836.727C377.273 835.414 375 834.758 372.328 834.758C368.906 834.758 365.836 835.695 363.117 837.57C360.398 839.445 358.523 841.93 357.492 845.023C356.508 848.117 356.016 853.836 356.016 862.18V896H336.258V821.328H354.609V832.297C361.125 823.859 369.328 819.641 379.219 819.641C383.578 819.641 387.562 820.438 391.172 822.031C394.781 823.578 397.5 825.57 399.328 828.008C401.203 830.445 402.492 833.211 403.195 836.305C403.945 839.398 404.32 843.828 404.32 849.594V896ZM458.672 821.328V837.078H445.172V867.172C445.172 873.266 445.289 876.828 445.523 877.859C445.805 878.844 446.391 879.664 447.281 880.32C448.219 880.977 449.344 881.305 450.656 881.305C452.484 881.305 455.133 880.672 458.602 879.406L460.289 894.734C455.695 896.703 450.492 897.688 444.68 897.688C441.117 897.688 437.906 897.102 435.047 895.93C432.188 894.711 430.078 893.164 428.719 891.289C427.406 889.367 426.492 886.789 425.977 883.555C425.555 881.258 425.344 876.617 425.344 869.633V837.078H416.273V821.328H425.344V806.492L445.172 794.961V821.328H458.672ZM472.383 811.203V792.922H492.141V811.203H472.383ZM472.383 896V821.328H492.141V896H472.383ZM577.57 843.406L558.094 846.922C557.438 843.031 555.938 840.102 553.594 838.133C551.297 836.164 548.297 835.18 544.594 835.18C539.672 835.18 535.734 836.891 532.781 840.312C529.875 843.688 528.422 849.359 528.422 857.328C528.422 866.188 529.898 872.445 532.852 876.102C535.852 879.758 539.859 881.586 544.875 881.586C548.625 881.586 551.695 880.531 554.086 878.422C556.477 876.266 558.164 872.586 559.148 867.383L578.555 870.688C576.539 879.594 572.672 886.32 566.953 890.867C561.234 895.414 553.57 897.688 543.961 897.688C533.039 897.688 524.32 894.242 517.805 887.352C511.336 880.461 508.102 870.922 508.102 858.734C508.102 846.406 511.359 836.82 517.875 829.977C524.391 823.086 533.203 819.641 544.312 819.641C553.406 819.641 560.625 821.609 565.969 825.547C571.359 829.438 575.227 835.391 577.57 843.406ZM592.617 811.203V792.922H612.375V811.203H592.617ZM592.617 896V821.328H612.375V896H592.617ZM632.133 821.328H650.555V832.297C652.945 828.547 656.18 825.5 660.258 823.156C664.336 820.812 668.859 819.641 673.828 819.641C682.5 819.641 689.859 823.039 695.906 829.836C701.953 836.633 704.977 846.102 704.977 858.242C704.977 870.711 701.93 880.414 695.836 887.352C689.742 894.242 682.359 897.688 673.688 897.688C669.562 897.688 665.812 896.867 662.438 895.227C659.109 893.586 655.594 890.773 651.891 886.789V924.406H632.133V821.328ZM651.68 857.398C651.68 865.789 653.344 872 656.672 876.031C660 880.016 664.055 882.008 668.836 882.008C673.43 882.008 677.25 880.18 680.297 876.523C683.344 872.82 684.867 866.773 684.867 858.383C684.867 850.555 683.297 844.742 680.156 840.945C677.016 837.148 673.125 835.25 668.484 835.25C663.656 835.25 659.648 837.125 656.461 840.875C653.273 844.578 651.68 850.086 651.68 857.398ZM735.492 844.109L717.562 840.875C719.578 833.656 723.047 828.312 727.969 824.844C732.891 821.375 740.203 819.641 749.906 819.641C758.719 819.641 765.281 820.695 769.594 822.805C773.906 824.867 776.93 827.516 778.664 830.75C780.445 833.938 781.336 839.82 781.336 848.398L781.125 871.461C781.125 878.023 781.43 882.875 782.039 886.016C782.695 889.109 783.891 892.438 785.625 896H766.078C765.562 894.688 764.93 892.742 764.18 890.164C763.852 888.992 763.617 888.219 763.477 887.844C760.102 891.125 756.492 893.586 752.648 895.227C748.805 896.867 744.703 897.688 740.344 897.688C732.656 897.688 726.586 895.602 722.133 891.43C717.727 887.258 715.523 881.984 715.523 875.609C715.523 871.391 716.531 867.641 718.547 864.359C720.562 861.031 723.375 858.5 726.984 856.766C730.641 854.984 735.891 853.438 742.734 852.125C751.969 850.391 758.367 848.773 761.93 847.273V845.305C761.93 841.508 760.992 838.812 759.117 837.219C757.242 835.578 753.703 834.758 748.5 834.758C744.984 834.758 742.242 835.461 740.273 836.867C738.305 838.227 736.711 840.641 735.492 844.109ZM761.93 860.141C759.398 860.984 755.391 861.992 749.906 863.164C744.422 864.336 740.836 865.484 739.148 866.609C736.57 868.438 735.281 870.758 735.281 873.57C735.281 876.336 736.312 878.727 738.375 880.742C740.438 882.758 743.062 883.766 746.25 883.766C749.812 883.766 753.211 882.594 756.445 880.25C758.836 878.469 760.406 876.289 761.156 873.711C761.672 872.023 761.93 868.812 761.93 864.078V860.141ZM835.125 821.328V837.078H821.625V867.172C821.625 873.266 821.742 876.828 821.977 877.859C822.258 878.844 822.844 879.664 823.734 880.32C824.672 880.977 825.797 881.305 827.109 881.305C828.938 881.305 831.586 880.672 835.055 879.406L836.742 894.734C832.148 896.703 826.945 897.688 821.133 897.688C817.57 897.688 814.359 897.102 811.5 895.93C808.641 894.711 806.531 893.164 805.172 891.289C803.859 889.367 802.945 886.789 802.43 883.555C802.008 881.258 801.797 876.617 801.797 869.633V837.078H792.727V821.328H801.797V806.492L821.625 794.961V821.328H835.125ZM848.836 811.203V792.922H868.594V811.203H848.836ZM848.836 896V821.328H868.594V896H848.836ZM884.344 857.609C884.344 851.047 885.961 844.695 889.195 838.555C892.43 832.414 897 827.727 902.906 824.492C908.859 821.258 915.492 819.641 922.805 819.641C934.102 819.641 943.359 823.32 950.578 830.68C957.797 837.992 961.406 847.25 961.406 858.453C961.406 869.75 957.75 879.125 950.438 886.578C943.172 893.984 934.008 897.688 922.945 897.688C916.102 897.688 909.562 896.141 903.328 893.047C897.141 889.953 892.43 885.43 889.195 879.477C885.961 873.477 884.344 866.188 884.344 857.609ZM904.594 858.664C904.594 866.07 906.352 871.742 909.867 875.68C913.383 879.617 917.719 881.586 922.875 881.586C928.031 881.586 932.344 879.617 935.812 875.68C939.328 871.742 941.086 866.023 941.086 858.523C941.086 851.211 939.328 845.586 935.812 841.648C932.344 837.711 928.031 835.742 922.875 835.742C917.719 835.742 913.383 837.711 909.867 841.648C906.352 845.586 904.594 851.258 904.594 858.664ZM1044.87 896H1025.11V857.891C1025.11 849.828 1024.69 844.625 1023.84 842.281C1023 839.891 1021.62 838.039 1019.7 836.727C1017.82 835.414 1015.55 834.758 1012.88 834.758C1009.45 834.758 1006.38 835.695 1003.66 837.57C1000.95 839.445 999.07 841.93 998.039 845.023C997.055 848.117 996.562 853.836 996.562 862.18V896H976.805V821.328H995.156V832.297C1001.67 823.859 1009.88 819.641 1019.77 819.641C1024.12 819.641 1028.11 820.438 1031.72 822.031C1035.33 823.578 1038.05 825.57 1039.88 828.008C1041.75 830.445 1043.04 833.211 1043.74 836.305C1044.49 839.398 1044.87 843.828 1044.87 849.594V896Z" fill="black"/>
</g>
<defs>
<clipPath id="clip0_195_126">
<rect width="2791" height="2220" fill="white"/>
</clipPath>
</defs>
</svg>
