<svg width="2393" height="4546" viewBox="0 0 2393 4546" fill="none" xmlns="http://www.w3.org/2000/svg">
<circle cx="2143" cy="1612" r="250" fill="#66CC66"/>
<circle cx="2143" cy="931" r="250" fill="#FF6699"/>
<circle cx="2143" cy="250" r="250" fill="#FF6600"/>
<circle cx="2143" cy="2293" r="250" fill="#FFFF00"/>
<circle cx="2143" cy="4296" r="250" fill="#996633"/>
<circle cx="2143" cy="3615" r="250" fill="#33ADFF"/>
<circle cx="2143" cy="2934" r="250" fill="#CC00FF"/>
<path d="M138.537 299.627L163.762 307.625C159.895 321.688 153.449 332.146 144.426 339.002C135.461 345.799 124.064 349.197 110.236 349.197C93.127 349.197 79.0645 343.367 68.0488 331.707C57.0332 319.988 51.5254 303.992 51.5254 283.719C51.5254 262.273 57.0625 245.633 68.1367 233.797C79.2109 221.902 93.7715 215.955 111.818 215.955C127.58 215.955 140.383 220.613 150.227 229.93C156.086 235.438 160.48 243.348 163.41 253.66L137.658 259.812C136.135 253.133 132.941 247.859 128.078 243.992C123.273 240.125 117.414 238.191 110.5 238.191C100.949 238.191 93.1855 241.619 87.209 248.475C81.291 255.33 78.332 266.434 78.332 281.785C78.332 298.074 81.2617 309.676 87.1211 316.59C92.9805 323.504 100.598 326.961 109.973 326.961C116.887 326.961 122.834 324.764 127.814 320.369C132.795 315.975 136.369 309.061 138.537 299.627ZM185.998 241.004V218.152H210.695V241.004H185.998ZM185.998 347V253.66H210.695V347H185.998ZM320.998 347H296.301V299.363C296.301 289.285 295.773 282.781 294.719 279.852C293.664 276.863 291.936 274.549 289.533 272.908C287.189 271.268 284.348 270.447 281.008 270.447C276.73 270.447 272.893 271.619 269.494 273.963C266.096 276.307 263.752 279.412 262.463 283.279C261.232 287.146 260.617 294.295 260.617 304.725V347H235.92V253.66H258.859V267.371C267.004 256.824 277.258 251.551 289.621 251.551C295.07 251.551 300.051 252.547 304.562 254.539C309.074 256.473 312.473 258.963 314.758 262.01C317.102 265.057 318.713 268.514 319.592 272.381C320.529 276.248 320.998 281.785 320.998 288.992V347ZM431.74 347H408.801V333.289C404.992 338.621 400.48 342.605 395.266 345.242C390.109 347.82 384.895 349.109 379.621 349.109C368.898 349.109 359.699 344.803 352.023 336.189C344.406 327.518 340.598 315.447 340.598 299.979C340.598 284.158 344.318 272.146 351.76 263.943C359.201 255.682 368.605 251.551 379.973 251.551C390.402 251.551 399.426 255.887 407.043 264.559V218.152H431.74V347ZM365.822 298.309C365.822 308.27 367.199 315.477 369.953 319.93C373.938 326.375 379.504 329.598 386.652 329.598C392.336 329.598 397.17 327.195 401.154 322.391C405.139 317.527 407.131 310.291 407.131 300.682C407.131 289.959 405.197 282.254 401.33 277.566C397.463 272.82 392.512 270.447 386.477 270.447C380.617 270.447 375.695 272.791 371.711 277.479C367.785 282.107 365.822 289.051 365.822 298.309ZM510.227 317.293L534.836 321.424C531.672 330.447 526.662 337.332 519.807 342.078C513.01 346.766 504.484 349.109 494.23 349.109C478 349.109 465.988 343.807 458.195 333.201C452.043 324.705 448.967 313.982 448.967 301.033C448.967 285.564 453.01 273.465 461.096 264.734C469.182 255.945 479.406 251.551 491.77 251.551C505.656 251.551 516.613 256.15 524.641 265.35C532.668 274.49 536.506 288.523 536.154 307.449H474.279C474.455 314.773 476.447 320.486 480.256 324.588C484.064 328.631 488.811 330.652 494.494 330.652C498.361 330.652 501.613 329.598 504.25 327.488C506.887 325.379 508.879 321.98 510.227 317.293ZM511.633 292.332C511.457 285.184 509.611 279.764 506.096 276.072C502.58 272.322 498.303 270.447 493.264 270.447C487.873 270.447 483.42 272.41 479.904 276.336C476.389 280.262 474.66 285.594 474.719 292.332H511.633ZM580.012 347H555.314V253.66H578.254V266.932C582.18 260.662 585.695 256.531 588.801 254.539C591.965 252.547 595.539 251.551 599.523 251.551C605.148 251.551 610.568 253.104 615.783 256.209L608.137 277.742C603.977 275.047 600.109 273.699 596.535 273.699C593.078 273.699 590.148 274.666 587.746 276.6C585.344 278.475 583.439 281.902 582.033 286.883C580.686 291.863 580.012 302.293 580.012 318.172V347ZM680.559 317.293L705.168 321.424C702.004 330.447 696.994 337.332 690.139 342.078C683.342 346.766 674.816 349.109 664.562 349.109C648.332 349.109 636.32 343.807 628.527 333.201C622.375 324.705 619.299 313.982 619.299 301.033C619.299 285.564 623.342 273.465 631.428 264.734C639.514 255.945 649.738 251.551 662.102 251.551C675.988 251.551 686.945 256.15 694.973 265.35C703 274.49 706.838 288.523 706.486 307.449H644.611C644.787 314.773 646.779 320.486 650.588 324.588C654.396 328.631 659.143 330.652 664.826 330.652C668.693 330.652 671.945 329.598 674.582 327.488C677.219 325.379 679.211 321.98 680.559 317.293ZM681.965 292.332C681.789 285.184 679.943 279.764 676.428 276.072C672.912 272.322 668.635 270.447 663.596 270.447C658.205 270.447 653.752 272.41 650.236 276.336C646.721 280.262 644.992 285.594 645.051 292.332H681.965ZM726.701 347V218.152H751.398V347H726.701ZM776.799 347V218.152H801.496V347H776.799ZM845.354 282.137L822.941 278.094C825.461 269.07 829.797 262.391 835.949 258.055C842.102 253.719 851.242 251.551 863.371 251.551C874.387 251.551 882.59 252.869 887.98 255.506C893.371 258.084 897.15 261.395 899.318 265.438C901.545 269.422 902.658 276.775 902.658 287.498L902.395 316.326C902.395 324.529 902.775 330.594 903.537 334.52C904.357 338.387 905.852 342.547 908.02 347H883.586C882.941 345.359 882.15 342.928 881.213 339.705C880.803 338.24 880.51 337.273 880.334 336.805C876.115 340.906 871.604 343.982 866.799 346.033C861.994 348.084 856.867 349.109 851.418 349.109C841.809 349.109 834.221 346.502 828.654 341.287C823.146 336.072 820.393 329.48 820.393 321.512C820.393 316.238 821.652 311.551 824.172 307.449C826.691 303.289 830.207 300.125 834.719 297.957C839.289 295.73 845.852 293.797 854.406 292.156C865.949 289.988 873.947 287.967 878.4 286.092V283.631C878.4 278.885 877.229 275.516 874.885 273.523C872.541 271.473 868.117 270.447 861.613 270.447C857.219 270.447 853.791 271.326 851.33 273.084C848.869 274.783 846.877 277.801 845.354 282.137ZM878.4 302.176C875.236 303.23 870.227 304.49 863.371 305.955C856.516 307.42 852.033 308.855 849.924 310.262C846.701 312.547 845.09 315.447 845.09 318.963C845.09 322.42 846.379 325.408 848.957 327.928C851.535 330.447 854.816 331.707 858.801 331.707C863.254 331.707 867.502 330.242 871.545 327.312C874.533 325.086 876.496 322.361 877.434 319.139C878.078 317.029 878.4 313.016 878.4 307.098V302.176ZM977.014 347V218.152H1015.95L1039.33 306.043L1062.44 218.152H1101.47V347H1077.3V245.574L1051.72 347H1026.67L1001.18 245.574V347H977.014ZM1145.59 282.137L1123.18 278.094C1125.7 269.07 1130.03 262.391 1136.18 258.055C1142.34 253.719 1151.48 251.551 1163.61 251.551C1174.62 251.551 1182.82 252.869 1188.21 255.506C1193.61 258.084 1197.38 261.395 1199.55 265.438C1201.78 269.422 1202.89 276.775 1202.89 287.498L1202.63 316.326C1202.63 324.529 1203.01 330.594 1203.77 334.52C1204.59 338.387 1206.09 342.547 1208.25 347H1183.82C1183.18 345.359 1182.38 342.928 1181.45 339.705C1181.04 338.24 1180.74 337.273 1180.57 336.805C1176.35 340.906 1171.84 343.982 1167.03 346.033C1162.23 348.084 1157.1 349.109 1151.65 349.109C1142.04 349.109 1134.46 346.502 1128.89 341.287C1123.38 336.072 1120.63 329.48 1120.63 321.512C1120.63 316.238 1121.89 311.551 1124.41 307.449C1126.93 303.289 1130.44 300.125 1134.95 297.957C1139.52 295.73 1146.09 293.797 1154.64 292.156C1166.18 289.988 1174.18 287.967 1178.63 286.092V283.631C1178.63 278.885 1177.46 275.516 1175.12 273.523C1172.78 271.473 1168.35 270.447 1161.85 270.447C1157.45 270.447 1154.03 271.326 1151.56 273.084C1149.1 274.783 1147.11 277.801 1145.59 282.137ZM1178.63 302.176C1175.47 303.23 1170.46 304.49 1163.61 305.955C1156.75 307.42 1152.27 308.855 1150.16 310.262C1146.94 312.547 1145.32 315.447 1145.32 318.963C1145.32 322.42 1146.61 325.408 1149.19 327.928C1151.77 330.447 1155.05 331.707 1159.04 331.707C1163.49 331.707 1167.74 330.242 1171.78 327.312C1174.77 325.086 1176.73 322.361 1177.67 319.139C1178.31 317.029 1178.63 313.016 1178.63 307.098V302.176ZM1312.23 347H1287.53V299.363C1287.53 289.285 1287 282.781 1285.95 279.852C1284.89 276.863 1283.17 274.549 1280.76 272.908C1278.42 271.268 1275.58 270.447 1272.24 270.447C1267.96 270.447 1264.12 271.619 1260.72 273.963C1257.33 276.307 1254.98 279.412 1253.69 283.279C1252.46 287.146 1251.85 294.295 1251.85 304.725V347H1227.15V253.66H1250.09V267.371C1258.23 256.824 1268.49 251.551 1280.85 251.551C1286.3 251.551 1291.28 252.547 1295.79 254.539C1300.3 256.473 1303.7 258.963 1305.99 262.01C1308.33 265.057 1309.94 268.514 1310.82 272.381C1311.76 276.248 1312.23 281.785 1312.23 288.992V347Z" fill="#FEFAFA"/>
<path d="M116.037 957.627V935.918H172.111V987.246C166.662 992.52 158.752 997.178 148.381 1001.22C138.068 1005.21 127.609 1007.2 117.004 1007.2C103.527 1007.2 91.7793 1004.38 81.7598 998.76C71.7402 993.076 64.2109 984.99 59.1719 974.502C54.1328 963.955 51.6133 952.5 51.6133 940.137C51.6133 926.719 54.4258 914.795 60.0508 904.365C65.6758 893.936 73.9082 885.938 84.748 880.371C93.0098 876.094 103.293 873.955 115.598 873.955C131.594 873.955 144.074 877.324 153.039 884.062C162.062 890.742 167.863 900 170.441 911.836L144.602 916.67C142.785 910.342 139.357 905.361 134.318 901.729C129.338 898.037 123.098 896.191 115.598 896.191C104.23 896.191 95.1777 899.795 88.4395 907.002C81.7598 914.209 78.4199 924.902 78.4199 939.082C78.4199 954.375 81.8184 965.859 88.6152 973.535C95.4121 981.152 104.318 984.961 115.334 984.961C120.783 984.961 126.232 983.906 131.682 981.797C137.189 979.629 141.906 977.021 145.832 973.975V957.627H116.037ZM219.66 1005H194.963V911.66H217.902V924.932C221.828 918.662 225.344 914.531 228.449 912.539C231.613 910.547 235.188 909.551 239.172 909.551C244.797 909.551 250.217 911.104 255.432 914.209L247.785 935.742C243.625 933.047 239.758 931.699 236.184 931.699C232.727 931.699 229.797 932.666 227.395 934.6C224.992 936.475 223.088 939.902 221.682 944.883C220.334 949.863 219.66 960.293 219.66 976.172V1005ZM320.207 975.293L344.816 979.424C341.652 988.447 336.643 995.332 329.787 1000.08C322.99 1004.77 314.465 1007.11 304.211 1007.11C287.98 1007.11 275.969 1001.81 268.176 991.201C262.023 982.705 258.947 971.982 258.947 959.033C258.947 943.564 262.99 931.465 271.076 922.734C279.162 913.945 289.387 909.551 301.75 909.551C315.637 909.551 326.594 914.15 334.621 923.35C342.648 932.49 346.486 946.523 346.135 965.449H284.26C284.436 972.773 286.428 978.486 290.236 982.588C294.045 986.631 298.791 988.652 304.475 988.652C308.342 988.652 311.594 987.598 314.23 985.488C316.867 983.379 318.859 979.98 320.207 975.293ZM321.613 950.332C321.438 943.184 319.592 937.764 316.076 934.072C312.561 930.322 308.283 928.447 303.244 928.447C297.854 928.447 293.4 930.41 289.885 934.336C286.369 938.262 284.641 943.594 284.699 950.332H321.613ZM420.402 975.293L445.012 979.424C441.848 988.447 436.838 995.332 429.982 1000.08C423.186 1004.77 414.66 1007.11 404.406 1007.11C388.176 1007.11 376.164 1001.81 368.371 991.201C362.219 982.705 359.143 971.982 359.143 959.033C359.143 943.564 363.186 931.465 371.271 922.734C379.357 913.945 389.582 909.551 401.945 909.551C415.832 909.551 426.789 914.15 434.816 923.35C442.844 932.49 446.682 946.523 446.33 965.449H384.455C384.631 972.773 386.623 978.486 390.432 982.588C394.24 986.631 398.986 988.652 404.67 988.652C408.537 988.652 411.789 987.598 414.426 985.488C417.062 983.379 419.055 979.98 420.402 975.293ZM421.809 950.332C421.633 943.184 419.787 937.764 416.271 934.072C412.756 930.322 408.479 928.447 403.439 928.447C398.049 928.447 393.596 930.41 390.08 934.336C386.564 938.262 384.836 943.594 384.895 950.332H421.809ZM552.15 1005H529.211V991.289C525.402 996.621 520.891 1000.61 515.676 1003.24C510.52 1005.82 505.305 1007.11 500.031 1007.11C489.309 1007.11 480.109 1002.8 472.434 994.189C464.816 985.518 461.008 973.447 461.008 957.979C461.008 942.158 464.729 930.146 472.17 921.943C479.611 913.682 489.016 909.551 500.383 909.551C510.812 909.551 519.836 913.887 527.453 922.559V876.152H552.15V1005ZM486.232 956.309C486.232 966.27 487.609 973.477 490.363 977.93C494.348 984.375 499.914 987.598 507.062 987.598C512.746 987.598 517.58 985.195 521.564 980.391C525.549 975.527 527.541 968.291 527.541 958.682C527.541 947.959 525.607 940.254 521.74 935.566C517.873 930.82 512.922 928.447 506.887 928.447C501.027 928.447 496.105 930.791 492.121 935.479C488.195 940.107 486.232 947.051 486.232 956.309Z" fill="#FEFAFA"/>
<path d="M74.377 1663L43.6152 1534.15H70.2461L89.6699 1622.66L113.225 1534.15H144.162L166.75 1624.15L186.525 1534.15H212.717L181.428 1663H153.83L128.166 1566.67L102.59 1663H74.377ZM224.318 1557V1534.15H249.016V1557H224.318ZM224.318 1663V1569.66H249.016V1663H224.318ZM317.219 1569.66V1589.35H300.344V1626.96C300.344 1634.58 300.49 1639.04 300.783 1640.32C301.135 1641.55 301.867 1642.58 302.98 1643.4C304.152 1644.22 305.559 1644.63 307.199 1644.63C309.484 1644.63 312.795 1643.84 317.131 1642.26L319.24 1661.42C313.498 1663.88 306.994 1665.11 299.729 1665.11C295.275 1665.11 291.262 1664.38 287.688 1662.91C284.113 1661.39 281.477 1659.46 279.777 1657.11C278.137 1654.71 276.994 1651.49 276.35 1647.44C275.822 1644.57 275.559 1638.77 275.559 1630.04V1589.35H264.221V1569.66H275.559V1551.12L300.344 1536.7V1569.66H317.219Z" fill="#FEFAFA"/>
<path d="M56.7988 2370V2242.21H82.8145V2348.29H147.502V2370H56.7988ZM165.959 2264V2241.15H190.656V2264H165.959ZM165.959 2370V2276.66H190.656V2370H165.959ZM258.859 2276.66V2296.35H241.984V2333.96C241.984 2341.58 242.131 2346.04 242.424 2347.32C242.775 2348.55 243.508 2349.58 244.621 2350.4C245.793 2351.22 247.199 2351.63 248.84 2351.63C251.125 2351.63 254.436 2350.84 258.771 2349.26L260.881 2368.42C255.139 2370.88 248.635 2372.11 241.369 2372.11C236.916 2372.11 232.902 2371.38 229.328 2369.91C225.754 2368.39 223.117 2366.46 221.418 2364.11C219.777 2361.71 218.635 2358.49 217.99 2354.44C217.463 2351.57 217.199 2345.77 217.199 2337.04V2296.35H205.861V2276.66H217.199V2258.12L241.984 2243.7V2276.66H258.859ZM318.801 2276.66V2296.35H301.926V2333.96C301.926 2341.58 302.072 2346.04 302.365 2347.32C302.717 2348.55 303.449 2349.58 304.562 2350.4C305.734 2351.22 307.141 2351.63 308.781 2351.63C311.066 2351.63 314.377 2350.84 318.713 2349.26L320.822 2368.42C315.08 2370.88 308.576 2372.11 301.311 2372.11C296.857 2372.11 292.844 2371.38 289.27 2369.91C285.695 2368.39 283.059 2366.46 281.359 2364.11C279.719 2361.71 278.576 2358.49 277.932 2354.44C277.404 2351.57 277.141 2345.77 277.141 2337.04V2296.35H265.803V2276.66H277.141V2258.12L301.926 2243.7V2276.66H318.801ZM335.939 2370V2241.15H360.637V2370H335.939ZM440.09 2340.29L464.699 2344.42C461.535 2353.45 456.525 2360.33 449.67 2365.08C442.873 2369.77 434.348 2372.11 424.094 2372.11C407.863 2372.11 395.852 2366.81 388.059 2356.2C381.906 2347.71 378.83 2336.98 378.83 2324.03C378.83 2308.56 382.873 2296.46 390.959 2287.73C399.045 2278.95 409.27 2274.55 421.633 2274.55C435.52 2274.55 446.477 2279.15 454.504 2288.35C462.531 2297.49 466.369 2311.52 466.018 2330.45H404.143C404.318 2337.77 406.311 2343.49 410.119 2347.59C413.928 2351.63 418.674 2353.65 424.357 2353.65C428.225 2353.65 431.477 2352.6 434.113 2350.49C436.75 2348.38 438.742 2344.98 440.09 2340.29ZM441.496 2315.33C441.32 2308.18 439.475 2302.76 435.959 2299.07C432.443 2295.32 428.166 2293.45 423.127 2293.45C417.736 2293.45 413.283 2295.41 409.768 2299.34C406.252 2303.26 404.523 2308.59 404.582 2315.33H441.496ZM536.418 2241.15H583.967C594.689 2241.15 602.863 2241.97 608.488 2243.61C616.047 2245.84 622.521 2249.79 627.912 2255.48C633.303 2261.16 637.404 2268.13 640.217 2276.4C643.029 2284.6 644.436 2294.74 644.436 2306.81C644.436 2317.41 643.117 2326.55 640.48 2334.23C637.258 2343.6 632.658 2351.19 626.682 2356.99C622.17 2361.39 616.076 2364.81 608.4 2367.28C602.658 2369.09 594.982 2370 585.373 2370H536.418V2241.15ZM562.434 2262.95V2348.29H581.857C589.123 2348.29 594.367 2347.88 597.59 2347.06C601.809 2346.01 605.295 2344.22 608.049 2341.7C610.861 2339.18 613.146 2335.05 614.904 2329.31C616.662 2323.51 617.541 2315.62 617.541 2305.66C617.541 2295.7 616.662 2288.06 614.904 2282.72C613.146 2277.39 610.686 2273.23 607.521 2270.24C604.357 2267.26 600.344 2265.23 595.48 2264.18C591.848 2263.36 584.729 2262.95 574.123 2262.95H562.434ZM666.408 2264V2241.15H691.105V2264H666.408ZM666.408 2370V2276.66H691.105V2370H666.408ZM770.559 2340.29L795.168 2344.42C792.004 2353.45 786.994 2360.33 780.139 2365.08C773.342 2369.77 764.816 2372.11 754.562 2372.11C738.332 2372.11 726.32 2366.81 718.527 2356.2C712.375 2347.71 709.299 2336.98 709.299 2324.03C709.299 2308.56 713.342 2296.46 721.428 2287.73C729.514 2278.95 739.738 2274.55 752.102 2274.55C765.988 2274.55 776.945 2279.15 784.973 2288.35C793 2297.49 796.838 2311.52 796.486 2330.45H734.611C734.787 2337.77 736.779 2343.49 740.588 2347.59C744.396 2351.63 749.143 2353.65 754.826 2353.65C758.693 2353.65 761.945 2352.6 764.582 2350.49C767.219 2348.38 769.211 2344.98 770.559 2340.29ZM771.965 2315.33C771.789 2308.18 769.943 2302.76 766.428 2299.07C762.912 2295.32 758.635 2293.45 753.596 2293.45C748.205 2293.45 743.752 2295.41 740.236 2299.34C736.721 2303.26 734.992 2308.59 735.051 2315.33H771.965ZM859.504 2276.66V2296.35H842.629V2333.96C842.629 2341.58 842.775 2346.04 843.068 2347.32C843.42 2348.55 844.152 2349.58 845.266 2350.4C846.438 2351.22 847.844 2351.63 849.484 2351.63C851.77 2351.63 855.08 2350.84 859.416 2349.26L861.525 2368.42C855.783 2370.88 849.279 2372.11 842.014 2372.11C837.561 2372.11 833.547 2371.38 829.973 2369.91C826.398 2368.39 823.762 2366.46 822.062 2364.11C820.422 2361.71 819.279 2358.49 818.635 2354.44C818.107 2351.57 817.844 2345.77 817.844 2337.04V2296.35H806.506V2276.66H817.844V2258.12L842.629 2243.7V2276.66H859.504ZM930.695 2340.29L955.305 2344.42C952.141 2353.45 947.131 2360.33 940.275 2365.08C933.479 2369.77 924.953 2372.11 914.699 2372.11C898.469 2372.11 886.457 2366.81 878.664 2356.2C872.512 2347.71 869.436 2336.98 869.436 2324.03C869.436 2308.56 873.479 2296.46 881.564 2287.73C889.65 2278.95 899.875 2274.55 912.238 2274.55C926.125 2274.55 937.082 2279.15 945.109 2288.35C953.137 2297.49 956.975 2311.52 956.623 2330.45H894.748C894.924 2337.77 896.916 2343.49 900.725 2347.59C904.533 2351.63 909.279 2353.65 914.963 2353.65C918.83 2353.65 922.082 2352.6 924.719 2350.49C927.355 2348.38 929.348 2344.98 930.695 2340.29ZM932.102 2315.33C931.926 2308.18 930.08 2302.76 926.564 2299.07C923.049 2295.32 918.771 2293.45 913.732 2293.45C908.342 2293.45 903.889 2295.41 900.373 2299.34C896.857 2303.26 895.129 2308.59 895.188 2315.33H932.102ZM1000.48 2370H975.783V2276.66H998.723V2289.93C1002.65 2283.66 1006.16 2279.53 1009.27 2277.54C1012.43 2275.55 1016.01 2274.55 1019.99 2274.55C1025.62 2274.55 1031.04 2276.1 1036.25 2279.21L1028.61 2300.74C1024.45 2298.05 1020.58 2296.7 1017 2296.7C1013.55 2296.7 1010.62 2297.67 1008.21 2299.6C1005.81 2301.47 1003.91 2304.9 1002.5 2309.88C1001.15 2314.86 1000.48 2325.29 1000.48 2341.17V2370ZM1097.51 2370V2241.15H1122.82L1175.56 2327.2V2241.15H1199.73V2370H1173.62L1121.68 2285.98V2370H1097.51ZM1281.2 2340.29L1305.81 2344.42C1302.65 2353.45 1297.64 2360.33 1290.78 2365.08C1283.99 2369.77 1275.46 2372.11 1265.21 2372.11C1248.98 2372.11 1236.96 2366.81 1229.17 2356.2C1223.02 2347.71 1219.94 2336.98 1219.94 2324.03C1219.94 2308.56 1223.99 2296.46 1232.07 2287.73C1240.16 2278.95 1250.38 2274.55 1262.75 2274.55C1276.63 2274.55 1287.59 2279.15 1295.62 2288.35C1303.64 2297.49 1307.48 2311.52 1307.13 2330.45H1245.26C1245.43 2337.77 1247.42 2343.49 1251.23 2347.59C1255.04 2351.63 1259.79 2353.65 1265.47 2353.65C1269.34 2353.65 1272.59 2352.6 1275.23 2350.49C1277.86 2348.38 1279.86 2344.98 1281.2 2340.29ZM1282.61 2315.33C1282.43 2308.18 1280.59 2302.76 1277.07 2299.07C1273.56 2295.32 1269.28 2293.45 1264.24 2293.45C1258.85 2293.45 1254.4 2295.41 1250.88 2299.34C1247.37 2303.26 1245.64 2308.59 1245.7 2315.33H1282.61ZM1381.4 2340.29L1406.01 2344.42C1402.84 2353.45 1397.83 2360.33 1390.98 2365.08C1384.18 2369.77 1375.66 2372.11 1365.4 2372.11C1349.17 2372.11 1337.16 2366.81 1329.37 2356.2C1323.21 2347.71 1320.14 2336.98 1320.14 2324.03C1320.14 2308.56 1324.18 2296.46 1332.27 2287.73C1340.35 2278.95 1350.58 2274.55 1362.94 2274.55C1376.83 2274.55 1387.79 2279.15 1395.81 2288.35C1403.84 2297.49 1407.68 2311.52 1407.33 2330.45H1345.45C1345.63 2337.77 1347.62 2343.49 1351.43 2347.59C1355.24 2351.63 1359.98 2353.65 1365.67 2353.65C1369.53 2353.65 1372.79 2352.6 1375.42 2350.49C1378.06 2348.38 1380.05 2344.98 1381.4 2340.29ZM1382.8 2315.33C1382.63 2308.18 1380.78 2302.76 1377.27 2299.07C1373.75 2295.32 1369.47 2293.45 1364.44 2293.45C1359.04 2293.45 1354.59 2295.41 1351.08 2299.34C1347.56 2303.26 1345.83 2308.59 1345.89 2315.33H1382.8ZM1513.15 2370H1490.21V2356.29C1486.4 2361.62 1481.89 2365.61 1476.67 2368.24C1471.52 2370.82 1466.3 2372.11 1461.03 2372.11C1450.3 2372.11 1441.11 2367.8 1433.43 2359.19C1425.81 2350.52 1422 2338.45 1422 2322.98C1422 2307.16 1425.72 2295.15 1433.17 2286.94C1440.61 2278.68 1450.01 2274.55 1461.38 2274.55C1471.81 2274.55 1480.83 2278.89 1488.45 2287.56V2241.15H1513.15V2370ZM1447.23 2321.31C1447.23 2331.27 1448.61 2338.48 1451.36 2342.93C1455.34 2349.38 1460.91 2352.6 1468.06 2352.6C1473.74 2352.6 1478.58 2350.2 1482.56 2345.39C1486.54 2340.53 1488.54 2333.29 1488.54 2323.68C1488.54 2312.96 1486.6 2305.25 1482.74 2300.57C1478.87 2295.82 1473.92 2293.45 1467.88 2293.45C1462.02 2293.45 1457.1 2295.79 1453.12 2300.48C1449.19 2305.11 1447.23 2312.05 1447.23 2321.31ZM1528.88 2343.37L1553.66 2339.59C1554.72 2344.39 1556.86 2348.06 1560.08 2350.58C1563.3 2353.04 1567.81 2354.27 1573.62 2354.27C1580 2354.27 1584.81 2353.1 1588.03 2350.75C1590.2 2349.11 1591.28 2346.91 1591.28 2344.16C1591.28 2342.29 1590.7 2340.73 1589.52 2339.5C1588.29 2338.33 1585.54 2337.25 1581.26 2336.25C1561.34 2331.86 1548.71 2327.84 1543.38 2324.21C1536 2319.17 1532.31 2312.17 1532.31 2303.2C1532.31 2295.12 1535.5 2288.32 1541.89 2282.81C1548.27 2277.3 1558.18 2274.55 1571.59 2274.55C1584.37 2274.55 1593.86 2276.63 1600.07 2280.79C1606.28 2284.95 1610.56 2291.1 1612.9 2299.25L1589.61 2303.55C1588.62 2299.92 1586.71 2297.14 1583.9 2295.21C1581.14 2293.27 1577.19 2292.3 1572.03 2292.3C1565.53 2292.3 1560.87 2293.21 1558.06 2295.03C1556.18 2296.32 1555.25 2297.99 1555.25 2300.04C1555.25 2301.8 1556.07 2303.29 1557.71 2304.52C1559.93 2306.16 1567.61 2308.48 1580.73 2311.46C1593.92 2314.45 1603.12 2318.12 1608.33 2322.45C1613.49 2326.85 1616.07 2332.97 1616.07 2340.82C1616.07 2349.38 1612.49 2356.73 1605.34 2362.88C1598.2 2369.03 1587.62 2372.11 1573.62 2372.11C1560.9 2372.11 1550.82 2369.53 1543.38 2364.38C1536 2359.22 1531.16 2352.22 1528.88 2343.37ZM98.7227 2483.66V2503.35H81.8477V2540.96C81.8477 2548.58 81.9941 2553.04 82.2871 2554.32C82.6387 2555.55 83.3711 2556.58 84.4844 2557.4C85.6562 2558.22 87.0625 2558.63 88.7031 2558.63C90.9883 2558.63 94.2988 2557.84 98.6348 2556.26L100.744 2575.42C95.002 2577.88 88.498 2579.11 81.2324 2579.11C76.7793 2579.11 72.7656 2578.38 69.1914 2576.91C65.6172 2575.39 62.9805 2573.46 61.2812 2571.11C59.6406 2568.71 58.498 2565.49 57.8535 2561.44C57.3262 2558.57 57.0625 2552.77 57.0625 2544.04V2503.35H45.7246V2483.66H57.0625V2465.12L81.8477 2450.7V2483.66H98.7227ZM110.148 2529.01C110.148 2520.81 112.17 2512.87 116.213 2505.19C120.256 2497.52 125.969 2491.66 133.352 2487.62C140.793 2483.57 149.084 2481.55 158.225 2481.55C172.346 2481.55 183.918 2486.15 192.941 2495.35C201.965 2504.49 206.477 2516.06 206.477 2530.07C206.477 2544.19 201.906 2555.91 192.766 2565.22C183.684 2574.48 172.229 2579.11 158.4 2579.11C149.846 2579.11 141.672 2577.18 133.879 2573.31C126.145 2569.44 120.256 2563.79 116.213 2556.35C112.17 2548.85 110.148 2539.73 110.148 2529.01ZM135.461 2530.33C135.461 2539.59 137.658 2546.68 142.053 2551.6C146.447 2556.52 151.867 2558.98 158.312 2558.98C164.758 2558.98 170.148 2556.52 174.484 2551.6C178.879 2546.68 181.076 2539.53 181.076 2530.15C181.076 2521.01 178.879 2513.98 174.484 2509.06C170.148 2504.14 164.758 2501.68 158.312 2501.68C151.867 2501.68 146.447 2504.14 142.053 2509.06C137.658 2513.98 135.461 2521.07 135.461 2530.33ZM276.35 2577V2448.15H364.68V2469.95H302.365V2500.45H356.154V2522.24H302.365V2577H276.35ZM386.037 2577V2448.15H410.734V2577H386.037ZM424.445 2483.66H450.725L473.049 2549.93L494.846 2483.66H520.422L487.463 2573.48L481.574 2589.74C479.406 2595.19 477.326 2599.35 475.334 2602.22C473.4 2605.1 471.145 2607.41 468.566 2609.17C466.047 2610.98 462.912 2612.39 459.162 2613.39C455.471 2614.38 451.281 2614.88 446.594 2614.88C441.848 2614.88 437.189 2614.38 432.619 2613.39L430.422 2594.05C434.289 2594.81 437.775 2595.19 440.881 2595.19C446.623 2595.19 450.871 2593.49 453.625 2590.1C456.379 2586.76 458.488 2582.48 459.953 2577.26L424.445 2483.66Z" fill="#FEFAFA"/>
<path d="M172.287 3021H143.986L132.736 2991.73H81.2324L70.5977 3021H43L93.1855 2892.15H120.695L172.287 3021ZM124.387 2970.02L106.633 2922.21L89.2305 2970.02H124.387ZM184.152 2927.66H206.916V2940.4C215.061 2930.5 224.758 2925.55 236.008 2925.55C241.984 2925.55 247.17 2926.78 251.564 2929.24C255.959 2931.7 259.562 2935.42 262.375 2940.4C266.477 2935.42 270.9 2931.7 275.646 2929.24C280.393 2926.78 285.461 2925.55 290.852 2925.55C297.707 2925.55 303.508 2926.96 308.254 2929.77C313 2932.52 316.545 2936.6 318.889 2941.99C320.588 2945.97 321.438 2952.42 321.438 2961.32V3021H296.74V2967.65C296.74 2958.39 295.891 2952.42 294.191 2949.72C291.906 2946.21 288.391 2944.45 283.645 2944.45C280.188 2944.45 276.936 2945.5 273.889 2947.61C270.842 2949.72 268.645 2952.83 267.297 2956.93C265.949 2960.97 265.275 2967.39 265.275 2976.18V3021H240.578V2969.85C240.578 2960.77 240.139 2954.91 239.26 2952.27C238.381 2949.63 237.004 2947.67 235.129 2946.38C233.312 2945.09 230.822 2944.45 227.658 2944.45C223.85 2944.45 220.422 2945.47 217.375 2947.52C214.328 2949.57 212.131 2952.53 210.783 2956.4C209.494 2960.27 208.85 2966.68 208.85 2975.65V3021H184.152V2927.66ZM340.422 2973.01C340.422 2964.81 342.443 2956.87 346.486 2949.19C350.529 2941.52 356.242 2935.66 363.625 2931.62C371.066 2927.57 379.357 2925.55 388.498 2925.55C402.619 2925.55 414.191 2930.15 423.215 2939.35C432.238 2948.49 436.75 2960.06 436.75 2974.07C436.75 2988.19 432.18 2999.91 423.039 3009.22C413.957 3018.48 402.502 3023.11 388.674 3023.11C380.119 3023.11 371.945 3021.18 364.152 3017.31C356.418 3013.44 350.529 3007.79 346.486 3000.35C342.443 2992.85 340.422 2983.73 340.422 2973.01ZM365.734 2974.33C365.734 2983.59 367.932 2990.68 372.326 2995.6C376.721 3000.52 382.141 3002.98 388.586 3002.98C395.031 3002.98 400.422 3000.52 404.758 2995.6C409.152 2990.68 411.35 2983.53 411.35 2974.15C411.35 2965.01 409.152 2957.98 404.758 2953.06C400.422 2948.14 395.031 2945.68 388.586 2945.68C382.141 2945.68 376.721 2948.14 372.326 2953.06C367.932 2957.98 365.734 2965.07 365.734 2974.33ZM479.816 3021H455.119V2927.66H478.059V2940.93C481.984 2934.66 485.5 2930.53 488.605 2928.54C491.77 2926.55 495.344 2925.55 499.328 2925.55C504.953 2925.55 510.373 2927.1 515.588 2930.21L507.941 2951.74C503.781 2949.05 499.914 2947.7 496.34 2947.7C492.883 2947.7 489.953 2948.67 487.551 2950.6C485.148 2952.47 483.244 2955.9 481.838 2960.88C480.49 2965.86 479.816 2976.29 479.816 2992.17V3021ZM580.363 2991.29L604.973 2995.42C601.809 3004.45 596.799 3011.33 589.943 3016.08C583.146 3020.77 574.621 3023.11 564.367 3023.11C548.137 3023.11 536.125 3017.81 528.332 3007.2C522.18 2998.71 519.104 2987.98 519.104 2975.03C519.104 2959.56 523.146 2947.46 531.232 2938.73C539.318 2929.95 549.543 2925.55 561.906 2925.55C575.793 2925.55 586.75 2930.15 594.777 2939.35C602.805 2948.49 606.643 2962.52 606.291 2981.45H544.416C544.592 2988.77 546.584 2994.49 550.393 2998.59C554.201 3002.63 558.947 3004.65 564.631 3004.65C568.498 3004.65 571.75 3003.6 574.387 3001.49C577.023 2999.38 579.016 2995.98 580.363 2991.29ZM581.77 2966.33C581.594 2959.18 579.748 2953.76 576.232 2950.07C572.717 2946.32 568.439 2944.45 563.4 2944.45C558.01 2944.45 553.557 2946.41 550.041 2950.34C546.525 2954.26 544.797 2959.59 544.855 2966.33H581.77ZM617.805 2994.37L642.59 2990.59C643.645 2995.39 645.783 2999.06 649.006 3001.58C652.229 3004.04 656.74 3005.27 662.541 3005.27C668.928 3005.27 673.732 3004.1 676.955 3001.75C679.123 3000.11 680.207 2997.91 680.207 2995.16C680.207 2993.29 679.621 2991.73 678.449 2990.5C677.219 2989.33 674.465 2988.25 670.188 2987.25C650.266 2982.86 637.639 2978.84 632.307 2975.21C624.924 2970.17 621.232 2963.17 621.232 2954.2C621.232 2946.12 624.426 2939.32 630.812 2933.81C637.199 2928.3 647.102 2925.55 660.52 2925.55C673.293 2925.55 682.785 2927.63 688.996 2931.79C695.207 2935.95 699.484 2942.1 701.828 2950.25L678.537 2954.55C677.541 2950.92 675.637 2948.14 672.824 2946.21C670.07 2944.27 666.115 2943.3 660.959 2943.3C654.455 2943.3 649.797 2944.21 646.984 2946.03C645.109 2947.32 644.172 2948.99 644.172 2951.04C644.172 2952.8 644.992 2954.29 646.633 2955.52C648.859 2957.16 656.535 2959.48 669.66 2962.46C682.844 2965.45 692.043 2969.12 697.258 2973.45C702.414 2977.85 704.992 2983.97 704.992 2991.82C704.992 3000.38 701.418 3007.73 694.27 3013.88C687.121 3020.03 676.545 3023.11 662.541 3023.11C649.826 3023.11 639.748 3020.53 632.307 3015.38C624.924 3010.22 620.09 3003.22 617.805 2994.37ZM776.975 3021V2892.15H818.723C834.543 2892.15 844.855 2892.8 849.66 2894.09C857.043 2896.02 863.225 2900.24 868.205 2906.74C873.186 2913.19 875.676 2921.54 875.676 2931.79C875.676 2939.7 874.24 2946.35 871.369 2951.74C868.498 2957.13 864.836 2961.38 860.383 2964.49C855.988 2967.53 851.506 2969.55 846.936 2970.55C840.725 2971.78 831.73 2972.4 819.953 2972.4H802.99V3021H776.975ZM802.99 2913.95V2950.51H817.229C827.482 2950.51 834.338 2949.84 837.795 2948.49C841.252 2947.14 843.947 2945.03 845.881 2942.16C847.873 2939.29 848.869 2935.95 848.869 2932.14C848.869 2927.46 847.492 2923.59 844.738 2920.54C841.984 2917.49 838.498 2915.59 834.279 2914.83C831.174 2914.24 824.934 2913.95 815.559 2913.95H802.99ZM950.91 2991.29L975.52 2995.42C972.355 3004.45 967.346 3011.33 960.49 3016.08C953.693 3020.77 945.168 3023.11 934.914 3023.11C918.684 3023.11 906.672 3017.81 898.879 3007.2C892.727 2998.71 889.65 2987.98 889.65 2975.03C889.65 2959.56 893.693 2947.46 901.779 2938.73C909.865 2929.95 920.09 2925.55 932.453 2925.55C946.34 2925.55 957.297 2930.15 965.324 2939.35C973.352 2948.49 977.189 2962.52 976.838 2981.45H914.963C915.139 2988.77 917.131 2994.49 920.939 2998.59C924.748 3002.63 929.494 3004.65 935.178 3004.65C939.045 3004.65 942.297 3003.6 944.934 3001.49C947.57 2999.38 949.562 2995.98 950.91 2991.29ZM952.316 2966.33C952.141 2959.18 950.295 2953.76 946.779 2950.07C943.264 2946.32 938.986 2944.45 933.947 2944.45C928.557 2944.45 924.104 2946.41 920.588 2950.34C917.072 2954.26 915.344 2959.59 915.402 2966.33H952.316ZM1020.7 3021H995.998V2927.66H1018.94V2940.93C1022.86 2934.66 1026.38 2930.53 1029.48 2928.54C1032.65 2926.55 1036.22 2925.55 1040.21 2925.55C1045.83 2925.55 1051.25 2927.1 1056.47 2930.21L1048.82 2951.74C1044.66 2949.05 1040.79 2947.7 1037.22 2947.7C1033.76 2947.7 1030.83 2948.67 1028.43 2950.6C1026.03 2952.47 1024.12 2955.9 1022.72 2960.88C1021.37 2965.86 1020.7 2976.29 1020.7 2992.17V3021ZM1090.83 3021H1066.13V2927.66H1089.07V2940.93C1093 2934.66 1096.52 2930.53 1099.62 2928.54C1102.79 2926.55 1106.36 2925.55 1110.34 2925.55C1115.97 2925.55 1121.39 2927.1 1126.6 2930.21L1118.96 2951.74C1114.8 2949.05 1110.93 2947.7 1107.36 2947.7C1103.9 2947.7 1100.97 2948.67 1098.57 2950.6C1096.16 2952.47 1094.26 2955.9 1092.85 2960.88C1091.51 2965.86 1090.83 2976.29 1090.83 2992.17V3021ZM1131.61 2973.01C1131.61 2964.81 1133.63 2956.87 1137.68 2949.19C1141.72 2941.52 1147.43 2935.66 1154.82 2931.62C1162.26 2927.57 1170.55 2925.55 1179.69 2925.55C1193.81 2925.55 1205.38 2930.15 1214.41 2939.35C1223.43 2948.49 1227.94 2960.06 1227.94 2974.07C1227.94 2988.19 1223.37 2999.91 1214.23 3009.22C1205.15 3018.48 1193.69 3023.11 1179.87 3023.11C1171.31 3023.11 1163.14 3021.18 1155.34 3017.31C1147.61 3013.44 1141.72 3007.79 1137.68 3000.35C1133.63 2992.85 1131.61 2983.73 1131.61 2973.01ZM1156.93 2974.33C1156.93 2983.59 1159.12 2990.68 1163.52 2995.6C1167.91 3000.52 1173.33 3002.98 1179.78 3002.98C1186.22 3002.98 1191.61 3000.52 1195.95 2995.6C1200.34 2990.68 1202.54 2983.53 1202.54 2974.15C1202.54 2965.01 1200.34 2957.98 1195.95 2953.06C1191.61 2948.14 1186.22 2945.68 1179.78 2945.68C1173.33 2945.68 1167.91 2948.14 1163.52 2953.06C1159.12 2957.98 1156.93 2965.07 1156.93 2974.33ZM1238.66 2994.37L1263.45 2990.59C1264.5 2995.39 1266.64 2999.06 1269.87 3001.58C1273.09 3004.04 1277.6 3005.27 1283.4 3005.27C1289.79 3005.27 1294.59 3004.1 1297.81 3001.75C1299.98 3000.11 1301.07 2997.91 1301.07 2995.16C1301.07 2993.29 1300.48 2991.73 1299.31 2990.5C1298.08 2989.33 1295.32 2988.25 1291.05 2987.25C1271.12 2982.86 1258.5 2978.84 1253.17 2975.21C1245.78 2970.17 1242.09 2963.17 1242.09 2954.2C1242.09 2946.12 1245.29 2939.32 1251.67 2933.81C1258.06 2928.3 1267.96 2925.55 1281.38 2925.55C1294.15 2925.55 1303.64 2927.63 1309.86 2931.79C1316.07 2935.95 1320.34 2942.1 1322.69 2950.25L1299.4 2954.55C1298.4 2950.92 1296.5 2948.14 1293.68 2946.21C1290.93 2944.27 1286.97 2943.3 1281.82 2943.3C1275.31 2943.3 1270.66 2944.21 1267.84 2946.03C1265.97 2947.32 1265.03 2948.99 1265.03 2951.04C1265.03 2952.8 1265.85 2954.29 1267.49 2955.52C1269.72 2957.16 1277.39 2959.48 1290.52 2962.46C1303.7 2965.45 1312.9 2969.12 1318.12 2973.45C1323.27 2977.85 1325.85 2983.97 1325.85 2991.82C1325.85 3000.38 1322.28 3007.73 1315.13 3013.88C1307.98 3020.03 1297.4 3023.11 1283.4 3023.11C1270.69 3023.11 1260.61 3020.53 1253.17 3015.38C1245.78 3010.22 1240.95 3003.22 1238.66 2994.37Z" fill="#FEFAFA"/>
<path d="M37.1836 3585V3456.15H63.1992V3506.87H114.176V3456.15H140.191V3585H114.176V3528.66H63.1992V3585H37.1836ZM185.455 3520.14L163.043 3516.09C165.562 3507.07 169.898 3500.39 176.051 3496.05C182.203 3491.72 191.344 3489.55 203.473 3489.55C214.488 3489.55 222.691 3490.87 228.082 3493.51C233.473 3496.08 237.252 3499.39 239.42 3503.44C241.646 3507.42 242.76 3514.78 242.76 3525.5L242.496 3554.33C242.496 3562.53 242.877 3568.59 243.639 3572.52C244.459 3576.39 245.953 3580.55 248.121 3585H223.688C223.043 3583.36 222.252 3580.93 221.314 3577.71C220.904 3576.24 220.611 3575.27 220.436 3574.8C216.217 3578.91 211.705 3581.98 206.9 3584.03C202.096 3586.08 196.969 3587.11 191.52 3587.11C181.91 3587.11 174.322 3584.5 168.756 3579.29C163.248 3574.07 160.494 3567.48 160.494 3559.51C160.494 3554.24 161.754 3549.55 164.273 3545.45C166.793 3541.29 170.309 3538.12 174.82 3535.96C179.391 3533.73 185.953 3531.8 194.508 3530.16C206.051 3527.99 214.049 3525.97 218.502 3524.09V3521.63C218.502 3516.88 217.33 3513.52 214.986 3511.52C212.643 3509.47 208.219 3508.45 201.715 3508.45C197.32 3508.45 193.893 3509.33 191.432 3511.08C188.971 3512.78 186.979 3515.8 185.455 3520.14ZM218.502 3540.18C215.338 3541.23 210.328 3542.49 203.473 3543.96C196.617 3545.42 192.135 3546.86 190.025 3548.26C186.803 3550.55 185.191 3553.45 185.191 3556.96C185.191 3560.42 186.48 3563.41 189.059 3565.93C191.637 3568.45 194.918 3569.71 198.902 3569.71C203.355 3569.71 207.604 3568.24 211.646 3565.31C214.635 3563.09 216.598 3560.36 217.535 3557.14C218.18 3555.03 218.502 3551.02 218.502 3545.1V3540.18ZM290.836 3585H266.139V3491.66H289.078V3504.93C293.004 3498.66 296.52 3494.53 299.625 3492.54C302.789 3490.55 306.363 3489.55 310.348 3489.55C315.973 3489.55 321.393 3491.1 326.607 3494.21L318.961 3515.74C314.801 3513.05 310.934 3511.7 307.359 3511.7C303.902 3511.7 300.973 3512.67 298.57 3514.6C296.168 3516.47 294.264 3519.9 292.857 3524.88C291.51 3529.86 290.836 3540.29 290.836 3556.17V3585ZM360.973 3585H336.275V3491.66H359.215V3504.93C363.141 3498.66 366.656 3494.53 369.762 3492.54C372.926 3490.55 376.5 3489.55 380.484 3489.55C386.109 3489.55 391.529 3491.1 396.744 3494.21L389.098 3515.74C384.938 3513.05 381.07 3511.7 377.496 3511.7C374.039 3511.7 371.109 3512.67 368.707 3514.6C366.305 3516.47 364.4 3519.9 362.994 3524.88C361.646 3529.86 360.973 3540.29 360.973 3556.17V3585ZM395.777 3491.66H422.057L444.381 3557.93L466.178 3491.66H491.754L458.795 3581.48L452.906 3597.74C450.738 3603.19 448.658 3607.35 446.666 3610.22C444.732 3613.1 442.477 3615.41 439.898 3617.17C437.379 3618.98 434.244 3620.39 430.494 3621.39C426.803 3622.38 422.613 3622.88 417.926 3622.88C413.18 3622.88 408.521 3622.38 403.951 3621.39L401.754 3602.05C405.621 3602.81 409.107 3603.19 412.213 3603.19C417.955 3603.19 422.203 3601.49 424.957 3598.1C427.711 3594.76 429.82 3590.48 431.285 3585.26L395.777 3491.66ZM557.936 3585V3456.15H599.684C615.504 3456.15 625.816 3456.8 630.621 3458.09C638.004 3460.02 644.186 3464.24 649.166 3470.74C654.146 3477.19 656.637 3485.54 656.637 3495.79C656.637 3503.7 655.201 3510.35 652.33 3515.74C649.459 3521.13 645.797 3525.38 641.344 3528.49C636.949 3531.53 632.467 3533.55 627.896 3534.55C621.686 3535.78 612.691 3536.4 600.914 3536.4H583.951V3585H557.936ZM583.951 3477.95V3514.51H598.189C608.443 3514.51 615.299 3513.84 618.756 3512.49C622.213 3511.14 624.908 3509.03 626.842 3506.16C628.834 3503.29 629.83 3499.95 629.83 3496.14C629.83 3491.46 628.453 3487.59 625.699 3484.54C622.945 3481.49 619.459 3479.59 615.24 3478.83C612.135 3478.24 605.895 3477.95 596.52 3477.95H583.951ZM672.105 3537.01C672.105 3528.81 674.127 3520.87 678.17 3513.19C682.213 3505.52 687.926 3499.66 695.309 3495.62C702.75 3491.57 711.041 3489.55 720.182 3489.55C734.303 3489.55 745.875 3494.15 754.898 3503.35C763.922 3512.49 768.434 3524.06 768.434 3538.07C768.434 3552.19 763.863 3563.91 754.723 3573.22C745.641 3582.48 734.186 3587.11 720.357 3587.11C711.803 3587.11 703.629 3585.18 695.836 3581.31C688.102 3577.44 682.213 3571.79 678.17 3564.35C674.127 3556.85 672.105 3547.73 672.105 3537.01ZM697.418 3538.33C697.418 3547.59 699.615 3554.68 704.01 3559.6C708.404 3564.52 713.824 3566.98 720.27 3566.98C726.715 3566.98 732.105 3564.52 736.441 3559.6C740.836 3554.68 743.033 3547.53 743.033 3538.15C743.033 3529.01 740.836 3521.98 736.441 3517.06C732.105 3512.14 726.715 3509.68 720.27 3509.68C713.824 3509.68 708.404 3512.14 704.01 3517.06C699.615 3521.98 697.418 3529.07 697.418 3538.33ZM830.66 3491.66V3511.35H813.785V3548.96C813.785 3556.58 813.932 3561.04 814.225 3562.32C814.576 3563.55 815.309 3564.58 816.422 3565.4C817.594 3566.22 819 3566.63 820.641 3566.63C822.926 3566.63 826.236 3565.84 830.572 3564.26L832.682 3583.42C826.939 3585.88 820.436 3587.11 813.17 3587.11C808.717 3587.11 804.703 3586.38 801.129 3584.91C797.555 3583.39 794.918 3581.46 793.219 3579.11C791.578 3576.71 790.436 3573.49 789.791 3569.44C789.264 3566.57 789 3560.77 789 3552.04V3511.35H777.662V3491.66H789V3473.12L813.785 3458.7V3491.66H830.66ZM890.602 3491.66V3511.35H873.727V3548.96C873.727 3556.58 873.873 3561.04 874.166 3562.32C874.518 3563.55 875.25 3564.58 876.363 3565.4C877.535 3566.22 878.941 3566.63 880.582 3566.63C882.867 3566.63 886.178 3565.84 890.514 3564.26L892.623 3583.42C886.881 3585.88 880.377 3587.11 873.111 3587.11C868.658 3587.11 864.645 3586.38 861.07 3584.91C857.496 3583.39 854.859 3581.46 853.16 3579.11C851.52 3576.71 850.377 3573.49 849.732 3569.44C849.205 3566.57 848.941 3560.77 848.941 3552.04V3511.35H837.604V3491.66H848.941V3473.12L873.727 3458.7V3491.66H890.602ZM961.793 3555.29L986.402 3559.42C983.238 3568.45 978.229 3575.33 971.373 3580.08C964.576 3584.77 956.051 3587.11 945.797 3587.11C929.566 3587.11 917.555 3581.81 909.762 3571.2C903.609 3562.71 900.533 3551.98 900.533 3539.03C900.533 3523.56 904.576 3511.46 912.662 3502.73C920.748 3493.95 930.973 3489.55 943.336 3489.55C957.223 3489.55 968.18 3494.15 976.207 3503.35C984.234 3512.49 988.072 3526.52 987.721 3545.45H925.846C926.021 3552.77 928.014 3558.49 931.822 3562.59C935.631 3566.63 940.377 3568.65 946.061 3568.65C949.928 3568.65 953.18 3567.6 955.816 3565.49C958.453 3563.38 960.445 3559.98 961.793 3555.29ZM963.199 3530.33C963.023 3523.18 961.178 3517.76 957.662 3514.07C954.146 3510.32 949.869 3508.45 944.83 3508.45C939.439 3508.45 934.986 3510.41 931.471 3514.34C927.955 3518.26 926.227 3523.59 926.285 3530.33H963.199ZM1031.58 3585H1006.88V3491.66H1029.82V3504.93C1033.75 3498.66 1037.26 3494.53 1040.37 3492.54C1043.53 3490.55 1047.11 3489.55 1051.09 3489.55C1056.71 3489.55 1062.13 3491.1 1067.35 3494.21L1059.7 3515.74C1055.54 3513.05 1051.68 3511.7 1048.1 3511.7C1044.64 3511.7 1041.71 3512.67 1039.31 3514.6C1036.91 3516.47 1035.01 3519.9 1033.6 3524.88C1032.25 3529.86 1031.58 3540.29 1031.58 3556.17V3585ZM1146.63 3520.14L1124.21 3516.09C1126.73 3507.07 1131.07 3500.39 1137.22 3496.05C1143.38 3491.72 1152.52 3489.55 1164.64 3489.55C1175.66 3489.55 1183.86 3490.87 1189.25 3493.51C1194.64 3496.08 1198.42 3499.39 1200.59 3503.44C1202.82 3507.42 1203.93 3514.78 1203.93 3525.5L1203.67 3554.33C1203.67 3562.53 1204.05 3568.59 1204.81 3572.52C1205.63 3576.39 1207.12 3580.55 1209.29 3585H1184.86C1184.21 3583.36 1183.42 3580.93 1182.49 3577.71C1182.08 3576.24 1181.78 3575.27 1181.61 3574.8C1177.39 3578.91 1172.88 3581.98 1168.07 3584.03C1163.27 3586.08 1158.14 3587.11 1152.69 3587.11C1143.08 3587.11 1135.49 3584.5 1129.93 3579.29C1124.42 3574.07 1121.67 3567.48 1121.67 3559.51C1121.67 3554.24 1122.93 3549.55 1125.45 3545.45C1127.96 3541.29 1131.48 3538.12 1135.99 3535.96C1140.56 3533.73 1147.12 3531.8 1155.68 3530.16C1167.22 3527.99 1175.22 3525.97 1179.67 3524.09V3521.63C1179.67 3516.88 1178.5 3513.52 1176.16 3511.52C1173.81 3509.47 1169.39 3508.45 1162.89 3508.45C1158.49 3508.45 1155.06 3509.33 1152.6 3511.08C1150.14 3512.78 1148.15 3515.8 1146.63 3520.14ZM1179.67 3540.18C1176.51 3541.23 1171.5 3542.49 1164.64 3543.96C1157.79 3545.42 1153.31 3546.86 1151.2 3548.26C1147.97 3550.55 1146.36 3553.45 1146.36 3556.96C1146.36 3560.42 1147.65 3563.41 1150.23 3565.93C1152.81 3568.45 1156.09 3569.71 1160.07 3569.71C1164.53 3569.71 1168.78 3568.24 1172.82 3565.31C1175.81 3563.09 1177.77 3560.36 1178.71 3557.14C1179.35 3555.03 1179.67 3551.02 1179.67 3545.1V3540.18ZM1313.27 3585H1288.57V3537.36C1288.57 3527.29 1288.04 3520.78 1286.99 3517.85C1285.93 3514.86 1284.21 3512.55 1281.8 3510.91C1279.46 3509.27 1276.62 3508.45 1273.28 3508.45C1269 3508.45 1265.16 3509.62 1261.76 3511.96C1258.37 3514.31 1256.02 3517.41 1254.73 3521.28C1253.5 3525.15 1252.89 3532.29 1252.89 3542.72V3585H1228.19V3491.66H1251.13V3505.37C1259.27 3494.82 1269.53 3489.55 1281.89 3489.55C1287.34 3489.55 1292.32 3490.55 1296.83 3492.54C1301.34 3494.47 1304.74 3496.96 1307.03 3500.01C1309.37 3503.06 1310.98 3506.51 1311.86 3510.38C1312.8 3514.25 1313.27 3519.79 1313.27 3526.99V3585ZM1424.01 3585H1401.07V3571.29C1397.26 3576.62 1392.75 3580.61 1387.54 3583.24C1382.38 3585.82 1377.16 3587.11 1371.89 3587.11C1361.17 3587.11 1351.97 3582.8 1344.29 3574.19C1336.68 3565.52 1332.87 3553.45 1332.87 3537.98C1332.87 3522.16 1336.59 3510.15 1344.03 3501.94C1351.47 3493.68 1360.88 3489.55 1372.24 3489.55C1382.67 3489.55 1391.7 3493.89 1399.31 3502.56V3456.15H1424.01V3585ZM1358.09 3536.31C1358.09 3546.27 1359.47 3553.48 1362.22 3557.93C1366.21 3564.38 1371.77 3567.6 1378.92 3567.6C1384.61 3567.6 1389.44 3565.2 1393.42 3560.39C1397.41 3555.53 1399.4 3548.29 1399.4 3538.68C1399.4 3527.96 1397.47 3520.25 1393.6 3515.57C1389.73 3510.82 1384.78 3508.45 1378.75 3508.45C1372.89 3508.45 1367.96 3510.79 1363.98 3515.48C1360.05 3520.11 1358.09 3527.05 1358.09 3536.31ZM1541.34 3491.66V3511.35H1524.47V3548.96C1524.47 3556.58 1524.62 3561.04 1524.91 3562.32C1525.26 3563.55 1525.99 3564.58 1527.11 3565.4C1528.28 3566.22 1529.68 3566.63 1531.32 3566.63C1533.61 3566.63 1536.92 3565.84 1541.26 3564.26L1543.37 3583.42C1537.62 3585.88 1531.12 3587.11 1523.85 3587.11C1519.4 3587.11 1515.39 3586.38 1511.81 3584.91C1508.24 3583.39 1505.6 3581.46 1503.9 3579.11C1502.26 3576.71 1501.12 3573.49 1500.47 3569.44C1499.95 3566.57 1499.68 3560.77 1499.68 3552.04V3511.35H1488.35V3491.66H1499.68V3473.12L1524.47 3458.7V3491.66H1541.34ZM1583.09 3456.15V3503.53C1591.06 3494.21 1600.58 3489.55 1611.66 3489.55C1617.34 3489.55 1622.47 3490.61 1627.04 3492.71C1631.61 3494.82 1635.04 3497.52 1637.32 3500.8C1639.66 3504.08 1641.25 3507.71 1642.07 3511.7C1642.95 3515.68 1643.38 3521.87 1643.38 3530.24V3585H1618.69V3535.69C1618.69 3525.91 1618.22 3519.7 1617.28 3517.06C1616.34 3514.42 1614.67 3512.34 1612.27 3510.82C1609.93 3509.24 1606.97 3508.45 1603.39 3508.45C1599.29 3508.45 1595.63 3509.44 1592.41 3511.44C1589.19 3513.43 1586.81 3516.45 1585.29 3520.49C1583.82 3524.47 1583.09 3530.39 1583.09 3538.24V3585H1558.39V3456.15H1583.09ZM1722.57 3555.29L1747.18 3559.42C1744.02 3568.45 1739.01 3575.33 1732.15 3580.08C1725.36 3584.77 1716.83 3587.11 1706.58 3587.11C1690.35 3587.11 1678.34 3581.81 1670.54 3571.2C1664.39 3562.71 1661.31 3551.98 1661.31 3539.03C1661.31 3523.56 1665.36 3511.46 1673.44 3502.73C1681.53 3493.95 1691.75 3489.55 1704.12 3489.55C1718 3489.55 1728.96 3494.15 1736.99 3503.35C1745.02 3512.49 1748.85 3526.52 1748.5 3545.45H1686.63C1686.8 3552.77 1688.79 3558.49 1692.6 3562.59C1696.41 3566.63 1701.16 3568.65 1706.84 3568.65C1710.71 3568.65 1713.96 3567.6 1716.6 3565.49C1719.23 3563.38 1721.23 3559.98 1722.57 3555.29ZM1723.98 3530.33C1723.8 3523.18 1721.96 3517.76 1718.44 3514.07C1714.93 3510.32 1710.65 3508.45 1705.61 3508.45C1700.22 3508.45 1695.77 3510.41 1692.25 3514.34C1688.74 3518.26 1687.01 3523.59 1687.07 3530.33H1723.98ZM87.1055 3663.15H134.654C145.377 3663.15 153.551 3663.97 159.176 3665.61C166.734 3667.84 173.209 3671.79 178.6 3677.48C183.99 3683.16 188.092 3690.13 190.904 3698.4C193.717 3706.6 195.123 3716.74 195.123 3728.81C195.123 3739.41 193.805 3748.55 191.168 3756.23C187.945 3765.6 183.346 3773.19 177.369 3778.99C172.857 3783.39 166.764 3786.81 159.088 3789.28C153.346 3791.09 145.67 3792 136.061 3792H87.1055V3663.15ZM113.121 3684.95V3770.29H132.545C139.811 3770.29 145.055 3769.88 148.277 3769.06C152.496 3768.01 155.982 3766.22 158.736 3763.7C161.549 3761.18 163.834 3757.05 165.592 3751.31C167.35 3745.51 168.229 3737.62 168.229 3727.66C168.229 3717.7 167.35 3710.06 165.592 3704.72C163.834 3699.39 161.373 3695.23 158.209 3692.24C155.045 3689.26 151.031 3687.23 146.168 3686.18C142.535 3685.36 135.416 3684.95 124.811 3684.95H113.121ZM271.148 3762.29L295.758 3766.42C292.594 3775.45 287.584 3782.33 280.729 3787.08C273.932 3791.77 265.406 3794.11 255.152 3794.11C238.922 3794.11 226.91 3788.81 219.117 3778.2C212.965 3769.71 209.889 3758.98 209.889 3746.03C209.889 3730.56 213.932 3718.46 222.018 3709.73C230.104 3700.95 240.328 3696.55 252.691 3696.55C266.578 3696.55 277.535 3701.15 285.562 3710.35C293.59 3719.49 297.428 3733.52 297.076 3752.45H235.201C235.377 3759.77 237.369 3765.49 241.178 3769.59C244.986 3773.63 249.732 3775.65 255.416 3775.65C259.283 3775.65 262.535 3774.6 265.172 3772.49C267.809 3770.38 269.801 3766.98 271.148 3762.29ZM272.555 3737.33C272.379 3730.18 270.533 3724.76 267.018 3721.07C263.502 3717.32 259.225 3715.45 254.186 3715.45C248.795 3715.45 244.342 3717.41 240.826 3721.34C237.311 3725.26 235.582 3730.59 235.641 3737.33H272.555ZM335.748 3727.14L313.336 3723.09C315.855 3714.07 320.191 3707.39 326.344 3703.05C332.496 3698.72 341.637 3696.55 353.766 3696.55C364.781 3696.55 372.984 3697.87 378.375 3700.51C383.766 3703.08 387.545 3706.39 389.713 3710.44C391.939 3714.42 393.053 3721.78 393.053 3732.5L392.789 3761.33C392.789 3769.53 393.17 3775.59 393.932 3779.52C394.752 3783.39 396.246 3787.55 398.414 3792H373.98C373.336 3790.36 372.545 3787.93 371.607 3784.71C371.197 3783.24 370.904 3782.27 370.729 3781.8C366.51 3785.91 361.998 3788.98 357.193 3791.03C352.389 3793.08 347.262 3794.11 341.812 3794.11C332.203 3794.11 324.615 3791.5 319.049 3786.29C313.541 3781.07 310.787 3774.48 310.787 3766.51C310.787 3761.24 312.047 3756.55 314.566 3752.45C317.086 3748.29 320.602 3745.12 325.113 3742.96C329.684 3740.73 336.246 3738.8 344.801 3737.16C356.344 3734.99 364.342 3732.97 368.795 3731.09V3728.63C368.795 3723.88 367.623 3720.52 365.279 3718.52C362.936 3716.47 358.512 3715.45 352.008 3715.45C347.613 3715.45 344.186 3716.33 341.725 3718.08C339.264 3719.78 337.271 3722.8 335.748 3727.14ZM368.795 3747.18C365.631 3748.23 360.621 3749.49 353.766 3750.96C346.91 3752.42 342.428 3753.86 340.318 3755.26C337.096 3757.55 335.484 3760.45 335.484 3763.96C335.484 3767.42 336.773 3770.41 339.352 3772.93C341.93 3775.45 345.211 3776.71 349.195 3776.71C353.648 3776.71 357.896 3775.24 361.939 3772.31C364.928 3770.09 366.891 3767.36 367.828 3764.14C368.473 3762.03 368.795 3758.02 368.795 3752.1V3747.18ZM460.289 3698.66V3718.35H443.414V3755.96C443.414 3763.58 443.561 3768.04 443.854 3769.32C444.205 3770.55 444.938 3771.58 446.051 3772.4C447.223 3773.22 448.629 3773.63 450.27 3773.63C452.555 3773.63 455.865 3772.84 460.201 3771.26L462.311 3790.42C456.568 3792.88 450.064 3794.11 442.799 3794.11C438.346 3794.11 434.332 3793.38 430.758 3791.91C427.184 3790.39 424.547 3788.46 422.848 3786.11C421.207 3783.71 420.064 3780.49 419.42 3776.44C418.893 3773.57 418.629 3767.77 418.629 3759.04V3718.35H407.291V3698.66H418.629V3680.12L443.414 3665.7V3698.66H460.289ZM502.037 3663.15V3710.53C510.006 3701.21 519.527 3696.55 530.602 3696.55C536.285 3696.55 541.412 3697.61 545.982 3699.71C550.553 3701.82 553.98 3704.52 556.266 3707.8C558.609 3711.08 560.191 3714.71 561.012 3718.7C561.891 3722.68 562.33 3728.87 562.33 3737.24V3792H537.633V3742.69C537.633 3732.91 537.164 3726.7 536.227 3724.06C535.289 3721.42 533.619 3719.34 531.217 3717.82C528.873 3716.24 525.914 3715.45 522.34 3715.45C518.238 3715.45 514.576 3716.44 511.354 3718.44C508.131 3720.43 505.758 3723.45 504.234 3727.49C502.77 3731.47 502.037 3737.39 502.037 3745.24V3792H477.34V3663.15H502.037ZM587.467 3792V3663.15H612.164V3792H587.467ZM625.875 3698.66H652.154L674.479 3764.93L696.275 3698.66H721.852L688.893 3788.48L683.004 3804.74C680.836 3810.19 678.756 3814.35 676.764 3817.22C674.83 3820.1 672.574 3822.41 669.996 3824.17C667.477 3825.98 664.342 3827.39 660.592 3828.39C656.9 3829.38 652.711 3829.88 648.023 3829.88C643.277 3829.88 638.619 3829.38 634.049 3828.39L631.852 3809.05C635.719 3809.81 639.205 3810.19 642.311 3810.19C648.053 3810.19 652.301 3808.49 655.055 3805.1C657.809 3801.76 659.918 3797.48 661.383 3792.26L625.875 3698.66ZM788.121 3792V3663.15H814.137V3713.87H865.113V3663.15H891.129V3792H865.113V3735.66H814.137V3792H788.121ZM936.393 3727.14L913.98 3723.09C916.5 3714.07 920.836 3707.39 926.988 3703.05C933.141 3698.72 942.281 3696.55 954.41 3696.55C965.426 3696.55 973.629 3697.87 979.02 3700.51C984.41 3703.08 988.189 3706.39 990.357 3710.44C992.584 3714.42 993.697 3721.78 993.697 3732.5L993.434 3761.33C993.434 3769.53 993.814 3775.59 994.576 3779.52C995.396 3783.39 996.891 3787.55 999.059 3792H974.625C973.98 3790.36 973.189 3787.93 972.252 3784.71C971.842 3783.24 971.549 3782.27 971.373 3781.8C967.154 3785.91 962.643 3788.98 957.838 3791.03C953.033 3793.08 947.906 3794.11 942.457 3794.11C932.848 3794.11 925.26 3791.5 919.693 3786.29C914.186 3781.07 911.432 3774.48 911.432 3766.51C911.432 3761.24 912.691 3756.55 915.211 3752.45C917.73 3748.29 921.246 3745.12 925.758 3742.96C930.328 3740.73 936.891 3738.8 945.445 3737.16C956.988 3734.99 964.986 3732.97 969.439 3731.09V3728.63C969.439 3723.88 968.268 3720.52 965.924 3718.52C963.58 3716.47 959.156 3715.45 952.652 3715.45C948.258 3715.45 944.83 3716.33 942.369 3718.08C939.908 3719.78 937.916 3722.8 936.393 3727.14ZM969.439 3747.18C966.275 3748.23 961.266 3749.49 954.41 3750.96C947.555 3752.42 943.072 3753.86 940.963 3755.26C937.74 3757.55 936.129 3760.45 936.129 3763.96C936.129 3767.42 937.418 3770.41 939.996 3772.93C942.574 3775.45 945.855 3776.71 949.84 3776.71C954.293 3776.71 958.541 3775.24 962.584 3772.31C965.572 3770.09 967.535 3767.36 968.473 3764.14C969.117 3762.03 969.439 3758.02 969.439 3752.1V3747.18ZM1018.13 3792V3663.15H1042.83V3792H1018.13ZM1068.23 3792V3663.15H1092.93V3792H1068.23ZM1112.61 3744.01C1112.61 3735.81 1114.63 3727.87 1118.68 3720.19C1122.72 3712.52 1128.43 3706.66 1135.82 3702.62C1143.26 3698.57 1151.55 3696.55 1160.69 3696.55C1174.81 3696.55 1186.38 3701.15 1195.41 3710.35C1204.43 3719.49 1208.94 3731.06 1208.94 3745.07C1208.94 3759.19 1204.37 3770.91 1195.23 3780.22C1186.15 3789.48 1174.69 3794.11 1160.87 3794.11C1152.31 3794.11 1144.14 3792.18 1136.34 3788.31C1128.61 3784.44 1122.72 3778.79 1118.68 3771.35C1114.63 3763.85 1112.61 3754.73 1112.61 3744.01ZM1137.93 3745.33C1137.93 3754.59 1140.12 3761.68 1144.52 3766.6C1148.91 3771.52 1154.33 3773.98 1160.78 3773.98C1167.22 3773.98 1172.61 3771.52 1176.95 3766.6C1181.34 3761.68 1183.54 3754.53 1183.54 3745.15C1183.54 3736.01 1181.34 3728.98 1176.95 3724.06C1172.61 3719.14 1167.22 3716.68 1160.78 3716.68C1154.33 3716.68 1148.91 3719.14 1144.52 3724.06C1140.12 3728.98 1137.93 3736.07 1137.93 3745.33ZM1245.77 3792L1216.24 3698.66H1240.23L1257.72 3759.83L1273.8 3698.66H1297.62L1313.18 3759.83L1331.02 3698.66H1355.37L1325.4 3792H1301.67L1285.58 3731.97L1269.76 3792H1245.77ZM1359.76 3765.37L1384.55 3761.59C1385.6 3766.39 1387.74 3770.06 1390.96 3772.58C1394.19 3775.04 1398.7 3776.27 1404.5 3776.27C1410.88 3776.27 1415.69 3775.1 1418.91 3772.75C1421.08 3771.11 1422.16 3768.91 1422.16 3766.16C1422.16 3764.29 1421.58 3762.73 1420.41 3761.5C1419.18 3760.33 1416.42 3759.25 1412.14 3758.25C1392.22 3753.86 1379.6 3749.84 1374.26 3746.21C1366.88 3741.17 1363.19 3734.17 1363.19 3725.2C1363.19 3717.12 1366.38 3710.32 1372.77 3704.81C1379.16 3699.3 1389.06 3696.55 1402.48 3696.55C1415.25 3696.55 1424.74 3698.63 1430.95 3702.79C1437.16 3706.95 1441.44 3713.1 1443.79 3721.25L1420.49 3725.55C1419.5 3721.92 1417.59 3719.14 1414.78 3717.21C1412.03 3715.27 1408.07 3714.3 1402.92 3714.3C1396.41 3714.3 1391.75 3715.21 1388.94 3717.03C1387.07 3718.32 1386.13 3719.99 1386.13 3722.04C1386.13 3723.8 1386.95 3725.29 1388.59 3726.52C1390.82 3728.16 1398.49 3730.48 1411.62 3733.46C1424.8 3736.45 1434 3740.12 1439.21 3744.45C1444.37 3748.85 1446.95 3754.97 1446.95 3762.82C1446.95 3771.38 1443.38 3778.73 1436.23 3784.88C1429.08 3791.03 1418.5 3794.11 1404.5 3794.11C1391.78 3794.11 1381.71 3791.53 1374.26 3786.38C1366.88 3781.22 1362.05 3774.22 1359.76 3765.37ZM1473.4 3723.36V3698.66H1498.1V3723.36H1473.4ZM1473.4 3792V3767.3H1498.1V3792H1473.4ZM37.0957 3999V3870.15H78.8438C94.6641 3870.15 104.977 3870.8 109.781 3872.09C117.164 3874.02 123.346 3878.24 128.326 3884.74C133.307 3891.19 135.797 3899.54 135.797 3909.79C135.797 3917.7 134.361 3924.35 131.49 3929.74C128.619 3935.13 124.957 3939.38 120.504 3942.49C116.109 3945.53 111.627 3947.55 107.057 3948.55C100.846 3949.78 91.8516 3950.4 80.0742 3950.4H63.1113V3999H37.0957ZM63.1113 3891.95V3928.51H77.3496C87.6035 3928.51 94.459 3927.84 97.916 3926.49C101.373 3925.14 104.068 3923.03 106.002 3920.16C107.994 3917.29 108.99 3913.95 108.99 3910.14C108.99 3905.46 107.613 3901.59 104.859 3898.54C102.105 3895.49 98.6191 3893.59 94.4004 3892.83C91.2949 3892.24 85.0547 3891.95 75.6797 3891.95H63.1113ZM175.436 3934.14L153.023 3930.09C155.543 3921.07 159.879 3914.39 166.031 3910.05C172.184 3905.72 181.324 3903.55 193.453 3903.55C204.469 3903.55 212.672 3904.87 218.062 3907.51C223.453 3910.08 227.232 3913.39 229.4 3917.44C231.627 3921.42 232.74 3928.78 232.74 3939.5L232.477 3968.33C232.477 3976.53 232.857 3982.59 233.619 3986.52C234.439 3990.39 235.934 3994.55 238.102 3999H213.668C213.023 3997.36 212.232 3994.93 211.295 3991.71C210.885 3990.24 210.592 3989.27 210.416 3988.8C206.197 3992.91 201.686 3995.98 196.881 3998.03C192.076 4000.08 186.949 4001.11 181.5 4001.11C171.891 4001.11 164.303 3998.5 158.736 3993.29C153.229 3988.07 150.475 3981.48 150.475 3973.51C150.475 3968.24 151.734 3963.55 154.254 3959.45C156.773 3955.29 160.289 3952.12 164.801 3949.96C169.371 3947.73 175.934 3945.8 184.488 3944.16C196.031 3941.99 204.029 3939.97 208.482 3938.09V3935.63C208.482 3930.88 207.311 3927.52 204.967 3925.52C202.623 3923.47 198.199 3922.45 191.695 3922.45C187.301 3922.45 183.873 3923.33 181.412 3925.08C178.951 3926.78 176.959 3929.8 175.436 3934.14ZM208.482 3954.18C205.318 3955.23 200.309 3956.49 193.453 3957.96C186.598 3959.42 182.115 3960.86 180.006 3962.26C176.783 3964.55 175.172 3967.45 175.172 3970.96C175.172 3974.42 176.461 3977.41 179.039 3979.93C181.617 3982.45 184.898 3983.71 188.883 3983.71C193.336 3983.71 197.584 3982.24 201.627 3979.31C204.615 3977.09 206.578 3974.36 207.516 3971.14C208.16 3969.03 208.482 3965.02 208.482 3959.1V3954.18ZM280.816 3999H256.119V3905.66H279.059V3918.93C282.984 3912.66 286.5 3908.53 289.605 3906.54C292.77 3904.55 296.344 3903.55 300.328 3903.55C305.953 3903.55 311.373 3905.1 316.588 3908.21L308.941 3929.74C304.781 3927.05 300.914 3925.7 297.34 3925.7C293.883 3925.7 290.953 3926.67 288.551 3928.6C286.148 3930.47 284.244 3933.9 282.838 3938.88C281.49 3943.86 280.816 3954.29 280.816 3970.17V3999ZM370.113 3905.66V3925.35H353.238V3962.96C353.238 3970.58 353.385 3975.04 353.678 3976.32C354.029 3977.55 354.762 3978.58 355.875 3979.4C357.047 3980.22 358.453 3980.63 360.094 3980.63C362.379 3980.63 365.689 3979.84 370.025 3978.26L372.135 3997.42C366.393 3999.88 359.889 4001.11 352.623 4001.11C348.17 4001.11 344.156 4000.38 340.582 3998.91C337.008 3997.39 334.371 3995.46 332.672 3993.11C331.031 3990.71 329.889 3987.49 329.244 3983.44C328.717 3980.57 328.453 3974.77 328.453 3966.04V3925.35H317.115V3905.66H328.453V3887.12L353.238 3872.7V3905.66H370.113ZM515.484 3976.06V3999H428.912C429.85 3990.33 432.662 3982.12 437.35 3974.39C442.037 3966.6 451.295 3956.29 465.123 3943.45C476.256 3933.08 483.082 3926.05 485.602 3922.36C489 3917.26 490.699 3912.22 490.699 3907.24C490.699 3901.73 489.205 3897.52 486.217 3894.59C483.287 3891.6 479.215 3890.1 474 3890.1C468.844 3890.1 464.742 3891.66 461.695 3894.76C458.648 3897.87 456.891 3903.02 456.422 3910.23L431.812 3907.77C433.277 3894.18 437.877 3884.42 445.611 3878.5C453.346 3872.58 463.014 3869.62 474.615 3869.62C487.33 3869.62 497.32 3873.05 504.586 3879.91C511.852 3886.76 515.484 3895.29 515.484 3905.48C515.484 3911.29 514.43 3916.82 512.32 3922.1C510.27 3927.31 506.988 3932.79 502.477 3938.53C499.488 3942.34 494.098 3947.82 486.305 3954.97C478.512 3962.12 473.561 3966.86 471.451 3969.21C469.4 3971.55 467.73 3973.83 466.441 3976.06H515.484Z" fill="#FEFAFA"/>
<path d="M39.0996 4425V4317.95H0.867188V4296.15H103.26V4317.95H65.1152V4425H39.0996ZM144.568 4296.15V4343.53C152.537 4334.21 162.059 4329.55 173.133 4329.55C178.816 4329.55 183.943 4330.61 188.514 4332.71C193.084 4334.82 196.512 4337.52 198.797 4340.8C201.141 4344.08 202.723 4347.71 203.543 4351.7C204.422 4355.68 204.861 4361.87 204.861 4370.24V4425H180.164V4375.69C180.164 4365.91 179.695 4359.7 178.758 4357.06C177.82 4354.42 176.15 4352.34 173.748 4350.82C171.404 4349.24 168.445 4348.45 164.871 4348.45C160.77 4348.45 157.107 4349.44 153.885 4351.44C150.662 4353.43 148.289 4356.45 146.766 4360.49C145.301 4364.47 144.568 4370.39 144.568 4378.24V4425H119.871V4296.15H144.568ZM284.051 4395.29L308.66 4399.42C305.496 4408.45 300.486 4415.33 293.631 4420.08C286.834 4424.77 278.309 4427.11 268.055 4427.11C251.824 4427.11 239.812 4421.81 232.02 4411.2C225.867 4402.71 222.791 4391.98 222.791 4379.03C222.791 4363.56 226.834 4351.46 234.92 4342.73C243.006 4333.95 253.23 4329.55 265.594 4329.55C279.48 4329.55 290.438 4334.15 298.465 4343.35C306.492 4352.49 310.33 4366.52 309.979 4385.45H248.104C248.279 4392.77 250.271 4398.49 254.08 4402.59C257.889 4406.63 262.635 4408.65 268.318 4408.65C272.186 4408.65 275.438 4407.6 278.074 4405.49C280.711 4403.38 282.703 4399.98 284.051 4395.29ZM285.457 4370.33C285.281 4363.18 283.436 4357.76 279.92 4354.07C276.404 4350.32 272.127 4348.45 267.088 4348.45C261.697 4348.45 257.244 4350.41 253.729 4354.34C250.213 4358.26 248.484 4363.59 248.543 4370.33H285.457ZM462.908 4377.63L488.133 4385.62C484.266 4399.69 477.82 4410.15 468.797 4417C459.832 4423.8 448.436 4427.2 434.607 4427.2C417.498 4427.2 403.436 4421.37 392.42 4409.71C381.404 4397.99 375.896 4381.99 375.896 4361.72C375.896 4340.27 381.434 4323.63 392.508 4311.8C403.582 4299.9 418.143 4293.96 436.189 4293.96C451.951 4293.96 464.754 4298.61 474.598 4307.93C480.457 4313.44 484.852 4321.35 487.781 4331.66L462.029 4337.81C460.506 4331.13 457.312 4325.86 452.449 4321.99C447.645 4318.12 441.785 4316.19 434.871 4316.19C425.32 4316.19 417.557 4319.62 411.58 4326.47C405.662 4333.33 402.703 4344.43 402.703 4359.79C402.703 4376.07 405.633 4387.68 411.492 4394.59C417.352 4401.5 424.969 4404.96 434.344 4404.96C441.258 4404.96 447.205 4402.76 452.186 4398.37C457.166 4393.97 460.74 4387.06 462.908 4377.63ZM564.422 4395.29L589.031 4399.42C585.867 4408.45 580.857 4415.33 574.002 4420.08C567.205 4424.77 558.68 4427.11 548.426 4427.11C532.195 4427.11 520.184 4421.81 512.391 4411.2C506.238 4402.71 503.162 4391.98 503.162 4379.03C503.162 4363.56 507.205 4351.46 515.291 4342.73C523.377 4333.95 533.602 4329.55 545.965 4329.55C559.852 4329.55 570.809 4334.15 578.836 4343.35C586.863 4352.49 590.701 4366.52 590.35 4385.45H528.475C528.65 4392.77 530.643 4398.49 534.451 4402.59C538.26 4406.63 543.006 4408.65 548.689 4408.65C552.557 4408.65 555.809 4407.6 558.445 4405.49C561.082 4403.38 563.074 4399.98 564.422 4395.29ZM565.828 4370.33C565.652 4363.18 563.807 4357.76 560.291 4354.07C556.775 4350.32 552.498 4348.45 547.459 4348.45C542.068 4348.45 537.615 4350.41 534.1 4354.34C530.584 4358.26 528.855 4363.59 528.914 4370.33H565.828ZM610.564 4425V4296.15H635.262V4425H610.564ZM714.715 4395.29L739.324 4399.42C736.16 4408.45 731.15 4415.33 724.295 4420.08C717.498 4424.77 708.973 4427.11 698.719 4427.11C682.488 4427.11 670.477 4421.81 662.684 4411.2C656.531 4402.71 653.455 4391.98 653.455 4379.03C653.455 4363.56 657.498 4351.46 665.584 4342.73C673.67 4333.95 683.895 4329.55 696.258 4329.55C710.145 4329.55 721.102 4334.15 729.129 4343.35C737.156 4352.49 740.994 4366.52 740.643 4385.45H678.768C678.943 4392.77 680.936 4398.49 684.744 4402.59C688.553 4406.63 693.299 4408.65 698.982 4408.65C702.85 4408.65 706.102 4407.6 708.738 4405.49C711.375 4403.38 713.367 4399.98 714.715 4395.29ZM716.121 4370.33C715.945 4363.18 714.1 4357.76 710.584 4354.07C707.068 4350.32 702.791 4348.45 697.752 4348.45C692.361 4348.45 687.908 4350.41 684.393 4354.34C680.877 4358.26 679.148 4363.59 679.207 4370.33H716.121ZM759.803 4425V4296.15H784.5V4342.56C792.117 4333.89 801.141 4329.55 811.57 4329.55C822.938 4329.55 832.342 4333.68 839.783 4341.94C847.225 4350.15 850.945 4361.95 850.945 4377.36C850.945 4393.3 847.137 4405.58 839.52 4414.19C831.961 4422.8 822.762 4427.11 811.922 4427.11C806.59 4427.11 801.316 4425.79 796.102 4423.15C790.945 4420.46 786.492 4416.5 782.742 4411.29V4425H759.803ZM784.324 4376.31C784.324 4385.98 785.848 4393.12 788.895 4397.75C793.172 4404.32 798.855 4407.6 805.945 4407.6C811.395 4407.6 816.023 4405.28 819.832 4400.65C823.699 4395.97 825.633 4388.61 825.633 4378.59C825.633 4367.93 823.699 4360.25 819.832 4355.57C815.965 4350.82 811.014 4348.45 804.979 4348.45C799.061 4348.45 794.139 4350.76 790.213 4355.39C786.287 4359.96 784.324 4366.93 784.324 4376.31ZM894.539 4425H869.842V4331.66H892.781V4344.93C896.707 4338.66 900.223 4334.53 903.328 4332.54C906.492 4330.55 910.066 4329.55 914.051 4329.55C919.676 4329.55 925.096 4331.1 930.311 4334.21L922.664 4355.74C918.504 4353.05 914.637 4351.7 911.062 4351.7C907.605 4351.7 904.676 4352.67 902.273 4354.6C899.871 4356.47 897.967 4359.9 896.561 4364.88C895.213 4369.86 894.539 4380.29 894.539 4396.17V4425ZM959.49 4360.14L937.078 4356.09C939.598 4347.07 943.934 4340.39 950.086 4336.05C956.238 4331.72 965.379 4329.55 977.508 4329.55C988.523 4329.55 996.727 4330.87 1002.12 4333.51C1007.51 4336.08 1011.29 4339.39 1013.46 4343.44C1015.68 4347.42 1016.79 4354.78 1016.79 4365.5L1016.53 4394.33C1016.53 4402.53 1016.91 4408.59 1017.67 4412.52C1018.49 4416.39 1019.99 4420.55 1022.16 4425H997.723C997.078 4423.36 996.287 4420.93 995.35 4417.71C994.939 4416.24 994.646 4415.27 994.471 4414.8C990.252 4418.91 985.74 4421.98 980.936 4424.03C976.131 4426.08 971.004 4427.11 965.555 4427.11C955.945 4427.11 948.357 4424.5 942.791 4419.29C937.283 4414.07 934.529 4407.48 934.529 4399.51C934.529 4394.24 935.789 4389.55 938.309 4385.45C940.828 4381.29 944.344 4378.12 948.855 4375.96C953.426 4373.73 959.988 4371.8 968.543 4370.16C980.086 4367.99 988.084 4365.97 992.537 4364.09V4361.63C992.537 4356.88 991.365 4353.52 989.021 4351.52C986.678 4349.47 982.254 4348.45 975.75 4348.45C971.355 4348.45 967.928 4349.33 965.467 4351.08C963.006 4352.78 961.014 4355.8 959.49 4360.14ZM992.537 4380.18C989.373 4381.23 984.363 4382.49 977.508 4383.96C970.652 4385.42 966.17 4386.86 964.061 4388.26C960.838 4390.55 959.227 4393.45 959.227 4396.96C959.227 4400.42 960.516 4403.41 963.094 4405.93C965.672 4408.45 968.953 4409.71 972.938 4409.71C977.391 4409.71 981.639 4408.24 985.682 4405.31C988.67 4403.09 990.633 4400.36 991.57 4397.14C992.215 4395.03 992.537 4391.02 992.537 4385.1V4380.18ZM1084.03 4331.66V4351.35H1067.16V4388.96C1067.16 4396.58 1067.3 4401.04 1067.6 4402.32C1067.95 4403.55 1068.68 4404.58 1069.79 4405.4C1070.96 4406.22 1072.37 4406.63 1074.01 4406.63C1076.3 4406.63 1079.61 4405.84 1083.94 4404.26L1086.05 4423.42C1080.31 4425.88 1073.81 4427.11 1066.54 4427.11C1062.09 4427.11 1058.07 4426.38 1054.5 4424.91C1050.93 4423.39 1048.29 4421.46 1046.59 4419.11C1044.95 4416.71 1043.81 4413.49 1043.16 4409.44C1042.63 4406.57 1042.37 4400.77 1042.37 4392.04V4351.35H1031.03V4331.66H1042.37V4313.12L1067.16 4298.7V4331.66H1084.03ZM1101.17 4319V4296.15H1125.87V4319H1101.17ZM1101.17 4425V4331.66H1125.87V4425H1101.17ZM1145.55 4377.01C1145.55 4368.81 1147.58 4360.87 1151.62 4353.19C1155.66 4345.52 1161.38 4339.66 1168.76 4335.62C1176.2 4331.57 1184.49 4329.55 1193.63 4329.55C1207.75 4329.55 1219.32 4334.15 1228.35 4343.35C1237.37 4352.49 1241.88 4364.06 1241.88 4378.07C1241.88 4392.19 1237.31 4403.91 1228.17 4413.22C1219.09 4422.48 1207.63 4427.11 1193.81 4427.11C1185.25 4427.11 1177.08 4425.18 1169.29 4421.31C1161.55 4417.44 1155.66 4411.79 1151.62 4404.35C1147.58 4396.85 1145.55 4387.73 1145.55 4377.01ZM1170.87 4378.33C1170.87 4387.59 1173.06 4394.68 1177.46 4399.6C1181.85 4404.52 1187.27 4406.98 1193.72 4406.98C1200.16 4406.98 1205.55 4404.52 1209.89 4399.6C1214.29 4394.68 1216.48 4387.53 1216.48 4378.15C1216.48 4369.01 1214.29 4361.98 1209.89 4357.06C1205.55 4352.14 1200.16 4349.68 1193.72 4349.68C1187.27 4349.68 1181.85 4352.14 1177.46 4357.06C1173.06 4361.98 1170.87 4369.07 1170.87 4378.33ZM1346.21 4425H1321.51V4377.36C1321.51 4367.29 1320.98 4360.78 1319.93 4357.85C1318.88 4354.86 1317.15 4352.55 1314.74 4350.91C1312.4 4349.27 1309.56 4348.45 1306.22 4348.45C1301.94 4348.45 1298.1 4349.62 1294.71 4351.96C1291.31 4354.31 1288.96 4357.41 1287.67 4361.28C1286.44 4365.15 1285.83 4372.29 1285.83 4382.72V4425H1261.13V4331.66H1284.07V4345.37C1292.21 4334.82 1302.47 4329.55 1314.83 4329.55C1320.28 4329.55 1325.26 4330.55 1329.77 4332.54C1334.29 4334.47 1337.68 4336.96 1339.97 4340.01C1342.31 4343.06 1343.92 4346.51 1344.8 4350.38C1345.74 4354.25 1346.21 4359.79 1346.21 4366.99V4425Z" fill="#FEFAFA"/>
</svg>
