<svg width="2557" height="4637" viewBox="0 0 2557 4637" fill="none" xmlns="http://www.w3.org/2000/svg">
<circle cx="2307" cy="250" r="250" fill="#FF0000"/>
<circle cx="2307" cy="1703" r="250" fill="#66CC66"/>
<circle cx="2307" cy="967" r="250" fill="#FF6699"/>
<circle cx="2307" cy="2384" r="250" fill="#FFFF00"/>
<circle cx="2307" cy="4387" r="250" fill="#996633"/>
<circle cx="2307" cy="3706" r="250" fill="#33ADFF"/>
<circle cx="2307" cy="3025" r="250" fill="#CC00FF"/>
<path d="M149.287 239H120.986L109.736 209.732H58.2324L47.5977 239H20L70.1855 110.152H97.6953L149.287 239ZM101.387 188.023L83.6328 140.211L66.2305 188.023H101.387ZM206.24 239V110.152H245.176L268.555 198.043L291.67 110.152H330.693V239H306.523V137.574L280.947 239H255.898L230.41 137.574V239H206.24ZM374.814 174.137L352.402 170.094C354.922 161.07 359.258 154.391 365.41 150.055C371.562 145.719 380.703 143.551 392.832 143.551C403.848 143.551 412.051 144.869 417.441 147.506C422.832 150.084 426.611 153.395 428.779 157.438C431.006 161.422 432.119 168.775 432.119 179.498L431.855 208.326C431.855 216.529 432.236 222.594 432.998 226.52C433.818 230.387 435.312 234.547 437.48 239H413.047C412.402 237.359 411.611 234.928 410.674 231.705C410.264 230.24 409.971 229.273 409.795 228.805C405.576 232.906 401.064 235.982 396.26 238.033C391.455 240.084 386.328 241.109 380.879 241.109C371.27 241.109 363.682 238.502 358.115 233.287C352.607 228.072 349.854 221.48 349.854 213.512C349.854 208.238 351.113 203.551 353.633 199.449C356.152 195.289 359.668 192.125 364.18 189.957C368.75 187.73 375.312 185.797 383.867 184.156C395.41 181.988 403.408 179.967 407.861 178.092V175.631C407.861 170.885 406.689 167.516 404.346 165.523C402.002 163.473 397.578 162.447 391.074 162.447C386.68 162.447 383.252 163.326 380.791 165.084C378.33 166.783 376.338 169.801 374.814 174.137ZM407.861 194.176C404.697 195.23 399.688 196.49 392.832 197.955C385.977 199.42 381.494 200.855 379.385 202.262C376.162 204.547 374.551 207.447 374.551 210.963C374.551 214.42 375.84 217.408 378.418 219.928C380.996 222.447 384.277 223.707 388.262 223.707C392.715 223.707 396.963 222.242 401.006 219.312C403.994 217.086 405.957 214.361 406.895 211.139C407.539 209.029 407.861 205.016 407.861 199.098V194.176ZM499.355 145.66V165.348H482.48V202.965C482.48 210.582 482.627 215.035 482.92 216.324C483.271 217.555 484.004 218.58 485.117 219.4C486.289 220.221 487.695 220.631 489.336 220.631C491.621 220.631 494.932 219.84 499.268 218.258L501.377 237.418C495.635 239.879 489.131 241.109 481.865 241.109C477.412 241.109 473.398 240.377 469.824 238.912C466.25 237.389 463.613 235.455 461.914 233.111C460.273 230.709 459.131 227.486 458.486 223.443C457.959 220.572 457.695 214.771 457.695 206.041V165.348H446.357V145.66H457.695V127.115L482.48 112.701V145.66H499.355ZM559.297 145.66V165.348H542.422V202.965C542.422 210.582 542.568 215.035 542.861 216.324C543.213 217.555 543.945 218.58 545.059 219.4C546.23 220.221 547.637 220.631 549.277 220.631C551.562 220.631 554.873 219.84 559.209 218.258L561.318 237.418C555.576 239.879 549.072 241.109 541.807 241.109C537.354 241.109 533.34 240.377 529.766 238.912C526.191 237.389 523.555 235.455 521.855 233.111C520.215 230.709 519.072 227.486 518.428 223.443C517.9 220.572 517.637 214.771 517.637 206.041V165.348H506.299V145.66H517.637V127.115L542.422 112.701V145.66H559.297ZM630.488 209.293L655.098 213.424C651.934 222.447 646.924 229.332 640.068 234.078C633.271 238.766 624.746 241.109 614.492 241.109C598.262 241.109 586.25 235.807 578.457 225.201C572.305 216.705 569.229 205.982 569.229 193.033C569.229 177.564 573.271 165.465 581.357 156.734C589.443 147.945 599.668 143.551 612.031 143.551C625.918 143.551 636.875 148.15 644.902 157.35C652.93 166.49 656.768 180.523 656.416 199.449H594.541C594.717 206.773 596.709 212.486 600.518 216.588C604.326 220.631 609.072 222.652 614.756 222.652C618.623 222.652 621.875 221.598 624.512 219.488C627.148 217.379 629.141 213.98 630.488 209.293ZM631.895 184.332C631.719 177.184 629.873 171.764 626.357 168.072C622.842 164.322 618.564 162.447 613.525 162.447C608.135 162.447 603.682 164.41 600.166 168.336C596.65 172.262 594.922 177.594 594.98 184.332H631.895ZM700.273 239H675.576V145.66H698.516V158.932C702.441 152.662 705.957 148.531 709.062 146.539C712.227 144.547 715.801 143.551 719.785 143.551C725.41 143.551 730.83 145.104 736.045 148.209L728.398 169.742C724.238 167.047 720.371 165.699 716.797 165.699C713.34 165.699 710.41 166.666 708.008 168.6C705.605 170.475 703.701 173.902 702.295 178.883C700.947 183.863 700.273 194.293 700.273 210.172V239ZM791.152 191.012C791.152 182.809 793.174 174.869 797.217 167.193C801.26 159.518 806.973 153.658 814.355 149.615C821.797 145.572 830.088 143.551 839.229 143.551C853.35 143.551 864.922 148.15 873.945 157.35C882.969 166.49 887.48 178.062 887.48 192.066C887.48 206.188 882.91 217.906 873.77 227.223C864.688 236.48 853.232 241.109 839.404 241.109C830.85 241.109 822.676 239.176 814.883 235.309C807.148 231.441 801.26 225.787 797.217 218.346C793.174 210.846 791.152 201.734 791.152 191.012ZM816.465 192.33C816.465 201.588 818.662 208.678 823.057 213.6C827.451 218.521 832.871 220.982 839.316 220.982C845.762 220.982 851.152 218.521 855.488 213.6C859.883 208.678 862.08 201.529 862.08 192.154C862.08 183.014 859.883 175.982 855.488 171.061C851.152 166.139 845.762 163.678 839.316 163.678C832.871 163.678 827.451 166.139 823.057 171.061C818.662 175.982 816.465 183.072 816.465 192.33ZM896.094 145.66H909.805V138.629C909.805 130.777 910.625 124.918 912.266 121.051C913.965 117.184 917.041 114.049 921.494 111.646C926.006 109.186 931.689 107.955 938.545 107.955C945.576 107.955 952.461 109.01 959.199 111.119L955.859 128.346C951.934 127.408 948.154 126.939 944.521 126.939C940.947 126.939 938.369 127.789 936.787 129.488C935.264 131.129 934.502 134.322 934.502 139.068V145.66H952.959V165.084H934.502V239H909.805V165.084H896.094V145.66ZM1017.82 239V111.207H1043.84V217.291H1108.53V239H1017.82ZM1126.98 133.004V110.152H1151.68V133.004H1126.98ZM1126.98 239V145.66H1151.68V239H1126.98ZM1166.27 145.66H1179.98V138.629C1179.98 130.777 1180.8 124.918 1182.44 121.051C1184.14 117.184 1187.22 114.049 1191.67 111.646C1196.18 109.186 1201.87 107.955 1208.72 107.955C1215.75 107.955 1222.64 109.01 1229.38 111.119L1226.04 128.346C1222.11 127.408 1218.33 126.939 1214.7 126.939C1211.12 126.939 1208.54 127.789 1206.96 129.488C1205.44 131.129 1204.68 134.322 1204.68 139.068V145.66H1223.13V165.084H1204.68V239H1179.98V165.084H1166.27V145.66ZM1291.07 209.293L1315.68 213.424C1312.52 222.447 1307.51 229.332 1300.65 234.078C1293.86 238.766 1285.33 241.109 1275.08 241.109C1258.85 241.109 1246.84 235.807 1239.04 225.201C1232.89 216.705 1229.81 205.982 1229.81 193.033C1229.81 177.564 1233.86 165.465 1241.94 156.734C1250.03 147.945 1260.25 143.551 1272.62 143.551C1286.5 143.551 1297.46 148.15 1305.49 157.35C1313.52 166.49 1317.35 180.523 1317 199.449H1255.13C1255.3 206.773 1257.29 212.486 1261.1 216.588C1264.91 220.631 1269.66 222.652 1275.34 222.652C1279.21 222.652 1282.46 221.598 1285.1 219.488C1287.73 217.379 1289.73 213.98 1291.07 209.293ZM1292.48 184.332C1292.3 177.184 1290.46 171.764 1286.94 168.072C1283.43 164.322 1279.15 162.447 1274.11 162.447C1268.72 162.447 1264.27 164.41 1260.75 168.336C1257.24 172.262 1255.51 177.594 1255.57 184.332H1292.48ZM1405.77 174.137L1383.36 170.094C1385.88 161.07 1390.21 154.391 1396.37 150.055C1402.52 145.719 1411.66 143.551 1423.79 143.551C1434.8 143.551 1443.01 144.869 1448.4 147.506C1453.79 150.084 1457.57 153.395 1459.74 157.438C1461.96 161.422 1463.08 168.775 1463.08 179.498L1462.81 208.326C1462.81 216.529 1463.19 222.594 1463.96 226.52C1464.78 230.387 1466.27 234.547 1468.44 239H1444C1443.36 237.359 1442.57 234.928 1441.63 231.705C1441.22 230.24 1440.93 229.273 1440.75 228.805C1436.53 232.906 1432.02 235.982 1427.22 238.033C1422.41 240.084 1417.29 241.109 1411.84 241.109C1402.23 241.109 1394.64 238.502 1389.07 233.287C1383.56 228.072 1380.81 221.48 1380.81 213.512C1380.81 208.238 1382.07 203.551 1384.59 199.449C1387.11 195.289 1390.62 192.125 1395.14 189.957C1399.71 187.73 1406.27 185.797 1414.82 184.156C1426.37 181.988 1434.37 179.967 1438.82 178.092V175.631C1438.82 170.885 1437.65 167.516 1435.3 165.523C1432.96 163.473 1428.54 162.447 1422.03 162.447C1417.64 162.447 1414.21 163.326 1411.75 165.084C1409.29 166.783 1407.29 169.801 1405.77 174.137ZM1438.82 194.176C1435.65 195.23 1430.64 196.49 1423.79 197.955C1416.93 199.42 1412.45 200.855 1410.34 202.262C1407.12 204.547 1405.51 207.447 1405.51 210.963C1405.51 214.42 1406.8 217.408 1409.38 219.928C1411.95 222.447 1415.23 223.707 1419.22 223.707C1423.67 223.707 1427.92 222.242 1431.96 219.312C1434.95 217.086 1436.91 214.361 1437.85 211.139C1438.5 209.029 1438.82 205.016 1438.82 199.098V194.176ZM1572.41 239H1547.71V191.363C1547.71 181.285 1547.19 174.781 1546.13 171.852C1545.08 168.863 1543.35 166.549 1540.95 164.908C1538.6 163.268 1535.76 162.447 1532.42 162.447C1528.14 162.447 1524.31 163.619 1520.91 165.963C1517.51 168.307 1515.17 171.412 1513.88 175.279C1512.65 179.146 1512.03 186.295 1512.03 196.725V239H1487.33V145.66H1510.27V159.371C1518.42 148.824 1528.67 143.551 1541.04 143.551C1546.48 143.551 1551.46 144.547 1555.98 146.539C1560.49 148.473 1563.89 150.963 1566.17 154.01C1568.52 157.057 1570.13 160.514 1571.01 164.381C1571.94 168.248 1572.41 173.785 1572.41 180.992V239ZM1683.15 239H1660.21V225.289C1656.41 230.621 1651.89 234.605 1646.68 237.242C1641.52 239.82 1636.31 241.109 1631.04 241.109C1620.31 241.109 1611.11 236.803 1603.44 228.189C1595.82 219.518 1592.01 207.447 1592.01 191.979C1592.01 176.158 1595.73 164.146 1603.17 155.943C1610.62 147.682 1620.02 143.551 1631.39 143.551C1641.82 143.551 1650.84 147.887 1658.46 156.559V110.152H1683.15V239ZM1617.24 190.309C1617.24 200.27 1618.61 207.477 1621.37 211.93C1625.35 218.375 1630.92 221.598 1638.07 221.598C1643.75 221.598 1648.58 219.195 1652.57 214.391C1656.55 209.527 1658.54 202.291 1658.54 192.682C1658.54 181.959 1656.61 174.254 1652.74 169.566C1648.88 164.82 1643.93 162.447 1637.89 162.447C1632.03 162.447 1627.11 164.791 1623.12 169.479C1619.2 174.107 1617.24 181.051 1617.24 190.309ZM33.0078 317.152H80.5566C91.2793 317.152 99.4531 317.973 105.078 319.613C112.637 321.84 119.111 325.795 124.502 331.479C129.893 337.162 133.994 344.135 136.807 352.396C139.619 360.6 141.025 370.736 141.025 382.807C141.025 393.412 139.707 402.553 137.07 410.229C133.848 419.604 129.248 427.191 123.271 432.992C118.76 437.387 112.666 440.814 104.99 443.275C99.248 445.092 91.5723 446 81.9629 446H33.0078V317.152ZM59.0234 338.949V424.291H78.4473C85.7129 424.291 90.957 423.881 94.1797 423.061C98.3984 422.006 101.885 420.219 104.639 417.699C107.451 415.18 109.736 411.049 111.494 405.307C113.252 399.506 114.131 391.625 114.131 381.664C114.131 371.703 113.252 364.057 111.494 358.725C109.736 353.393 107.275 349.232 104.111 346.244C100.947 343.256 96.9336 341.234 92.0703 340.18C88.4375 339.359 81.3184 338.949 70.7129 338.949H59.0234ZM217.051 416.293L241.66 420.424C238.496 429.447 233.486 436.332 226.631 441.078C219.834 445.766 211.309 448.109 201.055 448.109C184.824 448.109 172.812 442.807 165.02 432.201C158.867 423.705 155.791 412.982 155.791 400.033C155.791 384.564 159.834 372.465 167.92 363.734C176.006 354.945 186.23 350.551 198.594 350.551C212.48 350.551 223.438 355.15 231.465 364.35C239.492 373.49 243.33 387.523 242.979 406.449H181.104C181.279 413.773 183.271 419.486 187.08 423.588C190.889 427.631 195.635 429.652 201.318 429.652C205.186 429.652 208.438 428.598 211.074 426.488C213.711 424.379 215.703 420.98 217.051 416.293ZM218.457 391.332C218.281 384.184 216.436 378.764 212.92 375.072C209.404 371.322 205.127 369.447 200.088 369.447C194.697 369.447 190.244 371.41 186.729 375.336C183.213 379.262 181.484 384.594 181.543 391.332H218.457ZM281.65 381.137L259.238 377.094C261.758 368.07 266.094 361.391 272.246 357.055C278.398 352.719 287.539 350.551 299.668 350.551C310.684 350.551 318.887 351.869 324.277 354.506C329.668 357.084 333.447 360.395 335.615 364.438C337.842 368.422 338.955 375.775 338.955 386.498L338.691 415.326C338.691 423.529 339.072 429.594 339.834 433.52C340.654 437.387 342.148 441.547 344.316 446H319.883C319.238 444.359 318.447 441.928 317.51 438.705C317.1 437.24 316.807 436.273 316.631 435.805C312.412 439.906 307.9 442.982 303.096 445.033C298.291 447.084 293.164 448.109 287.715 448.109C278.105 448.109 270.518 445.502 264.951 440.287C259.443 435.072 256.689 428.48 256.689 420.512C256.689 415.238 257.949 410.551 260.469 406.449C262.988 402.289 266.504 399.125 271.016 396.957C275.586 394.73 282.148 392.797 290.703 391.156C302.246 388.988 310.244 386.967 314.697 385.092V382.631C314.697 377.885 313.525 374.516 311.182 372.523C308.838 370.473 304.414 369.447 297.91 369.447C293.516 369.447 290.088 370.326 287.627 372.084C285.166 373.783 283.174 376.801 281.65 381.137ZM314.697 401.176C311.533 402.23 306.523 403.49 299.668 404.955C292.812 406.42 288.33 407.855 286.221 409.262C282.998 411.547 281.387 414.447 281.387 417.963C281.387 421.42 282.676 424.408 285.254 426.928C287.832 429.447 291.113 430.707 295.098 430.707C299.551 430.707 303.799 429.242 307.842 426.312C310.83 424.086 312.793 421.361 313.73 418.139C314.375 416.029 314.697 412.016 314.697 406.098V401.176ZM406.191 352.66V372.348H389.316V409.965C389.316 417.582 389.463 422.035 389.756 423.324C390.107 424.555 390.84 425.58 391.953 426.4C393.125 427.221 394.531 427.631 396.172 427.631C398.457 427.631 401.768 426.84 406.104 425.258L408.213 444.418C402.471 446.879 395.967 448.109 388.701 448.109C384.248 448.109 380.234 447.377 376.66 445.912C373.086 444.389 370.449 442.455 368.75 440.111C367.109 437.709 365.967 434.486 365.322 430.443C364.795 427.572 364.531 421.771 364.531 413.041V372.348H353.193V352.66H364.531V334.115L389.316 319.701V352.66H406.191ZM447.939 317.152V364.525C455.908 355.209 465.43 350.551 476.504 350.551C482.188 350.551 487.314 351.605 491.885 353.715C496.455 355.824 499.883 358.52 502.168 361.801C504.512 365.082 506.094 368.715 506.914 372.699C507.793 376.684 508.232 382.865 508.232 391.244V446H483.535V396.693C483.535 386.908 483.066 380.697 482.129 378.061C481.191 375.424 479.521 373.344 477.119 371.82C474.775 370.238 471.816 369.447 468.242 369.447C464.141 369.447 460.479 370.443 457.256 372.436C454.033 374.428 451.66 377.445 450.137 381.488C448.672 385.473 447.939 391.391 447.939 399.242V446H423.242V317.152H447.939Z" fill="#FEFAFA"/>
<path d="M39.0996 1043V935.949H0.867188V914.152H103.26V935.949H65.1152V1043H39.0996ZM144.568 914.152V961.525C152.537 952.209 162.059 947.551 173.133 947.551C178.816 947.551 183.943 948.605 188.514 950.715C193.084 952.824 196.512 955.52 198.797 958.801C201.141 962.082 202.723 965.715 203.543 969.699C204.422 973.684 204.861 979.865 204.861 988.244V1043H180.164V993.693C180.164 983.908 179.695 977.697 178.758 975.061C177.82 972.424 176.15 970.344 173.748 968.82C171.404 967.238 168.445 966.447 164.871 966.447C160.77 966.447 157.107 967.443 153.885 969.436C150.662 971.428 148.289 974.445 146.766 978.488C145.301 982.473 144.568 988.391 144.568 996.242V1043H119.871V914.152H144.568ZM284.051 1013.29L308.66 1017.42C305.496 1026.45 300.486 1033.33 293.631 1038.08C286.834 1042.77 278.309 1045.11 268.055 1045.11C251.824 1045.11 239.812 1039.81 232.02 1029.2C225.867 1020.71 222.791 1009.98 222.791 997.033C222.791 981.564 226.834 969.465 234.92 960.734C243.006 951.945 253.23 947.551 265.594 947.551C279.48 947.551 290.438 952.15 298.465 961.35C306.492 970.49 310.33 984.523 309.979 1003.45H248.104C248.279 1010.77 250.271 1016.49 254.08 1020.59C257.889 1024.63 262.635 1026.65 268.318 1026.65C272.186 1026.65 275.438 1025.6 278.074 1023.49C280.711 1021.38 282.703 1017.98 284.051 1013.29ZM285.457 988.332C285.281 981.184 283.436 975.764 279.92 972.072C276.404 968.322 272.127 966.447 267.088 966.447C261.697 966.447 257.244 968.41 253.729 972.336C250.213 976.262 248.484 981.594 248.543 988.332H285.457ZM398.748 1043L367.986 914.152H394.617L414.041 1002.66L437.596 914.152H468.533L491.121 1004.15L510.896 914.152H537.088L505.799 1043H478.201L452.537 946.672L426.961 1043H398.748ZM548.689 937.004V914.152H573.387V937.004H548.689ZM548.689 1043V949.66H573.387V1043H548.689ZM588.855 1043V1023.75L623.836 983.586C629.578 977.023 633.826 972.365 636.58 969.611C633.709 969.787 629.93 969.904 625.242 969.963L592.283 970.139V949.66H669.451V967.15L633.768 1008.28L621.199 1021.91C628.055 1021.5 632.303 1021.29 633.943 1021.29H672.176V1043H588.855ZM707.244 978.137L684.832 974.094C687.352 965.07 691.688 958.391 697.84 954.055C703.992 949.719 713.133 947.551 725.262 947.551C736.277 947.551 744.48 948.869 749.871 951.506C755.262 954.084 759.041 957.395 761.209 961.438C763.436 965.422 764.549 972.775 764.549 983.498L764.285 1012.33C764.285 1020.53 764.666 1026.59 765.428 1030.52C766.248 1034.39 767.742 1038.55 769.91 1043H745.477C744.832 1041.36 744.041 1038.93 743.104 1035.71C742.693 1034.24 742.4 1033.27 742.225 1032.8C738.006 1036.91 733.494 1039.98 728.689 1042.03C723.885 1044.08 718.758 1045.11 713.309 1045.11C703.699 1045.11 696.111 1042.5 690.545 1037.29C685.037 1032.07 682.283 1025.48 682.283 1017.51C682.283 1012.24 683.543 1007.55 686.062 1003.45C688.582 999.289 692.098 996.125 696.609 993.957C701.18 991.73 707.742 989.797 716.297 988.156C727.84 985.988 735.838 983.967 740.291 982.092V979.631C740.291 974.885 739.119 971.516 736.775 969.523C734.432 967.473 730.008 966.447 723.504 966.447C719.109 966.447 715.682 967.326 713.221 969.084C710.76 970.783 708.768 973.801 707.244 978.137ZM740.291 998.176C737.127 999.23 732.117 1000.49 725.262 1001.96C718.406 1003.42 713.924 1004.86 711.814 1006.26C708.592 1008.55 706.98 1011.45 706.98 1014.96C706.98 1018.42 708.27 1021.41 710.848 1023.93C713.426 1026.45 716.707 1027.71 720.691 1027.71C725.145 1027.71 729.393 1026.24 733.436 1023.31C736.424 1021.09 738.387 1018.36 739.324 1015.14C739.969 1013.03 740.291 1009.02 740.291 1003.1V998.176ZM812.625 1043H787.928V949.66H810.867V962.932C814.793 956.662 818.309 952.531 821.414 950.539C824.578 948.547 828.152 947.551 832.137 947.551C837.762 947.551 843.182 949.104 848.396 952.209L840.75 973.742C836.59 971.047 832.723 969.699 829.148 969.699C825.691 969.699 822.762 970.666 820.359 972.6C817.957 974.475 816.053 977.902 814.646 982.883C813.299 987.863 812.625 998.293 812.625 1014.17V1043ZM944.725 1043H921.785V1029.29C917.977 1034.62 913.465 1038.61 908.25 1041.24C903.094 1043.82 897.879 1045.11 892.605 1045.11C881.883 1045.11 872.684 1040.8 865.008 1032.19C857.391 1023.52 853.582 1011.45 853.582 995.979C853.582 980.158 857.303 968.146 864.744 959.943C872.186 951.682 881.59 947.551 892.957 947.551C903.387 947.551 912.41 951.887 920.027 960.559V914.152H944.725V1043ZM878.807 994.309C878.807 1004.27 880.184 1011.48 882.938 1015.93C886.922 1022.38 892.488 1025.6 899.637 1025.6C905.32 1025.6 910.154 1023.2 914.139 1018.39C918.123 1013.53 920.115 1006.29 920.115 996.682C920.115 985.959 918.182 978.254 914.314 973.566C910.447 968.82 905.496 966.447 899.461 966.447C893.602 966.447 888.68 968.791 884.695 973.479C880.77 978.107 878.807 985.051 878.807 994.309ZM1013.54 995.012C1013.54 986.809 1015.56 978.869 1019.61 971.193C1023.65 963.518 1029.36 957.658 1036.75 953.615C1044.19 949.572 1052.48 947.551 1061.62 947.551C1075.74 947.551 1087.31 952.15 1096.34 961.35C1105.36 970.49 1109.87 982.062 1109.87 996.066C1109.87 1010.19 1105.3 1021.91 1096.16 1031.22C1087.08 1040.48 1075.62 1045.11 1061.79 1045.11C1053.24 1045.11 1045.07 1043.18 1037.27 1039.31C1029.54 1035.44 1023.65 1029.79 1019.61 1022.35C1015.56 1014.85 1013.54 1005.73 1013.54 995.012ZM1038.86 996.33C1038.86 1005.59 1041.05 1012.68 1045.45 1017.6C1049.84 1022.52 1055.26 1024.98 1061.71 1024.98C1068.15 1024.98 1073.54 1022.52 1077.88 1017.6C1082.27 1012.68 1084.47 1005.53 1084.47 996.154C1084.47 987.014 1082.27 979.982 1077.88 975.061C1073.54 970.139 1068.15 967.678 1061.71 967.678C1055.26 967.678 1049.84 970.139 1045.45 975.061C1041.05 979.982 1038.86 987.072 1038.86 996.33ZM1118.48 949.66H1132.2V942.629C1132.2 934.777 1133.02 928.918 1134.66 925.051C1136.36 921.184 1139.43 918.049 1143.88 915.646C1148.4 913.186 1154.08 911.955 1160.94 911.955C1167.97 911.955 1174.85 913.01 1181.59 915.119L1178.25 932.346C1174.32 931.408 1170.54 930.939 1166.91 930.939C1163.34 930.939 1160.76 931.789 1159.18 933.488C1157.65 935.129 1156.89 938.322 1156.89 943.068V949.66H1175.35V969.084H1156.89V1043H1132.2V969.084H1118.48V949.66ZM1234.24 979.367C1234.24 966.242 1236.2 955.227 1240.12 946.32C1243.05 939.758 1247.04 933.869 1252.08 928.654C1257.18 923.439 1262.74 919.572 1268.78 917.053C1276.8 913.654 1286.06 911.955 1296.55 911.955C1315.54 911.955 1330.71 917.844 1342.08 929.621C1353.5 941.398 1359.22 957.775 1359.22 978.752C1359.22 999.553 1353.56 1015.84 1342.25 1027.62C1330.95 1039.34 1315.83 1045.2 1296.9 1045.2C1277.74 1045.2 1262.51 1039.37 1251.2 1027.71C1239.89 1015.99 1234.24 999.875 1234.24 979.367ZM1261.04 978.488C1261.04 993.078 1264.41 1004.15 1271.15 1011.71C1277.89 1019.21 1286.44 1022.96 1296.81 1022.96C1307.19 1022.96 1315.68 1019.24 1322.3 1011.8C1328.98 1004.3 1332.32 993.078 1332.32 978.137C1332.32 963.371 1329.07 952.355 1322.57 945.09C1316.12 937.824 1307.54 934.191 1296.81 934.191C1286.09 934.191 1277.45 937.883 1270.89 945.266C1264.32 952.59 1261.04 963.664 1261.04 978.488ZM1369.5 1043V1023.75L1404.48 983.586C1410.22 977.023 1414.47 972.365 1417.22 969.611C1414.35 969.787 1410.57 969.904 1405.89 969.963L1372.93 970.139V949.66H1450.1V967.15L1414.41 1008.28L1401.84 1021.91C1408.7 1021.5 1412.95 1021.29 1414.59 1021.29H1452.82V1043H1369.5Z" fill="#FEFAFA"/>
<path d="M71.9336 1715V1660.77L24.7363 1586.15H55.2344L85.5566 1637.13L115.264 1586.15H145.234L97.8613 1660.95V1715H71.9336ZM138.906 1667.01C138.906 1658.81 140.928 1650.87 144.971 1643.19C149.014 1635.52 154.727 1629.66 162.109 1625.62C169.551 1621.57 177.842 1619.55 186.982 1619.55C201.104 1619.55 212.676 1624.15 221.699 1633.35C230.723 1642.49 235.234 1654.06 235.234 1668.07C235.234 1682.19 230.664 1693.91 221.523 1703.22C212.441 1712.48 200.986 1717.11 187.158 1717.11C178.604 1717.11 170.43 1715.18 162.637 1711.31C154.902 1707.44 149.014 1701.79 144.971 1694.35C140.928 1686.85 138.906 1677.73 138.906 1667.01ZM164.219 1668.33C164.219 1677.59 166.416 1684.68 170.811 1689.6C175.205 1694.52 180.625 1696.98 187.07 1696.98C193.516 1696.98 198.906 1694.52 203.242 1689.6C207.637 1684.68 209.834 1677.53 209.834 1668.15C209.834 1659.01 207.637 1651.98 203.242 1647.06C198.906 1642.14 193.516 1639.68 187.07 1639.68C180.625 1639.68 175.205 1642.14 170.811 1647.06C166.416 1651.98 164.219 1659.07 164.219 1668.33ZM316.094 1715V1701.03C312.695 1706.01 308.213 1709.93 302.646 1712.8C297.139 1715.67 291.309 1717.11 285.156 1717.11C278.887 1717.11 273.262 1715.73 268.281 1712.98C263.301 1710.22 259.697 1706.36 257.471 1701.38C255.244 1696.4 254.131 1689.51 254.131 1680.72V1621.66H278.828V1664.55C278.828 1677.68 279.268 1685.73 280.146 1688.72C281.084 1691.65 282.754 1693.99 285.156 1695.75C287.559 1697.45 290.605 1698.3 294.297 1698.3C298.516 1698.3 302.295 1697.16 305.635 1694.87C308.975 1692.53 311.26 1689.66 312.49 1686.26C313.721 1682.8 314.336 1674.39 314.336 1661.04V1621.66H339.033V1715H316.094ZM408.379 1673.08L433.691 1670.62C435.215 1679.11 438.291 1685.35 442.92 1689.34C447.607 1693.32 453.906 1695.31 461.816 1695.31C470.195 1695.31 476.494 1693.55 480.713 1690.04C484.99 1686.46 487.129 1682.3 487.129 1677.56C487.129 1674.51 486.221 1671.93 484.404 1669.82C482.646 1667.66 479.541 1665.78 475.088 1664.2C472.041 1663.14 465.098 1661.27 454.258 1658.57C440.312 1655.12 430.527 1650.87 424.902 1645.83C416.992 1638.74 413.037 1630.1 413.037 1619.9C413.037 1613.34 414.883 1607.22 418.574 1601.53C422.324 1595.79 427.686 1591.43 434.658 1588.44C441.689 1585.45 450.156 1583.96 460.059 1583.96C476.23 1583.96 488.389 1587.5 496.533 1594.59C504.736 1601.68 509.043 1611.14 509.453 1622.98L483.438 1624.12C482.324 1617.5 479.922 1612.75 476.23 1609.88C472.598 1606.95 467.119 1605.49 459.795 1605.49C452.236 1605.49 446.318 1607.04 442.041 1610.15C439.287 1612.14 437.91 1614.8 437.91 1618.14C437.91 1621.19 439.199 1623.8 441.777 1625.97C445.059 1628.72 453.027 1631.59 465.684 1634.58C478.34 1637.57 487.686 1640.67 493.721 1643.9C499.814 1647.06 504.561 1651.43 507.959 1656.99C511.416 1662.5 513.145 1669.33 513.145 1677.47C513.145 1684.85 511.094 1691.77 506.992 1698.21C502.891 1704.66 497.09 1709.46 489.59 1712.63C482.09 1715.73 472.744 1717.29 461.553 1717.29C445.264 1717.29 432.754 1713.54 424.023 1706.04C415.293 1698.48 410.078 1687.49 408.379 1673.08ZM588.906 1685.29L613.516 1689.42C610.352 1698.45 605.342 1705.33 598.486 1710.08C591.689 1714.77 583.164 1717.11 572.91 1717.11C556.68 1717.11 544.668 1711.81 536.875 1701.2C530.723 1692.71 527.646 1681.98 527.646 1669.03C527.646 1653.56 531.689 1641.46 539.775 1632.73C547.861 1623.95 558.086 1619.55 570.449 1619.55C584.336 1619.55 595.293 1624.15 603.32 1633.35C611.348 1642.49 615.186 1656.52 614.834 1675.45H552.959C553.135 1682.77 555.127 1688.49 558.936 1692.59C562.744 1696.63 567.49 1698.65 573.174 1698.65C577.041 1698.65 580.293 1697.6 582.93 1695.49C585.566 1693.38 587.559 1689.98 588.906 1685.29ZM590.312 1660.33C590.137 1653.18 588.291 1647.76 584.775 1644.07C581.26 1640.32 576.982 1638.45 571.943 1638.45C566.553 1638.45 562.1 1640.41 558.584 1644.34C555.068 1648.26 553.34 1653.59 553.398 1660.33H590.312ZM689.102 1685.29L713.711 1689.42C710.547 1698.45 705.537 1705.33 698.682 1710.08C691.885 1714.77 683.359 1717.11 673.105 1717.11C656.875 1717.11 644.863 1711.81 637.07 1701.2C630.918 1692.71 627.842 1681.98 627.842 1669.03C627.842 1653.56 631.885 1641.46 639.971 1632.73C648.057 1623.95 658.281 1619.55 670.645 1619.55C684.531 1619.55 695.488 1624.15 703.516 1633.35C711.543 1642.49 715.381 1656.52 715.029 1675.45H653.154C653.33 1682.77 655.322 1688.49 659.131 1692.59C662.939 1696.63 667.686 1698.65 673.369 1698.65C677.236 1698.65 680.488 1697.6 683.125 1695.49C685.762 1693.38 687.754 1689.98 689.102 1685.29ZM690.508 1660.33C690.332 1653.18 688.486 1647.76 684.971 1644.07C681.455 1640.32 677.178 1638.45 672.139 1638.45C666.748 1638.45 662.295 1640.41 658.779 1644.34C655.264 1648.26 653.535 1653.59 653.594 1660.33H690.508ZM785.166 1715V1586.15H824.102L847.48 1674.04L870.596 1586.15H909.619V1715H885.449V1613.57L859.873 1715H834.824L809.336 1613.57V1715H785.166ZM989.336 1685.29L1013.95 1689.42C1010.78 1698.45 1005.77 1705.33 998.916 1710.08C992.119 1714.77 983.594 1717.11 973.34 1717.11C957.109 1717.11 945.098 1711.81 937.305 1701.2C931.152 1692.71 928.076 1681.98 928.076 1669.03C928.076 1653.56 932.119 1641.46 940.205 1632.73C948.291 1623.95 958.516 1619.55 970.879 1619.55C984.766 1619.55 995.723 1624.15 1003.75 1633.35C1011.78 1642.49 1015.62 1656.52 1015.26 1675.45H953.389C953.564 1682.77 955.557 1688.49 959.365 1692.59C963.174 1696.63 967.92 1698.65 973.604 1698.65C977.471 1698.65 980.723 1697.6 983.359 1695.49C985.996 1693.38 987.988 1689.98 989.336 1685.29ZM990.742 1660.33C990.566 1653.18 988.721 1647.76 985.205 1644.07C981.689 1640.32 977.412 1638.45 972.373 1638.45C966.982 1638.45 962.529 1640.41 959.014 1644.34C955.498 1648.26 953.77 1653.59 953.828 1660.33H990.742Z" fill="#FEFAFA"/>
<path d="M93.0371 2364.63V2342.92H149.111V2394.25C143.662 2399.52 135.752 2404.18 125.381 2408.22C115.068 2412.21 104.609 2414.2 94.0039 2414.2C80.5273 2414.2 68.7793 2411.38 58.7598 2405.76C48.7402 2400.08 41.2109 2391.99 36.1719 2381.5C31.1328 2370.96 28.6133 2359.5 28.6133 2347.14C28.6133 2333.72 31.4258 2321.79 37.0508 2311.37C42.6758 2300.94 50.9082 2292.94 61.748 2287.37C70.0098 2283.09 80.293 2280.96 92.5977 2280.96C108.594 2280.96 121.074 2284.32 130.039 2291.06C139.062 2297.74 144.863 2307 147.441 2318.84L121.602 2323.67C119.785 2317.34 116.357 2312.36 111.318 2308.73C106.338 2305.04 100.098 2303.19 92.5977 2303.19C81.2305 2303.19 72.1777 2306.79 65.4395 2314C58.7598 2321.21 55.4199 2331.9 55.4199 2346.08C55.4199 2361.38 58.8184 2372.86 65.6152 2380.54C72.4121 2388.15 81.3184 2391.96 92.334 2391.96C97.7832 2391.96 103.232 2390.91 108.682 2388.8C114.189 2386.63 118.906 2384.02 122.832 2380.97V2364.63H93.0371ZM167.305 2364.01C167.305 2355.81 169.326 2347.87 173.369 2340.19C177.412 2332.52 183.125 2326.66 190.508 2322.62C197.949 2318.57 206.24 2316.55 215.381 2316.55C229.502 2316.55 241.074 2321.15 250.098 2330.35C259.121 2339.49 263.633 2351.06 263.633 2365.07C263.633 2379.19 259.062 2390.91 249.922 2400.22C240.84 2409.48 229.385 2414.11 215.557 2414.11C207.002 2414.11 198.828 2412.18 191.035 2408.31C183.301 2404.44 177.412 2398.79 173.369 2391.35C169.326 2383.85 167.305 2374.73 167.305 2364.01ZM192.617 2365.33C192.617 2374.59 194.814 2381.68 199.209 2386.6C203.604 2391.52 209.023 2393.98 215.469 2393.98C221.914 2393.98 227.305 2391.52 231.641 2386.6C236.035 2381.68 238.232 2374.53 238.232 2365.15C238.232 2356.01 236.035 2348.98 231.641 2344.06C227.305 2339.14 221.914 2336.68 215.469 2336.68C209.023 2336.68 203.604 2339.14 199.209 2344.06C194.814 2348.98 192.617 2356.07 192.617 2365.33ZM367.959 2412H343.262V2364.36C343.262 2354.29 342.734 2347.78 341.68 2344.85C340.625 2341.86 338.896 2339.55 336.494 2337.91C334.15 2336.27 331.309 2335.45 327.969 2335.45C323.691 2335.45 319.854 2336.62 316.455 2338.96C313.057 2341.31 310.713 2344.41 309.424 2348.28C308.193 2352.15 307.578 2359.29 307.578 2369.72V2412H282.881V2318.66H305.82V2332.37C313.965 2321.82 324.219 2316.55 336.582 2316.55C342.031 2316.55 347.012 2317.55 351.523 2319.54C356.035 2321.47 359.434 2323.96 361.719 2327.01C364.062 2330.06 365.674 2333.51 366.553 2337.38C367.49 2341.25 367.959 2346.79 367.959 2353.99V2412ZM447.148 2382.29L471.758 2386.42C468.594 2395.45 463.584 2402.33 456.729 2407.08C449.932 2411.77 441.406 2414.11 431.152 2414.11C414.922 2414.11 402.91 2408.81 395.117 2398.2C388.965 2389.71 385.889 2378.98 385.889 2366.03C385.889 2350.56 389.932 2338.46 398.018 2329.73C406.104 2320.95 416.328 2316.55 428.691 2316.55C442.578 2316.55 453.535 2321.15 461.562 2330.35C469.59 2339.49 473.428 2353.52 473.076 2372.45H411.201C411.377 2379.77 413.369 2385.49 417.178 2389.59C420.986 2393.63 425.732 2395.65 431.416 2395.65C435.283 2395.65 438.535 2394.6 441.172 2392.49C443.809 2390.38 445.801 2386.98 447.148 2382.29ZM448.555 2357.33C448.379 2350.18 446.533 2344.76 443.018 2341.07C439.502 2337.32 435.225 2335.45 430.186 2335.45C424.795 2335.45 420.342 2337.41 416.826 2341.34C413.311 2345.26 411.582 2350.59 411.641 2357.33H448.555ZM560.791 2412L531.26 2318.66H555.254L572.744 2379.83L588.828 2318.66H612.646L628.203 2379.83L646.045 2318.66H670.391L640.42 2412H616.689L600.605 2351.97L584.785 2412H560.791ZM683.486 2306V2283.15H708.184V2306H683.486ZM683.486 2412V2318.66H708.184V2412H683.486ZM776.387 2318.66V2338.35H759.512V2375.96C759.512 2383.58 759.658 2388.04 759.951 2389.32C760.303 2390.55 761.035 2391.58 762.148 2392.4C763.32 2393.22 764.727 2393.63 766.367 2393.63C768.652 2393.63 771.963 2392.84 776.299 2391.26L778.408 2410.42C772.666 2412.88 766.162 2414.11 758.896 2414.11C754.443 2414.11 750.43 2413.38 746.855 2411.91C743.281 2410.39 740.645 2408.46 738.945 2406.11C737.305 2403.71 736.162 2400.49 735.518 2396.44C734.99 2393.57 734.727 2387.77 734.727 2379.04V2338.35H723.389V2318.66H734.727V2300.12L759.512 2285.7V2318.66H776.387ZM818.135 2283.15V2330.53C826.104 2321.21 835.625 2316.55 846.699 2316.55C852.383 2316.55 857.51 2317.61 862.08 2319.71C866.65 2321.82 870.078 2324.52 872.363 2327.8C874.707 2331.08 876.289 2334.71 877.109 2338.7C877.988 2342.68 878.428 2348.87 878.428 2357.24V2412H853.73V2362.69C853.73 2352.91 853.262 2346.7 852.324 2344.06C851.387 2341.42 849.717 2339.34 847.314 2337.82C844.971 2336.24 842.012 2335.45 838.438 2335.45C834.336 2335.45 830.674 2336.44 827.451 2338.44C824.229 2340.43 821.855 2343.45 820.332 2347.49C818.867 2351.47 818.135 2357.39 818.135 2365.24V2412H793.438V2283.15H818.135ZM996.465 2318.66V2338.35H979.59V2375.96C979.59 2383.58 979.736 2388.04 980.029 2389.32C980.381 2390.55 981.113 2391.58 982.227 2392.4C983.398 2393.22 984.805 2393.63 986.445 2393.63C988.73 2393.63 992.041 2392.84 996.377 2391.26L998.486 2410.42C992.744 2412.88 986.24 2414.11 978.975 2414.11C974.521 2414.11 970.508 2413.38 966.934 2411.91C963.359 2410.39 960.723 2408.46 959.023 2406.11C957.383 2403.71 956.24 2400.49 955.596 2396.44C955.068 2393.57 954.805 2387.77 954.805 2379.04V2338.35H943.467V2318.66H954.805V2300.12L979.59 2285.7V2318.66H996.465ZM1038.21 2283.15V2330.53C1046.18 2321.21 1055.7 2316.55 1066.78 2316.55C1072.46 2316.55 1077.59 2317.61 1082.16 2319.71C1086.73 2321.82 1090.16 2324.52 1092.44 2327.8C1094.79 2331.08 1096.37 2334.71 1097.19 2338.7C1098.07 2342.68 1098.51 2348.87 1098.51 2357.24V2412H1073.81V2362.69C1073.81 2352.91 1073.34 2346.7 1072.4 2344.06C1071.46 2341.42 1069.79 2339.34 1067.39 2337.82C1065.05 2336.24 1062.09 2335.45 1058.52 2335.45C1054.41 2335.45 1050.75 2336.44 1047.53 2338.44C1044.31 2340.43 1041.93 2343.45 1040.41 2347.49C1038.95 2351.47 1038.21 2357.39 1038.21 2365.24V2412H1013.52V2283.15H1038.21ZM1177.7 2382.29L1202.3 2386.42C1199.14 2395.45 1194.13 2402.33 1187.28 2407.08C1180.48 2411.77 1171.95 2414.11 1161.7 2414.11C1145.47 2414.11 1133.46 2408.81 1125.66 2398.2C1119.51 2389.71 1116.44 2378.98 1116.44 2366.03C1116.44 2350.56 1120.48 2338.46 1128.56 2329.73C1136.65 2320.95 1146.88 2316.55 1159.24 2316.55C1173.12 2316.55 1184.08 2321.15 1192.11 2330.35C1200.14 2339.49 1203.97 2353.52 1203.62 2372.45H1141.75C1141.92 2379.77 1143.92 2385.49 1147.72 2389.59C1151.53 2393.63 1156.28 2395.65 1161.96 2395.65C1165.83 2395.65 1169.08 2394.6 1171.72 2392.49C1174.36 2390.38 1176.35 2386.98 1177.7 2382.29ZM1179.1 2357.33C1178.93 2350.18 1177.08 2344.76 1173.56 2341.07C1170.05 2337.32 1165.77 2335.45 1160.73 2335.45C1155.34 2335.45 1150.89 2337.41 1147.37 2341.34C1143.86 2345.26 1142.13 2350.59 1142.19 2357.33H1179.1ZM1292.39 2412L1261.63 2283.15H1288.26L1307.69 2371.66L1331.24 2283.15H1362.18L1384.77 2373.15L1404.54 2283.15H1430.73L1399.44 2412H1371.85L1346.18 2315.67L1320.61 2412H1292.39ZM1442.33 2306V2283.15H1467.03V2306H1442.33ZM1442.33 2412V2318.66H1467.03V2412H1442.33ZM1577.33 2412H1552.64V2364.36C1552.64 2354.29 1552.11 2347.78 1551.05 2344.85C1550 2341.86 1548.27 2339.55 1545.87 2337.91C1543.53 2336.27 1540.68 2335.45 1537.34 2335.45C1533.07 2335.45 1529.23 2336.62 1525.83 2338.96C1522.43 2341.31 1520.09 2344.41 1518.8 2348.28C1517.57 2352.15 1516.95 2359.29 1516.95 2369.72V2412H1492.26V2318.66H1515.2V2332.37C1523.34 2321.82 1533.59 2316.55 1545.96 2316.55C1551.41 2316.55 1556.39 2317.55 1560.9 2319.54C1565.41 2321.47 1568.81 2323.96 1571.09 2327.01C1573.44 2330.06 1575.05 2333.51 1575.93 2337.38C1576.87 2341.25 1577.33 2346.79 1577.33 2353.99V2412ZM1688.08 2412H1665.14V2398.29C1661.33 2403.62 1656.82 2407.61 1651.6 2410.24C1646.45 2412.82 1641.23 2414.11 1635.96 2414.11C1625.23 2414.11 1616.04 2409.8 1608.36 2401.19C1600.74 2392.52 1596.93 2380.45 1596.93 2364.98C1596.93 2349.16 1600.65 2337.15 1608.1 2328.94C1615.54 2320.68 1624.94 2316.55 1636.31 2316.55C1646.74 2316.55 1655.76 2320.89 1663.38 2329.56V2283.15H1688.08V2412ZM1622.16 2363.31C1622.16 2373.27 1623.54 2380.48 1626.29 2384.93C1630.27 2391.38 1635.84 2394.6 1642.99 2394.6C1648.67 2394.6 1653.51 2392.2 1657.49 2387.39C1661.47 2382.53 1663.47 2375.29 1663.47 2365.68C1663.47 2354.96 1661.53 2347.25 1657.67 2342.57C1653.8 2337.82 1648.85 2335.45 1642.81 2335.45C1636.95 2335.45 1632.03 2337.79 1628.05 2342.48C1624.12 2347.11 1622.16 2354.05 1622.16 2363.31Z" fill="#FEFAFA"/>
<path d="M67.0996 3078V2970.95H28.8672V2949.15H131.26V2970.95H93.1152V3078H67.0996ZM161.582 3078H136.885V2984.66H159.824V2997.93C163.75 2991.66 167.266 2987.53 170.371 2985.54C173.535 2983.55 177.109 2982.55 181.094 2982.55C186.719 2982.55 192.139 2984.1 197.354 2987.21L189.707 3008.74C185.547 3006.05 181.68 3004.7 178.105 3004.7C174.648 3004.7 171.719 3005.67 169.316 3007.6C166.914 3009.47 165.01 3012.9 163.604 3017.88C162.256 3022.86 161.582 3033.29 161.582 3049.17V3078ZM202.363 3030.01C202.363 3021.81 204.385 3013.87 208.428 3006.19C212.471 2998.52 218.184 2992.66 225.566 2988.62C233.008 2984.57 241.299 2982.55 250.439 2982.55C264.561 2982.55 276.133 2987.15 285.156 2996.35C294.18 3005.49 298.691 3017.06 298.691 3031.07C298.691 3045.19 294.121 3056.91 284.98 3066.22C275.898 3075.48 264.443 3080.11 250.615 3080.11C242.061 3080.11 233.887 3078.18 226.094 3074.31C218.359 3070.44 212.471 3064.79 208.428 3057.35C204.385 3049.85 202.363 3040.73 202.363 3030.01ZM227.676 3031.33C227.676 3040.59 229.873 3047.68 234.268 3052.6C238.662 3057.52 244.082 3059.98 250.527 3059.98C256.973 3059.98 262.363 3057.52 266.699 3052.6C271.094 3047.68 273.291 3040.53 273.291 3031.15C273.291 3022.01 271.094 3014.98 266.699 3010.06C262.363 3005.14 256.973 3002.68 250.527 3002.68C244.082 3002.68 238.662 3005.14 234.268 3010.06C229.873 3014.98 227.676 3022.07 227.676 3031.33ZM379.551 3078V3064.03C376.152 3069.01 371.67 3072.93 366.104 3075.8C360.596 3078.67 354.766 3080.11 348.613 3080.11C342.344 3080.11 336.719 3078.73 331.738 3075.98C326.758 3073.22 323.154 3069.36 320.928 3064.38C318.701 3059.4 317.588 3052.51 317.588 3043.72V2984.66H342.285V3027.55C342.285 3040.68 342.725 3048.73 343.604 3051.72C344.541 3054.65 346.211 3056.99 348.613 3058.75C351.016 3060.45 354.062 3061.3 357.754 3061.3C361.973 3061.3 365.752 3060.16 369.092 3057.87C372.432 3055.53 374.717 3052.66 375.947 3049.26C377.178 3045.8 377.793 3037.39 377.793 3024.04V2984.66H402.49V3078H379.551ZM427.1 3078V2949.15H451.797V2995.56C459.414 2986.89 468.438 2982.55 478.867 2982.55C490.234 2982.55 499.639 2986.68 507.08 2994.94C514.521 3003.15 518.242 3014.95 518.242 3030.36C518.242 3046.3 514.434 3058.58 506.816 3067.19C499.258 3075.8 490.059 3080.11 479.219 3080.11C473.887 3080.11 468.613 3078.79 463.398 3076.15C458.242 3073.46 453.789 3069.5 450.039 3064.29V3078H427.1ZM451.621 3029.31C451.621 3038.98 453.145 3046.12 456.191 3050.75C460.469 3057.32 466.152 3060.6 473.242 3060.6C478.691 3060.6 483.32 3058.28 487.129 3053.65C490.996 3048.97 492.93 3041.61 492.93 3031.59C492.93 3020.93 490.996 3013.25 487.129 3008.57C483.262 3003.82 478.311 3001.45 472.275 3001.45C466.357 3001.45 461.436 3003.76 457.51 3008.39C453.584 3012.96 451.621 3019.93 451.621 3029.31ZM538.193 3078V2949.15H562.891V3078H538.193ZM642.344 3048.29L666.953 3052.42C663.789 3061.45 658.779 3068.33 651.924 3073.08C645.127 3077.77 636.602 3080.11 626.348 3080.11C610.117 3080.11 598.105 3074.81 590.312 3064.2C584.16 3055.71 581.084 3044.98 581.084 3032.03C581.084 3016.56 585.127 3004.46 593.213 2995.73C601.299 2986.95 611.523 2982.55 623.887 2982.55C637.773 2982.55 648.73 2987.15 656.758 2996.35C664.785 3005.49 668.623 3019.52 668.271 3038.45H606.396C606.572 3045.77 608.564 3051.49 612.373 3055.59C616.182 3059.63 620.928 3061.65 626.611 3061.65C630.479 3061.65 633.73 3060.6 636.367 3058.49C639.004 3056.38 640.996 3052.98 642.344 3048.29ZM643.75 3023.33C643.574 3016.18 641.729 3010.76 638.213 3007.07C634.697 3003.32 630.42 3001.45 625.381 3001.45C619.99 3001.45 615.537 3003.41 612.021 3007.34C608.506 3011.26 606.777 3016.59 606.836 3023.33H643.75ZM738.584 2972V2949.15H763.281V2972H738.584ZM738.584 3078V2984.66H763.281V3078H738.584ZM873.584 3078H848.887V3030.36C848.887 3020.29 848.359 3013.78 847.305 3010.85C846.25 3007.86 844.521 3005.55 842.119 3003.91C839.775 3002.27 836.934 3001.45 833.594 3001.45C829.316 3001.45 825.479 3002.62 822.08 3004.96C818.682 3007.31 816.338 3010.41 815.049 3014.28C813.818 3018.15 813.203 3025.29 813.203 3035.72V3078H788.506V2984.66H811.445V2998.37C819.59 2987.82 829.844 2982.55 842.207 2982.55C847.656 2982.55 852.637 2983.55 857.148 2985.54C861.66 2987.47 865.059 2989.96 867.344 2993.01C869.688 2996.06 871.299 2999.51 872.178 3003.38C873.115 3007.25 873.584 3012.79 873.584 3019.99V3078ZM948.994 3078V2949.15H990.742C1006.56 2949.15 1016.88 2949.8 1021.68 2951.09C1029.06 2953.02 1035.24 2957.24 1040.22 2963.74C1045.21 2970.19 1047.7 2978.54 1047.7 2988.79C1047.7 2996.7 1046.26 3003.35 1043.39 3008.74C1040.52 3014.13 1036.86 3018.38 1032.4 3021.49C1028.01 3024.53 1023.53 3026.55 1018.96 3027.55C1012.74 3028.78 1003.75 3029.4 991.973 3029.4H975.01V3078H948.994ZM975.01 2970.95V3007.51H989.248C999.502 3007.51 1006.36 3006.84 1009.81 3005.49C1013.27 3004.14 1015.97 3002.03 1017.9 2999.16C1019.89 2996.29 1020.89 2992.95 1020.89 2989.14C1020.89 2984.46 1019.51 2980.59 1016.76 2977.54C1014 2974.49 1010.52 2972.59 1006.3 2971.83C1003.19 2971.24 996.953 2970.95 987.578 2970.95H975.01ZM1087.33 3013.14L1064.92 3009.09C1067.44 3000.07 1071.78 2993.39 1077.93 2989.05C1084.08 2984.72 1093.22 2982.55 1105.35 2982.55C1116.37 2982.55 1124.57 2983.87 1129.96 2986.51C1135.35 2989.08 1139.13 2992.39 1141.3 2996.44C1143.53 3000.42 1144.64 3007.78 1144.64 3018.5L1144.38 3047.33C1144.38 3055.53 1144.76 3061.59 1145.52 3065.52C1146.34 3069.39 1147.83 3073.55 1150 3078H1125.57C1124.92 3076.36 1124.13 3073.93 1123.19 3070.71C1122.78 3069.24 1122.49 3068.27 1122.31 3067.8C1118.1 3071.91 1113.58 3074.98 1108.78 3077.03C1103.97 3079.08 1098.85 3080.11 1093.4 3080.11C1083.79 3080.11 1076.2 3077.5 1070.63 3072.29C1065.13 3067.07 1062.37 3060.48 1062.37 3052.51C1062.37 3047.24 1063.63 3042.55 1066.15 3038.45C1068.67 3034.29 1072.19 3031.12 1076.7 3028.96C1081.27 3026.73 1087.83 3024.8 1096.39 3023.16C1107.93 3020.99 1115.93 3018.97 1120.38 3017.09V3014.63C1120.38 3009.88 1119.21 3006.52 1116.87 3004.52C1114.52 3002.47 1110.1 3001.45 1103.59 3001.45C1099.2 3001.45 1095.77 3002.33 1093.31 3004.08C1090.85 3005.78 1088.86 3008.8 1087.33 3013.14ZM1120.38 3033.18C1117.22 3034.23 1112.21 3035.49 1105.35 3036.96C1098.5 3038.42 1094.01 3039.86 1091.9 3041.26C1088.68 3043.55 1087.07 3046.45 1087.07 3049.96C1087.07 3053.42 1088.36 3056.41 1090.94 3058.93C1093.52 3061.45 1096.8 3062.71 1100.78 3062.71C1105.23 3062.71 1109.48 3061.24 1113.53 3058.31C1116.51 3056.09 1118.48 3053.36 1119.41 3050.14C1120.06 3048.03 1120.38 3044.02 1120.38 3038.1V3033.18ZM1192.71 3078H1168.02V2984.66H1190.96V2997.93C1194.88 2991.66 1198.4 2987.53 1201.5 2985.54C1204.67 2983.55 1208.24 2982.55 1212.23 2982.55C1217.85 2982.55 1223.27 2984.1 1228.49 2987.21L1220.84 3008.74C1216.68 3006.05 1212.81 3004.7 1209.24 3004.7C1205.78 3004.7 1202.85 3005.67 1200.45 3007.6C1198.05 3009.47 1196.14 3012.9 1194.74 3017.88C1193.39 3022.86 1192.71 3033.29 1192.71 3049.17V3078ZM1257.67 3013.14L1235.25 3009.09C1237.77 3000.07 1242.11 2993.39 1248.26 2989.05C1254.41 2984.72 1263.55 2982.55 1275.68 2982.55C1286.7 2982.55 1294.9 2983.87 1300.29 2986.51C1305.68 2989.08 1309.46 2992.39 1311.63 2996.44C1313.86 3000.42 1314.97 3007.78 1314.97 3018.5L1314.71 3047.33C1314.71 3055.53 1315.09 3061.59 1315.85 3065.52C1316.67 3069.39 1318.16 3073.55 1320.33 3078H1295.9C1295.25 3076.36 1294.46 3073.93 1293.53 3070.71C1293.12 3069.24 1292.82 3068.27 1292.65 3067.8C1288.43 3071.91 1283.92 3074.98 1279.11 3077.03C1274.31 3079.08 1269.18 3080.11 1263.73 3080.11C1254.12 3080.11 1246.53 3077.5 1240.97 3072.29C1235.46 3067.07 1232.71 3060.48 1232.71 3052.51C1232.71 3047.24 1233.96 3042.55 1236.48 3038.45C1239 3034.29 1242.52 3031.12 1247.03 3028.96C1251.6 3026.73 1258.16 3024.8 1266.72 3023.16C1278.26 3020.99 1286.26 3018.97 1290.71 3017.09V3014.63C1290.71 3009.88 1289.54 3006.52 1287.2 3004.52C1284.85 3002.47 1280.43 3001.45 1273.93 3001.45C1269.53 3001.45 1266.1 3002.33 1263.64 3004.08C1261.18 3005.78 1259.19 3008.8 1257.67 3013.14ZM1290.71 3033.18C1287.55 3034.23 1282.54 3035.49 1275.68 3036.96C1268.83 3038.42 1264.35 3039.86 1262.24 3041.26C1259.01 3043.55 1257.4 3046.45 1257.4 3049.96C1257.4 3053.42 1258.69 3056.41 1261.27 3058.93C1263.85 3061.45 1267.13 3062.71 1271.11 3062.71C1275.57 3062.71 1279.81 3061.24 1283.86 3058.31C1286.85 3056.09 1288.81 3053.36 1289.75 3050.14C1290.39 3048.03 1290.71 3044.02 1290.71 3038.1V3033.18ZM1425.01 3078H1402.07V3064.29C1398.26 3069.62 1393.75 3073.61 1388.54 3076.24C1383.38 3078.82 1378.16 3080.11 1372.89 3080.11C1362.17 3080.11 1352.97 3075.8 1345.29 3067.19C1337.68 3058.52 1333.87 3046.45 1333.87 3030.98C1333.87 3015.16 1337.59 3003.15 1345.03 2994.94C1352.47 2986.68 1361.88 2982.55 1373.24 2982.55C1383.67 2982.55 1392.7 2986.89 1400.31 2995.56V2949.15H1425.01V3078ZM1359.09 3029.31C1359.09 3039.27 1360.47 3046.48 1363.22 3050.93C1367.21 3057.38 1372.77 3060.6 1379.92 3060.6C1385.61 3060.6 1390.44 3058.2 1394.42 3053.39C1398.41 3048.53 1400.4 3041.29 1400.4 3031.68C1400.4 3020.96 1398.47 3013.25 1394.6 3008.57C1390.73 3003.82 1385.78 3001.45 1379.75 3001.45C1373.89 3001.45 1368.96 3003.79 1364.98 3008.48C1361.05 3013.11 1359.09 3020.05 1359.09 3029.31ZM1449.44 2972V2949.15H1474.14V2972H1449.44ZM1449.44 3078V2984.66H1474.14V3078H1449.44ZM1490.84 3051.37L1515.62 3047.59C1516.68 3052.39 1518.82 3056.06 1522.04 3058.58C1525.26 3061.04 1529.78 3062.27 1535.58 3062.27C1541.96 3062.27 1546.77 3061.1 1549.99 3058.75C1552.16 3057.11 1553.24 3054.91 1553.24 3052.16C1553.24 3050.29 1552.66 3048.73 1551.48 3047.5C1550.25 3046.33 1547.5 3045.25 1543.22 3044.25C1523.3 3039.86 1510.67 3035.84 1505.34 3032.21C1497.96 3027.17 1494.27 3020.17 1494.27 3011.2C1494.27 3003.12 1497.46 2996.32 1503.85 2990.81C1510.23 2985.3 1520.14 2982.55 1533.55 2982.55C1546.33 2982.55 1555.82 2984.63 1562.03 2988.79C1568.24 2992.95 1572.52 2999.1 1574.86 3007.25L1551.57 3011.55C1550.58 3007.92 1548.67 3005.14 1545.86 3003.21C1543.11 3001.27 1539.15 3000.3 1533.99 3000.3C1527.49 3000.3 1522.83 3001.21 1520.02 3003.03C1518.14 3004.32 1517.21 3005.99 1517.21 3008.04C1517.21 3009.8 1518.03 3011.29 1519.67 3012.52C1521.89 3014.16 1529.57 3016.48 1542.7 3019.46C1555.88 3022.45 1565.08 3026.12 1570.29 3030.45C1575.45 3034.85 1578.03 3040.97 1578.03 3048.82C1578.03 3057.38 1574.45 3064.73 1567.3 3070.88C1560.16 3077.03 1549.58 3080.11 1535.58 3080.11C1522.86 3080.11 1512.78 3077.53 1505.34 3072.38C1497.96 3067.22 1493.12 3060.22 1490.84 3051.37ZM1653.79 3048.29L1678.4 3052.42C1675.23 3061.45 1670.22 3068.33 1663.37 3073.08C1656.57 3077.77 1648.05 3080.11 1637.79 3080.11C1621.56 3080.11 1609.55 3074.81 1601.76 3064.2C1595.61 3055.71 1592.53 3044.98 1592.53 3032.03C1592.53 3016.56 1596.57 3004.46 1604.66 2995.73C1612.74 2986.95 1622.97 2982.55 1635.33 2982.55C1649.22 2982.55 1660.18 2987.15 1668.2 2996.35C1676.23 3005.49 1680.07 3019.52 1679.72 3038.45H1617.84C1618.02 3045.77 1620.01 3051.49 1623.82 3055.59C1627.63 3059.63 1632.37 3061.65 1638.06 3061.65C1641.92 3061.65 1645.18 3060.6 1647.81 3058.49C1650.45 3056.38 1652.44 3052.98 1653.79 3048.29ZM1655.2 3023.33C1655.02 3016.18 1653.17 3010.76 1649.66 3007.07C1646.14 3003.32 1641.87 3001.45 1636.83 3001.45C1631.44 3001.45 1626.98 3003.41 1623.47 3007.34C1619.95 3011.26 1618.22 3016.59 1618.28 3023.33H1655.2Z" fill="#FEFAFA"/>
<path d="M67.0996 3691V3583.95H28.8672V3562.15H131.26V3583.95H93.1152V3691H67.0996ZM172.568 3562.15V3609.53C180.537 3600.21 190.059 3595.55 201.133 3595.55C206.816 3595.55 211.943 3596.61 216.514 3598.71C221.084 3600.82 224.512 3603.52 226.797 3606.8C229.141 3610.08 230.723 3613.71 231.543 3617.7C232.422 3621.68 232.861 3627.87 232.861 3636.24V3691H208.164V3641.69C208.164 3631.91 207.695 3625.7 206.758 3623.06C205.82 3620.42 204.15 3618.34 201.748 3616.82C199.404 3615.24 196.445 3614.45 192.871 3614.45C188.77 3614.45 185.107 3615.44 181.885 3617.44C178.662 3619.43 176.289 3622.45 174.766 3626.49C173.301 3630.47 172.568 3636.39 172.568 3644.24V3691H147.871V3562.15H172.568ZM312.051 3661.29L336.66 3665.42C333.496 3674.45 328.486 3681.33 321.631 3686.08C314.834 3690.77 306.309 3693.11 296.055 3693.11C279.824 3693.11 267.812 3687.81 260.02 3677.2C253.867 3668.71 250.791 3657.98 250.791 3645.03C250.791 3629.56 254.834 3617.46 262.92 3608.73C271.006 3599.95 281.23 3595.55 293.594 3595.55C307.48 3595.55 318.438 3600.15 326.465 3609.35C334.492 3618.49 338.33 3632.52 337.979 3651.45H276.104C276.279 3658.77 278.271 3664.49 282.08 3668.59C285.889 3672.63 290.635 3674.65 296.318 3674.65C300.186 3674.65 303.438 3673.6 306.074 3671.49C308.711 3669.38 310.703 3665.98 312.051 3661.29ZM313.457 3636.33C313.281 3629.18 311.436 3623.76 307.92 3620.07C304.404 3616.32 300.127 3614.45 295.088 3614.45C289.697 3614.45 285.244 3616.41 281.729 3620.34C278.213 3624.26 276.484 3629.59 276.543 3636.33H313.457ZM437.471 3691V3583.95H399.238V3562.15H501.631V3583.95H463.486V3691H437.471ZM542.939 3562.15V3609.53C550.908 3600.21 560.43 3595.55 571.504 3595.55C577.188 3595.55 582.314 3596.61 586.885 3598.71C591.455 3600.82 594.883 3603.52 597.168 3606.8C599.512 3610.08 601.094 3613.71 601.914 3617.7C602.793 3621.68 603.232 3627.87 603.232 3636.24V3691H578.535V3641.69C578.535 3631.91 578.066 3625.7 577.129 3623.06C576.191 3620.42 574.521 3618.34 572.119 3616.82C569.775 3615.24 566.816 3614.45 563.242 3614.45C559.141 3614.45 555.479 3615.44 552.256 3617.44C549.033 3619.43 546.66 3622.45 545.137 3626.49C543.672 3630.47 542.939 3636.39 542.939 3644.24V3691H518.242V3562.15H542.939ZM628.369 3585V3562.15H653.066V3585H628.369ZM628.369 3691V3597.66H653.066V3691H628.369ZM763.369 3691H738.672V3643.36C738.672 3633.29 738.145 3626.78 737.09 3623.85C736.035 3620.86 734.307 3618.55 731.904 3616.91C729.561 3615.27 726.719 3614.45 723.379 3614.45C719.102 3614.45 715.264 3615.62 711.865 3617.96C708.467 3620.31 706.123 3623.41 704.834 3627.28C703.604 3631.15 702.988 3638.29 702.988 3648.72V3691H678.291V3597.66H701.23V3611.37C709.375 3600.82 719.629 3595.55 731.992 3595.55C737.441 3595.55 742.422 3596.55 746.934 3598.54C751.445 3600.47 754.844 3602.96 757.129 3606.01C759.473 3609.06 761.084 3612.51 761.963 3616.38C762.9 3620.25 763.369 3625.79 763.369 3632.99V3691ZM838.428 3691V3562.15H877.363L900.742 3650.04L923.857 3562.15H962.881V3691H938.711V3589.57L913.135 3691H888.086L862.598 3589.57V3691H838.428ZM1007 3626.14L984.59 3622.09C987.109 3613.07 991.445 3606.39 997.598 3602.05C1003.75 3597.72 1012.89 3595.55 1025.02 3595.55C1036.04 3595.55 1044.24 3596.87 1049.63 3599.51C1055.02 3602.08 1058.8 3605.39 1060.97 3609.44C1063.19 3613.42 1064.31 3620.78 1064.31 3631.5L1064.04 3660.33C1064.04 3668.53 1064.42 3674.59 1065.19 3678.52C1066.01 3682.39 1067.5 3686.55 1069.67 3691H1045.23C1044.59 3689.36 1043.8 3686.93 1042.86 3683.71C1042.45 3682.24 1042.16 3681.27 1041.98 3680.8C1037.76 3684.91 1033.25 3687.98 1028.45 3690.03C1023.64 3692.08 1018.52 3693.11 1013.07 3693.11C1003.46 3693.11 995.869 3690.5 990.303 3685.29C984.795 3680.07 982.041 3673.48 982.041 3665.51C982.041 3660.24 983.301 3655.55 985.82 3651.45C988.34 3647.29 991.855 3644.12 996.367 3641.96C1000.94 3639.73 1007.5 3637.8 1016.05 3636.16C1027.6 3633.99 1035.6 3631.97 1040.05 3630.09V3627.63C1040.05 3622.88 1038.88 3619.52 1036.53 3617.52C1034.19 3615.47 1029.77 3614.45 1023.26 3614.45C1018.87 3614.45 1015.44 3615.33 1012.98 3617.08C1010.52 3618.78 1008.53 3621.8 1007 3626.14ZM1040.05 3646.18C1036.88 3647.23 1031.88 3648.49 1025.02 3649.96C1018.16 3651.42 1013.68 3652.86 1011.57 3654.26C1008.35 3656.55 1006.74 3659.45 1006.74 3662.96C1006.74 3666.42 1008.03 3669.41 1010.61 3671.93C1013.18 3674.45 1016.46 3675.71 1020.45 3675.71C1024.9 3675.71 1029.15 3674.24 1033.19 3671.31C1036.18 3669.09 1038.14 3666.36 1039.08 3663.14C1039.73 3661.03 1040.05 3657.02 1040.05 3651.1V3646.18ZM1173.64 3691H1148.95V3643.36C1148.95 3633.29 1148.42 3626.78 1147.36 3623.85C1146.31 3620.86 1144.58 3618.55 1142.18 3616.91C1139.83 3615.27 1136.99 3614.45 1133.65 3614.45C1129.38 3614.45 1125.54 3615.62 1122.14 3617.96C1118.74 3620.31 1116.4 3623.41 1115.11 3627.28C1113.88 3631.15 1113.26 3638.29 1113.26 3648.72V3691H1088.56V3597.66H1111.5V3611.37C1119.65 3600.82 1129.9 3595.55 1142.27 3595.55C1147.71 3595.55 1152.7 3596.55 1157.21 3598.54C1161.72 3600.47 1165.12 3602.96 1167.4 3606.01C1169.75 3609.06 1171.36 3612.51 1172.24 3616.38C1173.17 3620.25 1173.64 3625.79 1173.64 3632.99V3691Z" fill="#FEFAFA"/>
<path d="M32.3047 4505V4376.15H58.3203V4505H32.3047ZM125.82 4411.66V4431.35H108.945V4468.96C108.945 4476.58 109.092 4481.04 109.385 4482.32C109.736 4483.55 110.469 4484.58 111.582 4485.4C112.754 4486.22 114.16 4486.63 115.801 4486.63C118.086 4486.63 121.396 4485.84 125.732 4484.26L127.842 4503.42C122.1 4505.88 115.596 4507.11 108.33 4507.11C103.877 4507.11 99.8633 4506.38 96.2891 4504.91C92.7148 4503.39 90.0781 4501.46 88.3789 4499.11C86.7383 4496.71 85.5957 4493.49 84.9512 4489.44C84.4238 4486.57 84.1602 4480.77 84.1602 4472.04V4431.35H72.8223V4411.66H84.1602V4393.12L108.945 4378.7V4411.66H125.82ZM193.32 4505V4376.15H219.336V4426.87H270.312V4376.15H296.328V4505H270.312V4448.66H219.336V4505H193.32ZM341.592 4440.14L319.18 4436.09C321.699 4427.07 326.035 4420.39 332.188 4416.05C338.34 4411.72 347.48 4409.55 359.609 4409.55C370.625 4409.55 378.828 4410.87 384.219 4413.51C389.609 4416.08 393.389 4419.39 395.557 4423.44C397.783 4427.42 398.896 4434.78 398.896 4445.5L398.633 4474.33C398.633 4482.53 399.014 4488.59 399.775 4492.52C400.596 4496.39 402.09 4500.55 404.258 4505H379.824C379.18 4503.36 378.389 4500.93 377.451 4497.71C377.041 4496.24 376.748 4495.27 376.572 4494.8C372.354 4498.91 367.842 4501.98 363.037 4504.03C358.232 4506.08 353.105 4507.11 347.656 4507.11C338.047 4507.11 330.459 4504.5 324.893 4499.29C319.385 4494.07 316.631 4487.48 316.631 4479.51C316.631 4474.24 317.891 4469.55 320.41 4465.45C322.93 4461.29 326.445 4458.12 330.957 4455.96C335.527 4453.73 342.09 4451.8 350.645 4450.16C362.188 4447.99 370.186 4445.97 374.639 4444.09V4441.63C374.639 4436.88 373.467 4433.52 371.123 4431.52C368.779 4429.47 364.355 4428.45 357.852 4428.45C353.457 4428.45 350.029 4429.33 347.568 4431.08C345.107 4432.78 343.115 4435.8 341.592 4440.14ZM374.639 4460.18C371.475 4461.23 366.465 4462.49 359.609 4463.96C352.754 4465.42 348.271 4466.86 346.162 4468.26C342.939 4470.55 341.328 4473.45 341.328 4476.96C341.328 4480.42 342.617 4483.41 345.195 4485.93C347.773 4488.45 351.055 4489.71 355.039 4489.71C359.492 4489.71 363.74 4488.24 367.783 4485.31C370.771 4483.09 372.734 4480.36 373.672 4477.14C374.316 4475.03 374.639 4471.02 374.639 4465.1V4460.18ZM422.627 4411.66H445.654V4425.37C448.643 4420.68 452.686 4416.88 457.783 4413.95C462.881 4411.02 468.535 4409.55 474.746 4409.55C485.586 4409.55 494.785 4413.8 502.344 4422.29C509.902 4430.79 513.682 4442.63 513.682 4457.8C513.682 4473.39 509.873 4485.52 502.256 4494.19C494.639 4502.8 485.41 4507.11 474.57 4507.11C469.414 4507.11 464.727 4506.08 460.508 4504.03C456.348 4501.98 451.953 4498.47 447.324 4493.49V4540.51H422.627V4411.66ZM447.061 4456.75C447.061 4467.24 449.141 4475 453.301 4480.04C457.461 4485.02 462.529 4487.51 468.506 4487.51C474.248 4487.51 479.023 4485.22 482.832 4480.65C486.641 4476.03 488.545 4468.47 488.545 4457.98C488.545 4448.19 486.582 4440.93 482.656 4436.18C478.73 4431.44 473.867 4429.06 468.066 4429.06C462.031 4429.06 457.021 4431.41 453.037 4436.09C449.053 4440.72 447.061 4447.61 447.061 4456.75ZM532.666 4411.66H555.693V4425.37C558.682 4420.68 562.725 4416.88 567.822 4413.95C572.92 4411.02 578.574 4409.55 584.785 4409.55C595.625 4409.55 604.824 4413.8 612.383 4422.29C619.941 4430.79 623.721 4442.63 623.721 4457.8C623.721 4473.39 619.912 4485.52 612.295 4494.19C604.678 4502.8 595.449 4507.11 584.609 4507.11C579.453 4507.11 574.766 4506.08 570.547 4504.03C566.387 4501.98 561.992 4498.47 557.363 4493.49V4540.51H532.666V4411.66ZM557.1 4456.75C557.1 4467.24 559.18 4475 563.34 4480.04C567.5 4485.02 572.568 4487.51 578.545 4487.51C584.287 4487.51 589.062 4485.22 592.871 4480.65C596.68 4476.03 598.584 4468.47 598.584 4457.98C598.584 4448.19 596.621 4440.93 592.695 4436.18C588.77 4431.44 583.906 4429.06 578.105 4429.06C572.07 4429.06 567.061 4431.41 563.076 4436.09C559.092 4440.72 557.1 4447.61 557.1 4456.75ZM697.461 4475.29L722.07 4479.42C718.906 4488.45 713.896 4495.33 707.041 4500.08C700.244 4504.77 691.719 4507.11 681.465 4507.11C665.234 4507.11 653.223 4501.81 645.43 4491.2C639.277 4482.71 636.201 4471.98 636.201 4459.03C636.201 4443.56 640.244 4431.46 648.33 4422.73C656.416 4413.95 666.641 4409.55 679.004 4409.55C692.891 4409.55 703.848 4414.15 711.875 4423.35C719.902 4432.49 723.74 4446.52 723.389 4465.45H661.514C661.689 4472.77 663.682 4478.49 667.49 4482.59C671.299 4486.63 676.045 4488.65 681.729 4488.65C685.596 4488.65 688.848 4487.6 691.484 4485.49C694.121 4483.38 696.113 4479.98 697.461 4475.29ZM698.867 4450.33C698.691 4443.18 696.846 4437.76 693.33 4434.07C689.814 4430.32 685.537 4428.45 680.498 4428.45C675.107 4428.45 670.654 4430.41 667.139 4434.34C663.623 4438.26 661.895 4443.59 661.953 4450.33H698.867ZM828.506 4505H803.809V4457.36C803.809 4447.29 803.281 4440.78 802.227 4437.85C801.172 4434.86 799.443 4432.55 797.041 4430.91C794.697 4429.27 791.855 4428.45 788.516 4428.45C784.238 4428.45 780.4 4429.62 777.002 4431.96C773.604 4434.31 771.26 4437.41 769.971 4441.28C768.74 4445.15 768.125 4452.29 768.125 4462.72V4505H743.428V4411.66H766.367V4425.37C774.512 4414.82 784.766 4409.55 797.129 4409.55C802.578 4409.55 807.559 4410.55 812.07 4412.54C816.582 4414.47 819.98 4416.96 822.266 4420.01C824.609 4423.06 826.221 4426.51 827.1 4430.38C828.037 4434.25 828.506 4439.79 828.506 4446.99V4505ZM907.695 4475.29L932.305 4479.42C929.141 4488.45 924.131 4495.33 917.275 4500.08C910.479 4504.77 901.953 4507.11 891.699 4507.11C875.469 4507.11 863.457 4501.81 855.664 4491.2C849.512 4482.71 846.436 4471.98 846.436 4459.03C846.436 4443.56 850.479 4431.46 858.564 4422.73C866.65 4413.95 876.875 4409.55 889.238 4409.55C903.125 4409.55 914.082 4414.15 922.109 4423.35C930.137 4432.49 933.975 4446.52 933.623 4465.45H871.748C871.924 4472.77 873.916 4478.49 877.725 4482.59C881.533 4486.63 886.279 4488.65 891.963 4488.65C895.83 4488.65 899.082 4487.6 901.719 4485.49C904.355 4483.38 906.348 4479.98 907.695 4475.29ZM909.102 4450.33C908.926 4443.18 907.08 4437.76 903.564 4434.07C900.049 4430.32 895.771 4428.45 890.732 4428.45C885.342 4428.45 880.889 4430.41 877.373 4434.34C873.857 4438.26 872.129 4443.59 872.188 4450.33H909.102ZM1039.44 4505H1016.5V4491.29C1012.7 4496.62 1008.18 4500.61 1002.97 4503.24C997.812 4505.82 992.598 4507.11 987.324 4507.11C976.602 4507.11 967.402 4502.8 959.727 4494.19C952.109 4485.52 948.301 4473.45 948.301 4457.98C948.301 4442.16 952.021 4430.15 959.463 4421.94C966.904 4413.68 976.309 4409.55 987.676 4409.55C998.105 4409.55 1007.13 4413.89 1014.75 4422.56V4376.15H1039.44V4505ZM973.525 4456.31C973.525 4466.27 974.902 4473.48 977.656 4477.93C981.641 4484.38 987.207 4487.6 994.355 4487.6C1000.04 4487.6 1004.87 4485.2 1008.86 4480.39C1012.84 4475.53 1014.83 4468.29 1014.83 4458.68C1014.83 4447.96 1012.9 4440.25 1009.03 4435.57C1005.17 4430.82 1000.21 4428.45 994.18 4428.45C988.32 4428.45 983.398 4430.79 979.414 4435.48C975.488 4440.11 973.525 4447.05 973.525 4456.31ZM1108.88 4441.37C1108.88 4428.24 1110.84 4417.23 1114.77 4408.32C1117.7 4401.76 1121.68 4395.87 1126.72 4390.65C1131.82 4385.44 1137.38 4381.57 1143.42 4379.05C1151.45 4375.65 1160.7 4373.96 1171.19 4373.96C1190.18 4373.96 1205.35 4379.84 1216.72 4391.62C1228.14 4403.4 1233.86 4419.78 1233.86 4440.75C1233.86 4461.55 1228.2 4477.84 1216.89 4489.62C1205.59 4501.34 1190.47 4507.2 1171.54 4507.2C1152.38 4507.2 1137.15 4501.37 1125.84 4489.71C1114.53 4477.99 1108.88 4461.88 1108.88 4441.37ZM1135.68 4440.49C1135.68 4455.08 1139.05 4466.15 1145.79 4473.71C1152.53 4481.21 1161.08 4484.96 1171.46 4484.96C1181.83 4484.96 1190.32 4481.24 1196.94 4473.8C1203.62 4466.3 1206.96 4455.08 1206.96 4440.14C1206.96 4425.37 1203.71 4414.36 1197.21 4407.09C1190.76 4399.82 1182.18 4396.19 1171.46 4396.19C1160.73 4396.19 1152.09 4399.88 1145.53 4407.27C1138.96 4414.59 1135.68 4425.66 1135.68 4440.49ZM1338.97 4505H1314.28V4457.36C1314.28 4447.29 1313.75 4440.78 1312.7 4437.85C1311.64 4434.86 1309.91 4432.55 1307.51 4430.91C1305.17 4429.27 1302.32 4428.45 1298.98 4428.45C1294.71 4428.45 1290.87 4429.62 1287.47 4431.96C1284.07 4434.31 1281.73 4437.41 1280.44 4441.28C1279.21 4445.15 1278.59 4452.29 1278.59 4462.72V4505H1253.9V4411.66H1276.84V4425.37C1284.98 4414.82 1295.23 4409.55 1307.6 4409.55C1313.05 4409.55 1318.03 4410.55 1322.54 4412.54C1327.05 4414.47 1330.45 4416.96 1332.73 4420.01C1335.08 4423.06 1336.69 4426.51 1337.57 4430.38C1338.51 4434.25 1338.97 4439.79 1338.97 4446.99V4505ZM1418.16 4475.29L1442.77 4479.42C1439.61 4488.45 1434.6 4495.33 1427.74 4500.08C1420.95 4504.77 1412.42 4507.11 1402.17 4507.11C1385.94 4507.11 1373.93 4501.81 1366.13 4491.2C1359.98 4482.71 1356.9 4471.98 1356.9 4459.03C1356.9 4443.56 1360.95 4431.46 1369.03 4422.73C1377.12 4413.95 1387.34 4409.55 1399.71 4409.55C1413.59 4409.55 1424.55 4414.15 1432.58 4423.35C1440.61 4432.49 1444.44 4446.52 1444.09 4465.45H1382.22C1382.39 4472.77 1384.38 4478.49 1388.19 4482.59C1392 4486.63 1396.75 4488.65 1402.43 4488.65C1406.3 4488.65 1409.55 4487.6 1412.19 4485.49C1414.82 4483.38 1416.82 4479.98 1418.16 4475.29ZM1419.57 4450.33C1419.39 4443.18 1417.55 4437.76 1414.03 4434.07C1410.52 4430.32 1406.24 4428.45 1401.2 4428.45C1395.81 4428.45 1391.36 4430.41 1387.84 4434.34C1384.33 4438.26 1382.6 4443.59 1382.66 4450.33H1419.57ZM1514.84 4505V4376.15H1540.16L1592.89 4462.2V4376.15H1617.06V4505H1590.96L1539.01 4420.98V4505H1514.84ZM1644.48 4399V4376.15H1669.18V4399H1644.48ZM1644.48 4505V4411.66H1669.18V4505H1644.48ZM1692.29 4511.15L1720.51 4514.58C1720.98 4517.86 1722.06 4520.12 1723.76 4521.35C1726.1 4523.11 1729.79 4523.98 1734.83 4523.98C1741.28 4523.98 1746.11 4523.02 1749.34 4521.08C1751.5 4519.79 1753.14 4517.71 1754.26 4514.84C1755.02 4512.79 1755.4 4509.01 1755.4 4503.51V4489.88C1748.02 4499.96 1738.7 4505 1727.45 4505C1714.91 4505 1704.98 4499.7 1697.66 4489.09C1691.91 4480.71 1689.04 4470.28 1689.04 4457.8C1689.04 4442.16 1692.79 4430.21 1700.29 4421.94C1707.85 4413.68 1717.23 4409.55 1728.42 4409.55C1739.96 4409.55 1749.48 4414.62 1756.98 4424.76V4411.66H1780.1V4495.42C1780.1 4506.44 1779.19 4514.67 1777.37 4520.12C1775.56 4525.57 1773.01 4529.84 1769.73 4532.95C1766.45 4536.05 1762.05 4538.49 1756.54 4540.24C1751.09 4542 1744.18 4542.88 1735.8 4542.88C1719.98 4542.88 1708.76 4540.16 1702.14 4534.71C1695.52 4529.32 1692.21 4522.46 1692.21 4514.14C1692.21 4513.32 1692.24 4512.32 1692.29 4511.15ZM1714.36 4456.4C1714.36 4466.3 1716.26 4473.56 1720.07 4478.19C1723.94 4482.76 1728.68 4485.05 1734.31 4485.05C1740.34 4485.05 1745.44 4482.71 1749.6 4478.02C1753.76 4473.27 1755.84 4466.27 1755.84 4457.01C1755.84 4447.34 1753.85 4440.17 1749.86 4435.48C1745.88 4430.79 1740.84 4428.45 1734.75 4428.45C1728.83 4428.45 1723.94 4430.76 1720.07 4435.39C1716.26 4439.96 1714.36 4446.96 1714.36 4456.4ZM1829.23 4376.15V4423.53C1837.2 4414.21 1846.72 4409.55 1857.79 4409.55C1863.48 4409.55 1868.6 4410.61 1873.17 4412.71C1877.74 4414.82 1881.17 4417.52 1883.46 4420.8C1885.8 4424.08 1887.38 4427.71 1888.2 4431.7C1889.08 4435.68 1889.52 4441.87 1889.52 4450.24V4505H1864.82V4455.69C1864.82 4445.91 1864.36 4439.7 1863.42 4437.06C1862.48 4434.42 1860.81 4432.34 1858.41 4430.82C1856.06 4429.24 1853.11 4428.45 1849.53 4428.45C1845.43 4428.45 1841.77 4429.44 1838.54 4431.44C1835.32 4433.43 1832.95 4436.45 1831.43 4440.49C1829.96 4444.47 1829.23 4450.39 1829.23 4458.24V4505H1804.53V4376.15H1829.23ZM1957.46 4411.66V4431.35H1940.59V4468.96C1940.59 4476.58 1940.73 4481.04 1941.03 4482.32C1941.38 4483.55 1942.11 4484.58 1943.22 4485.4C1944.39 4486.22 1945.8 4486.63 1947.44 4486.63C1949.73 4486.63 1953.04 4485.84 1957.37 4484.26L1959.48 4503.42C1953.74 4505.88 1947.24 4507.11 1939.97 4507.11C1935.52 4507.11 1931.5 4506.38 1927.93 4504.91C1924.36 4503.39 1921.72 4501.46 1920.02 4499.11C1918.38 4496.71 1917.24 4493.49 1916.59 4489.44C1916.06 4486.57 1915.8 4480.77 1915.8 4472.04V4431.35H1904.46V4411.66H1915.8V4393.12L1940.59 4378.7V4411.66H1957.46Z" fill="#FEFAFA"/>
</svg>
