<svg width="2456" height="4643" viewBox="0 0 2456 4643" fill="none" xmlns="http://www.w3.org/2000/svg">
<circle cx="2206" cy="250" r="250" fill="#FF0000"/>
<circle cx="2206" cy="1598" r="250" fill="#66CC66"/>
<circle cx="2206" cy="917" r="250" fill="#FF6600"/>
<circle cx="2206" cy="2279" r="250" fill="#FFFF00"/>
<circle cx="2206" cy="4282" r="250" fill="#996633"/>
<circle cx="2206" cy="3601" r="250" fill="#33ADFF"/>
<circle cx="2206" cy="2920" r="250" fill="#CC00FF"/>
<path d="M93.7988 207V79.207H119.814V185.291H184.502V207H93.7988ZM257.012 177.293L281.621 181.424C278.457 190.447 273.447 197.332 266.592 202.078C259.795 206.766 251.27 209.109 241.016 209.109C224.785 209.109 212.773 203.807 204.98 193.201C198.828 184.705 195.752 173.982 195.752 161.033C195.752 145.564 199.795 133.465 207.881 124.734C215.967 115.945 226.191 111.551 238.555 111.551C252.441 111.551 263.398 116.15 271.426 125.35C279.453 134.49 283.291 148.523 282.939 167.449H221.064C221.24 174.773 223.232 180.486 227.041 184.588C230.85 188.631 235.596 190.652 241.279 190.652C245.146 190.652 248.398 189.598 251.035 187.488C253.672 185.379 255.664 181.98 257.012 177.293ZM258.418 152.332C258.242 145.184 256.396 139.764 252.881 136.072C249.365 132.322 245.088 130.447 240.049 130.447C234.658 130.447 230.205 132.41 226.689 136.336C223.174 140.262 221.445 145.594 221.504 152.332H258.418ZM382.432 207V99.9492H344.199V78.1523H446.592V99.9492H408.447V207H382.432ZM476.914 207H452.217V113.66H475.156V126.932C479.082 120.662 482.598 116.531 485.703 114.539C488.867 112.547 492.441 111.551 496.426 111.551C502.051 111.551 507.471 113.104 512.686 116.209L505.039 137.742C500.879 135.047 497.012 133.699 493.438 133.699C489.98 133.699 487.051 134.666 484.648 136.6C482.246 138.475 480.342 141.902 478.936 146.883C477.588 151.863 476.914 162.293 476.914 178.172V207ZM517.695 159.012C517.695 150.809 519.717 142.869 523.76 135.193C527.803 127.518 533.516 121.658 540.898 117.615C548.34 113.572 556.631 111.551 565.771 111.551C579.893 111.551 591.465 116.15 600.488 125.35C609.512 134.49 614.023 146.062 614.023 160.066C614.023 174.188 609.453 185.906 600.312 195.223C591.23 204.48 579.775 209.109 565.947 209.109C557.393 209.109 549.219 207.176 541.426 203.309C533.691 199.441 527.803 193.787 523.76 186.346C519.717 178.846 517.695 169.734 517.695 159.012ZM543.008 160.33C543.008 169.588 545.205 176.678 549.6 181.6C553.994 186.521 559.414 188.982 565.859 188.982C572.305 188.982 577.695 186.521 582.031 181.6C586.426 176.678 588.623 169.529 588.623 160.154C588.623 151.014 586.426 143.982 582.031 139.061C577.695 134.139 572.305 131.678 565.859 131.678C559.414 131.678 553.994 134.139 549.6 139.061C545.205 143.982 543.008 151.072 543.008 160.33ZM694.883 207V193.025C691.484 198.006 687.002 201.932 681.436 204.803C675.928 207.674 670.098 209.109 663.945 209.109C657.676 209.109 652.051 207.732 647.07 204.979C642.09 202.225 638.486 198.357 636.26 193.377C634.033 188.396 632.92 181.512 632.92 172.723V113.66H657.617V156.551C657.617 169.676 658.057 177.732 658.936 180.721C659.873 183.65 661.543 185.994 663.945 187.752C666.348 189.451 669.395 190.301 673.086 190.301C677.305 190.301 681.084 189.158 684.424 186.873C687.764 184.529 690.049 181.658 691.279 178.26C692.51 174.803 693.125 166.395 693.125 153.035V113.66H717.822V207H694.883Z" fill="#FEFAFA"/>
<path d="M79.4473 1024V895.152H105.463V952.369L158.021 895.152H193.002L144.486 945.338L195.639 1024H161.977L126.557 963.531L105.463 985.064V1024H79.4473ZM270.434 1024V1010.03C267.035 1015.01 262.553 1018.93 256.986 1021.8C251.479 1024.67 245.648 1026.11 239.496 1026.11C233.227 1026.11 227.602 1024.73 222.621 1021.98C217.641 1019.22 214.037 1015.36 211.811 1010.38C209.584 1005.4 208.471 998.512 208.471 989.723V930.66H233.168V973.551C233.168 986.676 233.607 994.732 234.486 997.721C235.424 1000.65 237.094 1002.99 239.496 1004.75C241.898 1006.45 244.945 1007.3 248.637 1007.3C252.855 1007.3 256.635 1006.16 259.975 1003.87C263.314 1001.53 265.6 998.658 266.83 995.26C268.061 991.803 268.676 983.395 268.676 970.035V930.66H293.373V1024H270.434ZM403.939 1024H379.242V976.363C379.242 966.285 378.715 959.781 377.66 956.852C376.605 953.863 374.877 951.549 372.475 949.908C370.131 948.268 367.289 947.447 363.949 947.447C359.672 947.447 355.834 948.619 352.436 950.963C349.037 953.307 346.693 956.412 345.404 960.279C344.174 964.146 343.559 971.295 343.559 981.725V1024H318.861V930.66H341.801V944.371C349.945 933.824 360.199 928.551 372.562 928.551C378.012 928.551 382.992 929.547 387.504 931.539C392.016 933.473 395.414 935.963 397.699 939.01C400.043 942.057 401.654 945.514 402.533 949.381C403.471 953.248 403.939 958.785 403.939 965.992V1024ZM426.791 1030.15L455.004 1033.58C455.473 1036.86 456.557 1039.12 458.256 1040.35C460.6 1042.11 464.291 1042.98 469.33 1042.98C475.775 1042.98 480.609 1042.02 483.832 1040.08C486 1038.79 487.641 1036.71 488.754 1033.84C489.516 1031.79 489.896 1028.01 489.896 1022.51V1008.88C482.514 1018.96 473.197 1024 461.947 1024C449.408 1024 439.477 1018.7 432.152 1008.09C426.41 999.713 423.539 989.283 423.539 976.803C423.539 961.158 427.289 949.205 434.789 940.943C442.348 932.682 451.723 928.551 462.914 928.551C474.457 928.551 483.979 933.619 491.479 943.756V930.66H514.594V1014.42C514.594 1025.44 513.686 1033.67 511.869 1039.12C510.053 1044.57 507.504 1048.84 504.223 1051.95C500.941 1055.05 496.547 1057.49 491.039 1059.24C485.59 1061 478.676 1061.88 470.297 1061.88C454.477 1061.88 443.256 1059.16 436.635 1053.71C430.014 1048.32 426.703 1041.46 426.703 1033.14C426.703 1032.32 426.732 1031.32 426.791 1030.15ZM448.852 975.396C448.852 985.299 450.756 992.564 454.564 997.193C458.432 1001.76 463.178 1004.05 468.803 1004.05C474.838 1004.05 479.936 1001.71 484.096 997.018C488.256 992.271 490.336 985.27 490.336 976.012C490.336 966.344 488.344 959.166 484.359 954.479C480.375 949.791 475.336 947.447 469.242 947.447C463.324 947.447 458.432 949.762 454.564 954.391C450.756 958.961 448.852 965.963 448.852 975.396ZM589.564 1024V895.152H677.895V916.949H615.58V947.447H669.369V969.244H615.58V1024H589.564ZM760.688 1024V1010.03C757.289 1015.01 752.807 1018.93 747.24 1021.8C741.732 1024.67 735.902 1026.11 729.75 1026.11C723.48 1026.11 717.855 1024.73 712.875 1021.98C707.895 1019.22 704.291 1015.36 702.064 1010.38C699.838 1005.4 698.725 998.512 698.725 989.723V930.66H723.422V973.551C723.422 986.676 723.861 994.732 724.74 997.721C725.678 1000.65 727.348 1002.99 729.75 1004.75C732.152 1006.45 735.199 1007.3 738.891 1007.3C743.109 1007.3 746.889 1006.16 750.229 1003.87C753.568 1001.53 755.854 998.658 757.084 995.26C758.314 991.803 758.93 983.395 758.93 970.035V930.66H783.627V1024H760.688ZM832.934 1024H808.236V930.66H831.176V943.932C835.102 937.662 838.617 933.531 841.723 931.539C844.887 929.547 848.461 928.551 852.445 928.551C858.07 928.551 863.49 930.104 868.705 933.209L861.059 954.742C856.898 952.047 853.031 950.699 849.457 950.699C846 950.699 843.07 951.666 840.668 953.6C838.266 955.475 836.361 958.902 834.955 963.883C833.607 968.863 832.934 979.293 832.934 995.172V1024ZM867.738 930.66H894.018L916.342 996.93L938.139 930.66H963.715L930.756 1020.48L924.867 1036.74C922.699 1042.19 920.619 1046.35 918.627 1049.22C916.693 1052.1 914.438 1054.41 911.859 1056.17C909.34 1057.98 906.205 1059.39 902.455 1060.39C898.764 1061.38 894.574 1061.88 889.887 1061.88C885.141 1061.88 880.482 1061.38 875.912 1060.39L873.715 1041.05C877.582 1041.81 881.068 1042.19 884.174 1042.19C889.916 1042.19 894.164 1040.49 896.918 1037.1C899.672 1033.76 901.781 1029.48 903.246 1024.26L867.738 930.66Z" fill="#FEFAFA"/>
<path d="M93.1836 1627V1498.15H147.939C161.709 1498.15 171.699 1499.32 177.91 1501.67C184.18 1503.95 189.189 1508.05 192.939 1513.97C196.689 1519.89 198.564 1526.66 198.564 1534.28C198.564 1543.94 195.723 1551.94 190.039 1558.27C184.355 1564.54 175.859 1568.49 164.551 1570.13C170.176 1573.42 174.805 1577.02 178.438 1580.95C182.129 1584.87 187.08 1591.84 193.291 1601.86L209.023 1627H177.91L159.102 1598.96C152.422 1588.94 147.852 1582.64 145.391 1580.07C142.93 1577.43 140.322 1575.64 137.568 1574.71C134.814 1573.71 130.449 1573.21 124.473 1573.21H119.199V1627H93.1836ZM119.199 1552.64H138.447C150.928 1552.64 158.721 1552.12 161.826 1551.06C164.932 1550.01 167.363 1548.19 169.121 1545.61C170.879 1543.04 171.758 1539.81 171.758 1535.95C171.758 1531.61 170.586 1528.12 168.242 1525.49C165.957 1522.79 162.705 1521.09 158.486 1520.39C156.377 1520.1 150.049 1519.95 139.502 1519.95H119.199V1552.64ZM217.285 1579.01C217.285 1570.81 219.307 1562.87 223.35 1555.19C227.393 1547.52 233.105 1541.66 240.488 1537.62C247.93 1533.57 256.221 1531.55 265.361 1531.55C279.482 1531.55 291.055 1536.15 300.078 1545.35C309.102 1554.49 313.613 1566.06 313.613 1580.07C313.613 1594.19 309.043 1605.91 299.902 1615.22C290.82 1624.48 279.365 1629.11 265.537 1629.11C256.982 1629.11 248.809 1627.18 241.016 1623.31C233.281 1619.44 227.393 1613.79 223.35 1606.35C219.307 1598.85 217.285 1589.73 217.285 1579.01ZM242.598 1580.33C242.598 1589.59 244.795 1596.68 249.189 1601.6C253.584 1606.52 259.004 1608.98 265.449 1608.98C271.895 1608.98 277.285 1606.52 281.621 1601.6C286.016 1596.68 288.213 1589.53 288.213 1580.15C288.213 1571.01 286.016 1563.98 281.621 1559.06C277.285 1554.14 271.895 1551.68 265.449 1551.68C259.004 1551.68 253.584 1554.14 249.189 1559.06C244.795 1563.98 242.598 1571.07 242.598 1580.33ZM332.334 1533.66H355.361V1547.37C358.35 1542.68 362.393 1538.88 367.49 1535.95C372.588 1533.02 378.242 1531.55 384.453 1531.55C395.293 1531.55 404.492 1535.8 412.051 1544.29C419.609 1552.79 423.389 1564.63 423.389 1579.8C423.389 1595.39 419.58 1607.52 411.963 1616.19C404.346 1624.8 395.117 1629.11 384.277 1629.11C379.121 1629.11 374.434 1628.08 370.215 1626.03C366.055 1623.98 361.66 1620.47 357.031 1615.49V1662.51H332.334V1533.66ZM356.768 1578.75C356.768 1589.24 358.848 1597 363.008 1602.04C367.168 1607.02 372.236 1609.51 378.213 1609.51C383.955 1609.51 388.73 1607.22 392.539 1602.65C396.348 1598.03 398.252 1590.47 398.252 1579.98C398.252 1570.19 396.289 1562.93 392.363 1558.18C388.438 1553.44 383.574 1551.06 377.773 1551.06C371.738 1551.06 366.729 1553.41 362.744 1558.09C358.76 1562.72 356.768 1569.61 356.768 1578.75ZM497.129 1597.29L521.738 1601.42C518.574 1610.45 513.564 1617.33 506.709 1622.08C499.912 1626.77 491.387 1629.11 481.133 1629.11C464.902 1629.11 452.891 1623.81 445.098 1613.2C438.945 1604.71 435.869 1593.98 435.869 1581.03C435.869 1565.56 439.912 1553.46 447.998 1544.73C456.084 1535.95 466.309 1531.55 478.672 1531.55C492.559 1531.55 503.516 1536.15 511.543 1545.35C519.57 1554.49 523.408 1568.52 523.057 1587.45H461.182C461.357 1594.77 463.35 1600.49 467.158 1604.59C470.967 1608.63 475.713 1610.65 481.396 1610.65C485.264 1610.65 488.516 1609.6 491.152 1607.49C493.789 1605.38 495.781 1601.98 497.129 1597.29ZM498.535 1572.33C498.359 1565.18 496.514 1559.76 492.998 1556.07C489.482 1552.32 485.205 1550.45 480.166 1550.45C474.775 1550.45 470.322 1552.41 466.807 1556.34C463.291 1560.26 461.562 1565.59 461.621 1572.33H498.535Z" fill="#FEFAFA"/>
<path d="M63.0996 2340V2232.95H24.8672V2211.15H127.26V2232.95H89.1152V2340H63.0996ZM168.568 2211.15V2258.53C176.537 2249.21 186.059 2244.55 197.133 2244.55C202.816 2244.55 207.943 2245.61 212.514 2247.71C217.084 2249.82 220.512 2252.52 222.797 2255.8C225.141 2259.08 226.723 2262.71 227.543 2266.7C228.422 2270.68 228.861 2276.87 228.861 2285.24V2340H204.164V2290.69C204.164 2280.91 203.695 2274.7 202.758 2272.06C201.82 2269.42 200.15 2267.34 197.748 2265.82C195.404 2264.24 192.445 2263.45 188.871 2263.45C184.77 2263.45 181.107 2264.44 177.885 2266.44C174.662 2268.43 172.289 2271.45 170.766 2275.49C169.301 2279.47 168.568 2285.39 168.568 2293.24V2340H143.871V2211.15H168.568ZM308.051 2310.29L332.66 2314.42C329.496 2323.45 324.486 2330.33 317.631 2335.08C310.834 2339.77 302.309 2342.11 292.055 2342.11C275.824 2342.11 263.812 2336.81 256.02 2326.2C249.867 2317.71 246.791 2306.98 246.791 2294.03C246.791 2278.56 250.834 2266.46 258.92 2257.73C267.006 2248.95 277.23 2244.55 289.594 2244.55C303.48 2244.55 314.438 2249.15 322.465 2258.35C330.492 2267.49 334.33 2281.52 333.979 2300.45H272.104C272.279 2307.77 274.271 2313.49 278.08 2317.59C281.889 2321.63 286.635 2323.65 292.318 2323.65C296.186 2323.65 299.438 2322.6 302.074 2320.49C304.711 2318.38 306.703 2314.98 308.051 2310.29ZM309.457 2285.33C309.281 2278.18 307.436 2272.76 303.92 2269.07C300.404 2265.32 296.127 2263.45 291.088 2263.45C285.697 2263.45 281.244 2265.41 277.729 2269.34C274.213 2273.26 272.484 2278.59 272.543 2285.33H309.457ZM404.555 2211.15H456.059C466.254 2211.15 473.842 2211.59 478.822 2212.47C483.861 2213.29 488.344 2215.05 492.27 2217.74C496.254 2220.44 499.564 2224.04 502.201 2228.55C504.838 2233.01 506.156 2238.02 506.156 2243.58C506.156 2249.62 504.516 2255.16 501.234 2260.2C498.012 2265.23 493.617 2269.01 488.051 2271.53C495.902 2273.82 501.938 2277.71 506.156 2283.22C510.375 2288.73 512.484 2295.21 512.484 2302.65C512.484 2308.51 511.107 2314.22 508.354 2319.79C505.658 2325.29 501.938 2329.72 497.191 2333.06C492.504 2336.34 486.703 2338.36 479.789 2339.12C475.453 2339.59 464.994 2339.88 448.412 2340H404.555V2211.15ZM430.57 2232.6V2262.39H447.621C457.758 2262.39 464.057 2262.25 466.518 2261.95C470.971 2261.43 474.457 2259.9 476.977 2257.38C479.555 2254.8 480.844 2251.44 480.844 2247.28C480.844 2243.29 479.73 2240.07 477.504 2237.61C475.336 2235.09 472.084 2233.56 467.748 2233.04C465.17 2232.74 457.758 2232.6 445.512 2232.6H430.57ZM430.57 2283.84V2318.29H454.652C464.027 2318.29 469.975 2318.03 472.494 2317.5C476.361 2316.8 479.496 2315.1 481.898 2312.4C484.359 2309.65 485.59 2305.99 485.59 2301.42C485.59 2297.55 484.652 2294.27 482.777 2291.57C480.902 2288.88 478.178 2286.91 474.604 2285.68C471.088 2284.45 463.412 2283.84 451.576 2283.84H430.57ZM552.826 2275.14L530.414 2271.09C532.934 2262.07 537.27 2255.39 543.422 2251.05C549.574 2246.72 558.715 2244.55 570.844 2244.55C581.859 2244.55 590.062 2245.87 595.453 2248.51C600.844 2251.08 604.623 2254.39 606.791 2258.44C609.018 2262.42 610.131 2269.78 610.131 2280.5L609.867 2309.33C609.867 2317.53 610.248 2323.59 611.01 2327.52C611.83 2331.39 613.324 2335.55 615.492 2340H591.059C590.414 2338.36 589.623 2335.93 588.686 2332.71C588.275 2331.24 587.982 2330.27 587.807 2329.8C583.588 2333.91 579.076 2336.98 574.271 2339.03C569.467 2341.08 564.34 2342.11 558.891 2342.11C549.281 2342.11 541.693 2339.5 536.127 2334.29C530.619 2329.07 527.865 2322.48 527.865 2314.51C527.865 2309.24 529.125 2304.55 531.645 2300.45C534.164 2296.29 537.68 2293.12 542.191 2290.96C546.762 2288.73 553.324 2286.8 561.879 2285.16C573.422 2282.99 581.42 2280.97 585.873 2279.09V2276.63C585.873 2271.88 584.701 2268.52 582.357 2266.52C580.014 2264.47 575.59 2263.45 569.086 2263.45C564.691 2263.45 561.264 2264.33 558.803 2266.08C556.342 2267.78 554.35 2270.8 552.826 2275.14ZM585.873 2295.18C582.709 2296.23 577.699 2297.49 570.844 2298.96C563.988 2300.42 559.506 2301.86 557.396 2303.26C554.174 2305.55 552.562 2308.45 552.562 2311.96C552.562 2315.42 553.852 2318.41 556.43 2320.93C559.008 2323.45 562.289 2324.71 566.273 2324.71C570.727 2324.71 574.975 2323.24 579.018 2320.31C582.006 2318.09 583.969 2315.36 584.906 2312.14C585.551 2310.03 585.873 2306.02 585.873 2300.1V2295.18ZM677.367 2246.66V2266.35H660.492V2303.96C660.492 2311.58 660.639 2316.04 660.932 2317.32C661.283 2318.55 662.016 2319.58 663.129 2320.4C664.301 2321.22 665.707 2321.63 667.348 2321.63C669.633 2321.63 672.943 2320.84 677.279 2319.26L679.389 2338.42C673.646 2340.88 667.143 2342.11 659.877 2342.11C655.424 2342.11 651.41 2341.38 647.836 2339.91C644.262 2338.39 641.625 2336.46 639.926 2334.11C638.285 2331.71 637.143 2328.49 636.498 2324.44C635.971 2321.57 635.707 2315.77 635.707 2307.04V2266.35H624.369V2246.66H635.707V2228.12L660.492 2213.7V2246.66H677.367ZM737.309 2246.66V2266.35H720.434V2303.96C720.434 2311.58 720.58 2316.04 720.873 2317.32C721.225 2318.55 721.957 2319.58 723.07 2320.4C724.242 2321.22 725.648 2321.63 727.289 2321.63C729.574 2321.63 732.885 2320.84 737.221 2319.26L739.33 2338.42C733.588 2340.88 727.084 2342.11 719.818 2342.11C715.365 2342.11 711.352 2341.38 707.777 2339.91C704.203 2338.39 701.566 2336.46 699.867 2334.11C698.227 2331.71 697.084 2328.49 696.439 2324.44C695.912 2321.57 695.648 2315.77 695.648 2307.04V2266.35H684.311V2246.66H695.648V2228.12L720.434 2213.7V2246.66H737.309ZM754.447 2340V2211.15H779.145V2340H754.447ZM858.598 2310.29L883.207 2314.42C880.043 2323.45 875.033 2330.33 868.178 2335.08C861.381 2339.77 852.855 2342.11 842.602 2342.11C826.371 2342.11 814.359 2336.81 806.566 2326.2C800.414 2317.71 797.338 2306.98 797.338 2294.03C797.338 2278.56 801.381 2266.46 809.467 2257.73C817.553 2248.95 827.777 2244.55 840.141 2244.55C854.027 2244.55 864.984 2249.15 873.012 2258.35C881.039 2267.49 884.877 2281.52 884.525 2300.45H822.65C822.826 2307.77 824.818 2313.49 828.627 2317.59C832.436 2321.63 837.182 2323.65 842.865 2323.65C846.732 2323.65 849.984 2322.6 852.621 2320.49C855.258 2318.38 857.25 2314.98 858.598 2310.29ZM860.004 2285.33C859.828 2278.18 857.982 2272.76 854.467 2269.07C850.951 2265.32 846.674 2263.45 841.635 2263.45C836.244 2263.45 831.791 2265.41 828.275 2269.34C824.76 2273.26 823.031 2278.59 823.09 2285.33H860.004ZM949.125 2292.01C949.125 2283.81 951.146 2275.87 955.189 2268.19C959.232 2260.52 964.945 2254.66 972.328 2250.62C979.77 2246.57 988.061 2244.55 997.201 2244.55C1011.32 2244.55 1022.89 2249.15 1031.92 2258.35C1040.94 2267.49 1045.45 2279.06 1045.45 2293.07C1045.45 2307.19 1040.88 2318.91 1031.74 2328.22C1022.66 2337.48 1011.21 2342.11 997.377 2342.11C988.822 2342.11 980.648 2340.18 972.855 2336.31C965.121 2332.44 959.232 2326.79 955.189 2319.35C951.146 2311.85 949.125 2302.73 949.125 2292.01ZM974.438 2293.33C974.438 2302.59 976.635 2309.68 981.029 2314.6C985.424 2319.52 990.844 2321.98 997.289 2321.98C1003.73 2321.98 1009.12 2319.52 1013.46 2314.6C1017.86 2309.68 1020.05 2302.53 1020.05 2293.15C1020.05 2284.01 1017.86 2276.98 1013.46 2272.06C1009.12 2267.14 1003.73 2264.68 997.289 2264.68C990.844 2264.68 985.424 2267.14 981.029 2272.06C976.635 2276.98 974.438 2284.07 974.438 2293.33ZM1054.07 2246.66H1067.78V2239.63C1067.78 2231.78 1068.6 2225.92 1070.24 2222.05C1071.94 2218.18 1075.01 2215.05 1079.47 2212.65C1083.98 2210.19 1089.66 2208.96 1096.52 2208.96C1103.55 2208.96 1110.43 2210.01 1117.17 2212.12L1113.83 2229.35C1109.91 2228.41 1106.13 2227.94 1102.49 2227.94C1098.92 2227.94 1096.34 2228.79 1094.76 2230.49C1093.24 2232.13 1092.47 2235.32 1092.47 2240.07V2246.66H1110.93V2266.08H1092.47V2340H1067.78V2266.08H1054.07V2246.66ZM1284.6 2340H1256.3L1245.05 2310.73H1193.55L1182.91 2340H1155.32L1205.5 2211.15H1233.01L1284.6 2340ZM1236.7 2289.02L1218.95 2241.21L1201.55 2289.02H1236.7ZM1298.31 2340V2211.15H1323.01V2340H1298.31ZM1346.13 2346.15L1374.34 2349.58C1374.81 2352.86 1375.89 2355.12 1377.59 2356.35C1379.94 2358.11 1383.63 2358.98 1388.67 2358.98C1395.11 2358.98 1399.95 2358.02 1403.17 2356.08C1405.34 2354.79 1406.98 2352.71 1408.09 2349.84C1408.85 2347.79 1409.23 2344.01 1409.23 2338.51V2324.88C1401.85 2334.96 1392.53 2340 1381.28 2340C1368.74 2340 1358.81 2334.7 1351.49 2324.09C1345.75 2315.71 1342.88 2305.28 1342.88 2292.8C1342.88 2277.16 1346.62 2265.21 1354.12 2256.94C1361.68 2248.68 1371.06 2244.55 1382.25 2244.55C1393.79 2244.55 1403.31 2249.62 1410.81 2259.76V2246.66H1433.93V2330.42C1433.93 2341.44 1433.02 2349.67 1431.21 2355.12C1429.39 2360.57 1426.84 2364.84 1423.56 2367.95C1420.28 2371.05 1415.88 2373.49 1410.38 2375.24C1404.93 2377 1398.01 2377.88 1389.63 2377.88C1373.81 2377.88 1362.59 2375.16 1355.97 2369.71C1349.35 2364.32 1346.04 2357.46 1346.04 2349.14C1346.04 2348.32 1346.07 2347.32 1346.13 2346.15ZM1368.19 2291.4C1368.19 2301.3 1370.09 2308.56 1373.9 2313.19C1377.77 2317.76 1382.51 2320.05 1388.14 2320.05C1394.17 2320.05 1399.27 2317.71 1403.43 2313.02C1407.59 2308.27 1409.67 2301.27 1409.67 2292.01C1409.67 2282.34 1407.68 2275.17 1403.7 2270.48C1399.71 2265.79 1394.67 2263.45 1388.58 2263.45C1382.66 2263.45 1377.77 2265.76 1373.9 2270.39C1370.09 2274.96 1368.19 2281.96 1368.19 2291.4ZM1458.45 2234V2211.15H1483.15V2234H1458.45ZM1458.45 2340V2246.66H1483.15V2340H1458.45ZM1562.6 2310.29L1587.21 2314.42C1584.05 2323.45 1579.04 2330.33 1572.18 2335.08C1565.38 2339.77 1556.86 2342.11 1546.61 2342.11C1530.38 2342.11 1518.36 2336.81 1510.57 2326.2C1504.42 2317.71 1501.34 2306.98 1501.34 2294.03C1501.34 2278.56 1505.38 2266.46 1513.47 2257.73C1521.56 2248.95 1531.78 2244.55 1544.14 2244.55C1558.03 2244.55 1568.99 2249.15 1577.02 2258.35C1585.04 2267.49 1588.88 2281.52 1588.53 2300.45H1526.65C1526.83 2307.77 1528.82 2313.49 1532.63 2317.59C1536.44 2321.63 1541.19 2323.65 1546.87 2323.65C1550.74 2323.65 1553.99 2322.6 1556.62 2320.49C1559.26 2318.38 1561.25 2314.98 1562.6 2310.29ZM1564.01 2285.33C1563.83 2278.18 1561.99 2272.76 1558.47 2269.07C1554.96 2265.32 1550.68 2263.45 1545.64 2263.45C1540.25 2263.45 1535.79 2265.41 1532.28 2269.34C1528.76 2273.26 1527.04 2278.59 1527.09 2285.33H1564.01ZM1632.39 2340H1607.69V2246.66H1630.63V2259.93C1634.55 2253.66 1638.07 2249.53 1641.18 2247.54C1644.34 2245.55 1647.91 2244.55 1651.9 2244.55C1657.52 2244.55 1662.94 2246.1 1668.16 2249.21L1660.51 2270.74C1656.35 2268.05 1652.48 2266.7 1648.91 2266.7C1645.45 2266.7 1642.52 2267.67 1640.12 2269.6C1637.72 2271.47 1635.81 2274.9 1634.41 2279.88C1633.06 2284.86 1632.39 2295.29 1632.39 2311.17V2340ZM1670.18 2313.37L1694.96 2309.59C1696.02 2314.39 1698.16 2318.06 1701.38 2320.58C1704.6 2323.04 1709.12 2324.27 1714.92 2324.27C1721.3 2324.27 1726.11 2323.1 1729.33 2320.75C1731.5 2319.11 1732.58 2316.91 1732.58 2314.16C1732.58 2312.29 1732 2310.73 1730.82 2309.5C1729.59 2308.33 1726.84 2307.25 1722.56 2306.25C1702.64 2301.86 1690.01 2297.84 1684.68 2294.21C1677.3 2289.17 1673.61 2282.17 1673.61 2273.2C1673.61 2265.12 1676.8 2258.32 1683.19 2252.81C1689.57 2247.3 1699.48 2244.55 1712.89 2244.55C1725.67 2244.55 1735.16 2246.63 1741.37 2250.79C1747.58 2254.95 1751.86 2261.1 1754.2 2269.25L1730.91 2273.55C1729.92 2269.92 1728.01 2267.14 1725.2 2265.21C1722.45 2263.27 1718.49 2262.3 1713.33 2262.3C1706.83 2262.3 1702.17 2263.21 1699.36 2265.03C1697.48 2266.32 1696.55 2267.99 1696.55 2270.04C1696.55 2271.8 1697.37 2273.29 1699.01 2274.52C1701.23 2276.16 1708.91 2278.48 1722.04 2281.46C1735.22 2284.45 1744.42 2288.12 1749.63 2292.45C1754.79 2296.85 1757.37 2302.97 1757.37 2310.82C1757.37 2319.38 1753.79 2326.73 1746.64 2332.88C1739.5 2339.03 1728.92 2342.11 1714.92 2342.11C1702.2 2342.11 1692.12 2339.53 1684.68 2334.38C1677.3 2329.22 1672.46 2322.22 1670.18 2313.37Z" fill="#FEFAFA"/>
<path d="M34.0078 2917.15H81.5566C92.2793 2917.15 100.453 2917.97 106.078 2919.61C113.637 2921.84 120.111 2925.79 125.502 2931.48C130.893 2937.16 134.994 2944.13 137.807 2952.4C140.619 2960.6 142.025 2970.74 142.025 2982.81C142.025 2993.41 140.707 3002.55 138.07 3010.23C134.848 3019.6 130.248 3027.19 124.271 3032.99C119.76 3037.39 113.666 3040.81 105.99 3043.28C100.248 3045.09 92.5723 3046 82.9629 3046H34.0078V2917.15ZM60.0234 2938.95V3024.29H79.4473C86.7129 3024.29 91.957 3023.88 95.1797 3023.06C99.3984 3022.01 102.885 3020.22 105.639 3017.7C108.451 3015.18 110.736 3011.05 112.494 3005.31C114.252 2999.51 115.131 2991.62 115.131 2981.66C115.131 2971.7 114.252 2964.06 112.494 2958.72C110.736 2953.39 108.275 2949.23 105.111 2946.24C101.947 2943.26 97.9336 2941.23 93.0703 2940.18C89.4375 2939.36 82.3184 2938.95 71.7129 2938.95H60.0234ZM163.998 2940V2917.15H188.695V2940H163.998ZM163.998 3046V2952.66H188.695V3046H163.998ZM239.76 3046L202.143 2952.66H228.07L245.648 3000.3L250.746 3016.21C252.094 3012.16 252.943 3009.5 253.295 3008.21C254.115 3005.57 254.994 3002.93 255.932 3000.3L273.686 2952.66H299.086L261.996 3046H239.76ZM308.578 2998.01C308.578 2989.81 310.6 2981.87 314.643 2974.19C318.686 2966.52 324.398 2960.66 331.781 2956.62C339.223 2952.57 347.514 2950.55 356.654 2950.55C370.775 2950.55 382.348 2955.15 391.371 2964.35C400.395 2973.49 404.906 2985.06 404.906 2999.07C404.906 3013.19 400.336 3024.91 391.195 3034.22C382.113 3043.48 370.658 3048.11 356.83 3048.11C348.275 3048.11 340.102 3046.18 332.309 3042.31C324.574 3038.44 318.686 3032.79 314.643 3025.35C310.6 3017.85 308.578 3008.73 308.578 2998.01ZM333.891 2999.33C333.891 3008.59 336.088 3015.68 340.482 3020.6C344.877 3025.52 350.297 3027.98 356.742 3027.98C363.188 3027.98 368.578 3025.52 372.914 3020.6C377.309 3015.68 379.506 3008.53 379.506 2999.15C379.506 2990.01 377.309 2982.98 372.914 2978.06C368.578 2973.14 363.188 2970.68 356.742 2970.68C350.297 2970.68 344.877 2973.14 340.482 2978.06C336.088 2982.98 333.891 2990.07 333.891 2999.33ZM447.973 3046H423.275V2952.66H446.215V2965.93C450.141 2959.66 453.656 2955.53 456.762 2953.54C459.926 2951.55 463.5 2950.55 467.484 2950.55C473.109 2950.55 478.529 2952.1 483.744 2955.21L476.098 2976.74C471.938 2974.05 468.07 2972.7 464.496 2972.7C461.039 2972.7 458.109 2973.67 455.707 2975.6C453.305 2977.47 451.4 2980.9 449.994 2985.88C448.646 2990.86 447.973 3001.29 447.973 3017.17V3046ZM575.854 2980.26L551.508 2984.65C550.688 2979.79 548.812 2976.13 545.883 2973.67C543.012 2971.21 539.262 2969.97 534.633 2969.97C528.48 2969.97 523.559 2972.11 519.867 2976.39C516.234 2980.61 514.418 2987.7 514.418 2997.66C514.418 3008.73 516.264 3016.56 519.955 3021.13C523.705 3025.7 528.715 3027.98 534.984 3027.98C539.672 3027.98 543.51 3026.66 546.498 3024.03C549.486 3021.33 551.596 3016.73 552.826 3010.23L577.084 3014.36C574.564 3025.49 569.73 3033.9 562.582 3039.58C555.434 3045.27 545.854 3048.11 533.842 3048.11C520.189 3048.11 509.291 3043.8 501.146 3035.19C493.061 3026.58 489.018 3014.65 489.018 2999.42C489.018 2984.01 493.09 2972.03 501.234 2963.47C509.379 2954.86 520.395 2950.55 534.281 2950.55C545.648 2950.55 554.672 2953.01 561.352 2957.93C568.09 2962.8 572.924 2970.24 575.854 2980.26ZM648.715 3016.29L673.324 3020.42C670.16 3029.45 665.15 3036.33 658.295 3041.08C651.498 3045.77 642.973 3048.11 632.719 3048.11C616.488 3048.11 604.477 3042.81 596.684 3032.2C590.531 3023.71 587.455 3012.98 587.455 3000.03C587.455 2984.56 591.498 2972.46 599.584 2963.73C607.67 2954.95 617.895 2950.55 630.258 2950.55C644.145 2950.55 655.102 2955.15 663.129 2964.35C671.156 2973.49 674.994 2987.52 674.643 3006.45H612.768C612.943 3013.77 614.936 3019.49 618.744 3023.59C622.553 3027.63 627.299 3029.65 632.982 3029.65C636.85 3029.65 640.102 3028.6 642.738 3026.49C645.375 3024.38 647.367 3020.98 648.715 3016.29ZM650.121 2991.33C649.945 2984.18 648.1 2978.76 644.584 2975.07C641.068 2971.32 636.791 2969.45 631.752 2969.45C626.361 2969.45 621.908 2971.41 618.393 2975.34C614.877 2979.26 613.148 2984.59 613.207 2991.33H650.121ZM744.34 3046V2917.15H770.355V3046H744.34ZM837.855 2952.66V2972.35H820.98V3009.96C820.98 3017.58 821.127 3022.04 821.42 3023.32C821.771 3024.55 822.504 3025.58 823.617 3026.4C824.789 3027.22 826.195 3027.63 827.836 3027.63C830.121 3027.63 833.432 3026.84 837.768 3025.26L839.877 3044.42C834.135 3046.88 827.631 3048.11 820.365 3048.11C815.912 3048.11 811.898 3047.38 808.324 3045.91C804.75 3044.39 802.113 3042.46 800.414 3040.11C798.773 3037.71 797.631 3034.49 796.986 3030.44C796.459 3027.57 796.195 3021.77 796.195 3013.04V2972.35H784.857V2952.66H796.195V2934.12L820.98 2919.7V2952.66H837.855ZM873.451 2981.14L851.039 2977.09C853.559 2968.07 857.895 2961.39 864.047 2957.05C870.199 2952.72 879.34 2950.55 891.469 2950.55C902.484 2950.55 910.688 2951.87 916.078 2954.51C921.469 2957.08 925.248 2960.39 927.416 2964.44C929.643 2968.42 930.756 2975.78 930.756 2986.5L930.492 3015.33C930.492 3023.53 930.873 3029.59 931.635 3033.52C932.455 3037.39 933.949 3041.55 936.117 3046H911.684C911.039 3044.36 910.248 3041.93 909.311 3038.71C908.9 3037.24 908.607 3036.27 908.432 3035.8C904.213 3039.91 899.701 3042.98 894.896 3045.03C890.092 3047.08 884.965 3048.11 879.516 3048.11C869.906 3048.11 862.318 3045.5 856.752 3040.29C851.244 3035.07 848.49 3028.48 848.49 3020.51C848.49 3015.24 849.75 3010.55 852.27 3006.45C854.789 3002.29 858.305 2999.12 862.816 2996.96C867.387 2994.73 873.949 2992.8 882.504 2991.16C894.047 2988.99 902.045 2986.97 906.498 2985.09V2982.63C906.498 2977.88 905.326 2974.52 902.982 2972.52C900.639 2970.47 896.215 2969.45 889.711 2969.45C885.316 2969.45 881.889 2970.33 879.428 2972.08C876.967 2973.78 874.975 2976.8 873.451 2981.14ZM906.498 3001.18C903.334 3002.23 898.324 3003.49 891.469 3004.96C884.613 3006.42 880.131 3007.86 878.021 3009.26C874.799 3011.55 873.188 3014.45 873.188 3017.96C873.188 3021.42 874.477 3024.41 877.055 3026.93C879.633 3029.45 882.914 3030.71 886.898 3030.71C891.352 3030.71 895.6 3029.24 899.643 3026.31C902.631 3024.09 904.594 3021.36 905.531 3018.14C906.176 3016.03 906.498 3012.02 906.498 3006.1V3001.18ZM955.189 3046V2917.15H979.887V3046H955.189ZM1005.29 2940V2917.15H1029.98V2940H1005.29ZM1005.29 3046V2952.66H1029.98V3046H1005.29ZM1073.84 2981.14L1051.43 2977.09C1053.95 2968.07 1058.29 2961.39 1064.44 2957.05C1070.59 2952.72 1079.73 2950.55 1091.86 2950.55C1102.88 2950.55 1111.08 2951.87 1116.47 2954.51C1121.86 2957.08 1125.64 2960.39 1127.81 2964.44C1130.03 2968.42 1131.15 2975.78 1131.15 2986.5L1130.88 3015.33C1130.88 3023.53 1131.26 3029.59 1132.03 3033.52C1132.85 3037.39 1134.34 3041.55 1136.51 3046H1112.07C1111.43 3044.36 1110.64 3041.93 1109.7 3038.71C1109.29 3037.24 1109 3036.27 1108.82 3035.8C1104.6 3039.91 1100.09 3042.98 1095.29 3045.03C1090.48 3047.08 1085.36 3048.11 1079.91 3048.11C1070.3 3048.11 1062.71 3045.5 1057.14 3040.29C1051.63 3035.07 1048.88 3028.48 1048.88 3020.51C1048.88 3015.24 1050.14 3010.55 1052.66 3006.45C1055.18 3002.29 1058.7 2999.12 1063.21 2996.96C1067.78 2994.73 1074.34 2992.8 1082.89 2991.16C1094.44 2988.99 1102.44 2986.97 1106.89 2985.09V2982.63C1106.89 2977.88 1105.72 2974.52 1103.37 2972.52C1101.03 2970.47 1096.61 2969.45 1090.1 2969.45C1085.71 2969.45 1082.28 2970.33 1079.82 2972.08C1077.36 2973.78 1075.37 2976.8 1073.84 2981.14ZM1106.89 3001.18C1103.72 3002.23 1098.71 3003.49 1091.86 3004.96C1085 3006.42 1080.52 3007.86 1078.41 3009.26C1075.19 3011.55 1073.58 3014.45 1073.58 3017.96C1073.58 3021.42 1074.87 3024.41 1077.45 3026.93C1080.02 3029.45 1083.3 3030.71 1087.29 3030.71C1091.74 3030.71 1095.99 3029.24 1100.03 3026.31C1103.02 3024.09 1104.98 3021.36 1105.92 3018.14C1106.57 3016.03 1106.89 3012.02 1106.89 3006.1V3001.18ZM1240.48 3046H1215.79V2998.36C1215.79 2988.29 1215.26 2981.78 1214.2 2978.85C1213.15 2975.86 1211.42 2973.55 1209.02 2971.91C1206.67 2970.27 1203.83 2969.45 1200.49 2969.45C1196.21 2969.45 1192.38 2970.62 1188.98 2972.96C1185.58 2975.31 1183.24 2978.41 1181.95 2982.28C1180.72 2986.15 1180.1 2993.29 1180.1 3003.72V3046H1155.4V2952.66H1178.34V2966.37C1186.49 2955.82 1196.74 2950.55 1209.11 2950.55C1214.55 2950.55 1219.54 2951.55 1224.05 2953.54C1228.56 2955.47 1231.96 2957.96 1234.24 2961.01C1236.59 2964.06 1238.2 2967.51 1239.08 2971.38C1240.01 2975.25 1240.48 2980.79 1240.48 2987.99V3046ZM1309.3 3004.08L1334.61 3001.62C1336.14 3010.11 1339.21 3016.35 1343.84 3020.34C1348.53 3024.32 1354.83 3026.31 1362.74 3026.31C1371.12 3026.31 1377.42 3024.55 1381.63 3021.04C1385.91 3017.46 1388.05 3013.3 1388.05 3008.56C1388.05 3005.51 1387.14 3002.93 1385.33 3000.82C1383.57 2998.66 1380.46 2996.78 1376.01 2995.2C1372.96 2994.14 1366.02 2992.27 1355.18 2989.57C1341.23 2986.12 1331.45 2981.87 1325.82 2976.83C1317.91 2969.74 1313.96 2961.1 1313.96 2950.9C1313.96 2944.34 1315.8 2938.22 1319.5 2932.53C1323.25 2926.79 1328.61 2922.43 1335.58 2919.44C1342.61 2916.45 1351.08 2914.96 1360.98 2914.96C1377.15 2914.96 1389.31 2918.5 1397.46 2925.59C1405.66 2932.68 1409.96 2942.14 1410.38 2953.98L1384.36 2955.12C1383.25 2948.5 1380.84 2943.75 1377.15 2940.88C1373.52 2937.95 1368.04 2936.49 1360.72 2936.49C1353.16 2936.49 1347.24 2938.04 1342.96 2941.15C1340.21 2943.14 1338.83 2945.8 1338.83 2949.14C1338.83 2952.19 1340.12 2954.8 1342.7 2956.97C1345.98 2959.72 1353.95 2962.59 1366.61 2965.58C1379.26 2968.57 1388.61 2971.67 1394.64 2974.9C1400.74 2978.06 1405.48 2982.43 1408.88 2987.99C1412.34 2993.5 1414.07 3000.33 1414.07 3008.47C1414.07 3015.85 1412.02 3022.77 1407.91 3029.21C1403.81 3035.66 1398.01 3040.46 1390.51 3043.63C1383.01 3046.73 1373.67 3048.29 1362.47 3048.29C1346.19 3048.29 1333.68 3044.54 1324.95 3037.04C1316.21 3029.48 1311 3018.49 1309.3 3004.08ZM1478.58 2952.66V2972.35H1461.7V3009.96C1461.7 3017.58 1461.85 3022.04 1462.14 3023.32C1462.49 3024.55 1463.23 3025.58 1464.34 3026.4C1465.51 3027.22 1466.92 3027.63 1468.56 3027.63C1470.84 3027.63 1474.15 3026.84 1478.49 3025.26L1480.6 3044.42C1474.86 3046.88 1468.35 3048.11 1461.09 3048.11C1456.63 3048.11 1452.62 3047.38 1449.05 3045.91C1445.47 3044.39 1442.84 3042.46 1441.14 3040.11C1439.5 3037.71 1438.35 3034.49 1437.71 3030.44C1437.18 3027.57 1436.92 3021.77 1436.92 3013.04V2972.35H1425.58V2952.66H1436.92V2934.12L1461.7 2919.7V2952.66H1478.58ZM1484.03 2952.66H1510.31L1532.63 3018.93L1554.43 2952.66H1580L1547.04 3042.48L1541.16 3058.74C1538.99 3064.19 1536.91 3068.35 1534.92 3071.22C1532.98 3074.1 1530.73 3076.41 1528.15 3078.17C1525.63 3079.98 1522.49 3081.39 1518.74 3082.39C1515.05 3083.38 1510.86 3083.88 1506.18 3083.88C1501.43 3083.88 1496.77 3083.38 1492.2 3082.39L1490 3063.05C1493.87 3063.81 1497.36 3064.19 1500.46 3064.19C1506.21 3064.19 1510.45 3062.49 1513.21 3059.1C1515.96 3055.76 1518.07 3051.48 1519.54 3046.26L1484.03 2952.66ZM1595.91 3046V2917.15H1620.61V3046H1595.91ZM1700.06 3016.29L1724.67 3020.42C1721.51 3029.45 1716.5 3036.33 1709.64 3041.08C1702.85 3045.77 1694.32 3048.11 1684.07 3048.11C1667.84 3048.11 1655.82 3042.81 1648.03 3032.2C1641.88 3023.71 1638.8 3012.98 1638.8 3000.03C1638.8 2984.56 1642.85 2972.46 1650.93 2963.73C1659.02 2954.95 1669.24 2950.55 1681.61 2950.55C1695.49 2950.55 1706.45 2955.15 1714.48 2964.35C1722.5 2973.49 1726.34 2987.52 1725.99 3006.45H1664.12C1664.29 3013.77 1666.28 3019.49 1670.09 3023.59C1673.9 3027.63 1678.65 3029.65 1684.33 3029.65C1688.2 3029.65 1691.45 3028.6 1694.09 3026.49C1696.72 3024.38 1698.71 3020.98 1700.06 3016.29ZM1701.47 2991.33C1701.29 2984.18 1699.45 2978.76 1695.93 2975.07C1692.42 2971.32 1688.14 2969.45 1683.1 2969.45C1677.71 2969.45 1673.26 2971.41 1669.74 2975.34C1666.22 2979.26 1664.5 2984.59 1664.55 2991.33H1701.47Z" fill="#FEFAFA"/>
<path d="M10.0078 3556.15H57.5566C68.2793 3556.15 76.4531 3556.97 82.0781 3558.61C89.6367 3560.84 96.1113 3564.79 101.502 3570.48C106.893 3576.16 110.994 3583.13 113.807 3591.4C116.619 3599.6 118.025 3609.74 118.025 3621.81C118.025 3632.41 116.707 3641.55 114.07 3649.23C110.848 3658.6 106.248 3666.19 100.271 3671.99C95.7598 3676.39 89.666 3679.81 81.9902 3682.28C76.248 3684.09 68.5723 3685 58.9629 3685H10.0078V3556.15ZM36.0234 3577.95V3663.29H55.4473C62.7129 3663.29 67.957 3662.88 71.1797 3662.06C75.3984 3661.01 78.8848 3659.22 81.6387 3656.7C84.4512 3654.18 86.7363 3650.05 88.4941 3644.31C90.252 3638.51 91.1309 3630.62 91.1309 3620.66C91.1309 3610.7 90.252 3603.06 88.4941 3597.72C86.7363 3592.39 84.2754 3588.23 81.1113 3585.24C77.9473 3582.26 73.9336 3580.23 69.0703 3579.18C65.4375 3578.36 58.3184 3577.95 47.7129 3577.95H36.0234ZM139.998 3579V3556.15H164.695V3579H139.998ZM139.998 3685V3591.66H164.695V3685H139.998ZM208.553 3620.14L186.141 3616.09C188.66 3607.07 192.996 3600.39 199.148 3596.05C205.301 3591.72 214.441 3589.55 226.57 3589.55C237.586 3589.55 245.789 3590.87 251.18 3593.51C256.57 3596.08 260.35 3599.39 262.518 3603.44C264.744 3607.42 265.857 3614.78 265.857 3625.5L265.594 3654.33C265.594 3662.53 265.975 3668.59 266.736 3672.52C267.557 3676.39 269.051 3680.55 271.219 3685H246.785C246.141 3683.36 245.35 3680.93 244.412 3677.71C244.002 3676.24 243.709 3675.27 243.533 3674.8C239.314 3678.91 234.803 3681.98 229.998 3684.03C225.193 3686.08 220.066 3687.11 214.617 3687.11C205.008 3687.11 197.42 3684.5 191.854 3679.29C186.346 3674.07 183.592 3667.48 183.592 3659.51C183.592 3654.24 184.852 3649.55 187.371 3645.45C189.891 3641.29 193.406 3638.12 197.918 3635.96C202.488 3633.73 209.051 3631.8 217.605 3630.16C229.148 3627.99 237.146 3625.97 241.6 3624.09V3621.63C241.6 3616.88 240.428 3613.52 238.084 3611.52C235.74 3609.47 231.316 3608.45 224.812 3608.45C220.418 3608.45 216.99 3609.33 214.529 3611.08C212.068 3612.78 210.076 3615.8 208.553 3620.14ZM241.6 3640.18C238.436 3641.23 233.426 3642.49 226.57 3643.96C219.715 3645.42 215.232 3646.86 213.123 3648.26C209.9 3650.55 208.289 3653.45 208.289 3656.96C208.289 3660.42 209.578 3663.41 212.156 3665.93C214.734 3668.45 218.016 3669.71 222 3669.71C226.453 3669.71 230.701 3668.24 234.744 3665.31C237.732 3663.09 239.695 3660.36 240.633 3657.14C241.277 3655.03 241.6 3651.02 241.6 3645.1V3640.18ZM290.291 3685V3556.15H314.988V3685H290.291ZM390.311 3685V3556.15H429.246L452.625 3644.04L475.74 3556.15H514.764V3685H490.594V3583.57L465.018 3685H439.969L414.48 3583.57V3685H390.311ZM579.715 3591.66H593.426V3584.63C593.426 3576.78 594.246 3570.92 595.887 3567.05C597.586 3563.18 600.662 3560.05 605.115 3557.65C609.627 3555.19 615.311 3553.96 622.166 3553.96C629.197 3553.96 636.082 3555.01 642.82 3557.12L639.48 3574.35C635.555 3573.41 631.775 3572.94 628.143 3572.94C624.568 3572.94 621.99 3573.79 620.408 3575.49C618.885 3577.13 618.123 3580.32 618.123 3585.07V3591.66H636.58V3611.08H618.123V3685H593.426V3611.08H579.715V3591.66ZM644.754 3637.01C644.754 3628.81 646.775 3620.87 650.818 3613.19C654.861 3605.52 660.574 3599.66 667.957 3595.62C675.398 3591.57 683.689 3589.55 692.83 3589.55C706.951 3589.55 718.523 3594.15 727.547 3603.35C736.57 3612.49 741.082 3624.06 741.082 3638.07C741.082 3652.19 736.512 3663.91 727.371 3673.22C718.289 3682.48 706.834 3687.11 693.006 3687.11C684.451 3687.11 676.277 3685.18 668.484 3681.31C660.75 3677.44 654.861 3671.79 650.818 3664.35C646.775 3656.85 644.754 3647.73 644.754 3637.01ZM670.066 3638.33C670.066 3647.59 672.264 3654.68 676.658 3659.6C681.053 3664.52 686.473 3666.98 692.918 3666.98C699.363 3666.98 704.754 3664.52 709.09 3659.6C713.484 3654.68 715.682 3647.53 715.682 3638.15C715.682 3629.01 713.484 3621.98 709.09 3617.06C704.754 3612.14 699.363 3609.68 692.918 3609.68C686.473 3609.68 681.053 3612.14 676.658 3617.06C672.264 3621.98 670.066 3629.07 670.066 3638.33ZM784.148 3685H759.451V3591.66H782.391V3604.93C786.316 3598.66 789.832 3594.53 792.938 3592.54C796.102 3590.55 799.676 3589.55 803.66 3589.55C809.285 3589.55 814.705 3591.1 819.92 3594.21L812.273 3615.74C808.113 3613.05 804.246 3611.7 800.672 3611.7C797.215 3611.7 794.285 3612.67 791.883 3614.6C789.48 3616.47 787.576 3619.9 786.17 3624.88C784.822 3629.86 784.148 3640.29 784.148 3656.17V3685ZM880.564 3685V3556.15H919.5L942.879 3644.04L965.994 3556.15H1005.02V3685H980.848V3583.57L955.271 3685H930.223L904.734 3583.57V3685H880.564ZM1092.12 3685V3671.03C1088.72 3676.01 1084.24 3679.93 1078.67 3682.8C1073.16 3685.67 1067.33 3687.11 1061.18 3687.11C1054.91 3687.11 1049.29 3685.73 1044.3 3682.98C1039.32 3680.22 1035.72 3676.36 1033.49 3671.38C1031.27 3666.4 1030.15 3659.51 1030.15 3650.72V3591.66H1054.85V3634.55C1054.85 3647.68 1055.29 3655.73 1056.17 3658.72C1057.11 3661.65 1058.78 3663.99 1061.18 3665.75C1063.58 3667.45 1066.63 3668.3 1070.32 3668.3C1074.54 3668.3 1078.32 3667.16 1081.66 3664.87C1085 3662.53 1087.28 3659.66 1088.51 3656.26C1089.74 3652.8 1090.36 3644.39 1090.36 3631.04V3591.66H1115.06V3685H1092.12ZM1164.36 3685H1139.67V3591.66H1162.61V3604.93C1166.53 3598.66 1170.05 3594.53 1173.15 3592.54C1176.32 3590.55 1179.89 3589.55 1183.88 3589.55C1189.5 3589.55 1194.92 3591.1 1200.13 3594.21L1192.49 3615.74C1188.33 3613.05 1184.46 3611.7 1180.89 3611.7C1177.43 3611.7 1174.5 3612.67 1172.1 3614.6C1169.7 3616.47 1167.79 3619.9 1166.38 3624.88C1165.04 3629.86 1164.36 3640.29 1164.36 3656.17V3685ZM1296.46 3685H1273.52V3671.29C1269.71 3676.62 1265.2 3680.61 1259.99 3683.24C1254.83 3685.82 1249.62 3687.11 1244.34 3687.11C1233.62 3687.11 1224.42 3682.8 1216.75 3674.19C1209.13 3665.52 1205.32 3653.45 1205.32 3637.98C1205.32 3622.16 1209.04 3610.15 1216.48 3601.94C1223.92 3593.68 1233.33 3589.55 1244.7 3589.55C1255.12 3589.55 1264.15 3593.89 1271.77 3602.56V3556.15H1296.46V3685ZM1230.54 3636.31C1230.54 3646.27 1231.92 3653.48 1234.68 3657.93C1238.66 3664.38 1244.23 3667.6 1251.38 3667.6C1257.06 3667.6 1261.89 3665.2 1265.88 3660.39C1269.86 3655.53 1271.85 3648.29 1271.85 3638.68C1271.85 3627.96 1269.92 3620.25 1266.05 3615.57C1262.19 3610.82 1257.23 3608.45 1251.2 3608.45C1245.34 3608.45 1240.42 3610.79 1236.43 3615.48C1232.51 3620.11 1230.54 3627.05 1230.54 3636.31ZM1374.95 3655.29L1399.56 3659.42C1396.39 3668.45 1391.38 3675.33 1384.53 3680.08C1377.73 3684.77 1369.21 3687.11 1358.95 3687.11C1342.72 3687.11 1330.71 3681.81 1322.92 3671.2C1316.77 3662.71 1313.69 3651.98 1313.69 3639.03C1313.69 3623.56 1317.73 3611.46 1325.82 3602.73C1333.9 3593.95 1344.13 3589.55 1356.49 3589.55C1370.38 3589.55 1381.34 3594.15 1389.36 3603.35C1397.39 3612.49 1401.23 3626.52 1400.88 3645.45H1339C1339.18 3652.77 1341.17 3658.49 1344.98 3662.59C1348.79 3666.63 1353.53 3668.65 1359.22 3668.65C1363.08 3668.65 1366.34 3667.6 1368.97 3665.49C1371.61 3663.38 1373.6 3659.98 1374.95 3655.29ZM1376.36 3630.33C1376.18 3623.18 1374.33 3617.76 1370.82 3614.07C1367.3 3610.32 1363.03 3608.45 1357.99 3608.45C1352.6 3608.45 1348.14 3610.41 1344.63 3614.34C1341.11 3618.26 1339.38 3623.59 1339.44 3630.33H1376.36ZM1444.73 3685H1420.04V3591.66H1442.98V3604.93C1446.9 3598.66 1450.42 3594.53 1453.52 3592.54C1456.69 3590.55 1460.26 3589.55 1464.25 3589.55C1469.87 3589.55 1475.29 3591.1 1480.51 3594.21L1472.86 3615.74C1468.7 3613.05 1464.83 3611.7 1461.26 3611.7C1457.8 3611.7 1454.87 3612.67 1452.47 3614.6C1450.07 3616.47 1448.16 3619.9 1446.76 3624.88C1445.41 3629.86 1444.73 3640.29 1444.73 3656.17V3685Z" fill="#FEFAFA"/>
<path d="M39.0996 4398V4290.95H0.867188V4269.15H103.26V4290.95H65.1152V4398H39.0996ZM144.568 4269.15V4316.53C152.537 4307.21 162.059 4302.55 173.133 4302.55C178.816 4302.55 183.943 4303.61 188.514 4305.71C193.084 4307.82 196.512 4310.52 198.797 4313.8C201.141 4317.08 202.723 4320.71 203.543 4324.7C204.422 4328.68 204.861 4334.87 204.861 4343.24V4398H180.164V4348.69C180.164 4338.91 179.695 4332.7 178.758 4330.06C177.82 4327.42 176.15 4325.34 173.748 4323.82C171.404 4322.24 168.445 4321.45 164.871 4321.45C160.77 4321.45 157.107 4322.44 153.885 4324.44C150.662 4326.43 148.289 4329.45 146.766 4333.49C145.301 4337.47 144.568 4343.39 144.568 4351.24V4398H119.871V4269.15H144.568ZM284.051 4368.29L308.66 4372.42C305.496 4381.45 300.486 4388.33 293.631 4393.08C286.834 4397.77 278.309 4400.11 268.055 4400.11C251.824 4400.11 239.812 4394.81 232.02 4384.2C225.867 4375.71 222.791 4364.98 222.791 4352.03C222.791 4336.56 226.834 4324.46 234.92 4315.73C243.006 4306.95 253.23 4302.55 265.594 4302.55C279.48 4302.55 290.438 4307.15 298.465 4316.35C306.492 4325.49 310.33 4339.52 309.979 4358.45H248.104C248.279 4365.77 250.271 4371.49 254.08 4375.59C257.889 4379.63 262.635 4381.65 268.318 4381.65C272.186 4381.65 275.438 4380.6 278.074 4378.49C280.711 4376.38 282.703 4372.98 284.051 4368.29ZM285.457 4343.33C285.281 4336.18 283.436 4330.76 279.92 4327.07C276.404 4323.32 272.127 4321.45 267.088 4321.45C261.697 4321.45 257.244 4323.41 253.729 4327.34C250.213 4331.26 248.484 4336.59 248.543 4343.33H285.457ZM380.115 4398V4269.15H419.051L442.43 4357.04L465.545 4269.15H504.568V4398H480.398V4296.57L454.822 4398H429.773L404.285 4296.57V4398H380.115ZM548.689 4333.14L526.277 4329.09C528.797 4320.07 533.133 4313.39 539.285 4309.05C545.438 4304.72 554.578 4302.55 566.707 4302.55C577.723 4302.55 585.926 4303.87 591.316 4306.51C596.707 4309.08 600.486 4312.39 602.654 4316.44C604.881 4320.42 605.994 4327.78 605.994 4338.5L605.73 4367.33C605.73 4375.53 606.111 4381.59 606.873 4385.52C607.693 4389.39 609.188 4393.55 611.355 4398H586.922C586.277 4396.36 585.486 4393.93 584.549 4390.71C584.139 4389.24 583.846 4388.27 583.67 4387.8C579.451 4391.91 574.939 4394.98 570.135 4397.03C565.33 4399.08 560.203 4400.11 554.754 4400.11C545.145 4400.11 537.557 4397.5 531.99 4392.29C526.482 4387.07 523.729 4380.48 523.729 4372.51C523.729 4367.24 524.988 4362.55 527.508 4358.45C530.027 4354.29 533.543 4351.12 538.055 4348.96C542.625 4346.73 549.188 4344.8 557.742 4343.16C569.285 4340.99 577.283 4338.97 581.736 4337.09V4334.63C581.736 4329.88 580.564 4326.52 578.221 4324.52C575.877 4322.47 571.453 4321.45 564.949 4321.45C560.555 4321.45 557.127 4322.33 554.666 4324.08C552.205 4325.78 550.213 4328.8 548.689 4333.14ZM581.736 4353.18C578.572 4354.23 573.562 4355.49 566.707 4356.96C559.852 4358.42 555.369 4359.86 553.26 4361.26C550.037 4363.55 548.426 4366.45 548.426 4369.96C548.426 4373.42 549.715 4376.41 552.293 4378.93C554.871 4381.45 558.152 4382.71 562.137 4382.71C566.59 4382.71 570.838 4381.24 574.881 4378.31C577.869 4376.09 579.832 4373.36 580.77 4370.14C581.414 4368.03 581.736 4364.02 581.736 4358.1V4353.18ZM715.33 4398H690.633V4350.36C690.633 4340.29 690.105 4333.78 689.051 4330.85C687.996 4327.86 686.268 4325.55 683.865 4323.91C681.521 4322.27 678.68 4321.45 675.34 4321.45C671.062 4321.45 667.225 4322.62 663.826 4324.96C660.428 4327.31 658.084 4330.41 656.795 4334.28C655.564 4338.15 654.949 4345.29 654.949 4355.72V4398H630.252V4304.66H653.191V4318.37C661.336 4307.82 671.59 4302.55 683.953 4302.55C689.402 4302.55 694.383 4303.55 698.895 4305.54C703.406 4307.47 706.805 4309.96 709.09 4313.01C711.434 4316.06 713.045 4319.51 713.924 4323.38C714.861 4327.25 715.33 4332.79 715.33 4339.99V4398ZM809.021 4398L778.26 4269.15H804.891L824.314 4357.66L847.869 4269.15H878.807L901.395 4359.15L921.17 4269.15H947.361L916.072 4398H888.475L862.811 4301.67L837.234 4398H809.021ZM985.154 4269.15V4316.53C993.123 4307.21 1002.64 4302.55 1013.72 4302.55C1019.4 4302.55 1024.53 4303.61 1029.1 4305.71C1033.67 4307.82 1037.1 4310.52 1039.38 4313.8C1041.73 4317.08 1043.31 4320.71 1044.13 4324.7C1045.01 4328.68 1045.45 4334.87 1045.45 4343.24V4398H1020.75V4348.69C1020.75 4338.91 1020.28 4332.7 1019.34 4330.06C1018.41 4327.42 1016.74 4325.34 1014.33 4323.82C1011.99 4322.24 1009.03 4321.45 1005.46 4321.45C1001.36 4321.45 997.693 4322.44 994.471 4324.44C991.248 4326.43 988.875 4329.45 987.352 4333.49C985.887 4337.47 985.154 4343.39 985.154 4351.24V4398H960.457V4269.15H985.154ZM1064.87 4350.01C1064.87 4341.81 1066.89 4333.87 1070.94 4326.19C1074.98 4318.52 1080.69 4312.66 1088.07 4308.62C1095.52 4304.57 1103.81 4302.55 1112.95 4302.55C1127.07 4302.55 1138.64 4307.15 1147.66 4316.35C1156.69 4325.49 1161.2 4337.06 1161.2 4351.07C1161.2 4365.19 1156.63 4376.91 1147.49 4386.22C1138.41 4395.48 1126.95 4400.11 1113.12 4400.11C1104.57 4400.11 1096.39 4398.18 1088.6 4394.31C1080.87 4390.44 1074.98 4384.79 1070.94 4377.35C1066.89 4369.85 1064.87 4360.73 1064.87 4350.01ZM1090.18 4351.33C1090.18 4360.59 1092.38 4367.68 1096.78 4372.6C1101.17 4377.52 1106.59 4379.98 1113.04 4379.98C1119.48 4379.98 1124.87 4377.52 1129.21 4372.6C1133.6 4367.68 1135.8 4360.53 1135.8 4351.15C1135.8 4342.01 1133.6 4334.98 1129.21 4330.06C1124.87 4325.14 1119.48 4322.68 1113.04 4322.68C1106.59 4322.68 1101.17 4325.14 1096.78 4330.06C1092.38 4334.98 1090.18 4342.07 1090.18 4351.33ZM1224.3 4356.08L1249.62 4353.62C1251.14 4362.11 1254.22 4368.35 1258.85 4372.34C1263.53 4376.32 1269.83 4378.31 1277.74 4378.31C1286.12 4378.31 1292.42 4376.55 1296.64 4373.04C1300.92 4369.46 1303.05 4365.3 1303.05 4360.56C1303.05 4357.51 1302.15 4354.93 1300.33 4352.82C1298.57 4350.66 1295.47 4348.78 1291.01 4347.2C1287.97 4346.14 1281.02 4344.27 1270.18 4341.57C1256.24 4338.12 1246.45 4333.87 1240.83 4328.83C1232.92 4321.74 1228.96 4313.1 1228.96 4302.9C1228.96 4296.34 1230.81 4290.22 1234.5 4284.53C1238.25 4278.79 1243.61 4274.43 1250.58 4271.44C1257.62 4268.45 1266.08 4266.96 1275.98 4266.96C1292.16 4266.96 1304.31 4270.5 1312.46 4277.59C1320.66 4284.68 1324.97 4294.14 1325.38 4305.98L1299.36 4307.12C1298.25 4300.5 1295.85 4295.75 1292.16 4292.88C1288.52 4289.95 1283.04 4288.49 1275.72 4288.49C1268.16 4288.49 1262.24 4290.04 1257.97 4293.15C1255.21 4295.14 1253.84 4297.8 1253.84 4301.14C1253.84 4304.19 1255.12 4306.8 1257.7 4308.97C1260.98 4311.72 1268.95 4314.59 1281.61 4317.58C1294.27 4320.57 1303.61 4323.67 1309.65 4326.9C1315.74 4330.06 1320.49 4334.43 1323.88 4339.99C1327.34 4345.5 1329.07 4352.33 1329.07 4360.47C1329.07 4367.85 1327.02 4374.77 1322.92 4381.21C1318.82 4387.66 1313.02 4392.46 1305.52 4395.63C1298.02 4398.73 1288.67 4400.29 1277.48 4400.29C1261.19 4400.29 1248.68 4396.54 1239.95 4389.04C1231.22 4381.48 1226 4370.49 1224.3 4356.08ZM1375.39 4269.15V4316.53C1383.36 4307.21 1392.88 4302.55 1403.95 4302.55C1409.64 4302.55 1414.76 4303.61 1419.33 4305.71C1423.9 4307.82 1427.33 4310.52 1429.62 4313.8C1431.96 4317.08 1433.54 4320.71 1434.36 4324.7C1435.24 4328.68 1435.68 4334.87 1435.68 4343.24V4398H1410.98V4348.69C1410.98 4338.91 1410.52 4332.7 1409.58 4330.06C1408.64 4327.42 1406.97 4325.34 1404.57 4323.82C1402.22 4322.24 1399.27 4321.45 1395.69 4321.45C1391.59 4321.45 1387.93 4322.44 1384.71 4324.44C1381.48 4326.43 1379.11 4329.45 1377.59 4333.49C1376.12 4337.47 1375.39 4343.39 1375.39 4351.24V4398H1350.69V4269.15H1375.39ZM1455.11 4350.01C1455.11 4341.81 1457.13 4333.87 1461.17 4326.19C1465.21 4318.52 1470.93 4312.66 1478.31 4308.62C1485.75 4304.57 1494.04 4302.55 1503.18 4302.55C1517.3 4302.55 1528.88 4307.15 1537.9 4316.35C1546.92 4325.49 1551.43 4337.06 1551.43 4351.07C1551.43 4365.19 1546.86 4376.91 1537.72 4386.22C1528.64 4395.48 1517.19 4400.11 1503.36 4400.11C1494.8 4400.11 1486.63 4398.18 1478.84 4394.31C1471.1 4390.44 1465.21 4384.79 1461.17 4377.35C1457.13 4369.85 1455.11 4360.73 1455.11 4350.01ZM1480.42 4351.33C1480.42 4360.59 1482.62 4367.68 1487.01 4372.6C1491.4 4377.52 1496.82 4379.98 1503.27 4379.98C1509.71 4379.98 1515.11 4377.52 1519.44 4372.6C1523.84 4367.68 1526.03 4360.53 1526.03 4351.15C1526.03 4342.01 1523.84 4334.98 1519.44 4330.06C1515.11 4325.14 1509.71 4322.68 1503.27 4322.68C1496.82 4322.68 1491.4 4325.14 1487.01 4330.06C1482.62 4334.98 1480.42 4342.07 1480.42 4351.33ZM1613.66 4304.66V4324.35H1596.79V4361.96C1596.79 4369.58 1596.93 4374.04 1597.22 4375.32C1597.58 4376.55 1598.31 4377.58 1599.42 4378.4C1600.59 4379.22 1602 4379.63 1603.64 4379.63C1605.93 4379.63 1609.24 4378.84 1613.57 4377.26L1615.68 4396.42C1609.94 4398.88 1603.44 4400.11 1596.17 4400.11C1591.72 4400.11 1587.7 4399.38 1584.13 4397.91C1580.55 4396.39 1577.92 4394.46 1576.22 4392.11C1574.58 4389.71 1573.44 4386.49 1572.79 4382.44C1572.26 4379.57 1572 4373.77 1572 4365.04V4324.35H1560.66V4304.66H1572V4286.12L1596.79 4271.7V4304.66H1613.66ZM10.7988 4605V4477.21H36.8145V4583.29H101.502V4605H10.7988ZM119.959 4499V4476.15H144.656V4499H119.959ZM119.959 4605V4511.66H144.656V4605H119.959ZM169.002 4605V4476.15H193.699V4522.56C201.316 4513.89 210.34 4509.55 220.77 4509.55C232.137 4509.55 241.541 4513.68 248.982 4521.94C256.424 4530.15 260.145 4541.95 260.145 4557.36C260.145 4573.3 256.336 4585.58 248.719 4594.19C241.16 4602.8 231.961 4607.11 221.121 4607.11C215.789 4607.11 210.516 4605.79 205.301 4603.15C200.145 4600.46 195.691 4596.5 191.941 4591.29V4605H169.002ZM193.523 4556.31C193.523 4565.98 195.047 4573.12 198.094 4577.75C202.371 4584.32 208.055 4587.6 215.145 4587.6C220.594 4587.6 225.223 4585.28 229.031 4580.65C232.898 4575.97 234.832 4568.61 234.832 4558.59C234.832 4547.93 232.898 4540.25 229.031 4535.57C225.164 4530.82 220.213 4528.45 214.178 4528.45C208.26 4528.45 203.338 4530.76 199.412 4535.39C195.486 4539.96 193.523 4546.93 193.523 4556.31ZM334.148 4575.29L358.758 4579.42C355.594 4588.45 350.584 4595.33 343.729 4600.08C336.932 4604.77 328.406 4607.11 318.152 4607.11C301.922 4607.11 289.91 4601.81 282.117 4591.2C275.965 4582.71 272.889 4571.98 272.889 4559.03C272.889 4543.56 276.932 4531.46 285.018 4522.73C293.104 4513.95 303.328 4509.55 315.691 4509.55C329.578 4509.55 340.535 4514.15 348.562 4523.35C356.59 4532.49 360.428 4546.52 360.076 4565.45H298.201C298.377 4572.77 300.369 4578.49 304.178 4582.59C307.986 4586.63 312.732 4588.65 318.416 4588.65C322.283 4588.65 325.535 4587.6 328.172 4585.49C330.809 4583.38 332.801 4579.98 334.148 4575.29ZM335.555 4550.33C335.379 4543.18 333.533 4537.76 330.018 4534.07C326.502 4530.32 322.225 4528.45 317.186 4528.45C311.795 4528.45 307.342 4530.41 303.826 4534.34C300.311 4538.26 298.582 4543.59 298.641 4550.33H335.555ZM403.934 4605H379.236V4511.66H402.176V4524.93C406.102 4518.66 409.617 4514.53 412.723 4512.54C415.887 4510.55 419.461 4509.55 423.445 4509.55C429.07 4509.55 434.49 4511.1 439.705 4514.21L432.059 4535.74C427.898 4533.05 424.031 4531.7 420.457 4531.7C417 4531.7 414.07 4532.67 411.668 4534.6C409.266 4536.47 407.361 4539.9 405.955 4544.88C404.607 4549.86 403.934 4560.29 403.934 4576.17V4605ZM493.23 4511.66V4531.35H476.355V4568.96C476.355 4576.58 476.502 4581.04 476.795 4582.32C477.146 4583.55 477.879 4584.58 478.992 4585.4C480.164 4586.22 481.57 4586.63 483.211 4586.63C485.496 4586.63 488.807 4585.84 493.143 4584.26L495.252 4603.42C489.51 4605.88 483.006 4607.11 475.74 4607.11C471.287 4607.11 467.273 4606.38 463.699 4604.91C460.125 4603.39 457.488 4601.46 455.789 4599.11C454.148 4596.71 453.006 4593.49 452.361 4589.44C451.834 4586.57 451.57 4580.77 451.57 4572.04V4531.35H440.232V4511.66H451.57V4493.12L476.355 4478.7V4511.66H493.23ZM498.68 4511.66H524.959L547.283 4577.93L569.08 4511.66H594.656L561.697 4601.48L555.809 4617.74C553.641 4623.19 551.561 4627.35 549.568 4630.22C547.635 4633.1 545.379 4635.41 542.801 4637.17C540.281 4638.98 537.146 4640.39 533.396 4641.39C529.705 4642.38 525.516 4642.88 520.828 4642.88C516.082 4642.88 511.424 4642.38 506.854 4641.39L504.656 4622.05C508.523 4622.81 512.01 4623.19 515.115 4623.19C520.857 4623.19 525.105 4621.49 527.859 4618.1C530.613 4614.76 532.723 4610.48 534.188 4605.26L498.68 4511.66ZM693.709 4605L647.654 4476.15H675.867L708.475 4571.51L740.027 4476.15H767.625L721.482 4605H693.709ZM789.158 4540.14L766.746 4536.09C769.266 4527.07 773.602 4520.39 779.754 4516.05C785.906 4511.72 795.047 4509.55 807.176 4509.55C818.191 4509.55 826.395 4510.87 831.785 4513.51C837.176 4516.08 840.955 4519.39 843.123 4523.44C845.35 4527.42 846.463 4534.78 846.463 4545.5L846.199 4574.33C846.199 4582.53 846.58 4588.59 847.342 4592.52C848.162 4596.39 849.656 4600.55 851.824 4605H827.391C826.746 4603.36 825.955 4600.93 825.018 4597.71C824.607 4596.24 824.314 4595.27 824.139 4594.8C819.92 4598.91 815.408 4601.98 810.604 4604.03C805.799 4606.08 800.672 4607.11 795.223 4607.11C785.613 4607.11 778.025 4604.5 772.459 4599.29C766.951 4594.07 764.197 4587.48 764.197 4579.51C764.197 4574.24 765.457 4569.55 767.977 4565.45C770.496 4561.29 774.012 4558.12 778.523 4555.96C783.094 4553.73 789.656 4551.8 798.211 4550.16C809.754 4547.99 817.752 4545.97 822.205 4544.09V4541.63C822.205 4536.88 821.033 4533.52 818.689 4531.52C816.346 4529.47 811.922 4528.45 805.418 4528.45C801.023 4528.45 797.596 4529.33 795.135 4531.08C792.674 4532.78 790.682 4535.8 789.158 4540.14ZM822.205 4560.18C819.041 4561.23 814.031 4562.49 807.176 4563.96C800.32 4565.42 795.838 4566.86 793.729 4568.26C790.506 4570.55 788.895 4573.45 788.895 4576.96C788.895 4580.42 790.184 4583.41 792.762 4585.93C795.34 4588.45 798.621 4589.71 802.605 4589.71C807.059 4589.71 811.307 4588.24 815.35 4585.31C818.338 4583.09 820.301 4580.36 821.238 4577.14C821.883 4575.03 822.205 4571.02 822.205 4565.1V4560.18ZM870.896 4605V4476.15H895.594V4605H870.896ZM939.451 4540.14L917.039 4536.09C919.559 4527.07 923.895 4520.39 930.047 4516.05C936.199 4511.72 945.34 4509.55 957.469 4509.55C968.484 4509.55 976.688 4510.87 982.078 4513.51C987.469 4516.08 991.248 4519.39 993.416 4523.44C995.643 4527.42 996.756 4534.78 996.756 4545.5L996.492 4574.33C996.492 4582.53 996.873 4588.59 997.635 4592.52C998.455 4596.39 999.949 4600.55 1002.12 4605H977.684C977.039 4603.36 976.248 4600.93 975.311 4597.71C974.9 4596.24 974.607 4595.27 974.432 4594.8C970.213 4598.91 965.701 4601.98 960.896 4604.03C956.092 4606.08 950.965 4607.11 945.516 4607.11C935.906 4607.11 928.318 4604.5 922.752 4599.29C917.244 4594.07 914.49 4587.48 914.49 4579.51C914.49 4574.24 915.75 4569.55 918.27 4565.45C920.789 4561.29 924.305 4558.12 928.816 4555.96C933.387 4553.73 939.949 4551.8 948.504 4550.16C960.047 4547.99 968.045 4545.97 972.498 4544.09V4541.63C972.498 4536.88 971.326 4533.52 968.982 4531.52C966.639 4529.47 962.215 4528.45 955.711 4528.45C951.316 4528.45 947.889 4529.33 945.428 4531.08C942.967 4532.78 940.975 4535.8 939.451 4540.14ZM972.498 4560.18C969.334 4561.23 964.324 4562.49 957.469 4563.96C950.613 4565.42 946.131 4566.86 944.021 4568.26C940.799 4570.55 939.188 4573.45 939.188 4576.96C939.188 4580.42 940.477 4583.41 943.055 4585.93C945.633 4588.45 948.914 4589.71 952.898 4589.71C957.352 4589.71 961.6 4588.24 965.643 4585.31C968.631 4583.09 970.594 4580.36 971.531 4577.14C972.176 4575.03 972.498 4571.02 972.498 4565.1V4560.18ZM1106.09 4605H1081.39V4557.36C1081.39 4547.29 1080.87 4540.78 1079.81 4537.85C1078.76 4534.86 1077.03 4532.55 1074.63 4530.91C1072.28 4529.27 1069.44 4528.45 1066.1 4528.45C1061.82 4528.45 1057.99 4529.62 1054.59 4531.96C1051.19 4534.31 1048.85 4537.41 1047.56 4541.28C1046.33 4545.15 1045.71 4552.29 1045.71 4562.72V4605H1021.01V4511.66H1043.95V4525.37C1052.1 4514.82 1062.35 4509.55 1074.71 4509.55C1080.16 4509.55 1085.14 4510.55 1089.66 4512.54C1094.17 4514.47 1097.57 4516.96 1099.85 4520.01C1102.2 4523.06 1103.81 4526.51 1104.69 4530.38C1105.62 4534.25 1106.09 4539.79 1106.09 4546.99V4605ZM1212.62 4539.26L1188.27 4543.65C1187.45 4538.79 1185.57 4535.13 1182.64 4532.67C1179.77 4530.21 1176.02 4528.97 1171.39 4528.97C1165.24 4528.97 1160.32 4531.11 1156.63 4535.39C1153 4539.61 1151.18 4546.7 1151.18 4556.66C1151.18 4567.73 1153.03 4575.56 1156.72 4580.13C1160.47 4584.7 1165.48 4586.98 1171.75 4586.98C1176.43 4586.98 1180.27 4585.66 1183.26 4583.03C1186.25 4580.33 1188.36 4575.73 1189.59 4569.23L1213.85 4573.36C1211.33 4584.49 1206.49 4592.9 1199.34 4598.58C1192.2 4604.27 1182.62 4607.11 1170.6 4607.11C1156.95 4607.11 1146.05 4602.8 1137.91 4594.19C1129.82 4585.58 1125.78 4573.65 1125.78 4558.42C1125.78 4543.01 1129.85 4531.03 1138 4522.47C1146.14 4513.86 1157.16 4509.55 1171.04 4509.55C1182.41 4509.55 1191.43 4512.01 1198.11 4516.93C1204.85 4521.8 1209.69 4529.24 1212.62 4539.26ZM1285.48 4575.29L1310.09 4579.42C1306.92 4588.45 1301.91 4595.33 1295.06 4600.08C1288.26 4604.77 1279.73 4607.11 1269.48 4607.11C1253.25 4607.11 1241.24 4601.81 1233.45 4591.2C1227.29 4582.71 1224.22 4571.98 1224.22 4559.03C1224.22 4543.56 1228.26 4531.46 1236.35 4522.73C1244.43 4513.95 1254.66 4509.55 1267.02 4509.55C1280.91 4509.55 1291.86 4514.15 1299.89 4523.35C1307.92 4532.49 1311.76 4546.52 1311.4 4565.45H1249.53C1249.71 4572.77 1251.7 4578.49 1255.51 4582.59C1259.31 4586.63 1264.06 4588.65 1269.74 4588.65C1273.61 4588.65 1276.86 4587.6 1279.5 4585.49C1282.14 4583.38 1284.13 4579.98 1285.48 4575.29ZM1286.88 4550.33C1286.71 4543.18 1284.86 4537.76 1281.35 4534.07C1277.83 4530.32 1273.55 4528.45 1268.51 4528.45C1263.12 4528.45 1258.67 4530.41 1255.15 4534.34C1251.64 4538.26 1249.91 4543.59 1249.97 4550.33H1286.88Z" fill="#FEFAFA"/>
</svg>
