<svg width="3707" height="2363" viewBox="0 0 3707 2363" fill="none" xmlns="http://www.w3.org/2000/svg">
<g clip-path="url(#clip0_195_126)">
<rect width="3707" height="2363" fill="#9173A3"/>
<path d="M3436 1736C3436 1988.95 3224.68 2194 2964 2194C2703.32 2194 2492 1988.95 2492 1736C2492 1483.05 2703.32 1278 2964 1278C3224.68 1278 3436 1483.05 3436 1736Z" fill="#8BB578"/>
<path d="M2650 1777.5C2650 2030.72 2438.68 2236 2178 2236C1917.32 2236 1706 2030.72 1706 1777.5C1706 1524.28 1917.32 1319 2178 1319C2438.68 1319 2650 1524.28 2650 1777.5Z" fill="#C358DE" fill-opacity="0.71"/>
<ellipse cx="2178.5" cy="770" rx="472.5" ry="458" fill="#B99866"/>
<ellipse cx="1493.5" cy="749" rx="472.5" ry="458" fill="#FBE77E"/>
<ellipse cx="640" cy="733.5" rx="472" ry="458.5" fill="#F39844"/>
<ellipse cx="640.5" cy="1777" rx="472.5" ry="458" fill="#E13434"/>
<ellipse cx="1493.5" cy="1777.5" rx="472.5" ry="458.5" fill="#FA0EB8" fill-opacity="0.71"/>
<ellipse cx="2964" cy="749.5" rx="472" ry="458.5" fill="#5494DF" fill-opacity="0.71"/>
<path d="M1188.41 1646.92H1226.45C1235.02 1646.92 1241.56 1647.58 1246.06 1648.89C1252.11 1650.67 1257.29 1653.84 1261.6 1658.38C1265.91 1662.93 1269.2 1668.51 1271.45 1675.12C1273.7 1681.68 1274.82 1689.79 1274.82 1699.45C1274.82 1707.93 1273.77 1715.24 1271.66 1721.38C1269.08 1728.88 1265.4 1734.95 1260.62 1739.59C1257.01 1743.11 1252.13 1745.85 1245.99 1747.82C1241.4 1749.27 1235.26 1750 1227.57 1750H1188.41V1646.92ZM1209.22 1664.36V1732.63H1224.76C1230.57 1732.63 1234.77 1732.3 1237.34 1731.65C1240.72 1730.8 1243.51 1729.38 1245.71 1727.36C1247.96 1725.34 1249.79 1722.04 1251.2 1717.45C1252.6 1712.8 1253.3 1706.5 1253.3 1698.53C1253.3 1690.56 1252.6 1684.45 1251.2 1680.18C1249.79 1675.91 1247.82 1672.59 1245.29 1670.2C1242.76 1667.8 1239.55 1666.19 1235.66 1665.34C1232.75 1664.69 1227.05 1664.36 1218.57 1664.36H1209.22ZM1292.4 1665.2V1646.92H1312.16V1665.2H1292.4ZM1292.4 1750V1675.33H1312.16V1750H1292.4ZM1325.52 1728.7L1345.34 1725.67C1346.19 1729.52 1347.9 1732.45 1350.48 1734.46C1353.05 1736.43 1356.66 1737.41 1361.3 1737.41C1366.41 1737.41 1370.26 1736.48 1372.84 1734.6C1374.57 1733.29 1375.44 1731.53 1375.44 1729.33C1375.44 1727.83 1374.97 1726.59 1374.03 1725.6C1373.05 1724.66 1370.84 1723.8 1367.42 1723C1351.48 1719.48 1341.38 1716.27 1337.12 1713.37C1331.21 1709.34 1328.26 1703.73 1328.26 1696.56C1328.26 1690.09 1330.81 1684.66 1335.92 1680.25C1341.03 1675.84 1348.95 1673.64 1359.69 1673.64C1369.91 1673.64 1377.5 1675.3 1382.47 1678.63C1387.44 1681.96 1390.86 1686.88 1392.73 1693.4L1374.1 1696.84C1373.3 1693.94 1371.78 1691.71 1369.53 1690.16C1367.33 1688.62 1364.16 1687.84 1360.04 1687.84C1354.84 1687.84 1351.11 1688.57 1348.86 1690.02C1347.36 1691.05 1346.61 1692.39 1346.61 1694.03C1346.61 1695.44 1347.27 1696.63 1348.58 1697.62C1350.36 1698.93 1356.5 1700.78 1367 1703.17C1377.55 1705.56 1384.91 1708.49 1389.08 1711.96C1393.2 1715.48 1395.27 1720.38 1395.27 1726.66C1395.27 1733.5 1392.41 1739.38 1386.69 1744.3C1380.97 1749.23 1372.51 1751.69 1361.3 1751.69C1351.13 1751.69 1343.07 1749.62 1337.12 1745.5C1331.21 1741.38 1327.34 1735.77 1325.52 1728.7ZM1410.8 1754.92L1433.38 1757.66C1433.75 1760.29 1434.62 1762.09 1435.98 1763.08C1437.85 1764.48 1440.8 1765.19 1444.84 1765.19C1449.99 1765.19 1453.86 1764.41 1456.44 1762.87C1458.17 1761.84 1459.48 1760.17 1460.38 1757.88C1460.98 1756.23 1461.29 1753.21 1461.29 1748.8V1737.91C1455.38 1745.97 1447.93 1750 1438.93 1750C1428.9 1750 1420.95 1745.76 1415.09 1737.27C1410.5 1730.57 1408.2 1722.23 1408.2 1712.24C1408.2 1699.73 1411.2 1690.16 1417.2 1683.55C1423.25 1676.95 1430.75 1673.64 1439.7 1673.64C1448.94 1673.64 1456.55 1677.7 1462.55 1685.8V1675.33H1481.05V1742.34C1481.05 1751.15 1480.32 1757.73 1478.87 1762.09C1477.41 1766.45 1475.38 1769.88 1472.75 1772.36C1470.12 1774.84 1466.61 1776.79 1462.2 1778.2C1457.84 1779.6 1452.31 1780.3 1445.61 1780.3C1432.95 1780.3 1423.98 1778.12 1418.68 1773.77C1413.38 1769.45 1410.73 1763.97 1410.73 1757.31C1410.73 1756.66 1410.76 1755.86 1410.8 1754.92ZM1428.45 1711.12C1428.45 1719.04 1429.98 1724.85 1433.02 1728.55C1436.12 1732.21 1439.91 1734.04 1444.41 1734.04C1449.24 1734.04 1453.32 1732.16 1456.65 1728.41C1459.98 1724.62 1461.64 1719.02 1461.64 1711.61C1461.64 1703.88 1460.05 1698.13 1456.86 1694.38C1453.67 1690.63 1449.64 1688.76 1444.77 1688.76C1440.03 1688.76 1436.12 1690.61 1433.02 1694.31C1429.98 1697.97 1428.45 1703.57 1428.45 1711.12ZM1549.81 1750V1738.82C1547.09 1742.8 1543.51 1745.95 1539.05 1748.24C1534.65 1750.54 1529.98 1751.69 1525.06 1751.69C1520.05 1751.69 1515.55 1750.59 1511.56 1748.38C1507.58 1746.18 1504.7 1743.09 1502.91 1739.1C1501.13 1735.12 1500.24 1729.61 1500.24 1722.58V1675.33H1520V1709.64C1520 1720.14 1520.35 1726.59 1521.05 1728.98C1521.8 1731.32 1523.14 1733.2 1525.06 1734.6C1526.98 1735.96 1529.42 1736.64 1532.38 1736.64C1535.75 1736.64 1538.77 1735.73 1541.45 1733.9C1544.12 1732.02 1545.95 1729.73 1546.93 1727.01C1547.91 1724.24 1548.41 1717.52 1548.41 1706.83V1675.33H1568.16V1750H1549.81ZM1581.73 1728.7L1601.56 1725.67C1602.41 1729.52 1604.12 1732.45 1606.7 1734.46C1609.27 1736.43 1612.88 1737.41 1617.52 1737.41C1622.63 1737.41 1626.48 1736.48 1629.05 1734.6C1630.79 1733.29 1631.66 1731.53 1631.66 1729.33C1631.66 1727.83 1631.19 1726.59 1630.25 1725.6C1629.27 1724.66 1627.06 1723.8 1623.64 1723C1607.7 1719.48 1597.6 1716.27 1593.34 1713.37C1587.43 1709.34 1584.48 1703.73 1584.48 1696.56C1584.48 1690.09 1587.03 1684.66 1592.14 1680.25C1597.25 1675.84 1605.17 1673.64 1615.91 1673.64C1626.12 1673.64 1633.72 1675.3 1638.69 1678.63C1643.66 1681.96 1647.08 1686.88 1648.95 1693.4L1630.32 1696.84C1629.52 1693.94 1628 1691.71 1625.75 1690.16C1623.55 1688.62 1620.38 1687.84 1616.26 1687.84C1611.05 1687.84 1607.33 1688.57 1605.08 1690.02C1603.58 1691.05 1602.83 1692.39 1602.83 1694.03C1602.83 1695.44 1603.48 1696.63 1604.8 1697.62C1606.58 1698.93 1612.72 1700.78 1623.22 1703.17C1633.77 1705.56 1641.12 1708.49 1645.3 1711.96C1649.42 1715.48 1651.48 1720.38 1651.48 1726.66C1651.48 1733.5 1648.62 1739.38 1642.91 1744.3C1637.19 1749.23 1628.73 1751.69 1617.52 1751.69C1607.35 1751.69 1599.29 1749.62 1593.34 1745.5C1587.43 1741.38 1583.56 1735.77 1581.73 1728.7ZM1703.09 1675.33V1691.08H1689.59V1721.17C1689.59 1727.27 1689.71 1730.83 1689.95 1731.86C1690.23 1732.84 1690.81 1733.66 1691.7 1734.32C1692.64 1734.98 1693.77 1735.3 1695.08 1735.3C1696.91 1735.3 1699.55 1734.67 1703.02 1733.41L1704.71 1748.73C1700.12 1750.7 1694.91 1751.69 1689.1 1751.69C1685.54 1751.69 1682.33 1751.1 1679.47 1749.93C1676.61 1748.71 1674.5 1747.16 1673.14 1745.29C1671.83 1743.37 1670.91 1740.79 1670.4 1737.55C1669.98 1735.26 1669.77 1730.62 1669.77 1723.63V1691.08H1660.7V1675.33H1669.77V1660.49L1689.59 1648.96V1675.33H1703.09Z" fill="black"/>
<path d="M2745.2 699.461L2765.45 697.492C2766.67 704.289 2769.13 709.281 2772.84 712.469C2776.59 715.656 2781.62 717.25 2787.95 717.25C2794.66 717.25 2799.7 715.844 2803.07 713.031C2806.49 710.172 2808.2 706.844 2808.2 703.047C2808.2 700.609 2807.48 698.547 2806.02 696.859C2804.62 695.125 2802.13 693.625 2798.57 692.359C2796.13 691.516 2790.58 690.016 2781.91 687.859C2770.75 685.094 2762.92 681.695 2758.42 677.664C2752.09 671.992 2748.93 665.078 2748.93 656.922C2748.93 651.672 2750.41 646.773 2753.36 642.227C2756.36 637.633 2760.65 634.141 2766.23 631.75C2771.85 629.359 2778.62 628.164 2786.55 628.164C2799.48 628.164 2809.21 631 2815.73 636.672C2822.29 642.344 2825.73 649.914 2826.06 659.383L2805.25 660.297C2804.36 655 2802.44 651.203 2799.48 648.906C2796.58 646.562 2792.2 645.391 2786.34 645.391C2780.29 645.391 2775.55 646.633 2772.13 649.117C2769.93 650.711 2768.83 652.844 2768.83 655.516C2768.83 657.953 2769.86 660.039 2771.92 661.773C2774.55 663.977 2780.92 666.273 2791.05 668.664C2801.17 671.055 2808.65 673.539 2813.48 676.117C2818.35 678.648 2822.15 682.141 2824.87 686.594C2827.63 691 2829.02 696.461 2829.02 702.977C2829.02 708.883 2827.38 714.414 2824.09 719.57C2820.81 724.727 2816.17 728.57 2810.17 731.102C2804.17 733.586 2796.7 734.828 2787.74 734.828C2774.71 734.828 2764.7 731.828 2757.72 725.828C2750.73 719.781 2746.56 710.992 2745.2 699.461ZM2895.53 733V721.82C2892.81 725.805 2889.23 728.945 2884.77 731.242C2880.37 733.539 2875.7 734.688 2870.78 734.688C2865.77 734.688 2861.27 733.586 2857.28 731.383C2853.3 729.18 2850.41 726.086 2848.63 722.102C2846.85 718.117 2845.96 712.609 2845.96 705.578V658.328H2865.72V692.641C2865.72 703.141 2866.07 709.586 2866.77 711.977C2867.52 714.32 2868.86 716.195 2870.78 717.602C2872.7 718.961 2875.14 719.641 2878.09 719.641C2881.47 719.641 2884.49 718.727 2887.16 716.898C2889.84 715.023 2891.66 712.727 2892.65 710.008C2893.63 707.242 2894.12 700.516 2894.12 689.828V658.328H2913.88V733H2895.53ZM2953.33 733H2933.57V658.328H2951.92V668.945C2955.06 663.93 2957.88 660.625 2960.36 659.031C2962.89 657.438 2965.75 656.641 2968.94 656.641C2973.44 656.641 2977.77 657.883 2981.95 660.367L2975.83 677.594C2972.5 675.438 2969.41 674.359 2966.55 674.359C2963.78 674.359 2961.44 675.133 2959.52 676.68C2957.59 678.18 2956.07 680.922 2954.95 684.906C2953.87 688.891 2953.33 697.234 2953.33 709.938V733ZM2989.96 658.328H3008.38V669.297C3010.77 665.547 3014.01 662.5 3018.09 660.156C3022.16 657.812 3026.69 656.641 3031.66 656.641C3040.33 656.641 3047.69 660.039 3053.73 666.836C3059.78 673.633 3062.8 683.102 3062.8 695.242C3062.8 707.711 3059.76 717.414 3053.66 724.352C3047.57 731.242 3040.19 734.688 3031.52 734.688C3027.39 734.688 3023.64 733.867 3020.27 732.227C3016.94 730.586 3013.42 727.773 3009.72 723.789V761.406H2989.96V658.328ZM3009.51 694.398C3009.51 702.789 3011.17 709 3014.5 713.031C3017.83 717.016 3021.88 719.008 3026.66 719.008C3031.26 719.008 3035.08 717.18 3038.12 713.523C3041.17 709.82 3042.7 703.773 3042.7 695.383C3042.7 687.555 3041.12 681.742 3037.98 677.945C3034.84 674.148 3030.95 672.25 3026.31 672.25C3021.48 672.25 3017.48 674.125 3014.29 677.875C3011.1 681.578 3009.51 687.086 3009.51 694.398ZM3097.47 733H3077.71V658.328H3096.06V668.945C3099.2 663.93 3102.02 660.625 3104.5 659.031C3107.03 657.438 3109.89 656.641 3113.08 656.641C3117.58 656.641 3121.91 657.883 3126.09 660.367L3119.97 677.594C3116.64 675.438 3113.55 674.359 3110.69 674.359C3107.92 674.359 3105.58 675.133 3103.66 676.68C3101.73 678.18 3100.21 680.922 3099.09 684.906C3098.01 688.891 3097.47 697.234 3097.47 709.938V733ZM3134.66 648.203V629.922H3154.42V648.203H3134.66ZM3134.66 733V658.328H3154.42V733H3134.66ZM3167.78 711.695L3187.61 708.672C3188.45 712.516 3190.16 715.445 3192.74 717.461C3195.32 719.43 3198.93 720.414 3203.57 720.414C3208.68 720.414 3212.52 719.477 3215.1 717.602C3216.84 716.289 3217.7 714.531 3217.7 712.328C3217.7 710.828 3217.23 709.586 3216.3 708.602C3215.31 707.664 3213.11 706.797 3209.69 706C3193.75 702.484 3183.65 699.273 3179.38 696.367C3173.48 692.336 3170.52 686.734 3170.52 679.562C3170.52 673.094 3173.08 667.656 3178.19 663.25C3183.3 658.844 3191.22 656.641 3201.95 656.641C3212.17 656.641 3219.77 658.305 3224.73 661.633C3229.7 664.961 3233.12 669.883 3235 676.398L3216.37 679.844C3215.57 676.938 3214.05 674.711 3211.8 673.164C3209.59 671.617 3206.43 670.844 3202.3 670.844C3197.1 670.844 3193.38 671.57 3191.12 673.023C3189.62 674.055 3188.88 675.391 3188.88 677.031C3188.88 678.438 3189.53 679.633 3190.84 680.617C3192.62 681.93 3198.77 683.781 3209.27 686.172C3219.81 688.562 3227.17 691.492 3231.34 694.961C3235.47 698.477 3237.53 703.375 3237.53 709.656C3237.53 716.5 3234.67 722.383 3228.95 727.305C3223.23 732.227 3214.77 734.688 3203.57 734.688C3193.4 734.688 3185.34 732.625 3179.38 728.5C3173.48 724.375 3169.61 718.773 3167.78 711.695ZM3298.14 709.234L3317.83 712.539C3315.3 719.758 3311.29 725.266 3305.8 729.062C3300.37 732.812 3293.55 734.688 3285.34 734.688C3272.36 734.688 3262.75 730.445 3256.52 721.961C3251.59 715.164 3249.13 706.586 3249.13 696.227C3249.13 683.852 3252.37 674.172 3258.84 667.188C3265.3 660.156 3273.48 656.641 3283.38 656.641C3294.48 656.641 3303.25 660.32 3309.67 667.68C3316.09 674.992 3319.16 686.219 3318.88 701.359H3269.38C3269.52 707.219 3271.12 711.789 3274.16 715.07C3277.21 718.305 3281.01 719.922 3285.55 719.922C3288.65 719.922 3291.25 719.078 3293.36 717.391C3295.47 715.703 3297.06 712.984 3298.14 709.234ZM3299.27 689.266C3299.12 683.547 3297.65 679.211 3294.84 676.258C3292.02 673.258 3288.6 671.758 3284.57 671.758C3280.26 671.758 3276.7 673.328 3273.88 676.469C3271.07 679.609 3269.69 683.875 3269.73 689.266H3299.27Z" fill="black"/>
<path d="M1971.2 1722.46L1991.45 1720.49C1992.67 1727.29 1995.13 1732.28 1998.84 1735.47C2002.59 1738.66 2007.62 1740.25 2013.95 1740.25C2020.66 1740.25 2025.7 1738.84 2029.07 1736.03C2032.49 1733.17 2034.2 1729.84 2034.2 1726.05C2034.2 1723.61 2033.48 1721.55 2032.02 1719.86C2030.62 1718.12 2028.13 1716.62 2024.57 1715.36C2022.13 1714.52 2016.58 1713.02 2007.91 1710.86C1996.75 1708.09 1988.92 1704.7 1984.42 1700.66C1978.09 1694.99 1974.93 1688.08 1974.93 1679.92C1974.93 1674.67 1976.41 1669.77 1979.36 1665.23C1982.36 1660.63 1986.65 1657.14 1992.23 1654.75C1997.85 1652.36 2004.62 1651.16 2012.55 1651.16C2025.48 1651.16 2035.21 1654 2041.73 1659.67C2048.29 1665.34 2051.73 1672.91 2052.06 1682.38L2031.25 1683.3C2030.36 1678 2028.44 1674.2 2025.48 1671.91C2022.58 1669.56 2018.2 1668.39 2012.34 1668.39C2006.29 1668.39 2001.55 1669.63 1998.13 1672.12C1995.93 1673.71 1994.83 1675.84 1994.83 1678.52C1994.83 1680.95 1995.86 1683.04 1997.92 1684.77C2000.55 1686.98 2006.92 1689.27 2017.05 1691.66C2027.17 1694.05 2034.65 1696.54 2039.48 1699.12C2044.35 1701.65 2048.15 1705.14 2050.87 1709.59C2053.63 1714 2055.02 1719.46 2055.02 1725.98C2055.02 1731.88 2053.38 1737.41 2050.09 1742.57C2046.81 1747.73 2042.17 1751.57 2036.17 1754.1C2030.17 1756.59 2022.7 1757.83 2013.74 1757.83C2000.71 1757.83 1990.7 1754.83 1983.72 1748.83C1976.73 1742.78 1972.56 1733.99 1971.2 1722.46ZM2087.15 1704.11L2069.22 1700.88C2071.23 1693.66 2074.7 1688.31 2079.62 1684.84C2084.55 1681.38 2091.86 1679.64 2101.56 1679.64C2110.38 1679.64 2116.94 1680.7 2121.25 1682.8C2125.56 1684.87 2128.59 1687.52 2130.32 1690.75C2132.1 1693.94 2132.99 1699.82 2132.99 1708.4L2132.78 1731.46C2132.78 1738.02 2133.09 1742.88 2133.7 1746.02C2134.35 1749.11 2135.55 1752.44 2137.28 1756H2117.73C2117.22 1754.69 2116.59 1752.74 2115.84 1750.16C2115.51 1748.99 2115.27 1748.22 2115.13 1747.84C2111.76 1751.12 2108.15 1753.59 2104.3 1755.23C2100.46 1756.87 2096.36 1757.69 2092 1757.69C2084.31 1757.69 2078.24 1755.6 2073.79 1751.43C2069.38 1747.26 2067.18 1741.98 2067.18 1735.61C2067.18 1731.39 2068.19 1727.64 2070.2 1724.36C2072.22 1721.03 2075.03 1718.5 2078.64 1716.77C2082.3 1714.98 2087.55 1713.44 2094.39 1712.12C2103.62 1710.39 2110.02 1708.77 2113.59 1707.27V1705.3C2113.59 1701.51 2112.65 1698.81 2110.77 1697.22C2108.9 1695.58 2105.36 1694.76 2100.16 1694.76C2096.64 1694.76 2093.9 1695.46 2091.93 1696.87C2089.96 1698.23 2088.37 1700.64 2087.15 1704.11ZM2113.59 1720.14C2111.05 1720.98 2107.05 1721.99 2101.56 1723.16C2096.08 1724.34 2092.49 1725.48 2090.8 1726.61C2088.23 1728.44 2086.94 1730.76 2086.94 1733.57C2086.94 1736.34 2087.97 1738.73 2090.03 1740.74C2092.09 1742.76 2094.72 1743.77 2097.91 1743.77C2101.47 1743.77 2104.87 1742.59 2108.1 1740.25C2110.49 1738.47 2112.06 1736.29 2112.81 1733.71C2113.33 1732.02 2113.59 1728.81 2113.59 1724.08V1720.14ZM2221.02 1756H2202.67V1745.03C2199.62 1749.3 2196.02 1752.48 2191.84 1754.59C2187.72 1756.66 2183.55 1757.69 2179.33 1757.69C2170.75 1757.69 2163.39 1754.24 2157.25 1747.35C2151.16 1740.41 2148.11 1730.76 2148.11 1718.38C2148.11 1705.73 2151.09 1696.12 2157.04 1689.55C2162.99 1682.95 2170.52 1679.64 2179.61 1679.64C2187.95 1679.64 2195.17 1683.11 2201.27 1690.05V1652.92H2221.02V1756ZM2168.29 1717.05C2168.29 1725.02 2169.39 1730.78 2171.59 1734.34C2174.78 1739.5 2179.23 1742.08 2184.95 1742.08C2189.5 1742.08 2193.37 1740.16 2196.55 1736.31C2199.74 1732.42 2201.34 1726.63 2201.34 1718.95C2201.34 1710.37 2199.79 1704.2 2196.7 1700.45C2193.6 1696.66 2189.64 1694.76 2184.81 1694.76C2180.12 1694.76 2176.19 1696.63 2173 1700.38C2169.86 1704.09 2168.29 1709.64 2168.29 1717.05ZM2308.49 1756H2288.73V1717.89C2288.73 1709.83 2288.31 1704.62 2287.47 1702.28C2286.62 1699.89 2285.24 1698.04 2283.32 1696.73C2281.45 1695.41 2279.17 1694.76 2276.5 1694.76C2273.08 1694.76 2270.01 1695.7 2267.29 1697.57C2264.57 1699.45 2262.7 1701.93 2261.66 1705.02C2260.68 1708.12 2260.19 1713.84 2260.19 1722.18V1756H2240.43V1681.33H2258.78V1692.3C2265.3 1683.86 2273.5 1679.64 2283.39 1679.64C2287.75 1679.64 2291.73 1680.44 2295.34 1682.03C2298.95 1683.58 2301.67 1685.57 2303.5 1688.01C2305.38 1690.45 2306.66 1693.21 2307.37 1696.3C2308.12 1699.4 2308.49 1703.83 2308.49 1709.59V1756ZM2371.84 1732.23L2391.53 1735.54C2389 1742.76 2384.99 1748.27 2379.51 1752.06C2374.07 1755.81 2367.25 1757.69 2359.05 1757.69C2346.06 1757.69 2336.45 1753.45 2330.22 1744.96C2325.3 1738.16 2322.84 1729.59 2322.84 1719.23C2322.84 1706.85 2326.07 1697.17 2332.54 1690.19C2339.01 1683.16 2347.19 1679.64 2357.08 1679.64C2368.19 1679.64 2376.95 1683.32 2383.38 1690.68C2389.8 1697.99 2392.87 1709.22 2392.59 1724.36H2343.09C2343.23 1730.22 2344.82 1734.79 2347.87 1738.07C2350.91 1741.3 2354.71 1742.92 2359.26 1742.92C2362.35 1742.92 2364.95 1742.08 2367.06 1740.39C2369.17 1738.7 2370.77 1735.98 2371.84 1732.23ZM2372.97 1712.27C2372.83 1706.55 2371.35 1702.21 2368.54 1699.26C2365.73 1696.26 2362.3 1694.76 2358.27 1694.76C2353.96 1694.76 2350.4 1696.33 2347.59 1699.47C2344.77 1702.61 2343.39 1706.88 2343.44 1712.27H2372.97ZM2401.8 1734.7L2421.62 1731.67C2422.47 1735.52 2424.18 1738.45 2426.76 1740.46C2429.34 1742.43 2432.95 1743.41 2437.59 1743.41C2442.7 1743.41 2446.54 1742.48 2449.12 1740.6C2450.85 1739.29 2451.72 1737.53 2451.72 1735.33C2451.72 1733.83 2451.25 1732.59 2450.31 1731.6C2449.33 1730.66 2447.12 1729.8 2443.7 1729C2427.77 1725.48 2417.66 1722.27 2413.4 1719.37C2407.49 1715.34 2404.54 1709.73 2404.54 1702.56C2404.54 1696.09 2407.09 1690.66 2412.2 1686.25C2417.31 1681.84 2425.23 1679.64 2435.97 1679.64C2446.19 1679.64 2453.78 1681.3 2458.75 1684.63C2463.72 1687.96 2467.14 1692.88 2469.02 1699.4L2450.38 1702.84C2449.59 1699.94 2448.06 1697.71 2445.81 1696.16C2443.61 1694.62 2440.45 1693.84 2436.32 1693.84C2431.12 1693.84 2427.39 1694.57 2425.14 1696.02C2423.64 1697.05 2422.89 1698.39 2422.89 1700.03C2422.89 1701.44 2423.55 1702.63 2424.86 1703.62C2426.64 1704.93 2432.78 1706.78 2443.28 1709.17C2453.83 1711.56 2461.19 1714.49 2465.36 1717.96C2469.48 1721.48 2471.55 1726.38 2471.55 1732.66C2471.55 1739.5 2468.69 1745.38 2462.97 1750.3C2457.25 1755.23 2448.79 1757.69 2437.59 1757.69C2427.41 1757.69 2419.35 1755.62 2413.4 1751.5C2407.49 1747.38 2403.62 1741.77 2401.8 1734.7ZM2481.95 1734.7L2501.78 1731.67C2502.62 1735.52 2504.34 1738.45 2506.91 1740.46C2509.49 1742.43 2513.1 1743.41 2517.74 1743.41C2522.85 1743.41 2526.7 1742.48 2529.27 1740.6C2531.01 1739.29 2531.88 1737.53 2531.88 1735.33C2531.88 1733.83 2531.41 1732.59 2530.47 1731.6C2529.48 1730.66 2527.28 1729.8 2523.86 1729C2507.92 1725.48 2497.82 1722.27 2493.55 1719.37C2487.65 1715.34 2484.7 1709.73 2484.7 1702.56C2484.7 1696.09 2487.25 1690.66 2492.36 1686.25C2497.47 1681.84 2505.39 1679.64 2516.12 1679.64C2526.34 1679.64 2533.94 1681.3 2538.91 1684.63C2543.88 1687.96 2547.3 1692.88 2549.17 1699.4L2530.54 1702.84C2529.74 1699.94 2528.22 1697.71 2525.97 1696.16C2523.77 1694.62 2520.6 1693.84 2516.48 1693.84C2511.27 1693.84 2507.55 1694.57 2505.3 1696.02C2503.8 1697.05 2503.05 1698.39 2503.05 1700.03C2503.05 1701.44 2503.7 1702.63 2505.02 1703.62C2506.8 1704.93 2512.94 1706.78 2523.44 1709.17C2533.98 1711.56 2541.34 1714.49 2545.52 1717.96C2549.64 1721.48 2551.7 1726.38 2551.7 1732.66C2551.7 1739.5 2548.84 1745.38 2543.12 1750.3C2537.41 1755.23 2528.95 1757.69 2517.74 1757.69C2507.57 1757.69 2499.51 1755.62 2493.55 1751.5C2487.65 1747.38 2483.78 1741.77 2481.95 1734.7Z" fill="black"/>
<path d="M1377.67 629.922H1398.41V695.172C1398.41 703.703 1397.66 710.266 1396.16 714.859C1394.15 720.859 1390.49 725.688 1385.2 729.344C1379.9 732.953 1372.91 734.758 1364.24 734.758C1354.07 734.758 1346.24 731.922 1340.76 726.25C1335.27 720.531 1332.51 712.164 1332.46 701.148L1352.08 698.898C1352.31 704.805 1353.18 708.977 1354.68 711.414C1356.93 715.117 1360.35 716.969 1364.95 716.969C1369.59 716.969 1372.87 715.656 1374.79 713.031C1376.71 710.359 1377.67 704.852 1377.67 696.508V629.922ZM1415.92 694.609C1415.92 688.047 1417.54 681.695 1420.77 675.555C1424.01 669.414 1428.58 664.727 1434.48 661.492C1440.44 658.258 1447.07 656.641 1454.38 656.641C1465.68 656.641 1474.94 660.32 1482.16 667.68C1489.38 674.992 1492.98 684.25 1492.98 695.453C1492.98 706.75 1489.33 716.125 1482.02 723.578C1474.75 730.984 1465.59 734.688 1454.52 734.688C1447.68 734.688 1441.14 733.141 1434.91 730.047C1428.72 726.953 1424.01 722.43 1420.77 716.477C1417.54 710.477 1415.92 703.188 1415.92 694.609ZM1436.17 695.664C1436.17 703.07 1437.93 708.742 1441.45 712.68C1444.96 716.617 1449.3 718.586 1454.45 718.586C1459.61 718.586 1463.92 716.617 1467.39 712.68C1470.91 708.742 1472.66 703.023 1472.66 695.523C1472.66 688.211 1470.91 682.586 1467.39 678.648C1463.92 674.711 1459.61 672.742 1454.45 672.742C1449.3 672.742 1444.96 674.711 1441.45 678.648C1437.93 682.586 1436.17 688.258 1436.17 695.664ZM1499.17 658.328H1520.2L1538.05 711.344L1555.49 658.328H1575.95L1549.59 730.188L1544.88 743.195C1543.14 747.555 1541.48 750.883 1539.88 753.18C1538.34 755.477 1536.53 757.328 1534.47 758.734C1532.45 760.188 1529.95 761.312 1526.95 762.109C1523.99 762.906 1520.64 763.305 1516.89 763.305C1513.09 763.305 1509.37 762.906 1505.71 762.109L1503.95 746.641C1507.05 747.25 1509.84 747.555 1512.32 747.555C1516.91 747.555 1520.31 746.195 1522.52 743.477C1524.72 740.805 1526.41 737.383 1527.58 733.211L1499.17 658.328Z" fill="black"/>
<path d="M2873.62 1750V1646.92H2944.28V1664.36H2894.43V1688.76H2937.46V1706.2H2894.43V1750H2873.62ZM3004.61 1726.23L3024.3 1729.54C3021.77 1736.76 3017.76 1742.27 3012.27 1746.06C3006.84 1749.81 3000.02 1751.69 2991.81 1751.69C2978.83 1751.69 2969.22 1747.45 2962.98 1738.96C2958.06 1732.16 2955.6 1723.59 2955.6 1713.23C2955.6 1700.85 2958.84 1691.17 2965.3 1684.19C2971.77 1677.16 2979.95 1673.64 2989.84 1673.64C3000.95 1673.64 3009.72 1677.32 3016.14 1684.68C3022.56 1691.99 3025.63 1703.22 3025.35 1718.36H2975.85C2975.99 1724.22 2977.59 1728.79 2980.63 1732.07C2983.68 1735.3 2987.48 1736.92 2992.02 1736.92C2995.12 1736.92 2997.72 1736.08 2999.83 1734.39C3001.94 1732.7 3003.53 1729.98 3004.61 1726.23ZM3005.73 1706.27C3005.59 1700.55 3004.12 1696.21 3001.3 1693.26C2998.49 1690.26 2995.07 1688.76 2991.04 1688.76C2986.73 1688.76 2983.16 1690.33 2980.35 1693.47C2977.54 1696.61 2976.16 1700.88 2976.2 1706.27H3005.73ZM3056.29 1698.11L3038.36 1694.88C3040.38 1687.66 3043.84 1682.31 3048.77 1678.84C3053.69 1675.38 3061 1673.64 3070.7 1673.64C3079.52 1673.64 3086.08 1674.7 3090.39 1676.8C3094.7 1678.87 3097.73 1681.52 3099.46 1684.75C3101.24 1687.94 3102.13 1693.82 3102.13 1702.4L3101.92 1725.46C3101.92 1732.02 3102.23 1736.88 3102.84 1740.02C3103.49 1743.11 3104.69 1746.44 3106.42 1750H3086.88C3086.36 1748.69 3085.73 1746.74 3084.98 1744.16C3084.65 1742.99 3084.41 1742.22 3084.27 1741.84C3080.9 1745.12 3077.29 1747.59 3073.45 1749.23C3069.6 1750.87 3065.5 1751.69 3061.14 1751.69C3053.45 1751.69 3047.38 1749.6 3042.93 1745.43C3038.52 1741.26 3036.32 1735.98 3036.32 1729.61C3036.32 1725.39 3037.33 1721.64 3039.34 1718.36C3041.36 1715.03 3044.17 1712.5 3047.78 1710.77C3051.44 1708.98 3056.69 1707.44 3063.53 1706.12C3072.77 1704.39 3079.16 1702.77 3082.73 1701.27V1699.3C3082.73 1695.51 3081.79 1692.81 3079.91 1691.22C3078.04 1689.58 3074.5 1688.76 3069.3 1688.76C3065.78 1688.76 3063.04 1689.46 3061.07 1690.87C3059.1 1692.23 3057.51 1694.64 3056.29 1698.11ZM3082.73 1714.14C3080.2 1714.98 3076.19 1715.99 3070.7 1717.16C3065.22 1718.34 3061.63 1719.48 3059.95 1720.61C3057.37 1722.44 3056.08 1724.76 3056.08 1727.57C3056.08 1730.34 3057.11 1732.73 3059.17 1734.74C3061.23 1736.76 3063.86 1737.77 3067.05 1737.77C3070.61 1737.77 3074.01 1736.59 3077.24 1734.25C3079.63 1732.47 3081.2 1730.29 3081.95 1727.71C3082.47 1726.02 3082.73 1722.81 3082.73 1718.08V1714.14ZM3140.59 1750H3120.84V1675.33H3139.19V1685.95C3142.33 1680.93 3145.14 1677.62 3147.62 1676.03C3150.16 1674.44 3153.02 1673.64 3156.2 1673.64C3160.7 1673.64 3165.04 1674.88 3169.21 1677.37L3163.09 1694.59C3159.77 1692.44 3156.67 1691.36 3153.81 1691.36C3151.05 1691.36 3148.7 1692.13 3146.78 1693.68C3144.86 1695.18 3143.34 1697.92 3142.21 1701.91C3141.13 1705.89 3140.59 1714.23 3140.59 1726.94V1750Z" fill="black"/>
<path d="M2098.68 750V664.359H2068.09V646.922H2150.01V664.359H2119.49V750H2098.68ZM2174.27 750H2154.51V675.328H2172.86V685.945C2176 680.93 2178.81 677.625 2181.3 676.031C2183.83 674.438 2186.69 673.641 2189.88 673.641C2194.38 673.641 2198.71 674.883 2202.88 677.367L2196.77 694.594C2193.44 692.438 2190.34 691.359 2187.48 691.359C2184.72 691.359 2182.38 692.133 2180.45 693.68C2178.53 695.18 2177.01 697.922 2175.88 701.906C2174.8 705.891 2174.27 714.234 2174.27 726.938V750ZM2260.61 750V738.82C2257.89 742.805 2254.3 745.945 2249.85 748.242C2245.45 750.539 2240.78 751.688 2235.86 751.688C2230.84 751.688 2226.34 750.586 2222.36 748.383C2218.38 746.18 2215.49 743.086 2213.71 739.102C2211.93 735.117 2211.04 729.609 2211.04 722.578V675.328H2230.8V709.641C2230.8 720.141 2231.15 726.586 2231.85 728.977C2232.6 731.32 2233.94 733.195 2235.86 734.602C2237.78 735.961 2240.22 736.641 2243.17 736.641C2246.55 736.641 2249.57 735.727 2252.24 733.898C2254.91 732.023 2256.74 729.727 2257.73 727.008C2258.71 724.242 2259.2 717.516 2259.2 706.828V675.328H2278.96V750H2260.61ZM2292.53 728.695L2312.36 725.672C2313.2 729.516 2314.91 732.445 2317.49 734.461C2320.07 736.43 2323.68 737.414 2328.32 737.414C2333.43 737.414 2337.27 736.477 2339.85 734.602C2341.59 733.289 2342.45 731.531 2342.45 729.328C2342.45 727.828 2341.98 726.586 2341.05 725.602C2340.06 724.664 2337.86 723.797 2334.44 723C2318.5 719.484 2308.4 716.273 2304.13 713.367C2298.23 709.336 2295.27 703.734 2295.27 696.562C2295.27 690.094 2297.83 684.656 2302.94 680.25C2308.05 675.844 2315.97 673.641 2326.7 673.641C2336.92 673.641 2344.52 675.305 2349.48 678.633C2354.45 681.961 2357.88 686.883 2359.75 693.398L2341.12 696.844C2340.32 693.938 2338.8 691.711 2336.55 690.164C2334.34 688.617 2331.18 687.844 2327.05 687.844C2321.85 687.844 2318.12 688.57 2315.88 690.023C2314.38 691.055 2313.62 692.391 2313.62 694.031C2313.62 695.438 2314.28 696.633 2315.59 697.617C2317.38 698.93 2323.52 700.781 2334.02 703.172C2344.56 705.562 2351.92 708.492 2356.09 711.961C2360.22 715.477 2362.28 720.375 2362.28 726.656C2362.28 733.5 2359.42 739.383 2353.7 744.305C2347.98 749.227 2339.52 751.688 2328.32 751.688C2318.15 751.688 2310.09 749.625 2304.13 745.5C2298.23 741.375 2294.36 735.773 2292.53 728.695ZM2413.89 675.328V691.078H2400.39V721.172C2400.39 727.266 2400.51 730.828 2400.74 731.859C2401.02 732.844 2401.61 733.664 2402.5 734.32C2403.44 734.977 2404.56 735.305 2405.88 735.305C2407.7 735.305 2410.35 734.672 2413.82 733.406L2415.51 748.734C2410.91 750.703 2405.71 751.688 2399.9 751.688C2396.34 751.688 2393.12 751.102 2390.27 749.93C2387.41 748.711 2385.3 747.164 2383.94 745.289C2382.62 743.367 2381.71 740.789 2381.2 737.555C2380.77 735.258 2380.56 730.617 2380.56 723.633V691.078H2371.49V675.328H2380.56V660.492L2400.39 648.961V675.328H2413.89Z" fill="black"/>
<path d="M581.43 1736H558.789L549.789 1712.59H508.586L500.078 1736H478L518.148 1632.92H540.156L581.43 1736ZM543.109 1695.22L528.906 1656.97L514.984 1695.22H543.109ZM660.32 1736H640.562V1697.89C640.562 1689.83 640.141 1684.62 639.297 1682.28C638.453 1679.89 637.07 1678.04 635.148 1676.73C633.273 1675.41 631 1674.76 628.328 1674.76C624.906 1674.76 621.836 1675.7 619.117 1677.57C616.398 1679.45 614.523 1681.93 613.492 1685.02C612.508 1688.12 612.016 1693.84 612.016 1702.18V1736H592.258V1661.33H610.609V1672.3C617.125 1663.86 625.328 1659.64 635.219 1659.64C639.578 1659.64 643.562 1660.44 647.172 1662.03C650.781 1663.58 653.5 1665.57 655.328 1668.01C657.203 1670.45 658.492 1673.21 659.195 1676.3C659.945 1679.4 660.32 1683.83 660.32 1689.59V1736ZM678.602 1740.92L701.172 1743.66C701.547 1746.29 702.414 1748.09 703.773 1749.08C705.648 1750.48 708.602 1751.19 712.633 1751.19C717.789 1751.19 721.656 1750.41 724.234 1748.87C725.969 1747.84 727.281 1746.17 728.172 1743.88C728.781 1742.23 729.086 1739.21 729.086 1734.8V1723.91C723.18 1731.97 715.727 1736 706.727 1736C696.695 1736 688.75 1731.76 682.891 1723.27C678.297 1716.57 676 1708.23 676 1698.24C676 1685.73 679 1676.16 685 1669.55C691.047 1662.95 698.547 1659.64 707.5 1659.64C716.734 1659.64 724.352 1663.7 730.352 1671.8V1661.33H748.844V1728.34C748.844 1737.15 748.117 1743.73 746.664 1748.09C745.211 1752.45 743.172 1755.88 740.547 1758.36C737.922 1760.84 734.406 1762.79 730 1764.2C725.641 1765.6 720.109 1766.3 713.406 1766.3C700.75 1766.3 691.773 1764.12 686.477 1759.77C681.18 1755.45 678.531 1749.97 678.531 1743.31C678.531 1742.66 678.555 1741.86 678.602 1740.92ZM696.25 1697.12C696.25 1705.04 697.773 1710.85 700.82 1714.55C703.914 1718.21 707.711 1720.04 712.211 1720.04C717.039 1720.04 721.117 1718.16 724.445 1714.41C727.773 1710.62 729.438 1705.02 729.438 1697.61C729.438 1689.88 727.844 1684.13 724.656 1680.38C721.469 1676.63 717.438 1674.76 712.562 1674.76C707.828 1674.76 703.914 1676.61 700.82 1680.31C697.773 1683.97 696.25 1689.57 696.25 1697.12ZM811.703 1712.23L831.391 1715.54C828.859 1722.76 824.852 1728.27 819.367 1732.06C813.93 1735.81 807.109 1737.69 798.906 1737.69C785.922 1737.69 776.312 1733.45 770.078 1724.96C765.156 1718.16 762.695 1709.59 762.695 1699.23C762.695 1686.85 765.93 1677.17 772.398 1670.19C778.867 1663.16 787.047 1659.64 796.938 1659.64C808.047 1659.64 816.812 1663.32 823.234 1670.68C829.656 1677.99 832.727 1689.22 832.445 1704.36H782.945C783.086 1710.22 784.68 1714.79 787.727 1718.07C790.773 1721.3 794.57 1722.92 799.117 1722.92C802.211 1722.92 804.812 1722.08 806.922 1720.39C809.031 1718.7 810.625 1715.98 811.703 1712.23ZM812.828 1692.27C812.688 1686.55 811.211 1682.21 808.398 1679.26C805.586 1676.26 802.164 1674.76 798.133 1674.76C793.82 1674.76 790.258 1676.33 787.445 1679.47C784.633 1682.61 783.25 1686.88 783.297 1692.27H812.828ZM867.531 1736H847.773V1661.33H866.125V1671.95C869.266 1666.93 872.078 1663.62 874.562 1662.03C877.094 1660.44 879.953 1659.64 883.141 1659.64C887.641 1659.64 891.977 1660.88 896.148 1663.37L890.031 1680.59C886.703 1678.44 883.609 1677.36 880.75 1677.36C877.984 1677.36 875.641 1678.13 873.719 1679.68C871.797 1681.18 870.273 1683.92 869.148 1687.91C868.07 1691.89 867.531 1700.23 867.531 1712.94V1736Z" fill="black"/>
<path d="M347.43 734H324.789L315.789 710.586H274.586L266.078 734H244L284.148 630.922H306.156L347.43 734ZM309.109 693.219L294.906 654.969L280.984 693.219H309.109ZM426.32 734H406.562V695.891C406.562 687.828 406.141 682.625 405.297 680.281C404.453 677.891 403.07 676.039 401.148 674.727C399.273 673.414 397 672.758 394.328 672.758C390.906 672.758 387.836 673.695 385.117 675.57C382.398 677.445 380.523 679.93 379.492 683.023C378.508 686.117 378.016 691.836 378.016 700.18V734H358.258V659.328H376.609V670.297C383.125 661.859 391.328 657.641 401.219 657.641C405.578 657.641 409.562 658.438 413.172 660.031C416.781 661.578 419.5 663.57 421.328 666.008C423.203 668.445 424.492 671.211 425.195 674.305C425.945 677.398 426.32 681.828 426.32 687.594V734ZM480.672 659.328V675.078H467.172V705.172C467.172 711.266 467.289 714.828 467.523 715.859C467.805 716.844 468.391 717.664 469.281 718.32C470.219 718.977 471.344 719.305 472.656 719.305C474.484 719.305 477.133 718.672 480.602 717.406L482.289 732.734C477.695 734.703 472.492 735.688 466.68 735.688C463.117 735.688 459.906 735.102 457.047 733.93C454.188 732.711 452.078 731.164 450.719 729.289C449.406 727.367 448.492 724.789 447.977 721.555C447.555 719.258 447.344 714.617 447.344 707.633V675.078H438.273V659.328H447.344V644.492L467.172 632.961V659.328H480.672ZM494.383 649.203V630.922H514.141V649.203H494.383ZM494.383 734V659.328H514.141V734H494.383ZM599.57 681.406L580.094 684.922C579.438 681.031 577.938 678.102 575.594 676.133C573.297 674.164 570.297 673.18 566.594 673.18C561.672 673.18 557.734 674.891 554.781 678.312C551.875 681.688 550.422 687.359 550.422 695.328C550.422 704.188 551.898 710.445 554.852 714.102C557.852 717.758 561.859 719.586 566.875 719.586C570.625 719.586 573.695 718.531 576.086 716.422C578.477 714.266 580.164 710.586 581.148 705.383L600.555 708.688C598.539 717.594 594.672 724.32 588.953 728.867C583.234 733.414 575.57 735.688 565.961 735.688C555.039 735.688 546.32 732.242 539.805 725.352C533.336 718.461 530.102 708.922 530.102 696.734C530.102 684.406 533.359 674.82 539.875 667.977C546.391 661.086 555.203 657.641 566.312 657.641C575.406 657.641 582.625 659.609 587.969 663.547C593.359 667.438 597.227 673.391 599.57 681.406ZM614.617 649.203V630.922H634.375V649.203H614.617ZM614.617 734V659.328H634.375V734H614.617ZM654.133 659.328H672.555V670.297C674.945 666.547 678.18 663.5 682.258 661.156C686.336 658.812 690.859 657.641 695.828 657.641C704.5 657.641 711.859 661.039 717.906 667.836C723.953 674.633 726.977 684.102 726.977 696.242C726.977 708.711 723.93 718.414 717.836 725.352C711.742 732.242 704.359 735.688 695.688 735.688C691.562 735.688 687.812 734.867 684.438 733.227C681.109 731.586 677.594 728.773 673.891 724.789V762.406H654.133V659.328ZM673.68 695.398C673.68 703.789 675.344 710 678.672 714.031C682 718.016 686.055 720.008 690.836 720.008C695.43 720.008 699.25 718.18 702.297 714.523C705.344 710.82 706.867 704.773 706.867 696.383C706.867 688.555 705.297 682.742 702.156 678.945C699.016 675.148 695.125 673.25 690.484 673.25C685.656 673.25 681.648 675.125 678.461 678.875C675.273 682.578 673.68 688.086 673.68 695.398ZM757.492 682.109L739.562 678.875C741.578 671.656 745.047 666.312 749.969 662.844C754.891 659.375 762.203 657.641 771.906 657.641C780.719 657.641 787.281 658.695 791.594 660.805C795.906 662.867 798.93 665.516 800.664 668.75C802.445 671.938 803.336 677.82 803.336 686.398L803.125 709.461C803.125 716.023 803.43 720.875 804.039 724.016C804.695 727.109 805.891 730.438 807.625 734H788.078C787.562 732.688 786.93 730.742 786.18 728.164C785.852 726.992 785.617 726.219 785.477 725.844C782.102 729.125 778.492 731.586 774.648 733.227C770.805 734.867 766.703 735.688 762.344 735.688C754.656 735.688 748.586 733.602 744.133 729.43C739.727 725.258 737.523 719.984 737.523 713.609C737.523 709.391 738.531 705.641 740.547 702.359C742.562 699.031 745.375 696.5 748.984 694.766C752.641 692.984 757.891 691.438 764.734 690.125C773.969 688.391 780.367 686.773 783.93 685.273V683.305C783.93 679.508 782.992 676.812 781.117 675.219C779.242 673.578 775.703 672.758 770.5 672.758C766.984 672.758 764.242 673.461 762.273 674.867C760.305 676.227 758.711 678.641 757.492 682.109ZM783.93 698.141C781.398 698.984 777.391 699.992 771.906 701.164C766.422 702.336 762.836 703.484 761.148 704.609C758.57 706.438 757.281 708.758 757.281 711.57C757.281 714.336 758.312 716.727 760.375 718.742C762.438 720.758 765.062 721.766 768.25 721.766C771.812 721.766 775.211 720.594 778.445 718.25C780.836 716.469 782.406 714.289 783.156 711.711C783.672 710.023 783.93 706.812 783.93 702.078V698.141ZM857.125 659.328V675.078H843.625V705.172C843.625 711.266 843.742 714.828 843.977 715.859C844.258 716.844 844.844 717.664 845.734 718.32C846.672 718.977 847.797 719.305 849.109 719.305C850.938 719.305 853.586 718.672 857.055 717.406L858.742 732.734C854.148 734.703 848.945 735.688 843.133 735.688C839.57 735.688 836.359 735.102 833.5 733.93C830.641 732.711 828.531 731.164 827.172 729.289C825.859 727.367 824.945 724.789 824.43 721.555C824.008 719.258 823.797 714.617 823.797 707.633V675.078H814.727V659.328H823.797V644.492L843.625 632.961V659.328H857.125ZM870.836 649.203V630.922H890.594V649.203H870.836ZM870.836 734V659.328H890.594V734H870.836ZM906.344 695.609C906.344 689.047 907.961 682.695 911.195 676.555C914.43 670.414 919 665.727 924.906 662.492C930.859 659.258 937.492 657.641 944.805 657.641C956.102 657.641 965.359 661.32 972.578 668.68C979.797 675.992 983.406 685.25 983.406 696.453C983.406 707.75 979.75 717.125 972.438 724.578C965.172 731.984 956.008 735.688 944.945 735.688C938.102 735.688 931.562 734.141 925.328 731.047C919.141 727.953 914.43 723.43 911.195 717.477C907.961 711.477 906.344 704.188 906.344 695.609ZM926.594 696.664C926.594 704.07 928.352 709.742 931.867 713.68C935.383 717.617 939.719 719.586 944.875 719.586C950.031 719.586 954.344 717.617 957.812 713.68C961.328 709.742 963.086 704.023 963.086 696.523C963.086 689.211 961.328 683.586 957.812 679.648C954.344 675.711 950.031 673.742 944.875 673.742C939.719 673.742 935.383 675.711 931.867 679.648C928.352 683.586 926.594 689.258 926.594 696.664ZM1066.87 734H1047.11V695.891C1047.11 687.828 1046.69 682.625 1045.84 680.281C1045 677.891 1043.62 676.039 1041.7 674.727C1039.82 673.414 1037.55 672.758 1034.88 672.758C1031.45 672.758 1028.38 673.695 1025.66 675.57C1022.95 677.445 1021.07 679.93 1020.04 683.023C1019.05 686.117 1018.56 691.836 1018.56 700.18V734H998.805V659.328H1017.16V670.297C1023.67 661.859 1031.88 657.641 1041.77 657.641C1046.12 657.641 1050.11 658.438 1053.72 660.031C1057.33 661.578 1060.05 663.57 1061.88 666.008C1063.75 668.445 1065.04 671.211 1065.74 674.305C1066.49 677.398 1066.87 681.828 1066.87 687.594V734Z" fill="black"/>
</g>
<defs>
<clipPath id="clip0_195_126">
<rect width="3707" height="2363" fill="white"/>
</clipPath>
</defs>
</svg>
