<svg width="2794" height="4486" viewBox="0 0 2794 4486" fill="none" xmlns="http://www.w3.org/2000/svg">
<circle cx="2544" cy="250" r="250" fill="#FF0000"/>
<circle cx="2544" cy="1582" r="250" fill="#FF6699"/>
<circle cx="2544" cy="931" r="250" fill="#FF6600"/>
<circle cx="2544" cy="2233" r="250" fill="#FFFF00"/>
<circle cx="2544" cy="4236" r="250" fill="#996633"/>
<circle cx="2544" cy="3555" r="250" fill="#33ADFF"/>
<circle cx="2544" cy="2874" r="250" fill="#CC00FF"/>
<path d="M129.287 262H100.986L89.7363 232.732H38.2324L27.5977 262H0L50.1855 133.152H77.6953L129.287 262ZM81.3867 211.023L63.6328 163.211L46.2305 211.023H81.3867ZM142.998 262V133.152H167.695V262H142.998ZM193.096 262V133.152H217.793V262H193.096ZM397.178 245.652C403.564 250.223 410.508 253.855 418.008 256.551L408.428 274.92C404.502 273.748 400.664 272.137 396.914 270.086C396.094 269.676 390.322 265.867 379.6 258.66C371.162 262.352 361.816 264.197 351.562 264.197C331.758 264.197 316.23 258.367 304.98 246.707C293.789 235.047 288.193 218.67 288.193 197.576C288.193 176.541 293.818 160.193 305.068 148.533C316.318 136.814 331.582 130.955 350.859 130.955C369.961 130.955 385.107 136.814 396.299 148.533C407.49 160.193 413.086 176.541 413.086 197.576C413.086 208.709 411.533 218.494 408.428 226.932C406.084 233.377 402.334 239.617 397.178 245.652ZM376.26 230.975C379.6 227.049 382.09 222.303 383.73 216.736C385.43 211.17 386.279 204.783 386.279 197.576C386.279 182.693 382.998 171.59 376.436 164.266C369.873 156.883 361.289 153.191 350.684 153.191C340.078 153.191 331.465 156.883 324.844 164.266C318.281 171.648 315 182.752 315 197.576C315 212.635 318.281 223.914 324.844 231.414C331.465 238.855 339.814 242.576 349.893 242.576C353.643 242.576 357.188 241.961 360.527 240.73C355.254 237.273 349.893 234.578 344.443 232.645L351.738 217.791C360.293 220.721 368.467 225.115 376.26 230.975ZM494.824 262V248.025C491.426 253.006 486.943 256.932 481.377 259.803C475.869 262.674 470.039 264.109 463.887 264.109C457.617 264.109 451.992 262.732 447.012 259.979C442.031 257.225 438.428 253.357 436.201 248.377C433.975 243.396 432.861 236.512 432.861 227.723V168.66H457.559V211.551C457.559 224.676 457.998 232.732 458.877 235.721C459.814 238.65 461.484 240.994 463.887 242.752C466.289 244.451 469.336 245.301 473.027 245.301C477.246 245.301 481.025 244.158 484.365 241.873C487.705 239.529 489.99 236.658 491.221 233.26C492.451 229.803 493.066 221.395 493.066 208.035V168.66H517.764V262H494.824ZM543.428 156.004V133.152H568.125V156.004H543.428ZM543.428 262V168.66H568.125V262H543.428ZM647.578 232.293L672.188 236.424C669.023 245.447 664.014 252.332 657.158 257.078C650.361 261.766 641.836 264.109 631.582 264.109C615.352 264.109 603.34 258.807 595.547 248.201C589.395 239.705 586.318 228.982 586.318 216.033C586.318 200.564 590.361 188.465 598.447 179.734C606.533 170.945 616.758 166.551 629.121 166.551C643.008 166.551 653.965 171.15 661.992 180.35C670.02 189.49 673.857 203.523 673.506 222.449H611.631C611.807 229.773 613.799 235.486 617.607 239.588C621.416 243.631 626.162 245.652 631.846 245.652C635.713 245.652 638.965 244.598 641.602 242.488C644.238 240.379 646.23 236.98 647.578 232.293ZM648.984 207.332C648.809 200.184 646.963 194.764 643.447 191.072C639.932 187.322 635.654 185.447 630.615 185.447C625.225 185.447 620.771 187.41 617.256 191.336C613.74 195.262 612.012 200.594 612.07 207.332H648.984ZM736.523 168.66V188.348H719.648V225.965C719.648 233.582 719.795 238.035 720.088 239.324C720.439 240.555 721.172 241.58 722.285 242.4C723.457 243.221 724.863 243.631 726.504 243.631C728.789 243.631 732.1 242.84 736.436 241.258L738.545 260.418C732.803 262.879 726.299 264.109 719.033 264.109C714.58 264.109 710.566 263.377 706.992 261.912C703.418 260.389 700.781 258.455 699.082 256.111C697.441 253.709 696.299 250.486 695.654 246.443C695.127 243.572 694.863 237.771 694.863 229.041V188.348H683.525V168.66H694.863V150.115L719.648 135.701V168.66H736.523ZM798.047 214.012C798.047 205.809 800.068 197.869 804.111 190.193C808.154 182.518 813.867 176.658 821.25 172.615C828.691 168.572 836.982 166.551 846.123 166.551C860.244 166.551 871.816 171.15 880.84 180.35C889.863 189.49 894.375 201.062 894.375 215.066C894.375 229.188 889.805 240.906 880.664 250.223C871.582 259.48 860.127 264.109 846.299 264.109C837.744 264.109 829.57 262.176 821.777 258.309C814.043 254.441 808.154 248.787 804.111 241.346C800.068 233.846 798.047 224.734 798.047 214.012ZM823.359 215.33C823.359 224.588 825.557 231.678 829.951 236.6C834.346 241.521 839.766 243.982 846.211 243.982C852.656 243.982 858.047 241.521 862.383 236.6C866.777 231.678 868.975 224.529 868.975 215.154C868.975 206.014 866.777 198.982 862.383 194.061C858.047 189.139 852.656 186.678 846.211 186.678C839.766 186.678 834.346 189.139 829.951 194.061C825.557 198.982 823.359 206.072 823.359 215.33ZM998.701 262H974.004V214.363C974.004 204.285 973.477 197.781 972.422 194.852C971.367 191.863 969.639 189.549 967.236 187.908C964.893 186.268 962.051 185.447 958.711 185.447C954.434 185.447 950.596 186.619 947.197 188.963C943.799 191.307 941.455 194.412 940.166 198.279C938.936 202.146 938.32 209.295 938.32 219.725V262H913.623V168.66H936.562V182.371C944.707 171.824 954.961 166.551 967.324 166.551C972.773 166.551 977.754 167.547 982.266 169.539C986.777 171.473 990.176 173.963 992.461 177.01C994.805 180.057 996.416 183.514 997.295 187.381C998.232 191.248 998.701 196.785 998.701 203.992V262ZM1116.74 168.66V188.348H1099.86V225.965C1099.86 233.582 1100.01 238.035 1100.3 239.324C1100.65 240.555 1101.39 241.58 1102.5 242.4C1103.67 243.221 1105.08 243.631 1106.72 243.631C1109 243.631 1112.31 242.84 1116.65 241.258L1118.76 260.418C1113.02 262.879 1106.51 264.109 1099.25 264.109C1094.79 264.109 1090.78 263.377 1087.21 261.912C1083.63 260.389 1081 258.455 1079.3 256.111C1077.66 253.709 1076.51 250.486 1075.87 246.443C1075.34 243.572 1075.08 237.771 1075.08 229.041V188.348H1063.74V168.66H1075.08V150.115L1099.86 135.701V168.66H1116.74ZM1158.49 133.152V180.525C1166.46 171.209 1175.98 166.551 1187.05 166.551C1192.73 166.551 1197.86 167.605 1202.43 169.715C1207 171.824 1210.43 174.52 1212.71 177.801C1215.06 181.082 1216.64 184.715 1217.46 188.699C1218.34 192.684 1218.78 198.865 1218.78 207.244V262H1194.08V212.693C1194.08 202.908 1193.61 196.697 1192.68 194.061C1191.74 191.424 1190.07 189.344 1187.67 187.82C1185.32 186.238 1182.36 185.447 1178.79 185.447C1174.69 185.447 1171.03 186.443 1167.8 188.436C1164.58 190.428 1162.21 193.445 1160.68 197.488C1159.22 201.473 1158.49 207.391 1158.49 215.242V262H1133.79V133.152H1158.49ZM1297.97 232.293L1322.58 236.424C1319.41 245.447 1314.4 252.332 1307.55 257.078C1300.75 261.766 1292.23 264.109 1281.97 264.109C1265.74 264.109 1253.73 258.807 1245.94 248.201C1239.79 239.705 1236.71 228.982 1236.71 216.033C1236.71 200.564 1240.75 188.465 1248.84 179.734C1256.92 170.945 1267.15 166.551 1279.51 166.551C1293.4 166.551 1304.36 171.15 1312.38 180.35C1320.41 189.49 1324.25 203.523 1323.9 222.449H1262.02C1262.2 229.773 1264.19 235.486 1268 239.588C1271.81 243.631 1276.55 245.652 1282.24 245.652C1286.1 245.652 1289.36 244.598 1291.99 242.488C1294.63 240.379 1296.62 236.98 1297.97 232.293ZM1299.38 207.332C1299.2 200.184 1297.35 194.764 1293.84 191.072C1290.32 187.322 1286.04 185.447 1281.01 185.447C1275.62 185.447 1271.16 187.41 1267.65 191.336C1264.13 195.262 1262.4 200.594 1262.46 207.332H1299.38ZM1462.76 262L1432 133.152H1458.63L1478.06 221.658L1501.61 133.152H1532.55L1555.14 223.152L1574.91 133.152H1601.1L1569.81 262H1542.22L1516.55 165.672L1490.98 262H1462.76ZM1665 232.293L1689.61 236.424C1686.45 245.447 1681.44 252.332 1674.58 257.078C1667.78 261.766 1659.26 264.109 1649 264.109C1632.77 264.109 1620.76 258.807 1612.97 248.201C1606.82 239.705 1603.74 228.982 1603.74 216.033C1603.74 200.564 1607.78 188.465 1615.87 179.734C1623.96 170.945 1634.18 166.551 1646.54 166.551C1660.43 166.551 1671.39 171.15 1679.41 180.35C1687.44 189.49 1691.28 203.523 1690.93 222.449H1629.05C1629.23 229.773 1631.22 235.486 1635.03 239.588C1638.84 243.631 1643.58 245.652 1649.27 245.652C1653.13 245.652 1656.39 244.598 1659.02 242.488C1661.66 240.379 1663.65 236.98 1665 232.293ZM1666.41 207.332C1666.23 200.184 1664.38 194.764 1660.87 191.072C1657.35 187.322 1653.08 185.447 1648.04 185.447C1642.65 185.447 1638.19 187.41 1634.68 191.336C1631.16 195.262 1629.43 200.594 1629.49 207.332H1666.41ZM1702.44 235.369L1727.23 231.59C1728.28 236.395 1730.42 240.057 1733.64 242.576C1736.87 245.037 1741.38 246.268 1747.18 246.268C1753.56 246.268 1758.37 245.096 1761.59 242.752C1763.76 241.111 1764.84 238.914 1764.84 236.16C1764.84 234.285 1764.26 232.732 1763.09 231.502C1761.86 230.33 1759.1 229.246 1754.82 228.25C1734.9 223.855 1722.28 219.842 1716.94 216.209C1709.56 211.17 1705.87 204.168 1705.87 195.203C1705.87 187.117 1709.06 180.32 1715.45 174.812C1721.84 169.305 1731.74 166.551 1745.16 166.551C1757.93 166.551 1767.42 168.631 1773.63 172.791C1779.84 176.951 1784.12 183.104 1786.46 191.248L1763.17 195.555C1762.18 191.922 1760.27 189.139 1757.46 187.205C1754.71 185.271 1750.75 184.305 1745.6 184.305C1739.09 184.305 1734.43 185.213 1731.62 187.029C1729.75 188.318 1728.81 189.988 1728.81 192.039C1728.81 193.797 1729.63 195.291 1731.27 196.521C1733.5 198.162 1741.17 200.477 1754.3 203.465C1767.48 206.453 1776.68 210.115 1781.89 214.451C1787.05 218.846 1789.63 224.969 1789.63 232.82C1789.63 241.375 1786.05 248.729 1778.91 254.881C1771.76 261.033 1761.18 264.109 1747.18 264.109C1734.46 264.109 1724.38 261.531 1716.94 256.375C1709.56 251.219 1704.73 244.217 1702.44 235.369ZM1854.14 168.66V188.348H1837.27V225.965C1837.27 233.582 1837.41 238.035 1837.71 239.324C1838.06 240.555 1838.79 241.58 1839.9 242.4C1841.07 243.221 1842.48 243.631 1844.12 243.631C1846.41 243.631 1849.72 242.84 1854.05 241.258L1856.16 260.418C1850.42 262.879 1843.92 264.109 1836.65 264.109C1832.2 264.109 1828.18 263.377 1824.61 261.912C1821.04 260.389 1818.4 258.455 1816.7 256.111C1815.06 253.709 1813.92 250.486 1813.27 246.443C1812.74 243.572 1812.48 237.771 1812.48 229.041V188.348H1801.14V168.66H1812.48V150.115L1837.27 135.701V168.66H1854.14ZM1925.33 232.293L1949.94 236.424C1946.78 245.447 1941.77 252.332 1934.91 257.078C1928.12 261.766 1919.59 264.109 1909.34 264.109C1893.11 264.109 1881.09 258.807 1873.3 248.201C1867.15 239.705 1864.07 228.982 1864.07 216.033C1864.07 200.564 1868.12 188.465 1876.2 179.734C1884.29 170.945 1894.51 166.551 1906.88 166.551C1920.76 166.551 1931.72 171.15 1939.75 180.35C1947.77 189.49 1951.61 203.523 1951.26 222.449H1889.38C1889.56 229.773 1891.55 235.486 1895.36 239.588C1899.17 243.631 1903.92 245.652 1909.6 245.652C1913.47 245.652 1916.72 244.598 1919.36 242.488C1921.99 240.379 1923.98 236.98 1925.33 232.293ZM1926.74 207.332C1926.56 200.184 1924.72 194.764 1921.2 191.072C1917.69 187.322 1913.41 185.447 1908.37 185.447C1902.98 185.447 1898.53 187.41 1895.01 191.336C1891.49 195.262 1889.77 200.594 1889.82 207.332H1926.74ZM1995.12 262H1970.42V168.66H1993.36V181.932C1997.29 175.662 2000.8 171.531 2003.91 169.539C2007.07 167.547 2010.64 166.551 2014.63 166.551C2020.25 166.551 2025.67 168.104 2030.89 171.209L2023.24 192.742C2019.08 190.047 2015.21 188.699 2011.64 188.699C2008.18 188.699 2005.25 189.666 2002.85 191.6C2000.45 193.475 1998.54 196.902 1997.14 201.883C1995.79 206.863 1995.12 217.293 1995.12 233.172V262ZM2126.51 262H2101.82V214.363C2101.82 204.285 2101.29 197.781 2100.23 194.852C2099.18 191.863 2097.45 189.549 2095.05 187.908C2092.71 186.268 2089.86 185.447 2086.52 185.447C2082.25 185.447 2078.41 186.619 2075.01 188.963C2071.61 191.307 2069.27 194.412 2067.98 198.279C2066.75 202.146 2066.13 209.295 2066.13 219.725V262H2041.44V168.66H2064.38V182.371C2072.52 171.824 2082.77 166.551 2095.14 166.551C2100.59 166.551 2105.57 167.547 2110.08 169.539C2114.59 171.473 2117.99 173.963 2120.27 177.01C2122.62 180.057 2124.23 183.514 2125.11 187.381C2126.04 191.248 2126.51 196.785 2126.51 203.992V262ZM13.2715 469V340.152H101.602V361.949H39.2871V392.447H93.0762V414.244H39.2871V469H13.2715ZM146.602 469H121.904V375.66H144.844V388.932C148.77 382.662 152.285 378.531 155.391 376.539C158.555 374.547 162.129 373.551 166.113 373.551C171.738 373.551 177.158 375.104 182.373 378.209L174.727 399.742C170.566 397.047 166.699 395.699 163.125 395.699C159.668 395.699 156.738 396.666 154.336 398.6C151.934 400.475 150.029 403.902 148.623 408.883C147.275 413.863 146.602 424.293 146.602 440.172V469ZM187.383 421.012C187.383 412.809 189.404 404.869 193.447 397.193C197.49 389.518 203.203 383.658 210.586 379.615C218.027 375.572 226.318 373.551 235.459 373.551C249.58 373.551 261.152 378.15 270.176 387.35C279.199 396.49 283.711 408.062 283.711 422.066C283.711 436.188 279.141 447.906 270 457.223C260.918 466.48 249.463 471.109 235.635 471.109C227.08 471.109 218.906 469.176 211.113 465.309C203.379 461.441 197.49 455.787 193.447 448.346C189.404 440.846 187.383 431.734 187.383 421.012ZM212.695 422.33C212.695 431.588 214.893 438.678 219.287 443.6C223.682 448.521 229.102 450.982 235.547 450.982C241.992 450.982 247.383 448.521 251.719 443.6C256.113 438.678 258.311 431.529 258.311 422.154C258.311 413.014 256.113 405.982 251.719 401.061C247.383 396.139 241.992 393.678 235.547 393.678C229.102 393.678 223.682 396.139 219.287 401.061C214.893 405.982 212.695 413.072 212.695 422.33ZM388.037 469H363.34V421.363C363.34 411.285 362.812 404.781 361.758 401.852C360.703 398.863 358.975 396.549 356.572 394.908C354.229 393.268 351.387 392.447 348.047 392.447C343.77 392.447 339.932 393.619 336.533 395.963C333.135 398.307 330.791 401.412 329.502 405.279C328.271 409.146 327.656 416.295 327.656 426.725V469H302.959V375.66H325.898V389.371C334.043 378.824 344.297 373.551 356.66 373.551C362.109 373.551 367.09 374.547 371.602 376.539C376.113 378.473 379.512 380.963 381.797 384.01C384.141 387.057 385.752 390.514 386.631 394.381C387.568 398.248 388.037 403.785 388.037 410.992V469ZM455.977 375.66V395.348H439.102V432.965C439.102 440.582 439.248 445.035 439.541 446.324C439.893 447.555 440.625 448.58 441.738 449.4C442.91 450.221 444.316 450.631 445.957 450.631C448.242 450.631 451.553 449.84 455.889 448.258L457.998 467.418C452.256 469.879 445.752 471.109 438.486 471.109C434.033 471.109 430.02 470.377 426.445 468.912C422.871 467.389 420.234 465.455 418.535 463.111C416.895 460.709 415.752 457.486 415.107 453.443C414.58 450.572 414.316 444.771 414.316 436.041V395.348H402.979V375.66H414.316V357.115L439.102 342.701V375.66H455.977Z" fill="#FEFAFA"/>
<path d="M25.7441 963V834.152H64.6797L88.0586 922.043L111.174 834.152H150.197V963H126.027V861.574L100.451 963H75.4023L49.9141 861.574V963H25.7441ZM237.297 963V949.025C233.898 954.006 229.416 957.932 223.85 960.803C218.342 963.674 212.512 965.109 206.359 965.109C200.09 965.109 194.465 963.732 189.484 960.979C184.504 958.225 180.9 954.357 178.674 949.377C176.447 944.396 175.334 937.512 175.334 928.723V869.66H200.031V912.551C200.031 925.676 200.471 933.732 201.35 936.721C202.287 939.65 203.957 941.994 206.359 943.752C208.762 945.451 211.809 946.301 215.5 946.301C219.719 946.301 223.498 945.158 226.838 942.873C230.178 940.529 232.463 937.658 233.693 934.26C234.924 930.803 235.539 922.395 235.539 909.035V869.66H260.236V963H237.297ZM285.9 963V834.152H310.598V963H285.9ZM360.607 834.152V881.525C368.576 872.209 378.098 867.551 389.172 867.551C394.855 867.551 399.982 868.605 404.553 870.715C409.123 872.824 412.551 875.52 414.836 878.801C417.18 882.082 418.762 885.715 419.582 889.699C420.461 893.684 420.9 899.865 420.9 908.244V963H396.203V913.693C396.203 903.908 395.734 897.697 394.797 895.061C393.859 892.424 392.189 890.344 389.787 888.82C387.443 887.238 384.484 886.447 380.91 886.447C376.809 886.447 373.146 887.443 369.924 889.436C366.701 891.428 364.328 894.445 362.805 898.488C361.34 902.473 360.607 908.391 360.607 916.242V963H335.91V834.152H360.607ZM440.324 915.012C440.324 906.809 442.346 898.869 446.389 891.193C450.432 883.518 456.145 877.658 463.527 873.615C470.969 869.572 479.26 867.551 488.4 867.551C502.521 867.551 514.094 872.15 523.117 881.35C532.141 890.49 536.652 902.062 536.652 916.066C536.652 930.188 532.082 941.906 522.941 951.223C513.859 960.48 502.404 965.109 488.576 965.109C480.021 965.109 471.848 963.176 464.055 959.309C456.32 955.441 450.432 949.787 446.389 942.346C442.346 934.846 440.324 925.734 440.324 915.012ZM465.637 916.33C465.637 925.588 467.834 932.678 472.229 937.6C476.623 942.521 482.043 944.982 488.488 944.982C494.934 944.982 500.324 942.521 504.66 937.6C509.055 932.678 511.252 925.529 511.252 916.154C511.252 907.014 509.055 899.982 504.66 895.061C500.324 890.139 494.934 887.678 488.488 887.678C482.043 887.678 476.623 890.139 472.229 895.061C467.834 899.982 465.637 907.072 465.637 916.33ZM556.076 963V834.152H580.773V963H556.076ZM606.174 963V834.152H630.871V963H606.174ZM674.729 898.137L652.316 894.094C654.836 885.07 659.172 878.391 665.324 874.055C671.477 869.719 680.617 867.551 692.746 867.551C703.762 867.551 711.965 868.869 717.355 871.506C722.746 874.084 726.525 877.395 728.693 881.438C730.92 885.422 732.033 892.775 732.033 903.498L731.77 932.326C731.77 940.529 732.15 946.594 732.912 950.52C733.732 954.387 735.227 958.547 737.395 963H712.961C712.316 961.359 711.525 958.928 710.588 955.705C710.178 954.24 709.885 953.273 709.709 952.805C705.49 956.906 700.979 959.982 696.174 962.033C691.369 964.084 686.242 965.109 680.793 965.109C671.184 965.109 663.596 962.502 658.029 957.287C652.521 952.072 649.768 945.48 649.768 937.512C649.768 932.238 651.027 927.551 653.547 923.449C656.066 919.289 659.582 916.125 664.094 913.957C668.664 911.73 675.227 909.797 683.781 908.156C695.324 905.988 703.322 903.967 707.775 902.092V899.631C707.775 894.885 706.604 891.516 704.26 889.523C701.916 887.473 697.492 886.447 690.988 886.447C686.594 886.447 683.166 887.326 680.705 889.084C678.244 890.783 676.252 893.801 674.729 898.137ZM707.775 918.176C704.611 919.23 699.602 920.49 692.746 921.955C685.891 923.42 681.408 924.855 679.299 926.262C676.076 928.547 674.465 931.447 674.465 934.963C674.465 938.42 675.754 941.408 678.332 943.928C680.91 946.447 684.191 947.707 688.176 947.707C692.629 947.707 696.877 946.242 700.92 943.312C703.908 941.086 705.871 938.361 706.809 935.139C707.453 933.029 707.775 929.016 707.775 923.098V918.176ZM841.369 963H816.672V915.363C816.672 905.285 816.145 898.781 815.09 895.852C814.035 892.863 812.307 890.549 809.904 888.908C807.561 887.268 804.719 886.447 801.379 886.447C797.102 886.447 793.264 887.619 789.865 889.963C786.467 892.307 784.123 895.412 782.834 899.279C781.604 903.146 780.988 910.295 780.988 920.725V963H756.291V869.66H779.23V883.371C787.375 872.824 797.629 867.551 809.992 867.551C815.441 867.551 820.422 868.547 824.934 870.539C829.445 872.473 832.844 874.963 835.129 878.01C837.473 881.057 839.084 884.514 839.963 888.381C840.9 892.248 841.369 897.785 841.369 904.992V963ZM952.111 963H929.172V949.289C925.363 954.621 920.852 958.605 915.637 961.242C910.48 963.82 905.266 965.109 899.992 965.109C889.27 965.109 880.07 960.803 872.395 952.189C864.777 943.518 860.969 931.447 860.969 915.979C860.969 900.158 864.689 888.146 872.131 879.943C879.572 871.682 888.977 867.551 900.344 867.551C910.773 867.551 919.797 871.887 927.414 880.559V834.152H952.111V963ZM886.193 914.309C886.193 924.27 887.57 931.477 890.324 935.93C894.309 942.375 899.875 945.598 907.023 945.598C912.707 945.598 917.541 943.195 921.525 938.391C925.51 933.527 927.502 926.291 927.502 916.682C927.502 905.959 925.568 898.254 921.701 893.566C917.834 888.82 912.883 886.447 906.848 886.447C900.988 886.447 896.066 888.791 892.082 893.479C888.156 898.107 886.193 905.051 886.193 914.309ZM1026.73 834.152H1074.28C1085 834.152 1093.18 834.973 1098.8 836.613C1106.36 838.84 1112.83 842.795 1118.22 848.479C1123.62 854.162 1127.72 861.135 1130.53 869.396C1133.34 877.6 1134.75 887.736 1134.75 899.807C1134.75 910.412 1133.43 919.553 1130.79 927.229C1127.57 936.604 1122.97 944.191 1116.99 949.992C1112.48 954.387 1106.39 957.814 1098.71 960.275C1092.97 962.092 1085.29 963 1075.69 963H1026.73V834.152ZM1052.75 855.949V941.291H1072.17C1079.44 941.291 1084.68 940.881 1087.9 940.061C1092.12 939.006 1095.61 937.219 1098.36 934.699C1101.17 932.18 1103.46 928.049 1105.22 922.307C1106.97 916.506 1107.85 908.625 1107.85 898.664C1107.85 888.703 1106.97 881.057 1105.22 875.725C1103.46 870.393 1101 866.232 1097.83 863.244C1094.67 860.256 1090.66 858.234 1085.79 857.18C1082.16 856.359 1075.04 855.949 1064.44 855.949H1052.75ZM1180.36 963H1155.67V869.66H1178.61V882.932C1182.53 876.662 1186.05 872.531 1189.15 870.539C1192.32 868.547 1195.89 867.551 1199.88 867.551C1205.5 867.551 1210.92 869.104 1216.13 872.209L1208.49 893.742C1204.33 891.047 1200.46 889.699 1196.89 889.699C1193.43 889.699 1190.5 890.666 1188.1 892.6C1185.7 894.475 1183.79 897.902 1182.38 902.883C1181.04 907.863 1180.36 918.293 1180.36 934.172V963ZM1226.86 857.004V834.152H1251.55V857.004H1226.86ZM1226.86 963V869.66H1251.55V963H1226.86ZM1302.62 963L1265 869.66H1290.93L1308.51 917.297L1313.61 933.205C1314.95 929.162 1315.8 926.496 1316.15 925.207C1316.97 922.57 1317.85 919.934 1318.79 917.297L1336.54 869.66H1361.95L1324.86 963H1302.62ZM1431.2 933.293L1455.81 937.424C1452.65 946.447 1447.64 953.332 1440.78 958.078C1433.99 962.766 1425.46 965.109 1415.21 965.109C1398.98 965.109 1386.96 959.807 1379.17 949.201C1373.02 940.705 1369.94 929.982 1369.94 917.033C1369.94 901.564 1373.99 889.465 1382.07 880.734C1390.16 871.945 1400.38 867.551 1412.75 867.551C1426.63 867.551 1437.59 872.15 1445.62 881.35C1453.64 890.49 1457.48 904.523 1457.13 923.449H1395.26C1395.43 930.773 1397.42 936.486 1401.23 940.588C1405.04 944.631 1409.79 946.652 1415.47 946.652C1419.34 946.652 1422.59 945.598 1425.23 943.488C1427.86 941.379 1429.86 937.98 1431.2 933.293ZM1432.61 908.332C1432.43 901.184 1430.59 895.764 1427.07 892.072C1423.56 888.322 1419.28 886.447 1414.24 886.447C1408.85 886.447 1404.4 888.41 1400.88 892.336C1397.37 896.262 1395.64 901.594 1395.7 908.332H1432.61Z" fill="#FEFAFA"/>
<path d="M26.1836 1623V1494.15H52.1992V1544.87H103.176V1494.15H129.191V1623H103.176V1566.66H52.1992V1623H26.1836ZM150.285 1575.01C150.285 1566.81 152.307 1558.87 156.35 1551.19C160.393 1543.52 166.105 1537.66 173.488 1533.62C180.93 1529.57 189.221 1527.55 198.361 1527.55C212.482 1527.55 224.055 1532.15 233.078 1541.35C242.102 1550.49 246.613 1562.06 246.613 1576.07C246.613 1590.19 242.043 1601.91 232.902 1611.22C223.82 1620.48 212.365 1625.11 198.537 1625.11C189.982 1625.11 181.809 1623.18 174.016 1619.31C166.281 1615.44 160.393 1609.79 156.35 1602.35C152.307 1594.85 150.285 1585.73 150.285 1575.01ZM175.598 1576.33C175.598 1585.59 177.795 1592.68 182.189 1597.6C186.584 1602.52 192.004 1604.98 198.449 1604.98C204.895 1604.98 210.285 1602.52 214.621 1597.6C219.016 1592.68 221.213 1585.53 221.213 1576.15C221.213 1567.01 219.016 1559.98 214.621 1555.06C210.285 1550.14 204.895 1547.68 198.449 1547.68C192.004 1547.68 186.584 1550.14 182.189 1555.06C177.795 1559.98 175.598 1567.07 175.598 1576.33ZM289.68 1623H264.982V1529.66H287.922V1542.93C291.848 1536.66 295.363 1532.53 298.469 1530.54C301.633 1528.55 305.207 1527.55 309.191 1527.55C314.816 1527.55 320.236 1529.1 325.451 1532.21L317.805 1553.74C313.645 1551.05 309.777 1549.7 306.203 1549.7C302.746 1549.7 299.816 1550.67 297.414 1552.6C295.012 1554.47 293.107 1557.9 291.701 1562.88C290.354 1567.86 289.68 1578.29 289.68 1594.17V1623ZM359.816 1623H335.119V1529.66H358.059V1542.93C361.984 1536.66 365.5 1532.53 368.605 1530.54C371.77 1528.55 375.344 1527.55 379.328 1527.55C384.953 1527.55 390.373 1529.1 395.588 1532.21L387.941 1553.74C383.781 1551.05 379.914 1549.7 376.34 1549.7C372.883 1549.7 369.953 1550.67 367.551 1552.6C365.148 1554.47 363.244 1557.9 361.838 1562.88C360.49 1567.86 359.816 1578.29 359.816 1594.17V1623ZM400.598 1575.01C400.598 1566.81 402.619 1558.87 406.662 1551.19C410.705 1543.52 416.418 1537.66 423.801 1533.62C431.242 1529.57 439.533 1527.55 448.674 1527.55C462.795 1527.55 474.367 1532.15 483.391 1541.35C492.414 1550.49 496.926 1562.06 496.926 1576.07C496.926 1590.19 492.355 1601.91 483.215 1611.22C474.133 1620.48 462.678 1625.11 448.85 1625.11C440.295 1625.11 432.121 1623.18 424.328 1619.31C416.594 1615.44 410.705 1609.79 406.662 1602.35C402.619 1594.85 400.598 1585.73 400.598 1575.01ZM425.91 1576.33C425.91 1585.59 428.107 1592.68 432.502 1597.6C436.896 1602.52 442.316 1604.98 448.762 1604.98C455.207 1604.98 460.598 1602.52 464.934 1597.6C469.328 1592.68 471.525 1585.53 471.525 1576.15C471.525 1567.01 469.328 1559.98 464.934 1555.06C460.598 1550.14 455.207 1547.68 448.762 1547.68C442.316 1547.68 436.896 1550.14 432.502 1555.06C428.107 1559.98 425.91 1567.07 425.91 1576.33ZM539.992 1623H515.295V1529.66H538.234V1542.93C542.16 1536.66 545.676 1532.53 548.781 1530.54C551.945 1528.55 555.52 1527.55 559.504 1527.55C565.129 1527.55 570.549 1529.1 575.764 1532.21L568.117 1553.74C563.957 1551.05 560.09 1549.7 556.516 1549.7C553.059 1549.7 550.129 1550.67 547.727 1552.6C545.324 1554.47 543.42 1557.9 542.014 1562.88C540.666 1567.86 539.992 1578.29 539.992 1594.17V1623ZM577.785 1596.37L602.57 1592.59C603.625 1597.39 605.764 1601.06 608.986 1603.58C612.209 1606.04 616.721 1607.27 622.521 1607.27C628.908 1607.27 633.713 1606.1 636.936 1603.75C639.104 1602.11 640.188 1599.91 640.188 1597.16C640.188 1595.29 639.602 1593.73 638.43 1592.5C637.199 1591.33 634.445 1590.25 630.168 1589.25C610.246 1584.86 597.619 1580.84 592.287 1577.21C584.904 1572.17 581.213 1565.17 581.213 1556.2C581.213 1548.12 584.406 1541.32 590.793 1535.81C597.18 1530.3 607.082 1527.55 620.5 1527.55C633.273 1527.55 642.766 1529.63 648.977 1533.79C655.188 1537.95 659.465 1544.1 661.809 1552.25L638.518 1556.55C637.521 1552.92 635.617 1550.14 632.805 1548.21C630.051 1546.27 626.096 1545.3 620.939 1545.3C614.436 1545.3 609.777 1546.21 606.965 1548.03C605.09 1549.32 604.152 1550.99 604.152 1553.04C604.152 1554.8 604.973 1556.29 606.613 1557.52C608.84 1559.16 616.516 1561.48 629.641 1564.46C642.824 1567.45 652.023 1571.12 657.238 1575.45C662.395 1579.85 664.973 1585.97 664.973 1593.82C664.973 1602.38 661.398 1609.73 654.25 1615.88C647.102 1622.03 636.525 1625.11 622.521 1625.11C609.807 1625.11 599.729 1622.53 592.287 1617.38C584.904 1612.22 580.07 1605.22 577.785 1596.37ZM731.066 1575.01C731.066 1566.81 733.088 1558.87 737.131 1551.19C741.174 1543.52 746.887 1537.66 754.27 1533.62C761.711 1529.57 770.002 1527.55 779.143 1527.55C793.264 1527.55 804.836 1532.15 813.859 1541.35C822.883 1550.49 827.395 1562.06 827.395 1576.07C827.395 1590.19 822.824 1601.91 813.684 1611.22C804.602 1620.48 793.146 1625.11 779.318 1625.11C770.764 1625.11 762.59 1623.18 754.797 1619.31C747.062 1615.44 741.174 1609.79 737.131 1602.35C733.088 1594.85 731.066 1585.73 731.066 1575.01ZM756.379 1576.33C756.379 1585.59 758.576 1592.68 762.971 1597.6C767.365 1602.52 772.785 1604.98 779.23 1604.98C785.676 1604.98 791.066 1602.52 795.402 1597.6C799.797 1592.68 801.994 1585.53 801.994 1576.15C801.994 1567.01 799.797 1559.98 795.402 1555.06C791.066 1550.14 785.676 1547.68 779.23 1547.68C772.785 1547.68 767.365 1550.14 762.971 1555.06C758.576 1559.98 756.379 1567.07 756.379 1576.33ZM836.008 1529.66H849.719V1522.63C849.719 1514.78 850.539 1508.92 852.18 1505.05C853.879 1501.18 856.955 1498.05 861.408 1495.65C865.92 1493.19 871.604 1491.96 878.459 1491.96C885.49 1491.96 892.375 1493.01 899.113 1495.12L895.773 1512.35C891.848 1511.41 888.068 1510.94 884.436 1510.94C880.861 1510.94 878.283 1511.79 876.701 1513.49C875.178 1515.13 874.416 1518.32 874.416 1523.07V1529.66H892.873V1549.08H874.416V1623H849.719V1549.08H836.008V1529.66ZM999.66 1529.66V1549.35H982.785V1586.96C982.785 1594.58 982.932 1599.04 983.225 1600.32C983.576 1601.55 984.309 1602.58 985.422 1603.4C986.594 1604.22 988 1604.63 989.641 1604.63C991.926 1604.63 995.236 1603.84 999.572 1602.26L1001.68 1621.42C995.939 1623.88 989.436 1625.11 982.17 1625.11C977.717 1625.11 973.703 1624.38 970.129 1622.91C966.555 1621.39 963.918 1619.46 962.219 1617.11C960.578 1614.71 959.436 1611.49 958.791 1607.44C958.264 1604.57 958 1598.77 958 1590.04V1549.35H946.662V1529.66H958V1511.12L982.785 1496.7V1529.66H999.66ZM1041.41 1494.15V1541.53C1049.38 1532.21 1058.9 1527.55 1069.97 1527.55C1075.66 1527.55 1080.78 1528.61 1085.35 1530.71C1089.92 1532.82 1093.35 1535.52 1095.64 1538.8C1097.98 1542.08 1099.56 1545.71 1100.38 1549.7C1101.26 1553.68 1101.7 1559.87 1101.7 1568.24V1623H1077V1573.69C1077 1563.91 1076.54 1557.7 1075.6 1555.06C1074.66 1552.42 1072.99 1550.34 1070.59 1548.82C1068.24 1547.24 1065.29 1546.45 1061.71 1546.45C1057.61 1546.45 1053.95 1547.44 1050.72 1549.44C1047.5 1551.43 1045.13 1554.45 1043.61 1558.49C1042.14 1562.47 1041.41 1568.39 1041.41 1576.24V1623H1016.71V1494.15H1041.41ZM1180.89 1593.29L1205.5 1597.42C1202.34 1606.45 1197.33 1613.33 1190.47 1618.08C1183.67 1622.77 1175.15 1625.11 1164.89 1625.11C1148.66 1625.11 1136.65 1619.81 1128.86 1609.2C1122.71 1600.71 1119.63 1589.98 1119.63 1577.03C1119.63 1561.56 1123.67 1549.46 1131.76 1540.73C1139.85 1531.95 1150.07 1527.55 1162.43 1527.55C1176.32 1527.55 1187.28 1532.15 1195.3 1541.35C1203.33 1550.49 1207.17 1564.52 1206.82 1583.45H1144.94C1145.12 1590.77 1147.11 1596.49 1150.92 1600.59C1154.73 1604.63 1159.47 1606.65 1165.16 1606.65C1169.03 1606.65 1172.28 1605.6 1174.91 1603.49C1177.55 1601.38 1179.54 1597.98 1180.89 1593.29ZM1182.3 1568.33C1182.12 1561.18 1180.28 1555.76 1176.76 1552.07C1173.24 1548.32 1168.97 1546.45 1163.93 1546.45C1158.54 1546.45 1154.08 1548.41 1150.57 1552.34C1147.05 1556.26 1145.32 1561.59 1145.38 1568.33H1182.3ZM1327.49 1494.15H1379C1389.19 1494.15 1396.78 1494.59 1401.76 1495.47C1406.8 1496.29 1411.28 1498.05 1415.21 1500.74C1419.19 1503.44 1422.5 1507.04 1425.14 1511.55C1427.78 1516.01 1429.09 1521.02 1429.09 1526.58C1429.09 1532.62 1427.45 1538.16 1424.17 1543.2C1420.95 1548.23 1416.55 1552.01 1410.99 1554.53C1418.84 1556.82 1424.88 1560.71 1429.09 1566.22C1433.31 1571.73 1435.42 1578.21 1435.42 1585.65C1435.42 1591.51 1434.04 1597.22 1431.29 1602.79C1428.6 1608.29 1424.88 1612.72 1420.13 1616.06C1415.44 1619.34 1409.64 1621.36 1402.73 1622.12C1398.39 1622.59 1387.93 1622.88 1371.35 1623H1327.49V1494.15ZM1353.51 1515.6V1545.39H1370.56C1380.7 1545.39 1386.99 1545.25 1389.46 1544.95C1393.91 1544.43 1397.39 1542.9 1399.91 1540.38C1402.49 1537.8 1403.78 1534.44 1403.78 1530.28C1403.78 1526.29 1402.67 1523.07 1400.44 1520.61C1398.27 1518.09 1395.02 1516.56 1390.69 1516.04C1388.11 1515.74 1380.7 1515.6 1368.45 1515.6H1353.51ZM1353.51 1566.84V1601.29H1377.59C1386.96 1601.29 1392.91 1601.03 1395.43 1600.5C1399.3 1599.8 1402.43 1598.1 1404.84 1595.4C1407.3 1592.65 1408.53 1588.99 1408.53 1584.42C1408.53 1580.55 1407.59 1577.27 1405.71 1574.57C1403.84 1571.88 1401.12 1569.91 1397.54 1568.68C1394.03 1567.45 1386.35 1566.84 1374.51 1566.84H1353.51ZM1457.31 1623V1494.15H1482V1623H1457.31ZM1525.86 1558.14L1503.45 1554.09C1505.97 1545.07 1510.3 1538.39 1516.46 1534.05C1522.61 1529.72 1531.75 1527.55 1543.88 1527.55C1554.89 1527.55 1563.1 1528.87 1568.49 1531.51C1573.88 1534.08 1577.66 1537.39 1579.83 1541.44C1582.05 1545.42 1583.17 1552.78 1583.17 1563.5L1582.9 1592.33C1582.9 1600.53 1583.28 1606.59 1584.04 1610.52C1584.87 1614.39 1586.36 1618.55 1588.53 1623H1564.09C1563.45 1621.36 1562.66 1618.93 1561.72 1615.71C1561.31 1614.24 1561.02 1613.27 1560.84 1612.8C1556.62 1616.91 1552.11 1619.98 1547.31 1622.03C1542.5 1624.08 1537.38 1625.11 1531.93 1625.11C1522.32 1625.11 1514.73 1622.5 1509.16 1617.29C1503.65 1612.07 1500.9 1605.48 1500.9 1597.51C1500.9 1592.24 1502.16 1587.55 1504.68 1583.45C1507.2 1579.29 1510.71 1576.12 1515.23 1573.96C1519.8 1571.73 1526.36 1569.8 1534.91 1568.16C1546.46 1565.99 1554.46 1563.97 1558.91 1562.09V1559.63C1558.91 1554.88 1557.74 1551.52 1555.39 1549.52C1553.05 1547.47 1548.62 1546.45 1542.12 1546.45C1537.73 1546.45 1534.3 1547.33 1531.84 1549.08C1529.38 1550.78 1527.38 1553.8 1525.86 1558.14ZM1558.91 1578.18C1555.74 1579.23 1550.73 1580.49 1543.88 1581.96C1537.02 1583.42 1532.54 1584.86 1530.43 1586.26C1527.21 1588.55 1525.6 1591.45 1525.6 1594.96C1525.6 1598.42 1526.89 1601.41 1529.46 1603.93C1532.04 1606.45 1535.32 1607.71 1539.31 1607.71C1543.76 1607.71 1548.01 1606.24 1552.05 1603.31C1555.04 1601.09 1557 1598.36 1557.94 1595.14C1558.59 1593.03 1558.91 1589.02 1558.91 1583.1V1578.18ZM1688.99 1557.26L1664.64 1561.65C1663.82 1556.79 1661.95 1553.13 1659.02 1550.67C1656.14 1548.21 1652.39 1546.97 1647.77 1546.97C1641.61 1546.97 1636.69 1549.11 1633 1553.39C1629.37 1557.61 1627.55 1564.7 1627.55 1574.66C1627.55 1585.73 1629.4 1593.56 1633.09 1598.13C1636.84 1602.7 1641.85 1604.98 1648.12 1604.98C1652.8 1604.98 1656.64 1603.66 1659.63 1601.03C1662.62 1598.33 1664.73 1593.73 1665.96 1587.23L1690.22 1591.36C1687.7 1602.49 1682.86 1610.9 1675.71 1616.58C1668.57 1622.27 1658.99 1625.11 1646.97 1625.11C1633.32 1625.11 1622.42 1620.8 1614.28 1612.19C1606.19 1603.58 1602.15 1591.65 1602.15 1576.42C1602.15 1561.01 1606.22 1549.03 1614.37 1540.47C1622.51 1531.86 1633.53 1527.55 1647.41 1527.55C1658.78 1527.55 1667.8 1530.01 1674.48 1534.93C1681.22 1539.8 1686.06 1547.24 1688.99 1557.26ZM1706.92 1623V1494.15H1731.61V1562.53L1760.53 1529.66H1790.94L1759.04 1563.76L1793.22 1623H1766.59L1743.13 1581.08L1731.61 1593.12V1623H1706.92ZM25.7441 1830V1701.15H64.6797L88.0586 1789.04L111.174 1701.15H150.197V1830H126.027V1728.57L100.451 1830H75.4023L49.9141 1728.57V1830H25.7441ZM237.297 1830V1816.03C233.898 1821.01 229.416 1824.93 223.85 1827.8C218.342 1830.67 212.512 1832.11 206.359 1832.11C200.09 1832.11 194.465 1830.73 189.484 1827.98C184.504 1825.22 180.9 1821.36 178.674 1816.38C176.447 1811.4 175.334 1804.51 175.334 1795.72V1736.66H200.031V1779.55C200.031 1792.68 200.471 1800.73 201.35 1803.72C202.287 1806.65 203.957 1808.99 206.359 1810.75C208.762 1812.45 211.809 1813.3 215.5 1813.3C219.719 1813.3 223.498 1812.16 226.838 1809.87C230.178 1807.53 232.463 1804.66 233.693 1801.26C234.924 1797.8 235.539 1789.39 235.539 1776.04V1736.66H260.236V1830H237.297ZM277.199 1803.37L301.984 1799.59C303.039 1804.39 305.178 1808.06 308.4 1810.58C311.623 1813.04 316.135 1814.27 321.936 1814.27C328.322 1814.27 333.127 1813.1 336.35 1810.75C338.518 1809.11 339.602 1806.91 339.602 1804.16C339.602 1802.29 339.016 1800.73 337.844 1799.5C336.613 1798.33 333.859 1797.25 329.582 1796.25C309.66 1791.86 297.033 1787.84 291.701 1784.21C284.318 1779.17 280.627 1772.17 280.627 1763.2C280.627 1755.12 283.82 1748.32 290.207 1742.81C296.594 1737.3 306.496 1734.55 319.914 1734.55C332.688 1734.55 342.18 1736.63 348.391 1740.79C354.602 1744.95 358.879 1751.1 361.223 1759.25L337.932 1763.55C336.936 1759.92 335.031 1757.14 332.219 1755.21C329.465 1753.27 325.51 1752.3 320.354 1752.3C313.85 1752.3 309.191 1753.21 306.379 1755.03C304.504 1756.32 303.566 1757.99 303.566 1760.04C303.566 1761.8 304.387 1763.29 306.027 1764.52C308.254 1766.16 315.93 1768.48 329.055 1771.46C342.238 1774.45 351.438 1778.12 356.652 1782.45C361.809 1786.85 364.387 1792.97 364.387 1800.82C364.387 1809.38 360.812 1816.73 353.664 1822.88C346.516 1829.03 335.939 1832.11 321.936 1832.11C309.221 1832.11 299.143 1829.53 291.701 1824.38C284.318 1819.22 279.484 1812.22 277.199 1803.37ZM440.148 1800.29L464.758 1804.42C461.594 1813.45 456.584 1820.33 449.729 1825.08C442.932 1829.77 434.406 1832.11 424.152 1832.11C407.922 1832.11 395.91 1826.81 388.117 1816.2C381.965 1807.71 378.889 1796.98 378.889 1784.03C378.889 1768.56 382.932 1756.46 391.018 1747.73C399.104 1738.95 409.328 1734.55 421.691 1734.55C435.578 1734.55 446.535 1739.15 454.562 1748.35C462.59 1757.49 466.428 1771.52 466.076 1790.45H404.201C404.377 1797.77 406.369 1803.49 410.178 1807.59C413.986 1811.63 418.732 1813.65 424.416 1813.65C428.283 1813.65 431.535 1812.6 434.172 1810.49C436.809 1808.38 438.801 1804.98 440.148 1800.29ZM441.555 1775.33C441.379 1768.18 439.533 1762.76 436.018 1759.07C432.502 1755.32 428.225 1753.45 423.186 1753.45C417.795 1753.45 413.342 1755.41 409.826 1759.34C406.311 1763.26 404.582 1768.59 404.641 1775.33H441.555ZM547.727 1830V1816.03C544.328 1821.01 539.846 1824.93 534.279 1827.8C528.771 1830.67 522.941 1832.11 516.789 1832.11C510.52 1832.11 504.895 1830.73 499.914 1827.98C494.934 1825.22 491.33 1821.36 489.104 1816.38C486.877 1811.4 485.764 1804.51 485.764 1795.72V1736.66H510.461V1779.55C510.461 1792.68 510.9 1800.73 511.779 1803.72C512.717 1806.65 514.387 1808.99 516.789 1810.75C519.191 1812.45 522.238 1813.3 525.93 1813.3C530.148 1813.3 533.928 1812.16 537.268 1809.87C540.607 1807.53 542.893 1804.66 544.123 1801.26C545.354 1797.8 545.969 1789.39 545.969 1776.04V1736.66H570.666V1830H547.727ZM594.484 1736.66H617.248V1749.4C625.393 1739.5 635.09 1734.55 646.34 1734.55C652.316 1734.55 657.502 1735.78 661.896 1738.24C666.291 1740.7 669.895 1744.42 672.707 1749.4C676.809 1744.42 681.232 1740.7 685.979 1738.24C690.725 1735.78 695.793 1734.55 701.184 1734.55C708.039 1734.55 713.84 1735.96 718.586 1738.77C723.332 1741.52 726.877 1745.6 729.221 1750.99C730.92 1754.97 731.77 1761.42 731.77 1770.32V1830H707.072V1776.65C707.072 1767.39 706.223 1761.42 704.523 1758.72C702.238 1755.21 698.723 1753.45 693.977 1753.45C690.52 1753.45 687.268 1754.5 684.221 1756.61C681.174 1758.72 678.977 1761.83 677.629 1765.93C676.281 1769.97 675.607 1776.39 675.607 1785.18V1830H650.91V1778.85C650.91 1769.77 650.471 1763.91 649.592 1761.27C648.713 1758.63 647.336 1756.67 645.461 1755.38C643.645 1754.09 641.154 1753.45 637.99 1753.45C634.182 1753.45 630.754 1754.47 627.707 1756.52C624.66 1758.57 622.463 1761.53 621.115 1765.4C619.826 1769.27 619.182 1775.68 619.182 1784.65V1830H594.484V1736.66Z" fill="#FEFAFA"/>
<path d="M55.0996 2291V2183.95H16.8672V2162.15H119.26V2183.95H81.1152V2291H55.0996ZM160.568 2162.15V2209.53C168.537 2200.21 178.059 2195.55 189.133 2195.55C194.816 2195.55 199.943 2196.61 204.514 2198.71C209.084 2200.82 212.512 2203.52 214.797 2206.8C217.141 2210.08 218.723 2213.71 219.543 2217.7C220.422 2221.68 220.861 2227.87 220.861 2236.24V2291H196.164V2241.69C196.164 2231.91 195.695 2225.7 194.758 2223.06C193.82 2220.42 192.15 2218.34 189.748 2216.82C187.404 2215.24 184.445 2214.45 180.871 2214.45C176.77 2214.45 173.107 2215.44 169.885 2217.44C166.662 2219.43 164.289 2222.45 162.766 2226.49C161.301 2230.47 160.568 2236.39 160.568 2244.24V2291H135.871V2162.15H160.568ZM300.051 2261.29L324.66 2265.42C321.496 2274.45 316.486 2281.33 309.631 2286.08C302.834 2290.77 294.309 2293.11 284.055 2293.11C267.824 2293.11 255.812 2287.81 248.02 2277.2C241.867 2268.71 238.791 2257.98 238.791 2245.03C238.791 2229.56 242.834 2217.46 250.92 2208.73C259.006 2199.95 269.23 2195.55 281.594 2195.55C295.48 2195.55 306.438 2200.15 314.465 2209.35C322.492 2218.49 326.33 2232.52 325.979 2251.45H264.104C264.279 2258.77 266.271 2264.49 270.08 2268.59C273.889 2272.63 278.635 2274.65 284.318 2274.65C288.186 2274.65 291.438 2273.6 294.074 2271.49C296.711 2269.38 298.703 2265.98 300.051 2261.29ZM301.457 2236.33C301.281 2229.18 299.436 2223.76 295.92 2220.07C292.404 2216.32 288.127 2214.45 283.088 2214.45C277.697 2214.45 273.244 2216.41 269.729 2220.34C266.213 2224.26 264.484 2229.59 264.543 2236.33H301.457ZM396.467 2291V2162.15H438.215C454.035 2162.15 464.348 2162.8 469.152 2164.09C476.535 2166.02 482.717 2170.24 487.697 2176.74C492.678 2183.19 495.168 2191.54 495.168 2201.79C495.168 2209.7 493.732 2216.35 490.861 2221.74C487.99 2227.13 484.328 2231.38 479.875 2234.49C475.48 2237.53 470.998 2239.55 466.428 2240.55C460.217 2241.78 451.223 2242.4 439.445 2242.4H422.482V2291H396.467ZM422.482 2183.95V2220.51H436.721C446.975 2220.51 453.83 2219.84 457.287 2218.49C460.744 2217.14 463.439 2215.03 465.373 2212.16C467.365 2209.29 468.361 2205.95 468.361 2202.14C468.361 2197.46 466.984 2193.59 464.23 2190.54C461.477 2187.49 457.99 2185.59 453.771 2184.83C450.666 2184.24 444.426 2183.95 435.051 2183.95H422.482ZM540.959 2162.15V2209.53C548.928 2200.21 558.449 2195.55 569.523 2195.55C575.207 2195.55 580.334 2196.61 584.904 2198.71C589.475 2200.82 592.902 2203.52 595.188 2206.8C597.531 2210.08 599.113 2213.71 599.934 2217.7C600.812 2221.68 601.252 2227.87 601.252 2236.24V2291H576.555V2241.69C576.555 2231.91 576.086 2225.7 575.148 2223.06C574.211 2220.42 572.541 2218.34 570.139 2216.82C567.795 2215.24 564.836 2214.45 561.262 2214.45C557.16 2214.45 553.498 2215.44 550.275 2217.44C547.053 2219.43 544.68 2222.45 543.156 2226.49C541.691 2230.47 540.959 2236.39 540.959 2244.24V2291H516.262V2162.15H540.959ZM644.846 2226.14L622.434 2222.09C624.953 2213.07 629.289 2206.39 635.441 2202.05C641.594 2197.72 650.734 2195.55 662.863 2195.55C673.879 2195.55 682.082 2196.87 687.473 2199.51C692.863 2202.08 696.643 2205.39 698.811 2209.44C701.037 2213.42 702.15 2220.78 702.15 2231.5L701.887 2260.33C701.887 2268.53 702.268 2274.59 703.029 2278.52C703.85 2282.39 705.344 2286.55 707.512 2291H683.078C682.434 2289.36 681.643 2286.93 680.705 2283.71C680.295 2282.24 680.002 2281.27 679.826 2280.8C675.607 2284.91 671.096 2287.98 666.291 2290.03C661.486 2292.08 656.359 2293.11 650.91 2293.11C641.301 2293.11 633.713 2290.5 628.146 2285.29C622.639 2280.07 619.885 2273.48 619.885 2265.51C619.885 2260.24 621.145 2255.55 623.664 2251.45C626.184 2247.29 629.699 2244.12 634.211 2241.96C638.781 2239.73 645.344 2237.8 653.898 2236.16C665.441 2233.99 673.439 2231.97 677.893 2230.09V2227.63C677.893 2222.88 676.721 2219.52 674.377 2217.52C672.033 2215.47 667.609 2214.45 661.105 2214.45C656.711 2214.45 653.283 2215.33 650.822 2217.08C648.361 2218.78 646.369 2221.8 644.846 2226.14ZM677.893 2246.18C674.729 2247.23 669.719 2248.49 662.863 2249.96C656.008 2251.42 651.525 2252.86 649.416 2254.26C646.193 2256.55 644.582 2259.45 644.582 2262.96C644.582 2266.42 645.871 2269.41 648.449 2271.93C651.027 2274.45 654.309 2275.71 658.293 2275.71C662.746 2275.71 666.994 2274.24 671.037 2271.31C674.025 2269.09 675.988 2266.36 676.926 2263.14C677.57 2261.03 677.893 2257.02 677.893 2251.1V2246.18ZM811.486 2291H786.789V2243.36C786.789 2233.29 786.262 2226.78 785.207 2223.85C784.152 2220.86 782.424 2218.55 780.021 2216.91C777.678 2215.27 774.836 2214.45 771.496 2214.45C767.219 2214.45 763.381 2215.62 759.982 2217.96C756.584 2220.31 754.24 2223.41 752.951 2227.28C751.721 2231.15 751.105 2238.29 751.105 2248.72V2291H726.408V2197.66H749.348V2211.37C757.492 2200.82 767.746 2195.55 780.109 2195.55C785.559 2195.55 790.539 2196.55 795.051 2198.54C799.562 2200.47 802.961 2202.96 805.246 2206.01C807.59 2209.06 809.201 2212.51 810.08 2216.38C811.018 2220.25 811.486 2225.79 811.486 2232.99V2291ZM879.426 2197.66V2217.35H862.551V2254.96C862.551 2262.58 862.697 2267.04 862.99 2268.32C863.342 2269.55 864.074 2270.58 865.188 2271.4C866.359 2272.22 867.766 2272.63 869.406 2272.63C871.691 2272.63 875.002 2271.84 879.338 2270.26L881.447 2289.42C875.705 2291.88 869.201 2293.11 861.936 2293.11C857.482 2293.11 853.469 2292.38 849.895 2290.91C846.32 2289.39 843.684 2287.46 841.984 2285.11C840.344 2282.71 839.201 2279.49 838.557 2275.44C838.029 2272.57 837.766 2266.77 837.766 2258.04V2217.35H826.428V2197.66H837.766V2179.12L862.551 2164.7V2197.66H879.426ZM890.852 2243.01C890.852 2234.81 892.873 2226.87 896.916 2219.19C900.959 2211.52 906.672 2205.66 914.055 2201.62C921.496 2197.57 929.787 2195.55 938.928 2195.55C953.049 2195.55 964.621 2200.15 973.645 2209.35C982.668 2218.49 987.18 2230.06 987.18 2244.07C987.18 2258.19 982.609 2269.91 973.469 2279.22C964.387 2288.48 952.932 2293.11 939.104 2293.11C930.549 2293.11 922.375 2291.18 914.582 2287.31C906.848 2283.44 900.959 2277.79 896.916 2270.35C892.873 2262.85 890.852 2253.73 890.852 2243.01ZM916.164 2244.33C916.164 2253.59 918.361 2260.68 922.756 2265.6C927.15 2270.52 932.57 2272.98 939.016 2272.98C945.461 2272.98 950.852 2270.52 955.188 2265.6C959.582 2260.68 961.779 2253.53 961.779 2244.15C961.779 2235.01 959.582 2227.98 955.188 2223.06C950.852 2218.14 945.461 2215.68 939.016 2215.68C932.57 2215.68 927.15 2218.14 922.756 2223.06C918.361 2227.98 916.164 2235.07 916.164 2244.33ZM1004.76 2197.66H1027.52V2210.4C1035.67 2200.5 1045.36 2195.55 1056.61 2195.55C1062.59 2195.55 1067.78 2196.78 1072.17 2199.24C1076.56 2201.7 1080.17 2205.42 1082.98 2210.4C1087.08 2205.42 1091.51 2201.7 1096.25 2199.24C1101 2196.78 1106.07 2195.55 1111.46 2195.55C1118.31 2195.55 1124.11 2196.96 1128.86 2199.77C1133.61 2202.52 1137.15 2206.6 1139.49 2211.99C1141.19 2215.97 1142.04 2222.42 1142.04 2231.32V2291H1117.35V2237.65C1117.35 2228.39 1116.5 2222.42 1114.8 2219.72C1112.51 2216.21 1109 2214.45 1104.25 2214.45C1100.79 2214.45 1097.54 2215.5 1094.49 2217.61C1091.45 2219.72 1089.25 2222.83 1087.9 2226.93C1086.55 2230.97 1085.88 2237.39 1085.88 2246.18V2291H1061.18V2239.85C1061.18 2230.77 1060.74 2224.91 1059.87 2222.27C1058.99 2219.63 1057.61 2217.67 1055.73 2216.38C1053.92 2215.09 1051.43 2214.45 1048.26 2214.45C1044.46 2214.45 1041.03 2215.47 1037.98 2217.52C1034.93 2219.57 1032.74 2222.53 1031.39 2226.4C1030.1 2230.27 1029.46 2236.68 1029.46 2245.65V2291H1004.76V2197.66ZM1299.46 2243.63L1324.68 2251.62C1320.81 2265.69 1314.37 2276.15 1305.34 2283C1296.38 2289.8 1284.98 2293.2 1271.15 2293.2C1254.04 2293.2 1239.98 2287.37 1228.97 2275.71C1217.95 2263.99 1212.44 2247.99 1212.44 2227.72C1212.44 2206.27 1217.98 2189.63 1229.05 2177.8C1240.13 2165.9 1254.69 2159.96 1272.74 2159.96C1288.5 2159.96 1301.3 2164.61 1311.14 2173.93C1317 2179.44 1321.4 2187.35 1324.33 2197.66L1298.58 2203.81C1297.05 2197.13 1293.86 2191.86 1289 2187.99C1284.19 2184.12 1278.33 2182.19 1271.42 2182.19C1261.87 2182.19 1254.1 2185.62 1248.13 2192.47C1242.21 2199.33 1239.25 2210.43 1239.25 2225.79C1239.25 2242.07 1242.18 2253.68 1248.04 2260.59C1253.9 2267.5 1261.52 2270.96 1270.89 2270.96C1277.8 2270.96 1283.75 2268.76 1288.73 2264.37C1293.71 2259.97 1297.29 2253.06 1299.46 2243.63ZM1365.37 2226.14L1342.96 2222.09C1345.48 2213.07 1349.82 2206.39 1355.97 2202.05C1362.12 2197.72 1371.26 2195.55 1383.39 2195.55C1394.41 2195.55 1402.61 2196.87 1408 2199.51C1413.39 2202.08 1417.17 2205.39 1419.34 2209.44C1421.56 2213.42 1422.68 2220.78 1422.68 2231.5L1422.41 2260.33C1422.41 2268.53 1422.79 2274.59 1423.56 2278.52C1424.38 2282.39 1425.87 2286.55 1428.04 2291H1403.61C1402.96 2289.36 1402.17 2286.93 1401.23 2283.71C1400.82 2282.24 1400.53 2281.27 1400.35 2280.8C1396.13 2284.91 1391.62 2287.98 1386.82 2290.03C1382.01 2292.08 1376.89 2293.11 1371.44 2293.11C1361.83 2293.11 1354.24 2290.5 1348.67 2285.29C1343.17 2280.07 1340.41 2273.48 1340.41 2265.51C1340.41 2260.24 1341.67 2255.55 1344.19 2251.45C1346.71 2247.29 1350.23 2244.12 1354.74 2241.96C1359.31 2239.73 1365.87 2237.8 1374.43 2236.16C1385.97 2233.99 1393.97 2231.97 1398.42 2230.09V2227.63C1398.42 2222.88 1397.25 2219.52 1394.9 2217.52C1392.56 2215.47 1388.14 2214.45 1381.63 2214.45C1377.24 2214.45 1373.81 2215.33 1371.35 2217.08C1368.89 2218.78 1366.9 2221.8 1365.37 2226.14ZM1398.42 2246.18C1395.26 2247.23 1390.25 2248.49 1383.39 2249.96C1376.54 2251.42 1372.05 2252.86 1369.94 2254.26C1366.72 2256.55 1365.11 2259.45 1365.11 2262.96C1365.11 2266.42 1366.4 2269.41 1368.98 2271.93C1371.55 2274.45 1374.84 2275.71 1378.82 2275.71C1383.27 2275.71 1387.52 2274.24 1391.56 2271.31C1394.55 2269.09 1396.52 2266.36 1397.45 2263.14C1398.1 2261.03 1398.42 2257.02 1398.42 2251.1V2246.18ZM1470.75 2291H1446.06V2197.66H1469V2210.93C1472.92 2204.66 1476.44 2200.53 1479.54 2198.54C1482.71 2196.55 1486.28 2195.55 1490.27 2195.55C1495.89 2195.55 1501.31 2197.1 1506.53 2200.21L1498.88 2221.74C1494.72 2219.05 1490.85 2217.7 1487.28 2217.7C1483.82 2217.7 1480.89 2218.67 1478.49 2220.6C1476.09 2222.47 1474.18 2225.9 1472.78 2230.88C1471.43 2235.86 1470.75 2246.29 1470.75 2262.17V2291ZM1540.89 2291H1516.19V2197.66H1539.13V2210.93C1543.06 2204.66 1546.57 2200.53 1549.68 2198.54C1552.84 2196.55 1556.42 2195.55 1560.4 2195.55C1566.03 2195.55 1571.45 2197.1 1576.66 2200.21L1569.02 2221.74C1564.86 2219.05 1560.99 2217.7 1557.41 2217.7C1553.96 2217.7 1551.03 2218.67 1548.62 2220.6C1546.22 2222.47 1544.32 2225.9 1542.91 2230.88C1541.56 2235.86 1540.89 2246.29 1540.89 2262.17V2291ZM1587.38 2185V2162.15H1612.08V2185H1587.38ZM1587.38 2291V2197.66H1612.08V2291H1587.38ZM1655.94 2226.14L1633.53 2222.09C1636.05 2213.07 1640.38 2206.39 1646.54 2202.05C1652.69 2197.72 1661.83 2195.55 1673.96 2195.55C1684.97 2195.55 1693.18 2196.87 1698.57 2199.51C1703.96 2202.08 1707.74 2205.39 1709.9 2209.44C1712.13 2213.42 1713.24 2220.78 1713.24 2231.5L1712.98 2260.33C1712.98 2268.53 1713.36 2274.59 1714.12 2278.52C1714.94 2282.39 1716.44 2286.55 1718.61 2291H1694.17C1693.53 2289.36 1692.74 2286.93 1691.8 2283.71C1691.39 2282.24 1691.1 2281.27 1690.92 2280.8C1686.7 2284.91 1682.19 2287.98 1677.38 2290.03C1672.58 2292.08 1667.45 2293.11 1662 2293.11C1652.39 2293.11 1644.81 2290.5 1639.24 2285.29C1633.73 2280.07 1630.98 2273.48 1630.98 2265.51C1630.98 2260.24 1632.24 2255.55 1634.76 2251.45C1637.28 2247.29 1640.79 2244.12 1645.3 2241.96C1649.88 2239.73 1656.44 2237.8 1664.99 2236.16C1676.54 2233.99 1684.53 2231.97 1688.99 2230.09V2227.63C1688.99 2222.88 1687.81 2219.52 1685.47 2217.52C1683.13 2215.47 1678.7 2214.45 1672.2 2214.45C1667.8 2214.45 1664.38 2215.33 1661.92 2217.08C1659.46 2218.78 1657.46 2221.8 1655.94 2226.14ZM1688.99 2246.18C1685.82 2247.23 1680.81 2248.49 1673.96 2249.96C1667.1 2251.42 1662.62 2252.86 1660.51 2254.26C1657.29 2256.55 1655.68 2259.45 1655.68 2262.96C1655.68 2266.42 1656.96 2269.41 1659.54 2271.93C1662.12 2274.45 1665.4 2275.71 1669.39 2275.71C1673.84 2275.71 1678.09 2274.24 1682.13 2271.31C1685.12 2269.09 1687.08 2266.36 1688.02 2263.14C1688.66 2261.03 1688.99 2257.02 1688.99 2251.1V2246.18ZM1735.39 2297.15L1763.61 2300.58C1764.07 2303.86 1765.16 2306.12 1766.86 2307.35C1769.2 2309.11 1772.89 2309.98 1777.93 2309.98C1784.38 2309.98 1789.21 2309.02 1792.43 2307.08C1794.6 2305.79 1796.24 2303.71 1797.36 2300.84C1798.12 2298.79 1798.5 2295.01 1798.5 2289.51V2275.88C1791.12 2285.96 1781.8 2291 1770.55 2291C1758.01 2291 1748.08 2285.7 1740.75 2275.09C1735.01 2266.71 1732.14 2256.28 1732.14 2243.8C1732.14 2228.16 1735.89 2216.21 1743.39 2207.94C1750.95 2199.68 1760.32 2195.55 1771.52 2195.55C1783.06 2195.55 1792.58 2200.62 1800.08 2210.76V2197.66H1823.2V2281.42C1823.2 2292.44 1822.29 2300.67 1820.47 2306.12C1818.65 2311.57 1816.11 2315.84 1812.82 2318.95C1809.54 2322.05 1805.15 2324.49 1799.64 2326.24C1794.19 2328 1787.28 2328.88 1778.9 2328.88C1763.08 2328.88 1751.86 2326.16 1745.24 2320.71C1738.62 2315.32 1735.3 2308.46 1735.3 2300.14C1735.3 2299.32 1735.33 2298.32 1735.39 2297.15ZM1757.45 2242.4C1757.45 2252.3 1759.36 2259.56 1763.17 2264.19C1767.03 2268.76 1771.78 2271.05 1777.4 2271.05C1783.44 2271.05 1788.54 2268.71 1792.7 2264.02C1796.86 2259.27 1798.94 2252.27 1798.94 2243.01C1798.94 2233.34 1796.95 2226.17 1792.96 2221.48C1788.98 2216.79 1783.94 2214.45 1777.84 2214.45C1771.93 2214.45 1767.03 2216.76 1763.17 2221.39C1759.36 2225.96 1757.45 2232.96 1757.45 2242.4ZM1901.77 2261.29L1926.38 2265.42C1923.21 2274.45 1918.21 2281.33 1911.35 2286.08C1904.55 2290.77 1896.03 2293.11 1885.77 2293.11C1869.54 2293.11 1857.53 2287.81 1849.74 2277.2C1843.59 2268.71 1840.51 2257.98 1840.51 2245.03C1840.51 2229.56 1844.55 2217.46 1852.64 2208.73C1860.72 2199.95 1870.95 2195.55 1883.31 2195.55C1897.2 2195.55 1908.16 2200.15 1916.18 2209.35C1924.21 2218.49 1928.05 2232.52 1927.7 2251.45H1865.82C1866 2258.77 1867.99 2264.49 1871.8 2268.59C1875.61 2272.63 1880.35 2274.65 1886.04 2274.65C1889.9 2274.65 1893.16 2273.6 1895.79 2271.49C1898.43 2269.38 1900.42 2265.98 1901.77 2261.29ZM1903.18 2236.33C1903 2229.18 1901.15 2223.76 1897.64 2220.07C1894.12 2216.32 1889.85 2214.45 1884.81 2214.45C1879.42 2214.45 1874.96 2216.41 1871.45 2220.34C1867.93 2224.26 1866.2 2229.59 1866.26 2236.33H1903.18Z" fill="#FEFAFA"/>
<path d="M25.3047 2932V2803.15H51.3203V2932H25.3047ZM160.92 2932H136.223V2884.36C136.223 2874.29 135.695 2867.78 134.641 2864.85C133.586 2861.86 131.857 2859.55 129.455 2857.91C127.111 2856.27 124.27 2855.45 120.93 2855.45C116.652 2855.45 112.814 2856.62 109.416 2858.96C106.018 2861.31 103.674 2864.41 102.385 2868.28C101.154 2872.15 100.539 2879.29 100.539 2889.72V2932H75.8418V2838.66H98.7812V2852.37C106.926 2841.82 117.18 2836.55 129.543 2836.55C134.992 2836.55 139.973 2837.55 144.484 2839.54C148.996 2841.47 152.395 2843.96 154.68 2847.01C157.023 2850.06 158.635 2853.51 159.514 2857.38C160.451 2861.25 160.92 2866.79 160.92 2873.99V2932ZM254.611 2867.14L232.199 2863.09C234.719 2854.07 239.055 2847.39 245.207 2843.05C251.359 2838.72 260.5 2836.55 272.629 2836.55C283.645 2836.55 291.848 2837.87 297.238 2840.51C302.629 2843.08 306.408 2846.39 308.576 2850.44C310.803 2854.42 311.916 2861.78 311.916 2872.5L311.652 2901.33C311.652 2909.53 312.033 2915.59 312.795 2919.52C313.615 2923.39 315.109 2927.55 317.277 2932H292.844C292.199 2930.36 291.408 2927.93 290.471 2924.71C290.061 2923.24 289.768 2922.27 289.592 2921.8C285.373 2925.91 280.861 2928.98 276.057 2931.03C271.252 2933.08 266.125 2934.11 260.676 2934.11C251.066 2934.11 243.479 2931.5 237.912 2926.29C232.404 2921.07 229.65 2914.48 229.65 2906.51C229.65 2901.24 230.91 2896.55 233.43 2892.45C235.949 2888.29 239.465 2885.12 243.977 2882.96C248.547 2880.73 255.109 2878.8 263.664 2877.16C275.207 2874.99 283.205 2872.97 287.658 2871.09V2868.63C287.658 2863.88 286.486 2860.52 284.143 2858.52C281.799 2856.47 277.375 2855.45 270.871 2855.45C266.477 2855.45 263.049 2856.33 260.588 2858.08C258.127 2859.78 256.135 2862.8 254.611 2867.14ZM287.658 2887.18C284.494 2888.23 279.484 2889.49 272.629 2890.96C265.773 2892.42 261.291 2893.86 259.182 2895.26C255.959 2897.55 254.348 2900.45 254.348 2903.96C254.348 2907.42 255.637 2910.41 258.215 2912.93C260.793 2915.45 264.074 2916.71 268.059 2916.71C272.512 2916.71 276.76 2915.24 280.803 2912.31C283.791 2910.09 285.754 2907.36 286.691 2904.14C287.336 2902.03 287.658 2898.02 287.658 2892.1V2887.18ZM387.326 2932V2804.21H413.342V2910.29H478.029V2932H387.326ZM490.773 2884.01C490.773 2875.81 492.795 2867.87 496.838 2860.19C500.881 2852.52 506.594 2846.66 513.977 2842.62C521.418 2838.57 529.709 2836.55 538.85 2836.55C552.971 2836.55 564.543 2841.15 573.566 2850.35C582.59 2859.49 587.102 2871.06 587.102 2885.07C587.102 2899.19 582.531 2910.91 573.391 2920.22C564.309 2929.48 552.854 2934.11 539.025 2934.11C530.471 2934.11 522.297 2932.18 514.504 2928.31C506.77 2924.44 500.881 2918.79 496.838 2911.35C492.795 2903.85 490.773 2894.73 490.773 2884.01ZM516.086 2885.33C516.086 2894.59 518.283 2901.68 522.678 2906.6C527.072 2911.52 532.492 2913.98 538.938 2913.98C545.383 2913.98 550.773 2911.52 555.109 2906.6C559.504 2901.68 561.701 2894.53 561.701 2885.15C561.701 2876.01 559.504 2868.98 555.109 2864.06C550.773 2859.14 545.383 2856.68 538.938 2856.68C532.492 2856.68 527.072 2859.14 522.678 2864.06C518.283 2868.98 516.086 2876.07 516.086 2885.33ZM691.428 2932H666.73V2884.36C666.73 2874.29 666.203 2867.78 665.148 2864.85C664.094 2861.86 662.365 2859.55 659.963 2857.91C657.619 2856.27 654.777 2855.45 651.438 2855.45C647.16 2855.45 643.322 2856.62 639.924 2858.96C636.525 2861.31 634.182 2864.41 632.893 2868.28C631.662 2872.15 631.047 2879.29 631.047 2889.72V2932H606.35V2838.66H629.289V2852.37C637.434 2841.82 647.688 2836.55 660.051 2836.55C665.5 2836.55 670.48 2837.55 674.992 2839.54C679.504 2841.47 682.902 2843.96 685.188 2847.01C687.531 2850.06 689.143 2853.51 690.021 2857.38C690.959 2861.25 691.428 2866.79 691.428 2873.99V2932ZM770.617 2902.29L795.227 2906.42C792.062 2915.45 787.053 2922.33 780.197 2927.08C773.4 2931.77 764.875 2934.11 754.621 2934.11C738.391 2934.11 726.379 2928.81 718.586 2918.2C712.434 2909.71 709.357 2898.98 709.357 2886.03C709.357 2870.56 713.4 2858.46 721.486 2849.73C729.572 2840.95 739.797 2836.55 752.16 2836.55C766.047 2836.55 777.004 2841.15 785.031 2850.35C793.059 2859.49 796.896 2873.52 796.545 2892.45H734.67C734.846 2899.77 736.838 2905.49 740.646 2909.59C744.455 2913.63 749.201 2915.65 754.885 2915.65C758.752 2915.65 762.004 2914.6 764.641 2912.49C767.277 2910.38 769.27 2906.98 770.617 2902.29ZM772.023 2877.33C771.848 2870.18 770.002 2864.76 766.486 2861.07C762.971 2857.32 758.693 2855.45 753.654 2855.45C748.264 2855.45 743.811 2857.41 740.295 2861.34C736.779 2865.26 735.051 2870.59 735.109 2877.33H772.023ZM816.76 2932V2803.15H841.457V2932H816.76ZM855.168 2838.66H881.447L903.771 2904.93L925.568 2838.66H951.145L918.186 2928.48L912.297 2944.74C910.129 2950.19 908.049 2954.35 906.057 2957.22C904.123 2960.1 901.867 2962.41 899.289 2964.17C896.77 2965.98 893.635 2967.39 889.885 2968.39C886.193 2969.38 882.004 2969.88 877.316 2969.88C872.57 2969.88 867.912 2969.38 863.342 2968.39L861.145 2949.05C865.012 2949.81 868.498 2950.19 871.604 2950.19C877.346 2950.19 881.594 2948.49 884.348 2945.1C887.102 2941.76 889.211 2937.48 890.676 2932.26L855.168 2838.66ZM1017.33 2932V2803.15H1059.07C1074.89 2803.15 1085.21 2803.8 1090.01 2805.09C1097.39 2807.02 1103.58 2811.24 1108.56 2817.74C1113.54 2824.19 1116.03 2832.54 1116.03 2842.79C1116.03 2850.7 1114.59 2857.35 1111.72 2862.74C1108.85 2868.13 1105.19 2872.38 1100.73 2875.49C1096.34 2878.53 1091.86 2880.55 1087.29 2881.55C1081.08 2882.78 1072.08 2883.4 1060.3 2883.4H1043.34V2932H1017.33ZM1043.34 2824.95V2861.51H1057.58C1067.83 2861.51 1074.69 2860.84 1078.15 2859.49C1081.6 2858.14 1084.3 2856.03 1086.23 2853.16C1088.22 2850.29 1089.22 2846.95 1089.22 2843.14C1089.22 2838.46 1087.84 2834.59 1085.09 2831.54C1082.34 2828.49 1078.85 2826.59 1074.63 2825.83C1071.53 2825.24 1065.29 2824.95 1055.91 2824.95H1043.34ZM1137.21 2932V2803.15H1161.91V2932H1137.21ZM1205.76 2867.14L1183.35 2863.09C1185.87 2854.07 1190.21 2847.39 1196.36 2843.05C1202.51 2838.72 1211.65 2836.55 1223.78 2836.55C1234.8 2836.55 1243 2837.87 1248.39 2840.51C1253.78 2843.08 1257.56 2846.39 1259.73 2850.44C1261.96 2854.42 1263.07 2861.78 1263.07 2872.5L1262.8 2901.33C1262.8 2909.53 1263.19 2915.59 1263.95 2919.52C1264.77 2923.39 1266.26 2927.55 1268.43 2932H1244C1243.35 2930.36 1242.56 2927.93 1241.62 2924.71C1241.21 2923.24 1240.92 2922.27 1240.74 2921.8C1236.53 2925.91 1232.01 2928.98 1227.21 2931.03C1222.4 2933.08 1217.28 2934.11 1211.83 2934.11C1202.22 2934.11 1194.63 2931.5 1189.06 2926.29C1183.56 2921.07 1180.8 2914.48 1180.8 2906.51C1180.8 2901.24 1182.06 2896.55 1184.58 2892.45C1187.1 2888.29 1190.62 2885.12 1195.13 2882.96C1199.7 2880.73 1206.26 2878.8 1214.82 2877.16C1226.36 2874.99 1234.36 2872.97 1238.81 2871.09V2868.63C1238.81 2863.88 1237.64 2860.52 1235.29 2858.52C1232.95 2856.47 1228.53 2855.45 1222.02 2855.45C1217.63 2855.45 1214.2 2856.33 1211.74 2858.08C1209.28 2859.78 1207.29 2862.8 1205.76 2867.14ZM1238.81 2887.18C1235.65 2888.23 1230.64 2889.49 1223.78 2890.96C1216.93 2892.42 1212.44 2893.86 1210.33 2895.26C1207.11 2897.55 1205.5 2900.45 1205.5 2903.96C1205.5 2907.42 1206.79 2910.41 1209.37 2912.93C1211.95 2915.45 1215.23 2916.71 1219.21 2916.71C1223.66 2916.71 1227.91 2915.24 1231.96 2912.31C1234.94 2910.09 1236.91 2907.36 1237.84 2904.14C1238.49 2902.03 1238.81 2898.02 1238.81 2892.1V2887.18ZM1368.89 2866.26L1344.54 2870.65C1343.72 2865.79 1341.85 2862.13 1338.92 2859.67C1336.05 2857.21 1332.3 2855.97 1327.67 2855.97C1321.52 2855.97 1316.59 2858.11 1312.9 2862.39C1309.27 2866.61 1307.45 2873.7 1307.45 2883.66C1307.45 2894.73 1309.3 2902.56 1312.99 2907.13C1316.74 2911.7 1321.75 2913.98 1328.02 2913.98C1332.71 2913.98 1336.54 2912.66 1339.53 2910.03C1342.52 2907.33 1344.63 2902.73 1345.86 2896.23L1370.12 2900.36C1367.6 2911.49 1362.77 2919.9 1355.62 2925.58C1348.47 2931.27 1338.89 2934.11 1326.88 2934.11C1313.22 2934.11 1302.33 2929.8 1294.18 2921.19C1286.1 2912.58 1282.05 2900.65 1282.05 2885.42C1282.05 2870.01 1286.12 2858.03 1294.27 2849.47C1302.41 2840.86 1313.43 2836.55 1327.32 2836.55C1338.68 2836.55 1347.71 2839.01 1354.39 2843.93C1361.12 2848.8 1365.96 2856.24 1368.89 2866.26ZM1441.75 2902.29L1466.36 2906.42C1463.2 2915.45 1458.19 2922.33 1451.33 2927.08C1444.53 2931.77 1436.01 2934.11 1425.75 2934.11C1409.52 2934.11 1397.51 2928.81 1389.72 2918.2C1383.57 2909.71 1380.49 2898.98 1380.49 2886.03C1380.49 2870.56 1384.53 2858.46 1392.62 2849.73C1400.71 2840.95 1410.93 2836.55 1423.29 2836.55C1437.18 2836.55 1448.14 2841.15 1456.16 2850.35C1464.19 2859.49 1468.03 2873.52 1467.68 2892.45H1405.8C1405.98 2899.77 1407.97 2905.49 1411.78 2909.59C1415.59 2913.63 1420.33 2915.65 1426.02 2915.65C1429.88 2915.65 1433.14 2914.6 1435.77 2912.49C1438.41 2910.38 1440.4 2906.98 1441.75 2902.29ZM1443.16 2877.33C1442.98 2870.18 1441.13 2864.76 1437.62 2861.07C1434.1 2857.32 1429.83 2855.45 1424.79 2855.45C1419.4 2855.45 1414.94 2857.41 1411.43 2861.34C1407.91 2865.26 1406.18 2870.59 1406.24 2877.33H1443.16Z" fill="#FEFAFA"/>
<path d="M26.3594 3607V3478.15H51.6719L104.406 3564.2V3478.15H128.576V3607H102.473L50.5293 3522.98V3607H26.3594ZM155.998 3501V3478.15H180.695V3501H155.998ZM155.998 3607V3513.66H180.695V3607H155.998ZM203.811 3613.15L232.023 3616.58C232.492 3619.86 233.576 3622.12 235.275 3623.35C237.619 3625.11 241.311 3625.98 246.35 3625.98C252.795 3625.98 257.629 3625.02 260.852 3623.08C263.02 3621.79 264.66 3619.71 265.773 3616.84C266.535 3614.79 266.916 3611.01 266.916 3605.51V3591.88C259.533 3601.96 250.217 3607 238.967 3607C226.428 3607 216.496 3601.7 209.172 3591.09C203.43 3582.71 200.559 3572.28 200.559 3559.8C200.559 3544.16 204.309 3532.21 211.809 3523.94C219.367 3515.68 228.742 3511.55 239.934 3511.55C251.477 3511.55 260.998 3516.62 268.498 3526.76V3513.66H291.613V3597.42C291.613 3608.44 290.705 3616.67 288.889 3622.12C287.072 3627.57 284.523 3631.84 281.242 3634.95C277.961 3638.05 273.566 3640.49 268.059 3642.24C262.609 3644 255.695 3644.88 247.316 3644.88C231.496 3644.88 220.275 3642.16 213.654 3636.71C207.033 3631.32 203.723 3624.46 203.723 3616.14C203.723 3615.32 203.752 3614.32 203.811 3613.15ZM225.871 3558.4C225.871 3568.3 227.775 3575.56 231.584 3580.19C235.451 3584.76 240.197 3587.05 245.822 3587.05C251.857 3587.05 256.955 3584.71 261.115 3580.02C265.275 3575.27 267.355 3568.27 267.355 3559.01C267.355 3549.34 265.363 3542.17 261.379 3537.48C257.395 3532.79 252.355 3530.45 246.262 3530.45C240.344 3530.45 235.451 3532.76 231.584 3537.39C227.775 3541.96 225.871 3548.96 225.871 3558.4ZM340.744 3478.15V3525.53C348.713 3516.21 358.234 3511.55 369.309 3511.55C374.992 3511.55 380.119 3512.61 384.689 3514.71C389.26 3516.82 392.688 3519.52 394.973 3522.8C397.316 3526.08 398.898 3529.71 399.719 3533.7C400.598 3537.68 401.037 3543.87 401.037 3552.24V3607H376.34V3557.69C376.34 3547.91 375.871 3541.7 374.934 3539.06C373.996 3536.42 372.326 3534.34 369.924 3532.82C367.58 3531.24 364.621 3530.45 361.047 3530.45C356.945 3530.45 353.283 3531.44 350.061 3533.44C346.838 3535.43 344.465 3538.45 342.941 3542.49C341.477 3546.47 340.744 3552.39 340.744 3560.24V3607H316.047V3478.15H340.744ZM468.977 3513.66V3533.35H452.102V3570.96C452.102 3578.58 452.248 3583.04 452.541 3584.32C452.893 3585.55 453.625 3586.58 454.738 3587.4C455.91 3588.22 457.316 3588.63 458.957 3588.63C461.242 3588.63 464.553 3587.84 468.889 3586.26L470.998 3605.42C465.256 3607.88 458.752 3609.11 451.486 3609.11C447.033 3609.11 443.02 3608.38 439.445 3606.91C435.871 3605.39 433.234 3603.46 431.535 3601.11C429.895 3598.71 428.752 3595.49 428.107 3591.44C427.58 3588.57 427.316 3582.77 427.316 3574.04V3533.35H415.979V3513.66H427.316V3495.12L452.102 3480.7V3513.66H468.977ZM554.67 3542.14L532.258 3538.09C534.777 3529.07 539.113 3522.39 545.266 3518.05C551.418 3513.72 560.559 3511.55 572.688 3511.55C583.703 3511.55 591.906 3512.87 597.297 3515.51C602.688 3518.08 606.467 3521.39 608.635 3525.44C610.861 3529.42 611.975 3536.78 611.975 3547.5L611.711 3576.33C611.711 3584.53 612.092 3590.59 612.854 3594.52C613.674 3598.39 615.168 3602.55 617.336 3607H592.902C592.258 3605.36 591.467 3602.93 590.529 3599.71C590.119 3598.24 589.826 3597.27 589.65 3596.8C585.432 3600.91 580.92 3603.98 576.115 3606.03C571.311 3608.08 566.184 3609.11 560.734 3609.11C551.125 3609.11 543.537 3606.5 537.971 3601.29C532.463 3596.07 529.709 3589.48 529.709 3581.51C529.709 3576.24 530.969 3571.55 533.488 3567.45C536.008 3563.29 539.523 3560.12 544.035 3557.96C548.605 3555.73 555.168 3553.8 563.723 3552.16C575.266 3549.99 583.264 3547.97 587.717 3546.09V3543.63C587.717 3538.88 586.545 3535.52 584.201 3533.52C581.857 3531.47 577.434 3530.45 570.93 3530.45C566.535 3530.45 563.107 3531.33 560.646 3533.08C558.186 3534.78 556.193 3537.8 554.67 3542.14ZM587.717 3562.18C584.553 3563.23 579.543 3564.49 572.688 3565.96C565.832 3567.42 561.35 3568.86 559.24 3570.26C556.018 3572.55 554.406 3575.45 554.406 3578.96C554.406 3582.42 555.695 3585.41 558.273 3587.93C560.852 3590.45 564.133 3591.71 568.117 3591.71C572.57 3591.71 576.818 3590.24 580.861 3587.31C583.85 3585.09 585.812 3582.36 586.75 3579.14C587.395 3577.03 587.717 3573.02 587.717 3567.1V3562.18ZM721.311 3607H696.613V3559.36C696.613 3549.29 696.086 3542.78 695.031 3539.85C693.977 3536.86 692.248 3534.55 689.846 3532.91C687.502 3531.27 684.66 3530.45 681.32 3530.45C677.043 3530.45 673.205 3531.62 669.807 3533.96C666.408 3536.31 664.064 3539.41 662.775 3543.28C661.545 3547.15 660.93 3554.29 660.93 3564.72V3607H636.232V3513.66H659.172V3527.37C667.316 3516.82 677.57 3511.55 689.934 3511.55C695.383 3511.55 700.363 3512.55 704.875 3514.54C709.387 3516.47 712.785 3518.96 715.07 3522.01C717.414 3525.06 719.025 3528.51 719.904 3532.38C720.842 3536.25 721.311 3541.79 721.311 3548.99V3607ZM832.053 3607H809.113V3593.29C805.305 3598.62 800.793 3602.61 795.578 3605.24C790.422 3607.82 785.207 3609.11 779.934 3609.11C769.211 3609.11 760.012 3604.8 752.336 3596.19C744.719 3587.52 740.91 3575.45 740.91 3559.98C740.91 3544.16 744.631 3532.15 752.072 3523.94C759.514 3515.68 768.918 3511.55 780.285 3511.55C790.715 3511.55 799.738 3515.89 807.355 3524.56V3478.15H832.053V3607ZM766.135 3558.31C766.135 3568.27 767.512 3575.48 770.266 3579.93C774.25 3586.38 779.816 3589.6 786.965 3589.6C792.648 3589.6 797.482 3587.2 801.467 3582.39C805.451 3577.53 807.443 3570.29 807.443 3560.68C807.443 3549.96 805.51 3542.25 801.643 3537.57C797.775 3532.82 792.824 3530.45 786.789 3530.45C780.93 3530.45 776.008 3532.79 772.023 3537.48C768.098 3542.11 766.135 3549.05 766.135 3558.31ZM906.936 3607V3478.15H995.266V3499.95H932.951V3530.45H986.74V3552.24H932.951V3607H906.936ZM1010.91 3559.01C1010.91 3550.81 1012.93 3542.87 1016.97 3535.19C1021.02 3527.52 1026.73 3521.66 1034.11 3517.62C1041.55 3513.57 1049.85 3511.55 1058.99 3511.55C1073.11 3511.55 1084.68 3516.15 1093.7 3525.35C1102.73 3534.49 1107.24 3546.06 1107.24 3560.07C1107.24 3574.19 1102.67 3585.91 1093.53 3595.22C1084.45 3604.48 1072.99 3609.11 1059.16 3609.11C1050.61 3609.11 1042.43 3607.18 1034.64 3603.31C1026.91 3599.44 1021.02 3593.79 1016.97 3586.35C1012.93 3578.85 1010.91 3569.73 1010.91 3559.01ZM1036.22 3560.33C1036.22 3569.59 1038.42 3576.68 1042.81 3581.6C1047.21 3586.52 1052.63 3588.98 1059.07 3588.98C1065.52 3588.98 1070.91 3586.52 1075.25 3581.6C1079.64 3576.68 1081.84 3569.53 1081.84 3560.15C1081.84 3551.01 1079.64 3543.98 1075.25 3539.06C1070.91 3534.14 1065.52 3531.68 1059.07 3531.68C1052.63 3531.68 1047.21 3534.14 1042.81 3539.06C1038.42 3543.98 1036.22 3551.07 1036.22 3560.33ZM1124.38 3613.15L1152.59 3616.58C1153.06 3619.86 1154.14 3622.12 1155.84 3623.35C1158.19 3625.11 1161.88 3625.98 1166.92 3625.98C1173.36 3625.98 1178.2 3625.02 1181.42 3623.08C1183.59 3621.79 1185.23 3619.71 1186.34 3616.84C1187.1 3614.79 1187.48 3611.01 1187.48 3605.51V3591.88C1180.1 3601.96 1170.78 3607 1159.53 3607C1146.99 3607 1137.06 3601.7 1129.74 3591.09C1124 3582.71 1121.12 3572.28 1121.12 3559.8C1121.12 3544.16 1124.88 3532.21 1132.38 3523.94C1139.93 3515.68 1149.31 3511.55 1160.5 3511.55C1172.04 3511.55 1181.56 3516.62 1189.06 3526.76V3513.66H1212.18V3597.42C1212.18 3608.44 1211.27 3616.67 1209.46 3622.12C1207.64 3627.57 1205.09 3631.84 1201.81 3634.95C1198.53 3638.05 1194.13 3640.49 1188.62 3642.24C1183.18 3644 1176.26 3644.88 1167.88 3644.88C1152.06 3644.88 1140.84 3642.16 1134.22 3636.71C1127.6 3631.32 1124.29 3624.46 1124.29 3616.14C1124.29 3615.32 1124.32 3614.32 1124.38 3613.15ZM1146.44 3558.4C1146.44 3568.3 1148.34 3575.56 1152.15 3580.19C1156.02 3584.76 1160.76 3587.05 1166.39 3587.05C1172.42 3587.05 1177.52 3584.71 1181.68 3580.02C1185.84 3575.27 1187.92 3568.27 1187.92 3559.01C1187.92 3549.34 1185.93 3542.17 1181.95 3537.48C1177.96 3532.79 1172.92 3530.45 1166.83 3530.45C1160.91 3530.45 1156.02 3532.76 1152.15 3537.39C1148.34 3541.96 1146.44 3548.96 1146.44 3558.4Z" fill="#FEFAFA"/>
<path d="M108.537 4234.63L133.762 4242.62C129.895 4256.69 123.449 4267.15 114.426 4274C105.461 4280.8 94.0645 4284.2 80.2363 4284.2C63.127 4284.2 49.0645 4278.37 38.0488 4266.71C27.0332 4254.99 21.5254 4238.99 21.5254 4218.72C21.5254 4197.27 27.0625 4180.63 38.1367 4168.8C49.2109 4156.9 63.7715 4150.96 81.8184 4150.96C97.5801 4150.96 110.383 4155.61 120.227 4164.93C126.086 4170.44 130.48 4178.35 133.41 4188.66L107.658 4194.81C106.135 4188.13 102.941 4182.86 98.0781 4178.99C93.2734 4175.12 87.4141 4173.19 80.5 4173.19C70.9492 4173.19 63.1855 4176.62 57.209 4183.47C51.291 4190.33 48.332 4201.43 48.332 4216.79C48.332 4233.07 51.2617 4244.68 57.1211 4251.59C62.9805 4258.5 70.5977 4261.96 79.9727 4261.96C86.8867 4261.96 92.834 4259.76 97.8145 4255.37C102.795 4250.97 106.369 4244.06 108.537 4234.63ZM179.641 4282H154.943V4188.66H177.883V4201.93C181.809 4195.66 185.324 4191.53 188.43 4189.54C191.594 4187.55 195.168 4186.55 199.152 4186.55C204.777 4186.55 210.197 4188.1 215.412 4191.21L207.766 4212.74C203.605 4210.05 199.738 4208.7 196.164 4208.7C192.707 4208.7 189.777 4209.67 187.375 4211.6C184.973 4213.47 183.068 4216.9 181.662 4221.88C180.314 4226.86 179.641 4237.29 179.641 4253.17V4282ZM226.135 4176V4153.15H250.832V4176H226.135ZM226.135 4282V4188.66H250.832V4282H226.135ZM330.285 4252.29L354.895 4256.42C351.73 4265.45 346.721 4272.33 339.865 4277.08C333.068 4281.77 324.543 4284.11 314.289 4284.11C298.059 4284.11 286.047 4278.81 278.254 4268.2C272.102 4259.71 269.025 4248.98 269.025 4236.03C269.025 4220.56 273.068 4208.46 281.154 4199.73C289.24 4190.95 299.465 4186.55 311.828 4186.55C325.715 4186.55 336.672 4191.15 344.699 4200.35C352.727 4209.49 356.564 4223.52 356.213 4242.45H294.338C294.514 4249.77 296.506 4255.49 300.314 4259.59C304.123 4263.63 308.869 4265.65 314.553 4265.65C318.42 4265.65 321.672 4264.6 324.309 4262.49C326.945 4260.38 328.938 4256.98 330.285 4252.29ZM331.691 4227.33C331.516 4220.18 329.67 4214.76 326.154 4211.07C322.639 4207.32 318.361 4205.45 313.322 4205.45C307.932 4205.45 303.479 4207.41 299.963 4211.34C296.447 4215.26 294.719 4220.59 294.777 4227.33H331.691ZM367.727 4255.37L392.512 4251.59C393.566 4256.39 395.705 4260.06 398.928 4262.58C402.15 4265.04 406.662 4266.27 412.463 4266.27C418.85 4266.27 423.654 4265.1 426.877 4262.75C429.045 4261.11 430.129 4258.91 430.129 4256.16C430.129 4254.29 429.543 4252.73 428.371 4251.5C427.141 4250.33 424.387 4249.25 420.109 4248.25C400.188 4243.86 387.561 4239.84 382.229 4236.21C374.846 4231.17 371.154 4224.17 371.154 4215.2C371.154 4207.12 374.348 4200.32 380.734 4194.81C387.121 4189.3 397.023 4186.55 410.441 4186.55C423.215 4186.55 432.707 4188.63 438.918 4192.79C445.129 4196.95 449.406 4203.1 451.75 4211.25L428.459 4215.55C427.463 4211.92 425.559 4209.14 422.746 4207.21C419.992 4205.27 416.037 4204.3 410.881 4204.3C404.377 4204.3 399.719 4205.21 396.906 4207.03C395.031 4208.32 394.094 4209.99 394.094 4212.04C394.094 4213.8 394.914 4215.29 396.555 4216.52C398.781 4218.16 406.457 4220.48 419.582 4223.46C432.766 4226.45 441.965 4230.12 447.18 4234.45C452.336 4238.85 454.914 4244.97 454.914 4252.82C454.914 4261.38 451.34 4268.73 444.191 4274.88C437.043 4281.03 426.467 4284.11 412.463 4284.11C399.748 4284.11 389.67 4281.53 382.229 4276.38C374.846 4271.22 370.012 4264.22 367.727 4255.37ZM640.891 4266.27L625.949 4285.34C618.625 4281.77 611.594 4276.84 604.855 4270.57C599.641 4275.26 594.104 4278.72 588.244 4280.95C582.385 4283.17 575.412 4284.29 567.326 4284.29C551.271 4284.29 539.201 4279.77 531.115 4270.75C524.846 4263.78 521.711 4255.75 521.711 4246.67C521.711 4238.41 524.172 4230.99 529.094 4224.43C534.016 4217.81 541.369 4212.07 551.154 4207.21C546.76 4201.99 543.449 4197.04 541.223 4192.35C538.996 4187.61 537.883 4183.12 537.883 4178.9C537.883 4171.11 540.988 4164.52 547.199 4159.13C553.469 4153.68 562.375 4150.96 573.918 4150.96C585.051 4150.96 593.752 4153.8 600.021 4159.48C606.291 4165.16 609.426 4172.11 609.426 4180.31C609.426 4185.53 607.873 4190.48 604.768 4195.16C601.662 4199.85 595.393 4205.15 585.959 4211.07L603.889 4234.71C605.998 4230.96 607.814 4226.07 609.338 4220.04L631.662 4225.13C629.436 4233.04 627.502 4238.85 625.861 4242.54C624.221 4246.17 622.463 4249.22 620.588 4251.68C623.342 4254.26 626.887 4257.1 631.223 4260.2C635.617 4263.25 638.84 4265.27 640.891 4266.27ZM573.654 4196.22L580.334 4191.12C585.256 4187.31 587.717 4183.53 587.717 4179.78C587.717 4176.62 586.516 4173.92 584.113 4171.7C581.77 4169.47 578.576 4168.36 574.533 4168.36C570.607 4168.36 567.531 4169.35 565.305 4171.35C563.078 4173.28 561.965 4175.54 561.965 4178.11C561.965 4181.16 563.84 4184.85 567.59 4189.19L573.654 4196.22ZM563.986 4223.03C558.303 4225.9 554.055 4229.35 551.242 4233.4C548.43 4237.44 547.023 4241.57 547.023 4245.79C547.023 4251.12 548.752 4255.49 552.209 4258.88C555.725 4262.22 560.412 4263.89 566.271 4263.89C570.139 4263.89 573.859 4263.13 577.434 4261.61C581.008 4260.09 584.904 4257.57 589.123 4254.05L563.986 4223.03ZM725.354 4282L694.592 4153.15H721.223L740.646 4241.66L764.201 4153.15H795.139L817.727 4243.15L837.502 4153.15H863.693L832.404 4282H804.807L779.143 4185.67L753.566 4282H725.354ZM901.486 4153.15V4200.53C909.455 4191.21 918.977 4186.55 930.051 4186.55C935.734 4186.55 940.861 4187.61 945.432 4189.71C950.002 4191.82 953.43 4194.52 955.715 4197.8C958.059 4201.08 959.641 4204.71 960.461 4208.7C961.34 4212.68 961.779 4218.87 961.779 4227.24V4282H937.082V4232.69C937.082 4222.91 936.613 4216.7 935.676 4214.06C934.738 4211.42 933.068 4209.34 930.666 4207.82C928.322 4206.24 925.363 4205.45 921.789 4205.45C917.688 4205.45 914.025 4206.44 910.803 4208.44C907.58 4210.43 905.207 4213.45 903.684 4217.49C902.219 4221.47 901.486 4227.39 901.486 4235.24V4282H876.789V4153.15H901.486ZM986.916 4176V4153.15H1011.61V4176H986.916ZM986.916 4282V4188.66H1011.61V4282H986.916ZM1028.31 4255.37L1053.1 4251.59C1054.15 4256.39 1056.29 4260.06 1059.51 4262.58C1062.74 4265.04 1067.25 4266.27 1073.05 4266.27C1079.44 4266.27 1084.24 4265.1 1087.46 4262.75C1089.63 4261.11 1090.71 4258.91 1090.71 4256.16C1090.71 4254.29 1090.13 4252.73 1088.96 4251.5C1087.73 4250.33 1084.97 4249.25 1080.7 4248.25C1060.77 4243.86 1048.15 4239.84 1042.81 4236.21C1035.43 4231.17 1031.74 4224.17 1031.74 4215.2C1031.74 4207.12 1034.93 4200.32 1041.32 4194.81C1047.71 4189.3 1057.61 4186.55 1071.03 4186.55C1083.8 4186.55 1093.29 4188.63 1099.5 4192.79C1105.71 4196.95 1109.99 4203.1 1112.34 4211.25L1089.04 4215.55C1088.05 4211.92 1086.14 4209.14 1083.33 4207.21C1080.58 4205.27 1076.62 4204.3 1071.47 4204.3C1064.96 4204.3 1060.3 4205.21 1057.49 4207.03C1055.62 4208.32 1054.68 4209.99 1054.68 4212.04C1054.68 4213.8 1055.5 4215.29 1057.14 4216.52C1059.37 4218.16 1067.04 4220.48 1080.17 4223.46C1093.35 4226.45 1102.55 4230.12 1107.77 4234.45C1112.92 4238.85 1115.5 4244.97 1115.5 4252.82C1115.5 4261.38 1111.93 4268.73 1104.78 4274.88C1097.63 4281.03 1087.05 4284.11 1073.05 4284.11C1060.33 4284.11 1050.26 4281.53 1042.81 4276.38C1035.43 4271.22 1030.6 4264.22 1028.31 4255.37ZM1136.51 4188.66H1159.53V4202.37C1162.52 4197.68 1166.56 4193.88 1171.66 4190.95C1176.76 4188.02 1182.41 4186.55 1188.62 4186.55C1199.46 4186.55 1208.66 4190.8 1216.22 4199.29C1223.78 4207.79 1227.56 4219.63 1227.56 4234.8C1227.56 4250.39 1223.75 4262.52 1216.13 4271.19C1208.52 4279.8 1199.29 4284.11 1188.45 4284.11C1183.29 4284.11 1178.61 4283.08 1174.39 4281.03C1170.23 4278.98 1165.83 4275.47 1161.2 4270.49V4317.51H1136.51V4188.66ZM1160.94 4233.75C1160.94 4244.24 1163.02 4252 1167.18 4257.04C1171.34 4262.02 1176.41 4264.51 1182.38 4264.51C1188.13 4264.51 1192.9 4262.22 1196.71 4257.65C1200.52 4253.03 1202.42 4245.47 1202.42 4234.98C1202.42 4225.19 1200.46 4217.93 1196.54 4213.18C1192.61 4208.44 1187.75 4206.06 1181.95 4206.06C1175.91 4206.06 1170.9 4208.41 1166.92 4213.09C1162.93 4217.72 1160.94 4224.61 1160.94 4233.75ZM1301.3 4252.29L1325.91 4256.42C1322.75 4265.45 1317.74 4272.33 1310.88 4277.08C1304.08 4281.77 1295.56 4284.11 1285.3 4284.11C1269.07 4284.11 1257.06 4278.81 1249.27 4268.2C1243.12 4259.71 1240.04 4248.98 1240.04 4236.03C1240.04 4220.56 1244.08 4208.46 1252.17 4199.73C1260.26 4190.95 1270.48 4186.55 1282.84 4186.55C1296.73 4186.55 1307.69 4191.15 1315.71 4200.35C1323.74 4209.49 1327.58 4223.52 1327.23 4242.45H1265.35C1265.53 4249.77 1267.52 4255.49 1271.33 4259.59C1275.14 4263.63 1279.88 4265.65 1285.57 4265.65C1289.44 4265.65 1292.69 4264.6 1295.32 4262.49C1297.96 4260.38 1299.95 4256.98 1301.3 4252.29ZM1302.71 4227.33C1302.53 4220.18 1300.69 4214.76 1297.17 4211.07C1293.65 4207.32 1289.38 4205.45 1284.34 4205.45C1278.95 4205.45 1274.49 4207.41 1270.98 4211.34C1267.46 4215.26 1265.73 4220.59 1265.79 4227.33H1302.71ZM1371.09 4282H1346.39V4188.66H1369.33V4201.93C1373.25 4195.66 1376.77 4191.53 1379.88 4189.54C1383.04 4187.55 1386.61 4186.55 1390.6 4186.55C1396.22 4186.55 1401.64 4188.1 1406.86 4191.21L1399.21 4212.74C1395.05 4210.05 1391.18 4208.7 1387.61 4208.7C1384.15 4208.7 1381.22 4209.67 1378.82 4211.6C1376.42 4213.47 1374.51 4216.9 1373.11 4221.88C1371.76 4226.86 1371.09 4237.29 1371.09 4253.17V4282ZM1408.88 4255.37L1433.66 4251.59C1434.72 4256.39 1436.86 4260.06 1440.08 4262.58C1443.3 4265.04 1447.81 4266.27 1453.62 4266.27C1460 4266.27 1464.81 4265.1 1468.03 4262.75C1470.2 4261.11 1471.28 4258.91 1471.28 4256.16C1471.28 4254.29 1470.7 4252.73 1469.52 4251.5C1468.29 4250.33 1465.54 4249.25 1461.26 4248.25C1441.34 4243.86 1428.71 4239.84 1423.38 4236.21C1416 4231.17 1412.31 4224.17 1412.31 4215.2C1412.31 4207.12 1415.5 4200.32 1421.89 4194.81C1428.27 4189.3 1438.18 4186.55 1451.59 4186.55C1464.37 4186.55 1473.86 4188.63 1480.07 4192.79C1486.28 4196.95 1490.56 4203.1 1492.9 4211.25L1469.61 4215.55C1468.62 4211.92 1466.71 4209.14 1463.9 4207.21C1461.14 4205.27 1457.19 4204.3 1452.03 4204.3C1445.53 4204.3 1440.87 4205.21 1438.06 4207.03C1436.18 4208.32 1435.25 4209.99 1435.25 4212.04C1435.25 4213.8 1436.07 4215.29 1437.71 4216.52C1439.93 4218.16 1447.61 4220.48 1460.73 4223.46C1473.92 4226.45 1483.12 4230.12 1488.33 4234.45C1493.49 4238.85 1496.07 4244.97 1496.07 4252.82C1496.07 4261.38 1492.49 4268.73 1485.34 4274.88C1478.2 4281.03 1467.62 4284.11 1453.62 4284.11C1440.9 4284.11 1430.82 4281.53 1423.38 4276.38C1416 4271.22 1411.16 4264.22 1408.88 4255.37Z" fill="#FEFAFA"/>
</svg>
