<svg width="2572" height="4546" viewBox="0 0 2572 4546" fill="none" xmlns="http://www.w3.org/2000/svg">
<path d="M6.50391 228.076L31.8164 225.615C33.3398 234.111 36.416 240.352 41.0449 244.336C45.7324 248.32 52.0312 250.312 59.9414 250.312C68.3203 250.312 74.6191 248.555 78.8379 245.039C83.1152 241.465 85.2539 237.305 85.2539 232.559C85.2539 229.512 84.3457 226.934 82.5293 224.824C80.7715 222.656 77.666 220.781 73.2129 219.199C70.166 218.145 63.2227 216.27 52.3828 213.574C38.4375 210.117 28.6523 205.869 23.0273 200.83C15.1172 193.74 11.1621 185.098 11.1621 174.902C11.1621 168.34 13.0078 162.217 16.6992 156.533C20.4492 150.791 25.8105 146.426 32.7832 143.438C39.8145 140.449 48.2812 138.955 58.1836 138.955C74.3555 138.955 86.5137 142.5 94.6582 149.59C102.861 156.68 107.168 166.143 107.578 177.979L81.5625 179.121C80.4492 172.5 78.0469 167.754 74.3555 164.883C70.7227 161.953 65.2441 160.488 57.9199 160.488C50.3613 160.488 44.4434 162.041 40.166 165.146C37.4121 167.139 36.0352 169.805 36.0352 173.145C36.0352 176.191 37.3242 178.799 39.9023 180.967C43.1836 183.721 51.1523 186.592 63.8086 189.58C76.4648 192.568 85.8105 195.674 91.8457 198.896C97.9395 202.061 102.686 206.426 106.084 211.992C109.541 217.5 111.27 224.326 111.27 232.471C111.27 239.854 109.219 246.768 105.117 253.213C101.016 259.658 95.2148 264.463 87.7148 267.627C80.2148 270.732 70.8691 272.285 59.6777 272.285C43.3887 272.285 30.8789 268.535 22.1484 261.035C13.418 253.477 8.20312 242.49 6.50391 228.076ZM194.414 270V256.025C191.016 261.006 186.533 264.932 180.967 267.803C175.459 270.674 169.629 272.109 163.477 272.109C157.207 272.109 151.582 270.732 146.602 267.979C141.621 265.225 138.018 261.357 135.791 256.377C133.564 251.396 132.451 244.512 132.451 235.723V176.66H157.148V219.551C157.148 232.676 157.588 240.732 158.467 243.721C159.404 246.65 161.074 248.994 163.477 250.752C165.879 252.451 168.926 253.301 172.617 253.301C176.836 253.301 180.615 252.158 183.955 249.873C187.295 247.529 189.58 244.658 190.811 241.26C192.041 237.803 192.656 229.395 192.656 216.035V176.66H217.354V270H194.414ZM327.92 270H303.223V222.363C303.223 212.285 302.695 205.781 301.641 202.852C300.586 199.863 298.857 197.549 296.455 195.908C294.111 194.268 291.27 193.447 287.93 193.447C283.652 193.447 279.814 194.619 276.416 196.963C273.018 199.307 270.674 202.412 269.385 206.279C268.154 210.146 267.539 217.295 267.539 227.725V270H242.842V176.66H265.781V190.371C273.926 179.824 284.18 174.551 296.543 174.551C301.992 174.551 306.973 175.547 311.484 177.539C315.996 179.473 319.395 181.963 321.68 185.01C324.023 188.057 325.635 191.514 326.514 195.381C327.451 199.248 327.92 204.785 327.92 211.992V270ZM344.355 243.369L369.141 239.59C370.195 244.395 372.334 248.057 375.557 250.576C378.779 253.037 383.291 254.268 389.092 254.268C395.479 254.268 400.283 253.096 403.506 250.752C405.674 249.111 406.758 246.914 406.758 244.16C406.758 242.285 406.172 240.732 405 239.502C403.77 238.33 401.016 237.246 396.738 236.25C376.816 231.855 364.189 227.842 358.857 224.209C351.475 219.17 347.783 212.168 347.783 203.203C347.783 195.117 350.977 188.32 357.363 182.812C363.75 177.305 373.652 174.551 387.07 174.551C399.844 174.551 409.336 176.631 415.547 180.791C421.758 184.951 426.035 191.104 428.379 199.248L405.088 203.555C404.092 199.922 402.188 197.139 399.375 195.205C396.621 193.271 392.666 192.305 387.51 192.305C381.006 192.305 376.348 193.213 373.535 195.029C371.66 196.318 370.723 197.988 370.723 200.039C370.723 201.797 371.543 203.291 373.184 204.521C375.41 206.162 383.086 208.477 396.211 211.465C409.395 214.453 418.594 218.115 423.809 222.451C428.965 226.846 431.543 232.969 431.543 240.82C431.543 249.375 427.969 256.729 420.82 262.881C413.672 269.033 403.096 272.109 389.092 272.109C376.377 272.109 366.299 269.531 358.857 264.375C351.475 259.219 346.641 252.217 344.355 243.369ZM507.305 240.293L531.914 244.424C528.75 253.447 523.74 260.332 516.885 265.078C510.088 269.766 501.562 272.109 491.309 272.109C475.078 272.109 463.066 266.807 455.273 256.201C449.121 247.705 446.045 236.982 446.045 224.033C446.045 208.564 450.088 196.465 458.174 187.734C466.26 178.945 476.484 174.551 488.848 174.551C502.734 174.551 513.691 179.15 521.719 188.35C529.746 197.49 533.584 211.523 533.232 230.449H471.357C471.533 237.773 473.525 243.486 477.334 247.588C481.143 251.631 485.889 253.652 491.572 253.652C495.439 253.652 498.691 252.598 501.328 250.488C503.965 248.379 505.957 244.98 507.305 240.293ZM508.711 215.332C508.535 208.184 506.689 202.764 503.174 199.072C499.658 195.322 495.381 193.447 490.342 193.447C484.951 193.447 480.498 195.41 476.982 199.336C473.467 203.262 471.738 208.594 471.797 215.332H508.711ZM596.25 176.66V196.348H579.375V233.965C579.375 241.582 579.521 246.035 579.814 247.324C580.166 248.555 580.898 249.58 582.012 250.4C583.184 251.221 584.59 251.631 586.23 251.631C588.516 251.631 591.826 250.84 596.162 249.258L598.271 268.418C592.529 270.879 586.025 272.109 578.76 272.109C574.307 272.109 570.293 271.377 566.719 269.912C563.145 268.389 560.508 266.455 558.809 264.111C557.168 261.709 556.025 258.486 555.381 254.443C554.854 251.572 554.59 245.771 554.59 237.041V196.348H543.252V176.66H554.59V158.115L579.375 143.701V176.66H596.25ZM663.75 141.152H715.254C725.449 141.152 733.037 141.592 738.018 142.471C743.057 143.291 747.539 145.049 751.465 147.744C755.449 150.439 758.76 154.043 761.396 158.555C764.033 163.008 765.352 168.018 765.352 173.584C765.352 179.619 763.711 185.156 760.43 190.195C757.207 195.234 752.812 199.014 747.246 201.533C755.098 203.818 761.133 207.715 765.352 213.223C769.57 218.73 771.68 225.205 771.68 232.646C771.68 238.506 770.303 244.219 767.549 249.785C764.854 255.293 761.133 259.717 756.387 263.057C751.699 266.338 745.898 268.359 738.984 269.121C734.648 269.59 724.189 269.883 707.607 270H663.75V141.152ZM689.766 162.598V192.393H706.816C716.953 192.393 723.252 192.246 725.713 191.953C730.166 191.426 733.652 189.902 736.172 187.383C738.75 184.805 740.039 181.436 740.039 177.275C740.039 173.291 738.926 170.068 736.699 167.607C734.531 165.088 731.279 163.564 726.943 163.037C724.365 162.744 716.953 162.598 704.707 162.598H689.766ZM689.766 213.838V248.291H713.848C723.223 248.291 729.17 248.027 731.689 247.5C735.557 246.797 738.691 245.098 741.094 242.402C743.555 239.648 744.785 235.986 744.785 231.416C744.785 227.549 743.848 224.268 741.973 221.572C740.098 218.877 737.373 216.914 733.799 215.684C730.283 214.453 722.607 213.838 710.771 213.838H689.766ZM793.564 270V141.152H818.262V270H793.564ZM869.326 270L831.709 176.66H857.637L875.215 224.297L880.312 240.205C881.66 236.162 882.51 233.496 882.861 232.207C883.682 229.57 884.561 226.934 885.498 224.297L903.252 176.66H928.652L891.562 270H869.326ZM1029.46 270H1006.52V256.289C1002.71 261.621 998.203 265.605 992.988 268.242C987.832 270.82 982.617 272.109 977.344 272.109C966.621 272.109 957.422 267.803 949.746 259.189C942.129 250.518 938.32 238.447 938.32 222.979C938.32 207.158 942.041 195.146 949.482 186.943C956.924 178.682 966.328 174.551 977.695 174.551C988.125 174.551 997.148 178.887 1004.77 187.559V141.152H1029.46V270ZM963.545 221.309C963.545 231.27 964.922 238.477 967.676 242.93C971.66 249.375 977.227 252.598 984.375 252.598C990.059 252.598 994.893 250.195 998.877 245.391C1002.86 240.527 1004.85 233.291 1004.85 223.682C1004.85 212.959 1002.92 205.254 999.053 200.566C995.186 195.82 990.234 193.447 984.199 193.447C978.34 193.447 973.418 195.791 969.434 200.479C965.508 205.107 963.545 212.051 963.545 221.309ZM1053.9 270V245.303H1078.59V270H1053.9Z" fill="#FEFAFA"/>
<path d="M60.0996 890V782.949H21.8672V761.152H124.26V782.949H86.1152V890H60.0996ZM165.568 761.152V808.525C173.537 799.209 183.059 794.551 194.133 794.551C199.816 794.551 204.943 795.605 209.514 797.715C214.084 799.824 217.512 802.52 219.797 805.801C222.141 809.082 223.723 812.715 224.543 816.699C225.422 820.684 225.861 826.865 225.861 835.244V890H201.164V840.693C201.164 830.908 200.695 824.697 199.758 822.061C198.82 819.424 197.15 817.344 194.748 815.82C192.404 814.238 189.445 813.447 185.871 813.447C181.77 813.447 178.107 814.443 174.885 816.436C171.662 818.428 169.289 821.445 167.766 825.488C166.301 829.473 165.568 835.391 165.568 843.242V890H140.871V761.152H165.568ZM305.051 860.293L329.66 864.424C326.496 873.447 321.486 880.332 314.631 885.078C307.834 889.766 299.309 892.109 289.055 892.109C272.824 892.109 260.812 886.807 253.02 876.201C246.867 867.705 243.791 856.982 243.791 844.033C243.791 828.564 247.834 816.465 255.92 807.734C264.006 798.945 274.23 794.551 286.594 794.551C300.48 794.551 311.438 799.15 319.465 808.35C327.492 817.49 331.33 831.523 330.979 850.449H269.104C269.279 857.773 271.271 863.486 275.08 867.588C278.889 871.631 283.635 873.652 289.318 873.652C293.186 873.652 296.438 872.598 299.074 870.488C301.711 868.379 303.703 864.98 305.051 860.293ZM306.457 835.332C306.281 828.184 304.436 822.764 300.92 819.072C297.404 815.322 293.127 813.447 288.088 813.447C282.697 813.447 278.244 815.41 274.729 819.336C271.213 823.262 269.484 828.594 269.543 835.332H306.457ZM461.408 842.627V820.918H517.482V872.246C512.033 877.52 504.123 882.178 493.752 886.221C483.439 890.205 472.98 892.197 462.375 892.197C448.898 892.197 437.15 889.385 427.131 883.76C417.111 878.076 409.582 869.99 404.543 859.502C399.504 848.955 396.984 837.5 396.984 825.137C396.984 811.719 399.797 799.795 405.422 789.365C411.047 778.936 419.279 770.938 430.119 765.371C438.381 761.094 448.664 758.955 460.969 758.955C476.965 758.955 489.445 762.324 498.41 769.062C507.434 775.742 513.234 785 515.812 796.836L489.973 801.67C488.156 795.342 484.729 790.361 479.689 786.729C474.709 783.037 468.469 781.191 460.969 781.191C449.602 781.191 440.549 784.795 433.811 792.002C427.131 799.209 423.791 809.902 423.791 824.082C423.791 839.375 427.189 850.859 433.986 858.535C440.783 866.152 449.689 869.961 460.705 869.961C466.154 869.961 471.604 868.906 477.053 866.797C482.561 864.629 487.277 862.021 491.203 858.975V842.627H461.408ZM595.441 860.293L620.051 864.424C616.887 873.447 611.877 880.332 605.021 885.078C598.225 889.766 589.699 892.109 579.445 892.109C563.215 892.109 551.203 886.807 543.41 876.201C537.258 867.705 534.182 856.982 534.182 844.033C534.182 828.564 538.225 816.465 546.311 807.734C554.396 798.945 564.621 794.551 576.984 794.551C590.871 794.551 601.828 799.15 609.855 808.35C617.883 817.49 621.721 831.523 621.369 850.449H559.494C559.67 857.773 561.662 863.486 565.471 867.588C569.279 871.631 574.025 873.652 579.709 873.652C583.576 873.652 586.828 872.598 589.465 870.488C592.102 868.379 594.094 864.98 595.441 860.293ZM596.848 835.332C596.672 828.184 594.826 822.764 591.311 819.072C587.795 815.322 583.518 813.447 578.479 813.447C573.088 813.447 568.635 815.41 565.119 819.336C561.604 823.262 559.875 828.594 559.934 835.332H596.848ZM726.486 890H701.789V842.363C701.789 832.285 701.262 825.781 700.207 822.852C699.152 819.863 697.424 817.549 695.021 815.908C692.678 814.268 689.836 813.447 686.496 813.447C682.219 813.447 678.381 814.619 674.982 816.963C671.584 819.307 669.24 822.412 667.951 826.279C666.721 830.146 666.105 837.295 666.105 847.725V890H641.408V796.66H664.348V810.371C672.492 799.824 682.746 794.551 695.109 794.551C700.559 794.551 705.539 795.547 710.051 797.539C714.562 799.473 717.961 801.963 720.246 805.01C722.59 808.057 724.201 811.514 725.08 815.381C726.018 819.248 726.486 824.785 726.486 831.992V890ZM805.676 860.293L830.285 864.424C827.121 873.447 822.111 880.332 815.256 885.078C808.459 889.766 799.934 892.109 789.68 892.109C773.449 892.109 761.438 886.807 753.645 876.201C747.492 867.705 744.416 856.982 744.416 844.033C744.416 828.564 748.459 816.465 756.545 807.734C764.631 798.945 774.855 794.551 787.219 794.551C801.105 794.551 812.062 799.15 820.09 808.35C828.117 817.49 831.955 831.523 831.604 850.449H769.729C769.904 857.773 771.896 863.486 775.705 867.588C779.514 871.631 784.26 873.652 789.943 873.652C793.811 873.652 797.062 872.598 799.699 870.488C802.336 868.379 804.328 864.98 805.676 860.293ZM807.082 835.332C806.906 828.184 805.061 822.764 801.545 819.072C798.029 815.322 793.752 813.447 788.713 813.447C783.322 813.447 778.869 815.41 775.354 819.336C771.838 823.262 770.109 828.594 770.168 835.332H807.082ZM875.461 890H850.764V796.66H873.703V809.932C877.629 803.662 881.145 799.531 884.25 797.539C887.414 795.547 890.988 794.551 894.973 794.551C900.598 794.551 906.018 796.104 911.232 799.209L903.586 820.742C899.426 818.047 895.559 816.699 891.984 816.699C888.527 816.699 885.598 817.666 883.195 819.6C880.793 821.475 878.889 824.902 877.482 829.883C876.135 834.863 875.461 845.293 875.461 861.172V890ZM940.412 825.137L918 821.094C920.52 812.07 924.855 805.391 931.008 801.055C937.16 796.719 946.301 794.551 958.43 794.551C969.445 794.551 977.648 795.869 983.039 798.506C988.43 801.084 992.209 804.395 994.377 808.438C996.604 812.422 997.717 819.775 997.717 830.498L997.453 859.326C997.453 867.529 997.834 873.594 998.596 877.52C999.416 881.387 1000.91 885.547 1003.08 890H978.645C978 888.359 977.209 885.928 976.271 882.705C975.861 881.24 975.568 880.273 975.393 879.805C971.174 883.906 966.662 886.982 961.857 889.033C957.053 891.084 951.926 892.109 946.477 892.109C936.867 892.109 929.279 889.502 923.713 884.287C918.205 879.072 915.451 872.48 915.451 864.512C915.451 859.238 916.711 854.551 919.23 850.449C921.75 846.289 925.266 843.125 929.777 840.957C934.348 838.73 940.91 836.797 949.465 835.156C961.008 832.988 969.006 830.967 973.459 829.092V826.631C973.459 821.885 972.287 818.516 969.943 816.523C967.6 814.473 963.176 813.447 956.672 813.447C952.277 813.447 948.85 814.326 946.389 816.084C943.928 817.783 941.936 820.801 940.412 825.137ZM973.459 845.176C970.295 846.23 965.285 847.49 958.43 848.955C951.574 850.42 947.092 851.855 944.982 853.262C941.76 855.547 940.148 858.447 940.148 861.963C940.148 865.42 941.438 868.408 944.016 870.928C946.594 873.447 949.875 874.707 953.859 874.707C958.312 874.707 962.561 873.242 966.604 870.312C969.592 868.086 971.555 865.361 972.492 862.139C973.137 860.029 973.459 856.016 973.459 850.098V845.176ZM1022.15 890V761.152H1046.85V890H1022.15Z" fill="#FEFAFA"/>
<path d="M42.0996 1520V1412.95H3.86719V1391.15H106.26V1412.95H68.1152V1520H42.0996ZM147.568 1391.15V1438.53C155.537 1429.21 165.059 1424.55 176.133 1424.55C181.816 1424.55 186.943 1425.61 191.514 1427.71C196.084 1429.82 199.512 1432.52 201.797 1435.8C204.141 1439.08 205.723 1442.71 206.543 1446.7C207.422 1450.68 207.861 1456.87 207.861 1465.24V1520H183.164V1470.69C183.164 1460.91 182.695 1454.7 181.758 1452.06C180.82 1449.42 179.15 1447.34 176.748 1445.82C174.404 1444.24 171.445 1443.45 167.871 1443.45C163.77 1443.45 160.107 1444.44 156.885 1446.44C153.662 1448.43 151.289 1451.45 149.766 1455.49C148.301 1459.47 147.568 1465.39 147.568 1473.24V1520H122.871V1391.15H147.568ZM287.051 1490.29L311.66 1494.42C308.496 1503.45 303.486 1510.33 296.631 1515.08C289.834 1519.77 281.309 1522.11 271.055 1522.11C254.824 1522.11 242.812 1516.81 235.02 1506.2C228.867 1497.71 225.791 1486.98 225.791 1474.03C225.791 1458.56 229.834 1446.46 237.92 1437.73C246.006 1428.95 256.23 1424.55 268.594 1424.55C282.48 1424.55 293.438 1429.15 301.465 1438.35C309.492 1447.49 313.33 1461.52 312.979 1480.45H251.104C251.279 1487.77 253.271 1493.49 257.08 1497.59C260.889 1501.63 265.635 1503.65 271.318 1503.65C275.186 1503.65 278.438 1502.6 281.074 1500.49C283.711 1498.38 285.703 1494.98 287.051 1490.29ZM288.457 1465.33C288.281 1458.18 286.436 1452.76 282.92 1449.07C279.404 1445.32 275.127 1443.45 270.088 1443.45C264.697 1443.45 260.244 1445.41 256.729 1449.34C253.213 1453.26 251.484 1458.59 251.543 1465.33H288.457ZM383.467 1520V1391.15H425.215C441.035 1391.15 451.348 1391.8 456.152 1393.09C463.535 1395.02 469.717 1399.24 474.697 1405.74C479.678 1412.19 482.168 1420.54 482.168 1430.79C482.168 1438.7 480.732 1445.35 477.861 1450.74C474.99 1456.13 471.328 1460.38 466.875 1463.49C462.48 1466.53 457.998 1468.55 453.428 1469.55C447.217 1470.78 438.223 1471.4 426.445 1471.4H409.482V1520H383.467ZM409.482 1412.95V1449.51H423.721C433.975 1449.51 440.83 1448.84 444.287 1447.49C447.744 1446.14 450.439 1444.03 452.373 1441.16C454.365 1438.29 455.361 1434.95 455.361 1431.14C455.361 1426.46 453.984 1422.59 451.23 1419.54C448.477 1416.49 444.99 1414.59 440.771 1413.83C437.666 1413.24 431.426 1412.95 422.051 1412.95H409.482ZM521.807 1455.14L499.395 1451.09C501.914 1442.07 506.25 1435.39 512.402 1431.05C518.555 1426.72 527.695 1424.55 539.824 1424.55C550.84 1424.55 559.043 1425.87 564.434 1428.51C569.824 1431.08 573.604 1434.39 575.771 1438.44C577.998 1442.42 579.111 1449.78 579.111 1460.5L578.848 1489.33C578.848 1497.53 579.229 1503.59 579.99 1507.52C580.811 1511.39 582.305 1515.55 584.473 1520H560.039C559.395 1518.36 558.604 1515.93 557.666 1512.71C557.256 1511.24 556.963 1510.27 556.787 1509.8C552.568 1513.91 548.057 1516.98 543.252 1519.03C538.447 1521.08 533.32 1522.11 527.871 1522.11C518.262 1522.11 510.674 1519.5 505.107 1514.29C499.6 1509.07 496.846 1502.48 496.846 1494.51C496.846 1489.24 498.105 1484.55 500.625 1480.45C503.145 1476.29 506.66 1473.12 511.172 1470.96C515.742 1468.73 522.305 1466.8 530.859 1465.16C542.402 1462.99 550.4 1460.97 554.854 1459.09V1456.63C554.854 1451.88 553.682 1448.52 551.338 1446.52C548.994 1444.47 544.57 1443.45 538.066 1443.45C533.672 1443.45 530.244 1444.33 527.783 1446.08C525.322 1447.78 523.33 1450.8 521.807 1455.14ZM554.854 1475.18C551.689 1476.23 546.68 1477.49 539.824 1478.96C532.969 1480.42 528.486 1481.86 526.377 1483.26C523.154 1485.55 521.543 1488.45 521.543 1491.96C521.543 1495.42 522.832 1498.41 525.41 1500.93C527.988 1503.45 531.27 1504.71 535.254 1504.71C539.707 1504.71 543.955 1503.24 547.998 1500.31C550.986 1498.09 552.949 1495.36 553.887 1492.14C554.531 1490.03 554.854 1486.02 554.854 1480.1V1475.18ZM594.844 1493.37L619.629 1489.59C620.684 1494.39 622.822 1498.06 626.045 1500.58C629.268 1503.04 633.779 1504.27 639.58 1504.27C645.967 1504.27 650.771 1503.1 653.994 1500.75C656.162 1499.11 657.246 1496.91 657.246 1494.16C657.246 1492.29 656.66 1490.73 655.488 1489.5C654.258 1488.33 651.504 1487.25 647.227 1486.25C627.305 1481.86 614.678 1477.84 609.346 1474.21C601.963 1469.17 598.271 1462.17 598.271 1453.2C598.271 1445.12 601.465 1438.32 607.852 1432.81C614.238 1427.3 624.141 1424.55 637.559 1424.55C650.332 1424.55 659.824 1426.63 666.035 1430.79C672.246 1434.95 676.523 1441.1 678.867 1449.25L655.576 1453.55C654.58 1449.92 652.676 1447.14 649.863 1445.21C647.109 1443.27 643.154 1442.3 637.998 1442.3C631.494 1442.3 626.836 1443.21 624.023 1445.03C622.148 1446.32 621.211 1447.99 621.211 1450.04C621.211 1451.8 622.031 1453.29 623.672 1454.52C625.898 1456.16 633.574 1458.48 646.699 1461.46C659.883 1464.45 669.082 1468.12 674.297 1472.45C679.453 1476.85 682.031 1482.97 682.031 1490.82C682.031 1499.38 678.457 1506.73 671.309 1512.88C664.16 1519.03 653.584 1522.11 639.58 1522.11C626.865 1522.11 616.787 1519.53 609.346 1514.38C601.963 1509.22 597.129 1502.22 594.844 1493.37ZM695.039 1493.37L719.824 1489.59C720.879 1494.39 723.018 1498.06 726.24 1500.58C729.463 1503.04 733.975 1504.27 739.775 1504.27C746.162 1504.27 750.967 1503.1 754.189 1500.75C756.357 1499.11 757.441 1496.91 757.441 1494.16C757.441 1492.29 756.855 1490.73 755.684 1489.5C754.453 1488.33 751.699 1487.25 747.422 1486.25C727.5 1481.86 714.873 1477.84 709.541 1474.21C702.158 1469.17 698.467 1462.17 698.467 1453.2C698.467 1445.12 701.66 1438.32 708.047 1432.81C714.434 1427.3 724.336 1424.55 737.754 1424.55C750.527 1424.55 760.02 1426.63 766.23 1430.79C772.441 1434.95 776.719 1441.1 779.062 1449.25L755.771 1453.55C754.775 1449.92 752.871 1447.14 750.059 1445.21C747.305 1443.27 743.35 1442.3 738.193 1442.3C731.689 1442.3 727.031 1443.21 724.219 1445.03C722.344 1446.32 721.406 1447.99 721.406 1450.04C721.406 1451.8 722.227 1453.29 723.867 1454.52C726.094 1456.16 733.77 1458.48 746.895 1461.46C760.078 1464.45 769.277 1468.12 774.492 1472.45C779.648 1476.85 782.227 1482.97 782.227 1490.82C782.227 1499.38 778.652 1506.73 771.504 1512.88C764.355 1519.03 753.779 1522.11 739.775 1522.11C727.061 1522.11 716.982 1519.53 709.541 1514.38C702.158 1509.22 697.324 1502.22 695.039 1493.37ZM803.936 1414V1391.15H828.633V1414H803.936ZM803.936 1520V1426.66H828.633V1520H803.936ZM848.32 1472.01C848.32 1463.81 850.342 1455.87 854.385 1448.19C858.428 1440.52 864.141 1434.66 871.523 1430.62C878.965 1426.57 887.256 1424.55 896.396 1424.55C910.518 1424.55 922.09 1429.15 931.113 1438.35C940.137 1447.49 944.648 1459.06 944.648 1473.07C944.648 1487.19 940.078 1498.91 930.938 1508.22C921.855 1517.48 910.4 1522.11 896.572 1522.11C888.018 1522.11 879.844 1520.18 872.051 1516.31C864.316 1512.44 858.428 1506.79 854.385 1499.35C850.342 1491.85 848.32 1482.73 848.32 1472.01ZM873.633 1473.33C873.633 1482.59 875.83 1489.68 880.225 1494.6C884.619 1499.52 890.039 1501.98 896.484 1501.98C902.93 1501.98 908.32 1499.52 912.656 1494.6C917.051 1489.68 919.248 1482.53 919.248 1473.15C919.248 1464.01 917.051 1456.98 912.656 1452.06C908.32 1447.14 902.93 1444.68 896.484 1444.68C890.039 1444.68 884.619 1447.14 880.225 1452.06C875.83 1456.98 873.633 1464.07 873.633 1473.33ZM1048.97 1520H1024.28V1472.36C1024.28 1462.29 1023.75 1455.78 1022.7 1452.85C1021.64 1449.86 1019.91 1447.55 1017.51 1445.91C1015.17 1444.27 1012.32 1443.45 1008.98 1443.45C1004.71 1443.45 1000.87 1444.62 997.471 1446.96C994.072 1449.31 991.729 1452.41 990.439 1456.28C989.209 1460.15 988.594 1467.29 988.594 1477.72V1520H963.896V1426.66H986.836V1440.37C994.98 1429.82 1005.23 1424.55 1017.6 1424.55C1023.05 1424.55 1028.03 1425.55 1032.54 1427.54C1037.05 1429.47 1040.45 1431.96 1042.73 1435.01C1045.08 1438.06 1046.69 1441.51 1047.57 1445.38C1048.51 1449.25 1048.97 1454.79 1048.97 1461.99V1520ZM1118.5 1472.01C1118.5 1463.81 1120.52 1455.87 1124.56 1448.19C1128.6 1440.52 1134.32 1434.66 1141.7 1430.62C1149.14 1426.57 1157.43 1424.55 1166.57 1424.55C1180.69 1424.55 1192.27 1429.15 1201.29 1438.35C1210.31 1447.49 1214.82 1459.06 1214.82 1473.07C1214.82 1487.19 1210.25 1498.91 1201.11 1508.22C1192.03 1517.48 1180.58 1522.11 1166.75 1522.11C1158.19 1522.11 1150.02 1520.18 1142.23 1516.31C1134.49 1512.44 1128.6 1506.79 1124.56 1499.35C1120.52 1491.85 1118.5 1482.73 1118.5 1472.01ZM1143.81 1473.33C1143.81 1482.59 1146.01 1489.68 1150.4 1494.6C1154.79 1499.52 1160.21 1501.98 1166.66 1501.98C1173.11 1501.98 1178.5 1499.52 1182.83 1494.6C1187.23 1489.68 1189.42 1482.53 1189.42 1473.15C1189.42 1464.01 1187.23 1456.98 1182.83 1452.06C1178.5 1447.14 1173.11 1444.68 1166.66 1444.68C1160.21 1444.68 1154.79 1447.14 1150.4 1452.06C1146.01 1456.98 1143.81 1464.07 1143.81 1473.33ZM1223.44 1426.66H1237.15V1419.63C1237.15 1411.78 1237.97 1405.92 1239.61 1402.05C1241.31 1398.18 1244.38 1395.05 1248.84 1392.65C1253.35 1390.19 1259.03 1388.96 1265.89 1388.96C1272.92 1388.96 1279.8 1390.01 1286.54 1392.12L1283.2 1409.35C1279.28 1408.41 1275.5 1407.94 1271.87 1407.94C1268.29 1407.94 1265.71 1408.79 1264.13 1410.49C1262.61 1412.13 1261.85 1415.32 1261.85 1420.07V1426.66H1280.3V1446.08H1261.85V1520H1237.15V1446.08H1223.44V1426.66ZM1390.96 1391.15H1416.88V1472.71C1416.88 1483.38 1415.95 1491.58 1414.07 1497.32C1411.55 1504.82 1406.98 1510.86 1400.36 1515.43C1393.74 1519.94 1385.01 1522.2 1374.17 1522.2C1361.46 1522.2 1351.67 1518.65 1344.81 1511.56C1337.96 1504.41 1334.5 1493.96 1334.44 1480.19L1358.96 1477.37C1359.26 1484.76 1360.34 1489.97 1362.22 1493.02C1365.03 1497.65 1369.31 1499.96 1375.05 1499.96C1380.85 1499.96 1384.95 1498.32 1387.35 1495.04C1389.76 1491.7 1390.96 1484.81 1390.96 1474.38V1391.15ZM1438.77 1472.01C1438.77 1463.81 1440.79 1455.87 1444.83 1448.19C1448.88 1440.52 1454.59 1434.66 1461.97 1430.62C1469.41 1426.57 1477.71 1424.55 1486.85 1424.55C1500.97 1424.55 1512.54 1429.15 1521.56 1438.35C1530.59 1447.49 1535.1 1459.06 1535.1 1473.07C1535.1 1487.19 1530.53 1498.91 1521.39 1508.22C1512.3 1517.48 1500.85 1522.11 1487.02 1522.11C1478.47 1522.11 1470.29 1520.18 1462.5 1516.31C1454.77 1512.44 1448.88 1506.79 1444.83 1499.35C1440.79 1491.85 1438.77 1482.73 1438.77 1472.01ZM1464.08 1473.33C1464.08 1482.59 1466.28 1489.68 1470.67 1494.6C1475.07 1499.52 1480.49 1501.98 1486.93 1501.98C1493.38 1501.98 1498.77 1499.52 1503.11 1494.6C1507.5 1489.68 1509.7 1482.53 1509.7 1473.15C1509.7 1464.01 1507.5 1456.98 1503.11 1452.06C1498.77 1447.14 1493.38 1444.68 1486.93 1444.68C1480.49 1444.68 1475.07 1447.14 1470.67 1452.06C1466.28 1456.98 1464.08 1464.07 1464.08 1473.33ZM1572.98 1455.14L1550.57 1451.09C1553.09 1442.07 1557.42 1435.39 1563.57 1431.05C1569.73 1426.72 1578.87 1424.55 1591 1424.55C1602.01 1424.55 1610.21 1425.87 1615.61 1428.51C1621 1431.08 1624.78 1434.39 1626.94 1438.44C1629.17 1442.42 1630.28 1449.78 1630.28 1460.5L1630.02 1489.33C1630.02 1497.53 1630.4 1503.59 1631.16 1507.52C1631.98 1511.39 1633.48 1515.55 1635.64 1520H1611.21C1610.57 1518.36 1609.78 1515.93 1608.84 1512.71C1608.43 1511.24 1608.13 1510.27 1607.96 1509.8C1603.74 1513.91 1599.23 1516.98 1594.42 1519.03C1589.62 1521.08 1584.49 1522.11 1579.04 1522.11C1569.43 1522.11 1561.85 1519.5 1556.28 1514.29C1550.77 1509.07 1548.02 1502.48 1548.02 1494.51C1548.02 1489.24 1549.28 1484.55 1551.8 1480.45C1554.32 1476.29 1557.83 1473.12 1562.34 1470.96C1566.91 1468.73 1573.48 1466.8 1582.03 1465.16C1593.57 1462.99 1601.57 1460.97 1606.03 1459.09V1456.63C1606.03 1451.88 1604.85 1448.52 1602.51 1446.52C1600.17 1444.47 1595.74 1443.45 1589.24 1443.45C1584.84 1443.45 1581.42 1444.33 1578.96 1446.08C1576.49 1447.78 1574.5 1450.8 1572.98 1455.14ZM1606.03 1475.18C1602.86 1476.23 1597.85 1477.49 1591 1478.96C1584.14 1480.42 1579.66 1481.86 1577.55 1483.26C1574.33 1485.55 1572.71 1488.45 1572.71 1491.96C1572.71 1495.42 1574 1498.41 1576.58 1500.93C1579.16 1503.45 1582.44 1504.71 1586.43 1504.71C1590.88 1504.71 1595.13 1503.24 1599.17 1500.31C1602.16 1498.09 1604.12 1495.36 1605.06 1492.14C1605.7 1490.03 1606.03 1486.02 1606.03 1480.1V1475.18ZM1739.62 1520H1714.92V1472.36C1714.92 1462.29 1714.39 1455.78 1713.34 1452.85C1712.29 1449.86 1710.56 1447.55 1708.15 1445.91C1705.81 1444.27 1702.97 1443.45 1699.63 1443.45C1695.35 1443.45 1691.51 1444.62 1688.12 1446.96C1684.72 1449.31 1682.37 1452.41 1681.08 1456.28C1679.85 1460.15 1679.24 1467.29 1679.24 1477.72V1520H1654.54V1426.66H1677.48V1440.37C1685.62 1429.82 1695.88 1424.55 1708.24 1424.55C1713.69 1424.55 1718.67 1425.55 1723.18 1427.54C1727.7 1429.47 1731.09 1431.96 1733.38 1435.01C1735.72 1438.06 1737.33 1441.51 1738.21 1445.38C1739.15 1449.25 1739.62 1454.79 1739.62 1461.99V1520ZM7.20703 1679.01C7.20703 1670.81 9.22852 1662.87 13.2715 1655.19C17.3145 1647.52 23.0273 1641.66 30.4102 1637.62C37.8516 1633.57 46.1426 1631.55 55.2832 1631.55C69.4043 1631.55 80.9766 1636.15 90 1645.35C99.0234 1654.49 103.535 1666.06 103.535 1680.07C103.535 1694.19 98.9648 1705.91 89.8242 1715.22C80.7422 1724.48 69.2871 1729.11 55.459 1729.11C46.9043 1729.11 38.7305 1727.18 30.9375 1723.31C23.2031 1719.44 17.3145 1713.79 13.2715 1706.35C9.22852 1698.85 7.20703 1689.73 7.20703 1679.01ZM32.5195 1680.33C32.5195 1689.59 34.7168 1696.68 39.1113 1701.6C43.5059 1706.52 48.9258 1708.98 55.3711 1708.98C61.8164 1708.98 67.207 1706.52 71.543 1701.6C75.9375 1696.68 78.1348 1689.53 78.1348 1680.15C78.1348 1671.01 75.9375 1663.98 71.543 1659.06C67.207 1654.14 61.8164 1651.68 55.3711 1651.68C48.9258 1651.68 43.5059 1654.14 39.1113 1659.06C34.7168 1663.98 32.5195 1671.07 32.5195 1680.33ZM112.148 1633.66H125.859V1626.63C125.859 1618.78 126.68 1612.92 128.32 1609.05C130.02 1605.18 133.096 1602.05 137.549 1599.65C142.061 1597.19 147.744 1595.96 154.6 1595.96C161.631 1595.96 168.516 1597.01 175.254 1599.12L171.914 1616.35C167.988 1615.41 164.209 1614.94 160.576 1614.94C157.002 1614.94 154.424 1615.79 152.842 1617.49C151.318 1619.13 150.557 1622.32 150.557 1627.07V1633.66H169.014V1653.08H150.557V1727H125.859V1653.08H112.148V1633.66ZM342.686 1727H314.385L303.135 1697.73H251.631L240.996 1727H213.398L263.584 1598.15H291.094L342.686 1727ZM294.785 1676.02L277.031 1628.21L259.629 1676.02H294.785ZM380.039 1727H355.342V1633.66H378.281V1646.93C382.207 1640.66 385.723 1636.53 388.828 1634.54C391.992 1632.55 395.566 1631.55 399.551 1631.55C405.176 1631.55 410.596 1633.1 415.811 1636.21L408.164 1657.74C404.004 1655.05 400.137 1653.7 396.562 1653.7C393.105 1653.7 390.176 1654.67 387.773 1656.6C385.371 1658.47 383.467 1661.9 382.061 1666.88C380.713 1671.86 380.039 1682.29 380.039 1698.17V1727ZM507.92 1661.26L483.574 1665.65C482.754 1660.79 480.879 1657.13 477.949 1654.67C475.078 1652.21 471.328 1650.97 466.699 1650.97C460.547 1650.97 455.625 1653.11 451.934 1657.39C448.301 1661.61 446.484 1668.7 446.484 1678.66C446.484 1689.73 448.33 1697.56 452.021 1702.13C455.771 1706.7 460.781 1708.98 467.051 1708.98C471.738 1708.98 475.576 1707.66 478.564 1705.03C481.553 1702.33 483.662 1697.73 484.893 1691.23L509.15 1695.36C506.631 1706.49 501.797 1714.9 494.648 1720.58C487.5 1726.27 477.92 1729.11 465.908 1729.11C452.256 1729.11 441.357 1724.8 433.213 1716.19C425.127 1707.58 421.084 1695.65 421.084 1680.42C421.084 1665.01 425.156 1653.03 433.301 1644.47C441.445 1635.86 452.461 1631.55 466.348 1631.55C477.715 1631.55 486.738 1634.01 493.418 1638.93C500.156 1643.8 504.99 1651.24 507.92 1661.26Z" fill="#FEFAFA"/>
<path d="M42.0996 2279V2171.95H3.86719V2150.15H106.26V2171.95H68.1152V2279H42.0996ZM147.568 2150.15V2197.53C155.537 2188.21 165.059 2183.55 176.133 2183.55C181.816 2183.55 186.943 2184.61 191.514 2186.71C196.084 2188.82 199.512 2191.52 201.797 2194.8C204.141 2198.08 205.723 2201.71 206.543 2205.7C207.422 2209.68 207.861 2215.87 207.861 2224.24V2279H183.164V2229.69C183.164 2219.91 182.695 2213.7 181.758 2211.06C180.82 2208.42 179.15 2206.34 176.748 2204.82C174.404 2203.24 171.445 2202.45 167.871 2202.45C163.77 2202.45 160.107 2203.44 156.885 2205.44C153.662 2207.43 151.289 2210.45 149.766 2214.49C148.301 2218.47 147.568 2224.39 147.568 2232.24V2279H122.871V2150.15H147.568ZM287.051 2249.29L311.66 2253.42C308.496 2262.45 303.486 2269.33 296.631 2274.08C289.834 2278.77 281.309 2281.11 271.055 2281.11C254.824 2281.11 242.812 2275.81 235.02 2265.2C228.867 2256.71 225.791 2245.98 225.791 2233.03C225.791 2217.56 229.834 2205.46 237.92 2196.73C246.006 2187.95 256.23 2183.55 268.594 2183.55C282.48 2183.55 293.438 2188.15 301.465 2197.35C309.492 2206.49 313.33 2220.52 312.979 2239.45H251.104C251.279 2246.77 253.271 2252.49 257.08 2256.59C260.889 2260.63 265.635 2262.65 271.318 2262.65C275.186 2262.65 278.438 2261.6 281.074 2259.49C283.711 2257.38 285.703 2253.98 287.051 2249.29ZM288.457 2224.33C288.281 2217.18 286.436 2211.76 282.92 2208.07C279.404 2204.32 275.127 2202.45 270.088 2202.45C264.697 2202.45 260.244 2204.41 256.729 2208.34C253.213 2212.26 251.484 2217.59 251.543 2224.33H288.457ZM383.555 2279V2150.15H438.311C452.08 2150.15 462.07 2151.32 468.281 2153.67C474.551 2155.95 479.561 2160.05 483.311 2165.97C487.061 2171.89 488.936 2178.66 488.936 2186.28C488.936 2195.94 486.094 2203.94 480.41 2210.27C474.727 2216.54 466.23 2220.49 454.922 2222.13C460.547 2225.42 465.176 2229.02 468.809 2232.95C472.5 2236.87 477.451 2243.84 483.662 2253.86L499.395 2279H468.281L449.473 2250.96C442.793 2240.94 438.223 2234.64 435.762 2232.07C433.301 2229.43 430.693 2227.64 427.939 2226.71C425.186 2225.71 420.82 2225.21 414.844 2225.21H409.57V2279H383.555ZM409.57 2204.64H428.818C441.299 2204.64 449.092 2204.12 452.197 2203.06C455.303 2202.01 457.734 2200.19 459.492 2197.61C461.25 2195.04 462.129 2191.81 462.129 2187.95C462.129 2183.61 460.957 2180.12 458.613 2177.49C456.328 2174.79 453.076 2173.09 448.857 2172.39C446.748 2172.1 440.42 2171.95 429.873 2171.95H409.57V2204.64ZM567.422 2249.29L592.031 2253.42C588.867 2262.45 583.857 2269.33 577.002 2274.08C570.205 2278.77 561.68 2281.11 551.426 2281.11C535.195 2281.11 523.184 2275.81 515.391 2265.2C509.238 2256.71 506.162 2245.98 506.162 2233.03C506.162 2217.56 510.205 2205.46 518.291 2196.73C526.377 2187.95 536.602 2183.55 548.965 2183.55C562.852 2183.55 573.809 2188.15 581.836 2197.35C589.863 2206.49 593.701 2220.52 593.35 2239.45H531.475C531.65 2246.77 533.643 2252.49 537.451 2256.59C541.26 2260.63 546.006 2262.65 551.689 2262.65C555.557 2262.65 558.809 2261.6 561.445 2259.49C564.082 2257.38 566.074 2253.98 567.422 2249.29ZM568.828 2224.33C568.652 2217.18 566.807 2211.76 563.291 2208.07C559.775 2204.32 555.498 2202.45 550.459 2202.45C545.068 2202.45 540.615 2204.41 537.1 2208.34C533.584 2212.26 531.855 2217.59 531.914 2224.33H568.828ZM699.17 2279H676.23V2265.29C672.422 2270.62 667.91 2274.61 662.695 2277.24C657.539 2279.82 652.324 2281.11 647.051 2281.11C636.328 2281.11 627.129 2276.8 619.453 2268.19C611.836 2259.52 608.027 2247.45 608.027 2231.98C608.027 2216.16 611.748 2204.15 619.189 2195.94C626.631 2187.68 636.035 2183.55 647.402 2183.55C657.832 2183.55 666.855 2187.89 674.473 2196.56V2150.15H699.17V2279ZM633.252 2230.31C633.252 2240.27 634.629 2247.48 637.383 2251.93C641.367 2258.38 646.934 2261.6 654.082 2261.6C659.766 2261.6 664.6 2259.2 668.584 2254.39C672.568 2249.53 674.561 2242.29 674.561 2232.68C674.561 2221.96 672.627 2214.25 668.76 2209.57C664.893 2204.82 659.941 2202.45 653.906 2202.45C648.047 2202.45 643.125 2204.79 639.141 2209.48C635.215 2214.11 633.252 2221.05 633.252 2230.31ZM773.965 2150.15H825.469C835.664 2150.15 843.252 2150.59 848.232 2151.47C853.271 2152.29 857.754 2154.05 861.68 2156.74C865.664 2159.44 868.975 2163.04 871.611 2167.55C874.248 2172.01 875.566 2177.02 875.566 2182.58C875.566 2188.62 873.926 2194.16 870.645 2199.2C867.422 2204.23 863.027 2208.01 857.461 2210.53C865.312 2212.82 871.348 2216.71 875.566 2222.22C879.785 2227.73 881.895 2234.21 881.895 2241.65C881.895 2247.51 880.518 2253.22 877.764 2258.79C875.068 2264.29 871.348 2268.72 866.602 2272.06C861.914 2275.34 856.113 2277.36 849.199 2278.12C844.863 2278.59 834.404 2278.88 817.822 2279H773.965V2150.15ZM799.98 2171.6V2201.39H817.031C827.168 2201.39 833.467 2201.25 835.928 2200.95C840.381 2200.43 843.867 2198.9 846.387 2196.38C848.965 2193.8 850.254 2190.44 850.254 2186.28C850.254 2182.29 849.141 2179.07 846.914 2176.61C844.746 2174.09 841.494 2172.56 837.158 2172.04C834.58 2171.74 827.168 2171.6 814.922 2171.6H799.98ZM799.98 2222.84V2257.29H824.062C833.438 2257.29 839.385 2257.03 841.904 2256.5C845.771 2255.8 848.906 2254.1 851.309 2251.4C853.77 2248.65 855 2244.99 855 2240.42C855 2236.55 854.062 2233.27 852.188 2230.57C850.312 2227.88 847.588 2225.91 844.014 2224.68C840.498 2223.45 832.822 2222.84 820.986 2222.84H799.98ZM922.236 2214.14L899.824 2210.09C902.344 2201.07 906.68 2194.39 912.832 2190.05C918.984 2185.72 928.125 2183.55 940.254 2183.55C951.27 2183.55 959.473 2184.87 964.863 2187.51C970.254 2190.08 974.033 2193.39 976.201 2197.44C978.428 2201.42 979.541 2208.78 979.541 2219.5L979.277 2248.33C979.277 2256.53 979.658 2262.59 980.42 2266.52C981.24 2270.39 982.734 2274.55 984.902 2279H960.469C959.824 2277.36 959.033 2274.93 958.096 2271.71C957.686 2270.24 957.393 2269.27 957.217 2268.8C952.998 2272.91 948.486 2275.98 943.682 2278.03C938.877 2280.08 933.75 2281.11 928.301 2281.11C918.691 2281.11 911.104 2278.5 905.537 2273.29C900.029 2268.07 897.275 2261.48 897.275 2253.51C897.275 2248.24 898.535 2243.55 901.055 2239.45C903.574 2235.29 907.09 2232.12 911.602 2229.96C916.172 2227.73 922.734 2225.8 931.289 2224.16C942.832 2221.99 950.83 2219.97 955.283 2218.09V2215.63C955.283 2210.88 954.111 2207.52 951.768 2205.52C949.424 2203.47 945 2202.45 938.496 2202.45C934.102 2202.45 930.674 2203.33 928.213 2205.08C925.752 2206.78 923.76 2209.8 922.236 2214.14ZM955.283 2234.18C952.119 2235.23 947.109 2236.49 940.254 2237.96C933.398 2239.42 928.916 2240.86 926.807 2242.26C923.584 2244.55 921.973 2247.45 921.973 2250.96C921.973 2254.42 923.262 2257.41 925.84 2259.93C928.418 2262.45 931.699 2263.71 935.684 2263.71C940.137 2263.71 944.385 2262.24 948.428 2259.31C951.416 2257.09 953.379 2254.36 954.316 2251.14C954.961 2249.03 955.283 2245.02 955.283 2239.1V2234.18ZM1003.97 2279V2150.15H1028.67V2279H1003.97ZM1054.07 2279V2150.15H1078.77V2279H1054.07ZM1098.46 2231.01C1098.46 2222.81 1100.48 2214.87 1104.52 2207.19C1108.56 2199.52 1114.28 2193.66 1121.66 2189.62C1129.1 2185.57 1137.39 2183.55 1146.53 2183.55C1160.65 2183.55 1172.23 2188.15 1181.25 2197.35C1190.27 2206.49 1194.79 2218.06 1194.79 2232.07C1194.79 2246.19 1190.21 2257.91 1181.07 2267.22C1171.99 2276.48 1160.54 2281.11 1146.71 2281.11C1138.15 2281.11 1129.98 2279.18 1122.19 2275.31C1114.45 2271.44 1108.56 2265.79 1104.52 2258.35C1100.48 2250.85 1098.46 2241.73 1098.46 2231.01ZM1123.77 2232.33C1123.77 2241.59 1125.97 2248.68 1130.36 2253.6C1134.76 2258.52 1140.18 2260.98 1146.62 2260.98C1153.07 2260.98 1158.46 2258.52 1162.79 2253.6C1167.19 2248.68 1169.38 2241.53 1169.38 2232.15C1169.38 2223.01 1167.19 2215.98 1162.79 2211.06C1158.46 2206.14 1153.07 2203.68 1146.62 2203.68C1140.18 2203.68 1134.76 2206.14 1130.36 2211.06C1125.97 2215.98 1123.77 2223.07 1123.77 2232.33ZM1208.5 2231.01C1208.5 2222.81 1210.52 2214.87 1214.56 2207.19C1218.6 2199.52 1224.32 2193.66 1231.7 2189.62C1239.14 2185.57 1247.43 2183.55 1256.57 2183.55C1270.69 2183.55 1282.27 2188.15 1291.29 2197.35C1300.31 2206.49 1304.82 2218.06 1304.82 2232.07C1304.82 2246.19 1300.25 2257.91 1291.11 2267.22C1282.03 2276.48 1270.58 2281.11 1256.75 2281.11C1248.19 2281.11 1240.02 2279.18 1232.23 2275.31C1224.49 2271.44 1218.6 2265.79 1214.56 2258.35C1210.52 2250.85 1208.5 2241.73 1208.5 2231.01ZM1233.81 2232.33C1233.81 2241.59 1236.01 2248.68 1240.4 2253.6C1244.79 2258.52 1250.21 2260.98 1256.66 2260.98C1263.11 2260.98 1268.5 2258.52 1272.83 2253.6C1277.23 2248.68 1279.42 2241.53 1279.42 2232.15C1279.42 2223.01 1277.23 2215.98 1272.83 2211.06C1268.5 2206.14 1263.11 2203.68 1256.66 2203.68C1250.21 2203.68 1244.79 2206.14 1240.4 2211.06C1236.01 2215.98 1233.81 2223.07 1233.81 2232.33ZM1409.15 2279H1384.45V2231.36C1384.45 2221.29 1383.93 2214.78 1382.87 2211.85C1381.82 2208.86 1380.09 2206.55 1377.69 2204.91C1375.34 2203.27 1372.5 2202.45 1369.16 2202.45C1364.88 2202.45 1361.04 2203.62 1357.65 2205.96C1354.25 2208.31 1351.9 2211.41 1350.62 2215.28C1349.38 2219.15 1348.77 2226.29 1348.77 2236.72V2279H1324.07V2185.66H1347.01V2199.37C1355.16 2188.82 1365.41 2183.55 1377.77 2183.55C1383.22 2183.55 1388.2 2184.55 1392.71 2186.54C1397.23 2188.47 1400.62 2190.96 1402.91 2194.01C1405.25 2197.06 1406.87 2200.51 1407.74 2204.38C1408.68 2208.25 1409.15 2213.79 1409.15 2220.99V2279Z" fill="#FEFAFA"/>
<path d="M12.3047 2961V2832.15H38.3203V2961H12.3047ZM105.82 2867.66V2887.35H88.9453V2924.96C88.9453 2932.58 89.0918 2937.04 89.3848 2938.32C89.7363 2939.55 90.4688 2940.58 91.582 2941.4C92.7539 2942.22 94.1602 2942.63 95.8008 2942.63C98.0859 2942.63 101.396 2941.84 105.732 2940.26L107.842 2959.42C102.1 2961.88 95.5957 2963.11 88.3301 2963.11C83.877 2963.11 79.8633 2962.38 76.2891 2960.91C72.7148 2959.39 70.0781 2957.46 68.3789 2955.11C66.7383 2952.71 65.5957 2949.49 64.9512 2945.44C64.4238 2942.57 64.1602 2936.77 64.1602 2928.04V2887.35H52.8223V2867.66H64.1602V2849.12L88.9453 2834.7V2867.66H105.82ZM122.783 2877.94L118.125 2853.95V2832.15H145.02V2853.95L140.977 2877.94H122.783ZM157.148 2934.37L181.934 2930.59C182.988 2935.39 185.127 2939.06 188.35 2941.58C191.572 2944.04 196.084 2945.27 201.885 2945.27C208.271 2945.27 213.076 2944.1 216.299 2941.75C218.467 2940.11 219.551 2937.91 219.551 2935.16C219.551 2933.29 218.965 2931.73 217.793 2930.5C216.562 2929.33 213.809 2928.25 209.531 2927.25C189.609 2922.86 176.982 2918.84 171.65 2915.21C164.268 2910.17 160.576 2903.17 160.576 2894.2C160.576 2886.12 163.77 2879.32 170.156 2873.81C176.543 2868.3 186.445 2865.55 199.863 2865.55C212.637 2865.55 222.129 2867.63 228.34 2871.79C234.551 2875.95 238.828 2882.1 241.172 2890.25L217.881 2894.55C216.885 2890.92 214.98 2888.14 212.168 2886.21C209.414 2884.27 205.459 2883.3 200.303 2883.3C193.799 2883.3 189.141 2884.21 186.328 2886.03C184.453 2887.32 183.516 2888.99 183.516 2891.04C183.516 2892.8 184.336 2894.29 185.977 2895.52C188.203 2897.16 195.879 2899.48 209.004 2902.46C222.188 2905.45 231.387 2909.12 236.602 2913.45C241.758 2917.85 244.336 2923.97 244.336 2931.82C244.336 2940.38 240.762 2947.73 233.613 2953.88C226.465 2960.03 215.889 2963.11 201.885 2963.11C189.17 2963.11 179.092 2960.53 171.65 2955.38C164.268 2950.22 159.434 2943.22 157.148 2934.37ZM309.727 2919.08L335.039 2916.62C336.562 2925.11 339.639 2931.35 344.268 2935.34C348.955 2939.32 355.254 2941.31 363.164 2941.31C371.543 2941.31 377.842 2939.55 382.061 2936.04C386.338 2932.46 388.477 2928.3 388.477 2923.56C388.477 2920.51 387.568 2917.93 385.752 2915.82C383.994 2913.66 380.889 2911.78 376.436 2910.2C373.389 2909.14 366.445 2907.27 355.605 2904.57C341.66 2901.12 331.875 2896.87 326.25 2891.83C318.34 2884.74 314.385 2876.1 314.385 2865.9C314.385 2859.34 316.23 2853.22 319.922 2847.53C323.672 2841.79 329.033 2837.43 336.006 2834.44C343.037 2831.45 351.504 2829.96 361.406 2829.96C377.578 2829.96 389.736 2833.5 397.881 2840.59C406.084 2847.68 410.391 2857.14 410.801 2868.98L384.785 2870.12C383.672 2863.5 381.27 2858.75 377.578 2855.88C373.945 2852.95 368.467 2851.49 361.143 2851.49C353.584 2851.49 347.666 2853.04 343.389 2856.15C340.635 2858.14 339.258 2860.8 339.258 2864.14C339.258 2867.19 340.547 2869.8 343.125 2871.97C346.406 2874.72 354.375 2877.59 367.031 2880.58C379.688 2883.57 389.033 2886.67 395.068 2889.9C401.162 2893.06 405.908 2897.43 409.307 2902.99C412.764 2908.5 414.492 2915.33 414.492 2923.47C414.492 2930.85 412.441 2937.77 408.34 2944.21C404.238 2950.66 398.438 2955.46 390.938 2958.63C383.438 2961.73 374.092 2963.29 362.9 2963.29C346.611 2963.29 334.102 2959.54 325.371 2952.04C316.641 2944.48 311.426 2933.49 309.727 2919.08ZM497.637 2961V2947.03C494.238 2952.01 489.756 2955.93 484.189 2958.8C478.682 2961.67 472.852 2963.11 466.699 2963.11C460.43 2963.11 454.805 2961.73 449.824 2958.98C444.844 2956.22 441.24 2952.36 439.014 2947.38C436.787 2942.4 435.674 2935.51 435.674 2926.72V2867.66H460.371V2910.55C460.371 2923.68 460.811 2931.73 461.689 2934.72C462.627 2937.65 464.297 2939.99 466.699 2941.75C469.102 2943.45 472.148 2944.3 475.84 2944.3C480.059 2944.3 483.838 2943.16 487.178 2940.87C490.518 2938.53 492.803 2935.66 494.033 2932.26C495.264 2928.8 495.879 2920.39 495.879 2907.04V2867.66H520.576V2961H497.637ZM627.627 2895.26L603.281 2899.65C602.461 2894.79 600.586 2891.13 597.656 2888.67C594.785 2886.21 591.035 2884.97 586.406 2884.97C580.254 2884.97 575.332 2887.11 571.641 2891.39C568.008 2895.61 566.191 2902.7 566.191 2912.66C566.191 2923.73 568.037 2931.56 571.729 2936.13C575.479 2940.7 580.488 2942.98 586.758 2942.98C591.445 2942.98 595.283 2941.66 598.271 2939.03C601.26 2936.33 603.369 2931.73 604.6 2925.23L628.857 2929.36C626.338 2940.49 621.504 2948.9 614.355 2954.58C607.207 2960.27 597.627 2963.11 585.615 2963.11C571.963 2963.11 561.064 2958.8 552.92 2950.19C544.834 2941.58 540.791 2929.65 540.791 2914.42C540.791 2899.01 544.863 2887.03 553.008 2878.47C561.152 2869.86 572.168 2865.55 586.055 2865.55C597.422 2865.55 606.445 2868.01 613.125 2872.93C619.863 2877.8 624.697 2885.24 627.627 2895.26ZM671.045 2832.15V2879.53C679.014 2870.21 688.535 2865.55 699.609 2865.55C705.293 2865.55 710.42 2866.61 714.99 2868.71C719.561 2870.82 722.988 2873.52 725.273 2876.8C727.617 2880.08 729.199 2883.71 730.02 2887.7C730.898 2891.68 731.338 2897.87 731.338 2906.24V2961H706.641V2911.69C706.641 2901.91 706.172 2895.7 705.234 2893.06C704.297 2890.42 702.627 2888.34 700.225 2886.82C697.881 2885.24 694.922 2884.45 691.348 2884.45C687.246 2884.45 683.584 2885.44 680.361 2887.44C677.139 2889.43 674.766 2892.45 673.242 2896.49C671.777 2900.47 671.045 2906.39 671.045 2914.24V2961H646.348V2832.15H671.045ZM825.029 2896.14L802.617 2892.09C805.137 2883.07 809.473 2876.39 815.625 2872.05C821.777 2867.72 830.918 2865.55 843.047 2865.55C854.062 2865.55 862.266 2866.87 867.656 2869.51C873.047 2872.08 876.826 2875.39 878.994 2879.44C881.221 2883.42 882.334 2890.78 882.334 2901.5L882.07 2930.33C882.07 2938.53 882.451 2944.59 883.213 2948.52C884.033 2952.39 885.527 2956.55 887.695 2961H863.262C862.617 2959.36 861.826 2956.93 860.889 2953.71C860.479 2952.24 860.186 2951.27 860.01 2950.8C855.791 2954.91 851.279 2957.98 846.475 2960.03C841.67 2962.08 836.543 2963.11 831.094 2963.11C821.484 2963.11 813.896 2960.5 808.33 2955.29C802.822 2950.07 800.068 2943.48 800.068 2935.51C800.068 2930.24 801.328 2925.55 803.848 2921.45C806.367 2917.29 809.883 2914.12 814.395 2911.96C818.965 2909.73 825.527 2907.8 834.082 2906.16C845.625 2903.99 853.623 2901.97 858.076 2900.09V2897.63C858.076 2892.88 856.904 2889.52 854.561 2887.52C852.217 2885.47 847.793 2884.45 841.289 2884.45C836.895 2884.45 833.467 2885.33 831.006 2887.08C828.545 2888.78 826.553 2891.8 825.029 2896.14ZM858.076 2916.18C854.912 2917.23 849.902 2918.49 843.047 2919.96C836.191 2921.42 831.709 2922.86 829.6 2924.26C826.377 2926.55 824.766 2929.45 824.766 2932.96C824.766 2936.42 826.055 2939.41 828.633 2941.93C831.211 2944.45 834.492 2945.71 838.477 2945.71C842.93 2945.71 847.178 2944.24 851.221 2941.31C854.209 2939.09 856.172 2936.36 857.109 2933.14C857.754 2931.03 858.076 2927.02 858.076 2921.1V2916.18ZM957.129 2832.15H1008.63C1018.83 2832.15 1026.42 2832.59 1031.4 2833.47C1036.44 2834.29 1040.92 2836.05 1044.84 2838.74C1048.83 2841.44 1052.14 2845.04 1054.78 2849.55C1057.41 2854.01 1058.73 2859.02 1058.73 2864.58C1058.73 2870.62 1057.09 2876.16 1053.81 2881.2C1050.59 2886.23 1046.19 2890.01 1040.62 2892.53C1048.48 2894.82 1054.51 2898.71 1058.73 2904.22C1062.95 2909.73 1065.06 2916.21 1065.06 2923.65C1065.06 2929.51 1063.68 2935.22 1060.93 2940.79C1058.23 2946.29 1054.51 2950.72 1049.77 2954.06C1045.08 2957.34 1039.28 2959.36 1032.36 2960.12C1028.03 2960.59 1017.57 2960.88 1000.99 2961H957.129V2832.15ZM983.145 2853.6V2883.39H1000.2C1010.33 2883.39 1016.63 2883.25 1019.09 2882.95C1023.54 2882.43 1027.03 2880.9 1029.55 2878.38C1032.13 2875.8 1033.42 2872.44 1033.42 2868.28C1033.42 2864.29 1032.3 2861.07 1030.08 2858.61C1027.91 2856.09 1024.66 2854.56 1020.32 2854.04C1017.74 2853.74 1010.33 2853.6 998.086 2853.6H983.145ZM983.145 2904.84V2939.29H1007.23C1016.6 2939.29 1022.55 2939.03 1025.07 2938.5C1028.94 2937.8 1032.07 2936.1 1034.47 2933.4C1036.93 2930.65 1038.16 2926.99 1038.16 2922.42C1038.16 2918.55 1037.23 2915.27 1035.35 2912.57C1033.48 2909.88 1030.75 2907.91 1027.18 2906.68C1023.66 2905.45 1015.99 2904.84 1004.15 2904.84H983.145ZM1141 2931.29L1165.61 2935.42C1162.44 2944.45 1157.43 2951.33 1150.58 2956.08C1143.78 2960.77 1135.25 2963.11 1125 2963.11C1108.77 2963.11 1096.76 2957.81 1088.96 2947.2C1082.81 2938.71 1079.74 2927.98 1079.74 2915.03C1079.74 2899.56 1083.78 2887.46 1091.87 2878.73C1099.95 2869.95 1110.18 2865.55 1122.54 2865.55C1136.43 2865.55 1147.38 2870.15 1155.41 2879.35C1163.44 2888.49 1167.28 2902.52 1166.92 2921.45H1105.05C1105.22 2928.77 1107.22 2934.49 1111.03 2938.59C1114.83 2942.63 1119.58 2944.65 1125.26 2944.65C1129.13 2944.65 1132.38 2943.6 1135.02 2941.49C1137.66 2939.38 1139.65 2935.98 1141 2931.29ZM1142.4 2906.33C1142.23 2899.18 1140.38 2893.76 1136.87 2890.07C1133.35 2886.32 1129.07 2884.45 1124.03 2884.45C1118.64 2884.45 1114.19 2886.41 1110.67 2890.34C1107.16 2894.26 1105.43 2899.59 1105.49 2906.33H1142.4ZM1205.6 2896.14L1183.18 2892.09C1185.7 2883.07 1190.04 2876.39 1196.19 2872.05C1202.34 2867.72 1211.48 2865.55 1223.61 2865.55C1234.63 2865.55 1242.83 2866.87 1248.22 2869.51C1253.61 2872.08 1257.39 2875.39 1259.56 2879.44C1261.79 2883.42 1262.9 2890.78 1262.9 2901.5L1262.64 2930.33C1262.64 2938.53 1263.02 2944.59 1263.78 2948.52C1264.6 2952.39 1266.09 2956.55 1268.26 2961H1243.83C1243.18 2959.36 1242.39 2956.93 1241.46 2953.71C1241.04 2952.24 1240.75 2951.27 1240.58 2950.8C1236.36 2954.91 1231.85 2957.98 1227.04 2960.03C1222.24 2962.08 1217.11 2963.11 1211.66 2963.11C1202.05 2963.11 1194.46 2960.5 1188.9 2955.29C1183.39 2950.07 1180.63 2943.48 1180.63 2935.51C1180.63 2930.24 1181.89 2925.55 1184.41 2921.45C1186.93 2917.29 1190.45 2914.12 1194.96 2911.96C1199.53 2909.73 1206.09 2907.8 1214.65 2906.16C1226.19 2903.99 1234.19 2901.97 1238.64 2900.09V2897.63C1238.64 2892.88 1237.47 2889.52 1235.13 2887.52C1232.78 2885.47 1228.36 2884.45 1221.86 2884.45C1217.46 2884.45 1214.03 2885.33 1211.57 2887.08C1209.11 2888.78 1207.12 2891.8 1205.6 2896.14ZM1238.64 2916.18C1235.48 2917.23 1230.47 2918.49 1223.61 2919.96C1216.76 2921.42 1212.28 2922.86 1210.17 2924.26C1206.94 2926.55 1205.33 2929.45 1205.33 2932.96C1205.33 2936.42 1206.62 2939.41 1209.2 2941.93C1211.78 2944.45 1215.06 2945.71 1219.04 2945.71C1223.5 2945.71 1227.74 2944.24 1231.79 2941.31C1234.78 2939.09 1236.74 2936.36 1237.68 2933.14C1238.32 2931.03 1238.64 2927.02 1238.64 2921.1V2916.18ZM1348.77 2961V2947.03C1345.37 2952.01 1340.89 2955.93 1335.32 2958.8C1329.81 2961.67 1323.98 2963.11 1317.83 2963.11C1311.56 2963.11 1305.94 2961.73 1300.96 2958.98C1295.98 2956.22 1292.37 2952.36 1290.15 2947.38C1287.92 2942.4 1286.81 2935.51 1286.81 2926.72V2867.66H1311.5V2910.55C1311.5 2923.68 1311.94 2931.73 1312.82 2934.72C1313.76 2937.65 1315.43 2939.99 1317.83 2941.75C1320.23 2943.45 1323.28 2944.3 1326.97 2944.3C1331.19 2944.3 1334.97 2943.16 1338.31 2940.87C1341.65 2938.53 1343.94 2935.66 1345.17 2932.26C1346.4 2928.8 1347.01 2920.39 1347.01 2907.04V2867.66H1371.71V2961H1348.77ZM1440.18 2867.66V2887.35H1423.3V2924.96C1423.3 2932.58 1423.45 2937.04 1423.74 2938.32C1424.09 2939.55 1424.82 2940.58 1425.94 2941.4C1427.11 2942.22 1428.52 2942.63 1430.16 2942.63C1432.44 2942.63 1435.75 2941.84 1440.09 2940.26L1442.2 2959.42C1436.46 2961.88 1429.95 2963.11 1422.69 2963.11C1418.23 2963.11 1414.22 2962.38 1410.64 2960.91C1407.07 2959.39 1404.43 2957.46 1402.73 2955.11C1401.09 2952.71 1399.95 2949.49 1399.31 2945.44C1398.78 2942.57 1398.52 2936.77 1398.52 2928.04V2887.35H1387.18V2867.66H1398.52V2849.12L1423.3 2834.7V2867.66H1440.18ZM1457.31 2855V2832.15H1482.01V2855H1457.31ZM1457.31 2961V2867.66H1482.01V2961H1457.31ZM1496.6 2867.66H1510.31V2860.63C1510.31 2852.78 1511.13 2846.92 1512.77 2843.05C1514.47 2839.18 1517.55 2836.05 1522 2833.65C1526.51 2831.19 1532.2 2829.96 1539.05 2829.96C1546.08 2829.96 1552.97 2831.01 1559.71 2833.12L1556.37 2850.35C1552.44 2849.41 1548.66 2848.94 1545.03 2848.94C1541.46 2848.94 1538.88 2849.79 1537.29 2851.49C1535.77 2853.13 1535.01 2856.32 1535.01 2861.07V2867.66H1553.47V2887.08H1535.01V2961H1510.31V2887.08H1496.6V2867.66ZM1628.79 2961V2947.03C1625.39 2952.01 1620.91 2955.93 1615.34 2958.8C1609.83 2961.67 1604 2963.11 1597.85 2963.11C1591.58 2963.11 1585.96 2961.73 1580.98 2958.98C1576 2956.22 1572.39 2952.36 1570.17 2947.38C1567.94 2942.4 1566.83 2935.51 1566.83 2926.72V2867.66H1591.52V2910.55C1591.52 2923.68 1591.96 2931.73 1592.84 2934.72C1593.78 2937.65 1595.45 2939.99 1597.85 2941.75C1600.25 2943.45 1603.3 2944.3 1606.99 2944.3C1611.21 2944.3 1614.99 2943.16 1618.33 2940.87C1621.67 2938.53 1623.96 2935.66 1625.19 2932.26C1626.42 2928.8 1627.03 2920.39 1627.03 2907.04V2867.66H1651.73V2961H1628.79ZM1677.39 2961V2832.15H1702.09V2961H1677.39ZM13.0078 3039.15H60.5566C71.2793 3039.15 79.4531 3039.97 85.0781 3041.61C92.6367 3043.84 99.1113 3047.79 104.502 3053.48C109.893 3059.16 113.994 3066.13 116.807 3074.4C119.619 3082.6 121.025 3092.74 121.025 3104.81C121.025 3115.41 119.707 3124.55 117.07 3132.23C113.848 3141.6 109.248 3149.19 103.271 3154.99C98.7598 3159.39 92.666 3162.81 84.9902 3165.28C79.248 3167.09 71.5723 3168 61.9629 3168H13.0078V3039.15ZM39.0234 3060.95V3146.29H58.4473C65.7129 3146.29 70.957 3145.88 74.1797 3145.06C78.3984 3144.01 81.8848 3142.22 84.6387 3139.7C87.4512 3137.18 89.7363 3133.05 91.4941 3127.31C93.252 3121.51 94.1309 3113.62 94.1309 3103.66C94.1309 3093.7 93.252 3086.06 91.4941 3080.72C89.7363 3075.39 87.2754 3071.23 84.1113 3068.24C80.9473 3065.26 76.9336 3063.23 72.0703 3062.18C68.4375 3061.36 61.3184 3060.95 50.7129 3060.95H39.0234ZM161.455 3103.14L139.043 3099.09C141.562 3090.07 145.898 3083.39 152.051 3079.05C158.203 3074.72 167.344 3072.55 179.473 3072.55C190.488 3072.55 198.691 3073.87 204.082 3076.51C209.473 3079.08 213.252 3082.39 215.42 3086.44C217.646 3090.42 218.76 3097.78 218.76 3108.5L218.496 3137.33C218.496 3145.53 218.877 3151.59 219.639 3155.52C220.459 3159.39 221.953 3163.55 224.121 3168H199.688C199.043 3166.36 198.252 3163.93 197.314 3160.71C196.904 3159.24 196.611 3158.27 196.436 3157.8C192.217 3161.91 187.705 3164.98 182.9 3167.03C178.096 3169.08 172.969 3170.11 167.52 3170.11C157.91 3170.11 150.322 3167.5 144.756 3162.29C139.248 3157.07 136.494 3150.48 136.494 3142.51C136.494 3137.24 137.754 3132.55 140.273 3128.45C142.793 3124.29 146.309 3121.12 150.82 3118.96C155.391 3116.73 161.953 3114.8 170.508 3113.16C182.051 3110.99 190.049 3108.97 194.502 3107.09V3104.63C194.502 3099.88 193.33 3096.52 190.986 3094.52C188.643 3092.47 184.219 3091.45 177.715 3091.45C173.32 3091.45 169.893 3092.33 167.432 3094.08C164.971 3095.78 162.979 3098.8 161.455 3103.14ZM194.502 3123.18C191.338 3124.23 186.328 3125.49 179.473 3126.96C172.617 3128.42 168.135 3129.86 166.025 3131.26C162.803 3133.55 161.191 3136.45 161.191 3139.96C161.191 3143.42 162.48 3146.41 165.059 3148.93C167.637 3151.45 170.918 3152.71 174.902 3152.71C179.355 3152.71 183.604 3151.24 187.646 3148.31C190.635 3146.09 192.598 3143.36 193.535 3140.14C194.18 3138.03 194.502 3134.02 194.502 3128.1V3123.18ZM231.504 3074.66H257.783L280.107 3140.93L301.904 3074.66H327.48L294.521 3164.48L288.633 3180.74C286.465 3186.19 284.385 3190.35 282.393 3193.22C280.459 3196.1 278.203 3198.41 275.625 3200.17C273.105 3201.98 269.971 3203.39 266.221 3204.39C262.529 3205.38 258.34 3205.88 253.652 3205.88C248.906 3205.88 244.248 3205.38 239.678 3204.39L237.48 3185.05C241.348 3185.81 244.834 3186.19 247.939 3186.19C253.682 3186.19 257.93 3184.49 260.684 3181.1C263.438 3177.76 265.547 3173.48 267.012 3168.26L231.504 3074.66Z" fill="#FEFAFA"/>
<path d="M129.287 3650H100.986L89.7363 3620.73H38.2324L27.5977 3650H0L50.1855 3521.15H77.6953L129.287 3650ZM81.3867 3599.02L63.6328 3551.21L46.2305 3599.02H81.3867ZM215.596 3650V3542.95H177.363V3521.15H279.756V3542.95H241.611V3650H215.596ZM310.078 3650H285.381V3556.66H308.32V3569.93C312.246 3563.66 315.762 3559.53 318.867 3557.54C322.031 3555.55 325.605 3554.55 329.59 3554.55C335.215 3554.55 340.635 3556.1 345.85 3559.21L338.203 3580.74C334.043 3578.05 330.176 3576.7 326.602 3576.7C323.145 3576.7 320.215 3577.67 317.812 3579.6C315.41 3581.47 313.506 3584.9 312.1 3589.88C310.752 3594.86 310.078 3605.29 310.078 3621.17V3650ZM356.572 3544V3521.15H381.27V3544H356.572ZM356.572 3650V3556.66H381.27V3650H356.572ZM405.967 3556.66H428.994V3570.37C431.982 3565.68 436.025 3561.88 441.123 3558.95C446.221 3556.02 451.875 3554.55 458.086 3554.55C468.926 3554.55 478.125 3558.8 485.684 3567.29C493.242 3575.79 497.021 3587.63 497.021 3602.8C497.021 3618.39 493.213 3630.52 485.596 3639.19C477.979 3647.8 468.75 3652.11 457.91 3652.11C452.754 3652.11 448.066 3651.08 443.848 3649.03C439.688 3646.98 435.293 3643.47 430.664 3638.49V3685.51H405.967V3556.66ZM430.4 3601.75C430.4 3612.24 432.48 3620 436.641 3625.04C440.801 3630.02 445.869 3632.51 451.846 3632.51C457.588 3632.51 462.363 3630.22 466.172 3625.65C469.98 3621.03 471.885 3613.47 471.885 3602.98C471.885 3593.19 469.922 3585.93 465.996 3581.18C462.07 3576.44 457.207 3574.06 451.406 3574.06C445.371 3574.06 440.361 3576.41 436.377 3581.09C432.393 3585.72 430.4 3592.61 430.4 3601.75ZM609.609 3556.66V3576.35H592.734V3613.96C592.734 3621.58 592.881 3626.04 593.174 3627.32C593.525 3628.55 594.258 3629.58 595.371 3630.4C596.543 3631.22 597.949 3631.63 599.59 3631.63C601.875 3631.63 605.186 3630.84 609.521 3629.26L611.631 3648.42C605.889 3650.88 599.385 3652.11 592.119 3652.11C587.666 3652.11 583.652 3651.38 580.078 3649.91C576.504 3648.39 573.867 3646.46 572.168 3644.11C570.527 3641.71 569.385 3638.49 568.74 3634.44C568.213 3631.57 567.949 3625.77 567.949 3617.04V3576.35H556.611V3556.66H567.949V3538.12L592.734 3523.7V3556.66H609.609ZM621.035 3602.01C621.035 3593.81 623.057 3585.87 627.1 3578.19C631.143 3570.52 636.855 3564.66 644.238 3560.62C651.68 3556.57 659.971 3554.55 669.111 3554.55C683.232 3554.55 694.805 3559.15 703.828 3568.35C712.852 3577.49 717.363 3589.06 717.363 3603.07C717.363 3617.19 712.793 3628.91 703.652 3638.22C694.57 3647.48 683.115 3652.11 669.287 3652.11C660.732 3652.11 652.559 3650.18 644.766 3646.31C637.031 3642.44 631.143 3636.79 627.1 3629.35C623.057 3621.85 621.035 3612.73 621.035 3602.01ZM646.348 3603.33C646.348 3612.59 648.545 3619.68 652.939 3624.6C657.334 3629.52 662.754 3631.98 669.199 3631.98C675.645 3631.98 681.035 3629.52 685.371 3624.6C689.766 3619.68 691.963 3612.53 691.963 3603.15C691.963 3594.01 689.766 3586.98 685.371 3582.06C681.035 3577.14 675.645 3574.68 669.199 3574.68C662.754 3574.68 657.334 3577.14 652.939 3582.06C648.545 3586.98 646.348 3594.07 646.348 3603.33ZM829.688 3556.66V3576.35H812.812V3613.96C812.812 3621.58 812.959 3626.04 813.252 3627.32C813.604 3628.55 814.336 3629.58 815.449 3630.4C816.621 3631.22 818.027 3631.63 819.668 3631.63C821.953 3631.63 825.264 3630.84 829.6 3629.26L831.709 3648.42C825.967 3650.88 819.463 3652.11 812.197 3652.11C807.744 3652.11 803.73 3651.38 800.156 3649.91C796.582 3648.39 793.945 3646.46 792.246 3644.11C790.605 3641.71 789.463 3638.49 788.818 3634.44C788.291 3631.57 788.027 3625.77 788.027 3617.04V3576.35H776.689V3556.66H788.027V3538.12L812.812 3523.7V3556.66H829.688ZM871.436 3521.15V3568.53C879.404 3559.21 888.926 3554.55 900 3554.55C905.684 3554.55 910.811 3555.61 915.381 3557.71C919.951 3559.82 923.379 3562.52 925.664 3565.8C928.008 3569.08 929.59 3572.71 930.41 3576.7C931.289 3580.68 931.729 3586.87 931.729 3595.24V3650H907.031V3600.69C907.031 3590.91 906.562 3584.7 905.625 3582.06C904.688 3579.42 903.018 3577.34 900.615 3575.82C898.271 3574.24 895.312 3573.45 891.738 3573.45C887.637 3573.45 883.975 3574.44 880.752 3576.44C877.529 3578.43 875.156 3581.45 873.633 3585.49C872.168 3589.47 871.436 3595.39 871.436 3603.24V3650H846.738V3521.15H871.436ZM1010.92 3620.29L1035.53 3624.42C1032.36 3633.45 1027.35 3640.33 1020.5 3645.08C1013.7 3649.77 1005.18 3652.11 994.922 3652.11C978.691 3652.11 966.68 3646.81 958.887 3636.2C952.734 3627.71 949.658 3616.98 949.658 3604.03C949.658 3588.56 953.701 3576.46 961.787 3567.73C969.873 3558.95 980.098 3554.55 992.461 3554.55C1006.35 3554.55 1017.3 3559.15 1025.33 3568.35C1033.36 3577.49 1037.2 3591.52 1036.85 3610.45H974.971C975.146 3617.77 977.139 3623.49 980.947 3627.59C984.756 3631.63 989.502 3633.65 995.186 3633.65C999.053 3633.65 1002.3 3632.6 1004.94 3630.49C1007.58 3628.38 1009.57 3624.98 1010.92 3620.29ZM1012.32 3595.33C1012.15 3588.18 1010.3 3582.76 1006.79 3579.07C1003.27 3575.32 998.994 3573.45 993.955 3573.45C988.564 3573.45 984.111 3575.41 980.596 3579.34C977.08 3583.26 975.352 3588.59 975.41 3595.33H1012.32ZM1106.98 3650V3521.15H1145.92L1169.3 3609.04L1192.41 3521.15H1231.44V3650H1207.27V3548.57L1181.69 3650H1156.64L1131.15 3548.57V3650H1106.98ZM1251.39 3602.01C1251.39 3593.81 1253.41 3585.87 1257.45 3578.19C1261.49 3570.52 1267.21 3564.66 1274.59 3560.62C1282.03 3556.57 1290.32 3554.55 1299.46 3554.55C1313.58 3554.55 1325.16 3559.15 1334.18 3568.35C1343.2 3577.49 1347.71 3589.06 1347.71 3603.07C1347.71 3617.19 1343.14 3628.91 1334 3638.22C1324.92 3647.48 1313.47 3652.11 1299.64 3652.11C1291.08 3652.11 1282.91 3650.18 1275.12 3646.31C1267.38 3642.44 1261.49 3636.79 1257.45 3629.35C1253.41 3621.85 1251.39 3612.73 1251.39 3602.01ZM1276.7 3603.33C1276.7 3612.59 1278.9 3619.68 1283.29 3624.6C1287.69 3629.52 1293.11 3631.98 1299.55 3631.98C1306 3631.98 1311.39 3629.52 1315.72 3624.6C1320.12 3619.68 1322.31 3612.53 1322.31 3603.15C1322.31 3594.01 1320.12 3586.98 1315.72 3582.06C1311.39 3577.14 1306 3574.68 1299.55 3574.68C1293.11 3574.68 1287.69 3577.14 1283.29 3582.06C1278.9 3586.98 1276.7 3594.07 1276.7 3603.33ZM1361.43 3602.01C1361.43 3593.81 1363.45 3585.87 1367.49 3578.19C1371.53 3570.52 1377.25 3564.66 1384.63 3560.62C1392.07 3556.57 1400.36 3554.55 1409.5 3554.55C1423.62 3554.55 1435.2 3559.15 1444.22 3568.35C1453.24 3577.49 1457.75 3589.06 1457.75 3603.07C1457.75 3617.19 1453.18 3628.91 1444.04 3638.22C1434.96 3647.48 1423.51 3652.11 1409.68 3652.11C1401.12 3652.11 1392.95 3650.18 1385.16 3646.31C1377.42 3642.44 1371.53 3636.79 1367.49 3629.35C1363.45 3621.85 1361.43 3612.73 1361.43 3602.01ZM1386.74 3603.33C1386.74 3612.59 1388.94 3619.68 1393.33 3624.6C1397.72 3629.52 1403.14 3631.98 1409.59 3631.98C1416.04 3631.98 1421.43 3629.52 1425.76 3624.6C1430.16 3619.68 1432.35 3612.53 1432.35 3603.15C1432.35 3594.01 1430.16 3586.98 1425.76 3582.06C1421.43 3577.14 1416.04 3574.68 1409.59 3574.68C1403.14 3574.68 1397.72 3577.14 1393.33 3582.06C1388.94 3586.98 1386.74 3594.07 1386.74 3603.33ZM1562.08 3650H1537.38V3602.36C1537.38 3592.29 1536.86 3585.78 1535.8 3582.85C1534.75 3579.86 1533.02 3577.55 1530.62 3575.91C1528.27 3574.27 1525.43 3573.45 1522.09 3573.45C1517.81 3573.45 1513.97 3574.62 1510.58 3576.96C1507.18 3579.31 1504.83 3582.41 1503.54 3586.28C1502.31 3590.15 1501.7 3597.29 1501.7 3607.72V3650H1477V3556.66H1499.94V3570.37C1508.09 3559.82 1518.34 3554.55 1530.7 3554.55C1536.15 3554.55 1541.13 3555.55 1545.64 3557.54C1550.16 3559.47 1553.55 3561.96 1555.84 3565.01C1558.18 3568.06 1559.79 3571.51 1560.67 3575.38C1561.61 3579.25 1562.08 3584.79 1562.08 3591.99V3650Z" fill="#FEFAFA"/>
<path d="M42.0996 4360V4252.95H3.86719V4231.15H106.26V4252.95H68.1152V4360H42.0996ZM147.568 4231.15V4278.53C155.537 4269.21 165.059 4264.55 176.133 4264.55C181.816 4264.55 186.943 4265.61 191.514 4267.71C196.084 4269.82 199.512 4272.52 201.797 4275.8C204.141 4279.08 205.723 4282.71 206.543 4286.7C207.422 4290.68 207.861 4296.87 207.861 4305.24V4360H183.164V4310.69C183.164 4300.91 182.695 4294.7 181.758 4292.06C180.82 4289.42 179.15 4287.34 176.748 4285.82C174.404 4284.24 171.445 4283.45 167.871 4283.45C163.77 4283.45 160.107 4284.44 156.885 4286.44C153.662 4288.43 151.289 4291.45 149.766 4295.49C148.301 4299.47 147.568 4305.39 147.568 4313.24V4360H122.871V4231.15H147.568ZM287.051 4330.29L311.66 4334.42C308.496 4343.45 303.486 4350.33 296.631 4355.08C289.834 4359.77 281.309 4362.11 271.055 4362.11C254.824 4362.11 242.812 4356.81 235.02 4346.2C228.867 4337.71 225.791 4326.98 225.791 4314.03C225.791 4298.56 229.834 4286.46 237.92 4277.73C246.006 4268.95 256.23 4264.55 268.594 4264.55C282.48 4264.55 293.438 4269.15 301.465 4278.35C309.492 4287.49 313.33 4301.52 312.979 4320.45H251.104C251.279 4327.77 253.271 4333.49 257.08 4337.59C260.889 4341.63 265.635 4343.65 271.318 4343.65C275.186 4343.65 278.438 4342.6 281.074 4340.49C283.711 4338.38 285.703 4334.98 287.051 4330.29ZM288.457 4305.33C288.281 4298.18 286.436 4292.76 282.92 4289.07C279.404 4285.32 275.127 4283.45 270.088 4283.45C264.697 4283.45 260.244 4285.41 256.729 4289.34C253.213 4293.26 251.484 4298.59 251.543 4305.33H288.457ZM412.471 4360V4252.95H374.238V4231.15H476.631V4252.95H438.486V4360H412.471ZM506.953 4360H482.256V4266.66H505.195V4279.93C509.121 4273.66 512.637 4269.53 515.742 4267.54C518.906 4265.55 522.48 4264.55 526.465 4264.55C532.09 4264.55 537.51 4266.1 542.725 4269.21L535.078 4290.74C530.918 4288.05 527.051 4286.7 523.477 4286.7C520.02 4286.7 517.09 4287.67 514.688 4289.6C512.285 4291.47 510.381 4294.9 508.975 4299.88C507.627 4304.86 506.953 4315.29 506.953 4331.17V4360ZM614.883 4360V4346.03C611.484 4351.01 607.002 4354.93 601.436 4357.8C595.928 4360.67 590.098 4362.11 583.945 4362.11C577.676 4362.11 572.051 4360.73 567.07 4357.98C562.09 4355.22 558.486 4351.36 556.26 4346.38C554.033 4341.4 552.92 4334.51 552.92 4325.72V4266.66H577.617V4309.55C577.617 4322.68 578.057 4330.73 578.936 4333.72C579.873 4336.65 581.543 4338.99 583.945 4340.75C586.348 4342.45 589.395 4343.3 593.086 4343.3C597.305 4343.3 601.084 4342.16 604.424 4339.87C607.764 4337.53 610.049 4334.66 611.279 4331.26C612.51 4327.8 613.125 4319.39 613.125 4306.04V4266.66H637.822V4360H614.883ZM661.641 4266.66H684.404V4279.4C692.549 4269.5 702.246 4264.55 713.496 4264.55C719.473 4264.55 724.658 4265.78 729.053 4268.24C733.447 4270.7 737.051 4274.42 739.863 4279.4C743.965 4274.42 748.389 4270.7 753.135 4268.24C757.881 4265.78 762.949 4264.55 768.34 4264.55C775.195 4264.55 780.996 4265.96 785.742 4268.77C790.488 4271.52 794.033 4275.6 796.377 4280.99C798.076 4284.97 798.926 4291.42 798.926 4300.32V4360H774.229V4306.65C774.229 4297.39 773.379 4291.42 771.68 4288.72C769.395 4285.21 765.879 4283.45 761.133 4283.45C757.676 4283.45 754.424 4284.5 751.377 4286.61C748.33 4288.72 746.133 4291.83 744.785 4295.93C743.438 4299.97 742.764 4306.39 742.764 4315.18V4360H718.066V4308.85C718.066 4299.77 717.627 4293.91 716.748 4291.27C715.869 4288.63 714.492 4286.67 712.617 4285.38C710.801 4284.09 708.311 4283.45 705.146 4283.45C701.338 4283.45 697.91 4284.47 694.863 4286.52C691.816 4288.57 689.619 4291.53 688.271 4295.4C686.982 4299.27 686.338 4305.68 686.338 4314.65V4360H661.641V4266.66ZM842.08 4295.14L819.668 4291.09C822.188 4282.07 826.523 4275.39 832.676 4271.05C838.828 4266.72 847.969 4264.55 860.098 4264.55C871.113 4264.55 879.316 4265.87 884.707 4268.51C890.098 4271.08 893.877 4274.39 896.045 4278.44C898.271 4282.42 899.385 4289.78 899.385 4300.5L899.121 4329.33C899.121 4337.53 899.502 4343.59 900.264 4347.52C901.084 4351.39 902.578 4355.55 904.746 4360H880.312C879.668 4358.36 878.877 4355.93 877.939 4352.71C877.529 4351.24 877.236 4350.27 877.061 4349.8C872.842 4353.91 868.33 4356.98 863.525 4359.03C858.721 4361.08 853.594 4362.11 848.145 4362.11C838.535 4362.11 830.947 4359.5 825.381 4354.29C819.873 4349.07 817.119 4342.48 817.119 4334.51C817.119 4329.24 818.379 4324.55 820.898 4320.45C823.418 4316.29 826.934 4313.12 831.445 4310.96C836.016 4308.73 842.578 4306.8 851.133 4305.16C862.676 4302.99 870.674 4300.97 875.127 4299.09V4296.63C875.127 4291.88 873.955 4288.52 871.611 4286.52C869.268 4284.47 864.844 4283.45 858.34 4283.45C853.945 4283.45 850.518 4284.33 848.057 4286.08C845.596 4287.78 843.604 4290.8 842.08 4295.14ZM875.127 4315.18C871.963 4316.23 866.953 4317.49 860.098 4318.96C853.242 4320.42 848.76 4321.86 846.65 4323.26C843.428 4325.55 841.816 4328.45 841.816 4331.96C841.816 4335.42 843.105 4338.41 845.684 4340.93C848.262 4343.45 851.543 4344.71 855.527 4344.71C859.98 4344.71 864.229 4343.24 868.271 4340.31C871.26 4338.09 873.223 4335.36 874.16 4332.14C874.805 4330.03 875.127 4326.02 875.127 4320.1V4315.18ZM1008.72 4360H984.023V4312.36C984.023 4302.29 983.496 4295.78 982.441 4292.85C981.387 4289.86 979.658 4287.55 977.256 4285.91C974.912 4284.27 972.07 4283.45 968.73 4283.45C964.453 4283.45 960.615 4284.62 957.217 4286.96C953.818 4289.31 951.475 4292.41 950.186 4296.28C948.955 4300.15 948.34 4307.29 948.34 4317.72V4360H923.643V4266.66H946.582V4280.37C954.727 4269.82 964.98 4264.55 977.344 4264.55C982.793 4264.55 987.773 4265.55 992.285 4267.54C996.797 4269.47 1000.2 4271.96 1002.48 4275.01C1004.82 4278.06 1006.44 4281.51 1007.31 4285.38C1008.25 4289.25 1008.72 4294.79 1008.72 4301.99V4360ZM1077.54 4318.08L1102.85 4315.62C1104.38 4324.11 1107.45 4330.35 1112.08 4334.34C1116.77 4338.32 1123.07 4340.31 1130.98 4340.31C1139.36 4340.31 1145.65 4338.55 1149.87 4335.04C1154.15 4331.46 1156.29 4327.3 1156.29 4322.56C1156.29 4319.51 1155.38 4316.93 1153.56 4314.82C1151.81 4312.66 1148.7 4310.78 1144.25 4309.2C1141.2 4308.14 1134.26 4306.27 1123.42 4303.57C1109.47 4300.12 1099.69 4295.87 1094.06 4290.83C1086.15 4283.74 1082.2 4275.1 1082.2 4264.9C1082.2 4258.34 1084.04 4252.22 1087.73 4246.53C1091.48 4240.79 1096.85 4236.43 1103.82 4233.44C1110.85 4230.45 1119.32 4228.96 1129.22 4228.96C1145.39 4228.96 1157.55 4232.5 1165.69 4239.59C1173.9 4246.68 1178.2 4256.14 1178.61 4267.98L1152.6 4269.12C1151.48 4262.5 1149.08 4257.75 1145.39 4254.88C1141.76 4251.95 1136.28 4250.49 1128.96 4250.49C1121.4 4250.49 1115.48 4252.04 1111.2 4255.15C1108.45 4257.14 1107.07 4259.8 1107.07 4263.14C1107.07 4266.19 1108.36 4268.8 1110.94 4270.97C1114.22 4273.72 1122.19 4276.59 1134.84 4279.58C1147.5 4282.57 1156.85 4285.67 1162.88 4288.9C1168.97 4292.06 1173.72 4296.43 1177.12 4301.99C1180.58 4307.5 1182.3 4314.33 1182.3 4322.47C1182.3 4329.85 1180.25 4336.77 1176.15 4343.21C1172.05 4349.66 1166.25 4354.46 1158.75 4357.63C1151.25 4360.73 1141.9 4362.29 1130.71 4362.29C1114.42 4362.29 1101.91 4358.54 1093.18 4351.04C1084.45 4343.48 1079.24 4332.49 1077.54 4318.08ZM1228.62 4231.15V4278.53C1236.59 4269.21 1246.11 4264.55 1257.19 4264.55C1262.87 4264.55 1268 4265.61 1272.57 4267.71C1277.14 4269.82 1280.57 4272.52 1282.85 4275.8C1285.2 4279.08 1286.78 4282.71 1287.6 4286.7C1288.48 4290.68 1288.92 4296.87 1288.92 4305.24V4360H1264.22V4310.69C1264.22 4300.91 1263.75 4294.7 1262.81 4292.06C1261.88 4289.42 1260.21 4287.34 1257.8 4285.82C1255.46 4284.24 1252.5 4283.45 1248.93 4283.45C1244.82 4283.45 1241.16 4284.44 1237.94 4286.44C1234.72 4288.43 1232.34 4291.45 1230.82 4295.49C1229.36 4299.47 1228.62 4305.39 1228.62 4313.24V4360H1203.93V4231.15H1228.62ZM1308.34 4312.01C1308.34 4303.81 1310.36 4295.87 1314.4 4288.19C1318.45 4280.52 1324.16 4274.66 1331.54 4270.62C1338.98 4266.57 1347.28 4264.55 1356.42 4264.55C1370.54 4264.55 1382.11 4269.15 1391.13 4278.35C1400.16 4287.49 1404.67 4299.06 1404.67 4313.07C1404.67 4327.19 1400.1 4338.91 1390.96 4348.22C1381.88 4357.48 1370.42 4362.11 1356.59 4362.11C1348.04 4362.11 1339.86 4360.18 1332.07 4356.31C1324.34 4352.44 1318.45 4346.79 1314.4 4339.35C1310.36 4331.85 1308.34 4322.73 1308.34 4312.01ZM1333.65 4313.33C1333.65 4322.59 1335.85 4329.68 1340.24 4334.6C1344.64 4339.52 1350.06 4341.98 1356.5 4341.98C1362.95 4341.98 1368.34 4339.52 1372.68 4334.6C1377.07 4329.68 1379.27 4322.53 1379.27 4313.15C1379.27 4304.01 1377.07 4296.98 1372.68 4292.06C1368.34 4287.14 1362.95 4284.68 1356.5 4284.68C1350.06 4284.68 1344.64 4287.14 1340.24 4292.06C1335.85 4296.98 1333.65 4304.07 1333.65 4313.33ZM1441.49 4360L1411.96 4266.66H1435.96L1453.45 4327.83L1469.53 4266.66H1493.35L1508.91 4327.83L1526.75 4266.66H1551.09L1521.12 4360H1497.39L1481.31 4299.97L1465.49 4360H1441.49Z" fill="#FEFAFA"/>
<circle cx="2322" cy="250" r="250" fill="#FF0000"/>
<circle cx="2322" cy="2253" r="250" fill="#66CC66"/>
<circle cx="2322" cy="1572" r="250" fill="#FF6699"/>
<circle cx="2322" cy="891" r="250" fill="#FF6600"/>
<circle cx="2322" cy="4296" r="250" fill="#996633"/>
<circle cx="2322" cy="3615" r="250" fill="#33ADFF"/>
<circle cx="2322" cy="2934" r="250" fill="#CC00FF"/>
</svg>
