<svg width="2463" height="5187" viewBox="0 0 2463 5187" fill="none" xmlns="http://www.w3.org/2000/svg">
<circle cx="2213" cy="250" r="250" fill="#FF0000"/>
<circle cx="2213" cy="2253" r="250" fill="#66CC66"/>
<circle cx="2213" cy="1572" r="250" fill="#FF6699"/>
<circle cx="2213" cy="891" r="250" fill="#FF6600"/>
<circle cx="2213" cy="2934" r="250" fill="#FFFF00"/>
<circle cx="2213" cy="4937" r="250" fill="#996633"/>
<circle cx="2213" cy="4256" r="250" fill="#33ADFF"/>
<circle cx="2213" cy="3575" r="250" fill="#CC00FF"/>
<path d="M14.1836 265V136.152H40.1992V186.865H91.1758V136.152H117.191V265H91.1758V208.662H40.1992V265H14.1836ZM162.455 200.137L140.043 196.094C142.562 187.07 146.898 180.391 153.051 176.055C159.203 171.719 168.344 169.551 180.473 169.551C191.488 169.551 199.691 170.869 205.082 173.506C210.473 176.084 214.252 179.395 216.42 183.438C218.646 187.422 219.76 194.775 219.76 205.498L219.496 234.326C219.496 242.529 219.877 248.594 220.639 252.52C221.459 256.387 222.953 260.547 225.121 265H200.688C200.043 263.359 199.252 260.928 198.314 257.705C197.904 256.24 197.611 255.273 197.436 254.805C193.217 258.906 188.705 261.982 183.9 264.033C179.096 266.084 173.969 267.109 168.52 267.109C158.91 267.109 151.322 264.502 145.756 259.287C140.248 254.072 137.494 247.48 137.494 239.512C137.494 234.238 138.754 229.551 141.273 225.449C143.793 221.289 147.309 218.125 151.82 215.957C156.391 213.73 162.953 211.797 171.508 210.156C183.051 207.988 191.049 205.967 195.502 204.092V201.631C195.502 196.885 194.33 193.516 191.986 191.523C189.643 189.473 185.219 188.447 178.715 188.447C174.32 188.447 170.893 189.326 168.432 191.084C165.971 192.783 163.979 195.801 162.455 200.137ZM195.502 220.176C192.338 221.23 187.328 222.49 180.473 223.955C173.617 225.42 169.135 226.855 167.025 228.262C163.803 230.547 162.191 233.447 162.191 236.963C162.191 240.42 163.48 243.408 166.059 245.928C168.637 248.447 171.918 249.707 175.902 249.707C180.355 249.707 184.604 248.242 188.646 245.312C191.635 243.086 193.598 240.361 194.535 237.139C195.18 235.029 195.502 231.016 195.502 225.098V220.176ZM267.836 265H243.139V171.66H266.078V184.932C270.004 178.662 273.52 174.531 276.625 172.539C279.789 170.547 283.363 169.551 287.348 169.551C292.973 169.551 298.393 171.104 303.607 174.209L295.961 195.742C291.801 193.047 287.934 191.699 284.359 191.699C280.902 191.699 277.973 192.666 275.57 194.6C273.168 196.475 271.264 199.902 269.857 204.883C268.51 209.863 267.836 220.293 267.836 236.172V265ZM337.973 265H313.275V171.66H336.215V184.932C340.141 178.662 343.656 174.531 346.762 172.539C349.926 170.547 353.5 169.551 357.484 169.551C363.109 169.551 368.529 171.104 373.744 174.209L366.098 195.742C361.938 193.047 358.07 191.699 354.496 191.699C351.039 191.699 348.109 192.666 345.707 194.6C343.305 196.475 341.4 199.902 339.994 204.883C338.646 209.863 337.973 220.293 337.973 236.172V265ZM372.777 171.66H399.057L421.381 237.93L443.178 171.66H468.754L435.795 261.484L429.906 277.744C427.738 283.193 425.658 287.354 423.666 290.225C421.732 293.096 419.477 295.41 416.898 297.168C414.379 298.984 411.244 300.391 407.494 301.387C403.803 302.383 399.613 302.881 394.926 302.881C390.18 302.881 385.521 302.383 380.951 301.387L378.754 282.051C382.621 282.812 386.107 283.193 389.213 283.193C394.955 283.193 399.203 281.494 401.957 278.096C404.711 274.756 406.82 270.479 408.285 265.264L372.777 171.66ZM534.936 265V136.152H576.684C592.504 136.152 602.816 136.797 607.621 138.086C615.004 140.02 621.186 144.238 626.166 150.742C631.146 157.188 633.637 165.537 633.637 175.791C633.637 183.701 632.201 190.352 629.33 195.742C626.459 201.133 622.797 205.381 618.344 208.486C613.949 211.533 609.467 213.555 604.896 214.551C598.686 215.781 589.691 216.396 577.914 216.396H560.951V265H534.936ZM560.951 157.949V194.512H575.189C585.443 194.512 592.299 193.838 595.756 192.49C599.213 191.143 601.908 189.033 603.842 186.162C605.834 183.291 606.83 179.951 606.83 176.143C606.83 171.455 605.453 167.588 602.699 164.541C599.945 161.494 596.459 159.59 592.24 158.828C589.135 158.242 582.895 157.949 573.52 157.949H560.951ZM649.105 217.012C649.105 208.809 651.127 200.869 655.17 193.193C659.213 185.518 664.926 179.658 672.309 175.615C679.75 171.572 688.041 169.551 697.182 169.551C711.303 169.551 722.875 174.15 731.898 183.35C740.922 192.49 745.434 204.062 745.434 218.066C745.434 232.188 740.863 243.906 731.723 253.223C722.641 262.48 711.186 267.109 697.357 267.109C688.803 267.109 680.629 265.176 672.836 261.309C665.102 257.441 659.213 251.787 655.17 244.346C651.127 236.846 649.105 227.734 649.105 217.012ZM674.418 218.33C674.418 227.588 676.615 234.678 681.01 239.6C685.404 244.521 690.824 246.982 697.27 246.982C703.715 246.982 709.105 244.521 713.441 239.6C717.836 234.678 720.033 227.529 720.033 218.154C720.033 209.014 717.836 201.982 713.441 197.061C709.105 192.139 703.715 189.678 697.27 189.678C690.824 189.678 685.404 192.139 681.01 197.061C676.615 201.982 674.418 209.072 674.418 218.33ZM807.66 171.66V191.348H790.785V228.965C790.785 236.582 790.932 241.035 791.225 242.324C791.576 243.555 792.309 244.58 793.422 245.4C794.594 246.221 796 246.631 797.641 246.631C799.926 246.631 803.236 245.84 807.572 244.258L809.682 263.418C803.939 265.879 797.436 267.109 790.17 267.109C785.717 267.109 781.703 266.377 778.129 264.912C774.555 263.389 771.918 261.455 770.219 259.111C768.578 256.709 767.436 253.486 766.791 249.443C766.264 246.572 766 240.771 766 232.041V191.348H754.662V171.66H766V153.115L790.785 138.701V171.66H807.66ZM867.602 171.66V191.348H850.727V228.965C850.727 236.582 850.873 241.035 851.166 242.324C851.518 243.555 852.25 244.58 853.363 245.4C854.535 246.221 855.941 246.631 857.582 246.631C859.867 246.631 863.178 245.84 867.514 244.258L869.623 263.418C863.881 265.879 857.377 267.109 850.111 267.109C845.658 267.109 841.645 266.377 838.07 264.912C834.496 263.389 831.859 261.455 830.16 259.111C828.52 256.709 827.377 253.486 826.732 249.443C826.205 246.572 825.941 240.771 825.941 232.041V191.348H814.604V171.66H825.941V153.115L850.727 138.701V171.66H867.602ZM938.793 235.293L963.402 239.424C960.238 248.447 955.229 255.332 948.373 260.078C941.576 264.766 933.051 267.109 922.797 267.109C906.566 267.109 894.555 261.807 886.762 251.201C880.609 242.705 877.533 231.982 877.533 219.033C877.533 203.564 881.576 191.465 889.662 182.734C897.748 173.945 907.973 169.551 920.336 169.551C934.223 169.551 945.18 174.15 953.207 183.35C961.234 192.49 965.072 206.523 964.721 225.449H902.846C903.021 232.773 905.014 238.486 908.822 242.588C912.631 246.631 917.377 248.652 923.061 248.652C926.928 248.652 930.18 247.598 932.816 245.488C935.453 243.379 937.445 239.98 938.793 235.293ZM940.199 210.332C940.023 203.184 938.178 197.764 934.662 194.072C931.146 190.322 926.869 188.447 921.83 188.447C916.439 188.447 911.986 190.41 908.471 194.336C904.955 198.262 903.227 203.594 903.285 210.332H940.199ZM1008.58 265H983.881V171.66H1006.82V184.932C1010.75 178.662 1014.26 174.531 1017.37 172.539C1020.53 170.547 1024.11 169.551 1028.09 169.551C1033.71 169.551 1039.13 171.104 1044.35 174.209L1036.7 195.742C1032.54 193.047 1028.68 191.699 1025.1 191.699C1021.64 191.699 1018.71 192.666 1016.31 194.6C1013.91 196.475 1012.01 199.902 1010.6 204.883C1009.25 209.863 1008.58 220.293 1008.58 236.172V265ZM1123.63 200.137L1101.21 196.094C1103.73 187.07 1108.07 180.391 1114.22 176.055C1120.38 171.719 1129.52 169.551 1141.64 169.551C1152.66 169.551 1160.86 170.869 1166.25 173.506C1171.64 176.084 1175.42 179.395 1177.59 183.438C1179.82 187.422 1180.93 194.775 1180.93 205.498L1180.67 234.326C1180.67 242.529 1181.05 248.594 1181.81 252.52C1182.63 256.387 1184.12 260.547 1186.29 265H1161.86C1161.21 263.359 1160.42 260.928 1159.49 257.705C1159.08 256.24 1158.78 255.273 1158.61 254.805C1154.39 258.906 1149.88 261.982 1145.07 264.033C1140.27 266.084 1135.14 267.109 1129.69 267.109C1120.08 267.109 1112.49 264.502 1106.93 259.287C1101.42 254.072 1098.67 247.48 1098.67 239.512C1098.67 234.238 1099.93 229.551 1102.45 225.449C1104.96 221.289 1108.48 218.125 1112.99 215.957C1117.56 213.73 1124.12 211.797 1132.68 210.156C1144.22 207.988 1152.22 205.967 1156.67 204.092V201.631C1156.67 196.885 1155.5 193.516 1153.16 191.523C1150.81 189.473 1146.39 188.447 1139.89 188.447C1135.49 188.447 1132.06 189.326 1129.6 191.084C1127.14 192.783 1125.15 195.801 1123.63 200.137ZM1156.67 220.176C1153.51 221.23 1148.5 222.49 1141.64 223.955C1134.79 225.42 1130.31 226.855 1128.2 228.262C1124.97 230.547 1123.36 233.447 1123.36 236.963C1123.36 240.42 1124.65 243.408 1127.23 245.928C1129.81 248.447 1133.09 249.707 1137.07 249.707C1141.53 249.707 1145.78 248.242 1149.82 245.312C1152.81 243.086 1154.77 240.361 1155.71 237.139C1156.35 235.029 1156.67 231.016 1156.67 225.098V220.176ZM1290.27 265H1265.57V217.363C1265.57 207.285 1265.04 200.781 1263.99 197.852C1262.93 194.863 1261.21 192.549 1258.8 190.908C1256.46 189.268 1253.62 188.447 1250.28 188.447C1246 188.447 1242.16 189.619 1238.76 191.963C1235.37 194.307 1233.02 197.412 1231.73 201.279C1230.5 205.146 1229.89 212.295 1229.89 222.725V265H1205.19V171.66H1228.13V185.371C1236.27 174.824 1246.53 169.551 1258.89 169.551C1264.34 169.551 1269.32 170.547 1273.83 172.539C1278.34 174.473 1281.74 176.963 1284.03 180.01C1286.37 183.057 1287.98 186.514 1288.86 190.381C1289.8 194.248 1290.27 199.785 1290.27 206.992V265ZM1401.01 265H1378.07V251.289C1374.26 256.621 1369.75 260.605 1364.54 263.242C1359.38 265.82 1354.16 267.109 1348.89 267.109C1338.17 267.109 1328.97 262.803 1321.29 254.189C1313.68 245.518 1309.87 233.447 1309.87 217.979C1309.87 202.158 1313.59 190.146 1321.03 181.943C1328.47 173.682 1337.88 169.551 1349.24 169.551C1359.67 169.551 1368.7 173.887 1376.31 182.559V136.152H1401.01V265ZM1335.09 216.309C1335.09 226.27 1336.47 233.477 1339.22 237.93C1343.21 244.375 1348.77 247.598 1355.92 247.598C1361.61 247.598 1366.44 245.195 1370.42 240.391C1374.41 235.527 1376.4 228.291 1376.4 218.682C1376.4 207.959 1374.47 200.254 1370.6 195.566C1366.73 190.82 1361.78 188.447 1355.75 188.447C1349.89 188.447 1344.96 190.791 1340.98 195.479C1337.05 200.107 1335.09 207.051 1335.09 216.309ZM1518.34 171.66V191.348H1501.47V228.965C1501.47 236.582 1501.62 241.035 1501.91 242.324C1502.26 243.555 1502.99 244.58 1504.11 245.4C1505.28 246.221 1506.68 246.631 1508.32 246.631C1510.61 246.631 1513.92 245.84 1518.26 244.258L1520.37 263.418C1514.62 265.879 1508.12 267.109 1500.85 267.109C1496.4 267.109 1492.39 266.377 1488.81 264.912C1485.24 263.389 1482.6 261.455 1480.9 259.111C1479.26 256.709 1478.12 253.486 1477.47 249.443C1476.95 246.572 1476.68 240.771 1476.68 232.041V191.348H1465.35V171.66H1476.68V153.115L1501.47 138.701V171.66H1518.34ZM1560.09 136.152V183.525C1568.06 174.209 1577.58 169.551 1588.66 169.551C1594.34 169.551 1599.47 170.605 1604.04 172.715C1608.61 174.824 1612.04 177.52 1614.32 180.801C1616.66 184.082 1618.25 187.715 1619.07 191.699C1619.95 195.684 1620.38 201.865 1620.38 210.244V265H1595.69V215.693C1595.69 205.908 1595.22 199.697 1594.28 197.061C1593.34 194.424 1591.67 192.344 1589.27 190.82C1586.93 189.238 1583.97 188.447 1580.39 188.447C1576.29 188.447 1572.63 189.443 1569.41 191.436C1566.19 193.428 1563.81 196.445 1562.29 200.488C1560.82 204.473 1560.09 210.391 1560.09 218.242V265H1535.39V136.152H1560.09ZM1699.57 235.293L1724.18 239.424C1721.02 248.447 1716.01 255.332 1709.15 260.078C1702.36 264.766 1693.83 267.109 1683.58 267.109C1667.35 267.109 1655.34 261.807 1647.54 251.201C1641.39 242.705 1638.31 231.982 1638.31 219.033C1638.31 203.564 1642.36 191.465 1650.44 182.734C1658.53 173.945 1668.75 169.551 1681.12 169.551C1695 169.551 1705.96 174.15 1713.99 183.35C1722.02 192.49 1725.85 206.523 1725.5 225.449H1663.63C1663.8 232.773 1665.79 238.486 1669.6 242.588C1673.41 246.631 1678.16 248.652 1683.84 248.652C1687.71 248.652 1690.96 247.598 1693.6 245.488C1696.23 243.379 1698.23 239.98 1699.57 235.293ZM1700.98 210.332C1700.8 203.184 1698.96 197.764 1695.44 194.072C1691.93 190.322 1687.65 188.447 1682.61 188.447C1677.22 188.447 1672.77 190.41 1669.25 194.336C1665.74 198.262 1664.01 203.594 1664.07 210.332H1700.98ZM14.0078 343.152H61.5566C72.2793 343.152 80.4531 343.973 86.0781 345.613C93.6367 347.84 100.111 351.795 105.502 357.479C110.893 363.162 114.994 370.135 117.807 378.396C120.619 386.6 122.025 396.736 122.025 408.807C122.025 419.412 120.707 428.553 118.07 436.229C114.848 445.604 110.248 453.191 104.271 458.992C99.7598 463.387 93.666 466.814 85.9902 469.275C80.248 471.092 72.5723 472 62.9629 472H14.0078V343.152ZM40.0234 364.949V450.291H59.4473C66.7129 450.291 71.957 449.881 75.1797 449.061C79.3984 448.006 82.8848 446.219 85.6387 443.699C88.4512 441.18 90.7363 437.049 92.4941 431.307C94.252 425.506 95.1309 417.625 95.1309 407.664C95.1309 397.703 94.252 390.057 92.4941 384.725C90.7363 379.393 88.2754 375.232 85.1113 372.244C81.9473 369.256 77.9336 367.234 73.0703 366.18C69.4375 365.359 62.3184 364.949 51.7129 364.949H40.0234ZM198.051 442.293L222.66 446.424C219.496 455.447 214.486 462.332 207.631 467.078C200.834 471.766 192.309 474.109 182.055 474.109C165.824 474.109 153.812 468.807 146.02 458.201C139.867 449.705 136.791 438.982 136.791 426.033C136.791 410.564 140.834 398.465 148.92 389.734C157.006 380.945 167.23 376.551 179.594 376.551C193.48 376.551 204.438 381.15 212.465 390.35C220.492 399.49 224.33 413.523 223.979 432.449H162.104C162.279 439.773 164.271 445.486 168.08 449.588C171.889 453.631 176.635 455.652 182.318 455.652C186.186 455.652 189.438 454.598 192.074 452.488C194.711 450.379 196.703 446.98 198.051 442.293ZM199.457 417.332C199.281 410.184 197.436 404.764 193.92 401.072C190.404 397.322 186.127 395.447 181.088 395.447C175.697 395.447 171.244 397.41 167.729 401.336C164.213 405.262 162.484 410.594 162.543 417.332H199.457ZM262.65 407.137L240.238 403.094C242.758 394.07 247.094 387.391 253.246 383.055C259.398 378.719 268.539 376.551 280.668 376.551C291.684 376.551 299.887 377.869 305.277 380.506C310.668 383.084 314.447 386.395 316.615 390.438C318.842 394.422 319.955 401.775 319.955 412.498L319.691 441.326C319.691 449.529 320.072 455.594 320.834 459.52C321.654 463.387 323.148 467.547 325.316 472H300.883C300.238 470.359 299.447 467.928 298.51 464.705C298.1 463.24 297.807 462.273 297.631 461.805C293.412 465.906 288.9 468.982 284.096 471.033C279.291 473.084 274.164 474.109 268.715 474.109C259.105 474.109 251.518 471.502 245.951 466.287C240.443 461.072 237.689 454.48 237.689 446.512C237.689 441.238 238.949 436.551 241.469 432.449C243.988 428.289 247.504 425.125 252.016 422.957C256.586 420.73 263.148 418.797 271.703 417.156C283.246 414.988 291.244 412.967 295.697 411.092V408.631C295.697 403.885 294.525 400.516 292.182 398.523C289.838 396.473 285.414 395.447 278.91 395.447C274.516 395.447 271.088 396.326 268.627 398.084C266.166 399.783 264.174 402.801 262.65 407.137ZM295.697 427.176C292.533 428.23 287.523 429.49 280.668 430.955C273.812 432.42 269.33 433.855 267.221 435.262C263.998 437.547 262.387 440.447 262.387 443.963C262.387 447.42 263.676 450.408 266.254 452.928C268.832 455.447 272.113 456.707 276.098 456.707C280.551 456.707 284.799 455.242 288.842 452.312C291.83 450.086 293.793 447.361 294.73 444.139C295.375 442.029 295.697 438.016 295.697 432.098V427.176ZM387.191 378.66V398.348H370.316V435.965C370.316 443.582 370.463 448.035 370.756 449.324C371.107 450.555 371.84 451.58 372.953 452.4C374.125 453.221 375.531 453.631 377.172 453.631C379.457 453.631 382.768 452.84 387.104 451.258L389.213 470.418C383.471 472.879 376.967 474.109 369.701 474.109C365.248 474.109 361.234 473.377 357.66 471.912C354.086 470.389 351.449 468.455 349.75 466.111C348.109 463.709 346.967 460.486 346.322 456.443C345.795 453.572 345.531 447.771 345.531 439.041V398.348H334.193V378.66H345.531V360.115L370.316 345.701V378.66H387.191ZM428.939 343.152V390.525C436.908 381.209 446.43 376.551 457.504 376.551C463.188 376.551 468.314 377.605 472.885 379.715C477.455 381.824 480.883 384.52 483.168 387.801C485.512 391.082 487.094 394.715 487.914 398.699C488.793 402.684 489.232 408.865 489.232 417.244V472H464.535V422.693C464.535 412.908 464.066 406.697 463.129 404.061C462.191 401.424 460.521 399.344 458.119 397.82C455.775 396.238 452.816 395.447 449.242 395.447C445.141 395.447 441.479 396.443 438.256 398.436C435.033 400.428 432.66 403.445 431.137 407.488C429.672 411.473 428.939 417.391 428.939 425.242V472H404.242V343.152H428.939ZM514.369 472V343.152H539.066V472H514.369ZM552.777 378.66H579.057L601.381 444.93L623.178 378.66H648.754L615.795 468.484L609.906 484.744C607.738 490.193 605.658 494.354 603.666 497.225C601.732 500.096 599.477 502.41 596.898 504.168C594.379 505.984 591.244 507.391 587.494 508.387C583.803 509.383 579.613 509.881 574.926 509.881C570.18 509.881 565.521 509.383 560.951 508.387L558.754 489.051C562.621 489.812 566.107 490.193 569.213 490.193C574.955 490.193 579.203 488.494 581.957 485.096C584.711 481.756 586.82 477.479 588.285 472.264L552.777 378.66ZM715.023 472V343.152H741.039V393.865H792.016V343.152H818.031V472H792.016V415.662H741.039V472H715.023ZM863.295 407.137L840.883 403.094C843.402 394.07 847.738 387.391 853.891 383.055C860.043 378.719 869.184 376.551 881.312 376.551C892.328 376.551 900.531 377.869 905.922 380.506C911.312 383.084 915.092 386.395 917.26 390.438C919.486 394.422 920.6 401.775 920.6 412.498L920.336 441.326C920.336 449.529 920.717 455.594 921.479 459.52C922.299 463.387 923.793 467.547 925.961 472H901.527C900.883 470.359 900.092 467.928 899.154 464.705C898.744 463.24 898.451 462.273 898.275 461.805C894.057 465.906 889.545 468.982 884.74 471.033C879.936 473.084 874.809 474.109 869.359 474.109C859.75 474.109 852.162 471.502 846.596 466.287C841.088 461.072 838.334 454.48 838.334 446.512C838.334 441.238 839.594 436.551 842.113 432.449C844.633 428.289 848.148 425.125 852.66 422.957C857.23 420.73 863.793 418.797 872.348 417.156C883.891 414.988 891.889 412.967 896.342 411.092V408.631C896.342 403.885 895.17 400.516 892.826 398.523C890.482 396.473 886.059 395.447 879.555 395.447C875.16 395.447 871.732 396.326 869.271 398.084C866.811 399.783 864.818 402.801 863.295 407.137ZM896.342 427.176C893.178 428.23 888.168 429.49 881.312 430.955C874.457 432.42 869.975 433.855 867.865 435.262C864.643 437.547 863.031 440.447 863.031 443.963C863.031 447.42 864.32 450.408 866.898 452.928C869.477 455.447 872.758 456.707 876.742 456.707C881.195 456.707 885.443 455.242 889.486 452.312C892.475 450.086 894.438 447.361 895.375 444.139C896.02 442.029 896.342 438.016 896.342 432.098V427.176ZM945.033 472V343.152H969.73V472H945.033ZM995.131 472V343.152H1019.83V472H995.131ZM1039.52 424.012C1039.52 415.809 1041.54 407.869 1045.58 400.193C1049.62 392.518 1055.34 386.658 1062.72 382.615C1070.16 378.572 1078.45 376.551 1087.59 376.551C1101.71 376.551 1113.29 381.15 1122.31 390.35C1131.33 399.49 1135.84 411.062 1135.84 425.066C1135.84 439.188 1131.27 450.906 1122.13 460.223C1113.05 469.48 1101.6 474.109 1087.77 474.109C1079.21 474.109 1071.04 472.176 1063.25 468.309C1055.51 464.441 1049.62 458.787 1045.58 451.346C1041.54 443.846 1039.52 434.734 1039.52 424.012ZM1064.83 425.33C1064.83 434.588 1067.03 441.678 1071.42 446.6C1075.81 451.521 1081.23 453.982 1087.68 453.982C1094.12 453.982 1099.52 451.521 1103.85 446.6C1108.25 441.678 1110.44 434.529 1110.44 425.154C1110.44 416.014 1108.25 408.982 1103.85 404.061C1099.52 399.139 1094.12 396.678 1087.68 396.678C1081.23 396.678 1075.81 399.139 1071.42 404.061C1067.03 408.982 1064.83 416.072 1064.83 425.33ZM1172.67 472L1143.14 378.66H1167.13L1184.62 439.832L1200.71 378.66H1224.53L1240.08 439.832L1257.92 378.66H1282.27L1252.3 472H1228.57L1212.48 411.971L1196.66 472H1172.67ZM1286.66 445.369L1311.45 441.59C1312.5 446.395 1314.64 450.057 1317.87 452.576C1321.09 455.037 1325.6 456.268 1331.4 456.268C1337.79 456.268 1342.59 455.096 1345.81 452.752C1347.98 451.111 1349.07 448.914 1349.07 446.16C1349.07 444.285 1348.48 442.732 1347.31 441.502C1346.08 440.33 1343.32 439.246 1339.05 438.25C1319.12 433.855 1306.5 429.842 1301.17 426.209C1293.78 421.17 1290.09 414.168 1290.09 405.203C1290.09 397.117 1293.29 390.32 1299.67 384.812C1306.06 379.305 1315.96 376.551 1329.38 376.551C1342.15 376.551 1351.64 378.631 1357.86 382.791C1364.07 386.951 1368.34 393.104 1370.69 401.248L1347.4 405.555C1346.4 401.922 1344.5 399.139 1341.68 397.205C1338.93 395.271 1334.97 394.305 1329.82 394.305C1323.31 394.305 1318.66 395.213 1315.84 397.029C1313.97 398.318 1313.03 399.988 1313.03 402.039C1313.03 403.797 1313.85 405.291 1315.49 406.521C1317.72 408.162 1325.39 410.477 1338.52 413.465C1351.7 416.453 1360.9 420.115 1366.12 424.451C1371.27 428.846 1373.85 434.969 1373.85 442.82C1373.85 451.375 1370.28 458.729 1363.13 464.881C1355.98 471.033 1345.4 474.109 1331.4 474.109C1318.69 474.109 1308.61 471.531 1301.17 466.375C1293.78 461.219 1288.95 454.217 1286.66 445.369ZM1400.31 403.357V378.66H1425V403.357H1400.31ZM1400.31 472V447.303H1425V472H1400.31ZM14.0957 679V550.152H55.8438C71.6641 550.152 81.9766 550.797 86.7812 552.086C94.1641 554.02 100.346 558.238 105.326 564.742C110.307 571.188 112.797 579.537 112.797 589.791C112.797 597.701 111.361 604.352 108.49 609.742C105.619 615.133 101.957 619.381 97.5039 622.486C93.1094 625.533 88.627 627.555 84.0566 628.551C77.8457 629.781 68.8516 630.396 57.0742 630.396H40.1113V679H14.0957ZM40.1113 571.949V608.512H54.3496C64.6035 608.512 71.459 607.838 74.916 606.49C78.373 605.143 81.0684 603.033 83.002 600.162C84.9941 597.291 85.9902 593.951 85.9902 590.143C85.9902 585.455 84.6133 581.588 81.8594 578.541C79.1055 575.494 75.6191 573.59 71.4004 572.828C68.2949 572.242 62.0547 571.949 52.6797 571.949H40.1113ZM152.436 614.137L130.023 610.094C132.543 601.07 136.879 594.391 143.031 590.055C149.184 585.719 158.324 583.551 170.453 583.551C181.469 583.551 189.672 584.869 195.062 587.506C200.453 590.084 204.232 593.395 206.4 597.438C208.627 601.422 209.74 608.775 209.74 619.498L209.477 648.326C209.477 656.529 209.857 662.594 210.619 666.52C211.439 670.387 212.934 674.547 215.102 679H190.668C190.023 677.359 189.232 674.928 188.295 671.705C187.885 670.24 187.592 669.273 187.416 668.805C183.197 672.906 178.686 675.982 173.881 678.033C169.076 680.084 163.949 681.109 158.5 681.109C148.891 681.109 141.303 678.502 135.736 673.287C130.229 668.072 127.475 661.48 127.475 653.512C127.475 648.238 128.734 643.551 131.254 639.449C133.773 635.289 137.289 632.125 141.801 629.957C146.371 627.73 152.934 625.797 161.488 624.156C173.031 621.988 181.029 619.967 185.482 618.092V615.631C185.482 610.885 184.311 607.516 181.967 605.523C179.623 603.473 175.199 602.447 168.695 602.447C164.301 602.447 160.873 603.326 158.412 605.084C155.951 606.783 153.959 609.801 152.436 614.137ZM185.482 634.176C182.318 635.23 177.309 636.49 170.453 637.955C163.598 639.42 159.115 640.855 157.006 642.262C153.783 644.547 152.172 647.447 152.172 650.963C152.172 654.42 153.461 657.408 156.039 659.928C158.617 662.447 161.898 663.707 165.883 663.707C170.336 663.707 174.584 662.242 178.627 659.312C181.615 657.086 183.578 654.361 184.516 651.139C185.16 649.029 185.482 645.016 185.482 639.098V634.176ZM257.816 679H233.119V585.66H256.059V598.932C259.984 592.662 263.5 588.531 266.605 586.539C269.77 584.547 273.344 583.551 277.328 583.551C282.953 583.551 288.373 585.104 293.588 588.209L285.941 609.742C281.781 607.047 277.914 605.699 274.34 605.699C270.883 605.699 267.953 606.666 265.551 608.6C263.148 610.475 261.244 613.902 259.838 618.883C258.49 623.863 257.816 634.293 257.816 650.172V679ZM347.113 585.66V605.348H330.238V642.965C330.238 650.582 330.385 655.035 330.678 656.324C331.029 657.555 331.762 658.58 332.875 659.4C334.047 660.221 335.453 660.631 337.094 660.631C339.379 660.631 342.689 659.84 347.025 658.258L349.135 677.418C343.393 679.879 336.889 681.109 329.623 681.109C325.17 681.109 321.156 680.377 317.582 678.912C314.008 677.389 311.371 675.455 309.672 673.111C308.031 670.709 306.889 667.486 306.244 663.443C305.717 660.572 305.453 654.771 305.453 646.041V605.348H294.115V585.66H305.453V567.115L330.238 552.701V585.66H347.113ZM492.484 656.061V679H405.912C406.85 670.328 409.662 662.125 414.35 654.391C419.037 646.598 428.295 636.285 442.123 623.453C453.256 613.082 460.082 606.051 462.602 602.359C466 597.262 467.699 592.223 467.699 587.242C467.699 581.734 466.205 577.516 463.217 574.586C460.287 571.598 456.215 570.104 451 570.104C445.844 570.104 441.742 571.656 438.695 574.762C435.648 577.867 433.891 583.023 433.422 590.23L408.812 587.77C410.277 574.176 414.877 564.42 422.611 558.502C430.346 552.584 440.014 549.625 451.615 549.625C464.33 549.625 474.32 553.053 481.586 559.908C488.852 566.764 492.484 575.289 492.484 585.484C492.484 591.285 491.43 596.822 489.32 602.096C487.27 607.311 483.988 612.789 479.477 618.531C476.488 622.34 471.098 627.818 463.305 634.967C455.512 642.115 450.561 646.861 448.451 649.205C446.4 651.549 444.73 653.834 443.441 656.061H492.484Z" fill="#FEFAFA"/>
<path d="M47.9336 998V943.771L0.736328 869.152H31.2344L61.5566 920.129L91.2637 869.152H121.234L73.8613 943.947V998H47.9336ZM114.906 950.012C114.906 941.809 116.928 933.869 120.971 926.193C125.014 918.518 130.727 912.658 138.109 908.615C145.551 904.572 153.842 902.551 162.982 902.551C177.104 902.551 188.676 907.15 197.699 916.35C206.723 925.49 211.234 937.062 211.234 951.066C211.234 965.188 206.664 976.906 197.523 986.223C188.441 995.48 176.986 1000.11 163.158 1000.11C154.604 1000.11 146.43 998.176 138.637 994.309C130.902 990.441 125.014 984.787 120.971 977.346C116.928 969.846 114.906 960.734 114.906 950.012ZM140.219 951.33C140.219 960.588 142.416 967.678 146.811 972.6C151.205 977.521 156.625 979.982 163.07 979.982C169.516 979.982 174.906 977.521 179.242 972.6C183.637 967.678 185.834 960.529 185.834 951.154C185.834 942.014 183.637 934.982 179.242 930.061C174.906 925.139 169.516 922.678 163.07 922.678C156.625 922.678 151.205 925.139 146.811 930.061C142.416 934.982 140.219 942.072 140.219 951.33ZM292.094 998V984.025C288.695 989.006 284.213 992.932 278.646 995.803C273.139 998.674 267.309 1000.11 261.156 1000.11C254.887 1000.11 249.262 998.732 244.281 995.979C239.301 993.225 235.697 989.357 233.471 984.377C231.244 979.396 230.131 972.512 230.131 963.723V904.66H254.828V947.551C254.828 960.676 255.268 968.732 256.146 971.721C257.084 974.65 258.754 976.994 261.156 978.752C263.559 980.451 266.605 981.301 270.297 981.301C274.516 981.301 278.295 980.158 281.635 977.873C284.975 975.529 287.26 972.658 288.49 969.26C289.721 965.803 290.336 957.395 290.336 944.035V904.66H315.033V998H292.094ZM384.379 956.076L409.691 953.615C411.215 962.111 414.291 968.352 418.92 972.336C423.607 976.32 429.906 978.312 437.816 978.312C446.195 978.312 452.494 976.555 456.713 973.039C460.99 969.465 463.129 965.305 463.129 960.559C463.129 957.512 462.221 954.934 460.404 952.824C458.646 950.656 455.541 948.781 451.088 947.199C448.041 946.145 441.098 944.27 430.258 941.574C416.312 938.117 406.527 933.869 400.902 928.83C392.992 921.74 389.037 913.098 389.037 902.902C389.037 896.34 390.883 890.217 394.574 884.533C398.324 878.791 403.686 874.426 410.658 871.438C417.689 868.449 426.156 866.955 436.059 866.955C452.23 866.955 464.389 870.5 472.533 877.59C480.736 884.68 485.043 894.143 485.453 905.979L459.438 907.121C458.324 900.5 455.922 895.754 452.23 892.883C448.598 889.953 443.119 888.488 435.795 888.488C428.236 888.488 422.318 890.041 418.041 893.146C415.287 895.139 413.91 897.805 413.91 901.145C413.91 904.191 415.199 906.799 417.777 908.967C421.059 911.721 429.027 914.592 441.684 917.58C454.34 920.568 463.686 923.674 469.721 926.896C475.814 930.061 480.561 934.426 483.959 939.992C487.416 945.5 489.145 952.326 489.145 960.471C489.145 967.854 487.094 974.768 482.992 981.213C478.891 987.658 473.09 992.463 465.59 995.627C458.09 998.732 448.744 1000.29 437.553 1000.29C421.264 1000.29 408.754 996.535 400.023 989.035C391.293 981.477 386.078 970.49 384.379 956.076ZM564.906 968.293L589.516 972.424C586.352 981.447 581.342 988.332 574.486 993.078C567.689 997.766 559.164 1000.11 548.91 1000.11C532.68 1000.11 520.668 994.807 512.875 984.201C506.723 975.705 503.646 964.982 503.646 952.033C503.646 936.564 507.689 924.465 515.775 915.734C523.861 906.945 534.086 902.551 546.449 902.551C560.336 902.551 571.293 907.15 579.32 916.35C587.348 925.49 591.186 939.523 590.834 958.449H528.959C529.135 965.773 531.127 971.486 534.936 975.588C538.744 979.631 543.49 981.652 549.174 981.652C553.041 981.652 556.293 980.598 558.93 978.488C561.566 976.379 563.559 972.98 564.906 968.293ZM566.312 943.332C566.137 936.184 564.291 930.764 560.775 927.072C557.26 923.322 552.982 921.447 547.943 921.447C542.553 921.447 538.1 923.41 534.584 927.336C531.068 931.262 529.34 936.594 529.398 943.332H566.312ZM665.102 968.293L689.711 972.424C686.547 981.447 681.537 988.332 674.682 993.078C667.885 997.766 659.359 1000.11 649.105 1000.11C632.875 1000.11 620.863 994.807 613.07 984.201C606.918 975.705 603.842 964.982 603.842 952.033C603.842 936.564 607.885 924.465 615.971 915.734C624.057 906.945 634.281 902.551 646.645 902.551C660.531 902.551 671.488 907.15 679.516 916.35C687.543 925.49 691.381 939.523 691.029 958.449H629.154C629.33 965.773 631.322 971.486 635.131 975.588C638.939 979.631 643.686 981.652 649.369 981.652C653.236 981.652 656.488 980.598 659.125 978.488C661.762 976.379 663.754 972.98 665.102 968.293ZM666.508 943.332C666.332 936.184 664.486 930.764 660.971 927.072C657.455 923.322 653.178 921.447 648.139 921.447C642.748 921.447 638.295 923.41 634.779 927.336C631.264 931.262 629.535 936.594 629.594 943.332H666.508ZM761.166 998V869.152H800.102L823.48 957.043L846.596 869.152H885.619V998H861.449V896.574L835.873 998H810.824L785.336 896.574V998H761.166ZM965.336 968.293L989.945 972.424C986.781 981.447 981.771 988.332 974.916 993.078C968.119 997.766 959.594 1000.11 949.34 1000.11C933.109 1000.11 921.098 994.807 913.305 984.201C907.152 975.705 904.076 964.982 904.076 952.033C904.076 936.564 908.119 924.465 916.205 915.734C924.291 906.945 934.516 902.551 946.879 902.551C960.766 902.551 971.723 907.15 979.75 916.35C987.777 925.49 991.615 939.523 991.264 958.449H929.389C929.564 965.773 931.557 971.486 935.365 975.588C939.174 979.631 943.92 981.652 949.604 981.652C953.471 981.652 956.723 980.598 959.359 978.488C961.996 976.379 963.988 972.98 965.336 968.293ZM966.742 943.332C966.566 936.184 964.721 930.764 961.205 927.072C957.689 923.322 953.412 921.447 948.373 921.447C942.982 921.447 938.529 923.41 935.014 927.336C931.498 931.262 929.77 936.594 929.828 943.332H966.742Z" fill="#FEFAFA"/>
<path d="M27.4473 1677V1548.15H53.4629V1605.37L106.021 1548.15H141.002L92.4863 1598.34L143.639 1677H109.977L74.5566 1616.53L53.4629 1638.06V1677H27.4473ZM218.434 1677V1663.03C215.035 1668.01 210.553 1671.93 204.986 1674.8C199.479 1677.67 193.648 1679.11 187.496 1679.11C181.227 1679.11 175.602 1677.73 170.621 1674.98C165.641 1672.22 162.037 1668.36 159.811 1663.38C157.584 1658.4 156.471 1651.51 156.471 1642.72V1583.66H181.168V1626.55C181.168 1639.68 181.607 1647.73 182.486 1650.72C183.424 1653.65 185.094 1655.99 187.496 1657.75C189.898 1659.45 192.945 1660.3 196.637 1660.3C200.855 1660.3 204.635 1659.16 207.975 1656.87C211.314 1654.53 213.6 1651.66 214.83 1648.26C216.061 1644.8 216.676 1636.39 216.676 1623.04V1583.66H241.373V1677H218.434ZM351.939 1677H327.242V1629.36C327.242 1619.29 326.715 1612.78 325.66 1609.85C324.605 1606.86 322.877 1604.55 320.475 1602.91C318.131 1601.27 315.289 1600.45 311.949 1600.45C307.672 1600.45 303.834 1601.62 300.436 1603.96C297.037 1606.31 294.693 1609.41 293.404 1613.28C292.174 1617.15 291.559 1624.29 291.559 1634.72V1677H266.861V1583.66H289.801V1597.37C297.945 1586.82 308.199 1581.55 320.562 1581.55C326.012 1581.55 330.992 1582.55 335.504 1584.54C340.016 1586.47 343.414 1588.96 345.699 1592.01C348.043 1595.06 349.654 1598.51 350.533 1602.38C351.471 1606.25 351.939 1611.79 351.939 1618.99V1677ZM374.791 1683.15L403.004 1686.58C403.473 1689.86 404.557 1692.12 406.256 1693.35C408.6 1695.11 412.291 1695.98 417.33 1695.98C423.775 1695.98 428.609 1695.02 431.832 1693.08C434 1691.79 435.641 1689.71 436.754 1686.84C437.516 1684.79 437.896 1681.01 437.896 1675.51V1661.88C430.514 1671.96 421.197 1677 409.947 1677C397.408 1677 387.477 1671.7 380.152 1661.09C374.41 1652.71 371.539 1642.28 371.539 1629.8C371.539 1614.16 375.289 1602.21 382.789 1593.94C390.348 1585.68 399.723 1581.55 410.914 1581.55C422.457 1581.55 431.979 1586.62 439.479 1596.76V1583.66H462.594V1667.42C462.594 1678.44 461.686 1686.67 459.869 1692.12C458.053 1697.57 455.504 1701.84 452.223 1704.95C448.941 1708.05 444.547 1710.49 439.039 1712.24C433.59 1714 426.676 1714.88 418.297 1714.88C402.477 1714.88 391.256 1712.16 384.635 1706.71C378.014 1701.32 374.703 1694.46 374.703 1686.14C374.703 1685.32 374.732 1684.32 374.791 1683.15ZM396.852 1628.4C396.852 1638.3 398.756 1645.56 402.564 1650.19C406.432 1654.76 411.178 1657.05 416.803 1657.05C422.838 1657.05 427.936 1654.71 432.096 1650.02C436.256 1645.27 438.336 1638.27 438.336 1629.01C438.336 1619.34 436.344 1612.17 432.359 1607.48C428.375 1602.79 423.336 1600.45 417.242 1600.45C411.324 1600.45 406.432 1602.76 402.564 1607.39C398.756 1611.96 396.852 1618.96 396.852 1628.4ZM537.564 1677V1548.15H625.895V1569.95H563.58V1600.45H617.369V1622.24H563.58V1677H537.564ZM708.688 1677V1663.03C705.289 1668.01 700.807 1671.93 695.24 1674.8C689.732 1677.67 683.902 1679.11 677.75 1679.11C671.48 1679.11 665.855 1677.73 660.875 1674.98C655.895 1672.22 652.291 1668.36 650.064 1663.38C647.838 1658.4 646.725 1651.51 646.725 1642.72V1583.66H671.422V1626.55C671.422 1639.68 671.861 1647.73 672.74 1650.72C673.678 1653.65 675.348 1655.99 677.75 1657.75C680.152 1659.45 683.199 1660.3 686.891 1660.3C691.109 1660.3 694.889 1659.16 698.229 1656.87C701.568 1654.53 703.854 1651.66 705.084 1648.26C706.314 1644.8 706.93 1636.39 706.93 1623.04V1583.66H731.627V1677H708.688ZM780.934 1677H756.236V1583.66H779.176V1596.93C783.102 1590.66 786.617 1586.53 789.723 1584.54C792.887 1582.55 796.461 1581.55 800.445 1581.55C806.07 1581.55 811.49 1583.1 816.705 1586.21L809.059 1607.74C804.898 1605.05 801.031 1603.7 797.457 1603.7C794 1603.7 791.07 1604.67 788.668 1606.6C786.266 1608.47 784.361 1611.9 782.955 1616.88C781.607 1621.86 780.934 1632.29 780.934 1648.17V1677ZM815.738 1583.66H842.018L864.342 1649.93L886.139 1583.66H911.715L878.756 1673.48L872.867 1689.74C870.699 1695.19 868.619 1699.35 866.627 1702.22C864.693 1705.1 862.438 1707.41 859.859 1709.17C857.34 1710.98 854.205 1712.39 850.455 1713.39C846.764 1714.38 842.574 1714.88 837.887 1714.88C833.141 1714.88 828.482 1714.38 823.912 1713.39L821.715 1694.05C825.582 1694.81 829.068 1695.19 832.174 1695.19C837.916 1695.19 842.164 1693.49 844.918 1690.1C847.672 1686.76 849.781 1682.48 851.246 1677.26L815.738 1583.66Z" fill="#FEFAFA"/>
<path d="M43.0996 2359V2251.95H4.86719V2230.15H107.26V2251.95H69.1152V2359H43.0996ZM148.568 2230.15V2277.53C156.537 2268.21 166.059 2263.55 177.133 2263.55C182.816 2263.55 187.943 2264.61 192.514 2266.71C197.084 2268.82 200.512 2271.52 202.797 2274.8C205.141 2278.08 206.723 2281.71 207.543 2285.7C208.422 2289.68 208.861 2295.87 208.861 2304.24V2359H184.164V2309.69C184.164 2299.91 183.695 2293.7 182.758 2291.06C181.82 2288.42 180.15 2286.34 177.748 2284.82C175.404 2283.24 172.445 2282.45 168.871 2282.45C164.77 2282.45 161.107 2283.44 157.885 2285.44C154.662 2287.43 152.289 2290.45 150.766 2294.49C149.301 2298.47 148.568 2304.39 148.568 2312.24V2359H123.871V2230.15H148.568ZM288.051 2329.29L312.66 2333.42C309.496 2342.45 304.486 2349.33 297.631 2354.08C290.834 2358.77 282.309 2361.11 272.055 2361.11C255.824 2361.11 243.812 2355.81 236.02 2345.2C229.867 2336.71 226.791 2325.98 226.791 2313.03C226.791 2297.56 230.834 2285.46 238.92 2276.73C247.006 2267.95 257.23 2263.55 269.594 2263.55C283.48 2263.55 294.438 2268.15 302.465 2277.35C310.492 2286.49 314.33 2300.52 313.979 2319.45H252.104C252.279 2326.77 254.271 2332.49 258.08 2336.59C261.889 2340.63 266.635 2342.65 272.318 2342.65C276.186 2342.65 279.438 2341.6 282.074 2339.49C284.711 2337.38 286.703 2333.98 288.051 2329.29ZM289.457 2304.33C289.281 2297.18 287.436 2291.76 283.92 2288.07C280.404 2284.32 276.127 2282.45 271.088 2282.45C265.697 2282.45 261.244 2284.41 257.729 2288.34C254.213 2292.26 252.484 2297.59 252.543 2304.33H289.457ZM384.115 2359V2230.15H423.051L446.43 2318.04L469.545 2230.15H508.568V2359H484.398V2257.57L458.822 2359H433.773L408.285 2257.57V2359H384.115ZM534.232 2253V2230.15H558.93V2253H534.232ZM534.232 2359V2265.66H558.93V2359H534.232ZM575.629 2332.37L600.414 2328.59C601.469 2333.39 603.607 2337.06 606.83 2339.58C610.053 2342.04 614.564 2343.27 620.365 2343.27C626.752 2343.27 631.557 2342.1 634.779 2339.75C636.947 2338.11 638.031 2335.91 638.031 2333.16C638.031 2331.29 637.445 2329.73 636.273 2328.5C635.043 2327.33 632.289 2326.25 628.012 2325.25C608.09 2320.86 595.463 2316.84 590.131 2313.21C582.748 2308.17 579.057 2301.17 579.057 2292.2C579.057 2284.12 582.25 2277.32 588.637 2271.81C595.023 2266.3 604.926 2263.55 618.344 2263.55C631.117 2263.55 640.609 2265.63 646.82 2269.79C653.031 2273.95 657.309 2280.1 659.652 2288.25L636.361 2292.55C635.365 2288.92 633.461 2286.14 630.648 2284.21C627.895 2282.27 623.939 2281.3 618.783 2281.3C612.279 2281.3 607.621 2282.21 604.809 2284.03C602.934 2285.32 601.996 2286.99 601.996 2289.04C601.996 2290.8 602.816 2292.29 604.457 2293.52C606.684 2295.16 614.359 2297.48 627.484 2300.46C640.668 2303.45 649.867 2307.12 655.082 2311.45C660.238 2315.85 662.816 2321.97 662.816 2329.82C662.816 2338.38 659.242 2345.73 652.094 2351.88C644.945 2358.03 634.369 2361.11 620.365 2361.11C607.65 2361.11 597.572 2358.53 590.131 2353.38C582.748 2348.22 577.914 2341.22 575.629 2332.37ZM727.328 2265.66V2285.35H710.453V2322.96C710.453 2330.58 710.6 2335.04 710.893 2336.32C711.244 2337.55 711.977 2338.58 713.09 2339.4C714.262 2340.22 715.668 2340.63 717.309 2340.63C719.594 2340.63 722.904 2339.84 727.24 2338.26L729.35 2357.42C723.607 2359.88 717.104 2361.11 709.838 2361.11C705.385 2361.11 701.371 2360.38 697.797 2358.91C694.223 2357.39 691.586 2355.46 689.887 2353.11C688.246 2350.71 687.104 2347.49 686.459 2343.44C685.932 2340.57 685.668 2334.77 685.668 2326.04V2285.35H674.33V2265.66H685.668V2247.12L710.453 2232.7V2265.66H727.328Z" fill="#FEFAFA"/>
<path d="M13.3047 3004V2875.15H39.3203V3004H13.3047ZM106.82 2910.66V2930.35H89.9453V2967.96C89.9453 2975.58 90.0918 2980.04 90.3848 2981.32C90.7363 2982.55 91.4688 2983.58 92.582 2984.4C93.7539 2985.22 95.1602 2985.63 96.8008 2985.63C99.0859 2985.63 102.396 2984.84 106.732 2983.26L108.842 3002.42C103.1 3004.88 96.5957 3006.11 89.3301 3006.11C84.877 3006.11 80.8633 3005.38 77.2891 3003.91C73.7148 3002.39 71.0781 3000.46 69.3789 2998.11C67.7383 2995.71 66.5957 2992.49 65.9512 2988.44C65.4238 2985.57 65.1602 2979.77 65.1602 2971.04V2930.35H53.8223V2910.66H65.1602V2892.12L89.9453 2877.7V2910.66H106.82ZM123.783 2920.94L119.125 2896.95V2875.15H146.02V2896.95L141.977 2920.94H123.783ZM158.148 2977.37L182.934 2973.59C183.988 2978.39 186.127 2982.06 189.35 2984.58C192.572 2987.04 197.084 2988.27 202.885 2988.27C209.271 2988.27 214.076 2987.1 217.299 2984.75C219.467 2983.11 220.551 2980.91 220.551 2978.16C220.551 2976.29 219.965 2974.73 218.793 2973.5C217.562 2972.33 214.809 2971.25 210.531 2970.25C190.609 2965.86 177.982 2961.84 172.65 2958.21C165.268 2953.17 161.576 2946.17 161.576 2937.2C161.576 2929.12 164.77 2922.32 171.156 2916.81C177.543 2911.3 187.445 2908.55 200.863 2908.55C213.637 2908.55 223.129 2910.63 229.34 2914.79C235.551 2918.95 239.828 2925.1 242.172 2933.25L218.881 2937.55C217.885 2933.92 215.98 2931.14 213.168 2929.21C210.414 2927.27 206.459 2926.3 201.303 2926.3C194.799 2926.3 190.141 2927.21 187.328 2929.03C185.453 2930.32 184.516 2931.99 184.516 2934.04C184.516 2935.8 185.336 2937.29 186.977 2938.52C189.203 2940.16 196.879 2942.48 210.004 2945.46C223.188 2948.45 232.387 2952.12 237.602 2956.45C242.758 2960.85 245.336 2966.97 245.336 2974.82C245.336 2983.38 241.762 2990.73 234.613 2996.88C227.465 3003.03 216.889 3006.11 202.885 3006.11C190.17 3006.11 180.092 3003.53 172.65 2998.38C165.268 2993.22 160.434 2986.22 158.148 2977.37ZM310.727 2962.08L336.039 2959.62C337.562 2968.11 340.639 2974.35 345.268 2978.34C349.955 2982.32 356.254 2984.31 364.164 2984.31C372.543 2984.31 378.842 2982.55 383.061 2979.04C387.338 2975.46 389.477 2971.3 389.477 2966.56C389.477 2963.51 388.568 2960.93 386.752 2958.82C384.994 2956.66 381.889 2954.78 377.436 2953.2C374.389 2952.14 367.445 2950.27 356.605 2947.57C342.66 2944.12 332.875 2939.87 327.25 2934.83C319.34 2927.74 315.385 2919.1 315.385 2908.9C315.385 2902.34 317.23 2896.22 320.922 2890.53C324.672 2884.79 330.033 2880.43 337.006 2877.44C344.037 2874.45 352.504 2872.96 362.406 2872.96C378.578 2872.96 390.736 2876.5 398.881 2883.59C407.084 2890.68 411.391 2900.14 411.801 2911.98L385.785 2913.12C384.672 2906.5 382.27 2901.75 378.578 2898.88C374.945 2895.95 369.467 2894.49 362.143 2894.49C354.584 2894.49 348.666 2896.04 344.389 2899.15C341.635 2901.14 340.258 2903.8 340.258 2907.14C340.258 2910.19 341.547 2912.8 344.125 2914.97C347.406 2917.72 355.375 2920.59 368.031 2923.58C380.688 2926.57 390.033 2929.67 396.068 2932.9C402.162 2936.06 406.908 2940.43 410.307 2945.99C413.764 2951.5 415.492 2958.33 415.492 2966.47C415.492 2973.85 413.441 2980.77 409.34 2987.21C405.238 2993.66 399.438 2998.46 391.938 3001.63C384.438 3004.73 375.092 3006.29 363.9 3006.29C347.611 3006.29 335.102 3002.54 326.371 2995.04C317.641 2987.48 312.426 2976.49 310.727 2962.08ZM498.637 3004V2990.03C495.238 2995.01 490.756 2998.93 485.189 3001.8C479.682 3004.67 473.852 3006.11 467.699 3006.11C461.43 3006.11 455.805 3004.73 450.824 3001.98C445.844 2999.22 442.24 2995.36 440.014 2990.38C437.787 2985.4 436.674 2978.51 436.674 2969.72V2910.66H461.371V2953.55C461.371 2966.68 461.811 2974.73 462.689 2977.72C463.627 2980.65 465.297 2982.99 467.699 2984.75C470.102 2986.45 473.148 2987.3 476.84 2987.3C481.059 2987.3 484.838 2986.16 488.178 2983.87C491.518 2981.53 493.803 2978.66 495.033 2975.26C496.264 2971.8 496.879 2963.39 496.879 2950.04V2910.66H521.576V3004H498.637ZM628.627 2938.26L604.281 2942.65C603.461 2937.79 601.586 2934.13 598.656 2931.67C595.785 2929.21 592.035 2927.97 587.406 2927.97C581.254 2927.97 576.332 2930.11 572.641 2934.39C569.008 2938.61 567.191 2945.7 567.191 2955.66C567.191 2966.73 569.037 2974.56 572.729 2979.13C576.479 2983.7 581.488 2985.98 587.758 2985.98C592.445 2985.98 596.283 2984.66 599.271 2982.03C602.26 2979.33 604.369 2974.73 605.6 2968.23L629.857 2972.36C627.338 2983.49 622.504 2991.9 615.355 2997.58C608.207 3003.27 598.627 3006.11 586.615 3006.11C572.963 3006.11 562.064 3001.8 553.92 2993.19C545.834 2984.58 541.791 2972.65 541.791 2957.42C541.791 2942.01 545.863 2930.03 554.008 2921.47C562.152 2912.86 573.168 2908.55 587.055 2908.55C598.422 2908.55 607.445 2911.01 614.125 2915.93C620.863 2920.8 625.697 2928.24 628.627 2938.26ZM672.045 2875.15V2922.53C680.014 2913.21 689.535 2908.55 700.609 2908.55C706.293 2908.55 711.42 2909.61 715.99 2911.71C720.561 2913.82 723.988 2916.52 726.273 2919.8C728.617 2923.08 730.199 2926.71 731.02 2930.7C731.898 2934.68 732.338 2940.87 732.338 2949.24V3004H707.641V2954.69C707.641 2944.91 707.172 2938.7 706.234 2936.06C705.297 2933.42 703.627 2931.34 701.225 2929.82C698.881 2928.24 695.922 2927.45 692.348 2927.45C688.246 2927.45 684.584 2928.44 681.361 2930.44C678.139 2932.43 675.766 2935.45 674.242 2939.49C672.777 2943.47 672.045 2949.39 672.045 2957.24V3004H647.348V2875.15H672.045ZM826.029 2939.14L803.617 2935.09C806.137 2926.07 810.473 2919.39 816.625 2915.05C822.777 2910.72 831.918 2908.55 844.047 2908.55C855.062 2908.55 863.266 2909.87 868.656 2912.51C874.047 2915.08 877.826 2918.39 879.994 2922.44C882.221 2926.42 883.334 2933.78 883.334 2944.5L883.07 2973.33C883.07 2981.53 883.451 2987.59 884.213 2991.52C885.033 2995.39 886.527 2999.55 888.695 3004H864.262C863.617 3002.36 862.826 2999.93 861.889 2996.71C861.479 2995.24 861.186 2994.27 861.01 2993.8C856.791 2997.91 852.279 3000.98 847.475 3003.03C842.67 3005.08 837.543 3006.11 832.094 3006.11C822.484 3006.11 814.896 3003.5 809.33 2998.29C803.822 2993.07 801.068 2986.48 801.068 2978.51C801.068 2973.24 802.328 2968.55 804.848 2964.45C807.367 2960.29 810.883 2957.12 815.395 2954.96C819.965 2952.73 826.527 2950.8 835.082 2949.16C846.625 2946.99 854.623 2944.97 859.076 2943.09V2940.63C859.076 2935.88 857.904 2932.52 855.561 2930.52C853.217 2928.47 848.793 2927.45 842.289 2927.45C837.895 2927.45 834.467 2928.33 832.006 2930.08C829.545 2931.78 827.553 2934.8 826.029 2939.14ZM859.076 2959.18C855.912 2960.23 850.902 2961.49 844.047 2962.96C837.191 2964.42 832.709 2965.86 830.6 2967.26C827.377 2969.55 825.766 2972.45 825.766 2975.96C825.766 2979.42 827.055 2982.41 829.633 2984.93C832.211 2987.45 835.492 2988.71 839.477 2988.71C843.93 2988.71 848.178 2987.24 852.221 2984.31C855.209 2982.09 857.172 2979.36 858.109 2976.14C858.754 2974.03 859.076 2970.02 859.076 2964.1V2959.18ZM958.129 2875.15H1009.63C1019.83 2875.15 1027.42 2875.59 1032.4 2876.47C1037.44 2877.29 1041.92 2879.05 1045.84 2881.74C1049.83 2884.44 1053.14 2888.04 1055.78 2892.55C1058.41 2897.01 1059.73 2902.02 1059.73 2907.58C1059.73 2913.62 1058.09 2919.16 1054.81 2924.2C1051.59 2929.23 1047.19 2933.01 1041.62 2935.53C1049.48 2937.82 1055.51 2941.71 1059.73 2947.22C1063.95 2952.73 1066.06 2959.21 1066.06 2966.65C1066.06 2972.51 1064.68 2978.22 1061.93 2983.79C1059.23 2989.29 1055.51 2993.72 1050.77 2997.06C1046.08 3000.34 1040.28 3002.36 1033.36 3003.12C1029.03 3003.59 1018.57 3003.88 1001.99 3004H958.129V2875.15ZM984.145 2896.6V2926.39H1001.2C1011.33 2926.39 1017.63 2926.25 1020.09 2925.95C1024.54 2925.43 1028.03 2923.9 1030.55 2921.38C1033.13 2918.8 1034.42 2915.44 1034.42 2911.28C1034.42 2907.29 1033.3 2904.07 1031.08 2901.61C1028.91 2899.09 1025.66 2897.56 1021.32 2897.04C1018.74 2896.74 1011.33 2896.6 999.086 2896.6H984.145ZM984.145 2947.84V2982.29H1008.23C1017.6 2982.29 1023.55 2982.03 1026.07 2981.5C1029.94 2980.8 1033.07 2979.1 1035.47 2976.4C1037.93 2973.65 1039.16 2969.99 1039.16 2965.42C1039.16 2961.55 1038.23 2958.27 1036.35 2955.57C1034.48 2952.88 1031.75 2950.91 1028.18 2949.68C1024.66 2948.45 1016.99 2947.84 1005.15 2947.84H984.145ZM1142 2974.29L1166.61 2978.42C1163.44 2987.45 1158.43 2994.33 1151.58 2999.08C1144.78 3003.77 1136.25 3006.11 1126 3006.11C1109.77 3006.11 1097.76 3000.81 1089.96 2990.2C1083.81 2981.71 1080.74 2970.98 1080.74 2958.03C1080.74 2942.56 1084.78 2930.46 1092.87 2921.73C1100.95 2912.95 1111.18 2908.55 1123.54 2908.55C1137.43 2908.55 1148.38 2913.15 1156.41 2922.35C1164.44 2931.49 1168.28 2945.52 1167.92 2964.45H1106.05C1106.22 2971.77 1108.22 2977.49 1112.03 2981.59C1115.83 2985.63 1120.58 2987.65 1126.26 2987.65C1130.13 2987.65 1133.38 2986.6 1136.02 2984.49C1138.66 2982.38 1140.65 2978.98 1142 2974.29ZM1143.4 2949.33C1143.23 2942.18 1141.38 2936.76 1137.87 2933.07C1134.35 2929.32 1130.07 2927.45 1125.03 2927.45C1119.64 2927.45 1115.19 2929.41 1111.67 2933.34C1108.16 2937.26 1106.43 2942.59 1106.49 2949.33H1143.4ZM1206.6 2939.14L1184.18 2935.09C1186.7 2926.07 1191.04 2919.39 1197.19 2915.05C1203.34 2910.72 1212.48 2908.55 1224.61 2908.55C1235.63 2908.55 1243.83 2909.87 1249.22 2912.51C1254.61 2915.08 1258.39 2918.39 1260.56 2922.44C1262.79 2926.42 1263.9 2933.78 1263.9 2944.5L1263.64 2973.33C1263.64 2981.53 1264.02 2987.59 1264.78 2991.52C1265.6 2995.39 1267.09 2999.55 1269.26 3004H1244.83C1244.18 3002.36 1243.39 2999.93 1242.46 2996.71C1242.04 2995.24 1241.75 2994.27 1241.58 2993.8C1237.36 2997.91 1232.85 3000.98 1228.04 3003.03C1223.24 3005.08 1218.11 3006.11 1212.66 3006.11C1203.05 3006.11 1195.46 3003.5 1189.9 2998.29C1184.39 2993.07 1181.63 2986.48 1181.63 2978.51C1181.63 2973.24 1182.89 2968.55 1185.41 2964.45C1187.93 2960.29 1191.45 2957.12 1195.96 2954.96C1200.53 2952.73 1207.09 2950.8 1215.65 2949.16C1227.19 2946.99 1235.19 2944.97 1239.64 2943.09V2940.63C1239.64 2935.88 1238.47 2932.52 1236.13 2930.52C1233.78 2928.47 1229.36 2927.45 1222.86 2927.45C1218.46 2927.45 1215.03 2928.33 1212.57 2930.08C1210.11 2931.78 1208.12 2934.8 1206.6 2939.14ZM1239.64 2959.18C1236.48 2960.23 1231.47 2961.49 1224.61 2962.96C1217.76 2964.42 1213.28 2965.86 1211.17 2967.26C1207.94 2969.55 1206.33 2972.45 1206.33 2975.96C1206.33 2979.42 1207.62 2982.41 1210.2 2984.93C1212.78 2987.45 1216.06 2988.71 1220.04 2988.71C1224.5 2988.71 1228.74 2987.24 1232.79 2984.31C1235.78 2982.09 1237.74 2979.36 1238.68 2976.14C1239.32 2974.03 1239.64 2970.02 1239.64 2964.1V2959.18ZM1349.77 3004V2990.03C1346.37 2995.01 1341.89 2998.93 1336.32 3001.8C1330.81 3004.67 1324.98 3006.11 1318.83 3006.11C1312.56 3006.11 1306.94 3004.73 1301.96 3001.98C1296.98 2999.22 1293.37 2995.36 1291.15 2990.38C1288.92 2985.4 1287.81 2978.51 1287.81 2969.72V2910.66H1312.5V2953.55C1312.5 2966.68 1312.94 2974.73 1313.82 2977.72C1314.76 2980.65 1316.43 2982.99 1318.83 2984.75C1321.23 2986.45 1324.28 2987.3 1327.97 2987.3C1332.19 2987.3 1335.97 2986.16 1339.31 2983.87C1342.65 2981.53 1344.94 2978.66 1346.17 2975.26C1347.4 2971.8 1348.01 2963.39 1348.01 2950.04V2910.66H1372.71V3004H1349.77ZM1441.18 2910.66V2930.35H1424.3V2967.96C1424.3 2975.58 1424.45 2980.04 1424.74 2981.32C1425.09 2982.55 1425.82 2983.58 1426.94 2984.4C1428.11 2985.22 1429.52 2985.63 1431.16 2985.63C1433.44 2985.63 1436.75 2984.84 1441.09 2983.26L1443.2 3002.42C1437.46 3004.88 1430.95 3006.11 1423.69 3006.11C1419.23 3006.11 1415.22 3005.38 1411.64 3003.91C1408.07 3002.39 1405.43 3000.46 1403.73 2998.11C1402.09 2995.71 1400.95 2992.49 1400.31 2988.44C1399.78 2985.57 1399.52 2979.77 1399.52 2971.04V2930.35H1388.18V2910.66H1399.52V2892.12L1424.3 2877.7V2910.66H1441.18ZM1458.31 2898V2875.15H1483.01V2898H1458.31ZM1458.31 3004V2910.66H1483.01V3004H1458.31ZM1497.6 2910.66H1511.31V2903.63C1511.31 2895.78 1512.13 2889.92 1513.77 2886.05C1515.47 2882.18 1518.55 2879.05 1523 2876.65C1527.51 2874.19 1533.2 2872.96 1540.05 2872.96C1547.08 2872.96 1553.97 2874.01 1560.71 2876.12L1557.37 2893.35C1553.44 2892.41 1549.66 2891.94 1546.03 2891.94C1542.46 2891.94 1539.88 2892.79 1538.29 2894.49C1536.77 2896.13 1536.01 2899.32 1536.01 2904.07V2910.66H1554.47V2930.08H1536.01V3004H1511.31V2930.08H1497.6V2910.66ZM1629.79 3004V2990.03C1626.39 2995.01 1621.91 2998.93 1616.34 3001.8C1610.83 3004.67 1605 3006.11 1598.85 3006.11C1592.58 3006.11 1586.96 3004.73 1581.98 3001.98C1577 2999.22 1573.39 2995.36 1571.17 2990.38C1568.94 2985.4 1567.83 2978.51 1567.83 2969.72V2910.66H1592.52V2953.55C1592.52 2966.68 1592.96 2974.73 1593.84 2977.72C1594.78 2980.65 1596.45 2982.99 1598.85 2984.75C1601.25 2986.45 1604.3 2987.3 1607.99 2987.3C1612.21 2987.3 1615.99 2986.16 1619.33 2983.87C1622.67 2981.53 1624.96 2978.66 1626.19 2975.26C1627.42 2971.8 1628.03 2963.39 1628.03 2950.04V2910.66H1652.73V3004H1629.79ZM1678.39 3004V2875.15H1703.09V3004H1678.39ZM14.0078 3082.15H61.5566C72.2793 3082.15 80.4531 3082.97 86.0781 3084.61C93.6367 3086.84 100.111 3090.79 105.502 3096.48C110.893 3102.16 114.994 3109.13 117.807 3117.4C120.619 3125.6 122.025 3135.74 122.025 3147.81C122.025 3158.41 120.707 3167.55 118.07 3175.23C114.848 3184.6 110.248 3192.19 104.271 3197.99C99.7598 3202.39 93.666 3205.81 85.9902 3208.28C80.248 3210.09 72.5723 3211 62.9629 3211H14.0078V3082.15ZM40.0234 3103.95V3189.29H59.4473C66.7129 3189.29 71.957 3188.88 75.1797 3188.06C79.3984 3187.01 82.8848 3185.22 85.6387 3182.7C88.4512 3180.18 90.7363 3176.05 92.4941 3170.31C94.252 3164.51 95.1309 3156.62 95.1309 3146.66C95.1309 3136.7 94.252 3129.06 92.4941 3123.72C90.7363 3118.39 88.2754 3114.23 85.1113 3111.24C81.9473 3108.26 77.9336 3106.23 73.0703 3105.18C69.4375 3104.36 62.3184 3103.95 51.7129 3103.95H40.0234ZM162.455 3146.14L140.043 3142.09C142.562 3133.07 146.898 3126.39 153.051 3122.05C159.203 3117.72 168.344 3115.55 180.473 3115.55C191.488 3115.55 199.691 3116.87 205.082 3119.51C210.473 3122.08 214.252 3125.39 216.42 3129.44C218.646 3133.42 219.76 3140.78 219.76 3151.5L219.496 3180.33C219.496 3188.53 219.877 3194.59 220.639 3198.52C221.459 3202.39 222.953 3206.55 225.121 3211H200.688C200.043 3209.36 199.252 3206.93 198.314 3203.71C197.904 3202.24 197.611 3201.27 197.436 3200.8C193.217 3204.91 188.705 3207.98 183.9 3210.03C179.096 3212.08 173.969 3213.11 168.52 3213.11C158.91 3213.11 151.322 3210.5 145.756 3205.29C140.248 3200.07 137.494 3193.48 137.494 3185.51C137.494 3180.24 138.754 3175.55 141.273 3171.45C143.793 3167.29 147.309 3164.12 151.82 3161.96C156.391 3159.73 162.953 3157.8 171.508 3156.16C183.051 3153.99 191.049 3151.97 195.502 3150.09V3147.63C195.502 3142.88 194.33 3139.52 191.986 3137.52C189.643 3135.47 185.219 3134.45 178.715 3134.45C174.32 3134.45 170.893 3135.33 168.432 3137.08C165.971 3138.78 163.979 3141.8 162.455 3146.14ZM195.502 3166.18C192.338 3167.23 187.328 3168.49 180.473 3169.96C173.617 3171.42 169.135 3172.86 167.025 3174.26C163.803 3176.55 162.191 3179.45 162.191 3182.96C162.191 3186.42 163.48 3189.41 166.059 3191.93C168.637 3194.45 171.918 3195.71 175.902 3195.71C180.355 3195.71 184.604 3194.24 188.646 3191.31C191.635 3189.09 193.598 3186.36 194.535 3183.14C195.18 3181.03 195.502 3177.02 195.502 3171.1V3166.18ZM232.504 3117.66H258.783L281.107 3183.93L302.904 3117.66H328.48L295.521 3207.48L289.633 3223.74C287.465 3229.19 285.385 3233.35 283.393 3236.22C281.459 3239.1 279.203 3241.41 276.625 3243.17C274.105 3244.98 270.971 3246.39 267.221 3247.39C263.529 3248.38 259.34 3248.88 254.652 3248.88C249.906 3248.88 245.248 3248.38 240.678 3247.39L238.48 3228.05C242.348 3228.81 245.834 3229.19 248.939 3229.19C254.682 3229.19 258.93 3227.49 261.684 3224.1C264.438 3220.76 266.547 3216.48 268.012 3211.26L232.504 3117.66Z" fill="#FEFAFA"/>
<path d="M14.0078 3538.15H61.5566C72.2793 3538.15 80.4531 3538.97 86.0781 3540.61C93.6367 3542.84 100.111 3546.79 105.502 3552.48C110.893 3558.16 114.994 3565.13 117.807 3573.4C120.619 3581.6 122.025 3591.74 122.025 3603.81C122.025 3614.41 120.707 3623.55 118.07 3631.23C114.848 3640.6 110.248 3648.19 104.271 3653.99C99.7598 3658.39 93.666 3661.81 85.9902 3664.28C80.248 3666.09 72.5723 3667 62.9629 3667H14.0078V3538.15ZM40.0234 3559.95V3645.29H59.4473C66.7129 3645.29 71.957 3644.88 75.1797 3644.06C79.3984 3643.01 82.8848 3641.22 85.6387 3638.7C88.4512 3636.18 90.7363 3632.05 92.4941 3626.31C94.252 3620.51 95.1309 3612.62 95.1309 3602.66C95.1309 3592.7 94.252 3585.06 92.4941 3579.72C90.7363 3574.39 88.2754 3570.23 85.1113 3567.24C81.9473 3564.26 77.9336 3562.23 73.0703 3561.18C69.4375 3560.36 62.3184 3559.95 51.7129 3559.95H40.0234ZM143.998 3561V3538.15H168.695V3561H143.998ZM143.998 3667V3573.66H168.695V3667H143.998ZM185.395 3640.37L210.18 3636.59C211.234 3641.39 213.373 3645.06 216.596 3647.58C219.818 3650.04 224.33 3651.27 230.131 3651.27C236.518 3651.27 241.322 3650.1 244.545 3647.75C246.713 3646.11 247.797 3643.91 247.797 3641.16C247.797 3639.29 247.211 3637.73 246.039 3636.5C244.809 3635.33 242.055 3634.25 237.777 3633.25C217.855 3628.86 205.229 3624.84 199.896 3621.21C192.514 3616.17 188.822 3609.17 188.822 3600.2C188.822 3592.12 192.016 3585.32 198.402 3579.81C204.789 3574.3 214.691 3571.55 228.109 3571.55C240.883 3571.55 250.375 3573.63 256.586 3577.79C262.797 3581.95 267.074 3588.1 269.418 3596.25L246.127 3600.55C245.131 3596.92 243.227 3594.14 240.414 3592.21C237.66 3590.27 233.705 3589.3 228.549 3589.3C222.045 3589.3 217.387 3590.21 214.574 3592.03C212.699 3593.32 211.762 3594.99 211.762 3597.04C211.762 3598.8 212.582 3600.29 214.223 3601.52C216.449 3603.16 224.125 3605.48 237.25 3608.46C250.434 3611.45 259.633 3615.12 264.848 3619.45C270.004 3623.85 272.582 3629.97 272.582 3637.82C272.582 3646.38 269.008 3653.73 261.859 3659.88C254.711 3666.03 244.135 3669.11 230.131 3669.11C217.416 3669.11 207.338 3666.53 199.896 3661.38C192.514 3656.22 187.68 3649.22 185.395 3640.37ZM288.578 3619.01C288.578 3610.81 290.6 3602.87 294.643 3595.19C298.686 3587.52 304.398 3581.66 311.781 3577.62C319.223 3573.57 327.514 3571.55 336.654 3571.55C350.775 3571.55 362.348 3576.15 371.371 3585.35C380.395 3594.49 384.906 3606.06 384.906 3620.07C384.906 3634.19 380.336 3645.91 371.195 3655.22C362.113 3664.48 350.658 3669.11 336.83 3669.11C328.275 3669.11 320.102 3667.18 312.309 3663.31C304.574 3659.44 298.686 3653.79 294.643 3646.35C290.6 3638.85 288.578 3629.73 288.578 3619.01ZM313.891 3620.33C313.891 3629.59 316.088 3636.68 320.482 3641.6C324.877 3646.52 330.297 3648.98 336.742 3648.98C343.188 3648.98 348.578 3646.52 352.914 3641.6C357.309 3636.68 359.506 3629.53 359.506 3620.15C359.506 3611.01 357.309 3603.98 352.914 3599.06C348.578 3594.14 343.188 3591.68 336.742 3591.68C330.297 3591.68 324.877 3594.14 320.482 3599.06C316.088 3603.98 313.891 3611.07 313.891 3620.33ZM427.973 3667H403.275V3573.66H426.215V3586.93C430.141 3580.66 433.656 3576.53 436.762 3574.54C439.926 3572.55 443.5 3571.55 447.484 3571.55C453.109 3571.55 458.529 3573.1 463.744 3576.21L456.098 3597.74C451.938 3595.05 448.07 3593.7 444.496 3593.7C441.039 3593.7 438.109 3594.67 435.707 3596.6C433.305 3598.47 431.4 3601.9 429.994 3606.88C428.646 3611.86 427.973 3622.29 427.973 3638.17V3667ZM560.072 3667H537.133V3653.29C533.324 3658.62 528.812 3662.61 523.598 3665.24C518.441 3667.82 513.227 3669.11 507.953 3669.11C497.23 3669.11 488.031 3664.8 480.355 3656.19C472.738 3647.52 468.93 3635.45 468.93 3619.98C468.93 3604.16 472.65 3592.15 480.092 3583.94C487.533 3575.68 496.938 3571.55 508.305 3571.55C518.734 3571.55 527.758 3575.89 535.375 3584.56V3538.15H560.072V3667ZM494.154 3618.31C494.154 3628.27 495.531 3635.48 498.285 3639.93C502.27 3646.38 507.836 3649.6 514.984 3649.6C520.668 3649.6 525.502 3647.2 529.486 3642.39C533.471 3637.53 535.463 3630.29 535.463 3620.68C535.463 3609.96 533.529 3602.25 529.662 3597.57C525.795 3592.82 520.844 3590.45 514.809 3590.45C508.949 3590.45 504.027 3592.79 500.043 3597.48C496.117 3602.11 494.154 3609.05 494.154 3618.31ZM638.559 3637.29L663.168 3641.42C660.004 3650.45 654.994 3657.33 648.139 3662.08C641.342 3666.77 632.816 3669.11 622.562 3669.11C606.332 3669.11 594.32 3663.81 586.527 3653.2C580.375 3644.71 577.299 3633.98 577.299 3621.03C577.299 3605.56 581.342 3593.46 589.428 3584.73C597.514 3575.95 607.738 3571.55 620.102 3571.55C633.988 3571.55 644.945 3576.15 652.973 3585.35C661 3594.49 664.838 3608.52 664.486 3627.45H602.611C602.787 3634.77 604.779 3640.49 608.588 3644.59C612.396 3648.63 617.143 3650.65 622.826 3650.65C626.693 3650.65 629.945 3649.6 632.582 3647.49C635.219 3645.38 637.211 3641.98 638.559 3637.29ZM639.965 3612.33C639.789 3605.18 637.943 3599.76 634.428 3596.07C630.912 3592.32 626.635 3590.45 621.596 3590.45C616.205 3590.45 611.752 3592.41 608.236 3596.34C604.721 3600.26 602.992 3605.59 603.051 3612.33H639.965ZM708.344 3667H683.646V3573.66H706.586V3586.93C710.512 3580.66 714.027 3576.53 717.133 3574.54C720.297 3572.55 723.871 3571.55 727.855 3571.55C733.48 3571.55 738.9 3573.1 744.115 3576.21L736.469 3597.74C732.309 3595.05 728.441 3593.7 724.867 3593.7C721.41 3593.7 718.48 3594.67 716.078 3596.6C713.676 3598.47 711.771 3601.9 710.365 3606.88C709.018 3611.86 708.344 3622.29 708.344 3638.17V3667ZM804.936 3561V3538.15H829.633V3561H804.936ZM804.936 3667V3573.66H829.633V3667H804.936ZM939.936 3667H915.238V3619.36C915.238 3609.29 914.711 3602.78 913.656 3599.85C912.602 3596.86 910.873 3594.55 908.471 3592.91C906.127 3591.27 903.285 3590.45 899.945 3590.45C895.668 3590.45 891.83 3591.62 888.432 3593.96C885.033 3596.31 882.689 3599.41 881.4 3603.28C880.17 3607.15 879.555 3614.29 879.555 3624.72V3667H854.857V3573.66H877.797V3587.37C885.941 3576.82 896.195 3571.55 908.559 3571.55C914.008 3571.55 918.988 3572.55 923.5 3574.54C928.012 3576.47 931.41 3578.96 933.695 3582.01C936.039 3585.06 937.65 3588.51 938.529 3592.38C939.467 3596.25 939.936 3601.79 939.936 3608.99V3667ZM1057.97 3573.66V3593.35H1041.1V3630.96C1041.1 3638.58 1041.24 3643.04 1041.54 3644.32C1041.89 3645.55 1042.62 3646.58 1043.73 3647.4C1044.91 3648.22 1046.31 3648.63 1047.95 3648.63C1050.24 3648.63 1053.55 3647.84 1057.88 3646.26L1059.99 3665.42C1054.25 3667.88 1047.75 3669.11 1040.48 3669.11C1036.03 3669.11 1032.02 3668.38 1028.44 3666.91C1024.87 3665.39 1022.23 3663.46 1020.53 3661.11C1018.89 3658.71 1017.75 3655.49 1017.1 3651.44C1016.58 3648.57 1016.31 3642.77 1016.31 3634.04V3593.35H1004.97V3573.66H1016.31V3555.12L1041.1 3540.7V3573.66H1057.97ZM1099.72 3538.15V3585.53C1107.69 3576.21 1117.21 3571.55 1128.29 3571.55C1133.97 3571.55 1139.1 3572.61 1143.67 3574.71C1148.24 3576.82 1151.66 3579.52 1153.95 3582.8C1156.29 3586.08 1157.88 3589.71 1158.7 3593.7C1159.57 3597.68 1160.01 3603.87 1160.01 3612.24V3667H1135.32V3617.69C1135.32 3607.91 1134.85 3601.7 1133.91 3599.06C1132.97 3596.42 1131.3 3594.34 1128.9 3592.82C1126.56 3591.24 1123.6 3590.45 1120.02 3590.45C1115.92 3590.45 1112.26 3591.44 1109.04 3593.44C1105.81 3595.43 1103.44 3598.45 1101.92 3602.49C1100.45 3606.47 1099.72 3612.39 1099.72 3620.24V3667H1075.02V3538.15H1099.72ZM1239.2 3637.29L1263.81 3641.42C1260.65 3650.45 1255.64 3657.33 1248.78 3662.08C1241.99 3666.77 1233.46 3669.11 1223.21 3669.11C1206.98 3669.11 1194.96 3663.81 1187.17 3653.2C1181.02 3644.71 1177.94 3633.98 1177.94 3621.03C1177.94 3605.56 1181.99 3593.46 1190.07 3584.73C1198.16 3575.95 1208.38 3571.55 1220.75 3571.55C1234.63 3571.55 1245.59 3576.15 1253.62 3585.35C1261.64 3594.49 1265.48 3608.52 1265.13 3627.45H1203.26C1203.43 3634.77 1205.42 3640.49 1209.23 3644.59C1213.04 3648.63 1217.79 3650.65 1223.47 3650.65C1227.34 3650.65 1230.59 3649.6 1233.23 3647.49C1235.86 3645.38 1237.86 3641.98 1239.2 3637.29ZM1240.61 3612.33C1240.43 3605.18 1238.59 3599.76 1235.07 3596.07C1231.56 3592.32 1227.28 3590.45 1222.24 3590.45C1216.85 3590.45 1212.4 3592.41 1208.88 3596.34C1205.37 3600.26 1203.64 3605.59 1203.7 3612.33H1240.61ZM96.5371 3826.63L121.762 3834.62C117.895 3848.69 111.449 3859.15 102.426 3866C93.4609 3872.8 82.0645 3876.2 68.2363 3876.2C51.127 3876.2 37.0645 3870.37 26.0488 3858.71C15.0332 3846.99 9.52539 3830.99 9.52539 3810.72C9.52539 3789.27 15.0625 3772.63 26.1367 3760.8C37.2109 3748.9 51.7715 3742.96 69.8184 3742.96C85.5801 3742.96 98.3828 3747.61 108.227 3756.93C114.086 3762.44 118.48 3770.35 121.41 3780.66L95.6582 3786.81C94.1348 3780.13 90.9414 3774.86 86.0781 3770.99C81.2734 3767.12 75.4141 3765.19 68.5 3765.19C58.9492 3765.19 51.1855 3768.62 45.209 3775.47C39.291 3782.33 36.332 3793.43 36.332 3808.79C36.332 3825.07 39.2617 3836.68 45.1211 3843.59C50.9805 3850.5 58.5977 3853.96 67.9727 3853.96C74.8867 3853.96 80.834 3851.76 85.8145 3847.37C90.7949 3842.97 94.3691 3836.06 96.5371 3826.63ZM138.285 3826.01C138.285 3817.81 140.307 3809.87 144.35 3802.19C148.393 3794.52 154.105 3788.66 161.488 3784.62C168.93 3780.57 177.221 3778.55 186.361 3778.55C200.482 3778.55 212.055 3783.15 221.078 3792.35C230.102 3801.49 234.613 3813.06 234.613 3827.07C234.613 3841.19 230.043 3852.91 220.902 3862.22C211.82 3871.48 200.365 3876.11 186.537 3876.11C177.982 3876.11 169.809 3874.18 162.016 3870.31C154.281 3866.44 148.393 3860.79 144.35 3853.35C140.307 3845.85 138.285 3836.73 138.285 3826.01ZM163.598 3827.33C163.598 3836.59 165.795 3843.68 170.189 3848.6C174.584 3853.52 180.004 3855.98 186.449 3855.98C192.895 3855.98 198.285 3853.52 202.621 3848.6C207.016 3843.68 209.213 3836.53 209.213 3827.15C209.213 3818.01 207.016 3810.98 202.621 3806.06C198.285 3801.14 192.895 3798.68 186.449 3798.68C180.004 3798.68 174.584 3801.14 170.189 3806.06C165.795 3810.98 163.598 3818.07 163.598 3827.33ZM315.473 3874V3860.03C312.074 3865.01 307.592 3868.93 302.025 3871.8C296.518 3874.67 290.688 3876.11 284.535 3876.11C278.266 3876.11 272.641 3874.73 267.66 3871.98C262.68 3869.22 259.076 3865.36 256.85 3860.38C254.623 3855.4 253.51 3848.51 253.51 3839.72V3780.66H278.207V3823.55C278.207 3836.68 278.646 3844.73 279.525 3847.72C280.463 3850.65 282.133 3852.99 284.535 3854.75C286.938 3856.45 289.984 3857.3 293.676 3857.3C297.895 3857.3 301.674 3856.16 305.014 3853.87C308.354 3851.53 310.639 3848.66 311.869 3845.26C313.1 3841.8 313.715 3833.39 313.715 3820.04V3780.66H338.412V3874H315.473ZM387.719 3874H363.021V3780.66H385.961V3793.93C389.887 3787.66 393.402 3783.53 396.508 3781.54C399.672 3779.55 403.246 3778.55 407.23 3778.55C412.855 3778.55 418.275 3780.1 423.49 3783.21L415.844 3804.74C411.684 3802.05 407.816 3800.7 404.242 3800.7C400.785 3800.7 397.855 3801.67 395.453 3803.6C393.051 3805.47 391.146 3808.9 389.74 3813.88C388.393 3818.86 387.719 3829.29 387.719 3845.17V3874ZM477.016 3780.66V3800.35H460.141V3837.96C460.141 3845.58 460.287 3850.04 460.58 3851.32C460.932 3852.55 461.664 3853.58 462.777 3854.4C463.949 3855.22 465.355 3855.63 466.996 3855.63C469.281 3855.63 472.592 3854.84 476.928 3853.26L479.037 3872.42C473.295 3874.88 466.791 3876.11 459.525 3876.11C455.072 3876.11 451.059 3875.38 447.484 3873.91C443.91 3872.39 441.273 3870.46 439.574 3868.11C437.934 3865.71 436.791 3862.49 436.146 3858.44C435.619 3855.57 435.355 3849.77 435.355 3841.04V3800.35H424.018V3780.66H435.355V3762.12L460.141 3747.7V3780.66H477.016Z" fill="#FEFAFA"/>
<path d="M130.287 4322H101.986L90.7363 4292.73H39.2324L28.5977 4322H1L51.1855 4193.15H78.6953L130.287 4322ZM82.3867 4271.02L64.6328 4223.21L47.2305 4271.02H82.3867ZM142.152 4228.66H164.916V4241.4C173.061 4231.5 182.758 4226.55 194.008 4226.55C199.984 4226.55 205.17 4227.78 209.564 4230.24C213.959 4232.7 217.562 4236.42 220.375 4241.4C224.477 4236.42 228.9 4232.7 233.646 4230.24C238.393 4227.78 243.461 4226.55 248.852 4226.55C255.707 4226.55 261.508 4227.96 266.254 4230.77C271 4233.52 274.545 4237.6 276.889 4242.99C278.588 4246.97 279.438 4253.42 279.438 4262.32V4322H254.74V4268.65C254.74 4259.39 253.891 4253.42 252.191 4250.72C249.906 4247.21 246.391 4245.45 241.645 4245.45C238.188 4245.45 234.936 4246.5 231.889 4248.61C228.842 4250.72 226.645 4253.83 225.297 4257.93C223.949 4261.97 223.275 4268.39 223.275 4277.18V4322H198.578V4270.85C198.578 4261.77 198.139 4255.91 197.26 4253.27C196.381 4250.63 195.004 4248.67 193.129 4247.38C191.312 4246.09 188.822 4245.45 185.658 4245.45C181.85 4245.45 178.422 4246.47 175.375 4248.52C172.328 4250.57 170.131 4253.53 168.783 4257.4C167.494 4261.27 166.85 4267.68 166.85 4276.65V4322H142.152V4228.66ZM322.592 4257.14L300.18 4253.09C302.699 4244.07 307.035 4237.39 313.188 4233.05C319.34 4228.72 328.48 4226.55 340.609 4226.55C351.625 4226.55 359.828 4227.87 365.219 4230.51C370.609 4233.08 374.389 4236.39 376.557 4240.44C378.783 4244.42 379.896 4251.78 379.896 4262.5L379.633 4291.33C379.633 4299.53 380.014 4305.59 380.775 4309.52C381.596 4313.39 383.09 4317.55 385.258 4322H360.824C360.18 4320.36 359.389 4317.93 358.451 4314.71C358.041 4313.24 357.748 4312.27 357.572 4311.8C353.354 4315.91 348.842 4318.98 344.037 4321.03C339.232 4323.08 334.105 4324.11 328.656 4324.11C319.047 4324.11 311.459 4321.5 305.893 4316.29C300.385 4311.07 297.631 4304.48 297.631 4296.51C297.631 4291.24 298.891 4286.55 301.41 4282.45C303.93 4278.29 307.445 4275.12 311.957 4272.96C316.527 4270.73 323.09 4268.8 331.645 4267.16C343.188 4264.99 351.186 4262.97 355.639 4261.09V4258.63C355.639 4253.88 354.467 4250.52 352.123 4248.52C349.779 4246.47 345.355 4245.45 338.852 4245.45C334.457 4245.45 331.029 4246.33 328.568 4248.08C326.107 4249.78 324.115 4252.8 322.592 4257.14ZM355.639 4277.18C352.475 4278.23 347.465 4279.49 340.609 4280.96C333.754 4282.42 329.271 4283.86 327.162 4285.26C323.939 4287.55 322.328 4290.45 322.328 4293.96C322.328 4297.42 323.617 4300.41 326.195 4302.93C328.773 4305.45 332.055 4306.71 336.039 4306.71C340.492 4306.71 344.74 4305.24 348.783 4302.31C351.771 4300.09 353.734 4297.36 354.672 4294.14C355.316 4292.03 355.639 4288.02 355.639 4282.1V4277.18ZM489.936 4322H466.996V4308.29C463.188 4313.62 458.676 4317.61 453.461 4320.24C448.305 4322.82 443.09 4324.11 437.816 4324.11C427.094 4324.11 417.895 4319.8 410.219 4311.19C402.602 4302.52 398.793 4290.45 398.793 4274.98C398.793 4259.16 402.514 4247.15 409.955 4238.94C417.396 4230.68 426.801 4226.55 438.168 4226.55C448.598 4226.55 457.621 4230.89 465.238 4239.56V4193.15H489.936V4322ZM424.018 4273.31C424.018 4283.27 425.395 4290.48 428.148 4294.93C432.133 4301.38 437.699 4304.6 444.848 4304.6C450.531 4304.6 455.365 4302.2 459.35 4297.39C463.334 4292.53 465.326 4285.29 465.326 4275.68C465.326 4264.96 463.393 4257.25 459.525 4252.57C455.658 4247.82 450.707 4245.45 444.672 4245.45C438.812 4245.45 433.891 4247.79 429.906 4252.48C425.98 4257.11 424.018 4264.05 424.018 4273.31ZM568.422 4292.29L593.031 4296.42C589.867 4305.45 584.857 4312.33 578.002 4317.08C571.205 4321.77 562.68 4324.11 552.426 4324.11C536.195 4324.11 524.184 4318.81 516.391 4308.2C510.238 4299.71 507.162 4288.98 507.162 4276.03C507.162 4260.56 511.205 4248.46 519.291 4239.73C527.377 4230.95 537.602 4226.55 549.965 4226.55C563.852 4226.55 574.809 4231.15 582.836 4240.35C590.863 4249.49 594.701 4263.52 594.35 4282.45H532.475C532.65 4289.77 534.643 4295.49 538.451 4299.59C542.26 4303.63 547.006 4305.65 552.689 4305.65C556.557 4305.65 559.809 4304.6 562.445 4302.49C565.082 4300.38 567.074 4296.98 568.422 4292.29ZM569.828 4267.33C569.652 4260.18 567.807 4254.76 564.291 4251.07C560.775 4247.32 556.498 4245.45 551.459 4245.45C546.068 4245.45 541.615 4247.41 538.1 4251.34C534.584 4255.26 532.855 4260.59 532.914 4267.33H569.828ZM676 4322V4308.03C672.602 4313.01 668.119 4316.93 662.553 4319.8C657.045 4322.67 651.215 4324.11 645.062 4324.11C638.793 4324.11 633.168 4322.73 628.188 4319.98C623.207 4317.22 619.604 4313.36 617.377 4308.38C615.15 4303.4 614.037 4296.51 614.037 4287.72V4228.66H638.734V4271.55C638.734 4284.68 639.174 4292.73 640.053 4295.72C640.99 4298.65 642.66 4300.99 645.062 4302.75C647.465 4304.45 650.512 4305.3 654.203 4305.3C658.422 4305.3 662.201 4304.16 665.541 4301.87C668.881 4299.53 671.166 4296.66 672.396 4293.26C673.627 4289.8 674.242 4281.39 674.242 4268.04V4228.66H698.939V4322H676ZM715.902 4295.37L740.688 4291.59C741.742 4296.39 743.881 4300.06 747.104 4302.58C750.326 4305.04 754.838 4306.27 760.639 4306.27C767.025 4306.27 771.83 4305.1 775.053 4302.75C777.221 4301.11 778.305 4298.91 778.305 4296.16C778.305 4294.29 777.719 4292.73 776.547 4291.5C775.316 4290.33 772.562 4289.25 768.285 4288.25C748.363 4283.86 735.736 4279.84 730.404 4276.21C723.021 4271.17 719.33 4264.17 719.33 4255.2C719.33 4247.12 722.523 4240.32 728.91 4234.81C735.297 4229.3 745.199 4226.55 758.617 4226.55C771.391 4226.55 780.883 4228.63 787.094 4232.79C793.305 4236.95 797.582 4243.1 799.926 4251.25L776.635 4255.55C775.639 4251.92 773.734 4249.14 770.922 4247.21C768.168 4245.27 764.213 4244.3 759.057 4244.3C752.553 4244.3 747.895 4245.21 745.082 4247.03C743.207 4248.32 742.27 4249.99 742.27 4252.04C742.27 4253.8 743.09 4255.29 744.73 4256.52C746.957 4258.16 754.633 4260.48 767.758 4263.46C780.941 4266.45 790.141 4270.12 795.355 4274.45C800.512 4278.85 803.09 4284.97 803.09 4292.82C803.09 4301.38 799.516 4308.73 792.367 4314.88C785.219 4321.03 774.643 4324.11 760.639 4324.11C747.924 4324.11 737.846 4321.53 730.404 4316.38C723.021 4311.22 718.188 4304.22 715.902 4295.37Z" fill="#FEFAFA"/>
<path d="M7.50391 4925.08L32.8164 4922.62C34.3398 4931.11 37.416 4937.35 42.0449 4941.34C46.7324 4945.32 53.0312 4947.31 60.9414 4947.31C69.3203 4947.31 75.6191 4945.55 79.8379 4942.04C84.1152 4938.46 86.2539 4934.3 86.2539 4929.56C86.2539 4926.51 85.3457 4923.93 83.5293 4921.82C81.7715 4919.66 78.666 4917.78 74.2129 4916.2C71.166 4915.14 64.2227 4913.27 53.3828 4910.57C39.4375 4907.12 29.6523 4902.87 24.0273 4897.83C16.1172 4890.74 12.1621 4882.1 12.1621 4871.9C12.1621 4865.34 14.0078 4859.22 17.6992 4853.53C21.4492 4847.79 26.8105 4843.43 33.7832 4840.44C40.8145 4837.45 49.2812 4835.96 59.1836 4835.96C75.3555 4835.96 87.5137 4839.5 95.6582 4846.59C103.861 4853.68 108.168 4863.14 108.578 4874.98L82.5625 4876.12C81.4492 4869.5 79.0469 4864.75 75.3555 4861.88C71.7227 4858.95 66.2441 4857.49 58.9199 4857.49C51.3613 4857.49 45.4434 4859.04 41.166 4862.15C38.4121 4864.14 37.0352 4866.8 37.0352 4870.14C37.0352 4873.19 38.3242 4875.8 40.9023 4877.97C44.1836 4880.72 52.1523 4883.59 64.8086 4886.58C77.4648 4889.57 86.8105 4892.67 92.8457 4895.9C98.9395 4899.06 103.686 4903.43 107.084 4908.99C110.541 4914.5 112.27 4921.33 112.27 4929.47C112.27 4936.85 110.219 4943.77 106.117 4950.21C102.016 4956.66 96.2148 4961.46 88.7148 4964.63C81.2148 4967.73 71.8691 4969.29 60.6777 4969.29C44.3887 4969.29 31.8789 4965.54 23.1484 4958.04C14.418 4950.48 9.20312 4939.49 7.50391 4925.08ZM133.275 4873.66H156.303V4887.37C159.291 4882.68 163.334 4878.88 168.432 4875.95C173.529 4873.02 179.184 4871.55 185.395 4871.55C196.234 4871.55 205.434 4875.8 212.992 4884.29C220.551 4892.79 224.33 4904.63 224.33 4919.8C224.33 4935.39 220.521 4947.52 212.904 4956.19C205.287 4964.8 196.059 4969.11 185.219 4969.11C180.062 4969.11 175.375 4968.08 171.156 4966.03C166.996 4963.98 162.602 4960.47 157.973 4955.49V5002.51H133.275V4873.66ZM157.709 4918.75C157.709 4929.24 159.789 4937 163.949 4942.04C168.109 4947.02 173.178 4949.51 179.154 4949.51C184.896 4949.51 189.672 4947.22 193.48 4942.65C197.289 4938.03 199.193 4930.47 199.193 4919.98C199.193 4910.19 197.23 4902.93 193.305 4898.18C189.379 4893.44 184.516 4891.06 178.715 4891.06C172.68 4891.06 167.67 4893.41 163.686 4898.09C159.701 4902.72 157.709 4909.61 157.709 4918.75ZM238.305 4919.01C238.305 4910.81 240.326 4902.87 244.369 4895.19C248.412 4887.52 254.125 4881.66 261.508 4877.62C268.949 4873.57 277.24 4871.55 286.381 4871.55C300.502 4871.55 312.074 4876.15 321.098 4885.35C330.121 4894.49 334.633 4906.06 334.633 4920.07C334.633 4934.19 330.062 4945.91 320.922 4955.22C311.84 4964.48 300.385 4969.11 286.557 4969.11C278.002 4969.11 269.828 4967.18 262.035 4963.31C254.301 4959.44 248.412 4953.79 244.369 4946.35C240.326 4938.85 238.305 4929.73 238.305 4919.01ZM263.617 4920.33C263.617 4929.59 265.814 4936.68 270.209 4941.6C274.604 4946.52 280.023 4948.98 286.469 4948.98C292.914 4948.98 298.305 4946.52 302.641 4941.6C307.035 4936.68 309.232 4929.53 309.232 4920.15C309.232 4911.01 307.035 4903.98 302.641 4899.06C298.305 4894.14 292.914 4891.68 286.469 4891.68C280.023 4891.68 274.604 4894.14 270.209 4899.06C265.814 4903.98 263.617 4911.07 263.617 4920.33ZM396.859 4873.66V4893.35H379.984V4930.96C379.984 4938.58 380.131 4943.04 380.424 4944.32C380.775 4945.55 381.508 4946.58 382.621 4947.4C383.793 4948.22 385.199 4948.63 386.84 4948.63C389.125 4948.63 392.436 4947.84 396.771 4946.26L398.881 4965.42C393.139 4967.88 386.635 4969.11 379.369 4969.11C374.916 4969.11 370.902 4968.38 367.328 4966.91C363.754 4965.39 361.117 4963.46 359.418 4961.11C357.777 4958.71 356.635 4955.49 355.99 4951.44C355.463 4948.57 355.199 4942.77 355.199 4934.04V4893.35H343.861V4873.66H355.199V4855.12L379.984 4840.7V4873.66H396.859ZM413.998 4967V4838.15H438.695V4967H413.998ZM464.096 4861V4838.15H488.793V4861H464.096ZM464.096 4967V4873.66H488.793V4967H464.096ZM511.908 4973.15L540.121 4976.58C540.59 4979.86 541.674 4982.12 543.373 4983.35C545.717 4985.11 549.408 4985.98 554.447 4985.98C560.893 4985.98 565.727 4985.02 568.949 4983.08C571.117 4981.79 572.758 4979.71 573.871 4976.84C574.633 4974.79 575.014 4971.01 575.014 4965.51V4951.88C567.631 4961.96 558.314 4967 547.064 4967C534.525 4967 524.594 4961.7 517.27 4951.09C511.527 4942.71 508.656 4932.28 508.656 4919.8C508.656 4904.16 512.406 4892.21 519.906 4883.94C527.465 4875.68 536.84 4871.55 548.031 4871.55C559.574 4871.55 569.096 4876.62 576.596 4886.76V4873.66H599.711V4957.42C599.711 4968.44 598.803 4976.67 596.986 4982.12C595.17 4987.57 592.621 4991.84 589.34 4994.95C586.059 4998.05 581.664 5000.49 576.156 5002.24C570.707 5004 563.793 5004.88 555.414 5004.88C539.594 5004.88 528.373 5002.16 521.752 4996.71C515.131 4991.32 511.82 4984.46 511.82 4976.14C511.82 4975.32 511.85 4974.32 511.908 4973.15ZM533.969 4918.4C533.969 4928.3 535.873 4935.56 539.682 4940.19C543.549 4944.76 548.295 4947.05 553.92 4947.05C559.955 4947.05 565.053 4944.71 569.213 4940.02C573.373 4935.27 575.453 4928.27 575.453 4919.01C575.453 4909.34 573.461 4902.17 569.477 4897.48C565.492 4892.79 560.453 4890.45 554.359 4890.45C548.441 4890.45 543.549 4892.76 539.682 4897.39C535.873 4901.96 533.969 4908.96 533.969 4918.4ZM648.842 4838.15V4885.53C656.811 4876.21 666.332 4871.55 677.406 4871.55C683.09 4871.55 688.217 4872.61 692.787 4874.71C697.357 4876.82 700.785 4879.52 703.07 4882.8C705.414 4886.08 706.996 4889.71 707.816 4893.7C708.695 4897.68 709.135 4903.87 709.135 4912.24V4967H684.438V4917.69C684.438 4907.91 683.969 4901.7 683.031 4899.06C682.094 4896.42 680.424 4894.34 678.021 4892.82C675.678 4891.24 672.719 4890.45 669.145 4890.45C665.043 4890.45 661.381 4891.44 658.158 4893.44C654.936 4895.43 652.562 4898.45 651.039 4902.49C649.574 4906.47 648.842 4912.39 648.842 4920.24V4967H624.145V4838.15H648.842ZM777.074 4873.66V4893.35H760.199V4930.96C760.199 4938.58 760.346 4943.04 760.639 4944.32C760.99 4945.55 761.723 4946.58 762.836 4947.4C764.008 4948.22 765.414 4948.63 767.055 4948.63C769.34 4948.63 772.65 4947.84 776.986 4946.26L779.096 4965.42C773.354 4967.88 766.85 4969.11 759.584 4969.11C755.131 4969.11 751.117 4968.38 747.543 4966.91C743.969 4965.39 741.332 4963.46 739.633 4961.11C737.992 4958.71 736.85 4955.49 736.205 4951.44C735.678 4948.57 735.414 4942.77 735.414 4934.04V4893.35H724.076V4873.66H735.414V4855.12L760.199 4840.7V4873.66H777.074Z" fill="#FEFAFA"/>
</svg>
