<svg width="2497" height="4548" viewBox="0 0 2497 4548" fill="none" xmlns="http://www.w3.org/2000/svg">
<path d="M108.799 311V183.207H134.814V289.291H199.502V311H108.799ZM212.246 263.012C212.246 254.809 214.268 246.869 218.311 239.193C222.354 231.518 228.066 225.658 235.449 221.615C242.891 217.572 251.182 215.551 260.322 215.551C274.443 215.551 286.016 220.15 295.039 229.35C304.062 238.49 308.574 250.062 308.574 264.066C308.574 278.188 304.004 289.906 294.863 299.223C285.781 308.48 274.326 313.109 260.498 313.109C251.943 313.109 243.77 311.176 235.977 307.309C228.242 303.441 222.354 297.787 218.311 290.346C214.268 282.846 212.246 273.734 212.246 263.012ZM237.559 264.33C237.559 273.588 239.756 280.678 244.15 285.6C248.545 290.521 253.965 292.982 260.41 292.982C266.855 292.982 272.246 290.521 276.582 285.6C280.977 280.678 283.174 273.529 283.174 264.154C283.174 255.014 280.977 247.982 276.582 243.061C272.246 238.139 266.855 235.678 260.41 235.678C253.965 235.678 248.545 238.139 244.15 243.061C239.756 247.982 237.559 255.072 237.559 264.33ZM319.297 284.369L344.082 280.59C345.137 285.395 347.275 289.057 350.498 291.576C353.721 294.037 358.232 295.268 364.033 295.268C370.42 295.268 375.225 294.096 378.447 291.752C380.615 290.111 381.699 287.914 381.699 285.16C381.699 283.285 381.113 281.732 379.941 280.502C378.711 279.33 375.957 278.246 371.68 277.25C351.758 272.855 339.131 268.842 333.799 265.209C326.416 260.17 322.725 253.168 322.725 244.203C322.725 236.117 325.918 229.32 332.305 223.812C338.691 218.305 348.594 215.551 362.012 215.551C374.785 215.551 384.277 217.631 390.488 221.791C396.699 225.951 400.977 232.104 403.32 240.248L380.029 244.555C379.033 240.922 377.129 238.139 374.316 236.205C371.562 234.271 367.607 233.305 362.451 233.305C355.947 233.305 351.289 234.213 348.477 236.029C346.602 237.318 345.664 238.988 345.664 241.039C345.664 242.797 346.484 244.291 348.125 245.521C350.352 247.162 358.027 249.477 371.152 252.465C384.336 255.453 393.535 259.115 398.75 263.451C403.906 267.846 406.484 273.969 406.484 281.82C406.484 290.375 402.91 297.729 395.762 303.881C388.613 310.033 378.037 313.109 364.033 313.109C351.318 313.109 341.24 310.531 333.799 305.375C326.416 300.219 321.582 293.217 319.297 284.369ZM473.193 247.367C473.193 234.242 475.156 223.227 479.082 214.32C482.012 207.758 485.996 201.869 491.035 196.654C496.133 191.439 501.699 187.572 507.734 185.053C515.762 181.654 525.02 179.955 535.508 179.955C554.492 179.955 569.668 185.844 581.035 197.621C592.461 209.398 598.174 225.775 598.174 246.752C598.174 267.553 592.52 283.842 581.211 295.619C569.902 307.338 554.785 313.197 535.859 313.197C516.699 313.197 501.465 307.367 490.156 295.707C478.848 283.988 473.193 267.875 473.193 247.367ZM500 246.488C500 261.078 503.369 272.152 510.107 279.711C516.846 287.211 525.4 290.961 535.771 290.961C546.143 290.961 554.639 287.24 561.26 279.799C567.939 272.299 571.279 261.078 571.279 246.137C571.279 231.371 568.027 220.355 561.523 213.09C555.078 205.824 546.494 202.191 535.771 202.191C525.049 202.191 516.406 205.883 509.844 213.266C503.281 220.59 500 231.664 500 246.488ZM618.389 311V182.152H643.086V311H618.389ZM694.15 311L656.533 217.66H682.461L700.039 265.297L705.137 281.205C706.484 277.162 707.334 274.496 707.686 273.207C708.506 270.57 709.385 267.934 710.322 265.297L728.076 217.66H753.477L716.387 311H694.15ZM768.682 205.004V182.152H793.379V205.004H768.682ZM768.682 311V217.66H793.379V311H768.682ZM904.385 311H881.445V297.289C877.637 302.621 873.125 306.605 867.91 309.242C862.754 311.82 857.539 313.109 852.266 313.109C841.543 313.109 832.344 308.803 824.668 300.189C817.051 291.518 813.242 279.447 813.242 263.979C813.242 248.158 816.963 236.146 824.404 227.943C831.846 219.682 841.25 215.551 852.617 215.551C863.047 215.551 872.07 219.887 879.688 228.559V182.152H904.385V311ZM838.467 262.309C838.467 272.27 839.844 279.477 842.598 283.93C846.582 290.375 852.148 293.598 859.297 293.598C864.98 293.598 869.814 291.195 873.799 286.391C877.783 281.527 879.775 274.291 879.775 264.682C879.775 253.959 877.842 246.254 873.975 241.566C870.107 236.82 865.156 234.447 859.121 234.447C853.262 234.447 848.34 236.791 844.355 241.479C840.43 246.107 838.467 253.051 838.467 262.309ZM947.275 246.137L924.863 242.094C927.383 233.07 931.719 226.391 937.871 222.055C944.023 217.719 953.164 215.551 965.293 215.551C976.309 215.551 984.512 216.869 989.902 219.506C995.293 222.084 999.072 225.395 1001.24 229.438C1003.47 233.422 1004.58 240.775 1004.58 251.498L1004.32 280.326C1004.32 288.529 1004.7 294.594 1005.46 298.52C1006.28 302.387 1007.77 306.547 1009.94 311H985.508C984.863 309.359 984.072 306.928 983.135 303.705C982.725 302.24 982.432 301.273 982.256 300.805C978.037 304.906 973.525 307.982 968.721 310.033C963.916 312.084 958.789 313.109 953.34 313.109C943.73 313.109 936.143 310.502 930.576 305.287C925.068 300.072 922.314 293.48 922.314 285.512C922.314 280.238 923.574 275.551 926.094 271.449C928.613 267.289 932.129 264.125 936.641 261.957C941.211 259.73 947.773 257.797 956.328 256.156C967.871 253.988 975.869 251.967 980.322 250.092V247.631C980.322 242.885 979.15 239.516 976.807 237.523C974.463 235.473 970.039 234.447 963.535 234.447C959.141 234.447 955.713 235.326 953.252 237.084C950.791 238.783 948.799 241.801 947.275 246.137ZM980.322 266.176C977.158 267.23 972.148 268.49 965.293 269.955C958.438 271.42 953.955 272.855 951.846 274.262C948.623 276.547 947.012 279.447 947.012 282.963C947.012 286.42 948.301 289.408 950.879 291.928C953.457 294.447 956.738 295.707 960.723 295.707C965.176 295.707 969.424 294.242 973.467 291.312C976.455 289.086 978.418 286.361 979.355 283.139C980 281.029 980.322 277.016 980.322 271.098V266.176ZM1114.62 311H1091.68V297.289C1087.87 302.621 1083.36 306.605 1078.14 309.242C1072.99 311.82 1067.77 313.109 1062.5 313.109C1051.78 313.109 1042.58 308.803 1034.9 300.189C1027.29 291.518 1023.48 279.447 1023.48 263.979C1023.48 248.158 1027.2 236.146 1034.64 227.943C1042.08 219.682 1051.48 215.551 1062.85 215.551C1073.28 215.551 1082.3 219.887 1089.92 228.559V182.152H1114.62V311ZM1048.7 262.309C1048.7 272.27 1050.08 279.477 1052.83 283.93C1056.82 290.375 1062.38 293.598 1069.53 293.598C1075.21 293.598 1080.05 291.195 1084.03 286.391C1088.02 281.527 1090.01 274.291 1090.01 264.682C1090.01 253.959 1088.08 246.254 1084.21 241.566C1080.34 236.82 1075.39 234.447 1069.36 234.447C1063.5 234.447 1058.57 236.791 1054.59 241.479C1050.66 246.107 1048.7 253.051 1048.7 262.309ZM1133.34 263.012C1133.34 254.809 1135.36 246.869 1139.4 239.193C1143.45 231.518 1149.16 225.658 1156.54 221.615C1163.98 217.572 1172.28 215.551 1181.42 215.551C1195.54 215.551 1207.11 220.15 1216.13 229.35C1225.16 238.49 1229.67 250.062 1229.67 264.066C1229.67 278.188 1225.1 289.906 1215.96 299.223C1206.88 308.48 1195.42 313.109 1181.59 313.109C1173.04 313.109 1164.86 311.176 1157.07 307.309C1149.34 303.441 1143.45 297.787 1139.4 290.346C1135.36 282.846 1133.34 273.734 1133.34 263.012ZM1158.65 264.33C1158.65 273.588 1160.85 280.678 1165.24 285.6C1169.64 290.521 1175.06 292.982 1181.5 292.982C1187.95 292.982 1193.34 290.521 1197.68 285.6C1202.07 280.678 1204.27 273.529 1204.27 264.154C1204.27 255.014 1202.07 247.982 1197.68 243.061C1193.34 238.139 1187.95 235.678 1181.5 235.678C1175.06 235.678 1169.64 238.139 1165.24 243.061C1160.85 247.982 1158.65 255.072 1158.65 264.33ZM1240.39 284.369L1265.18 280.59C1266.23 285.395 1268.37 289.057 1271.59 291.576C1274.81 294.037 1279.33 295.268 1285.13 295.268C1291.51 295.268 1296.32 294.096 1299.54 291.752C1301.71 290.111 1302.79 287.914 1302.79 285.16C1302.79 283.285 1302.21 281.732 1301.04 280.502C1299.8 279.33 1297.05 278.246 1292.77 277.25C1272.85 272.855 1260.22 268.842 1254.89 265.209C1247.51 260.17 1243.82 253.168 1243.82 244.203C1243.82 236.117 1247.01 229.32 1253.4 223.812C1259.79 218.305 1269.69 215.551 1283.11 215.551C1295.88 215.551 1305.37 217.631 1311.58 221.791C1317.79 225.951 1322.07 232.104 1324.41 240.248L1301.12 244.555C1300.13 240.922 1298.22 238.139 1295.41 236.205C1292.66 234.271 1288.7 233.305 1283.54 233.305C1277.04 233.305 1272.38 234.213 1269.57 236.029C1267.7 237.318 1266.76 238.988 1266.76 241.039C1266.76 242.797 1267.58 244.291 1269.22 245.521C1271.45 247.162 1279.12 249.477 1292.25 252.465C1305.43 255.453 1314.63 259.115 1319.84 263.451C1325 267.846 1327.58 273.969 1327.58 281.82C1327.58 290.375 1324 297.729 1316.86 303.881C1309.71 310.033 1299.13 313.109 1285.13 313.109C1272.41 313.109 1262.33 310.531 1254.89 305.375C1247.51 300.219 1242.68 293.217 1240.39 284.369Z" fill="#FEFAFA"/>
<path d="M72.1836 962V833.152H126.939C140.709 833.152 150.699 834.324 156.91 836.668C163.18 838.953 168.189 843.055 171.939 848.973C175.689 854.891 177.564 861.658 177.564 869.275C177.564 878.943 174.723 886.941 169.039 893.27C163.355 899.539 154.859 903.494 143.551 905.135C149.176 908.416 153.805 912.02 157.438 915.945C161.129 919.871 166.08 926.844 172.291 936.863L188.023 962H156.91L138.102 933.963C131.422 923.943 126.852 917.645 124.391 915.066C121.93 912.43 119.322 910.643 116.568 909.705C113.814 908.709 109.449 908.211 103.473 908.211H98.1992V962H72.1836ZM98.1992 887.645H117.447C129.928 887.645 137.721 887.117 140.826 886.062C143.932 885.008 146.363 883.191 148.121 880.613C149.879 878.035 150.758 874.812 150.758 870.945C150.758 866.609 149.586 863.123 147.242 860.486C144.957 857.791 141.705 856.092 137.486 855.389C135.377 855.096 129.049 854.949 118.502 854.949H98.1992V887.645ZM196.285 914.012C196.285 905.809 198.307 897.869 202.35 890.193C206.393 882.518 212.105 876.658 219.488 872.615C226.93 868.572 235.221 866.551 244.361 866.551C258.482 866.551 270.055 871.15 279.078 880.35C288.102 889.49 292.613 901.062 292.613 915.066C292.613 929.188 288.043 940.906 278.902 950.223C269.82 959.48 258.365 964.109 244.537 964.109C235.982 964.109 227.809 962.176 220.016 958.309C212.281 954.441 206.393 948.787 202.35 941.346C198.307 933.846 196.285 924.734 196.285 914.012ZM221.598 915.33C221.598 924.588 223.795 931.678 228.189 936.6C232.584 941.521 238.004 943.982 244.449 943.982C250.895 943.982 256.285 941.521 260.621 936.6C265.016 931.678 267.213 924.529 267.213 915.154C267.213 906.014 265.016 898.982 260.621 894.061C256.285 889.139 250.895 886.678 244.449 886.678C238.004 886.678 232.584 889.139 228.189 894.061C223.795 898.982 221.598 906.072 221.598 915.33ZM303.336 935.369L328.121 931.59C329.176 936.395 331.314 940.057 334.537 942.576C337.76 945.037 342.271 946.268 348.072 946.268C354.459 946.268 359.264 945.096 362.486 942.752C364.654 941.111 365.738 938.914 365.738 936.16C365.738 934.285 365.152 932.732 363.98 931.502C362.75 930.33 359.996 929.246 355.719 928.25C335.797 923.855 323.17 919.842 317.838 916.209C310.455 911.17 306.764 904.168 306.764 895.203C306.764 887.117 309.957 880.32 316.344 874.812C322.73 869.305 332.633 866.551 346.051 866.551C358.824 866.551 368.316 868.631 374.527 872.791C380.738 876.951 385.016 883.104 387.359 891.248L364.068 895.555C363.072 891.922 361.168 889.139 358.355 887.205C355.602 885.271 351.646 884.305 346.49 884.305C339.986 884.305 335.328 885.213 332.516 887.029C330.641 888.318 329.703 889.988 329.703 892.039C329.703 893.797 330.523 895.291 332.164 896.521C334.391 898.162 342.066 900.477 355.191 903.465C368.375 906.453 377.574 910.115 382.789 914.451C387.945 918.846 390.523 924.969 390.523 932.82C390.523 941.375 386.949 948.729 379.801 954.881C372.652 961.033 362.076 964.109 348.072 964.109C335.357 964.109 325.279 961.531 317.838 956.375C310.455 951.219 305.621 944.217 303.336 935.369ZM466.285 932.293L490.895 936.424C487.73 945.447 482.721 952.332 475.865 957.078C469.068 961.766 460.543 964.109 450.289 964.109C434.059 964.109 422.047 958.807 414.254 948.201C408.102 939.705 405.025 928.982 405.025 916.033C405.025 900.564 409.068 888.465 417.154 879.734C425.24 870.945 435.465 866.551 447.828 866.551C461.715 866.551 472.672 871.15 480.699 880.35C488.727 889.49 492.564 903.523 492.213 922.449H430.338C430.514 929.773 432.506 935.486 436.314 939.588C440.123 943.631 444.869 945.652 450.553 945.652C454.42 945.652 457.672 944.598 460.309 942.488C462.945 940.379 464.938 936.98 466.285 932.293ZM467.691 907.332C467.516 900.184 465.67 894.764 462.154 891.072C458.639 887.322 454.361 885.447 449.322 885.447C443.932 885.447 439.479 887.41 435.963 891.336C432.447 895.262 430.719 900.594 430.777 907.332H467.691ZM510.582 868.66H533.346V881.404C541.49 871.502 551.188 866.551 562.438 866.551C568.414 866.551 573.6 867.781 577.994 870.242C582.389 872.703 585.992 876.424 588.805 881.404C592.906 876.424 597.33 872.703 602.076 870.242C606.822 867.781 611.891 866.551 617.281 866.551C624.137 866.551 629.938 867.957 634.684 870.77C639.43 873.523 642.975 877.596 645.318 882.986C647.018 886.971 647.867 893.416 647.867 902.322V962H623.17V908.65C623.17 899.393 622.32 893.416 620.621 890.721C618.336 887.205 614.82 885.447 610.074 885.447C606.617 885.447 603.365 886.502 600.318 888.611C597.271 890.721 595.074 893.826 593.727 897.928C592.379 901.971 591.705 908.387 591.705 917.176V962H567.008V910.848C567.008 901.766 566.568 895.906 565.689 893.27C564.811 890.633 563.434 888.67 561.559 887.381C559.742 886.092 557.252 885.447 554.088 885.447C550.279 885.447 546.852 886.473 543.805 888.523C540.758 890.574 538.561 893.533 537.213 897.4C535.924 901.268 535.279 907.684 535.279 916.648V962H510.582V868.66ZM691.021 897.137L668.609 893.094C671.129 884.07 675.465 877.391 681.617 873.055C687.77 868.719 696.91 866.551 709.039 866.551C720.055 866.551 728.258 867.869 733.648 870.506C739.039 873.084 742.818 876.395 744.986 880.438C747.213 884.422 748.326 891.775 748.326 902.498L748.062 931.326C748.062 939.529 748.443 945.594 749.205 949.52C750.025 953.387 751.52 957.547 753.688 962H729.254C728.609 960.359 727.818 957.928 726.881 954.705C726.471 953.24 726.178 952.273 726.002 951.805C721.783 955.906 717.271 958.982 712.467 961.033C707.662 963.084 702.535 964.109 697.086 964.109C687.477 964.109 679.889 961.502 674.322 956.287C668.814 951.072 666.061 944.48 666.061 936.512C666.061 931.238 667.32 926.551 669.84 922.449C672.359 918.289 675.875 915.125 680.387 912.957C684.957 910.73 691.52 908.797 700.074 907.156C711.617 904.988 719.615 902.967 724.068 901.092V898.631C724.068 893.885 722.896 890.516 720.553 888.523C718.209 886.473 713.785 885.447 707.281 885.447C702.887 885.447 699.459 886.326 696.998 888.084C694.537 889.783 692.545 892.801 691.021 897.137ZM724.068 917.176C720.904 918.23 715.895 919.49 709.039 920.955C702.184 922.42 697.701 923.855 695.592 925.262C692.369 927.547 690.758 930.447 690.758 933.963C690.758 937.42 692.047 940.408 694.625 942.928C697.203 945.447 700.484 946.707 704.469 946.707C708.922 946.707 713.17 945.242 717.213 942.312C720.201 940.086 722.164 937.361 723.102 934.139C723.746 932.029 724.068 928.016 724.068 922.098V917.176ZM796.402 962H771.705V868.66H794.645V881.932C798.57 875.662 802.086 871.531 805.191 869.539C808.355 867.547 811.93 866.551 815.914 866.551C821.539 866.551 826.959 868.104 832.174 871.209L824.527 892.742C820.367 890.047 816.5 888.699 812.926 888.699C809.469 888.699 806.539 889.666 804.137 891.6C801.734 893.475 799.83 896.902 798.424 901.883C797.076 906.863 796.402 917.293 796.402 933.172V962ZM831.207 868.66H857.486L879.811 934.93L901.607 868.66H927.184L894.225 958.484L888.336 974.744C886.168 980.193 884.088 984.354 882.096 987.225C880.162 990.096 877.906 992.41 875.328 994.168C872.809 995.984 869.674 997.391 865.924 998.387C862.232 999.383 858.043 999.881 853.355 999.881C848.609 999.881 843.951 999.383 839.381 998.387L837.184 979.051C841.051 979.812 844.537 980.193 847.643 980.193C853.385 980.193 857.633 978.494 860.387 975.096C863.141 971.756 865.25 967.479 866.715 962.264L831.207 868.66ZM942.916 878.943L938.258 854.949V833.152H965.152V854.949L961.109 878.943H942.916ZM977.281 935.369L1002.07 931.59C1003.12 936.395 1005.26 940.057 1008.48 942.576C1011.71 945.037 1016.22 946.268 1022.02 946.268C1028.4 946.268 1033.21 945.096 1036.43 942.752C1038.6 941.111 1039.68 938.914 1039.68 936.16C1039.68 934.285 1039.1 932.732 1037.93 931.502C1036.7 930.33 1033.94 929.246 1029.66 928.25C1009.74 923.855 997.115 919.842 991.783 916.209C984.4 911.17 980.709 904.168 980.709 895.203C980.709 887.117 983.902 880.32 990.289 874.812C996.676 869.305 1006.58 866.551 1020 866.551C1032.77 866.551 1042.26 868.631 1048.47 872.791C1054.68 876.951 1058.96 883.104 1061.3 891.248L1038.01 895.555C1037.02 891.922 1035.11 889.139 1032.3 887.205C1029.55 885.271 1025.59 884.305 1020.44 884.305C1013.93 884.305 1009.27 885.213 1006.46 887.029C1004.59 888.318 1003.65 889.988 1003.65 892.039C1003.65 893.797 1004.47 895.291 1006.11 896.521C1008.34 898.162 1016.01 900.477 1029.14 903.465C1042.32 906.453 1051.52 910.115 1056.73 914.451C1061.89 918.846 1064.47 924.969 1064.47 932.82C1064.47 941.375 1060.89 948.729 1053.75 954.881C1046.6 961.033 1036.02 964.109 1022.02 964.109C1009.3 964.109 999.225 961.531 991.783 956.375C984.4 951.219 979.566 944.217 977.281 935.369ZM1136.54 833.152H1188.04C1198.24 833.152 1205.83 833.592 1210.81 834.471C1215.85 835.291 1220.33 837.049 1224.25 839.744C1228.24 842.439 1231.55 846.043 1234.19 850.555C1236.82 855.008 1238.14 860.018 1238.14 865.584C1238.14 871.619 1236.5 877.156 1233.22 882.195C1230 887.234 1225.6 891.014 1220.04 893.533C1227.89 895.818 1233.92 899.715 1238.14 905.223C1242.36 910.73 1244.47 917.205 1244.47 924.646C1244.47 930.506 1243.09 936.219 1240.34 941.785C1237.64 947.293 1233.92 951.717 1229.18 955.057C1224.49 958.338 1218.69 960.359 1211.77 961.121C1207.44 961.59 1196.98 961.883 1180.4 962H1136.54V833.152ZM1162.55 854.598V884.393H1179.61C1189.74 884.393 1196.04 884.246 1198.5 883.953C1202.96 883.426 1206.44 881.902 1208.96 879.383C1211.54 876.805 1212.83 873.436 1212.83 869.275C1212.83 865.291 1211.71 862.068 1209.49 859.607C1207.32 857.088 1204.07 855.564 1199.73 855.037C1197.15 854.744 1189.74 854.598 1177.5 854.598H1162.55ZM1162.55 905.838V940.291H1186.64C1196.01 940.291 1201.96 940.027 1204.48 939.5C1208.35 938.797 1211.48 937.098 1213.88 934.402C1216.34 931.648 1217.57 927.986 1217.57 923.416C1217.57 919.549 1216.64 916.268 1214.76 913.572C1212.89 910.877 1210.16 908.914 1206.59 907.684C1203.07 906.453 1195.4 905.838 1183.56 905.838H1162.55ZM1284.81 897.137L1262.4 893.094C1264.92 884.07 1269.25 877.391 1275.41 873.055C1281.56 868.719 1290.7 866.551 1302.83 866.551C1313.84 866.551 1322.05 867.869 1327.44 870.506C1332.83 873.084 1336.61 876.395 1338.78 880.438C1341 884.422 1342.12 891.775 1342.12 902.498L1341.85 931.326C1341.85 939.529 1342.23 945.594 1342.99 949.52C1343.81 953.387 1345.31 957.547 1347.48 962H1323.04C1322.4 960.359 1321.61 957.928 1320.67 954.705C1320.26 953.24 1319.97 952.273 1319.79 951.805C1315.57 955.906 1311.06 958.982 1306.26 961.033C1301.45 963.084 1296.32 964.109 1290.88 964.109C1281.27 964.109 1273.68 961.502 1268.11 956.287C1262.6 951.072 1259.85 944.48 1259.85 936.512C1259.85 931.238 1261.11 926.551 1263.63 922.449C1266.15 918.289 1269.66 915.125 1274.18 912.957C1278.75 910.73 1285.31 908.797 1293.86 907.156C1305.41 904.988 1313.4 902.967 1317.86 901.092V898.631C1317.86 893.885 1316.69 890.516 1314.34 888.523C1312 886.473 1307.57 885.447 1301.07 885.447C1296.68 885.447 1293.25 886.326 1290.79 888.084C1288.33 889.783 1286.33 892.801 1284.81 897.137ZM1317.86 917.176C1314.69 918.23 1309.68 919.49 1302.83 920.955C1295.97 922.42 1291.49 923.855 1289.38 925.262C1286.16 927.547 1284.55 930.447 1284.55 933.963C1284.55 937.42 1285.84 940.408 1288.41 942.928C1290.99 945.447 1294.27 946.707 1298.26 946.707C1302.71 946.707 1306.96 945.242 1311 942.312C1313.99 940.086 1315.95 937.361 1316.89 934.139C1317.54 932.029 1317.86 928.016 1317.86 922.098V917.176ZM1365.49 962V833.152H1390.19V879.559C1397.81 870.887 1406.83 866.551 1417.26 866.551C1428.63 866.551 1438.03 870.682 1445.47 878.943C1452.92 887.146 1456.64 898.953 1456.64 914.363C1456.64 930.301 1452.83 942.576 1445.21 951.189C1437.65 959.803 1428.45 964.109 1417.61 964.109C1412.28 964.109 1407.01 962.791 1401.79 960.154C1396.64 957.459 1392.18 953.504 1388.43 948.289V962H1365.49ZM1390.02 913.309C1390.02 922.977 1391.54 930.125 1394.59 934.754C1398.86 941.316 1404.55 944.598 1411.64 944.598C1417.09 944.598 1421.71 942.283 1425.52 937.654C1429.39 932.967 1431.32 925.613 1431.32 915.594C1431.32 904.93 1429.39 897.254 1425.52 892.566C1421.66 887.82 1416.71 885.447 1410.67 885.447C1404.75 885.447 1399.83 887.762 1395.9 892.391C1391.98 896.961 1390.02 903.934 1390.02 913.309ZM1464.9 868.66H1491.18L1513.5 934.93L1535.3 868.66H1560.88L1527.92 958.484L1522.03 974.744C1519.86 980.193 1517.78 984.354 1515.79 987.225C1513.85 990.096 1511.6 992.41 1509.02 994.168C1506.5 995.984 1503.37 997.391 1499.62 998.387C1495.92 999.383 1491.73 999.881 1487.05 999.881C1482.3 999.881 1477.64 999.383 1473.07 998.387L1470.88 979.051C1474.74 979.812 1478.23 980.193 1481.33 980.193C1487.08 980.193 1491.32 978.494 1494.08 975.096C1496.83 971.756 1498.94 967.479 1500.41 962.264L1464.9 868.66Z" fill="#FEFAFA"/>
<path d="M101.1 1682V1574.95H62.8672V1553.15H165.26V1574.95H127.115V1682H101.1ZM206.568 1553.15V1600.53C214.537 1591.21 224.059 1586.55 235.133 1586.55C240.816 1586.55 245.943 1587.61 250.514 1589.71C255.084 1591.82 258.512 1594.52 260.797 1597.8C263.141 1601.08 264.723 1604.71 265.543 1608.7C266.422 1612.68 266.861 1618.87 266.861 1627.24V1682H242.164V1632.69C242.164 1622.91 241.695 1616.7 240.758 1614.06C239.82 1611.42 238.15 1609.34 235.748 1607.82C233.404 1606.24 230.445 1605.45 226.871 1605.45C222.77 1605.45 219.107 1606.44 215.885 1608.44C212.662 1610.43 210.289 1613.45 208.766 1617.49C207.301 1621.47 206.568 1627.39 206.568 1635.24V1682H181.871V1553.15H206.568ZM346.051 1652.29L370.66 1656.42C367.496 1665.45 362.486 1672.33 355.631 1677.08C348.834 1681.77 340.309 1684.11 330.055 1684.11C313.824 1684.11 301.812 1678.81 294.02 1668.2C287.867 1659.71 284.791 1648.98 284.791 1636.03C284.791 1620.56 288.834 1608.46 296.92 1599.73C305.006 1590.95 315.23 1586.55 327.594 1586.55C341.48 1586.55 352.438 1591.15 360.465 1600.35C368.492 1609.49 372.33 1623.52 371.979 1642.45H310.104C310.279 1649.77 312.271 1655.49 316.08 1659.59C319.889 1663.63 324.635 1665.65 330.318 1665.65C334.186 1665.65 337.438 1664.6 340.074 1662.49C342.711 1660.38 344.703 1656.98 346.051 1652.29ZM347.457 1627.33C347.281 1620.18 345.436 1614.76 341.92 1611.07C338.404 1607.32 334.127 1605.45 329.088 1605.45C323.697 1605.45 319.244 1607.41 315.729 1611.34C312.213 1615.26 310.484 1620.59 310.543 1627.33H347.457ZM442.467 1682V1553.15H538.004V1574.95H468.482V1603.51H533.17V1625.22H468.482V1660.29H540.465V1682H442.467ZM550.484 1682L584.146 1633.92L551.891 1588.66H582.037L598.561 1614.32L615.963 1588.66H644.967L613.326 1632.87L647.867 1682H617.545L598.561 1653.08L579.4 1682H550.484ZM656.832 1634.01C656.832 1625.81 658.854 1617.87 662.896 1610.19C666.939 1602.52 672.652 1596.66 680.035 1592.62C687.477 1588.57 695.768 1586.55 704.908 1586.55C719.029 1586.55 730.602 1591.15 739.625 1600.35C748.648 1609.49 753.16 1621.06 753.16 1635.07C753.16 1649.19 748.59 1660.91 739.449 1670.22C730.367 1679.48 718.912 1684.11 705.084 1684.11C696.529 1684.11 688.355 1682.18 680.562 1678.31C672.828 1674.44 666.939 1668.79 662.896 1661.35C658.854 1653.85 656.832 1644.73 656.832 1634.01ZM682.145 1635.33C682.145 1644.59 684.342 1651.68 688.736 1656.6C693.131 1661.52 698.551 1663.98 704.996 1663.98C711.441 1663.98 716.832 1661.52 721.168 1656.6C725.562 1651.68 727.76 1644.53 727.76 1635.15C727.76 1626.01 725.562 1618.98 721.168 1614.06C716.832 1609.14 711.441 1606.68 704.996 1606.68C698.551 1606.68 693.131 1609.14 688.736 1614.06C684.342 1618.98 682.145 1626.07 682.145 1635.33ZM796.227 1682H771.529V1588.66H794.469V1601.93C798.395 1595.66 801.91 1591.53 805.016 1589.54C808.18 1587.55 811.754 1586.55 815.738 1586.55C821.363 1586.55 826.783 1588.1 831.998 1591.21L824.352 1612.74C820.191 1610.05 816.324 1608.7 812.75 1608.7C809.293 1608.7 806.363 1609.67 803.961 1611.6C801.559 1613.47 799.654 1616.9 798.248 1621.88C796.9 1626.86 796.227 1637.29 796.227 1653.17V1682ZM924.107 1616.26L899.762 1620.65C898.941 1615.79 897.066 1612.13 894.137 1609.67C891.266 1607.21 887.516 1605.97 882.887 1605.97C876.734 1605.97 871.812 1608.11 868.121 1612.39C864.488 1616.61 862.672 1623.7 862.672 1633.66C862.672 1644.73 864.518 1652.56 868.209 1657.13C871.959 1661.7 876.969 1663.98 883.238 1663.98C887.926 1663.98 891.764 1662.66 894.752 1660.03C897.74 1657.33 899.85 1652.73 901.08 1646.23L925.338 1650.36C922.818 1661.49 917.984 1669.9 910.836 1675.58C903.688 1681.27 894.107 1684.11 882.096 1684.11C868.443 1684.11 857.545 1679.8 849.4 1671.19C841.314 1662.58 837.271 1650.65 837.271 1635.42C837.271 1620.01 841.344 1608.03 849.488 1599.47C857.633 1590.86 868.648 1586.55 882.535 1586.55C893.902 1586.55 902.926 1589.01 909.605 1593.93C916.344 1598.8 921.178 1606.24 924.107 1616.26ZM942.916 1576V1553.15H967.613V1576H942.916ZM942.916 1682V1588.66H967.613V1682H942.916ZM984.312 1655.37L1009.1 1651.59C1010.15 1656.39 1012.29 1660.06 1015.51 1662.58C1018.74 1665.04 1023.25 1666.27 1029.05 1666.27C1035.44 1666.27 1040.24 1665.1 1043.46 1662.75C1045.63 1661.11 1046.71 1658.91 1046.71 1656.16C1046.71 1654.29 1046.13 1652.73 1044.96 1651.5C1043.73 1650.33 1040.97 1649.25 1036.7 1648.25C1016.77 1643.86 1004.15 1639.84 998.814 1636.21C991.432 1631.17 987.74 1624.17 987.74 1615.2C987.74 1607.12 990.934 1600.32 997.32 1594.81C1003.71 1589.3 1013.61 1586.55 1027.03 1586.55C1039.8 1586.55 1049.29 1588.63 1055.5 1592.79C1061.71 1596.95 1065.99 1603.1 1068.34 1611.25L1045.04 1615.55C1044.05 1611.92 1042.14 1609.14 1039.33 1607.21C1036.58 1605.27 1032.62 1604.3 1027.47 1604.3C1020.96 1604.3 1016.3 1605.21 1013.49 1607.03C1011.62 1608.32 1010.68 1609.99 1010.68 1612.04C1010.68 1613.8 1011.5 1615.29 1013.14 1616.52C1015.37 1618.16 1023.04 1620.48 1036.17 1623.46C1049.35 1626.45 1058.55 1630.12 1063.77 1634.45C1068.92 1638.85 1071.5 1644.97 1071.5 1652.82C1071.5 1661.38 1067.93 1668.73 1060.78 1674.88C1053.63 1681.03 1043.05 1684.11 1029.05 1684.11C1016.33 1684.11 1006.26 1681.53 998.814 1676.38C991.432 1671.22 986.598 1664.22 984.312 1655.37ZM1136.01 1588.66V1608.35H1119.14V1645.96C1119.14 1653.58 1119.28 1658.04 1119.58 1659.32C1119.93 1660.55 1120.66 1661.58 1121.77 1662.4C1122.95 1663.22 1124.35 1663.63 1125.99 1663.63C1128.28 1663.63 1131.59 1662.84 1135.92 1661.26L1138.03 1680.42C1132.29 1682.88 1125.79 1684.11 1118.52 1684.11C1114.07 1684.11 1110.05 1683.38 1106.48 1681.91C1102.91 1680.39 1100.27 1678.46 1098.57 1676.11C1096.93 1673.71 1095.79 1670.49 1095.14 1666.44C1094.62 1663.57 1094.35 1657.77 1094.35 1649.04V1608.35H1083.01V1588.66H1094.35V1570.12L1119.14 1555.7V1588.66H1136.01Z" fill="#FEFAFA"/>
<path d="M129.287 2359H100.986L89.7363 2329.73H38.2324L27.5977 2359H0L50.1855 2230.15H77.6953L129.287 2359ZM81.3867 2308.02L63.6328 2260.21L46.2305 2308.02H81.3867ZM186.68 2230.15H238.184C248.379 2230.15 255.967 2230.59 260.947 2231.47C265.986 2232.29 270.469 2234.05 274.395 2236.74C278.379 2239.44 281.689 2243.04 284.326 2247.55C286.963 2252.01 288.281 2257.02 288.281 2262.58C288.281 2268.62 286.641 2274.16 283.359 2279.2C280.137 2284.23 275.742 2288.01 270.176 2290.53C278.027 2292.82 284.062 2296.71 288.281 2302.22C292.5 2307.73 294.609 2314.21 294.609 2321.65C294.609 2327.51 293.232 2333.22 290.479 2338.79C287.783 2344.29 284.062 2348.72 279.316 2352.06C274.629 2355.34 268.828 2357.36 261.914 2358.12C257.578 2358.59 247.119 2358.88 230.537 2359H186.68V2230.15ZM212.695 2251.6V2281.39H229.746C239.883 2281.39 246.182 2281.25 248.643 2280.95C253.096 2280.43 256.582 2278.9 259.102 2276.38C261.68 2273.8 262.969 2270.44 262.969 2266.28C262.969 2262.29 261.855 2259.07 259.629 2256.61C257.461 2254.09 254.209 2252.56 249.873 2252.04C247.295 2251.74 239.883 2251.6 227.637 2251.6H212.695ZM212.695 2302.84V2337.29H236.777C246.152 2337.29 252.1 2337.03 254.619 2336.5C258.486 2335.8 261.621 2334.1 264.023 2331.4C266.484 2328.65 267.715 2324.99 267.715 2320.42C267.715 2316.55 266.777 2313.27 264.902 2310.57C263.027 2307.88 260.303 2305.91 256.729 2304.68C253.213 2303.45 245.537 2302.84 233.701 2302.84H212.695ZM316.494 2253V2230.15H341.191V2253H316.494ZM316.494 2359V2265.66H341.191V2359H316.494ZM366.592 2359V2230.15H391.289V2359H366.592ZM416.689 2359V2230.15H441.387V2359H416.689ZM511.172 2311.01C511.172 2302.81 513.193 2294.87 517.236 2287.19C521.279 2279.52 526.992 2273.66 534.375 2269.62C541.816 2265.57 550.107 2263.55 559.248 2263.55C573.369 2263.55 584.941 2268.15 593.965 2277.35C602.988 2286.49 607.5 2298.06 607.5 2312.07C607.5 2326.19 602.93 2337.91 593.789 2347.22C584.707 2356.48 573.252 2361.11 559.424 2361.11C550.869 2361.11 542.695 2359.18 534.902 2355.31C527.168 2351.44 521.279 2345.79 517.236 2338.35C513.193 2330.85 511.172 2321.73 511.172 2311.01ZM536.484 2312.33C536.484 2321.59 538.682 2328.68 543.076 2333.6C547.471 2338.52 552.891 2340.98 559.336 2340.98C565.781 2340.98 571.172 2338.52 575.508 2333.6C579.902 2328.68 582.1 2321.53 582.1 2312.15C582.1 2303.01 579.902 2295.98 575.508 2291.06C571.172 2286.14 565.781 2283.68 559.336 2283.68C552.891 2283.68 547.471 2286.14 543.076 2291.06C538.682 2295.98 536.484 2303.07 536.484 2312.33ZM616.113 2265.66H629.824V2258.63C629.824 2250.78 630.645 2244.92 632.285 2241.05C633.984 2237.18 637.061 2234.05 641.514 2231.65C646.025 2229.19 651.709 2227.96 658.564 2227.96C665.596 2227.96 672.48 2229.01 679.219 2231.12L675.879 2248.35C671.953 2247.41 668.174 2246.94 664.541 2246.94C660.967 2246.94 658.389 2247.79 656.807 2249.49C655.283 2251.13 654.521 2254.32 654.521 2259.07V2265.66H672.979V2285.08H654.521V2359H629.824V2285.08H616.113V2265.66ZM737.051 2230.15H784.6C795.322 2230.15 803.496 2230.97 809.121 2232.61C816.68 2234.84 823.154 2238.79 828.545 2244.48C833.936 2250.16 838.037 2257.13 840.85 2265.4C843.662 2273.6 845.068 2283.74 845.068 2295.81C845.068 2306.41 843.75 2315.55 841.113 2323.23C837.891 2332.6 833.291 2340.19 827.314 2345.99C822.803 2350.39 816.709 2353.81 809.033 2356.28C803.291 2358.09 795.615 2359 786.006 2359H737.051V2230.15ZM763.066 2251.95V2337.29H782.49C789.756 2337.29 795 2336.88 798.223 2336.06C802.441 2335.01 805.928 2333.22 808.682 2330.7C811.494 2328.18 813.779 2324.05 815.537 2318.31C817.295 2312.51 818.174 2304.62 818.174 2294.66C818.174 2284.7 817.295 2277.06 815.537 2271.72C813.779 2266.39 811.318 2262.23 808.154 2259.24C804.99 2256.26 800.977 2254.23 796.113 2253.18C792.48 2252.36 785.361 2251.95 774.756 2251.95H763.066ZM867.041 2253V2230.15H891.738V2253H867.041ZM867.041 2359V2265.66H891.738V2359H867.041ZM942.803 2359L905.186 2265.66H931.113L948.691 2313.3L953.789 2329.21C955.137 2325.16 955.986 2322.5 956.338 2321.21C957.158 2318.57 958.037 2315.93 958.975 2313.3L976.729 2265.66H1002.13L965.039 2359H942.803ZM1011.62 2311.01C1011.62 2302.81 1013.64 2294.87 1017.69 2287.19C1021.73 2279.52 1027.44 2273.66 1034.82 2269.62C1042.27 2265.57 1050.56 2263.55 1059.7 2263.55C1073.82 2263.55 1085.39 2268.15 1094.41 2277.35C1103.44 2286.49 1107.95 2298.06 1107.95 2312.07C1107.95 2326.19 1103.38 2337.91 1094.24 2347.22C1085.16 2356.48 1073.7 2361.11 1059.87 2361.11C1051.32 2361.11 1043.14 2359.18 1035.35 2355.31C1027.62 2351.44 1021.73 2345.79 1017.69 2338.35C1013.64 2330.85 1011.62 2321.73 1011.62 2311.01ZM1036.93 2312.33C1036.93 2321.59 1039.13 2328.68 1043.53 2333.6C1047.92 2338.52 1053.34 2340.98 1059.79 2340.98C1066.23 2340.98 1071.62 2338.52 1075.96 2333.6C1080.35 2328.68 1082.55 2321.53 1082.55 2312.15C1082.55 2303.01 1080.35 2295.98 1075.96 2291.06C1071.62 2286.14 1066.23 2283.68 1059.79 2283.68C1053.34 2283.68 1047.92 2286.14 1043.53 2291.06C1039.13 2295.98 1036.93 2303.07 1036.93 2312.33ZM1151.02 2359H1126.32V2265.66H1149.26V2278.93C1153.18 2272.66 1156.7 2268.53 1159.8 2266.54C1162.97 2264.55 1166.54 2263.55 1170.53 2263.55C1176.15 2263.55 1181.57 2265.1 1186.79 2268.21L1179.14 2289.74C1174.98 2287.05 1171.11 2285.7 1167.54 2285.7C1164.08 2285.7 1161.15 2286.67 1158.75 2288.6C1156.35 2290.47 1154.44 2293.9 1153.04 2298.88C1151.69 2303.86 1151.02 2314.29 1151.02 2330.17V2359ZM1278.9 2293.26L1254.55 2297.65C1253.73 2292.79 1251.86 2289.13 1248.93 2286.67C1246.05 2284.21 1242.3 2282.97 1237.68 2282.97C1231.52 2282.97 1226.6 2285.11 1222.91 2289.39C1219.28 2293.61 1217.46 2300.7 1217.46 2310.66C1217.46 2321.73 1219.31 2329.56 1223 2334.13C1226.75 2338.7 1231.76 2340.98 1238.03 2340.98C1242.71 2340.98 1246.55 2339.66 1249.54 2337.03C1252.53 2334.33 1254.64 2329.73 1255.87 2323.23L1280.13 2327.36C1277.61 2338.49 1272.77 2346.9 1265.62 2352.58C1258.48 2358.27 1248.9 2361.11 1236.88 2361.11C1223.23 2361.11 1212.33 2356.8 1204.19 2348.19C1196.1 2339.58 1192.06 2327.65 1192.06 2312.42C1192.06 2297.01 1196.13 2285.03 1204.28 2276.47C1212.42 2267.86 1223.44 2263.55 1237.32 2263.55C1248.69 2263.55 1257.71 2266.01 1264.39 2270.93C1271.13 2275.8 1275.97 2283.24 1278.9 2293.26ZM1351.76 2329.29L1376.37 2333.42C1373.2 2342.45 1368.19 2349.33 1361.34 2354.08C1354.54 2358.77 1346.02 2361.11 1335.76 2361.11C1319.53 2361.11 1307.52 2355.81 1299.73 2345.2C1293.57 2336.71 1290.5 2325.98 1290.5 2313.03C1290.5 2297.56 1294.54 2285.46 1302.63 2276.73C1310.71 2267.95 1320.94 2263.55 1333.3 2263.55C1347.19 2263.55 1358.14 2268.15 1366.17 2277.35C1374.2 2286.49 1378.04 2300.52 1377.69 2319.45H1315.81C1315.99 2326.77 1317.98 2332.49 1321.79 2336.59C1325.6 2340.63 1330.34 2342.65 1336.03 2342.65C1339.89 2342.65 1343.14 2341.6 1345.78 2339.49C1348.42 2337.38 1350.41 2333.98 1351.76 2329.29ZM1353.16 2304.33C1352.99 2297.18 1351.14 2291.76 1347.63 2288.07C1344.11 2284.32 1339.83 2282.45 1334.79 2282.45C1329.4 2282.45 1324.95 2284.41 1321.44 2288.34C1317.92 2292.26 1316.19 2297.59 1316.25 2304.33H1353.16ZM1396.05 2265.66H1418.82V2278.4C1426.96 2268.5 1436.66 2263.55 1447.91 2263.55C1453.89 2263.55 1459.07 2264.78 1463.47 2267.24C1467.86 2269.7 1471.46 2273.42 1474.28 2278.4C1478.38 2273.42 1482.8 2269.7 1487.55 2267.24C1492.29 2264.78 1497.36 2263.55 1502.75 2263.55C1509.61 2263.55 1515.41 2264.96 1520.16 2267.77C1524.9 2270.52 1528.45 2274.6 1530.79 2279.99C1532.49 2283.97 1533.34 2290.42 1533.34 2299.32V2359H1508.64V2305.65C1508.64 2296.39 1507.79 2290.42 1506.09 2287.72C1503.81 2284.21 1500.29 2282.45 1495.55 2282.45C1492.09 2282.45 1488.84 2283.5 1485.79 2285.61C1482.74 2287.72 1480.55 2290.83 1479.2 2294.93C1477.85 2298.97 1477.18 2305.39 1477.18 2314.18V2359H1452.48V2307.85C1452.48 2298.77 1452.04 2292.91 1451.16 2290.27C1450.28 2287.63 1448.91 2285.67 1447.03 2284.38C1445.21 2283.09 1442.72 2282.45 1439.56 2282.45C1435.75 2282.45 1432.32 2283.47 1429.28 2285.52C1426.23 2287.57 1424.03 2290.53 1422.69 2294.4C1421.4 2298.27 1420.75 2304.68 1420.75 2313.65V2359H1396.05V2265.66ZM1612.09 2329.29L1636.7 2333.42C1633.54 2342.45 1628.53 2349.33 1621.67 2354.08C1614.87 2358.77 1606.35 2361.11 1596.09 2361.11C1579.86 2361.11 1567.85 2355.81 1560.06 2345.2C1553.91 2336.71 1550.83 2325.98 1550.83 2313.03C1550.83 2297.56 1554.87 2285.46 1562.96 2276.73C1571.04 2267.95 1581.27 2263.55 1593.63 2263.55C1607.52 2263.55 1618.48 2268.15 1626.5 2277.35C1634.53 2286.49 1638.37 2300.52 1638.02 2319.45H1576.14C1576.32 2326.77 1578.31 2332.49 1582.12 2336.59C1585.93 2340.63 1590.67 2342.65 1596.36 2342.65C1600.22 2342.65 1603.48 2341.6 1606.11 2339.49C1608.75 2337.38 1610.74 2333.98 1612.09 2329.29ZM1613.5 2304.33C1613.32 2297.18 1611.47 2291.76 1607.96 2288.07C1604.44 2284.32 1600.17 2282.45 1595.13 2282.45C1589.74 2282.45 1585.28 2284.41 1581.77 2288.34C1578.25 2292.26 1576.52 2297.59 1576.58 2304.33H1613.5ZM1743.13 2359H1718.44V2311.36C1718.44 2301.29 1717.91 2294.78 1716.86 2291.85C1715.8 2288.86 1714.07 2286.55 1711.67 2284.91C1709.33 2283.27 1706.48 2282.45 1703.14 2282.45C1698.87 2282.45 1695.03 2283.62 1691.63 2285.96C1688.23 2288.31 1685.89 2291.41 1684.6 2295.28C1683.37 2299.15 1682.75 2306.29 1682.75 2316.72V2359H1658.06V2265.66H1681V2279.37C1689.14 2268.82 1699.39 2263.55 1711.76 2263.55C1717.21 2263.55 1722.19 2264.55 1726.7 2266.54C1731.21 2268.47 1734.61 2270.96 1736.89 2274.01C1739.24 2277.06 1740.85 2280.51 1741.73 2284.38C1742.67 2288.25 1743.13 2293.79 1743.13 2300.99V2359ZM1811.07 2265.66V2285.35H1794.2V2322.96C1794.2 2330.58 1794.35 2335.04 1794.64 2336.32C1794.99 2337.55 1795.72 2338.58 1796.84 2339.4C1798.01 2340.22 1799.41 2340.63 1801.05 2340.63C1803.34 2340.63 1806.65 2339.84 1810.99 2338.26L1813.1 2357.42C1807.35 2359.88 1800.85 2361.11 1793.58 2361.11C1789.13 2361.11 1785.12 2360.38 1781.54 2358.91C1777.97 2357.39 1775.33 2355.46 1773.63 2353.11C1771.99 2350.71 1770.85 2347.49 1770.21 2343.44C1769.68 2340.57 1769.41 2334.77 1769.41 2326.04V2285.35H1758.08V2265.66H1769.41V2247.12L1794.2 2232.7V2265.66H1811.07Z" fill="#FEFAFA"/>
<path d="M72.0957 3055V2926.15H113.844C129.664 2926.15 139.977 2926.8 144.781 2928.09C152.164 2930.02 158.346 2934.24 163.326 2940.74C168.307 2947.19 170.797 2955.54 170.797 2965.79C170.797 2973.7 169.361 2980.35 166.49 2985.74C163.619 2991.13 159.957 2995.38 155.504 2998.49C151.109 3001.53 146.627 3003.55 142.057 3004.55C135.846 3005.78 126.852 3006.4 115.074 3006.4H98.1113V3055H72.0957ZM98.1113 2947.95V2984.51H112.35C122.604 2984.51 129.459 2983.84 132.916 2982.49C136.373 2981.14 139.068 2979.03 141.002 2976.16C142.994 2973.29 143.99 2969.95 143.99 2966.14C143.99 2961.46 142.613 2957.59 139.859 2954.54C137.105 2951.49 133.619 2949.59 129.4 2948.83C126.295 2948.24 120.055 2947.95 110.68 2947.95H98.1113ZM183.277 3028.37L208.062 3024.59C209.117 3029.39 211.256 3033.06 214.479 3035.58C217.701 3038.04 222.213 3039.27 228.014 3039.27C234.4 3039.27 239.205 3038.1 242.428 3035.75C244.596 3034.11 245.68 3031.91 245.68 3029.16C245.68 3027.29 245.094 3025.73 243.922 3024.5C242.691 3023.33 239.938 3022.25 235.66 3021.25C215.738 3016.86 203.111 3012.84 197.779 3009.21C190.396 3004.17 186.705 2997.17 186.705 2988.2C186.705 2980.12 189.898 2973.32 196.285 2967.81C202.672 2962.3 212.574 2959.55 225.992 2959.55C238.766 2959.55 248.258 2961.63 254.469 2965.79C260.68 2969.95 264.957 2976.1 267.301 2984.25L244.01 2988.55C243.014 2984.92 241.109 2982.14 238.297 2980.21C235.543 2978.27 231.588 2977.3 226.432 2977.3C219.928 2977.3 215.27 2978.21 212.457 2980.03C210.582 2981.32 209.645 2982.99 209.645 2985.04C209.645 2986.8 210.465 2988.29 212.105 2989.52C214.332 2991.16 222.008 2993.48 235.133 2996.46C248.316 2999.45 257.516 3003.12 262.73 3007.45C267.887 3011.85 270.465 3017.97 270.465 3025.82C270.465 3034.38 266.891 3041.73 259.742 3047.88C252.594 3054.03 242.018 3057.11 228.014 3057.11C215.299 3057.11 205.221 3054.53 197.779 3049.38C190.396 3044.22 185.562 3037.22 183.277 3028.37ZM280.484 2961.66H306.764L329.088 3027.93L350.885 2961.66H376.461L343.502 3051.48L337.613 3067.74C335.445 3073.19 333.365 3077.35 331.373 3080.22C329.439 3083.1 327.184 3085.41 324.605 3087.17C322.086 3088.98 318.951 3090.39 315.201 3091.39C311.51 3092.38 307.32 3092.88 302.633 3092.88C297.887 3092.88 293.229 3092.38 288.658 3091.39L286.461 3072.05C290.328 3072.81 293.814 3073.19 296.92 3073.19C302.662 3073.19 306.91 3071.49 309.664 3068.1C312.418 3064.76 314.527 3060.48 315.992 3055.26L280.484 2961.66ZM473.756 2989.26L449.41 2993.65C448.59 2988.79 446.715 2985.13 443.785 2982.67C440.914 2980.21 437.164 2978.97 432.535 2978.97C426.383 2978.97 421.461 2981.11 417.77 2985.39C414.137 2989.61 412.32 2996.7 412.32 3006.66C412.32 3017.73 414.166 3025.56 417.857 3030.13C421.607 3034.7 426.617 3036.98 432.887 3036.98C437.574 3036.98 441.412 3035.66 444.4 3033.03C447.389 3030.33 449.498 3025.73 450.729 3019.23L474.986 3023.36C472.467 3034.49 467.633 3042.9 460.484 3048.58C453.336 3054.27 443.756 3057.11 431.744 3057.11C418.092 3057.11 407.193 3052.8 399.049 3044.19C390.963 3035.58 386.92 3023.65 386.92 3008.42C386.92 2993.01 390.992 2981.03 399.137 2972.47C407.281 2963.86 418.297 2959.55 432.184 2959.55C443.551 2959.55 452.574 2962.01 459.254 2966.93C465.992 2971.8 470.826 2979.24 473.756 2989.26ZM517.174 2926.15V2973.53C525.143 2964.21 534.664 2959.55 545.738 2959.55C551.422 2959.55 556.549 2960.61 561.119 2962.71C565.689 2964.82 569.117 2967.52 571.402 2970.8C573.746 2974.08 575.328 2977.71 576.148 2981.7C577.027 2985.68 577.467 2991.87 577.467 3000.24V3055H552.77V3005.69C552.77 2995.91 552.301 2989.7 551.363 2987.06C550.426 2984.42 548.756 2982.34 546.354 2980.82C544.01 2979.24 541.051 2978.45 537.477 2978.45C533.375 2978.45 529.713 2979.44 526.49 2981.44C523.268 2983.43 520.895 2986.45 519.371 2990.49C517.906 2994.47 517.174 3000.39 517.174 3008.24V3055H492.477V2926.15H517.174ZM596.891 3007.01C596.891 2998.81 598.912 2990.87 602.955 2983.19C606.998 2975.52 612.711 2969.66 620.094 2965.62C627.535 2961.57 635.826 2959.55 644.967 2959.55C659.088 2959.55 670.66 2964.15 679.684 2973.35C688.707 2982.49 693.219 2994.06 693.219 3008.07C693.219 3022.19 688.648 3033.91 679.508 3043.22C670.426 3052.48 658.971 3057.11 645.143 3057.11C636.588 3057.11 628.414 3055.18 620.621 3051.31C612.887 3047.44 606.998 3041.79 602.955 3034.35C598.912 3026.85 596.891 3017.73 596.891 3007.01ZM622.203 3008.33C622.203 3017.59 624.4 3024.68 628.795 3029.6C633.189 3034.52 638.609 3036.98 645.055 3036.98C651.5 3036.98 656.891 3034.52 661.227 3029.6C665.621 3024.68 667.818 3017.53 667.818 3008.15C667.818 2999.01 665.621 2991.98 661.227 2987.06C656.891 2982.14 651.5 2979.68 645.055 2979.68C638.609 2979.68 633.189 2982.14 628.795 2987.06C624.4 2991.98 622.203 2999.07 622.203 3008.33Z" fill="#FEFAFA"/>
<path d="M72.0078 3607.15H119.557C130.279 3607.15 138.453 3607.97 144.078 3609.61C151.637 3611.84 158.111 3615.79 163.502 3621.48C168.893 3627.16 172.994 3634.13 175.807 3642.4C178.619 3650.6 180.025 3660.74 180.025 3672.81C180.025 3683.41 178.707 3692.55 176.07 3700.23C172.848 3709.6 168.248 3717.19 162.271 3722.99C157.76 3727.39 151.666 3730.81 143.99 3733.28C138.248 3735.09 130.572 3736 120.963 3736H72.0078V3607.15ZM98.0234 3628.95V3714.29H117.447C124.713 3714.29 129.957 3713.88 133.18 3713.06C137.398 3712.01 140.885 3710.22 143.639 3707.7C146.451 3705.18 148.736 3701.05 150.494 3695.31C152.252 3689.51 153.131 3681.62 153.131 3671.66C153.131 3661.7 152.252 3654.06 150.494 3648.72C148.736 3643.39 146.275 3639.23 143.111 3636.24C139.947 3633.26 135.934 3631.23 131.07 3630.18C127.438 3629.36 120.318 3628.95 109.713 3628.95H98.0234ZM201.998 3630V3607.15H226.695V3630H201.998ZM201.998 3736V3642.66H226.695V3736H201.998ZM270.553 3671.14L248.141 3667.09C250.66 3658.07 254.996 3651.39 261.148 3647.05C267.301 3642.72 276.441 3640.55 288.57 3640.55C299.586 3640.55 307.789 3641.87 313.18 3644.51C318.57 3647.08 322.35 3650.39 324.518 3654.44C326.744 3658.42 327.857 3665.78 327.857 3676.5L327.594 3705.33C327.594 3713.53 327.975 3719.59 328.736 3723.52C329.557 3727.39 331.051 3731.55 333.219 3736H308.785C308.141 3734.36 307.35 3731.93 306.412 3728.71C306.002 3727.24 305.709 3726.27 305.533 3725.8C301.314 3729.91 296.803 3732.98 291.998 3735.03C287.193 3737.08 282.066 3738.11 276.617 3738.11C267.008 3738.11 259.42 3735.5 253.854 3730.29C248.346 3725.07 245.592 3718.48 245.592 3710.51C245.592 3705.24 246.852 3700.55 249.371 3696.45C251.891 3692.29 255.406 3689.12 259.918 3686.96C264.488 3684.73 271.051 3682.8 279.605 3681.16C291.148 3678.99 299.146 3676.97 303.6 3675.09V3672.63C303.6 3667.88 302.428 3664.52 300.084 3662.52C297.74 3660.47 293.316 3659.45 286.812 3659.45C282.418 3659.45 278.99 3660.33 276.529 3662.08C274.068 3663.78 272.076 3666.8 270.553 3671.14ZM303.6 3691.18C300.436 3692.23 295.426 3693.49 288.57 3694.96C281.715 3696.42 277.232 3697.86 275.123 3699.26C271.9 3701.55 270.289 3704.45 270.289 3707.96C270.289 3711.42 271.578 3714.41 274.156 3716.93C276.734 3719.45 280.016 3720.71 284 3720.71C288.453 3720.71 292.701 3719.24 296.744 3716.31C299.732 3714.09 301.695 3711.36 302.633 3708.14C303.277 3706.03 303.6 3702.02 303.6 3696.1V3691.18ZM351.236 3736V3607.15H375.934V3653.56C383.551 3644.89 392.574 3640.55 403.004 3640.55C414.371 3640.55 423.775 3644.68 431.217 3652.94C438.658 3661.15 442.379 3672.95 442.379 3688.36C442.379 3704.3 438.57 3716.58 430.953 3725.19C423.395 3733.8 414.195 3738.11 403.355 3738.11C398.023 3738.11 392.75 3736.79 387.535 3734.15C382.379 3731.46 377.926 3727.5 374.176 3722.29V3736H351.236ZM375.758 3687.31C375.758 3696.98 377.281 3704.12 380.328 3708.75C384.605 3715.32 390.289 3718.6 397.379 3718.6C402.828 3718.6 407.457 3716.28 411.266 3711.65C415.133 3706.97 417.066 3699.61 417.066 3689.59C417.066 3678.93 415.133 3671.25 411.266 3666.57C407.398 3661.82 402.447 3659.45 396.412 3659.45C390.494 3659.45 385.572 3661.76 381.646 3666.39C377.721 3670.96 375.758 3677.93 375.758 3687.31ZM456.617 3688.01C456.617 3679.81 458.639 3671.87 462.682 3664.19C466.725 3656.52 472.438 3650.66 479.82 3646.62C487.262 3642.57 495.553 3640.55 504.693 3640.55C518.814 3640.55 530.387 3645.15 539.41 3654.35C548.434 3663.49 552.945 3675.06 552.945 3689.07C552.945 3703.19 548.375 3714.91 539.234 3724.22C530.152 3733.48 518.697 3738.11 504.869 3738.11C496.314 3738.11 488.141 3736.18 480.348 3732.31C472.613 3728.44 466.725 3722.79 462.682 3715.35C458.639 3707.85 456.617 3698.73 456.617 3688.01ZM481.93 3689.33C481.93 3698.59 484.127 3705.68 488.521 3710.6C492.916 3715.52 498.336 3717.98 504.781 3717.98C511.227 3717.98 516.617 3715.52 520.953 3710.6C525.348 3705.68 527.545 3698.53 527.545 3689.15C527.545 3680.01 525.348 3672.98 520.953 3668.06C516.617 3663.14 511.227 3660.68 504.781 3660.68C498.336 3660.68 492.916 3663.14 488.521 3668.06C484.127 3672.98 481.93 3680.07 481.93 3689.33ZM572.369 3736V3607.15H597.066V3736H572.369ZM622.467 3630V3607.15H647.164V3630H622.467ZM622.467 3736V3642.66H647.164V3736H622.467ZM733.561 3771.51V3724.57C730.338 3728.73 726.324 3732.04 721.52 3734.51C716.715 3736.91 711.529 3738.11 705.963 3738.11C695.357 3738.11 686.627 3734.12 679.771 3726.16C671.686 3716.84 667.643 3704.21 667.643 3688.28C667.643 3673.28 671.422 3661.59 678.98 3653.21C686.598 3644.77 696.031 3640.55 707.281 3640.55C713.492 3640.55 718.854 3641.87 723.365 3644.51C727.936 3647.14 731.979 3651.13 735.494 3656.46V3642.66H758.258V3771.51H733.561ZM734.352 3688.19C734.352 3678.64 732.389 3671.55 728.463 3666.92C724.596 3662.23 719.732 3659.89 713.873 3659.89C707.896 3659.89 702.887 3662.26 698.844 3667.01C694.859 3671.75 692.867 3679.28 692.867 3689.59C692.867 3699.85 694.801 3707.26 698.668 3711.83C702.535 3716.34 707.311 3718.6 712.994 3718.6C718.678 3718.6 723.658 3716.05 727.936 3710.95C732.213 3705.85 734.352 3698.27 734.352 3688.19ZM844.039 3736V3722.03C840.641 3727.01 836.158 3730.93 830.592 3733.8C825.084 3736.67 819.254 3738.11 813.102 3738.11C806.832 3738.11 801.207 3736.73 796.227 3733.98C791.246 3731.22 787.643 3727.36 785.416 3722.38C783.189 3717.4 782.076 3710.51 782.076 3701.72V3642.66H806.773V3685.55C806.773 3698.68 807.213 3706.73 808.092 3709.72C809.029 3712.65 810.699 3714.99 813.102 3716.75C815.504 3718.45 818.551 3719.3 822.242 3719.3C826.461 3719.3 830.24 3718.16 833.58 3715.87C836.92 3713.53 839.205 3710.66 840.436 3707.26C841.666 3703.8 842.281 3695.39 842.281 3682.04V3642.66H866.979V3736H844.039ZM946.695 3706.29L971.305 3710.42C968.141 3719.45 963.131 3726.33 956.275 3731.08C949.479 3735.77 940.953 3738.11 930.699 3738.11C914.469 3738.11 902.457 3732.81 894.664 3722.2C888.512 3713.71 885.436 3702.98 885.436 3690.03C885.436 3674.56 889.479 3662.46 897.564 3653.73C905.65 3644.95 915.875 3640.55 928.238 3640.55C942.125 3640.55 953.082 3645.15 961.109 3654.35C969.137 3663.49 972.975 3677.52 972.623 3696.45H910.748C910.924 3703.77 912.916 3709.49 916.725 3713.59C920.533 3717.63 925.279 3719.65 930.963 3719.65C934.83 3719.65 938.082 3718.6 940.719 3716.49C943.355 3714.38 945.348 3710.98 946.695 3706.29ZM948.102 3681.33C947.926 3674.18 946.08 3668.76 942.564 3665.07C939.049 3661.32 934.771 3659.45 929.732 3659.45C924.342 3659.45 919.889 3661.41 916.373 3665.34C912.857 3669.26 911.129 3674.59 911.188 3681.33H948.102Z" fill="#FEFAFA"/>
<path d="M72.0078 4288.15H119.557C130.279 4288.15 138.453 4288.97 144.078 4290.61C151.637 4292.84 158.111 4296.79 163.502 4302.48C168.893 4308.16 172.994 4315.13 175.807 4323.4C178.619 4331.6 180.025 4341.74 180.025 4353.81C180.025 4364.41 178.707 4373.55 176.07 4381.23C172.848 4390.6 168.248 4398.19 162.271 4403.99C157.76 4408.39 151.666 4411.81 143.99 4414.28C138.248 4416.09 130.572 4417 120.963 4417H72.0078V4288.15ZM98.0234 4309.95V4395.29H117.447C124.713 4395.29 129.957 4394.88 133.18 4394.06C137.398 4393.01 140.885 4391.22 143.639 4388.7C146.451 4386.18 148.736 4382.05 150.494 4376.31C152.252 4370.51 153.131 4362.62 153.131 4352.66C153.131 4342.7 152.252 4335.06 150.494 4329.72C148.736 4324.39 146.275 4320.23 143.111 4317.24C139.947 4314.26 135.934 4312.23 131.07 4311.18C127.438 4310.36 120.318 4309.95 109.713 4309.95H98.0234ZM201.998 4311V4288.15H226.695V4311H201.998ZM201.998 4417V4323.66H226.695V4417H201.998ZM243.395 4390.37L268.18 4386.59C269.234 4391.39 271.373 4395.06 274.596 4397.58C277.818 4400.04 282.33 4401.27 288.131 4401.27C294.518 4401.27 299.322 4400.1 302.545 4397.75C304.713 4396.11 305.797 4393.91 305.797 4391.16C305.797 4389.29 305.211 4387.73 304.039 4386.5C302.809 4385.33 300.055 4384.25 295.777 4383.25C275.855 4378.86 263.229 4374.84 257.896 4371.21C250.514 4366.17 246.822 4359.17 246.822 4350.2C246.822 4342.12 250.016 4335.32 256.402 4329.81C262.789 4324.3 272.691 4321.55 286.109 4321.55C298.883 4321.55 308.375 4323.63 314.586 4327.79C320.797 4331.95 325.074 4338.1 327.418 4346.25L304.127 4350.55C303.131 4346.92 301.227 4344.14 298.414 4342.21C295.66 4340.27 291.705 4339.3 286.549 4339.3C280.045 4339.3 275.387 4340.21 272.574 4342.03C270.699 4343.32 269.762 4344.99 269.762 4347.04C269.762 4348.8 270.582 4350.29 272.223 4351.52C274.449 4353.16 282.125 4355.48 295.25 4358.46C308.434 4361.45 317.633 4365.12 322.848 4369.45C328.004 4373.85 330.582 4379.97 330.582 4387.82C330.582 4396.38 327.008 4403.73 319.859 4409.88C312.711 4416.03 302.135 4419.11 288.131 4419.11C275.416 4419.11 265.338 4416.53 257.896 4411.38C250.514 4406.22 245.68 4399.22 243.395 4390.37ZM346.578 4369.01C346.578 4360.81 348.6 4352.87 352.643 4345.19C356.686 4337.52 362.398 4331.66 369.781 4327.62C377.223 4323.57 385.514 4321.55 394.654 4321.55C408.775 4321.55 420.348 4326.15 429.371 4335.35C438.395 4344.49 442.906 4356.06 442.906 4370.07C442.906 4384.19 438.336 4395.91 429.195 4405.22C420.113 4414.48 408.658 4419.11 394.83 4419.11C386.275 4419.11 378.102 4417.18 370.309 4413.31C362.574 4409.44 356.686 4403.79 352.643 4396.35C348.6 4388.85 346.578 4379.73 346.578 4369.01ZM371.891 4370.33C371.891 4379.59 374.088 4386.68 378.482 4391.6C382.877 4396.52 388.297 4398.98 394.742 4398.98C401.188 4398.98 406.578 4396.52 410.914 4391.6C415.309 4386.68 417.506 4379.53 417.506 4370.15C417.506 4361.01 415.309 4353.98 410.914 4349.06C406.578 4344.14 401.188 4341.68 394.742 4341.68C388.297 4341.68 382.877 4344.14 378.482 4349.06C374.088 4353.98 371.891 4361.07 371.891 4370.33ZM485.973 4417H461.275V4323.66H484.215V4336.93C488.141 4330.66 491.656 4326.53 494.762 4324.54C497.926 4322.55 501.5 4321.55 505.484 4321.55C511.109 4321.55 516.529 4323.1 521.744 4326.21L514.098 4347.74C509.938 4345.05 506.07 4343.7 502.496 4343.7C499.039 4343.7 496.109 4344.67 493.707 4346.6C491.305 4348.47 489.4 4351.9 487.994 4356.88C486.646 4361.86 485.973 4372.29 485.973 4388.17V4417ZM618.072 4417H595.133V4403.29C591.324 4408.62 586.812 4412.61 581.598 4415.24C576.441 4417.82 571.227 4419.11 565.953 4419.11C555.23 4419.11 546.031 4414.8 538.355 4406.19C530.738 4397.52 526.93 4385.45 526.93 4369.98C526.93 4354.16 530.65 4342.15 538.092 4333.94C545.533 4325.68 554.938 4321.55 566.305 4321.55C576.734 4321.55 585.758 4325.89 593.375 4334.56V4288.15H618.072V4417ZM552.154 4368.31C552.154 4378.27 553.531 4385.48 556.285 4389.93C560.27 4396.38 565.836 4399.6 572.984 4399.6C578.668 4399.6 583.502 4397.2 587.486 4392.39C591.471 4387.53 593.463 4380.29 593.463 4370.68C593.463 4359.96 591.529 4352.25 587.662 4347.57C583.795 4342.82 578.844 4340.45 572.809 4340.45C566.949 4340.45 562.027 4342.79 558.043 4347.48C554.117 4352.11 552.154 4359.05 552.154 4368.31ZM696.559 4387.29L721.168 4391.42C718.004 4400.45 712.994 4407.33 706.139 4412.08C699.342 4416.77 690.816 4419.11 680.562 4419.11C664.332 4419.11 652.32 4413.81 644.527 4403.2C638.375 4394.71 635.299 4383.98 635.299 4371.03C635.299 4355.56 639.342 4343.46 647.428 4334.73C655.514 4325.95 665.738 4321.55 678.102 4321.55C691.988 4321.55 702.945 4326.15 710.973 4335.35C719 4344.49 722.838 4358.52 722.486 4377.45H660.611C660.787 4384.77 662.779 4390.49 666.588 4394.59C670.396 4398.63 675.143 4400.65 680.826 4400.65C684.693 4400.65 687.945 4399.6 690.582 4397.49C693.219 4395.38 695.211 4391.98 696.559 4387.29ZM697.965 4362.33C697.789 4355.18 695.943 4349.76 692.428 4346.07C688.912 4342.32 684.635 4340.45 679.596 4340.45C674.205 4340.45 669.752 4342.41 666.236 4346.34C662.721 4350.26 660.992 4355.59 661.051 4362.33H697.965ZM766.344 4417H741.646V4323.66H764.586V4336.93C768.512 4330.66 772.027 4326.53 775.133 4324.54C778.297 4322.55 781.871 4321.55 785.855 4321.55C791.48 4321.55 796.9 4323.1 802.115 4326.21L794.469 4347.74C790.309 4345.05 786.441 4343.7 782.867 4343.7C779.41 4343.7 776.48 4344.67 774.078 4346.6C771.676 4348.47 769.771 4351.9 768.365 4356.88C767.018 4361.86 766.344 4372.29 766.344 4388.17V4417ZM862.936 4311V4288.15H887.633V4311H862.936ZM862.936 4417V4323.66H887.633V4417H862.936ZM997.936 4417H973.238V4369.36C973.238 4359.29 972.711 4352.78 971.656 4349.85C970.602 4346.86 968.873 4344.55 966.471 4342.91C964.127 4341.27 961.285 4340.45 957.945 4340.45C953.668 4340.45 949.83 4341.62 946.432 4343.96C943.033 4346.31 940.689 4349.41 939.4 4353.28C938.17 4357.15 937.555 4364.29 937.555 4374.72V4417H912.857V4323.66H935.797V4337.37C943.941 4326.82 954.195 4321.55 966.559 4321.55C972.008 4321.55 976.988 4322.55 981.5 4324.54C986.012 4326.47 989.41 4328.96 991.695 4332.01C994.039 4335.06 995.65 4338.51 996.529 4342.38C997.467 4346.25 997.936 4351.79 997.936 4358.99V4417ZM1115.97 4323.66V4343.35H1099.1V4380.96C1099.1 4388.58 1099.24 4393.04 1099.54 4394.32C1099.89 4395.55 1100.62 4396.58 1101.73 4397.4C1102.91 4398.22 1104.31 4398.63 1105.95 4398.63C1108.24 4398.63 1111.55 4397.84 1115.88 4396.26L1117.99 4415.42C1112.25 4417.88 1105.75 4419.11 1098.48 4419.11C1094.03 4419.11 1090.02 4418.38 1086.44 4416.91C1082.87 4415.39 1080.23 4413.46 1078.53 4411.11C1076.89 4408.71 1075.75 4405.49 1075.1 4401.44C1074.58 4398.57 1074.31 4392.77 1074.31 4384.04V4343.35H1062.97V4323.66H1074.31V4305.12L1099.1 4290.7V4323.66H1115.97ZM1157.72 4288.15V4335.53C1165.69 4326.21 1175.21 4321.55 1186.29 4321.55C1191.97 4321.55 1197.1 4322.61 1201.67 4324.71C1206.24 4326.82 1209.66 4329.52 1211.95 4332.8C1214.29 4336.08 1215.88 4339.71 1216.7 4343.7C1217.57 4347.68 1218.01 4353.87 1218.01 4362.24V4417H1193.32V4367.69C1193.32 4357.91 1192.85 4351.7 1191.91 4349.06C1190.97 4346.42 1189.3 4344.34 1186.9 4342.82C1184.56 4341.24 1181.6 4340.45 1178.02 4340.45C1173.92 4340.45 1170.26 4341.44 1167.04 4343.44C1163.81 4345.43 1161.44 4348.45 1159.92 4352.49C1158.45 4356.47 1157.72 4362.39 1157.72 4370.24V4417H1133.02V4288.15H1157.72ZM1297.2 4387.29L1321.81 4391.42C1318.65 4400.45 1313.64 4407.33 1306.78 4412.08C1299.99 4416.77 1291.46 4419.11 1281.21 4419.11C1264.98 4419.11 1252.96 4413.81 1245.17 4403.2C1239.02 4394.71 1235.94 4383.98 1235.94 4371.03C1235.94 4355.56 1239.99 4343.46 1248.07 4334.73C1256.16 4325.95 1266.38 4321.55 1278.75 4321.55C1292.63 4321.55 1303.59 4326.15 1311.62 4335.35C1319.64 4344.49 1323.48 4358.52 1323.13 4377.45H1261.26C1261.43 4384.77 1263.42 4390.49 1267.23 4394.59C1271.04 4398.63 1275.79 4400.65 1281.47 4400.65C1285.34 4400.65 1288.59 4399.6 1291.23 4397.49C1293.86 4395.38 1295.86 4391.98 1297.2 4387.29ZM1298.61 4362.33C1298.43 4355.18 1296.59 4349.76 1293.07 4346.07C1289.56 4342.32 1285.28 4340.45 1280.24 4340.45C1274.85 4340.45 1270.4 4342.41 1266.88 4346.34C1263.37 4350.26 1261.64 4355.59 1261.7 4362.33H1298.61ZM1476.06 4369.63L1501.29 4377.62C1497.42 4391.69 1490.97 4402.15 1481.95 4409C1472.98 4415.8 1461.59 4419.2 1447.76 4419.2C1430.65 4419.2 1416.59 4413.37 1405.57 4401.71C1394.56 4389.99 1389.05 4373.99 1389.05 4353.72C1389.05 4332.27 1394.59 4315.63 1405.66 4303.8C1416.73 4291.9 1431.29 4285.96 1449.34 4285.96C1465.1 4285.96 1477.91 4290.61 1487.75 4299.93C1493.61 4305.44 1498 4313.35 1500.93 4323.66L1475.18 4329.81C1473.66 4323.13 1470.46 4317.86 1465.6 4313.99C1460.8 4310.12 1454.94 4308.19 1448.02 4308.19C1438.47 4308.19 1430.71 4311.62 1424.73 4318.47C1418.81 4325.33 1415.86 4336.43 1415.86 4351.79C1415.86 4368.07 1418.79 4379.68 1424.64 4386.59C1430.5 4393.5 1438.12 4396.96 1447.5 4396.96C1454.41 4396.96 1460.36 4394.76 1465.34 4390.37C1470.32 4385.97 1473.89 4379.06 1476.06 4369.63ZM1517.81 4369.01C1517.81 4360.81 1519.83 4352.87 1523.87 4345.19C1527.92 4337.52 1533.63 4331.66 1541.01 4327.62C1548.45 4323.57 1556.74 4321.55 1565.88 4321.55C1580.01 4321.55 1591.58 4326.15 1600.6 4335.35C1609.62 4344.49 1614.14 4356.06 1614.14 4370.07C1614.14 4384.19 1609.57 4395.91 1600.43 4405.22C1591.34 4414.48 1579.89 4419.11 1566.06 4419.11C1557.51 4419.11 1549.33 4417.18 1541.54 4413.31C1533.8 4409.44 1527.92 4403.79 1523.87 4396.35C1519.83 4388.85 1517.81 4379.73 1517.81 4369.01ZM1543.12 4370.33C1543.12 4379.59 1545.32 4386.68 1549.71 4391.6C1554.11 4396.52 1559.53 4398.98 1565.97 4398.98C1572.42 4398.98 1577.81 4396.52 1582.14 4391.6C1586.54 4386.68 1588.74 4379.53 1588.74 4370.15C1588.74 4361.01 1586.54 4353.98 1582.14 4349.06C1577.81 4344.14 1572.42 4341.68 1565.97 4341.68C1559.53 4341.68 1554.11 4344.14 1549.71 4349.06C1545.32 4353.98 1543.12 4361.07 1543.12 4370.33ZM1695 4417V4403.03C1691.6 4408.01 1687.12 4411.93 1681.55 4414.8C1676.04 4417.67 1670.21 4419.11 1664.06 4419.11C1657.79 4419.11 1652.16 4417.73 1647.18 4414.98C1642.2 4412.22 1638.6 4408.36 1636.37 4403.38C1634.15 4398.4 1633.03 4391.51 1633.03 4382.72V4323.66H1657.73V4366.55C1657.73 4379.68 1658.17 4387.73 1659.05 4390.72C1659.99 4393.65 1661.66 4395.99 1664.06 4397.75C1666.46 4399.45 1669.51 4400.3 1673.2 4400.3C1677.42 4400.3 1681.2 4399.16 1684.54 4396.87C1687.88 4394.53 1690.16 4391.66 1691.39 4388.26C1692.62 4384.8 1693.24 4376.39 1693.24 4363.04V4323.66H1717.94V4417H1695ZM1767.24 4417H1742.54V4323.66H1765.48V4336.93C1769.41 4330.66 1772.93 4326.53 1776.03 4324.54C1779.2 4322.55 1782.77 4321.55 1786.75 4321.55C1792.38 4321.55 1797.8 4323.1 1803.01 4326.21L1795.37 4347.74C1791.21 4345.05 1787.34 4343.7 1783.77 4343.7C1780.31 4343.7 1777.38 4344.67 1774.98 4346.6C1772.57 4348.47 1770.67 4351.9 1769.26 4356.88C1767.92 4361.86 1767.24 4372.29 1767.24 4388.17V4417ZM1856.54 4323.66V4343.35H1839.66V4380.96C1839.66 4388.58 1839.81 4393.04 1840.1 4394.32C1840.46 4395.55 1841.19 4396.58 1842.3 4397.4C1843.47 4398.22 1844.88 4398.63 1846.52 4398.63C1848.8 4398.63 1852.12 4397.84 1856.45 4396.26L1858.56 4415.42C1852.82 4417.88 1846.31 4419.11 1839.05 4419.11C1834.6 4419.11 1830.58 4418.38 1827.01 4416.91C1823.43 4415.39 1820.8 4413.46 1819.1 4411.11C1817.46 4408.71 1816.31 4405.49 1815.67 4401.44C1815.14 4398.57 1814.88 4392.77 1814.88 4384.04V4343.35H1803.54V4323.66H1814.88V4305.12L1839.66 4290.7V4323.66H1856.54Z" fill="#FEFAFA"/>
<circle cx="2247" cy="250" r="250" fill="#FF0000"/>
<circle cx="2247" cy="2253" r="250" fill="#66CC66"/>
<circle cx="2247" cy="1572" r="250" fill="#FF6699"/>
<circle cx="2247" cy="891" r="250" fill="#FF6600"/>
<circle cx="2247" cy="2934" r="250" fill="#FFFF00"/>
<circle cx="2247" cy="4298" r="250" fill="#996633"/>
<circle cx="2247" cy="3617" r="250" fill="#33ADFF"/>
</svg>
