<svg width="2797" height="4551" viewBox="0 0 2797 4551" fill="none" xmlns="http://www.w3.org/2000/svg">
<path d="M129.287 313H100.986L89.7363 283.732H38.2324L27.5977 313H0L50.1855 184.152H77.6953L129.287 313ZM81.3867 262.023L63.6328 214.211L46.2305 262.023H81.3867ZM141.152 219.66H163.916V232.404C172.061 222.502 181.758 217.551 193.008 217.551C198.984 217.551 204.17 218.781 208.564 221.242C212.959 223.703 216.562 227.424 219.375 232.404C223.477 227.424 227.9 223.703 232.646 221.242C237.393 218.781 242.461 217.551 247.852 217.551C254.707 217.551 260.508 218.957 265.254 221.77C270 224.523 273.545 228.596 275.889 233.986C277.588 237.971 278.438 244.416 278.438 253.322V313H253.74V259.65C253.74 250.393 252.891 244.416 251.191 241.721C248.906 238.205 245.391 236.447 240.645 236.447C237.188 236.447 233.936 237.502 230.889 239.611C227.842 241.721 225.645 244.826 224.297 248.928C222.949 252.971 222.275 259.387 222.275 268.176V313H197.578V261.848C197.578 252.766 197.139 246.906 196.26 244.27C195.381 241.633 194.004 239.67 192.129 238.381C190.312 237.092 187.822 236.447 184.658 236.447C180.85 236.447 177.422 237.473 174.375 239.523C171.328 241.574 169.131 244.533 167.783 248.4C166.494 252.268 165.85 258.684 165.85 267.648V313H141.152V219.66ZM321.592 248.137L299.18 244.094C301.699 235.07 306.035 228.391 312.188 224.055C318.34 219.719 327.48 217.551 339.609 217.551C350.625 217.551 358.828 218.869 364.219 221.506C369.609 224.084 373.389 227.395 375.557 231.438C377.783 235.422 378.896 242.775 378.896 253.498L378.633 282.326C378.633 290.529 379.014 296.594 379.775 300.52C380.596 304.387 382.09 308.547 384.258 313H359.824C359.18 311.359 358.389 308.928 357.451 305.705C357.041 304.24 356.748 303.273 356.572 302.805C352.354 306.906 347.842 309.982 343.037 312.033C338.232 314.084 333.105 315.109 327.656 315.109C318.047 315.109 310.459 312.502 304.893 307.287C299.385 302.072 296.631 295.48 296.631 287.512C296.631 282.238 297.891 277.551 300.41 273.449C302.93 269.289 306.445 266.125 310.957 263.957C315.527 261.73 322.09 259.797 330.645 258.156C342.188 255.988 350.186 253.967 354.639 252.092V249.631C354.639 244.885 353.467 241.516 351.123 239.523C348.779 237.473 344.355 236.447 337.852 236.447C333.457 236.447 330.029 237.326 327.568 239.084C325.107 240.783 323.115 243.801 321.592 248.137ZM354.639 268.176C351.475 269.23 346.465 270.49 339.609 271.955C332.754 273.42 328.271 274.855 326.162 276.262C322.939 278.547 321.328 281.447 321.328 284.963C321.328 288.42 322.617 291.408 325.195 293.928C327.773 296.447 331.055 297.707 335.039 297.707C339.492 297.707 343.74 296.242 347.783 293.312C350.771 291.086 352.734 288.361 353.672 285.139C354.316 283.029 354.639 279.016 354.639 273.098V268.176ZM488.936 313H465.996V299.289C462.188 304.621 457.676 308.605 452.461 311.242C447.305 313.82 442.09 315.109 436.816 315.109C426.094 315.109 416.895 310.803 409.219 302.189C401.602 293.518 397.793 281.447 397.793 265.979C397.793 250.158 401.514 238.146 408.955 229.943C416.396 221.682 425.801 217.551 437.168 217.551C447.598 217.551 456.621 221.887 464.238 230.559V184.152H488.936V313ZM423.018 264.309C423.018 274.27 424.395 281.477 427.148 285.93C431.133 292.375 436.699 295.598 443.848 295.598C449.531 295.598 454.365 293.195 458.35 288.391C462.334 283.527 464.326 276.291 464.326 266.682C464.326 255.959 462.393 248.254 458.525 243.566C454.658 238.82 449.707 236.447 443.672 236.447C437.812 236.447 432.891 238.791 428.906 243.479C424.98 248.107 423.018 255.051 423.018 264.309ZM567.422 283.293L592.031 287.424C588.867 296.447 583.857 303.332 577.002 308.078C570.205 312.766 561.68 315.109 551.426 315.109C535.195 315.109 523.184 309.807 515.391 299.201C509.238 290.705 506.162 279.982 506.162 267.033C506.162 251.564 510.205 239.465 518.291 230.734C526.377 221.945 536.602 217.551 548.965 217.551C562.852 217.551 573.809 222.15 581.836 231.35C589.863 240.49 593.701 254.523 593.35 273.449H531.475C531.65 280.773 533.643 286.486 537.451 290.588C541.26 294.631 546.006 296.652 551.689 296.652C555.557 296.652 558.809 295.598 561.445 293.488C564.082 291.379 566.074 287.98 567.422 283.293ZM568.828 258.332C568.652 251.184 566.807 245.764 563.291 242.072C559.775 238.322 555.498 236.447 550.459 236.447C545.068 236.447 540.615 238.41 537.1 242.336C533.584 246.262 531.855 251.594 531.914 258.332H568.828ZM675 313V299.025C671.602 304.006 667.119 307.932 661.553 310.803C656.045 313.674 650.215 315.109 644.062 315.109C637.793 315.109 632.168 313.732 627.188 310.979C622.207 308.225 618.604 304.357 616.377 299.377C614.15 294.396 613.037 287.512 613.037 278.723V219.66H637.734V262.551C637.734 275.676 638.174 283.732 639.053 286.721C639.99 289.65 641.66 291.994 644.062 293.752C646.465 295.451 649.512 296.301 653.203 296.301C657.422 296.301 661.201 295.158 664.541 292.873C667.881 290.529 670.166 287.658 671.396 284.26C672.627 280.803 673.242 272.395 673.242 259.035V219.66H697.939V313H675ZM714.902 286.369L739.688 282.59C740.742 287.395 742.881 291.057 746.104 293.576C749.326 296.037 753.838 297.268 759.639 297.268C766.025 297.268 770.83 296.096 774.053 293.752C776.221 292.111 777.305 289.914 777.305 287.16C777.305 285.285 776.719 283.732 775.547 282.502C774.316 281.33 771.562 280.246 767.285 279.25C747.363 274.855 734.736 270.842 729.404 267.209C722.021 262.17 718.33 255.168 718.33 246.203C718.33 238.117 721.523 231.32 727.91 225.812C734.297 220.305 744.199 217.551 757.617 217.551C770.391 217.551 779.883 219.631 786.094 223.791C792.305 227.951 796.582 234.104 798.926 242.248L775.635 246.555C774.639 242.922 772.734 240.139 769.922 238.205C767.168 236.271 763.213 235.305 758.057 235.305C751.553 235.305 746.895 236.213 744.082 238.029C742.207 239.318 741.27 240.988 741.27 243.039C741.27 244.797 742.09 246.291 743.73 247.521C745.957 249.162 753.633 251.477 766.758 254.465C779.941 257.453 789.141 261.115 794.355 265.451C799.512 269.846 802.09 275.969 802.09 283.82C802.09 292.375 798.516 299.729 791.367 305.881C784.219 312.033 773.643 315.109 759.639 315.109C746.924 315.109 736.846 312.531 729.404 307.375C722.021 302.219 717.188 295.217 714.902 286.369Z" fill="#FEFAFA"/>
<path d="M42.0996 914V806.949H3.86719V785.152H106.26V806.949H68.1152V914H42.0996ZM147.568 785.152V832.525C155.537 823.209 165.059 818.551 176.133 818.551C181.816 818.551 186.943 819.605 191.514 821.715C196.084 823.824 199.512 826.52 201.797 829.801C204.141 833.082 205.723 836.715 206.543 840.699C207.422 844.684 207.861 850.865 207.861 859.244V914H183.164V864.693C183.164 854.908 182.695 848.697 181.758 846.061C180.82 843.424 179.15 841.344 176.748 839.82C174.404 838.238 171.445 837.447 167.871 837.447C163.77 837.447 160.107 838.443 156.885 840.436C153.662 842.428 151.289 845.445 149.766 849.488C148.301 853.473 147.568 859.391 147.568 867.242V914H122.871V785.152H147.568ZM287.051 884.293L311.66 888.424C308.496 897.447 303.486 904.332 296.631 909.078C289.834 913.766 281.309 916.109 271.055 916.109C254.824 916.109 242.812 910.807 235.02 900.201C228.867 891.705 225.791 880.982 225.791 868.033C225.791 852.564 229.834 840.465 237.92 831.734C246.006 822.945 256.23 818.551 268.594 818.551C282.48 818.551 293.438 823.15 301.465 832.35C309.492 841.49 313.33 855.523 312.979 874.449H251.104C251.279 881.773 253.271 887.486 257.08 891.588C260.889 895.631 265.635 897.652 271.318 897.652C275.186 897.652 278.438 896.598 281.074 894.488C283.711 892.379 285.703 888.98 287.051 884.293ZM288.457 859.332C288.281 852.184 286.436 846.764 282.92 843.072C279.404 839.322 275.127 837.447 270.088 837.447C264.697 837.447 260.244 839.41 256.729 843.336C253.213 847.262 251.484 852.594 251.543 859.332H288.457ZM383.555 914V785.152H409.57V835.865H460.547V785.152H486.562V914H460.547V857.662H409.57V914H383.555ZM507.656 866.012C507.656 857.809 509.678 849.869 513.721 842.193C517.764 834.518 523.477 828.658 530.859 824.615C538.301 820.572 546.592 818.551 555.732 818.551C569.854 818.551 581.426 823.15 590.449 832.35C599.473 841.49 603.984 853.062 603.984 867.066C603.984 881.188 599.414 892.906 590.273 902.223C581.191 911.48 569.736 916.109 555.908 916.109C547.354 916.109 539.18 914.176 531.387 910.309C523.652 906.441 517.764 900.787 513.721 893.346C509.678 885.846 507.656 876.734 507.656 866.012ZM532.969 867.33C532.969 876.588 535.166 883.678 539.561 888.6C543.955 893.521 549.375 895.982 555.82 895.982C562.266 895.982 567.656 893.521 571.992 888.6C576.387 883.678 578.584 876.529 578.584 867.154C578.584 858.014 576.387 850.982 571.992 846.061C567.656 841.139 562.266 838.678 555.82 838.678C549.375 838.678 543.955 841.139 539.561 846.061C535.166 850.982 532.969 858.072 532.969 867.33ZM621.562 820.66H644.326V833.404C652.471 823.502 662.168 818.551 673.418 818.551C679.395 818.551 684.58 819.781 688.975 822.242C693.369 824.703 696.973 828.424 699.785 833.404C703.887 828.424 708.311 824.703 713.057 822.242C717.803 819.781 722.871 818.551 728.262 818.551C735.117 818.551 740.918 819.957 745.664 822.77C750.41 825.523 753.955 829.596 756.299 834.986C757.998 838.971 758.848 845.416 758.848 854.322V914H734.15V860.65C734.15 851.393 733.301 845.416 731.602 842.721C729.316 839.205 725.801 837.447 721.055 837.447C717.598 837.447 714.346 838.502 711.299 840.611C708.252 842.721 706.055 845.826 704.707 849.928C703.359 853.971 702.686 860.387 702.686 869.176V914H677.988V862.848C677.988 853.766 677.549 847.906 676.67 845.27C675.791 842.633 674.414 840.67 672.539 839.381C670.723 838.092 668.232 837.447 665.068 837.447C661.26 837.447 657.832 838.473 654.785 840.523C651.738 842.574 649.541 845.533 648.193 849.4C646.904 853.268 646.26 859.684 646.26 868.648V914H621.562V820.66ZM837.598 884.293L862.207 888.424C859.043 897.447 854.033 904.332 847.178 909.078C840.381 913.766 831.855 916.109 821.602 916.109C805.371 916.109 793.359 910.807 785.566 900.201C779.414 891.705 776.338 880.982 776.338 868.033C776.338 852.564 780.381 840.465 788.467 831.734C796.553 822.945 806.777 818.551 819.141 818.551C833.027 818.551 843.984 823.15 852.012 832.35C860.039 841.49 863.877 855.523 863.525 874.449H801.65C801.826 881.773 803.818 887.486 807.627 891.588C811.436 895.631 816.182 897.652 821.865 897.652C825.732 897.652 828.984 896.598 831.621 894.488C834.258 892.379 836.25 888.98 837.598 884.293ZM839.004 859.332C838.828 852.184 836.982 846.764 833.467 843.072C829.951 839.322 825.674 837.447 820.635 837.447C815.244 837.447 810.791 839.41 807.275 843.336C803.76 847.262 802.031 852.594 802.09 859.332H839.004ZM965.127 848.258L940.781 852.652C939.961 847.789 938.086 844.127 935.156 841.666C932.285 839.205 928.535 837.975 923.906 837.975C917.754 837.975 912.832 840.113 909.141 844.391C905.508 848.609 903.691 855.699 903.691 865.66C903.691 876.734 905.537 884.557 909.229 889.127C912.979 893.697 917.988 895.982 924.258 895.982C928.945 895.982 932.783 894.664 935.771 892.027C938.76 889.332 940.869 884.732 942.1 878.229L966.357 882.359C963.838 893.492 959.004 901.9 951.855 907.584C944.707 913.268 935.127 916.109 923.115 916.109C909.463 916.109 898.564 911.803 890.42 903.189C882.334 894.576 878.291 882.652 878.291 867.418C878.291 852.008 882.363 840.025 890.508 831.471C898.652 822.857 909.668 818.551 923.555 818.551C934.922 818.551 943.945 821.012 950.625 825.934C957.363 830.797 962.197 838.238 965.127 848.258ZM978.223 866.012C978.223 857.809 980.244 849.869 984.287 842.193C988.33 834.518 994.043 828.658 1001.43 824.615C1008.87 820.572 1017.16 818.551 1026.3 818.551C1040.42 818.551 1051.99 823.15 1061.02 832.35C1070.04 841.49 1074.55 853.062 1074.55 867.066C1074.55 881.188 1069.98 892.906 1060.84 902.223C1051.76 911.48 1040.3 916.109 1026.47 916.109C1017.92 916.109 1009.75 914.176 1001.95 910.309C994.219 906.441 988.33 900.787 984.287 893.346C980.244 885.846 978.223 876.734 978.223 866.012ZM1003.54 867.33C1003.54 876.588 1005.73 883.678 1010.13 888.6C1014.52 893.521 1019.94 895.982 1026.39 895.982C1032.83 895.982 1038.22 893.521 1042.56 888.6C1046.95 883.678 1049.15 876.529 1049.15 867.154C1049.15 858.014 1046.95 850.982 1042.56 846.061C1038.22 841.139 1032.83 838.678 1026.39 838.678C1019.94 838.678 1014.52 841.139 1010.13 846.061C1005.73 850.982 1003.54 858.072 1003.54 867.33ZM1092.13 820.66H1114.89V833.404C1123.04 823.502 1132.73 818.551 1143.98 818.551C1149.96 818.551 1155.15 819.781 1159.54 822.242C1163.94 824.703 1167.54 828.424 1170.35 833.404C1174.45 828.424 1178.88 824.703 1183.62 822.242C1188.37 819.781 1193.44 818.551 1198.83 818.551C1205.68 818.551 1211.48 819.957 1216.23 822.77C1220.98 825.523 1224.52 829.596 1226.87 834.986C1228.56 838.971 1229.41 845.416 1229.41 854.322V914H1204.72V860.65C1204.72 851.393 1203.87 845.416 1202.17 842.721C1199.88 839.205 1196.37 837.447 1191.62 837.447C1188.16 837.447 1184.91 838.502 1181.87 840.611C1178.82 842.721 1176.62 845.826 1175.27 849.928C1173.93 853.971 1173.25 860.387 1173.25 869.176V914H1148.55V862.848C1148.55 853.766 1148.12 847.906 1147.24 845.27C1146.36 842.633 1144.98 840.67 1143.11 839.381C1141.29 838.092 1138.8 837.447 1135.63 837.447C1131.83 837.447 1128.4 838.473 1125.35 840.523C1122.3 842.574 1120.11 845.533 1118.76 849.4C1117.47 853.268 1116.83 859.684 1116.83 868.648V914H1092.13V820.66ZM1254.11 808.004V785.152H1278.81V808.004H1254.11ZM1254.11 914V820.66H1278.81V914H1254.11ZM1389.11 914H1364.41V866.363C1364.41 856.285 1363.89 849.781 1362.83 846.852C1361.78 843.863 1360.05 841.549 1357.65 839.908C1355.3 838.268 1352.46 837.447 1349.12 837.447C1344.84 837.447 1341.01 838.619 1337.61 840.963C1334.21 843.307 1331.87 846.412 1330.58 850.279C1329.35 854.146 1328.73 861.295 1328.73 871.725V914H1304.03V820.66H1326.97V834.371C1335.12 823.824 1345.37 818.551 1357.73 818.551C1363.18 818.551 1368.16 819.547 1372.68 821.539C1377.19 823.473 1380.59 825.963 1382.87 829.01C1385.21 832.057 1386.83 835.514 1387.71 839.381C1388.64 843.248 1389.11 848.785 1389.11 855.992V914ZM1411.96 920.152L1440.18 923.58C1440.64 926.861 1441.73 929.117 1443.43 930.348C1445.77 932.105 1449.46 932.984 1454.5 932.984C1460.95 932.984 1465.78 932.018 1469 930.084C1471.17 928.795 1472.81 926.715 1473.93 923.844C1474.69 921.793 1475.07 918.014 1475.07 912.506V898.883C1467.69 908.961 1458.37 914 1447.12 914C1434.58 914 1424.65 908.697 1417.32 898.092C1411.58 889.713 1408.71 879.283 1408.71 866.803C1408.71 851.158 1412.46 839.205 1419.96 830.943C1427.52 822.682 1436.89 818.551 1448.09 818.551C1459.63 818.551 1469.15 823.619 1476.65 833.756V820.66H1499.77V904.42C1499.77 915.436 1498.86 923.668 1497.04 929.117C1495.22 934.566 1492.68 938.844 1489.39 941.949C1486.11 945.055 1481.72 947.486 1476.21 949.244C1470.76 951.002 1463.85 951.881 1455.47 951.881C1439.65 951.881 1428.43 949.156 1421.81 943.707C1415.19 938.316 1411.88 931.461 1411.88 923.141C1411.88 922.32 1411.9 921.324 1411.96 920.152ZM1434.02 865.396C1434.02 875.299 1435.93 882.564 1439.74 887.193C1443.6 891.764 1448.35 894.049 1453.97 894.049C1460.01 894.049 1465.11 891.705 1469.27 887.018C1473.43 882.271 1475.51 875.27 1475.51 866.012C1475.51 856.344 1473.52 849.166 1469.53 844.479C1465.55 839.791 1460.51 837.447 1454.41 837.447C1448.5 837.447 1443.6 839.762 1439.74 844.391C1435.93 848.961 1434.02 855.963 1434.02 865.396ZM1529.03 845.357V820.66H1553.73V845.357H1529.03ZM1529.03 914V889.303H1553.73V914H1529.03ZM129.287 1121H100.986L89.7363 1091.73H38.2324L27.5977 1121H0L50.1855 992.152H77.6953L129.287 1121ZM81.3867 1070.02L63.6328 1022.21L46.2305 1070.02H81.3867ZM269.033 1073.63L294.258 1081.62C290.391 1095.69 283.945 1106.15 274.922 1113C265.957 1119.8 254.561 1123.2 240.732 1123.2C223.623 1123.2 209.561 1117.37 198.545 1105.71C187.529 1093.99 182.021 1077.99 182.021 1057.72C182.021 1036.27 187.559 1019.63 198.633 1007.8C209.707 995.902 224.268 989.955 242.314 989.955C258.076 989.955 270.879 994.613 280.723 1003.93C286.582 1009.44 290.977 1017.35 293.906 1027.66L268.154 1033.81C266.631 1027.13 263.438 1021.86 258.574 1017.99C253.77 1014.12 247.91 1012.19 240.996 1012.19C231.445 1012.19 223.682 1015.62 217.705 1022.47C211.787 1029.33 208.828 1040.43 208.828 1055.79C208.828 1072.07 211.758 1083.68 217.617 1090.59C223.477 1097.5 231.094 1100.96 240.469 1100.96C247.383 1100.96 253.33 1098.76 258.311 1094.37C263.291 1089.97 266.865 1083.06 269.033 1073.63ZM341.104 992.152V1039.53C349.072 1030.21 358.594 1025.55 369.668 1025.55C375.352 1025.55 380.479 1026.61 385.049 1028.71C389.619 1030.82 393.047 1033.52 395.332 1036.8C397.676 1040.08 399.258 1043.71 400.078 1047.7C400.957 1051.68 401.396 1057.87 401.396 1066.24V1121H376.699V1071.69C376.699 1061.91 376.23 1055.7 375.293 1053.06C374.355 1050.42 372.686 1048.34 370.283 1046.82C367.939 1045.24 364.98 1044.45 361.406 1044.45C357.305 1044.45 353.643 1045.44 350.42 1047.44C347.197 1049.43 344.824 1052.45 343.301 1056.49C341.836 1060.47 341.104 1066.39 341.104 1074.24V1121H316.406V992.152H341.104ZM450.176 1121H425.479V1027.66H448.418V1040.93C452.344 1034.66 455.859 1030.53 458.965 1028.54C462.129 1026.55 465.703 1025.55 469.688 1025.55C475.312 1025.55 480.732 1027.1 485.947 1030.21L478.301 1051.74C474.141 1049.05 470.273 1047.7 466.699 1047.7C463.242 1047.7 460.312 1048.67 457.91 1050.6C455.508 1052.47 453.604 1055.9 452.197 1060.88C450.85 1065.86 450.176 1076.29 450.176 1092.17V1121ZM496.67 1015V992.152H521.367V1015H496.67ZM496.67 1121V1027.66H521.367V1121H496.67ZM538.066 1094.37L562.852 1090.59C563.906 1095.39 566.045 1099.06 569.268 1101.58C572.49 1104.04 577.002 1105.27 582.803 1105.27C589.189 1105.27 593.994 1104.1 597.217 1101.75C599.385 1100.11 600.469 1097.91 600.469 1095.16C600.469 1093.29 599.883 1091.73 598.711 1090.5C597.48 1089.33 594.727 1088.25 590.449 1087.25C570.527 1082.86 557.9 1078.84 552.568 1075.21C545.186 1070.17 541.494 1063.17 541.494 1054.2C541.494 1046.12 544.688 1039.32 551.074 1033.81C557.461 1028.3 567.363 1025.55 580.781 1025.55C593.555 1025.55 603.047 1027.63 609.258 1031.79C615.469 1035.95 619.746 1042.1 622.09 1050.25L598.799 1054.55C597.803 1050.92 595.898 1048.14 593.086 1046.21C590.332 1044.27 586.377 1043.3 581.221 1043.3C574.717 1043.3 570.059 1044.21 567.246 1046.03C565.371 1047.32 564.434 1048.99 564.434 1051.04C564.434 1052.8 565.254 1054.29 566.895 1055.52C569.121 1057.16 576.797 1059.48 589.922 1062.46C603.105 1065.45 612.305 1069.12 617.52 1073.45C622.676 1077.85 625.254 1083.97 625.254 1091.82C625.254 1100.38 621.68 1107.73 614.531 1113.88C607.383 1120.03 596.807 1123.11 582.803 1123.11C570.088 1123.11 560.01 1120.53 552.568 1115.38C545.186 1110.22 540.352 1103.22 538.066 1094.37ZM689.766 1027.66V1047.35H672.891V1084.96C672.891 1092.58 673.037 1097.04 673.33 1098.32C673.682 1099.55 674.414 1100.58 675.527 1101.4C676.699 1102.22 678.105 1102.63 679.746 1102.63C682.031 1102.63 685.342 1101.84 689.678 1100.26L691.787 1119.42C686.045 1121.88 679.541 1123.11 672.275 1123.11C667.822 1123.11 663.809 1122.38 660.234 1120.91C656.66 1119.39 654.023 1117.46 652.324 1115.11C650.684 1112.71 649.541 1109.49 648.896 1105.44C648.369 1102.57 648.105 1096.77 648.105 1088.04V1047.35H636.768V1027.66H648.105V1009.12L672.891 994.701V1027.66H689.766ZM705.059 1027.66H727.822V1040.4C735.967 1030.5 745.664 1025.55 756.914 1025.55C762.891 1025.55 768.076 1026.78 772.471 1029.24C776.865 1031.7 780.469 1035.42 783.281 1040.4C787.383 1035.42 791.807 1031.7 796.553 1029.24C801.299 1026.78 806.367 1025.55 811.758 1025.55C818.613 1025.55 824.414 1026.96 829.16 1029.77C833.906 1032.52 837.451 1036.6 839.795 1041.99C841.494 1045.97 842.344 1052.42 842.344 1061.32V1121H817.646V1067.65C817.646 1058.39 816.797 1052.42 815.098 1049.72C812.812 1046.21 809.297 1044.45 804.551 1044.45C801.094 1044.45 797.842 1045.5 794.795 1047.61C791.748 1049.72 789.551 1052.83 788.203 1056.93C786.855 1060.97 786.182 1067.39 786.182 1076.18V1121H761.484V1069.85C761.484 1060.77 761.045 1054.91 760.166 1052.27C759.287 1049.63 757.91 1047.67 756.035 1046.38C754.219 1045.09 751.729 1044.45 748.564 1044.45C744.756 1044.45 741.328 1045.47 738.281 1047.52C735.234 1049.57 733.037 1052.53 731.689 1056.4C730.4 1060.27 729.756 1066.68 729.756 1075.65V1121H705.059V1027.66ZM885.498 1056.14L863.086 1052.09C865.605 1043.07 869.941 1036.39 876.094 1032.05C882.246 1027.72 891.387 1025.55 903.516 1025.55C914.531 1025.55 922.734 1026.87 928.125 1029.51C933.516 1032.08 937.295 1035.39 939.463 1039.44C941.689 1043.42 942.803 1050.78 942.803 1061.5L942.539 1090.33C942.539 1098.53 942.92 1104.59 943.682 1108.52C944.502 1112.39 945.996 1116.55 948.164 1121H923.73C923.086 1119.36 922.295 1116.93 921.357 1113.71C920.947 1112.24 920.654 1111.27 920.479 1110.8C916.26 1114.91 911.748 1117.98 906.943 1120.03C902.139 1122.08 897.012 1123.11 891.562 1123.11C881.953 1123.11 874.365 1120.5 868.799 1115.29C863.291 1110.07 860.537 1103.48 860.537 1095.51C860.537 1090.24 861.797 1085.55 864.316 1081.45C866.836 1077.29 870.352 1074.12 874.863 1071.96C879.434 1069.73 885.996 1067.8 894.551 1066.16C906.094 1063.99 914.092 1061.97 918.545 1060.09V1057.63C918.545 1052.88 917.373 1049.52 915.029 1047.52C912.686 1045.47 908.262 1044.45 901.758 1044.45C897.363 1044.45 893.936 1045.33 891.475 1047.08C889.014 1048.78 887.021 1051.8 885.498 1056.14ZM918.545 1076.18C915.381 1077.23 910.371 1078.49 903.516 1079.96C896.66 1081.42 892.178 1082.86 890.068 1084.26C886.846 1086.55 885.234 1089.45 885.234 1092.96C885.234 1096.42 886.523 1099.41 889.102 1101.93C891.68 1104.45 894.961 1105.71 898.945 1105.71C903.398 1105.71 907.646 1104.24 911.689 1101.31C914.678 1099.09 916.641 1096.36 917.578 1093.14C918.223 1091.03 918.545 1087.02 918.545 1081.1V1076.18ZM958.535 1094.37L983.32 1090.59C984.375 1095.39 986.514 1099.06 989.736 1101.58C992.959 1104.04 997.471 1105.27 1003.27 1105.27C1009.66 1105.27 1014.46 1104.1 1017.69 1101.75C1019.85 1100.11 1020.94 1097.91 1020.94 1095.16C1020.94 1093.29 1020.35 1091.73 1019.18 1090.5C1017.95 1089.33 1015.2 1088.25 1010.92 1087.25C990.996 1082.86 978.369 1078.84 973.037 1075.21C965.654 1070.17 961.963 1063.17 961.963 1054.2C961.963 1046.12 965.156 1039.32 971.543 1033.81C977.93 1028.3 987.832 1025.55 1001.25 1025.55C1014.02 1025.55 1023.52 1027.63 1029.73 1031.79C1035.94 1035.95 1040.21 1042.1 1042.56 1050.25L1019.27 1054.55C1018.27 1050.92 1016.37 1048.14 1013.55 1046.21C1010.8 1044.27 1006.85 1043.3 1001.69 1043.3C995.186 1043.3 990.527 1044.21 987.715 1046.03C985.84 1047.32 984.902 1048.99 984.902 1051.04C984.902 1052.8 985.723 1054.29 987.363 1055.52C989.59 1057.16 997.266 1059.48 1010.39 1062.46C1023.57 1065.45 1032.77 1069.12 1037.99 1073.45C1043.14 1077.85 1045.72 1083.97 1045.72 1091.82C1045.72 1100.38 1042.15 1107.73 1035 1113.88C1027.85 1120.03 1017.28 1123.11 1003.27 1123.11C990.557 1123.11 980.479 1120.53 973.037 1115.38C965.654 1110.22 960.82 1103.22 958.535 1094.37ZM1111.11 1079.08L1136.43 1076.62C1137.95 1085.11 1141.03 1091.35 1145.65 1095.34C1150.34 1099.32 1156.64 1101.31 1164.55 1101.31C1172.93 1101.31 1179.23 1099.55 1183.45 1096.04C1187.72 1092.46 1189.86 1088.3 1189.86 1083.56C1189.86 1080.51 1188.96 1077.93 1187.14 1075.82C1185.38 1073.66 1182.28 1071.78 1177.82 1070.2C1174.78 1069.14 1167.83 1067.27 1156.99 1064.57C1143.05 1061.12 1133.26 1056.87 1127.64 1051.83C1119.73 1044.74 1115.77 1036.1 1115.77 1025.9C1115.77 1019.34 1117.62 1013.22 1121.31 1007.53C1125.06 1001.79 1130.42 997.426 1137.39 994.438C1144.42 991.449 1152.89 989.955 1162.79 989.955C1178.96 989.955 1191.12 993.5 1199.27 1000.59C1207.47 1007.68 1211.78 1017.14 1212.19 1028.98L1186.17 1030.12C1185.06 1023.5 1182.66 1018.75 1178.96 1015.88C1175.33 1012.95 1169.85 1011.49 1162.53 1011.49C1154.97 1011.49 1149.05 1013.04 1144.78 1016.15C1142.02 1018.14 1140.64 1020.8 1140.64 1024.14C1140.64 1027.19 1141.93 1029.8 1144.51 1031.97C1147.79 1034.72 1155.76 1037.59 1168.42 1040.58C1181.07 1043.57 1190.42 1046.67 1196.46 1049.9C1202.55 1053.06 1207.29 1057.43 1210.69 1062.99C1214.15 1068.5 1215.88 1075.33 1215.88 1083.47C1215.88 1090.85 1213.83 1097.77 1209.73 1104.21C1205.62 1110.66 1199.82 1115.46 1192.32 1118.63C1184.82 1121.73 1175.48 1123.29 1164.29 1123.29C1148 1123.29 1135.49 1119.54 1126.76 1112.04C1118.03 1104.48 1112.81 1093.49 1111.11 1079.08ZM1280.39 1027.66V1047.35H1263.52V1084.96C1263.52 1092.58 1263.66 1097.04 1263.96 1098.32C1264.31 1099.55 1265.04 1100.58 1266.15 1101.4C1267.32 1102.22 1268.73 1102.63 1270.37 1102.63C1272.66 1102.63 1275.97 1101.84 1280.3 1100.26L1282.41 1119.42C1276.67 1121.88 1270.17 1123.11 1262.9 1123.11C1258.45 1123.11 1254.43 1122.38 1250.86 1120.91C1247.29 1119.39 1244.65 1117.46 1242.95 1115.11C1241.31 1112.71 1240.17 1109.49 1239.52 1105.44C1238.99 1102.57 1238.73 1096.77 1238.73 1088.04V1047.35H1227.39V1027.66H1238.73V1009.12L1263.52 994.701V1027.66H1280.39ZM1291.82 1073.01C1291.82 1064.81 1293.84 1056.87 1297.88 1049.19C1301.92 1041.52 1307.64 1035.66 1315.02 1031.62C1322.46 1027.57 1330.75 1025.55 1339.89 1025.55C1354.01 1025.55 1365.59 1030.15 1374.61 1039.35C1383.63 1048.49 1388.14 1060.06 1388.14 1074.07C1388.14 1088.19 1383.57 1099.91 1374.43 1109.22C1365.35 1118.48 1353.9 1123.11 1340.07 1123.11C1331.51 1123.11 1323.34 1121.18 1315.55 1117.31C1307.81 1113.44 1301.92 1107.79 1297.88 1100.35C1293.84 1092.85 1291.82 1083.73 1291.82 1073.01ZM1317.13 1074.33C1317.13 1083.59 1319.33 1090.68 1323.72 1095.6C1328.12 1100.52 1333.54 1102.98 1339.98 1102.98C1346.43 1102.98 1351.82 1100.52 1356.15 1095.6C1360.55 1090.68 1362.74 1083.53 1362.74 1074.15C1362.74 1065.01 1360.55 1057.98 1356.15 1053.06C1351.82 1048.14 1346.43 1045.68 1339.98 1045.68C1333.54 1045.68 1328.12 1048.14 1323.72 1053.06C1319.33 1057.98 1317.13 1065.07 1317.13 1074.33ZM1431.21 1121H1406.51V1027.66H1429.45V1040.93C1433.38 1034.66 1436.89 1030.53 1440 1028.54C1443.16 1026.55 1446.74 1025.55 1450.72 1025.55C1456.35 1025.55 1461.77 1027.1 1466.98 1030.21L1459.34 1051.74C1455.18 1049.05 1451.31 1047.7 1447.73 1047.7C1444.28 1047.7 1441.35 1048.67 1438.95 1050.6C1436.54 1052.47 1434.64 1055.9 1433.23 1060.88C1431.88 1065.86 1431.21 1076.29 1431.21 1092.17V1121ZM1466.02 1027.66H1492.29L1514.62 1093.93L1536.42 1027.66H1561.99L1529.03 1117.48L1523.14 1133.74C1520.98 1139.19 1518.9 1143.35 1516.9 1146.22C1514.97 1149.1 1512.71 1151.41 1510.14 1153.17C1507.62 1154.98 1504.48 1156.39 1500.73 1157.39C1497.04 1158.38 1492.85 1158.88 1488.16 1158.88C1483.42 1158.88 1478.76 1158.38 1474.19 1157.39L1471.99 1138.05C1475.86 1138.81 1479.35 1139.19 1482.45 1139.19C1488.19 1139.19 1492.44 1137.49 1495.2 1134.1C1497.95 1130.76 1500.06 1126.48 1501.52 1121.26L1466.02 1027.66Z" fill="#FEFAFA"/>
<path d="M13.3594 1719V1590.15H38.6719L91.4062 1676.2V1590.15H115.576V1719H89.4727L37.5293 1634.98V1719H13.3594ZM137.285 1671.01C137.285 1662.81 139.307 1654.87 143.35 1647.19C147.393 1639.52 153.105 1633.66 160.488 1629.62C167.93 1625.57 176.221 1623.55 185.361 1623.55C199.482 1623.55 211.055 1628.15 220.078 1637.35C229.102 1646.49 233.613 1658.06 233.613 1672.07C233.613 1686.19 229.043 1697.91 219.902 1707.22C210.82 1716.48 199.365 1721.11 185.537 1721.11C176.982 1721.11 168.809 1719.18 161.016 1715.31C153.281 1711.44 147.393 1705.79 143.35 1698.35C139.307 1690.85 137.285 1681.73 137.285 1671.01ZM162.598 1672.33C162.598 1681.59 164.795 1688.68 169.189 1693.6C173.584 1698.52 179.004 1700.98 185.449 1700.98C191.895 1700.98 197.285 1698.52 201.621 1693.6C206.016 1688.68 208.213 1681.53 208.213 1672.15C208.213 1663.01 206.016 1655.98 201.621 1651.06C197.285 1646.14 191.895 1643.68 185.449 1643.68C179.004 1643.68 173.584 1646.14 169.189 1651.06C164.795 1655.98 162.598 1663.07 162.598 1672.33ZM276.68 1719H251.982V1625.66H274.922V1638.93C278.848 1632.66 282.363 1628.53 285.469 1626.54C288.633 1624.55 292.207 1623.55 296.191 1623.55C301.816 1623.55 307.236 1625.1 312.451 1628.21L304.805 1649.74C300.645 1647.05 296.777 1645.7 293.203 1645.7C289.746 1645.7 286.816 1646.67 284.414 1648.6C282.012 1650.47 280.107 1653.9 278.701 1658.88C277.354 1663.86 276.68 1674.29 276.68 1690.17V1719ZM365.977 1625.66V1645.35H349.102V1682.96C349.102 1690.58 349.248 1695.04 349.541 1696.32C349.893 1697.55 350.625 1698.58 351.738 1699.4C352.91 1700.22 354.316 1700.63 355.957 1700.63C358.242 1700.63 361.553 1699.84 365.889 1698.26L367.998 1717.42C362.256 1719.88 355.752 1721.11 348.486 1721.11C344.033 1721.11 340.02 1720.38 336.445 1718.91C332.871 1717.39 330.234 1715.46 328.535 1713.11C326.895 1710.71 325.752 1707.49 325.107 1703.44C324.58 1700.57 324.316 1694.77 324.316 1686.04V1645.35H312.979V1625.66H324.316V1607.12L349.102 1592.7V1625.66H365.977ZM407.725 1590.15V1637.53C415.693 1628.21 425.215 1623.55 436.289 1623.55C441.973 1623.55 447.1 1624.61 451.67 1626.71C456.24 1628.82 459.668 1631.52 461.953 1634.8C464.297 1638.08 465.879 1641.71 466.699 1645.7C467.578 1649.68 468.018 1655.87 468.018 1664.24V1719H443.32V1669.69C443.32 1659.91 442.852 1653.7 441.914 1651.06C440.977 1648.42 439.307 1646.34 436.904 1644.82C434.561 1643.24 431.602 1642.45 428.027 1642.45C423.926 1642.45 420.264 1643.44 417.041 1645.44C413.818 1647.43 411.445 1650.45 409.922 1654.49C408.457 1658.47 407.725 1664.39 407.725 1672.24V1719H383.027V1590.15H407.725ZM542.197 1719V1590.15H566.895V1636.56C574.512 1627.89 583.535 1623.55 593.965 1623.55C605.332 1623.55 614.736 1627.68 622.178 1635.94C629.619 1644.15 633.34 1655.95 633.34 1671.36C633.34 1687.3 629.531 1699.58 621.914 1708.19C614.355 1716.8 605.156 1721.11 594.316 1721.11C588.984 1721.11 583.711 1719.79 578.496 1717.15C573.34 1714.46 568.887 1710.5 565.137 1705.29V1719H542.197ZM566.719 1670.31C566.719 1679.98 568.242 1687.12 571.289 1691.75C575.566 1698.32 581.25 1701.6 588.34 1701.6C593.789 1701.6 598.418 1699.28 602.227 1694.65C606.094 1689.97 608.027 1682.61 608.027 1672.59C608.027 1661.93 606.094 1654.25 602.227 1649.57C598.359 1644.82 593.408 1642.45 587.373 1642.45C581.455 1642.45 576.533 1644.76 572.607 1649.39C568.682 1653.96 566.719 1660.93 566.719 1670.31ZM641.602 1625.66H667.881L690.205 1691.93L712.002 1625.66H737.578L704.619 1715.48L698.73 1731.74C696.562 1737.19 694.482 1741.35 692.49 1744.22C690.557 1747.1 688.301 1749.41 685.723 1751.17C683.203 1752.98 680.068 1754.39 676.318 1755.39C672.627 1756.38 668.438 1756.88 663.75 1756.88C659.004 1756.88 654.346 1756.38 649.775 1755.39L647.578 1736.05C651.445 1736.81 654.932 1737.19 658.037 1737.19C663.779 1737.19 668.027 1735.49 670.781 1732.1C673.535 1728.76 675.645 1724.48 677.109 1719.26L641.602 1625.66ZM804.023 1719V1590.15H829.336L882.07 1676.2V1590.15H906.24V1719H880.137L828.193 1634.98V1719H804.023ZM927.949 1671.01C927.949 1662.81 929.971 1654.87 934.014 1647.19C938.057 1639.52 943.77 1633.66 951.152 1629.62C958.594 1625.57 966.885 1623.55 976.025 1623.55C990.146 1623.55 1001.72 1628.15 1010.74 1637.35C1019.77 1646.49 1024.28 1658.06 1024.28 1672.07C1024.28 1686.19 1019.71 1697.91 1010.57 1707.22C1001.48 1716.48 990.029 1721.11 976.201 1721.11C967.646 1721.11 959.473 1719.18 951.68 1715.31C943.945 1711.44 938.057 1705.79 934.014 1698.35C929.971 1690.85 927.949 1681.73 927.949 1671.01ZM953.262 1672.33C953.262 1681.59 955.459 1688.68 959.854 1693.6C964.248 1698.52 969.668 1700.98 976.113 1700.98C982.559 1700.98 987.949 1698.52 992.285 1693.6C996.68 1688.68 998.877 1681.53 998.877 1672.15C998.877 1663.01 996.68 1655.98 992.285 1651.06C987.949 1646.14 982.559 1643.68 976.113 1643.68C969.668 1643.68 964.248 1646.14 959.854 1651.06C955.459 1655.98 953.262 1663.07 953.262 1672.33ZM1067.34 1719H1042.65V1625.66H1065.59V1638.93C1069.51 1632.66 1073.03 1628.53 1076.13 1626.54C1079.3 1624.55 1082.87 1623.55 1086.86 1623.55C1092.48 1623.55 1097.9 1625.1 1103.12 1628.21L1095.47 1649.74C1091.31 1647.05 1087.44 1645.7 1083.87 1645.7C1080.41 1645.7 1077.48 1646.67 1075.08 1648.6C1072.68 1650.47 1070.77 1653.9 1069.37 1658.88C1068.02 1663.86 1067.34 1674.29 1067.34 1690.17V1719ZM1156.64 1625.66V1645.35H1139.77V1682.96C1139.77 1690.58 1139.91 1695.04 1140.21 1696.32C1140.56 1697.55 1141.29 1698.58 1142.4 1699.4C1143.57 1700.22 1144.98 1700.63 1146.62 1700.63C1148.91 1700.63 1152.22 1699.84 1156.55 1698.26L1158.66 1717.42C1152.92 1719.88 1146.42 1721.11 1139.15 1721.11C1134.7 1721.11 1130.68 1720.38 1127.11 1718.91C1123.54 1717.39 1120.9 1715.46 1119.2 1713.11C1117.56 1710.71 1116.42 1707.49 1115.77 1703.44C1115.24 1700.57 1114.98 1694.77 1114.98 1686.04V1645.35H1103.64V1625.66H1114.98V1607.12L1139.77 1592.7V1625.66H1156.64ZM1198.39 1590.15V1637.53C1206.36 1628.21 1215.88 1623.55 1226.95 1623.55C1232.64 1623.55 1237.76 1624.61 1242.33 1626.71C1246.9 1628.82 1250.33 1631.52 1252.62 1634.8C1254.96 1638.08 1256.54 1641.71 1257.36 1645.7C1258.24 1649.68 1258.68 1655.87 1258.68 1664.24V1719H1233.98V1669.69C1233.98 1659.91 1233.52 1653.7 1232.58 1651.06C1231.64 1648.42 1229.97 1646.34 1227.57 1644.82C1225.22 1643.24 1222.27 1642.45 1218.69 1642.45C1214.59 1642.45 1210.93 1643.44 1207.71 1645.44C1204.48 1647.43 1202.11 1650.45 1200.59 1654.49C1199.12 1658.47 1198.39 1664.39 1198.39 1672.24V1719H1173.69V1590.15H1198.39ZM1301.22 1719L1271.69 1625.66H1295.68L1313.17 1686.83L1329.26 1625.66H1353.08L1368.63 1686.83L1386.47 1625.66H1410.82L1380.85 1719H1357.12L1341.04 1658.97L1325.21 1719H1301.22ZM1477.97 1689.29L1502.58 1693.42C1499.41 1702.45 1494.4 1709.33 1487.55 1714.08C1480.75 1718.77 1472.23 1721.11 1461.97 1721.11C1445.74 1721.11 1433.73 1715.81 1425.94 1705.2C1419.79 1696.71 1416.71 1685.98 1416.71 1673.03C1416.71 1657.56 1420.75 1645.46 1428.84 1636.73C1436.92 1627.95 1447.15 1623.55 1459.51 1623.55C1473.4 1623.55 1484.36 1628.15 1492.38 1637.35C1500.41 1646.49 1504.25 1660.52 1503.9 1679.45H1442.02C1442.2 1686.77 1444.19 1692.49 1448 1696.59C1451.81 1700.63 1456.55 1702.65 1462.24 1702.65C1466.1 1702.65 1469.36 1701.6 1471.99 1699.49C1474.63 1697.38 1476.62 1693.98 1477.97 1689.29ZM1479.38 1664.33C1479.2 1657.18 1477.35 1651.76 1473.84 1648.07C1470.32 1644.32 1466.04 1642.45 1461.01 1642.45C1455.62 1642.45 1451.16 1644.41 1447.65 1648.34C1444.13 1652.26 1442.4 1657.59 1442.46 1664.33H1479.38ZM1515.41 1692.37L1540.2 1688.59C1541.25 1693.39 1543.39 1697.06 1546.61 1699.58C1549.83 1702.04 1554.35 1703.27 1560.15 1703.27C1566.53 1703.27 1571.34 1702.1 1574.56 1699.75C1576.73 1698.11 1577.81 1695.91 1577.81 1693.16C1577.81 1691.29 1577.23 1689.73 1576.05 1688.5C1574.82 1687.33 1572.07 1686.25 1567.79 1685.25C1547.87 1680.86 1535.24 1676.84 1529.91 1673.21C1522.53 1668.17 1518.84 1661.17 1518.84 1652.2C1518.84 1644.12 1522.03 1637.32 1528.42 1631.81C1534.8 1626.3 1544.71 1623.55 1558.12 1623.55C1570.9 1623.55 1580.39 1625.63 1586.6 1629.79C1592.81 1633.95 1597.09 1640.1 1599.43 1648.25L1576.14 1652.55C1575.15 1648.92 1573.24 1646.14 1570.43 1644.21C1567.68 1642.27 1563.72 1641.3 1558.56 1641.3C1552.06 1641.3 1547.4 1642.21 1544.59 1644.03C1542.71 1645.32 1541.78 1646.99 1541.78 1649.04C1541.78 1650.8 1542.6 1652.29 1544.24 1653.52C1546.46 1655.16 1554.14 1657.48 1567.27 1660.46C1580.45 1663.45 1589.65 1667.12 1594.86 1671.45C1600.02 1675.85 1602.6 1681.97 1602.6 1689.82C1602.6 1698.38 1599.02 1705.73 1591.88 1711.88C1584.73 1718.03 1574.15 1721.11 1560.15 1721.11C1547.43 1721.11 1537.35 1718.53 1529.91 1713.38C1522.53 1708.22 1517.7 1701.22 1515.41 1692.37ZM1667.11 1625.66V1645.35H1650.23V1682.96C1650.23 1690.58 1650.38 1695.04 1650.67 1696.32C1651.03 1697.55 1651.76 1698.58 1652.87 1699.4C1654.04 1700.22 1655.45 1700.63 1657.09 1700.63C1659.38 1700.63 1662.69 1699.84 1667.02 1698.26L1669.13 1717.42C1663.39 1719.88 1656.88 1721.11 1649.62 1721.11C1645.17 1721.11 1641.15 1720.38 1637.58 1718.91C1634 1717.39 1631.37 1715.46 1629.67 1713.11C1628.03 1710.71 1626.88 1707.49 1626.24 1703.44C1625.71 1700.57 1625.45 1694.77 1625.45 1686.04V1645.35H1614.11V1625.66H1625.45V1607.12L1650.23 1592.7V1625.66H1667.11Z" fill="#FEFAFA"/>
<path d="M31.377 2431L0.615234 2302.15H27.2461L46.6699 2390.66L70.2246 2302.15H101.162L123.75 2392.15L143.525 2302.15H169.717L138.428 2431H110.83L85.166 2334.67L59.5898 2431H31.377ZM181.318 2325V2302.15H206.016V2325H181.318ZM181.318 2431V2337.66H206.016V2431H181.318ZM316.318 2431H291.621V2383.36C291.621 2373.29 291.094 2366.78 290.039 2363.85C288.984 2360.86 287.256 2358.55 284.854 2356.91C282.51 2355.27 279.668 2354.45 276.328 2354.45C272.051 2354.45 268.213 2355.62 264.814 2357.96C261.416 2360.31 259.072 2363.41 257.783 2367.28C256.553 2371.15 255.938 2378.29 255.938 2388.72V2431H231.24V2337.66H254.18V2351.37C262.324 2340.82 272.578 2335.55 284.941 2335.55C290.391 2335.55 295.371 2336.55 299.883 2338.54C304.395 2340.47 307.793 2342.96 310.078 2346.01C312.422 2349.06 314.033 2352.51 314.912 2356.38C315.85 2360.25 316.318 2365.79 316.318 2372.99V2431ZM384.258 2337.66V2357.35H367.383V2394.96C367.383 2402.58 367.529 2407.04 367.822 2408.32C368.174 2409.55 368.906 2410.58 370.02 2411.4C371.191 2412.22 372.598 2412.63 374.238 2412.63C376.523 2412.63 379.834 2411.84 384.17 2410.26L386.279 2429.42C380.537 2431.88 374.033 2433.11 366.768 2433.11C362.314 2433.11 358.301 2432.38 354.727 2430.91C351.152 2429.39 348.516 2427.46 346.816 2425.11C345.176 2422.71 344.033 2419.49 343.389 2415.44C342.861 2412.57 342.598 2406.77 342.598 2398.04V2357.35H331.26V2337.66H342.598V2319.12L367.383 2304.7V2337.66H384.258ZM455.449 2401.29L480.059 2405.42C476.895 2414.45 471.885 2421.33 465.029 2426.08C458.232 2430.77 449.707 2433.11 439.453 2433.11C423.223 2433.11 411.211 2427.81 403.418 2417.2C397.266 2408.71 394.189 2397.98 394.189 2385.03C394.189 2369.56 398.232 2357.46 406.318 2348.73C414.404 2339.95 424.629 2335.55 436.992 2335.55C450.879 2335.55 461.836 2340.15 469.863 2349.35C477.891 2358.49 481.729 2372.52 481.377 2391.45H419.502C419.678 2398.77 421.67 2404.49 425.479 2408.59C429.287 2412.63 434.033 2414.65 439.717 2414.65C443.584 2414.65 446.836 2413.6 449.473 2411.49C452.109 2409.38 454.102 2405.98 455.449 2401.29ZM456.855 2376.33C456.68 2369.18 454.834 2363.76 451.318 2360.07C447.803 2356.32 443.525 2354.45 438.486 2354.45C433.096 2354.45 428.643 2356.41 425.127 2360.34C421.611 2364.26 419.883 2369.59 419.941 2376.33H456.855ZM525.234 2431H500.537V2337.66H523.477V2350.93C527.402 2344.66 530.918 2340.53 534.023 2338.54C537.188 2336.55 540.762 2335.55 544.746 2335.55C550.371 2335.55 555.791 2337.1 561.006 2340.21L553.359 2361.74C549.199 2359.05 545.332 2357.7 541.758 2357.7C538.301 2357.7 535.371 2358.67 532.969 2360.6C530.566 2362.47 528.662 2365.9 527.256 2370.88C525.908 2375.86 525.234 2386.29 525.234 2402.17V2431ZM622.705 2431V2303.21H648.721V2409.29H713.408V2431H622.705ZM731.865 2325V2302.15H756.562V2325H731.865ZM731.865 2431V2337.66H756.562V2431H731.865ZM779.678 2437.15L807.891 2440.58C808.359 2443.86 809.443 2446.12 811.143 2447.35C813.486 2449.11 817.178 2449.98 822.217 2449.98C828.662 2449.98 833.496 2449.02 836.719 2447.08C838.887 2445.79 840.527 2443.71 841.641 2440.84C842.402 2438.79 842.783 2435.01 842.783 2429.51V2415.88C835.4 2425.96 826.084 2431 814.834 2431C802.295 2431 792.363 2425.7 785.039 2415.09C779.297 2406.71 776.426 2396.28 776.426 2383.8C776.426 2368.16 780.176 2356.21 787.676 2347.94C795.234 2339.68 804.609 2335.55 815.801 2335.55C827.344 2335.55 836.865 2340.62 844.365 2350.76V2337.66H867.48V2421.42C867.48 2432.44 866.572 2440.67 864.756 2446.12C862.939 2451.57 860.391 2455.84 857.109 2458.95C853.828 2462.05 849.434 2464.49 843.926 2466.24C838.477 2468 831.562 2468.88 823.184 2468.88C807.363 2468.88 796.143 2466.16 789.521 2460.71C782.9 2455.32 779.59 2448.46 779.59 2440.14C779.59 2439.32 779.619 2438.32 779.678 2437.15ZM801.738 2382.4C801.738 2392.3 803.643 2399.56 807.451 2404.19C811.318 2408.76 816.064 2411.05 821.689 2411.05C827.725 2411.05 832.822 2408.71 836.982 2404.02C841.143 2399.27 843.223 2392.27 843.223 2383.01C843.223 2373.34 841.23 2366.17 837.246 2361.48C833.262 2356.79 828.223 2354.45 822.129 2354.45C816.211 2354.45 811.318 2356.76 807.451 2361.39C803.643 2365.96 801.738 2372.96 801.738 2382.4ZM916.611 2302.15V2349.53C924.58 2340.21 934.102 2335.55 945.176 2335.55C950.859 2335.55 955.986 2336.61 960.557 2338.71C965.127 2340.82 968.555 2343.52 970.84 2346.8C973.184 2350.08 974.766 2353.71 975.586 2357.7C976.465 2361.68 976.904 2367.87 976.904 2376.24V2431H952.207V2381.69C952.207 2371.91 951.738 2365.7 950.801 2363.06C949.863 2360.42 948.193 2358.34 945.791 2356.82C943.447 2355.24 940.488 2354.45 936.914 2354.45C932.812 2354.45 929.15 2355.44 925.928 2357.44C922.705 2359.43 920.332 2362.45 918.809 2366.49C917.344 2370.47 916.611 2376.39 916.611 2384.24V2431H891.914V2302.15H916.611ZM1044.84 2337.66V2357.35H1027.97V2394.96C1027.97 2402.58 1028.12 2407.04 1028.41 2408.32C1028.76 2409.55 1029.49 2410.58 1030.61 2411.4C1031.78 2412.22 1033.18 2412.63 1034.82 2412.63C1037.11 2412.63 1040.42 2411.84 1044.76 2410.26L1046.87 2429.42C1041.12 2431.88 1034.62 2433.11 1027.35 2433.11C1022.9 2433.11 1018.89 2432.38 1015.31 2430.91C1011.74 2429.39 1009.1 2427.46 1007.4 2425.11C1005.76 2422.71 1004.62 2419.49 1003.97 2415.44C1003.45 2412.57 1003.18 2406.77 1003.18 2398.04V2357.35H991.846V2337.66H1003.18V2319.12L1027.97 2304.7V2337.66H1044.84Z" fill="#FEFAFA"/>
<path d="M59.5898 2959.15H85.5176V3040.71C85.5176 3051.38 84.5801 3059.58 82.7051 3065.32C80.1855 3072.82 75.6152 3078.86 68.9941 3083.43C62.373 3087.94 53.6426 3090.2 42.8027 3090.2C30.0879 3090.2 20.3027 3086.65 13.4473 3079.56C6.5918 3072.41 3.13477 3061.96 3.07617 3048.19L27.5977 3045.37C27.8906 3052.76 28.9746 3057.97 30.8496 3061.02C33.6621 3065.65 37.9395 3067.96 43.6816 3067.96C49.4824 3067.96 53.584 3066.32 55.9863 3063.04C58.3887 3059.7 59.5898 3052.81 59.5898 3042.38V2959.15ZM113.115 2982V2959.15H137.812V2982H113.115ZM113.115 3088V2994.66H137.812V3088H113.115ZM160.928 3094.15L189.141 3097.58C189.609 3100.86 190.693 3103.12 192.393 3104.35C194.736 3106.11 198.428 3106.98 203.467 3106.98C209.912 3106.98 214.746 3106.02 217.969 3104.08C220.137 3102.79 221.777 3100.71 222.891 3097.84C223.652 3095.79 224.033 3092.01 224.033 3086.51V3072.88C216.65 3082.96 207.334 3088 196.084 3088C183.545 3088 173.613 3082.7 166.289 3072.09C160.547 3063.71 157.676 3053.28 157.676 3040.8C157.676 3025.16 161.426 3013.21 168.926 3004.94C176.484 2996.68 185.859 2992.55 197.051 2992.55C208.594 2992.55 218.115 2997.62 225.615 3007.76V2994.66H248.73V3078.42C248.73 3089.44 247.822 3097.67 246.006 3103.12C244.189 3108.57 241.641 3112.84 238.359 3115.95C235.078 3119.05 230.684 3121.49 225.176 3123.24C219.727 3125 212.812 3125.88 204.434 3125.88C188.613 3125.88 177.393 3123.16 170.771 3117.71C164.15 3112.32 160.84 3105.46 160.84 3097.14C160.84 3096.32 160.869 3095.32 160.928 3094.15ZM182.988 3039.4C182.988 3049.3 184.893 3056.56 188.701 3061.19C192.568 3065.76 197.314 3068.05 202.939 3068.05C208.975 3068.05 214.072 3065.71 218.232 3061.02C222.393 3056.27 224.473 3049.27 224.473 3040.01C224.473 3030.34 222.48 3023.17 218.496 3018.48C214.512 3013.79 209.473 3011.45 203.379 3011.45C197.461 3011.45 192.568 3013.76 188.701 3018.39C184.893 3022.96 182.988 3029.96 182.988 3039.4ZM291.709 3023.14L269.297 3019.09C271.816 3010.07 276.152 3003.39 282.305 2999.05C288.457 2994.72 297.598 2992.55 309.727 2992.55C320.742 2992.55 328.945 2993.87 334.336 2996.51C339.727 2999.08 343.506 3002.39 345.674 3006.44C347.9 3010.42 349.014 3017.78 349.014 3028.5L348.75 3057.33C348.75 3065.53 349.131 3071.59 349.893 3075.52C350.713 3079.39 352.207 3083.55 354.375 3088H329.941C329.297 3086.36 328.506 3083.93 327.568 3080.71C327.158 3079.24 326.865 3078.27 326.689 3077.8C322.471 3081.91 317.959 3084.98 313.154 3087.03C308.35 3089.08 303.223 3090.11 297.773 3090.11C288.164 3090.11 280.576 3087.5 275.01 3082.29C269.502 3077.07 266.748 3070.48 266.748 3062.51C266.748 3057.24 268.008 3052.55 270.527 3048.45C273.047 3044.29 276.562 3041.12 281.074 3038.96C285.645 3036.73 292.207 3034.8 300.762 3033.16C312.305 3030.99 320.303 3028.97 324.756 3027.09V3024.63C324.756 3019.88 323.584 3016.52 321.24 3014.52C318.896 3012.47 314.473 3011.45 307.969 3011.45C303.574 3011.45 300.146 3012.33 297.686 3014.08C295.225 3015.78 293.232 3018.8 291.709 3023.14ZM324.756 3043.18C321.592 3044.23 316.582 3045.49 309.727 3046.96C302.871 3048.42 298.389 3049.86 296.279 3051.26C293.057 3053.55 291.445 3056.45 291.445 3059.96C291.445 3063.42 292.734 3066.41 295.312 3068.93C297.891 3071.45 301.172 3072.71 305.156 3072.71C309.609 3072.71 313.857 3071.24 317.9 3068.31C320.889 3066.09 322.852 3063.36 323.789 3060.14C324.434 3058.03 324.756 3054.02 324.756 3048.1V3043.18ZM397.09 3088H372.393V2994.66H395.332V3007.93C399.258 3001.66 402.773 2997.53 405.879 2995.54C409.043 2993.55 412.617 2992.55 416.602 2992.55C422.227 2992.55 427.646 2994.1 432.861 2997.21L425.215 3018.74C421.055 3016.05 417.188 3014.7 413.613 3014.7C410.156 3014.7 407.227 3015.67 404.824 3017.6C402.422 3019.47 400.518 3022.9 399.111 3027.88C397.764 3032.86 397.09 3043.29 397.09 3059.17V3088ZM486.387 2994.66V3014.35H469.512V3051.96C469.512 3059.58 469.658 3064.04 469.951 3065.32C470.303 3066.55 471.035 3067.58 472.148 3068.4C473.32 3069.22 474.727 3069.63 476.367 3069.63C478.652 3069.63 481.963 3068.84 486.299 3067.26L488.408 3086.42C482.666 3088.88 476.162 3090.11 468.896 3090.11C464.443 3090.11 460.43 3089.38 456.855 3087.91C453.281 3086.39 450.645 3084.46 448.945 3082.11C447.305 3079.71 446.162 3076.49 445.518 3072.44C444.99 3069.57 444.727 3063.77 444.727 3055.04V3014.35H433.389V2994.66H444.727V2976.12L469.512 2961.7V2994.66H486.387ZM528.135 2959.15V3006.53C536.104 2997.21 545.625 2992.55 556.699 2992.55C562.383 2992.55 567.51 2993.61 572.08 2995.71C576.65 2997.82 580.078 3000.52 582.363 3003.8C584.707 3007.08 586.289 3010.71 587.109 3014.7C587.988 3018.68 588.428 3024.87 588.428 3033.24V3088H563.73V3038.69C563.73 3028.91 563.262 3022.7 562.324 3020.06C561.387 3017.42 559.717 3015.34 557.314 3013.82C554.971 3012.24 552.012 3011.45 548.438 3011.45C544.336 3011.45 540.674 3012.44 537.451 3014.44C534.229 3016.43 531.855 3019.45 530.332 3023.49C528.867 3027.47 528.135 3033.39 528.135 3041.24V3088H503.438V2959.15H528.135ZM632.021 3023.14L609.609 3019.09C612.129 3010.07 616.465 3003.39 622.617 2999.05C628.77 2994.72 637.91 2992.55 650.039 2992.55C661.055 2992.55 669.258 2993.87 674.648 2996.51C680.039 2999.08 683.818 3002.39 685.986 3006.44C688.213 3010.42 689.326 3017.78 689.326 3028.5L689.062 3057.33C689.062 3065.53 689.443 3071.59 690.205 3075.52C691.025 3079.39 692.52 3083.55 694.688 3088H670.254C669.609 3086.36 668.818 3083.93 667.881 3080.71C667.471 3079.24 667.178 3078.27 667.002 3077.8C662.783 3081.91 658.271 3084.98 653.467 3087.03C648.662 3089.08 643.535 3090.11 638.086 3090.11C628.477 3090.11 620.889 3087.5 615.322 3082.29C609.814 3077.07 607.061 3070.48 607.061 3062.51C607.061 3057.24 608.32 3052.55 610.84 3048.45C613.359 3044.29 616.875 3041.12 621.387 3038.96C625.957 3036.73 632.52 3034.8 641.074 3033.16C652.617 3030.99 660.615 3028.97 665.068 3027.09V3024.63C665.068 3019.88 663.896 3016.52 661.553 3014.52C659.209 3012.47 654.785 3011.45 648.281 3011.45C643.887 3011.45 640.459 3012.33 637.998 3014.08C635.537 3015.78 633.545 3018.8 632.021 3023.14ZM665.068 3043.18C661.904 3044.23 656.895 3045.49 650.039 3046.96C643.184 3048.42 638.701 3049.86 636.592 3051.26C633.369 3053.55 631.758 3056.45 631.758 3059.96C631.758 3063.42 633.047 3066.41 635.625 3068.93C638.203 3071.45 641.484 3072.71 645.469 3072.71C649.922 3072.71 654.17 3071.24 658.213 3068.31C661.201 3066.09 663.164 3063.36 664.102 3060.14C664.746 3058.03 665.068 3054.02 665.068 3048.1V3043.18ZM798.662 3088H773.965V3040.36C773.965 3030.29 773.438 3023.78 772.383 3020.85C771.328 3017.86 769.6 3015.55 767.197 3013.91C764.854 3012.27 762.012 3011.45 758.672 3011.45C754.395 3011.45 750.557 3012.62 747.158 3014.96C743.76 3017.31 741.416 3020.41 740.127 3024.28C738.896 3028.15 738.281 3035.29 738.281 3045.72V3088H713.584V2994.66H736.523V3008.37C744.668 2997.82 754.922 2992.55 767.285 2992.55C772.734 2992.55 777.715 2993.55 782.227 2995.54C786.738 2997.47 790.137 2999.96 792.422 3003.01C794.766 3006.06 796.377 3009.51 797.256 3013.38C798.193 3017.25 798.662 3022.79 798.662 3029.99V3088ZM909.404 3088H886.465V3074.29C882.656 3079.62 878.145 3083.61 872.93 3086.24C867.773 3088.82 862.559 3090.11 857.285 3090.11C846.562 3090.11 837.363 3085.8 829.688 3077.19C822.07 3068.52 818.262 3056.45 818.262 3040.98C818.262 3025.16 821.982 3013.15 829.424 3004.94C836.865 2996.68 846.27 2992.55 857.637 2992.55C868.066 2992.55 877.09 2996.89 884.707 3005.56V2959.15H909.404V3088ZM843.486 3039.31C843.486 3049.27 844.863 3056.48 847.617 3060.93C851.602 3067.38 857.168 3070.6 864.316 3070.6C870 3070.6 874.834 3068.2 878.818 3063.39C882.803 3058.53 884.795 3051.29 884.795 3041.68C884.795 3030.96 882.861 3023.25 878.994 3018.57C875.127 3013.82 870.176 3011.45 864.141 3011.45C858.281 3011.45 853.359 3013.79 849.375 3018.48C845.449 3023.11 843.486 3030.05 843.486 3039.31ZM952.295 3023.14L929.883 3019.09C932.402 3010.07 936.738 3003.39 942.891 2999.05C949.043 2994.72 958.184 2992.55 970.312 2992.55C981.328 2992.55 989.531 2993.87 994.922 2996.51C1000.31 2999.08 1004.09 3002.39 1006.26 3006.44C1008.49 3010.42 1009.6 3017.78 1009.6 3028.5L1009.34 3057.33C1009.34 3065.53 1009.72 3071.59 1010.48 3075.52C1011.3 3079.39 1012.79 3083.55 1014.96 3088H990.527C989.883 3086.36 989.092 3083.93 988.154 3080.71C987.744 3079.24 987.451 3078.27 987.275 3077.8C983.057 3081.91 978.545 3084.98 973.74 3087.03C968.936 3089.08 963.809 3090.11 958.359 3090.11C948.75 3090.11 941.162 3087.5 935.596 3082.29C930.088 3077.07 927.334 3070.48 927.334 3062.51C927.334 3057.24 928.594 3052.55 931.113 3048.45C933.633 3044.29 937.148 3041.12 941.66 3038.96C946.23 3036.73 952.793 3034.8 961.348 3033.16C972.891 3030.99 980.889 3028.97 985.342 3027.09V3024.63C985.342 3019.88 984.17 3016.52 981.826 3014.52C979.482 3012.47 975.059 3011.45 968.555 3011.45C964.16 3011.45 960.732 3012.33 958.271 3014.08C955.811 3015.78 953.818 3018.8 952.295 3023.14ZM985.342 3043.18C982.178 3044.23 977.168 3045.49 970.312 3046.96C963.457 3048.42 958.975 3049.86 956.865 3051.26C953.643 3053.55 952.031 3056.45 952.031 3059.96C952.031 3063.42 953.32 3066.41 955.898 3068.93C958.477 3071.45 961.758 3072.71 965.742 3072.71C970.195 3072.71 974.443 3071.24 978.486 3068.31C981.475 3066.09 983.438 3063.36 984.375 3060.14C985.02 3058.03 985.342 3054.02 985.342 3048.1V3043.18Z" fill="#FEFAFA"/>
<path d="M13.1836 3711V3582.15H67.9395C81.709 3582.15 91.6992 3583.32 97.9102 3585.67C104.18 3587.95 109.189 3592.05 112.939 3597.97C116.689 3603.89 118.564 3610.66 118.564 3618.28C118.564 3627.94 115.723 3635.94 110.039 3642.27C104.355 3648.54 95.8594 3652.49 84.5508 3654.13C90.1758 3657.42 94.8047 3661.02 98.4375 3664.95C102.129 3668.87 107.08 3675.84 113.291 3685.86L129.023 3711H97.9102L79.1016 3682.96C72.4219 3672.94 67.8516 3666.64 65.3906 3664.07C62.9297 3661.43 60.3223 3659.64 57.5684 3658.71C54.8145 3657.71 50.4492 3657.21 44.4727 3657.21H39.1992V3711H13.1836ZM39.1992 3636.64H58.4473C70.9277 3636.64 78.7207 3636.12 81.8262 3635.06C84.9316 3634.01 87.3633 3632.19 89.1211 3629.61C90.8789 3627.04 91.7578 3623.81 91.7578 3619.95C91.7578 3615.61 90.5859 3612.12 88.2422 3609.49C85.957 3606.79 82.7051 3605.09 78.4863 3604.39C76.377 3604.1 70.0488 3603.95 59.502 3603.95H39.1992V3636.64ZM161.455 3646.14L139.043 3642.09C141.562 3633.07 145.898 3626.39 152.051 3622.05C158.203 3617.72 167.344 3615.55 179.473 3615.55C190.488 3615.55 198.691 3616.87 204.082 3619.51C209.473 3622.08 213.252 3625.39 215.42 3629.44C217.646 3633.42 218.76 3640.78 218.76 3651.5L218.496 3680.33C218.496 3688.53 218.877 3694.59 219.639 3698.52C220.459 3702.39 221.953 3706.55 224.121 3711H199.688C199.043 3709.36 198.252 3706.93 197.314 3703.71C196.904 3702.24 196.611 3701.27 196.436 3700.8C192.217 3704.91 187.705 3707.98 182.9 3710.03C178.096 3712.08 172.969 3713.11 167.52 3713.11C157.91 3713.11 150.322 3710.5 144.756 3705.29C139.248 3700.07 136.494 3693.48 136.494 3685.51C136.494 3680.24 137.754 3675.55 140.273 3671.45C142.793 3667.29 146.309 3664.12 150.82 3661.96C155.391 3659.73 161.953 3657.8 170.508 3656.16C182.051 3653.99 190.049 3651.97 194.502 3650.09V3647.63C194.502 3642.88 193.33 3639.52 190.986 3637.52C188.643 3635.47 184.219 3634.45 177.715 3634.45C173.32 3634.45 169.893 3635.33 167.432 3637.08C164.971 3638.78 162.979 3641.8 161.455 3646.14ZM194.502 3666.18C191.338 3667.23 186.328 3668.49 179.473 3669.96C172.617 3671.42 168.135 3672.86 166.025 3674.26C162.803 3676.55 161.191 3679.45 161.191 3682.96C161.191 3686.42 162.48 3689.41 165.059 3691.93C167.637 3694.45 170.918 3695.71 174.902 3695.71C179.355 3695.71 183.604 3694.24 187.646 3691.31C190.635 3689.09 192.598 3686.36 193.535 3683.14C194.18 3681.03 194.502 3677.02 194.502 3671.1V3666.18ZM328.096 3711H303.398V3663.36C303.398 3653.29 302.871 3646.78 301.816 3643.85C300.762 3640.86 299.033 3638.55 296.631 3636.91C294.287 3635.27 291.445 3634.45 288.105 3634.45C283.828 3634.45 279.99 3635.62 276.592 3637.96C273.193 3640.31 270.85 3643.41 269.561 3647.28C268.33 3651.15 267.715 3658.29 267.715 3668.72V3711H243.018V3617.66H265.957V3631.37C274.102 3620.82 284.355 3615.55 296.719 3615.55C302.168 3615.55 307.148 3616.55 311.66 3618.54C316.172 3620.47 319.57 3622.96 321.855 3626.01C324.199 3629.06 325.811 3632.51 326.689 3636.38C327.627 3640.25 328.096 3645.79 328.096 3652.99V3711ZM438.838 3711H415.898V3697.29C412.09 3702.62 407.578 3706.61 402.363 3709.24C397.207 3711.82 391.992 3713.11 386.719 3713.11C375.996 3713.11 366.797 3708.8 359.121 3700.19C351.504 3691.52 347.695 3679.45 347.695 3663.98C347.695 3648.16 351.416 3636.15 358.857 3627.94C366.299 3619.68 375.703 3615.55 387.07 3615.55C397.5 3615.55 406.523 3619.89 414.141 3628.56V3582.15H438.838V3711ZM372.92 3662.31C372.92 3672.27 374.297 3679.48 377.051 3683.93C381.035 3690.38 386.602 3693.6 393.75 3693.6C399.434 3693.6 404.268 3691.2 408.252 3686.39C412.236 3681.53 414.229 3674.29 414.229 3664.68C414.229 3653.96 412.295 3646.25 408.428 3641.57C404.561 3636.82 399.609 3634.45 393.574 3634.45C387.715 3634.45 382.793 3636.79 378.809 3641.48C374.883 3646.11 372.92 3653.05 372.92 3662.31ZM457.559 3663.01C457.559 3654.81 459.58 3646.87 463.623 3639.19C467.666 3631.52 473.379 3625.66 480.762 3621.62C488.203 3617.57 496.494 3615.55 505.635 3615.55C519.756 3615.55 531.328 3620.15 540.352 3629.35C549.375 3638.49 553.887 3650.06 553.887 3664.07C553.887 3678.19 549.316 3689.91 540.176 3699.22C531.094 3708.48 519.639 3713.11 505.811 3713.11C497.256 3713.11 489.082 3711.18 481.289 3707.31C473.555 3703.44 467.666 3697.79 463.623 3690.35C459.58 3682.85 457.559 3673.73 457.559 3663.01ZM482.871 3664.33C482.871 3673.59 485.068 3680.68 489.463 3685.6C493.857 3690.52 499.277 3692.98 505.723 3692.98C512.168 3692.98 517.559 3690.52 521.895 3685.6C526.289 3680.68 528.486 3673.53 528.486 3664.15C528.486 3655.01 526.289 3647.98 521.895 3643.06C517.559 3638.14 512.168 3635.68 505.723 3635.68C499.277 3635.68 493.857 3638.14 489.463 3643.06C485.068 3647.98 482.871 3655.07 482.871 3664.33ZM571.465 3617.66H594.229V3630.4C602.373 3620.5 612.07 3615.55 623.32 3615.55C629.297 3615.55 634.482 3616.78 638.877 3619.24C643.271 3621.7 646.875 3625.42 649.688 3630.4C653.789 3625.42 658.213 3621.7 662.959 3619.24C667.705 3616.78 672.773 3615.55 678.164 3615.55C685.02 3615.55 690.82 3616.96 695.566 3619.77C700.312 3622.52 703.857 3626.6 706.201 3631.99C707.9 3635.97 708.75 3642.42 708.75 3651.32V3711H684.053V3657.65C684.053 3648.39 683.203 3642.42 681.504 3639.72C679.219 3636.21 675.703 3634.45 670.957 3634.45C667.5 3634.45 664.248 3635.5 661.201 3637.61C658.154 3639.72 655.957 3642.83 654.609 3646.93C653.262 3650.97 652.588 3657.39 652.588 3666.18V3711H627.891V3659.85C627.891 3650.77 627.451 3644.91 626.572 3642.27C625.693 3639.63 624.316 3637.67 622.441 3636.38C620.625 3635.09 618.135 3634.45 614.971 3634.45C611.162 3634.45 607.734 3635.47 604.688 3637.52C601.641 3639.57 599.443 3642.53 598.096 3646.4C596.807 3650.27 596.162 3656.68 596.162 3665.65V3711H571.465V3617.66ZM783.809 3711V3582.15H809.824V3632.87H860.801V3582.15H886.816V3711H860.801V3654.66H809.824V3711H783.809ZM932.08 3646.14L909.668 3642.09C912.188 3633.07 916.523 3626.39 922.676 3622.05C928.828 3617.72 937.969 3615.55 950.098 3615.55C961.113 3615.55 969.316 3616.87 974.707 3619.51C980.098 3622.08 983.877 3625.39 986.045 3629.44C988.271 3633.42 989.385 3640.78 989.385 3651.5L989.121 3680.33C989.121 3688.53 989.502 3694.59 990.264 3698.52C991.084 3702.39 992.578 3706.55 994.746 3711H970.312C969.668 3709.36 968.877 3706.93 967.939 3703.71C967.529 3702.24 967.236 3701.27 967.061 3700.8C962.842 3704.91 958.33 3707.98 953.525 3710.03C948.721 3712.08 943.594 3713.11 938.145 3713.11C928.535 3713.11 920.947 3710.5 915.381 3705.29C909.873 3700.07 907.119 3693.48 907.119 3685.51C907.119 3680.24 908.379 3675.55 910.898 3671.45C913.418 3667.29 916.934 3664.12 921.445 3661.96C926.016 3659.73 932.578 3657.8 941.133 3656.16C952.676 3653.99 960.674 3651.97 965.127 3650.09V3647.63C965.127 3642.88 963.955 3639.52 961.611 3637.52C959.268 3635.47 954.844 3634.45 948.34 3634.45C943.945 3634.45 940.518 3635.33 938.057 3637.08C935.596 3638.78 933.604 3641.8 932.08 3646.14ZM965.127 3666.18C961.963 3667.23 956.953 3668.49 950.098 3669.96C943.242 3671.42 938.76 3672.86 936.65 3674.26C933.428 3676.55 931.816 3679.45 931.816 3682.96C931.816 3686.42 933.105 3689.41 935.684 3691.93C938.262 3694.45 941.543 3695.71 945.527 3695.71C949.98 3695.71 954.229 3694.24 958.271 3691.31C961.26 3689.09 963.223 3686.36 964.16 3683.14C964.805 3681.03 965.127 3677.02 965.127 3671.1V3666.18ZM1037.46 3711H1012.76V3617.66H1035.7V3630.93C1039.63 3624.66 1043.14 3620.53 1046.25 3618.54C1049.41 3616.55 1052.99 3615.55 1056.97 3615.55C1062.6 3615.55 1068.02 3617.1 1073.23 3620.21L1065.59 3641.74C1061.43 3639.05 1057.56 3637.7 1053.98 3637.7C1050.53 3637.7 1047.6 3638.67 1045.2 3640.6C1042.79 3642.47 1040.89 3645.9 1039.48 3650.88C1038.13 3655.86 1037.46 3666.29 1037.46 3682.17V3711ZM1109.62 3711L1072 3617.66H1097.93L1115.51 3665.3L1120.61 3681.21C1121.95 3677.16 1122.8 3674.5 1123.15 3673.21C1123.97 3670.57 1124.85 3667.93 1125.79 3665.3L1143.54 3617.66H1168.95L1131.86 3711H1109.62ZM1238.2 3681.29L1262.81 3685.42C1259.65 3694.45 1254.64 3701.33 1247.78 3706.08C1240.99 3710.77 1232.46 3713.11 1222.21 3713.11C1205.98 3713.11 1193.96 3707.81 1186.17 3697.2C1180.02 3688.71 1176.94 3677.98 1176.94 3665.03C1176.94 3649.56 1180.99 3637.46 1189.07 3628.73C1197.16 3619.95 1207.38 3615.55 1219.75 3615.55C1233.63 3615.55 1244.59 3620.15 1252.62 3629.35C1260.64 3638.49 1264.48 3652.52 1264.13 3671.45H1202.26C1202.43 3678.77 1204.42 3684.49 1208.23 3688.59C1212.04 3692.63 1216.79 3694.65 1222.47 3694.65C1226.34 3694.65 1229.59 3693.6 1232.23 3691.49C1234.86 3689.38 1236.86 3685.98 1238.2 3681.29ZM1239.61 3656.33C1239.43 3649.18 1237.59 3643.76 1234.07 3640.07C1230.56 3636.32 1226.28 3634.45 1221.24 3634.45C1215.85 3634.45 1211.4 3636.41 1207.88 3640.34C1204.37 3644.26 1202.64 3649.59 1202.7 3656.33H1239.61ZM1275.64 3684.37L1300.43 3680.59C1301.48 3685.39 1303.62 3689.06 1306.85 3691.58C1310.07 3694.04 1314.58 3695.27 1320.38 3695.27C1326.77 3695.27 1331.57 3694.1 1334.79 3691.75C1336.96 3690.11 1338.05 3687.91 1338.05 3685.16C1338.05 3683.29 1337.46 3681.73 1336.29 3680.5C1335.06 3679.33 1332.3 3678.25 1328.03 3677.25C1308.11 3672.86 1295.48 3668.84 1290.15 3665.21C1282.76 3660.17 1279.07 3653.17 1279.07 3644.2C1279.07 3636.12 1282.27 3629.32 1288.65 3623.81C1295.04 3618.3 1304.94 3615.55 1318.36 3615.55C1331.13 3615.55 1340.62 3617.63 1346.84 3621.79C1353.05 3625.95 1357.32 3632.1 1359.67 3640.25L1336.38 3644.55C1335.38 3640.92 1333.48 3638.14 1330.66 3636.21C1327.91 3634.27 1323.96 3633.3 1318.8 3633.3C1312.29 3633.3 1307.64 3634.21 1304.82 3636.03C1302.95 3637.32 1302.01 3638.99 1302.01 3641.04C1302.01 3642.8 1302.83 3644.29 1304.47 3645.52C1306.7 3647.16 1314.38 3649.48 1327.5 3652.46C1340.68 3655.45 1349.88 3659.12 1355.1 3663.45C1360.25 3667.85 1362.83 3673.97 1362.83 3681.82C1362.83 3690.38 1359.26 3697.73 1352.11 3703.88C1344.96 3710.03 1334.38 3713.11 1320.38 3713.11C1307.67 3713.11 1297.59 3710.53 1290.15 3705.38C1282.76 3700.22 1277.93 3693.22 1275.64 3684.37ZM1427.34 3617.66V3637.35H1410.47V3674.96C1410.47 3682.58 1410.62 3687.04 1410.91 3688.32C1411.26 3689.55 1411.99 3690.58 1413.11 3691.4C1414.28 3692.22 1415.68 3692.63 1417.32 3692.63C1419.61 3692.63 1422.92 3691.84 1427.26 3690.26L1429.37 3709.42C1423.62 3711.88 1417.12 3713.11 1409.85 3713.11C1405.4 3713.11 1401.39 3712.38 1397.81 3710.91C1394.24 3709.39 1391.6 3707.46 1389.9 3705.11C1388.26 3702.71 1387.12 3699.49 1386.47 3695.44C1385.95 3692.57 1385.68 3686.77 1385.68 3678.04V3637.35H1374.35V3617.66H1385.68V3599.12L1410.47 3584.7V3617.66H1427.34Z" fill="#FEFAFA"/>
<path d="M129.287 4403H100.986L89.7363 4373.73H38.2324L27.5977 4403H0L50.1855 4274.15H77.6953L129.287 4403ZM81.3867 4352.02L63.6328 4304.21L46.2305 4352.02H81.3867ZM215.596 4403V4295.95H177.363V4274.15H279.756V4295.95H241.611V4403H215.596ZM310.078 4403H285.381V4309.66H308.32V4322.93C312.246 4316.66 315.762 4312.53 318.867 4310.54C322.031 4308.55 325.605 4307.55 329.59 4307.55C335.215 4307.55 340.635 4309.1 345.85 4312.21L338.203 4333.74C334.043 4331.05 330.176 4329.7 326.602 4329.7C323.145 4329.7 320.215 4330.67 317.812 4332.6C315.41 4334.47 313.506 4337.9 312.1 4342.88C310.752 4347.86 310.078 4358.29 310.078 4374.17V4403ZM410.625 4373.29L435.234 4377.42C432.07 4386.45 427.061 4393.33 420.205 4398.08C413.408 4402.77 404.883 4405.11 394.629 4405.11C378.398 4405.11 366.387 4399.81 358.594 4389.2C352.441 4380.71 349.365 4369.98 349.365 4357.03C349.365 4341.56 353.408 4329.46 361.494 4320.73C369.58 4311.95 379.805 4307.55 392.168 4307.55C406.055 4307.55 417.012 4312.15 425.039 4321.35C433.066 4330.49 436.904 4344.52 436.553 4363.45H374.678C374.854 4370.77 376.846 4376.49 380.654 4380.59C384.463 4384.63 389.209 4386.65 394.893 4386.65C398.76 4386.65 402.012 4385.6 404.648 4383.49C407.285 4381.38 409.277 4377.98 410.625 4373.29ZM412.031 4348.33C411.855 4341.18 410.01 4335.76 406.494 4332.07C402.979 4328.32 398.701 4326.45 393.662 4326.45C388.271 4326.45 383.818 4328.41 380.303 4332.34C376.787 4336.26 375.059 4341.59 375.117 4348.33H412.031ZM510.82 4373.29L535.43 4377.42C532.266 4386.45 527.256 4393.33 520.4 4398.08C513.604 4402.77 505.078 4405.11 494.824 4405.11C478.594 4405.11 466.582 4399.81 458.789 4389.2C452.637 4380.71 449.561 4369.98 449.561 4357.03C449.561 4341.56 453.604 4329.46 461.689 4320.73C469.775 4311.95 480 4307.55 492.363 4307.55C506.25 4307.55 517.207 4312.15 525.234 4321.35C533.262 4330.49 537.1 4344.52 536.748 4363.45H474.873C475.049 4370.77 477.041 4376.49 480.85 4380.59C484.658 4384.63 489.404 4386.65 495.088 4386.65C498.955 4386.65 502.207 4385.6 504.844 4383.49C507.48 4381.38 509.473 4377.98 510.82 4373.29ZM512.227 4348.33C512.051 4341.18 510.205 4335.76 506.689 4332.07C503.174 4328.32 498.896 4326.45 493.857 4326.45C488.467 4326.45 484.014 4328.41 480.498 4332.34C476.982 4336.26 475.254 4341.59 475.312 4348.33H512.227ZM667.178 4355.63V4333.92H723.252V4385.25C717.803 4390.52 709.893 4395.18 699.521 4399.22C689.209 4403.21 678.75 4405.2 668.145 4405.2C654.668 4405.2 642.92 4402.38 632.9 4396.76C622.881 4391.08 615.352 4382.99 610.312 4372.5C605.273 4361.96 602.754 4350.5 602.754 4338.14C602.754 4324.72 605.566 4312.79 611.191 4302.37C616.816 4291.94 625.049 4283.94 635.889 4278.37C644.15 4274.09 654.434 4271.96 666.738 4271.96C682.734 4271.96 695.215 4275.32 704.18 4282.06C713.203 4288.74 719.004 4298 721.582 4309.84L695.742 4314.67C693.926 4308.34 690.498 4303.36 685.459 4299.73C680.479 4296.04 674.238 4294.19 666.738 4294.19C655.371 4294.19 646.318 4297.79 639.58 4305C632.9 4312.21 629.561 4322.9 629.561 4337.08C629.561 4352.38 632.959 4363.86 639.756 4371.54C646.553 4379.15 655.459 4382.96 666.475 4382.96C671.924 4382.96 677.373 4381.91 682.822 4379.8C688.33 4377.63 693.047 4375.02 696.973 4371.97V4355.63H667.178ZM770.801 4403H746.104V4309.66H769.043V4322.93C772.969 4316.66 776.484 4312.53 779.59 4310.54C782.754 4308.55 786.328 4307.55 790.312 4307.55C795.938 4307.55 801.357 4309.1 806.572 4312.21L798.926 4333.74C794.766 4331.05 790.898 4329.7 787.324 4329.7C783.867 4329.7 780.938 4330.67 778.535 4332.6C776.133 4334.47 774.229 4337.9 772.822 4342.88C771.475 4347.86 770.801 4358.29 770.801 4374.17V4403ZM811.582 4355.01C811.582 4346.81 813.604 4338.87 817.646 4331.19C821.689 4323.52 827.402 4317.66 834.785 4313.62C842.227 4309.57 850.518 4307.55 859.658 4307.55C873.779 4307.55 885.352 4312.15 894.375 4321.35C903.398 4330.49 907.91 4342.06 907.91 4356.07C907.91 4370.19 903.34 4381.91 894.199 4391.22C885.117 4400.48 873.662 4405.11 859.834 4405.11C851.279 4405.11 843.105 4403.18 835.312 4399.31C827.578 4395.44 821.689 4389.79 817.646 4382.35C813.604 4374.85 811.582 4365.73 811.582 4355.01ZM836.895 4356.33C836.895 4365.59 839.092 4372.68 843.486 4377.6C847.881 4382.52 853.301 4384.98 859.746 4384.98C866.191 4384.98 871.582 4382.52 875.918 4377.6C880.312 4372.68 882.51 4365.53 882.51 4356.15C882.51 4347.01 880.312 4339.98 875.918 4335.06C871.582 4330.14 866.191 4327.68 859.746 4327.68C853.301 4327.68 847.881 4330.14 843.486 4335.06C839.092 4339.98 836.895 4347.07 836.895 4356.33ZM944.736 4403L915.205 4309.66H939.199L956.689 4370.83L972.773 4309.66H996.592L1012.15 4370.83L1029.99 4309.66H1054.34L1024.37 4403H1000.63L984.551 4342.97L968.73 4403H944.736ZM1058.73 4376.37L1083.52 4372.59C1084.57 4377.39 1086.71 4381.06 1089.93 4383.58C1093.15 4386.04 1097.67 4387.27 1103.47 4387.27C1109.85 4387.27 1114.66 4386.1 1117.88 4383.75C1120.05 4382.11 1121.13 4379.91 1121.13 4377.16C1121.13 4375.29 1120.55 4373.73 1119.38 4372.5C1118.14 4371.33 1115.39 4370.25 1111.11 4369.25C1091.19 4364.86 1078.56 4360.84 1073.23 4357.21C1065.85 4352.17 1062.16 4345.17 1062.16 4336.2C1062.16 4328.12 1065.35 4321.32 1071.74 4315.81C1078.12 4310.3 1088.03 4307.55 1101.45 4307.55C1114.22 4307.55 1123.71 4309.63 1129.92 4313.79C1136.13 4317.95 1140.41 4324.1 1142.75 4332.25L1119.46 4336.55C1118.47 4332.92 1116.56 4330.14 1113.75 4328.21C1111 4326.27 1107.04 4325.3 1101.88 4325.3C1095.38 4325.3 1090.72 4326.21 1087.91 4328.03C1086.04 4329.32 1085.1 4330.99 1085.1 4333.04C1085.1 4334.8 1085.92 4336.29 1087.56 4337.52C1089.79 4339.16 1097.46 4341.48 1110.59 4344.46C1123.77 4347.45 1132.97 4351.12 1138.18 4355.45C1143.34 4359.85 1145.92 4365.97 1145.92 4373.82C1145.92 4382.38 1142.34 4389.73 1135.2 4395.88C1128.05 4402.03 1117.47 4405.11 1103.47 4405.11C1090.75 4405.11 1080.67 4402.53 1073.23 4397.38C1065.85 4392.22 1061.02 4385.22 1058.73 4376.37ZM1217.72 4297V4274.15H1242.42V4297H1217.72ZM1217.72 4403V4309.66H1242.42V4403H1217.72ZM1352.72 4403H1328.03V4355.36C1328.03 4345.29 1327.5 4338.78 1326.45 4335.85C1325.39 4332.86 1323.66 4330.55 1321.26 4328.91C1318.92 4327.27 1316.07 4326.45 1312.73 4326.45C1308.46 4326.45 1304.62 4327.62 1301.22 4329.96C1297.82 4332.31 1295.48 4335.41 1294.19 4339.28C1292.96 4343.15 1292.34 4350.29 1292.34 4360.72V4403H1267.65V4309.66H1290.59V4323.37C1298.73 4312.82 1308.98 4307.55 1321.35 4307.55C1326.8 4307.55 1331.78 4308.55 1336.29 4310.54C1340.8 4312.47 1344.2 4314.96 1346.48 4318.01C1348.83 4321.06 1350.44 4324.51 1351.32 4328.38C1352.26 4332.25 1352.72 4337.79 1352.72 4344.99V4403ZM1428.22 4274.15H1479.73C1489.92 4274.15 1497.51 4274.59 1502.49 4275.47C1507.53 4276.29 1512.01 4278.05 1515.94 4280.74C1519.92 4283.44 1523.23 4287.04 1525.87 4291.55C1528.51 4296.01 1529.82 4301.02 1529.82 4306.58C1529.82 4312.62 1528.18 4318.16 1524.9 4323.2C1521.68 4328.23 1517.29 4332.01 1511.72 4334.53C1519.57 4336.82 1525.61 4340.71 1529.82 4346.22C1534.04 4351.73 1536.15 4358.21 1536.15 4365.65C1536.15 4371.51 1534.78 4377.22 1532.02 4382.79C1529.33 4388.29 1525.61 4392.72 1520.86 4396.06C1516.17 4399.34 1510.37 4401.36 1503.46 4402.12C1499.12 4402.59 1488.66 4402.88 1472.08 4403H1428.22V4274.15ZM1454.24 4295.6V4325.39H1471.29C1481.43 4325.39 1487.72 4325.25 1490.19 4324.95C1494.64 4324.43 1498.12 4322.9 1500.64 4320.38C1503.22 4317.8 1504.51 4314.44 1504.51 4310.28C1504.51 4306.29 1503.4 4303.07 1501.17 4300.61C1499 4298.09 1495.75 4296.56 1491.42 4296.04C1488.84 4295.74 1481.43 4295.6 1469.18 4295.6H1454.24ZM1454.24 4346.84V4381.29H1478.32C1487.7 4381.29 1493.64 4381.03 1496.16 4380.5C1500.03 4379.8 1503.16 4378.1 1505.57 4375.4C1508.03 4372.65 1509.26 4368.99 1509.26 4364.42C1509.26 4360.55 1508.32 4357.27 1506.45 4354.57C1504.57 4351.88 1501.85 4349.91 1498.27 4348.68C1494.76 4347.45 1487.08 4346.84 1475.24 4346.84H1454.24ZM1581.68 4403H1556.98V4309.66H1579.92V4322.93C1583.85 4316.66 1587.36 4312.53 1590.47 4310.54C1593.63 4308.55 1597.21 4307.55 1601.19 4307.55C1606.82 4307.55 1612.24 4309.1 1617.45 4312.21L1609.8 4333.74C1605.64 4331.05 1601.78 4329.7 1598.2 4329.7C1594.75 4329.7 1591.82 4330.67 1589.41 4332.6C1587.01 4334.47 1585.11 4337.9 1583.7 4342.88C1582.35 4347.86 1581.68 4358.29 1581.68 4374.17V4403ZM1622.46 4355.01C1622.46 4346.81 1624.48 4338.87 1628.53 4331.19C1632.57 4323.52 1638.28 4317.66 1645.66 4313.62C1653.11 4309.57 1661.4 4307.55 1670.54 4307.55C1684.66 4307.55 1696.23 4312.15 1705.25 4321.35C1714.28 4330.49 1718.79 4342.06 1718.79 4356.07C1718.79 4370.19 1714.22 4381.91 1705.08 4391.22C1696 4400.48 1684.54 4405.11 1670.71 4405.11C1662.16 4405.11 1653.98 4403.18 1646.19 4399.31C1638.46 4395.44 1632.57 4389.79 1628.53 4382.35C1624.48 4374.85 1622.46 4365.73 1622.46 4355.01ZM1647.77 4356.33C1647.77 4365.59 1649.97 4372.68 1654.37 4377.6C1658.76 4382.52 1664.18 4384.98 1670.62 4384.98C1677.07 4384.98 1682.46 4382.52 1686.8 4377.6C1691.19 4372.68 1693.39 4365.53 1693.39 4356.15C1693.39 4347.01 1691.19 4339.98 1686.8 4335.06C1682.46 4330.14 1677.07 4327.68 1670.62 4327.68C1664.18 4327.68 1658.76 4330.14 1654.37 4335.06C1649.97 4339.98 1647.77 4347.07 1647.77 4356.33ZM1732.5 4355.01C1732.5 4346.81 1734.52 4338.87 1738.56 4331.19C1742.61 4323.52 1748.32 4317.66 1755.7 4313.62C1763.14 4309.57 1771.44 4307.55 1780.58 4307.55C1794.7 4307.55 1806.27 4312.15 1815.29 4321.35C1824.32 4330.49 1828.83 4342.06 1828.83 4356.07C1828.83 4370.19 1824.26 4381.91 1815.12 4391.22C1806.04 4400.48 1794.58 4405.11 1780.75 4405.11C1772.2 4405.11 1764.02 4403.18 1756.23 4399.31C1748.5 4395.44 1742.61 4389.79 1738.56 4382.35C1734.52 4374.85 1732.5 4365.73 1732.5 4355.01ZM1757.81 4356.33C1757.81 4365.59 1760.01 4372.68 1764.4 4377.6C1768.8 4382.52 1774.22 4384.98 1780.66 4384.98C1787.11 4384.98 1792.5 4382.52 1796.84 4377.6C1801.23 4372.68 1803.43 4365.53 1803.43 4356.15C1803.43 4347.01 1801.23 4339.98 1796.84 4335.06C1792.5 4330.14 1787.11 4327.68 1780.66 4327.68C1774.22 4327.68 1768.8 4330.14 1764.4 4335.06C1760.01 4339.98 1757.81 4347.07 1757.81 4356.33ZM1847.37 4403V4274.15H1872.07V4342.53L1900.99 4309.66H1931.4L1899.49 4343.76L1933.68 4403H1907.05L1883.58 4361.08L1872.07 4373.12V4403H1847.37ZM1948.45 4403V4274.15H1973.14V4403H1948.45ZM1986.86 4309.66H2013.13L2035.46 4375.93L2057.26 4309.66H2082.83L2049.87 4399.48L2043.98 4415.74C2041.82 4421.19 2039.74 4425.35 2037.74 4428.22C2035.81 4431.1 2033.55 4433.41 2030.98 4435.17C2028.46 4436.98 2025.32 4438.39 2021.57 4439.39C2017.88 4440.38 2013.69 4440.88 2009 4440.88C2004.26 4440.88 1999.6 4440.38 1995.03 4439.39L1992.83 4420.05C1996.7 4420.81 2000.19 4421.19 2003.29 4421.19C2009.03 4421.19 2013.28 4419.49 2016.04 4416.1C2018.79 4412.76 2020.9 4408.48 2022.36 4403.26L1986.86 4309.66ZM2183.64 4403H2158.95V4355.36C2158.95 4345.29 2158.42 4338.78 2157.36 4335.85C2156.31 4332.86 2154.58 4330.55 2152.18 4328.91C2149.83 4327.27 2146.99 4326.45 2143.65 4326.45C2139.38 4326.45 2135.54 4327.62 2132.14 4329.96C2128.74 4332.31 2126.4 4335.41 2125.11 4339.28C2123.88 4343.15 2123.26 4350.29 2123.26 4360.72V4403H2098.56V4309.66H2121.5V4323.37C2129.65 4312.82 2139.9 4307.55 2152.27 4307.55C2157.71 4307.55 2162.7 4308.55 2167.21 4310.54C2171.72 4312.47 2175.12 4314.96 2177.4 4318.01C2179.75 4321.06 2181.36 4324.51 2182.24 4328.38C2183.17 4332.25 2183.64 4337.79 2183.64 4344.99V4403Z" fill="#FEFAFA"/>
<circle cx="2547" cy="250" r="250" fill="#FF0000"/>
<circle cx="2547" cy="2253" r="250" fill="#66CC66"/>
<circle cx="2547" cy="1572" r="250" fill="#FF6699"/>
<circle cx="2547" cy="891" r="250" fill="#FF6600"/>
<circle cx="2547" cy="2934" r="250" fill="#FFFF00"/>
<circle cx="2547" cy="4301" r="250" fill="#996633"/>
<circle cx="2547" cy="3575" r="250" fill="#CC00FF"/>
</svg>
