<svg width="2551" height="4506" viewBox="0 0 2551 4506" fill="none" xmlns="http://www.w3.org/2000/svg">
<path d="M64.5039 290.076L89.8164 287.615C91.3398 296.111 94.416 302.352 99.0449 306.336C103.732 310.32 110.031 312.312 117.941 312.312C126.32 312.312 132.619 310.555 136.838 307.039C141.115 303.465 143.254 299.305 143.254 294.559C143.254 291.512 142.346 288.934 140.529 286.824C138.771 284.656 135.666 282.781 131.213 281.199C128.166 280.145 121.223 278.27 110.383 275.574C96.4375 272.117 86.6523 267.869 81.0273 262.83C73.1172 255.74 69.1621 247.098 69.1621 236.902C69.1621 230.34 71.0078 224.217 74.6992 218.533C78.4492 212.791 83.8105 208.426 90.7832 205.438C97.8145 202.449 106.281 200.955 116.184 200.955C132.355 200.955 144.514 204.5 152.658 211.59C160.861 218.68 165.168 228.143 165.578 239.979L139.562 241.121C138.449 234.5 136.047 229.754 132.355 226.883C128.723 223.953 123.244 222.488 115.92 222.488C108.361 222.488 102.443 224.041 98.166 227.146C95.4121 229.139 94.0352 231.805 94.0352 235.145C94.0352 238.191 95.3242 240.799 97.9023 242.967C101.184 245.721 109.152 248.592 121.809 251.58C134.465 254.568 143.811 257.674 149.846 260.896C155.939 264.061 160.686 268.426 164.084 273.992C167.541 279.5 169.27 286.326 169.27 294.471C169.27 301.854 167.219 308.768 163.117 315.213C159.016 321.658 153.215 326.463 145.715 329.627C138.215 332.732 128.869 334.285 117.678 334.285C101.389 334.285 88.8789 330.535 80.1484 323.035C71.418 315.477 66.2031 304.49 64.5039 290.076ZM190.275 238.66H213.303V252.371C216.291 247.684 220.334 243.875 225.432 240.945C230.529 238.016 236.184 236.551 242.395 236.551C253.234 236.551 262.434 240.799 269.992 249.295C277.551 257.791 281.33 269.627 281.33 284.803C281.33 300.389 277.521 312.518 269.904 321.189C262.287 329.803 253.059 334.109 242.219 334.109C237.062 334.109 232.375 333.084 228.156 331.033C223.996 328.982 219.602 325.467 214.973 320.486V367.508H190.275V238.66ZM214.709 283.748C214.709 294.236 216.789 302 220.949 307.039C225.109 312.02 230.178 314.51 236.154 314.51C241.896 314.51 246.672 312.225 250.48 307.654C254.289 303.025 256.193 295.467 256.193 284.979C256.193 275.193 254.23 267.928 250.305 263.182C246.379 258.436 241.516 256.062 235.715 256.062C229.68 256.062 224.67 258.406 220.686 263.094C216.701 267.723 214.709 274.607 214.709 283.748ZM295.305 284.012C295.305 275.809 297.326 267.869 301.369 260.193C305.412 252.518 311.125 246.658 318.508 242.615C325.949 238.572 334.24 236.551 343.381 236.551C357.502 236.551 369.074 241.15 378.098 250.35C387.121 259.49 391.633 271.062 391.633 285.066C391.633 299.188 387.062 310.906 377.922 320.223C368.84 329.48 357.385 334.109 343.557 334.109C335.002 334.109 326.828 332.176 319.035 328.309C311.301 324.441 305.412 318.787 301.369 311.346C297.326 303.846 295.305 294.734 295.305 284.012ZM320.617 285.33C320.617 294.588 322.814 301.678 327.209 306.6C331.604 311.521 337.023 313.982 343.469 313.982C349.914 313.982 355.305 311.521 359.641 306.6C364.035 301.678 366.232 294.529 366.232 285.154C366.232 276.014 364.035 268.982 359.641 264.061C355.305 259.139 349.914 256.678 343.469 256.678C337.023 256.678 331.604 259.139 327.209 264.061C322.814 268.982 320.617 276.072 320.617 285.33ZM453.859 238.66V258.348H436.984V295.965C436.984 303.582 437.131 308.035 437.424 309.324C437.775 310.555 438.508 311.58 439.621 312.4C440.793 313.221 442.199 313.631 443.84 313.631C446.125 313.631 449.436 312.84 453.771 311.258L455.881 330.418C450.139 332.879 443.635 334.109 436.369 334.109C431.916 334.109 427.902 333.377 424.328 331.912C420.754 330.389 418.117 328.455 416.418 326.111C414.777 323.709 413.635 320.486 412.99 316.443C412.463 313.572 412.199 307.771 412.199 299.041V258.348H400.861V238.66H412.199V220.115L436.984 205.701V238.66H453.859ZM470.998 332V203.152H495.695V332H470.998ZM521.096 226.004V203.152H545.793V226.004H521.096ZM521.096 332V238.66H545.793V332H521.096ZM568.908 338.152L597.121 341.58C597.59 344.861 598.674 347.117 600.373 348.348C602.717 350.105 606.408 350.984 611.447 350.984C617.893 350.984 622.727 350.018 625.949 348.084C628.117 346.795 629.758 344.715 630.871 341.844C631.633 339.793 632.014 336.014 632.014 330.506V316.883C624.631 326.961 615.314 332 604.064 332C591.525 332 581.594 326.697 574.27 316.092C568.527 307.713 565.656 297.283 565.656 284.803C565.656 269.158 569.406 257.205 576.906 248.943C584.465 240.682 593.84 236.551 605.031 236.551C616.574 236.551 626.096 241.619 633.596 251.756V238.66H656.711V322.42C656.711 333.436 655.803 341.668 653.986 347.117C652.17 352.566 649.621 356.844 646.34 359.949C643.059 363.055 638.664 365.486 633.156 367.244C627.707 369.002 620.793 369.881 612.414 369.881C596.594 369.881 585.373 367.156 578.752 361.707C572.131 356.316 568.82 349.461 568.82 341.141C568.82 340.32 568.85 339.324 568.908 338.152ZM590.969 283.396C590.969 293.299 592.873 300.564 596.682 305.193C600.549 309.764 605.295 312.049 610.92 312.049C616.955 312.049 622.053 309.705 626.213 305.018C630.373 300.271 632.453 293.27 632.453 284.012C632.453 274.344 630.461 267.166 626.477 262.479C622.492 257.791 617.453 255.447 611.359 255.447C605.441 255.447 600.549 257.762 596.682 262.391C592.873 266.961 590.969 273.963 590.969 283.396ZM705.842 203.152V250.525C713.811 241.209 723.332 236.551 734.406 236.551C740.09 236.551 745.217 237.605 749.787 239.715C754.357 241.824 757.785 244.52 760.07 247.801C762.414 251.082 763.996 254.715 764.816 258.699C765.695 262.684 766.135 268.865 766.135 277.244V332H741.438V282.693C741.438 272.908 740.969 266.697 740.031 264.061C739.094 261.424 737.424 259.344 735.021 257.82C732.678 256.238 729.719 255.447 726.145 255.447C722.043 255.447 718.381 256.443 715.158 258.436C711.936 260.428 709.562 263.445 708.039 267.488C706.574 271.473 705.842 277.391 705.842 285.242V332H681.145V203.152H705.842ZM834.074 238.66V258.348H817.199V295.965C817.199 303.582 817.346 308.035 817.639 309.324C817.99 310.555 818.723 311.58 819.836 312.4C821.008 313.221 822.414 313.631 824.055 313.631C826.34 313.631 829.65 312.84 833.986 311.258L836.096 330.418C830.354 332.879 823.85 334.109 816.584 334.109C812.131 334.109 808.117 333.377 804.543 331.912C800.969 330.389 798.332 328.455 796.633 326.111C794.992 323.709 793.85 320.486 793.205 316.443C792.678 313.572 792.414 307.771 792.414 299.041V258.348H781.076V238.66H792.414V220.115L817.199 205.701V238.66H834.074Z" fill="#FEFAFA"/>
<path d="M100.1 954V846.949H61.8672V825.152H164.26V846.949H126.115V954H100.1ZM205.568 825.152V872.525C213.537 863.209 223.059 858.551 234.133 858.551C239.816 858.551 244.943 859.605 249.514 861.715C254.084 863.824 257.512 866.52 259.797 869.801C262.141 873.082 263.723 876.715 264.543 880.699C265.422 884.684 265.861 890.865 265.861 899.244V954H241.164V904.693C241.164 894.908 240.695 888.697 239.758 886.061C238.82 883.424 237.15 881.344 234.748 879.82C232.404 878.238 229.445 877.447 225.871 877.447C221.77 877.447 218.107 878.443 214.885 880.436C211.662 882.428 209.289 885.445 207.766 889.488C206.301 893.473 205.568 899.391 205.568 907.242V954H180.871V825.152H205.568ZM345.051 924.293L369.66 928.424C366.496 937.447 361.486 944.332 354.631 949.078C347.834 953.766 339.309 956.109 329.055 956.109C312.824 956.109 300.812 950.807 293.02 940.201C286.867 931.705 283.791 920.982 283.791 908.033C283.791 892.564 287.834 880.465 295.92 871.734C304.006 862.945 314.23 858.551 326.594 858.551C340.48 858.551 351.438 863.15 359.465 872.35C367.492 881.49 371.33 895.523 370.979 914.449H309.104C309.279 921.773 311.271 927.486 315.08 931.588C318.889 935.631 323.635 937.652 329.318 937.652C333.186 937.652 336.438 936.598 339.074 934.488C341.711 932.379 343.703 928.98 345.051 924.293ZM346.457 899.332C346.281 892.184 344.436 886.764 340.92 883.072C337.404 879.322 333.127 877.447 328.088 877.447C322.697 877.447 318.244 879.41 314.729 883.336C311.213 887.262 309.484 892.594 309.543 899.332H346.457ZM459.748 954L428.986 825.152H455.617L475.041 913.658L498.596 825.152H529.533L552.121 915.152L571.896 825.152H598.088L566.799 954H539.201L513.537 857.672L487.961 954H459.748ZM609.689 848.004V825.152H634.387V848.004H609.689ZM609.689 954V860.66H634.387V954H609.689ZM744.689 954H719.992V906.363C719.992 896.285 719.465 889.781 718.41 886.852C717.355 883.863 715.627 881.549 713.225 879.908C710.881 878.268 708.039 877.447 704.699 877.447C700.422 877.447 696.584 878.619 693.186 880.963C689.787 883.307 687.443 886.412 686.154 890.279C684.924 894.146 684.309 901.295 684.309 911.725V954H659.611V860.66H682.551V874.371C690.695 863.824 700.949 858.551 713.312 858.551C718.762 858.551 723.742 859.547 728.254 861.539C732.766 863.473 736.164 865.963 738.449 869.01C740.793 872.057 742.404 875.514 743.283 879.381C744.221 883.248 744.689 888.785 744.689 895.992V954ZM855.432 954H832.492V940.289C828.684 945.621 824.172 949.605 818.957 952.242C813.801 954.82 808.586 956.109 803.312 956.109C792.59 956.109 783.391 951.803 775.715 943.189C768.098 934.518 764.289 922.447 764.289 906.979C764.289 891.158 768.01 879.146 775.451 870.943C782.893 862.682 792.297 858.551 803.664 858.551C814.094 858.551 823.117 862.887 830.734 871.559V825.152H855.432V954ZM789.514 905.309C789.514 915.27 790.891 922.477 793.645 926.93C797.629 933.375 803.195 936.598 810.344 936.598C816.027 936.598 820.861 934.195 824.846 929.391C828.83 924.527 830.822 917.291 830.822 907.682C830.822 896.959 828.889 889.254 825.021 884.566C821.154 879.82 816.203 877.447 810.168 877.447C804.309 877.447 799.387 879.791 795.402 884.479C791.477 889.107 789.514 896.051 789.514 905.309Z" fill="#FEFAFA"/>
<path d="M187.287 1632H158.986L147.736 1602.73H96.2324L85.5977 1632H58L108.186 1503.15H135.695L187.287 1632ZM139.387 1581.02L121.633 1533.21L104.23 1581.02H139.387ZM282.385 1566.26L258.039 1570.65C257.219 1565.79 255.344 1562.13 252.414 1559.67C249.543 1557.21 245.793 1555.97 241.164 1555.97C235.012 1555.97 230.09 1558.11 226.398 1562.39C222.766 1566.61 220.949 1573.7 220.949 1583.66C220.949 1594.73 222.795 1602.56 226.486 1607.13C230.236 1611.7 235.246 1613.98 241.516 1613.98C246.203 1613.98 250.041 1612.66 253.029 1610.03C256.018 1607.33 258.127 1602.73 259.357 1596.23L283.615 1600.36C281.096 1611.49 276.262 1619.9 269.113 1625.58C261.965 1631.27 252.385 1634.11 240.373 1634.11C226.721 1634.11 215.822 1629.8 207.678 1621.19C199.592 1612.58 195.549 1600.65 195.549 1585.42C195.549 1570.01 199.621 1558.03 207.766 1549.47C215.91 1540.86 226.926 1536.55 240.812 1536.55C252.18 1536.55 261.203 1539.01 267.883 1543.93C274.621 1548.8 279.455 1556.24 282.385 1566.26ZM355.246 1602.29L379.855 1606.42C376.691 1615.45 371.682 1622.33 364.826 1627.08C358.029 1631.77 349.504 1634.11 339.25 1634.11C323.02 1634.11 311.008 1628.81 303.215 1618.2C297.062 1609.71 293.986 1598.98 293.986 1586.03C293.986 1570.56 298.029 1558.46 306.115 1549.73C314.201 1540.95 324.426 1536.55 336.789 1536.55C350.676 1536.55 361.633 1541.15 369.66 1550.35C377.688 1559.49 381.525 1573.52 381.174 1592.45H319.299C319.475 1599.77 321.467 1605.49 325.275 1609.59C329.084 1613.63 333.83 1615.65 339.514 1615.65C343.381 1615.65 346.633 1614.6 349.27 1612.49C351.906 1610.38 353.898 1606.98 355.246 1602.29ZM356.652 1577.33C356.477 1570.18 354.631 1564.76 351.115 1561.07C347.6 1557.32 343.322 1555.45 338.283 1555.45C332.893 1555.45 328.439 1557.41 324.924 1561.34C321.408 1565.26 319.68 1570.59 319.738 1577.33H356.652ZM451.486 1526V1503.15H476.184V1526H451.486ZM451.486 1632V1538.66H476.184V1632H451.486ZM586.486 1632H561.789V1584.36C561.789 1574.29 561.262 1567.78 560.207 1564.85C559.152 1561.86 557.424 1559.55 555.021 1557.91C552.678 1556.27 549.836 1555.45 546.496 1555.45C542.219 1555.45 538.381 1556.62 534.982 1558.96C531.584 1561.31 529.24 1564.41 527.951 1568.28C526.721 1572.15 526.105 1579.29 526.105 1589.72V1632H501.408V1538.66H524.348V1552.37C532.492 1541.82 542.746 1536.55 555.109 1536.55C560.559 1536.55 565.539 1537.55 570.051 1539.54C574.562 1541.47 577.961 1543.96 580.246 1547.01C582.59 1550.06 584.201 1553.51 585.08 1557.38C586.018 1561.25 586.486 1566.79 586.486 1573.99V1632ZM704.523 1538.66V1558.35H687.648V1595.96C687.648 1603.58 687.795 1608.04 688.088 1609.32C688.439 1610.55 689.172 1611.58 690.285 1612.4C691.457 1613.22 692.863 1613.63 694.504 1613.63C696.789 1613.63 700.1 1612.84 704.436 1611.26L706.545 1630.42C700.803 1632.88 694.299 1634.11 687.033 1634.11C682.58 1634.11 678.566 1633.38 674.992 1631.91C671.418 1630.39 668.781 1628.46 667.082 1626.11C665.441 1623.71 664.299 1620.49 663.654 1616.44C663.127 1613.57 662.863 1607.77 662.863 1599.04V1558.35H651.525V1538.66H662.863V1520.12L687.648 1505.7V1538.66H704.523ZM746.271 1503.15V1550.53C754.24 1541.21 763.762 1536.55 774.836 1536.55C780.52 1536.55 785.646 1537.61 790.217 1539.71C794.787 1541.82 798.215 1544.52 800.5 1547.8C802.844 1551.08 804.426 1554.71 805.246 1558.7C806.125 1562.68 806.564 1568.87 806.564 1577.24V1632H781.867V1582.69C781.867 1572.91 781.398 1566.7 780.461 1564.06C779.523 1561.42 777.854 1559.34 775.451 1557.82C773.107 1556.24 770.148 1555.45 766.574 1555.45C762.473 1555.45 758.811 1556.44 755.588 1558.44C752.365 1560.43 749.992 1563.45 748.469 1567.49C747.004 1571.47 746.271 1577.39 746.271 1585.24V1632H721.574V1503.15H746.271ZM885.754 1602.29L910.363 1606.42C907.199 1615.45 902.189 1622.33 895.334 1627.08C888.537 1631.77 880.012 1634.11 869.758 1634.11C853.527 1634.11 841.516 1628.81 833.723 1618.2C827.57 1609.71 824.494 1598.98 824.494 1586.03C824.494 1570.56 828.537 1558.46 836.623 1549.73C844.709 1540.95 854.934 1536.55 867.297 1536.55C881.184 1536.55 892.141 1541.15 900.168 1550.35C908.195 1559.49 912.033 1573.52 911.682 1592.45H849.807C849.982 1599.77 851.975 1605.49 855.783 1609.59C859.592 1613.63 864.338 1615.65 870.021 1615.65C873.889 1615.65 877.141 1614.6 879.777 1612.49C882.414 1610.38 884.406 1606.98 885.754 1602.29ZM887.16 1577.33C886.984 1570.18 885.139 1564.76 881.623 1561.07C878.107 1557.32 873.83 1555.45 868.791 1555.45C863.4 1555.45 858.947 1557.41 855.432 1561.34C851.916 1565.26 850.188 1570.59 850.246 1577.33H887.16ZM982.258 1632V1503.15H1008.27V1553.87H1059.25V1503.15H1085.27V1632H1059.25V1575.66H1008.27V1632H982.258ZM1106.36 1584.01C1106.36 1575.81 1108.38 1567.87 1112.42 1560.19C1116.47 1552.52 1122.18 1546.66 1129.56 1542.62C1137 1538.57 1145.29 1536.55 1154.44 1536.55C1168.56 1536.55 1180.13 1541.15 1189.15 1550.35C1198.18 1559.49 1202.69 1571.06 1202.69 1585.07C1202.69 1599.19 1198.12 1610.91 1188.98 1620.22C1179.89 1629.48 1168.44 1634.11 1154.61 1634.11C1146.06 1634.11 1137.88 1632.18 1130.09 1628.31C1122.36 1624.44 1116.47 1618.79 1112.42 1611.35C1108.38 1603.85 1106.36 1594.73 1106.36 1584.01ZM1131.67 1585.33C1131.67 1594.59 1133.87 1601.68 1138.26 1606.6C1142.66 1611.52 1148.08 1613.98 1154.52 1613.98C1160.97 1613.98 1166.36 1611.52 1170.7 1606.6C1175.09 1601.68 1177.29 1594.53 1177.29 1585.15C1177.29 1576.01 1175.09 1568.98 1170.7 1564.06C1166.36 1559.14 1160.97 1556.68 1154.52 1556.68C1148.08 1556.68 1142.66 1559.14 1138.26 1564.06C1133.87 1568.98 1131.67 1576.07 1131.67 1585.33ZM1222.11 1632V1503.15H1246.81V1632H1222.11ZM1326.26 1602.29L1350.87 1606.42C1347.71 1615.45 1342.7 1622.33 1335.84 1627.08C1329.04 1631.77 1320.52 1634.11 1310.27 1634.11C1294.04 1634.11 1282.02 1628.81 1274.23 1618.2C1268.08 1609.71 1265 1598.98 1265 1586.03C1265 1570.56 1269.04 1558.46 1277.13 1549.73C1285.22 1540.95 1295.44 1536.55 1307.8 1536.55C1321.69 1536.55 1332.65 1541.15 1340.68 1550.35C1348.7 1559.49 1352.54 1573.52 1352.19 1592.45H1290.31C1290.49 1599.77 1292.48 1605.49 1296.29 1609.59C1300.1 1613.63 1304.85 1615.65 1310.53 1615.65C1314.4 1615.65 1317.65 1614.6 1320.29 1612.49C1322.92 1610.38 1324.91 1606.98 1326.26 1602.29ZM1327.67 1577.33C1327.49 1570.18 1325.65 1564.76 1322.13 1561.07C1318.62 1557.32 1314.34 1555.45 1309.3 1555.45C1303.91 1555.45 1299.46 1557.41 1295.94 1561.34C1292.42 1565.26 1290.7 1570.59 1290.75 1577.33H1327.67Z" fill="#FEFAFA"/>
<path d="M71.7988 2334V2206.21H97.8145V2312.29H162.502V2334H71.7988ZM199.416 2269.14L177.004 2265.09C179.523 2256.07 183.859 2249.39 190.012 2245.05C196.164 2240.72 205.305 2238.55 217.434 2238.55C228.449 2238.55 236.652 2239.87 242.043 2242.51C247.434 2245.08 251.213 2248.39 253.381 2252.44C255.607 2256.42 256.721 2263.78 256.721 2274.5L256.457 2303.33C256.457 2311.53 256.838 2317.59 257.6 2321.52C258.42 2325.39 259.914 2329.55 262.082 2334H237.648C237.004 2332.36 236.213 2329.93 235.275 2326.71C234.865 2325.24 234.572 2324.27 234.396 2323.8C230.178 2327.91 225.666 2330.98 220.861 2333.03C216.057 2335.08 210.93 2336.11 205.48 2336.11C195.871 2336.11 188.283 2333.5 182.717 2328.29C177.209 2323.07 174.455 2316.48 174.455 2308.51C174.455 2303.24 175.715 2298.55 178.234 2294.45C180.754 2290.29 184.27 2287.12 188.781 2284.96C193.352 2282.73 199.914 2280.8 208.469 2279.16C220.012 2276.99 228.01 2274.97 232.463 2273.09V2270.63C232.463 2265.88 231.291 2262.52 228.947 2260.52C226.604 2258.47 222.18 2257.45 215.676 2257.45C211.281 2257.45 207.854 2258.33 205.393 2260.08C202.932 2261.78 200.939 2264.8 199.416 2269.14ZM232.463 2289.18C229.299 2290.23 224.289 2291.49 217.434 2292.96C210.578 2294.42 206.096 2295.86 203.986 2297.26C200.764 2299.55 199.152 2302.45 199.152 2305.96C199.152 2309.42 200.441 2312.41 203.02 2314.93C205.598 2317.45 208.879 2318.71 212.863 2318.71C217.316 2318.71 221.564 2317.24 225.607 2314.31C228.596 2312.09 230.559 2309.36 231.496 2306.14C232.141 2304.03 232.463 2300.02 232.463 2294.1V2289.18ZM391.369 2286.63V2264.92H447.443V2316.25C441.994 2321.52 434.084 2326.18 423.713 2330.22C413.4 2334.21 402.941 2336.2 392.336 2336.2C378.859 2336.2 367.111 2333.38 357.092 2327.76C347.072 2322.08 339.543 2313.99 334.504 2303.5C329.465 2292.96 326.945 2281.5 326.945 2269.14C326.945 2255.72 329.758 2243.79 335.383 2233.37C341.008 2222.94 349.24 2214.94 360.08 2209.37C368.342 2205.09 378.625 2202.96 390.93 2202.96C406.926 2202.96 419.406 2206.32 428.371 2213.06C437.395 2219.74 443.195 2229 445.773 2240.84L419.934 2245.67C418.117 2239.34 414.689 2234.36 409.65 2230.73C404.67 2227.04 398.43 2225.19 390.93 2225.19C379.562 2225.19 370.51 2228.79 363.771 2236C357.092 2243.21 353.752 2253.9 353.752 2268.08C353.752 2283.38 357.15 2294.86 363.947 2302.54C370.744 2310.15 379.65 2313.96 390.666 2313.96C396.115 2313.96 401.564 2312.91 407.014 2310.8C412.521 2308.63 417.238 2306.02 421.164 2302.97V2286.63H391.369ZM494.992 2334H470.295V2240.66H493.234V2253.93C497.16 2247.66 500.676 2243.53 503.781 2241.54C506.945 2239.55 510.52 2238.55 514.504 2238.55C520.129 2238.55 525.549 2240.1 530.764 2243.21L523.117 2264.74C518.957 2262.05 515.09 2260.7 511.516 2260.7C508.059 2260.7 505.129 2261.67 502.727 2263.6C500.324 2265.47 498.42 2268.9 497.014 2273.88C495.666 2278.86 494.992 2289.29 494.992 2305.17V2334ZM559.943 2269.14L537.531 2265.09C540.051 2256.07 544.387 2249.39 550.539 2245.05C556.691 2240.72 565.832 2238.55 577.961 2238.55C588.977 2238.55 597.18 2239.87 602.57 2242.51C607.961 2245.08 611.74 2248.39 613.908 2252.44C616.135 2256.42 617.248 2263.78 617.248 2274.5L616.984 2303.33C616.984 2311.53 617.365 2317.59 618.127 2321.52C618.947 2325.39 620.441 2329.55 622.609 2334H598.176C597.531 2332.36 596.74 2329.93 595.803 2326.71C595.393 2325.24 595.1 2324.27 594.924 2323.8C590.705 2327.91 586.193 2330.98 581.389 2333.03C576.584 2335.08 571.457 2336.11 566.008 2336.11C556.398 2336.11 548.811 2333.5 543.244 2328.29C537.736 2323.07 534.982 2316.48 534.982 2308.51C534.982 2303.24 536.242 2298.55 538.762 2294.45C541.281 2290.29 544.797 2287.12 549.309 2284.96C553.879 2282.73 560.441 2280.8 568.996 2279.16C580.539 2276.99 588.537 2274.97 592.99 2273.09V2270.63C592.99 2265.88 591.818 2262.52 589.475 2260.52C587.131 2258.47 582.707 2257.45 576.203 2257.45C571.809 2257.45 568.381 2258.33 565.92 2260.08C563.459 2261.78 561.467 2264.8 559.943 2269.14ZM592.99 2289.18C589.826 2290.23 584.816 2291.49 577.961 2292.96C571.105 2294.42 566.623 2295.86 564.514 2297.26C561.291 2299.55 559.68 2302.45 559.68 2305.96C559.68 2309.42 560.969 2312.41 563.547 2314.93C566.125 2317.45 569.406 2318.71 573.391 2318.71C577.844 2318.71 582.092 2317.24 586.135 2314.31C589.123 2312.09 591.086 2309.36 592.023 2306.14C592.668 2304.03 592.99 2300.02 592.99 2294.1V2289.18ZM726.584 2334H701.887V2286.36C701.887 2276.29 701.359 2269.78 700.305 2266.85C699.25 2263.86 697.521 2261.55 695.119 2259.91C692.775 2258.27 689.934 2257.45 686.594 2257.45C682.316 2257.45 678.479 2258.62 675.08 2260.96C671.682 2263.31 669.338 2266.41 668.049 2270.28C666.818 2274.15 666.203 2281.29 666.203 2291.72V2334H641.506V2240.66H664.445V2254.37C672.59 2243.82 682.844 2238.55 695.207 2238.55C700.656 2238.55 705.637 2239.55 710.148 2241.54C714.66 2243.47 718.059 2245.96 720.344 2249.01C722.688 2252.06 724.299 2255.51 725.178 2259.38C726.115 2263.25 726.584 2268.79 726.584 2275.99V2334ZM837.326 2334H814.387V2320.29C810.578 2325.62 806.066 2329.61 800.852 2332.24C795.695 2334.82 790.48 2336.11 785.207 2336.11C774.484 2336.11 765.285 2331.8 757.609 2323.19C749.992 2314.52 746.184 2302.45 746.184 2286.98C746.184 2271.16 749.904 2259.15 757.346 2250.94C764.787 2242.68 774.191 2238.55 785.559 2238.55C795.988 2238.55 805.012 2242.89 812.629 2251.56V2205.15H837.326V2334ZM771.408 2285.31C771.408 2295.27 772.785 2302.48 775.539 2306.93C779.523 2313.38 785.09 2316.6 792.238 2316.6C797.922 2316.6 802.756 2314.2 806.74 2309.39C810.725 2304.53 812.717 2297.29 812.717 2287.68C812.717 2276.96 810.783 2269.25 806.916 2264.57C803.049 2259.82 798.098 2257.45 792.062 2257.45C786.203 2257.45 781.281 2259.79 777.297 2264.48C773.371 2269.11 771.408 2276.05 771.408 2285.31ZM915.812 2304.29L940.422 2308.42C937.258 2317.45 932.248 2324.33 925.393 2329.08C918.596 2333.77 910.07 2336.11 899.816 2336.11C883.586 2336.11 871.574 2330.81 863.781 2320.2C857.629 2311.71 854.553 2300.98 854.553 2288.03C854.553 2272.56 858.596 2260.46 866.682 2251.73C874.768 2242.95 884.992 2238.55 897.355 2238.55C911.242 2238.55 922.199 2243.15 930.227 2252.35C938.254 2261.49 942.092 2275.52 941.74 2294.45H879.865C880.041 2301.77 882.033 2307.49 885.842 2311.59C889.65 2315.63 894.396 2317.65 900.08 2317.65C903.947 2317.65 907.199 2316.6 909.836 2314.49C912.473 2312.38 914.465 2308.98 915.812 2304.29ZM917.219 2279.33C917.043 2272.18 915.197 2266.76 911.682 2263.07C908.166 2259.32 903.889 2257.45 898.85 2257.45C893.459 2257.45 889.006 2259.41 885.49 2263.34C881.975 2267.26 880.246 2272.59 880.305 2279.33H917.219ZM1011.44 2334V2205.15H1037.45V2334H1011.44ZM1062.15 2334V2205.15H1086.85V2334H1062.15ZM1112.25 2334V2205.15H1136.95V2334H1112.25ZM1223.78 2334V2320.03C1220.38 2325.01 1215.9 2328.93 1210.33 2331.8C1204.83 2334.67 1199 2336.11 1192.84 2336.11C1186.57 2336.11 1180.95 2334.73 1175.97 2331.98C1170.99 2329.22 1167.38 2325.36 1165.16 2320.38C1162.93 2315.4 1161.82 2308.51 1161.82 2299.72V2240.66H1186.52V2283.55C1186.52 2296.68 1186.96 2304.73 1187.83 2307.72C1188.77 2310.65 1190.44 2312.99 1192.84 2314.75C1195.25 2316.45 1198.29 2317.3 1201.98 2317.3C1206.2 2317.3 1209.98 2316.16 1213.32 2313.87C1216.66 2311.53 1218.95 2308.66 1220.18 2305.26C1221.41 2301.8 1222.02 2293.39 1222.02 2280.04V2240.66H1246.72V2334H1223.78ZM1263.68 2307.37L1288.47 2303.59C1289.52 2308.39 1291.66 2312.06 1294.88 2314.58C1298.11 2317.04 1302.62 2318.27 1308.42 2318.27C1314.81 2318.27 1319.61 2317.1 1322.83 2314.75C1325 2313.11 1326.09 2310.91 1326.09 2308.16C1326.09 2306.29 1325.5 2304.73 1324.33 2303.5C1323.1 2302.33 1320.34 2301.25 1316.07 2300.25C1296.14 2295.86 1283.52 2291.84 1278.19 2288.21C1270.8 2283.17 1267.11 2276.17 1267.11 2267.2C1267.11 2259.12 1270.3 2252.32 1276.69 2246.81C1283.08 2241.3 1292.98 2238.55 1306.4 2238.55C1319.17 2238.55 1328.66 2240.63 1334.88 2244.79C1341.09 2248.95 1345.36 2255.1 1347.71 2263.25L1324.42 2267.55C1323.42 2263.92 1321.52 2261.14 1318.7 2259.21C1315.95 2257.27 1311.99 2256.3 1306.84 2256.3C1300.33 2256.3 1295.68 2257.21 1292.86 2259.03C1290.99 2260.32 1290.05 2261.99 1290.05 2264.04C1290.05 2265.8 1290.87 2267.29 1292.51 2268.52C1294.74 2270.16 1302.41 2272.48 1315.54 2275.46C1328.72 2278.45 1337.92 2282.12 1343.14 2286.45C1348.29 2290.85 1350.87 2296.97 1350.87 2304.82C1350.87 2313.38 1347.3 2320.73 1340.15 2326.88C1333 2333.03 1322.42 2336.11 1308.42 2336.11C1295.71 2336.11 1285.63 2333.53 1278.19 2328.38C1270.8 2323.22 1265.97 2316.22 1263.68 2307.37ZM1372.58 2228V2205.15H1397.28V2228H1372.58ZM1372.58 2334V2240.66H1397.28V2334H1372.58ZM1416.96 2286.01C1416.96 2277.81 1418.99 2269.87 1423.03 2262.19C1427.07 2254.52 1432.79 2248.66 1440.17 2244.62C1447.61 2240.57 1455.9 2238.55 1465.04 2238.55C1479.16 2238.55 1490.73 2243.15 1499.76 2252.35C1508.78 2261.49 1513.29 2273.06 1513.29 2287.07C1513.29 2301.19 1508.72 2312.91 1499.58 2322.22C1490.5 2331.48 1479.04 2336.11 1465.22 2336.11C1456.66 2336.11 1448.49 2334.18 1440.7 2330.31C1432.96 2326.44 1427.07 2320.79 1423.03 2313.35C1418.99 2305.85 1416.96 2296.73 1416.96 2286.01ZM1442.28 2287.33C1442.28 2296.59 1444.47 2303.68 1448.87 2308.6C1453.26 2313.52 1458.68 2315.98 1465.13 2315.98C1471.57 2315.98 1476.96 2313.52 1481.3 2308.6C1485.7 2303.68 1487.89 2296.53 1487.89 2287.15C1487.89 2278.01 1485.7 2270.98 1481.3 2266.06C1476.96 2261.14 1471.57 2258.68 1465.13 2258.68C1458.68 2258.68 1453.26 2261.14 1448.87 2266.06C1444.47 2270.98 1442.28 2278.07 1442.28 2287.33ZM1617.62 2334H1592.92V2286.36C1592.92 2276.29 1592.39 2269.78 1591.34 2266.85C1590.29 2263.86 1588.56 2261.55 1586.15 2259.91C1583.81 2258.27 1580.97 2257.45 1577.63 2257.45C1573.35 2257.45 1569.51 2258.62 1566.12 2260.96C1562.72 2263.31 1560.37 2266.41 1559.08 2270.28C1557.85 2274.15 1557.24 2281.29 1557.24 2291.72V2334H1532.54V2240.66H1555.48V2254.37C1563.62 2243.82 1573.88 2238.55 1586.24 2238.55C1591.69 2238.55 1596.67 2239.55 1601.18 2241.54C1605.7 2243.47 1609.09 2245.96 1611.38 2249.01C1613.72 2252.06 1615.33 2255.51 1616.21 2259.38C1617.15 2263.25 1617.62 2268.79 1617.62 2275.99V2334Z" fill="#FEFAFA"/>
<path d="M39.0996 3001V2893.95H0.867188V2872.15H103.26V2893.95H65.1152V3001H39.0996ZM144.568 2872.15V2919.53C152.537 2910.21 162.059 2905.55 173.133 2905.55C178.816 2905.55 183.943 2906.61 188.514 2908.71C193.084 2910.82 196.512 2913.52 198.797 2916.8C201.141 2920.08 202.723 2923.71 203.543 2927.7C204.422 2931.68 204.861 2937.87 204.861 2946.24V3001H180.164V2951.69C180.164 2941.91 179.695 2935.7 178.758 2933.06C177.82 2930.42 176.15 2928.34 173.748 2926.82C171.404 2925.24 168.445 2924.45 164.871 2924.45C160.77 2924.45 157.107 2925.44 153.885 2927.44C150.662 2929.43 148.289 2932.45 146.766 2936.49C145.301 2940.47 144.568 2946.39 144.568 2954.24V3001H119.871V2872.15H144.568ZM284.051 2971.29L308.66 2975.42C305.496 2984.45 300.486 2991.33 293.631 2996.08C286.834 3000.77 278.309 3003.11 268.055 3003.11C251.824 3003.11 239.812 2997.81 232.02 2987.2C225.867 2978.71 222.791 2967.98 222.791 2955.03C222.791 2939.56 226.834 2927.46 234.92 2918.73C243.006 2909.95 253.23 2905.55 265.594 2905.55C279.48 2905.55 290.438 2910.15 298.465 2919.35C306.492 2928.49 310.33 2942.52 309.979 2961.45H248.104C248.279 2968.77 250.271 2974.49 254.08 2978.59C257.889 2982.63 262.635 2984.65 268.318 2984.65C272.186 2984.65 275.438 2983.6 278.074 2981.49C280.711 2979.38 282.703 2975.98 284.051 2971.29ZM285.457 2946.33C285.281 2939.18 283.436 2933.76 279.92 2930.07C276.404 2926.32 272.127 2924.45 267.088 2924.45C261.697 2924.45 257.244 2926.41 253.729 2930.34C250.213 2934.26 248.484 2939.59 248.543 2946.33H285.457ZM381.17 3001V2873.21H407.186V2979.29H471.873V3001H381.17ZM508.787 2936.14L486.375 2932.09C488.895 2923.07 493.23 2916.39 499.383 2912.05C505.535 2907.72 514.676 2905.55 526.805 2905.55C537.82 2905.55 546.023 2906.87 551.414 2909.51C556.805 2912.08 560.584 2915.39 562.752 2919.44C564.979 2923.42 566.092 2930.78 566.092 2941.5L565.828 2970.33C565.828 2978.53 566.209 2984.59 566.971 2988.52C567.791 2992.39 569.285 2996.55 571.453 3001H547.02C546.375 2999.36 545.584 2996.93 544.646 2993.71C544.236 2992.24 543.943 2991.27 543.768 2990.8C539.549 2994.91 535.037 2997.98 530.232 3000.03C525.428 3002.08 520.301 3003.11 514.852 3003.11C505.242 3003.11 497.654 3000.5 492.088 2995.29C486.58 2990.07 483.826 2983.48 483.826 2975.51C483.826 2970.24 485.086 2965.55 487.605 2961.45C490.125 2957.29 493.641 2954.12 498.152 2951.96C502.723 2949.73 509.285 2947.8 517.84 2946.16C529.383 2943.99 537.381 2941.97 541.834 2940.09V2937.63C541.834 2932.88 540.662 2929.52 538.318 2927.52C535.975 2925.47 531.551 2924.45 525.047 2924.45C520.652 2924.45 517.225 2925.33 514.764 2927.08C512.303 2928.78 510.311 2931.8 508.787 2936.14ZM541.834 2956.18C538.67 2957.23 533.66 2958.49 526.805 2959.96C519.949 2961.42 515.467 2962.86 513.357 2964.26C510.135 2966.55 508.523 2969.45 508.523 2972.96C508.523 2976.42 509.812 2979.41 512.391 2981.93C514.969 2984.45 518.25 2985.71 522.234 2985.71C526.688 2985.71 530.936 2984.24 534.979 2981.31C537.967 2979.09 539.93 2976.36 540.867 2973.14C541.512 2971.03 541.834 2967.02 541.834 2961.1V2956.18ZM581.824 2974.37L606.609 2970.59C607.664 2975.39 609.803 2979.06 613.025 2981.58C616.248 2984.04 620.76 2985.27 626.561 2985.27C632.947 2985.27 637.752 2984.1 640.975 2981.75C643.143 2980.11 644.227 2977.91 644.227 2975.16C644.227 2973.29 643.641 2971.73 642.469 2970.5C641.238 2969.33 638.484 2968.25 634.207 2967.25C614.285 2962.86 601.658 2958.84 596.326 2955.21C588.943 2950.17 585.252 2943.17 585.252 2934.2C585.252 2926.12 588.445 2919.32 594.832 2913.81C601.219 2908.3 611.121 2905.55 624.539 2905.55C637.312 2905.55 646.805 2907.63 653.016 2911.79C659.227 2915.95 663.504 2922.1 665.848 2930.25L642.557 2934.55C641.561 2930.92 639.656 2928.14 636.844 2926.21C634.09 2924.27 630.135 2923.3 624.979 2923.3C618.475 2923.3 613.816 2924.21 611.004 2926.03C609.129 2927.32 608.191 2928.99 608.191 2931.04C608.191 2932.8 609.012 2934.29 610.652 2935.52C612.879 2937.16 620.555 2939.48 633.68 2942.46C646.863 2945.45 656.062 2949.12 661.277 2953.45C666.434 2957.85 669.012 2963.97 669.012 2971.82C669.012 2980.38 665.438 2987.73 658.289 2993.88C651.141 3000.03 640.564 3003.11 626.561 3003.11C613.846 3003.11 603.768 3000.53 596.326 2995.38C588.943 2990.22 584.109 2983.22 581.824 2974.37ZM733.523 2907.66V2927.35H716.648V2964.96C716.648 2972.58 716.795 2977.04 717.088 2978.32C717.439 2979.55 718.172 2980.58 719.285 2981.4C720.457 2982.22 721.863 2982.63 723.504 2982.63C725.789 2982.63 729.1 2981.84 733.436 2980.26L735.545 2999.42C729.803 3001.88 723.299 3003.11 716.033 3003.11C711.58 3003.11 707.566 3002.38 703.992 3000.91C700.418 2999.39 697.781 2997.46 696.082 2995.11C694.441 2992.71 693.299 2989.49 692.654 2985.44C692.127 2982.57 691.863 2976.77 691.863 2968.04V2927.35H680.525V2907.66H691.863V2889.12L716.648 2874.7V2907.66H733.523ZM883.377 2953.63L908.602 2961.62C904.734 2975.69 898.289 2986.15 889.266 2993C880.301 2999.8 868.904 3003.2 855.076 3003.2C837.967 3003.2 823.904 2997.37 812.889 2985.71C801.873 2973.99 796.365 2957.99 796.365 2937.72C796.365 2916.27 801.902 2899.63 812.977 2887.8C824.051 2875.9 838.611 2869.96 856.658 2869.96C872.42 2869.96 885.223 2874.61 895.066 2883.93C900.926 2889.44 905.32 2897.35 908.25 2907.66L882.498 2913.81C880.975 2907.13 877.781 2901.86 872.918 2897.99C868.113 2894.12 862.254 2892.19 855.34 2892.19C845.789 2892.19 838.025 2895.62 832.049 2902.47C826.131 2909.33 823.172 2920.43 823.172 2935.79C823.172 2952.07 826.102 2963.68 831.961 2970.59C837.82 2977.5 845.438 2980.96 854.812 2980.96C861.727 2980.96 867.674 2978.76 872.654 2974.37C877.635 2969.97 881.209 2963.06 883.377 2953.63ZM925.125 2953.01C925.125 2944.81 927.146 2936.87 931.189 2929.19C935.232 2921.52 940.945 2915.66 948.328 2911.62C955.77 2907.57 964.061 2905.55 973.201 2905.55C987.322 2905.55 998.895 2910.15 1007.92 2919.35C1016.94 2928.49 1021.45 2940.06 1021.45 2954.07C1021.45 2968.19 1016.88 2979.91 1007.74 2989.22C998.66 2998.48 987.205 3003.11 973.377 3003.11C964.822 3003.11 956.648 3001.18 948.855 2997.31C941.121 2993.44 935.232 2987.79 931.189 2980.35C927.146 2972.85 925.125 2963.73 925.125 2953.01ZM950.438 2954.33C950.438 2963.59 952.635 2970.68 957.029 2975.6C961.424 2980.52 966.844 2982.98 973.289 2982.98C979.734 2982.98 985.125 2980.52 989.461 2975.6C993.855 2970.68 996.053 2963.53 996.053 2954.15C996.053 2945.01 993.855 2937.98 989.461 2933.06C985.125 2928.14 979.734 2925.68 973.289 2925.68C966.844 2925.68 961.424 2928.14 957.029 2933.06C952.635 2937.98 950.438 2945.07 950.438 2954.33ZM1039.03 2907.66H1061.79V2920.4C1069.94 2910.5 1079.64 2905.55 1090.89 2905.55C1096.86 2905.55 1102.05 2906.78 1106.44 2909.24C1110.84 2911.7 1114.44 2915.42 1117.25 2920.4C1121.36 2915.42 1125.78 2911.7 1130.53 2909.24C1135.27 2906.78 1140.34 2905.55 1145.73 2905.55C1152.59 2905.55 1158.39 2906.96 1163.13 2909.77C1167.88 2912.52 1171.42 2916.6 1173.77 2921.99C1175.47 2925.97 1176.32 2932.42 1176.32 2941.32V3001H1151.62V2947.65C1151.62 2938.39 1150.77 2932.42 1149.07 2929.72C1146.79 2926.21 1143.27 2924.45 1138.52 2924.45C1135.07 2924.45 1131.81 2925.5 1128.77 2927.61C1125.72 2929.72 1123.52 2932.83 1122.18 2936.93C1120.83 2940.97 1120.15 2947.39 1120.15 2956.18V3001H1095.46V2949.85C1095.46 2940.77 1095.02 2934.91 1094.14 2932.27C1093.26 2929.63 1091.88 2927.67 1090.01 2926.38C1088.19 2925.09 1085.7 2924.45 1082.54 2924.45C1078.73 2924.45 1075.3 2925.47 1072.25 2927.52C1069.21 2929.57 1067.01 2932.53 1065.66 2936.4C1064.37 2940.27 1063.73 2946.68 1063.73 2955.65V3001H1039.03V2907.66ZM1199.17 2907.66H1221.93V2920.4C1230.08 2910.5 1239.77 2905.55 1251.02 2905.55C1257 2905.55 1262.19 2906.78 1266.58 2909.24C1270.97 2911.7 1274.58 2915.42 1277.39 2920.4C1281.49 2915.42 1285.92 2911.7 1290.66 2909.24C1295.41 2906.78 1300.48 2905.55 1305.87 2905.55C1312.72 2905.55 1318.52 2906.96 1323.27 2909.77C1328.02 2912.52 1331.56 2916.6 1333.9 2921.99C1335.6 2925.97 1336.45 2932.42 1336.45 2941.32V3001H1311.76V2947.65C1311.76 2938.39 1310.91 2932.42 1309.21 2929.72C1306.92 2926.21 1303.41 2924.45 1298.66 2924.45C1295.2 2924.45 1291.95 2925.5 1288.9 2927.61C1285.86 2929.72 1283.66 2932.83 1282.31 2936.93C1280.96 2940.97 1280.29 2947.39 1280.29 2956.18V3001H1255.59V2949.85C1255.59 2940.77 1255.15 2934.91 1254.28 2932.27C1253.4 2929.63 1252.02 2927.67 1250.14 2926.38C1248.33 2925.09 1245.84 2924.45 1242.67 2924.45C1238.87 2924.45 1235.44 2925.47 1232.39 2927.52C1229.34 2929.57 1227.15 2932.53 1225.8 2936.4C1224.51 2940.27 1223.87 2946.68 1223.87 2955.65V3001H1199.17V2907.66ZM1379.61 2936.14L1357.2 2932.09C1359.71 2923.07 1364.05 2916.39 1370.2 2912.05C1376.36 2907.72 1385.5 2905.55 1397.62 2905.55C1408.64 2905.55 1416.84 2906.87 1422.23 2909.51C1427.62 2912.08 1431.4 2915.39 1433.57 2919.44C1435.8 2923.42 1436.91 2930.78 1436.91 2941.5L1436.65 2970.33C1436.65 2978.53 1437.03 2984.59 1437.79 2988.52C1438.61 2992.39 1440.11 2996.55 1442.27 3001H1417.84C1417.2 2999.36 1416.4 2996.93 1415.47 2993.71C1415.06 2992.24 1414.76 2991.27 1414.59 2990.8C1410.37 2994.91 1405.86 2997.98 1401.05 3000.03C1396.25 3002.08 1391.12 3003.11 1385.67 3003.11C1376.06 3003.11 1368.47 3000.5 1362.91 2995.29C1357.4 2990.07 1354.65 2983.48 1354.65 2975.51C1354.65 2970.24 1355.91 2965.55 1358.43 2961.45C1360.95 2957.29 1364.46 2954.12 1368.97 2951.96C1373.54 2949.73 1380.11 2947.8 1388.66 2946.16C1400.2 2943.99 1408.2 2941.97 1412.65 2940.09V2937.63C1412.65 2932.88 1411.48 2929.52 1409.14 2927.52C1406.79 2925.47 1402.37 2924.45 1395.87 2924.45C1391.47 2924.45 1388.04 2925.33 1385.58 2927.08C1383.12 2928.78 1381.13 2931.8 1379.61 2936.14ZM1412.65 2956.18C1409.49 2957.23 1404.48 2958.49 1397.62 2959.96C1390.77 2961.42 1386.29 2962.86 1384.18 2964.26C1380.96 2966.55 1379.34 2969.45 1379.34 2972.96C1379.34 2976.42 1380.63 2979.41 1383.21 2981.93C1385.79 2984.45 1389.07 2985.71 1393.05 2985.71C1397.51 2985.71 1401.76 2984.24 1405.8 2981.31C1408.79 2979.09 1410.75 2976.36 1411.69 2973.14C1412.33 2971.03 1412.65 2967.02 1412.65 2961.1V2956.18ZM1546.25 3001H1521.55V2953.36C1521.55 2943.29 1521.02 2936.78 1519.97 2933.85C1518.91 2930.86 1517.19 2928.55 1514.78 2926.91C1512.44 2925.27 1509.6 2924.45 1506.26 2924.45C1501.98 2924.45 1498.14 2925.62 1494.74 2927.96C1491.35 2930.31 1489 2933.41 1487.71 2937.28C1486.48 2941.15 1485.87 2948.29 1485.87 2958.72V3001H1461.17V2907.66H1484.11V2921.37C1492.25 2910.82 1502.51 2905.55 1514.87 2905.55C1520.32 2905.55 1525.3 2906.55 1529.81 2908.54C1534.32 2910.47 1537.72 2912.96 1540.01 2916.01C1542.35 2919.06 1543.96 2922.51 1544.84 2926.38C1545.78 2930.25 1546.25 2935.79 1546.25 2942.99V3001ZM1656.99 3001H1634.05V2987.29C1630.24 2992.62 1625.73 2996.61 1620.52 2999.24C1615.36 3001.82 1610.14 3003.11 1604.87 3003.11C1594.15 3003.11 1584.95 2998.8 1577.27 2990.19C1569.66 2981.52 1565.85 2969.45 1565.85 2953.98C1565.85 2938.16 1569.57 2926.15 1577.01 2917.94C1584.45 2909.68 1593.86 2905.55 1605.22 2905.55C1615.65 2905.55 1624.68 2909.89 1632.29 2918.56V2872.15H1656.99V3001ZM1591.07 2952.31C1591.07 2962.27 1592.45 2969.48 1595.2 2973.93C1599.19 2980.38 1604.75 2983.6 1611.9 2983.6C1617.59 2983.6 1622.42 2981.2 1626.4 2976.39C1630.39 2971.53 1632.38 2964.29 1632.38 2954.68C1632.38 2943.96 1630.45 2936.25 1626.58 2931.57C1622.71 2926.82 1617.76 2924.45 1611.73 2924.45C1605.87 2924.45 1600.95 2926.79 1596.96 2931.48C1593.04 2936.11 1591.07 2943.05 1591.07 2952.31Z" fill="#FEFAFA"/>
<path d="M70.7441 3638V3509.15H109.68L133.059 3597.04L156.174 3509.15H195.197V3638H171.027V3536.57L145.451 3638H120.402L94.9141 3536.57V3638H70.7441ZM215.148 3590.01C215.148 3581.81 217.17 3573.87 221.213 3566.19C225.256 3558.52 230.969 3552.66 238.352 3548.62C245.793 3544.57 254.084 3542.55 263.225 3542.55C277.346 3542.55 288.918 3547.15 297.941 3556.35C306.965 3565.49 311.477 3577.06 311.477 3591.07C311.477 3605.19 306.906 3616.91 297.766 3626.22C288.684 3635.48 277.229 3640.11 263.4 3640.11C254.846 3640.11 246.672 3638.18 238.879 3634.31C231.145 3630.44 225.256 3624.79 221.213 3617.35C217.17 3609.85 215.148 3600.73 215.148 3590.01ZM240.461 3591.33C240.461 3600.59 242.658 3607.68 247.053 3612.6C251.447 3617.52 256.867 3619.98 263.312 3619.98C269.758 3619.98 275.148 3617.52 279.484 3612.6C283.879 3607.68 286.076 3600.53 286.076 3591.15C286.076 3582.01 283.879 3574.98 279.484 3570.06C275.148 3565.14 269.758 3562.68 263.312 3562.68C256.867 3562.68 251.447 3565.14 247.053 3570.06C242.658 3574.98 240.461 3582.07 240.461 3591.33ZM416.506 3638H393.566V3624.29C389.758 3629.62 385.246 3633.61 380.031 3636.24C374.875 3638.82 369.66 3640.11 364.387 3640.11C353.664 3640.11 344.465 3635.8 336.789 3627.19C329.172 3618.52 325.363 3606.45 325.363 3590.98C325.363 3575.16 329.084 3563.15 336.525 3554.94C343.967 3546.68 353.371 3542.55 364.738 3542.55C375.168 3542.55 384.191 3546.89 391.809 3555.56V3509.15H416.506V3638ZM350.588 3589.31C350.588 3599.27 351.965 3606.48 354.719 3610.93C358.703 3617.38 364.27 3620.6 371.418 3620.6C377.102 3620.6 381.936 3618.2 385.92 3613.39C389.904 3608.53 391.896 3601.29 391.896 3591.68C391.896 3580.96 389.963 3573.25 386.096 3568.57C382.229 3563.82 377.277 3561.45 371.242 3561.45C365.383 3561.45 360.461 3563.79 356.477 3568.48C352.551 3573.11 350.588 3580.05 350.588 3589.31ZM494.992 3608.29L519.602 3612.42C516.438 3621.45 511.428 3628.33 504.572 3633.08C497.775 3637.77 489.25 3640.11 478.996 3640.11C462.766 3640.11 450.754 3634.81 442.961 3624.2C436.809 3615.71 433.732 3604.98 433.732 3592.03C433.732 3576.56 437.775 3564.46 445.861 3555.73C453.947 3546.95 464.172 3542.55 476.535 3542.55C490.422 3542.55 501.379 3547.15 509.406 3556.35C517.434 3565.49 521.271 3579.52 520.92 3598.45H459.045C459.221 3605.77 461.213 3611.49 465.021 3615.59C468.83 3619.63 473.576 3621.65 479.26 3621.65C483.127 3621.65 486.379 3620.6 489.016 3618.49C491.652 3616.38 493.645 3612.98 494.992 3608.29ZM496.398 3583.33C496.223 3576.18 494.377 3570.76 490.861 3567.07C487.346 3563.32 483.068 3561.45 478.029 3561.45C472.639 3561.45 468.186 3563.41 464.67 3567.34C461.154 3571.26 459.426 3576.59 459.484 3583.33H496.398ZM564.777 3638H540.08V3544.66H563.02V3557.93C566.945 3551.66 570.461 3547.53 573.566 3545.54C576.73 3543.55 580.305 3542.55 584.289 3542.55C589.914 3542.55 595.334 3544.1 600.549 3547.21L592.902 3568.74C588.742 3566.05 584.875 3564.7 581.301 3564.7C577.844 3564.7 574.914 3565.67 572.512 3567.6C570.109 3569.47 568.205 3572.9 566.799 3577.88C565.451 3582.86 564.777 3593.29 564.777 3609.17V3638ZM696.174 3638H671.477V3590.36C671.477 3580.29 670.949 3573.78 669.895 3570.85C668.84 3567.86 667.111 3565.55 664.709 3563.91C662.365 3562.27 659.523 3561.45 656.184 3561.45C651.906 3561.45 648.068 3562.62 644.67 3564.96C641.271 3567.31 638.928 3570.41 637.639 3574.28C636.408 3578.15 635.793 3585.29 635.793 3595.72V3638H611.096V3544.66H634.035V3558.37C642.18 3547.82 652.434 3542.55 664.797 3542.55C670.246 3542.55 675.227 3543.55 679.738 3545.54C684.25 3547.47 687.648 3549.96 689.934 3553.01C692.277 3556.06 693.889 3559.51 694.768 3563.38C695.705 3567.25 696.174 3572.79 696.174 3579.99V3638ZM800.588 3638V3530.95H762.355V3509.15H864.748V3530.95H826.604V3638H800.588ZM878.107 3532V3509.15H902.805V3532H878.107ZM878.107 3638V3544.66H902.805V3638H878.107ZM926.359 3544.66H949.123V3557.4C957.268 3547.5 966.965 3542.55 978.215 3542.55C984.191 3542.55 989.377 3543.78 993.771 3546.24C998.166 3548.7 1001.77 3552.42 1004.58 3557.4C1008.68 3552.42 1013.11 3548.7 1017.85 3546.24C1022.6 3543.78 1027.67 3542.55 1033.06 3542.55C1039.91 3542.55 1045.71 3543.96 1050.46 3546.77C1055.21 3549.52 1058.75 3553.6 1061.1 3558.99C1062.79 3562.97 1063.64 3569.42 1063.64 3578.32V3638H1038.95V3584.65C1038.95 3575.39 1038.1 3569.42 1036.4 3566.72C1034.11 3563.21 1030.6 3561.45 1025.85 3561.45C1022.39 3561.45 1019.14 3562.5 1016.1 3564.61C1013.05 3566.72 1010.85 3569.83 1009.5 3573.93C1008.16 3577.97 1007.48 3584.39 1007.48 3593.18V3638H982.785V3586.85C982.785 3577.77 982.346 3571.91 981.467 3569.27C980.588 3566.63 979.211 3564.67 977.336 3563.38C975.52 3562.09 973.029 3561.45 969.865 3561.45C966.057 3561.45 962.629 3562.47 959.582 3564.52C956.535 3566.57 954.338 3569.53 952.99 3573.4C951.701 3577.27 951.057 3583.68 951.057 3592.65V3638H926.359V3544.66ZM1142.39 3608.29L1167 3612.42C1163.84 3621.45 1158.83 3628.33 1151.97 3633.08C1145.18 3637.77 1136.65 3640.11 1126.4 3640.11C1110.17 3640.11 1098.16 3634.81 1090.36 3624.2C1084.21 3615.71 1081.13 3604.98 1081.13 3592.03C1081.13 3576.56 1085.18 3564.46 1093.26 3555.73C1101.35 3546.95 1111.57 3542.55 1123.94 3542.55C1137.82 3542.55 1148.78 3547.15 1156.81 3556.35C1164.84 3565.49 1168.67 3579.52 1168.32 3598.45H1106.45C1106.62 3605.77 1108.62 3611.49 1112.42 3615.59C1116.23 3619.63 1120.98 3621.65 1126.66 3621.65C1130.53 3621.65 1133.78 3620.6 1136.42 3618.49C1139.05 3616.38 1141.05 3612.98 1142.39 3608.29ZM1143.8 3583.33C1143.62 3576.18 1141.78 3570.76 1138.26 3567.07C1134.75 3563.32 1130.47 3561.45 1125.43 3561.45C1120.04 3561.45 1115.59 3563.41 1112.07 3567.34C1108.56 3571.26 1106.83 3576.59 1106.89 3583.33H1143.8ZM1179.84 3611.37L1204.62 3607.59C1205.68 3612.39 1207.81 3616.06 1211.04 3618.58C1214.26 3621.04 1218.77 3622.27 1224.57 3622.27C1230.96 3622.27 1235.76 3621.1 1238.99 3618.75C1241.15 3617.11 1242.24 3614.91 1242.24 3612.16C1242.24 3610.29 1241.65 3608.73 1240.48 3607.5C1239.25 3606.33 1236.5 3605.25 1232.22 3604.25C1212.3 3599.86 1199.67 3595.84 1194.34 3592.21C1186.96 3587.17 1183.26 3580.17 1183.26 3571.2C1183.26 3563.12 1186.46 3556.32 1192.84 3550.81C1199.23 3545.3 1209.13 3542.55 1222.55 3542.55C1235.32 3542.55 1244.82 3544.63 1251.03 3548.79C1257.24 3552.95 1261.52 3559.1 1263.86 3567.25L1240.57 3571.55C1239.57 3567.92 1237.67 3565.14 1234.86 3563.21C1232.1 3561.27 1228.15 3560.3 1222.99 3560.3C1216.49 3560.3 1211.83 3561.21 1209.02 3563.03C1207.14 3564.32 1206.2 3565.99 1206.2 3568.04C1206.2 3569.8 1207.02 3571.29 1208.66 3572.52C1210.89 3574.16 1218.57 3576.48 1231.69 3579.46C1244.88 3582.45 1254.07 3586.12 1259.29 3590.45C1264.45 3594.85 1267.02 3600.97 1267.02 3608.82C1267.02 3617.38 1263.45 3624.73 1256.3 3630.88C1249.15 3637.03 1238.58 3640.11 1224.57 3640.11C1211.86 3640.11 1201.78 3637.53 1194.34 3632.38C1186.96 3627.22 1182.12 3620.22 1179.84 3611.37Z" fill="#FEFAFA"/>
<path d="M10.0078 4222.15H57.5566C68.2793 4222.15 76.4531 4222.97 82.0781 4224.61C89.6367 4226.84 96.1113 4230.79 101.502 4236.48C106.893 4242.16 110.994 4249.13 113.807 4257.4C116.619 4265.6 118.025 4275.74 118.025 4287.81C118.025 4298.41 116.707 4307.55 114.07 4315.23C110.848 4324.6 106.248 4332.19 100.271 4337.99C95.7598 4342.39 89.666 4345.81 81.9902 4348.28C76.248 4350.09 68.5723 4351 58.9629 4351H10.0078V4222.15ZM36.0234 4243.95V4329.29H55.4473C62.7129 4329.29 67.957 4328.88 71.1797 4328.06C75.3984 4327.01 78.8848 4325.22 81.6387 4322.7C84.4512 4320.18 86.7363 4316.05 88.4941 4310.31C90.252 4304.51 91.1309 4296.62 91.1309 4286.66C91.1309 4276.7 90.252 4269.06 88.4941 4263.72C86.7363 4258.39 84.2754 4254.23 81.1113 4251.24C77.9473 4248.26 73.9336 4246.23 69.0703 4245.18C65.4375 4244.36 58.3184 4243.95 47.7129 4243.95H36.0234ZM134.285 4303.01C134.285 4294.81 136.307 4286.87 140.35 4279.19C144.393 4271.52 150.105 4265.66 157.488 4261.62C164.93 4257.57 173.221 4255.55 182.361 4255.55C196.482 4255.55 208.055 4260.15 217.078 4269.35C226.102 4278.49 230.613 4290.06 230.613 4304.07C230.613 4318.19 226.043 4329.91 216.902 4339.22C207.82 4348.48 196.365 4353.11 182.537 4353.11C173.982 4353.11 165.809 4351.18 158.016 4347.31C150.281 4343.44 144.393 4337.79 140.35 4330.35C136.307 4322.85 134.285 4313.73 134.285 4303.01ZM159.598 4304.33C159.598 4313.59 161.795 4320.68 166.189 4325.6C170.584 4330.52 176.004 4332.98 182.449 4332.98C188.895 4332.98 194.285 4330.52 198.621 4325.6C203.016 4320.68 205.213 4313.53 205.213 4304.15C205.213 4295.01 203.016 4287.98 198.621 4283.06C194.285 4278.14 188.895 4275.68 182.449 4275.68C176.004 4275.68 170.584 4278.14 166.189 4283.06C161.795 4287.98 159.598 4295.07 159.598 4304.33ZM311.473 4351V4337.03C308.074 4342.01 303.592 4345.93 298.025 4348.8C292.518 4351.67 286.688 4353.11 280.535 4353.11C274.266 4353.11 268.641 4351.73 263.66 4348.98C258.68 4346.22 255.076 4342.36 252.85 4337.38C250.623 4332.4 249.51 4325.51 249.51 4316.72V4257.66H274.207V4300.55C274.207 4313.68 274.646 4321.73 275.525 4324.72C276.463 4327.65 278.133 4329.99 280.535 4331.75C282.938 4333.45 285.984 4334.3 289.676 4334.3C293.895 4334.3 297.674 4333.16 301.014 4330.87C304.354 4328.53 306.639 4325.66 307.869 4322.26C309.1 4318.8 309.715 4310.39 309.715 4297.04V4257.66H334.412V4351H311.473ZM359.021 4351V4222.15H383.719V4268.56C391.336 4259.89 400.359 4255.55 410.789 4255.55C422.156 4255.55 431.561 4259.68 439.002 4267.94C446.443 4276.15 450.164 4287.95 450.164 4303.36C450.164 4319.3 446.355 4331.58 438.738 4340.19C431.18 4348.8 421.98 4353.11 411.141 4353.11C405.809 4353.11 400.535 4351.79 395.32 4349.15C390.164 4346.46 385.711 4342.5 381.961 4337.29V4351H359.021ZM383.543 4302.31C383.543 4311.98 385.066 4319.12 388.113 4323.75C392.391 4330.32 398.074 4333.6 405.164 4333.6C410.613 4333.6 415.242 4331.28 419.051 4326.65C422.918 4321.97 424.852 4314.61 424.852 4304.59C424.852 4293.93 422.918 4286.25 419.051 4281.57C415.184 4276.82 410.232 4274.45 404.197 4274.45C398.279 4274.45 393.357 4276.76 389.432 4281.39C385.506 4285.96 383.543 4292.93 383.543 4302.31ZM470.115 4351V4222.15H494.812V4351H470.115ZM574.266 4321.29L598.875 4325.42C595.711 4334.45 590.701 4341.33 583.846 4346.08C577.049 4350.77 568.523 4353.11 558.27 4353.11C542.039 4353.11 530.027 4347.81 522.234 4337.2C516.082 4328.71 513.006 4317.98 513.006 4305.03C513.006 4289.56 517.049 4277.46 525.135 4268.73C533.221 4259.95 543.445 4255.55 555.809 4255.55C569.695 4255.55 580.652 4260.15 588.68 4269.35C596.707 4278.49 600.545 4292.52 600.193 4311.45H538.318C538.494 4318.77 540.486 4324.49 544.295 4328.59C548.104 4332.63 552.85 4334.65 558.533 4334.65C562.4 4334.65 565.652 4333.6 568.289 4331.49C570.926 4329.38 572.918 4325.98 574.266 4321.29ZM575.672 4296.33C575.496 4289.18 573.65 4283.76 570.135 4280.07C566.619 4276.32 562.342 4274.45 557.303 4274.45C551.912 4274.45 547.459 4276.41 543.943 4280.34C540.428 4284.26 538.699 4289.59 538.758 4296.33H575.672ZM669.891 4351V4222.15H695.906V4351H669.891ZM805.506 4351H780.809V4303.36C780.809 4293.29 780.281 4286.78 779.227 4283.85C778.172 4280.86 776.443 4278.55 774.041 4276.91C771.697 4275.27 768.855 4274.45 765.516 4274.45C761.238 4274.45 757.4 4275.62 754.002 4277.96C750.604 4280.31 748.26 4283.41 746.971 4287.28C745.74 4291.15 745.125 4298.29 745.125 4308.72V4351H720.428V4257.66H743.367V4271.37C751.512 4260.82 761.766 4255.55 774.129 4255.55C779.578 4255.55 784.559 4256.55 789.07 4258.54C793.582 4260.47 796.98 4262.96 799.266 4266.01C801.609 4269.06 803.221 4272.51 804.1 4276.38C805.037 4280.25 805.506 4285.79 805.506 4292.99V4351ZM916.248 4351H893.309V4337.29C889.5 4342.62 884.988 4346.61 879.773 4349.24C874.617 4351.82 869.402 4353.11 864.129 4353.11C853.406 4353.11 844.207 4348.8 836.531 4340.19C828.914 4331.52 825.105 4319.45 825.105 4303.98C825.105 4288.16 828.826 4276.15 836.268 4267.94C843.709 4259.68 853.113 4255.55 864.48 4255.55C874.91 4255.55 883.934 4259.89 891.551 4268.56V4222.15H916.248V4351ZM850.33 4302.31C850.33 4312.27 851.707 4319.48 854.461 4323.93C858.445 4330.38 864.012 4333.6 871.16 4333.6C876.844 4333.6 881.678 4331.2 885.662 4326.39C889.646 4321.53 891.639 4314.29 891.639 4304.68C891.639 4293.96 889.705 4286.25 885.838 4281.57C881.971 4276.82 877.02 4274.45 870.984 4274.45C865.125 4274.45 860.203 4276.79 856.219 4281.48C852.293 4286.11 850.33 4293.05 850.33 4302.31ZM994.734 4321.29L1019.34 4325.42C1016.18 4334.45 1011.17 4341.33 1004.31 4346.08C997.518 4350.77 988.992 4353.11 978.738 4353.11C962.508 4353.11 950.496 4347.81 942.703 4337.2C936.551 4328.71 933.475 4317.98 933.475 4305.03C933.475 4289.56 937.518 4277.46 945.604 4268.73C953.689 4259.95 963.914 4255.55 976.277 4255.55C990.164 4255.55 1001.12 4260.15 1009.15 4269.35C1017.18 4278.49 1021.01 4292.52 1020.66 4311.45H958.787C958.963 4318.77 960.955 4324.49 964.764 4328.59C968.572 4332.63 973.318 4334.65 979.002 4334.65C982.869 4334.65 986.121 4333.6 988.758 4331.49C991.395 4329.38 993.387 4325.98 994.734 4321.29ZM996.141 4296.33C995.965 4289.18 994.119 4283.76 990.604 4280.07C987.088 4276.32 982.811 4274.45 977.771 4274.45C972.381 4274.45 967.928 4276.41 964.412 4280.34C960.896 4284.26 959.168 4289.59 959.227 4296.33H996.141ZM1039.03 4257.66H1061.79V4270.4C1069.94 4260.5 1079.64 4255.55 1090.89 4255.55C1096.86 4255.55 1102.05 4256.78 1106.44 4259.24C1110.84 4261.7 1114.44 4265.42 1117.25 4270.4C1121.36 4265.42 1125.78 4261.7 1130.53 4259.24C1135.27 4256.78 1140.34 4255.55 1145.73 4255.55C1152.59 4255.55 1158.39 4256.96 1163.13 4259.77C1167.88 4262.52 1171.42 4266.6 1173.77 4271.99C1175.47 4275.97 1176.32 4282.42 1176.32 4291.32V4351H1151.62V4297.65C1151.62 4288.39 1150.77 4282.42 1149.07 4279.72C1146.79 4276.21 1143.27 4274.45 1138.52 4274.45C1135.07 4274.45 1131.81 4275.5 1128.77 4277.61C1125.72 4279.72 1123.52 4282.83 1122.18 4286.93C1120.83 4290.97 1120.15 4297.39 1120.15 4306.18V4351H1095.46V4299.85C1095.46 4290.77 1095.02 4284.91 1094.14 4282.27C1093.26 4279.63 1091.88 4277.67 1090.01 4276.38C1088.19 4275.09 1085.7 4274.45 1082.54 4274.45C1078.73 4274.45 1075.3 4275.47 1072.25 4277.52C1069.21 4279.57 1067.01 4282.53 1065.66 4286.4C1064.37 4290.27 1063.73 4296.68 1063.73 4305.65V4351H1039.03V4257.66ZM1285.92 4351H1261.22V4303.36C1261.22 4293.29 1260.69 4286.78 1259.64 4283.85C1258.58 4280.86 1256.85 4278.55 1254.45 4276.91C1252.11 4275.27 1249.27 4274.45 1245.93 4274.45C1241.65 4274.45 1237.81 4275.62 1234.41 4277.96C1231.01 4280.31 1228.67 4283.41 1227.38 4287.28C1226.15 4291.15 1225.54 4298.29 1225.54 4308.72V4351H1200.84V4257.66H1223.78V4271.37C1231.92 4260.82 1242.18 4255.55 1254.54 4255.55C1259.99 4255.55 1264.97 4256.55 1269.48 4258.54C1273.99 4260.47 1277.39 4262.96 1279.68 4266.01C1282.02 4269.06 1283.63 4272.51 1284.51 4276.38C1285.45 4280.25 1285.92 4285.79 1285.92 4292.99V4351ZM1311.05 4245V4222.15H1335.75V4245H1311.05ZM1311.05 4351V4257.66H1335.75V4351H1311.05ZM1403.95 4257.66V4277.35H1387.08V4314.96C1387.08 4322.58 1387.22 4327.04 1387.52 4328.32C1387.87 4329.55 1388.6 4330.58 1389.71 4331.4C1390.89 4332.22 1392.29 4332.63 1393.93 4332.63C1396.22 4332.63 1399.53 4331.84 1403.87 4330.26L1405.97 4349.42C1400.23 4351.88 1393.73 4353.11 1386.46 4353.11C1382.01 4353.11 1378 4352.38 1374.42 4350.91C1370.85 4349.39 1368.21 4347.46 1366.51 4345.11C1364.87 4342.71 1363.73 4339.49 1363.08 4335.44C1362.56 4332.57 1362.29 4326.77 1362.29 4318.04V4277.35H1350.96V4257.66H1362.29V4239.12L1387.08 4224.7V4257.66H1403.95ZM1409.4 4257.66H1435.68L1458.01 4323.93L1479.8 4257.66H1505.38L1472.42 4347.48L1466.53 4363.74C1464.36 4369.19 1462.28 4373.35 1460.29 4376.22C1458.36 4379.1 1456.1 4381.41 1453.52 4383.17C1451 4384.98 1447.87 4386.39 1444.12 4387.39C1440.43 4388.38 1436.24 4388.88 1431.55 4388.88C1426.8 4388.88 1422.15 4388.38 1417.58 4387.39L1415.38 4368.05C1419.25 4368.81 1422.73 4369.19 1425.84 4369.19C1431.58 4369.19 1435.83 4367.49 1438.58 4364.1C1441.34 4360.76 1443.45 4356.48 1444.91 4351.26L1409.4 4257.66Z" fill="#FEFAFA"/>
<circle cx="2301" cy="250" r="250" fill="#FF0000"/>
<circle cx="2301" cy="2253" r="250" fill="#66CC66"/>
<circle cx="2301" cy="1572" r="250" fill="#FF6699"/>
<circle cx="2301" cy="891" r="250" fill="#FF6600"/>
<circle cx="2301" cy="2934" r="250" fill="#FFFF00"/>
<circle cx="2301" cy="4256" r="250" fill="#33ADFF"/>
<circle cx="2301" cy="3575" r="250" fill="#CC00FF"/>
</svg>
